G04 #@! TF.GenerationSoftware,KiCad,Pcbnew,(5.0.0)*
G04 #@! TF.CreationDate,2019-03-04T20:58:40-06:00*
G04 #@! TF.ProjectId,LightingBoard_Hardware,4C69676874696E67426F6172645F4861,rev?*
G04 #@! TF.SameCoordinates,Original*
G04 #@! TF.FileFunction,Paste,Top*
G04 #@! TF.FilePolarity,Positive*
%FSLAX46Y46*%
G04 Gerber Fmt 4.6, Leading zero omitted, Abs format (unit mm)*
G04 Created by KiCad (PCBNEW (5.0.0)) date 03/04/19 20:58:40*
%MOMM*%
%LPD*%
G01*
G04 APERTURE LIST*
%ADD10C,5.080000*%
%ADD11C,0.100000*%
%ADD12C,0.950000*%
%ADD13R,1.600000X1.400000*%
G04 APERTURE END LIST*
D10*
G04 #@! TO.C,Conn1*
X120294400Y-112775000D03*
X120294400Y-104776000D03*
X120294400Y-96775000D03*
G04 #@! TD*
D11*
G04 #@! TO.C,C2*
G36*
X138613779Y-122843144D02*
X138636834Y-122846563D01*
X138659443Y-122852227D01*
X138681387Y-122860079D01*
X138702457Y-122870044D01*
X138722448Y-122882026D01*
X138741168Y-122895910D01*
X138758438Y-122911562D01*
X138774090Y-122928832D01*
X138787974Y-122947552D01*
X138799956Y-122967543D01*
X138809921Y-122988613D01*
X138817773Y-123010557D01*
X138823437Y-123033166D01*
X138826856Y-123056221D01*
X138828000Y-123079500D01*
X138828000Y-123554500D01*
X138826856Y-123577779D01*
X138823437Y-123600834D01*
X138817773Y-123623443D01*
X138809921Y-123645387D01*
X138799956Y-123666457D01*
X138787974Y-123686448D01*
X138774090Y-123705168D01*
X138758438Y-123722438D01*
X138741168Y-123738090D01*
X138722448Y-123751974D01*
X138702457Y-123763956D01*
X138681387Y-123773921D01*
X138659443Y-123781773D01*
X138636834Y-123787437D01*
X138613779Y-123790856D01*
X138590500Y-123792000D01*
X138015500Y-123792000D01*
X137992221Y-123790856D01*
X137969166Y-123787437D01*
X137946557Y-123781773D01*
X137924613Y-123773921D01*
X137903543Y-123763956D01*
X137883552Y-123751974D01*
X137864832Y-123738090D01*
X137847562Y-123722438D01*
X137831910Y-123705168D01*
X137818026Y-123686448D01*
X137806044Y-123666457D01*
X137796079Y-123645387D01*
X137788227Y-123623443D01*
X137782563Y-123600834D01*
X137779144Y-123577779D01*
X137778000Y-123554500D01*
X137778000Y-123079500D01*
X137779144Y-123056221D01*
X137782563Y-123033166D01*
X137788227Y-123010557D01*
X137796079Y-122988613D01*
X137806044Y-122967543D01*
X137818026Y-122947552D01*
X137831910Y-122928832D01*
X137847562Y-122911562D01*
X137864832Y-122895910D01*
X137883552Y-122882026D01*
X137903543Y-122870044D01*
X137924613Y-122860079D01*
X137946557Y-122852227D01*
X137969166Y-122846563D01*
X137992221Y-122843144D01*
X138015500Y-122842000D01*
X138590500Y-122842000D01*
X138613779Y-122843144D01*
X138613779Y-122843144D01*
G37*
D12*
X138303000Y-123317000D03*
D11*
G36*
X140363779Y-122843144D02*
X140386834Y-122846563D01*
X140409443Y-122852227D01*
X140431387Y-122860079D01*
X140452457Y-122870044D01*
X140472448Y-122882026D01*
X140491168Y-122895910D01*
X140508438Y-122911562D01*
X140524090Y-122928832D01*
X140537974Y-122947552D01*
X140549956Y-122967543D01*
X140559921Y-122988613D01*
X140567773Y-123010557D01*
X140573437Y-123033166D01*
X140576856Y-123056221D01*
X140578000Y-123079500D01*
X140578000Y-123554500D01*
X140576856Y-123577779D01*
X140573437Y-123600834D01*
X140567773Y-123623443D01*
X140559921Y-123645387D01*
X140549956Y-123666457D01*
X140537974Y-123686448D01*
X140524090Y-123705168D01*
X140508438Y-123722438D01*
X140491168Y-123738090D01*
X140472448Y-123751974D01*
X140452457Y-123763956D01*
X140431387Y-123773921D01*
X140409443Y-123781773D01*
X140386834Y-123787437D01*
X140363779Y-123790856D01*
X140340500Y-123792000D01*
X139765500Y-123792000D01*
X139742221Y-123790856D01*
X139719166Y-123787437D01*
X139696557Y-123781773D01*
X139674613Y-123773921D01*
X139653543Y-123763956D01*
X139633552Y-123751974D01*
X139614832Y-123738090D01*
X139597562Y-123722438D01*
X139581910Y-123705168D01*
X139568026Y-123686448D01*
X139556044Y-123666457D01*
X139546079Y-123645387D01*
X139538227Y-123623443D01*
X139532563Y-123600834D01*
X139529144Y-123577779D01*
X139528000Y-123554500D01*
X139528000Y-123079500D01*
X139529144Y-123056221D01*
X139532563Y-123033166D01*
X139538227Y-123010557D01*
X139546079Y-122988613D01*
X139556044Y-122967543D01*
X139568026Y-122947552D01*
X139581910Y-122928832D01*
X139597562Y-122911562D01*
X139614832Y-122895910D01*
X139633552Y-122882026D01*
X139653543Y-122870044D01*
X139674613Y-122860079D01*
X139696557Y-122852227D01*
X139719166Y-122846563D01*
X139742221Y-122843144D01*
X139765500Y-122842000D01*
X140340500Y-122842000D01*
X140363779Y-122843144D01*
X140363779Y-122843144D01*
G37*
D12*
X140053000Y-123317000D03*
G04 #@! TD*
D11*
G04 #@! TO.C,C3*
G36*
X131783779Y-122843144D02*
X131806834Y-122846563D01*
X131829443Y-122852227D01*
X131851387Y-122860079D01*
X131872457Y-122870044D01*
X131892448Y-122882026D01*
X131911168Y-122895910D01*
X131928438Y-122911562D01*
X131944090Y-122928832D01*
X131957974Y-122947552D01*
X131969956Y-122967543D01*
X131979921Y-122988613D01*
X131987773Y-123010557D01*
X131993437Y-123033166D01*
X131996856Y-123056221D01*
X131998000Y-123079500D01*
X131998000Y-123554500D01*
X131996856Y-123577779D01*
X131993437Y-123600834D01*
X131987773Y-123623443D01*
X131979921Y-123645387D01*
X131969956Y-123666457D01*
X131957974Y-123686448D01*
X131944090Y-123705168D01*
X131928438Y-123722438D01*
X131911168Y-123738090D01*
X131892448Y-123751974D01*
X131872457Y-123763956D01*
X131851387Y-123773921D01*
X131829443Y-123781773D01*
X131806834Y-123787437D01*
X131783779Y-123790856D01*
X131760500Y-123792000D01*
X131185500Y-123792000D01*
X131162221Y-123790856D01*
X131139166Y-123787437D01*
X131116557Y-123781773D01*
X131094613Y-123773921D01*
X131073543Y-123763956D01*
X131053552Y-123751974D01*
X131034832Y-123738090D01*
X131017562Y-123722438D01*
X131001910Y-123705168D01*
X130988026Y-123686448D01*
X130976044Y-123666457D01*
X130966079Y-123645387D01*
X130958227Y-123623443D01*
X130952563Y-123600834D01*
X130949144Y-123577779D01*
X130948000Y-123554500D01*
X130948000Y-123079500D01*
X130949144Y-123056221D01*
X130952563Y-123033166D01*
X130958227Y-123010557D01*
X130966079Y-122988613D01*
X130976044Y-122967543D01*
X130988026Y-122947552D01*
X131001910Y-122928832D01*
X131017562Y-122911562D01*
X131034832Y-122895910D01*
X131053552Y-122882026D01*
X131073543Y-122870044D01*
X131094613Y-122860079D01*
X131116557Y-122852227D01*
X131139166Y-122846563D01*
X131162221Y-122843144D01*
X131185500Y-122842000D01*
X131760500Y-122842000D01*
X131783779Y-122843144D01*
X131783779Y-122843144D01*
G37*
D12*
X131473000Y-123317000D03*
D11*
G36*
X133533779Y-122843144D02*
X133556834Y-122846563D01*
X133579443Y-122852227D01*
X133601387Y-122860079D01*
X133622457Y-122870044D01*
X133642448Y-122882026D01*
X133661168Y-122895910D01*
X133678438Y-122911562D01*
X133694090Y-122928832D01*
X133707974Y-122947552D01*
X133719956Y-122967543D01*
X133729921Y-122988613D01*
X133737773Y-123010557D01*
X133743437Y-123033166D01*
X133746856Y-123056221D01*
X133748000Y-123079500D01*
X133748000Y-123554500D01*
X133746856Y-123577779D01*
X133743437Y-123600834D01*
X133737773Y-123623443D01*
X133729921Y-123645387D01*
X133719956Y-123666457D01*
X133707974Y-123686448D01*
X133694090Y-123705168D01*
X133678438Y-123722438D01*
X133661168Y-123738090D01*
X133642448Y-123751974D01*
X133622457Y-123763956D01*
X133601387Y-123773921D01*
X133579443Y-123781773D01*
X133556834Y-123787437D01*
X133533779Y-123790856D01*
X133510500Y-123792000D01*
X132935500Y-123792000D01*
X132912221Y-123790856D01*
X132889166Y-123787437D01*
X132866557Y-123781773D01*
X132844613Y-123773921D01*
X132823543Y-123763956D01*
X132803552Y-123751974D01*
X132784832Y-123738090D01*
X132767562Y-123722438D01*
X132751910Y-123705168D01*
X132738026Y-123686448D01*
X132726044Y-123666457D01*
X132716079Y-123645387D01*
X132708227Y-123623443D01*
X132702563Y-123600834D01*
X132699144Y-123577779D01*
X132698000Y-123554500D01*
X132698000Y-123079500D01*
X132699144Y-123056221D01*
X132702563Y-123033166D01*
X132708227Y-123010557D01*
X132716079Y-122988613D01*
X132726044Y-122967543D01*
X132738026Y-122947552D01*
X132751910Y-122928832D01*
X132767562Y-122911562D01*
X132784832Y-122895910D01*
X132803552Y-122882026D01*
X132823543Y-122870044D01*
X132844613Y-122860079D01*
X132866557Y-122852227D01*
X132889166Y-122846563D01*
X132912221Y-122843144D01*
X132935500Y-122842000D01*
X133510500Y-122842000D01*
X133533779Y-122843144D01*
X133533779Y-122843144D01*
G37*
D12*
X133223000Y-123317000D03*
G04 #@! TD*
D11*
G04 #@! TO.C,D2*
G36*
X143691179Y-28101144D02*
X143714234Y-28104563D01*
X143736843Y-28110227D01*
X143758787Y-28118079D01*
X143779857Y-28128044D01*
X143799848Y-28140026D01*
X143818568Y-28153910D01*
X143835838Y-28169562D01*
X143851490Y-28186832D01*
X143865374Y-28205552D01*
X143877356Y-28225543D01*
X143887321Y-28246613D01*
X143895173Y-28268557D01*
X143900837Y-28291166D01*
X143904256Y-28314221D01*
X143905400Y-28337500D01*
X143905400Y-28812500D01*
X143904256Y-28835779D01*
X143900837Y-28858834D01*
X143895173Y-28881443D01*
X143887321Y-28903387D01*
X143877356Y-28924457D01*
X143865374Y-28944448D01*
X143851490Y-28963168D01*
X143835838Y-28980438D01*
X143818568Y-28996090D01*
X143799848Y-29009974D01*
X143779857Y-29021956D01*
X143758787Y-29031921D01*
X143736843Y-29039773D01*
X143714234Y-29045437D01*
X143691179Y-29048856D01*
X143667900Y-29050000D01*
X143092900Y-29050000D01*
X143069621Y-29048856D01*
X143046566Y-29045437D01*
X143023957Y-29039773D01*
X143002013Y-29031921D01*
X142980943Y-29021956D01*
X142960952Y-29009974D01*
X142942232Y-28996090D01*
X142924962Y-28980438D01*
X142909310Y-28963168D01*
X142895426Y-28944448D01*
X142883444Y-28924457D01*
X142873479Y-28903387D01*
X142865627Y-28881443D01*
X142859963Y-28858834D01*
X142856544Y-28835779D01*
X142855400Y-28812500D01*
X142855400Y-28337500D01*
X142856544Y-28314221D01*
X142859963Y-28291166D01*
X142865627Y-28268557D01*
X142873479Y-28246613D01*
X142883444Y-28225543D01*
X142895426Y-28205552D01*
X142909310Y-28186832D01*
X142924962Y-28169562D01*
X142942232Y-28153910D01*
X142960952Y-28140026D01*
X142980943Y-28128044D01*
X143002013Y-28118079D01*
X143023957Y-28110227D01*
X143046566Y-28104563D01*
X143069621Y-28101144D01*
X143092900Y-28100000D01*
X143667900Y-28100000D01*
X143691179Y-28101144D01*
X143691179Y-28101144D01*
G37*
D12*
X143380400Y-28575000D03*
D11*
G36*
X141941179Y-28101144D02*
X141964234Y-28104563D01*
X141986843Y-28110227D01*
X142008787Y-28118079D01*
X142029857Y-28128044D01*
X142049848Y-28140026D01*
X142068568Y-28153910D01*
X142085838Y-28169562D01*
X142101490Y-28186832D01*
X142115374Y-28205552D01*
X142127356Y-28225543D01*
X142137321Y-28246613D01*
X142145173Y-28268557D01*
X142150837Y-28291166D01*
X142154256Y-28314221D01*
X142155400Y-28337500D01*
X142155400Y-28812500D01*
X142154256Y-28835779D01*
X142150837Y-28858834D01*
X142145173Y-28881443D01*
X142137321Y-28903387D01*
X142127356Y-28924457D01*
X142115374Y-28944448D01*
X142101490Y-28963168D01*
X142085838Y-28980438D01*
X142068568Y-28996090D01*
X142049848Y-29009974D01*
X142029857Y-29021956D01*
X142008787Y-29031921D01*
X141986843Y-29039773D01*
X141964234Y-29045437D01*
X141941179Y-29048856D01*
X141917900Y-29050000D01*
X141342900Y-29050000D01*
X141319621Y-29048856D01*
X141296566Y-29045437D01*
X141273957Y-29039773D01*
X141252013Y-29031921D01*
X141230943Y-29021956D01*
X141210952Y-29009974D01*
X141192232Y-28996090D01*
X141174962Y-28980438D01*
X141159310Y-28963168D01*
X141145426Y-28944448D01*
X141133444Y-28924457D01*
X141123479Y-28903387D01*
X141115627Y-28881443D01*
X141109963Y-28858834D01*
X141106544Y-28835779D01*
X141105400Y-28812500D01*
X141105400Y-28337500D01*
X141106544Y-28314221D01*
X141109963Y-28291166D01*
X141115627Y-28268557D01*
X141123479Y-28246613D01*
X141133444Y-28225543D01*
X141145426Y-28205552D01*
X141159310Y-28186832D01*
X141174962Y-28169562D01*
X141192232Y-28153910D01*
X141210952Y-28140026D01*
X141230943Y-28128044D01*
X141252013Y-28118079D01*
X141273957Y-28110227D01*
X141296566Y-28104563D01*
X141319621Y-28101144D01*
X141342900Y-28100000D01*
X141917900Y-28100000D01*
X141941179Y-28101144D01*
X141941179Y-28101144D01*
G37*
D12*
X141630400Y-28575000D03*
G04 #@! TD*
D11*
G04 #@! TO.C,D3*
G36*
X152200179Y-28101144D02*
X152223234Y-28104563D01*
X152245843Y-28110227D01*
X152267787Y-28118079D01*
X152288857Y-28128044D01*
X152308848Y-28140026D01*
X152327568Y-28153910D01*
X152344838Y-28169562D01*
X152360490Y-28186832D01*
X152374374Y-28205552D01*
X152386356Y-28225543D01*
X152396321Y-28246613D01*
X152404173Y-28268557D01*
X152409837Y-28291166D01*
X152413256Y-28314221D01*
X152414400Y-28337500D01*
X152414400Y-28812500D01*
X152413256Y-28835779D01*
X152409837Y-28858834D01*
X152404173Y-28881443D01*
X152396321Y-28903387D01*
X152386356Y-28924457D01*
X152374374Y-28944448D01*
X152360490Y-28963168D01*
X152344838Y-28980438D01*
X152327568Y-28996090D01*
X152308848Y-29009974D01*
X152288857Y-29021956D01*
X152267787Y-29031921D01*
X152245843Y-29039773D01*
X152223234Y-29045437D01*
X152200179Y-29048856D01*
X152176900Y-29050000D01*
X151601900Y-29050000D01*
X151578621Y-29048856D01*
X151555566Y-29045437D01*
X151532957Y-29039773D01*
X151511013Y-29031921D01*
X151489943Y-29021956D01*
X151469952Y-29009974D01*
X151451232Y-28996090D01*
X151433962Y-28980438D01*
X151418310Y-28963168D01*
X151404426Y-28944448D01*
X151392444Y-28924457D01*
X151382479Y-28903387D01*
X151374627Y-28881443D01*
X151368963Y-28858834D01*
X151365544Y-28835779D01*
X151364400Y-28812500D01*
X151364400Y-28337500D01*
X151365544Y-28314221D01*
X151368963Y-28291166D01*
X151374627Y-28268557D01*
X151382479Y-28246613D01*
X151392444Y-28225543D01*
X151404426Y-28205552D01*
X151418310Y-28186832D01*
X151433962Y-28169562D01*
X151451232Y-28153910D01*
X151469952Y-28140026D01*
X151489943Y-28128044D01*
X151511013Y-28118079D01*
X151532957Y-28110227D01*
X151555566Y-28104563D01*
X151578621Y-28101144D01*
X151601900Y-28100000D01*
X152176900Y-28100000D01*
X152200179Y-28101144D01*
X152200179Y-28101144D01*
G37*
D12*
X151889400Y-28575000D03*
D11*
G36*
X150450179Y-28101144D02*
X150473234Y-28104563D01*
X150495843Y-28110227D01*
X150517787Y-28118079D01*
X150538857Y-28128044D01*
X150558848Y-28140026D01*
X150577568Y-28153910D01*
X150594838Y-28169562D01*
X150610490Y-28186832D01*
X150624374Y-28205552D01*
X150636356Y-28225543D01*
X150646321Y-28246613D01*
X150654173Y-28268557D01*
X150659837Y-28291166D01*
X150663256Y-28314221D01*
X150664400Y-28337500D01*
X150664400Y-28812500D01*
X150663256Y-28835779D01*
X150659837Y-28858834D01*
X150654173Y-28881443D01*
X150646321Y-28903387D01*
X150636356Y-28924457D01*
X150624374Y-28944448D01*
X150610490Y-28963168D01*
X150594838Y-28980438D01*
X150577568Y-28996090D01*
X150558848Y-29009974D01*
X150538857Y-29021956D01*
X150517787Y-29031921D01*
X150495843Y-29039773D01*
X150473234Y-29045437D01*
X150450179Y-29048856D01*
X150426900Y-29050000D01*
X149851900Y-29050000D01*
X149828621Y-29048856D01*
X149805566Y-29045437D01*
X149782957Y-29039773D01*
X149761013Y-29031921D01*
X149739943Y-29021956D01*
X149719952Y-29009974D01*
X149701232Y-28996090D01*
X149683962Y-28980438D01*
X149668310Y-28963168D01*
X149654426Y-28944448D01*
X149642444Y-28924457D01*
X149632479Y-28903387D01*
X149624627Y-28881443D01*
X149618963Y-28858834D01*
X149615544Y-28835779D01*
X149614400Y-28812500D01*
X149614400Y-28337500D01*
X149615544Y-28314221D01*
X149618963Y-28291166D01*
X149624627Y-28268557D01*
X149632479Y-28246613D01*
X149642444Y-28225543D01*
X149654426Y-28205552D01*
X149668310Y-28186832D01*
X149683962Y-28169562D01*
X149701232Y-28153910D01*
X149719952Y-28140026D01*
X149739943Y-28128044D01*
X149761013Y-28118079D01*
X149782957Y-28110227D01*
X149805566Y-28104563D01*
X149828621Y-28101144D01*
X149851900Y-28100000D01*
X150426900Y-28100000D01*
X150450179Y-28101144D01*
X150450179Y-28101144D01*
G37*
D12*
X150139400Y-28575000D03*
G04 #@! TD*
D11*
G04 #@! TO.C,D4*
G36*
X158959179Y-28101144D02*
X158982234Y-28104563D01*
X159004843Y-28110227D01*
X159026787Y-28118079D01*
X159047857Y-28128044D01*
X159067848Y-28140026D01*
X159086568Y-28153910D01*
X159103838Y-28169562D01*
X159119490Y-28186832D01*
X159133374Y-28205552D01*
X159145356Y-28225543D01*
X159155321Y-28246613D01*
X159163173Y-28268557D01*
X159168837Y-28291166D01*
X159172256Y-28314221D01*
X159173400Y-28337500D01*
X159173400Y-28812500D01*
X159172256Y-28835779D01*
X159168837Y-28858834D01*
X159163173Y-28881443D01*
X159155321Y-28903387D01*
X159145356Y-28924457D01*
X159133374Y-28944448D01*
X159119490Y-28963168D01*
X159103838Y-28980438D01*
X159086568Y-28996090D01*
X159067848Y-29009974D01*
X159047857Y-29021956D01*
X159026787Y-29031921D01*
X159004843Y-29039773D01*
X158982234Y-29045437D01*
X158959179Y-29048856D01*
X158935900Y-29050000D01*
X158360900Y-29050000D01*
X158337621Y-29048856D01*
X158314566Y-29045437D01*
X158291957Y-29039773D01*
X158270013Y-29031921D01*
X158248943Y-29021956D01*
X158228952Y-29009974D01*
X158210232Y-28996090D01*
X158192962Y-28980438D01*
X158177310Y-28963168D01*
X158163426Y-28944448D01*
X158151444Y-28924457D01*
X158141479Y-28903387D01*
X158133627Y-28881443D01*
X158127963Y-28858834D01*
X158124544Y-28835779D01*
X158123400Y-28812500D01*
X158123400Y-28337500D01*
X158124544Y-28314221D01*
X158127963Y-28291166D01*
X158133627Y-28268557D01*
X158141479Y-28246613D01*
X158151444Y-28225543D01*
X158163426Y-28205552D01*
X158177310Y-28186832D01*
X158192962Y-28169562D01*
X158210232Y-28153910D01*
X158228952Y-28140026D01*
X158248943Y-28128044D01*
X158270013Y-28118079D01*
X158291957Y-28110227D01*
X158314566Y-28104563D01*
X158337621Y-28101144D01*
X158360900Y-28100000D01*
X158935900Y-28100000D01*
X158959179Y-28101144D01*
X158959179Y-28101144D01*
G37*
D12*
X158648400Y-28575000D03*
D11*
G36*
X160709179Y-28101144D02*
X160732234Y-28104563D01*
X160754843Y-28110227D01*
X160776787Y-28118079D01*
X160797857Y-28128044D01*
X160817848Y-28140026D01*
X160836568Y-28153910D01*
X160853838Y-28169562D01*
X160869490Y-28186832D01*
X160883374Y-28205552D01*
X160895356Y-28225543D01*
X160905321Y-28246613D01*
X160913173Y-28268557D01*
X160918837Y-28291166D01*
X160922256Y-28314221D01*
X160923400Y-28337500D01*
X160923400Y-28812500D01*
X160922256Y-28835779D01*
X160918837Y-28858834D01*
X160913173Y-28881443D01*
X160905321Y-28903387D01*
X160895356Y-28924457D01*
X160883374Y-28944448D01*
X160869490Y-28963168D01*
X160853838Y-28980438D01*
X160836568Y-28996090D01*
X160817848Y-29009974D01*
X160797857Y-29021956D01*
X160776787Y-29031921D01*
X160754843Y-29039773D01*
X160732234Y-29045437D01*
X160709179Y-29048856D01*
X160685900Y-29050000D01*
X160110900Y-29050000D01*
X160087621Y-29048856D01*
X160064566Y-29045437D01*
X160041957Y-29039773D01*
X160020013Y-29031921D01*
X159998943Y-29021956D01*
X159978952Y-29009974D01*
X159960232Y-28996090D01*
X159942962Y-28980438D01*
X159927310Y-28963168D01*
X159913426Y-28944448D01*
X159901444Y-28924457D01*
X159891479Y-28903387D01*
X159883627Y-28881443D01*
X159877963Y-28858834D01*
X159874544Y-28835779D01*
X159873400Y-28812500D01*
X159873400Y-28337500D01*
X159874544Y-28314221D01*
X159877963Y-28291166D01*
X159883627Y-28268557D01*
X159891479Y-28246613D01*
X159901444Y-28225543D01*
X159913426Y-28205552D01*
X159927310Y-28186832D01*
X159942962Y-28169562D01*
X159960232Y-28153910D01*
X159978952Y-28140026D01*
X159998943Y-28128044D01*
X160020013Y-28118079D01*
X160041957Y-28110227D01*
X160064566Y-28104563D01*
X160087621Y-28101144D01*
X160110900Y-28100000D01*
X160685900Y-28100000D01*
X160709179Y-28101144D01*
X160709179Y-28101144D01*
G37*
D12*
X160398400Y-28575000D03*
G04 #@! TD*
D11*
G04 #@! TO.C,R1*
G36*
X129495179Y-28101144D02*
X129518234Y-28104563D01*
X129540843Y-28110227D01*
X129562787Y-28118079D01*
X129583857Y-28128044D01*
X129603848Y-28140026D01*
X129622568Y-28153910D01*
X129639838Y-28169562D01*
X129655490Y-28186832D01*
X129669374Y-28205552D01*
X129681356Y-28225543D01*
X129691321Y-28246613D01*
X129699173Y-28268557D01*
X129704837Y-28291166D01*
X129708256Y-28314221D01*
X129709400Y-28337500D01*
X129709400Y-28812500D01*
X129708256Y-28835779D01*
X129704837Y-28858834D01*
X129699173Y-28881443D01*
X129691321Y-28903387D01*
X129681356Y-28924457D01*
X129669374Y-28944448D01*
X129655490Y-28963168D01*
X129639838Y-28980438D01*
X129622568Y-28996090D01*
X129603848Y-29009974D01*
X129583857Y-29021956D01*
X129562787Y-29031921D01*
X129540843Y-29039773D01*
X129518234Y-29045437D01*
X129495179Y-29048856D01*
X129471900Y-29050000D01*
X128896900Y-29050000D01*
X128873621Y-29048856D01*
X128850566Y-29045437D01*
X128827957Y-29039773D01*
X128806013Y-29031921D01*
X128784943Y-29021956D01*
X128764952Y-29009974D01*
X128746232Y-28996090D01*
X128728962Y-28980438D01*
X128713310Y-28963168D01*
X128699426Y-28944448D01*
X128687444Y-28924457D01*
X128677479Y-28903387D01*
X128669627Y-28881443D01*
X128663963Y-28858834D01*
X128660544Y-28835779D01*
X128659400Y-28812500D01*
X128659400Y-28337500D01*
X128660544Y-28314221D01*
X128663963Y-28291166D01*
X128669627Y-28268557D01*
X128677479Y-28246613D01*
X128687444Y-28225543D01*
X128699426Y-28205552D01*
X128713310Y-28186832D01*
X128728962Y-28169562D01*
X128746232Y-28153910D01*
X128764952Y-28140026D01*
X128784943Y-28128044D01*
X128806013Y-28118079D01*
X128827957Y-28110227D01*
X128850566Y-28104563D01*
X128873621Y-28101144D01*
X128896900Y-28100000D01*
X129471900Y-28100000D01*
X129495179Y-28101144D01*
X129495179Y-28101144D01*
G37*
D12*
X129184400Y-28575000D03*
D11*
G36*
X131245179Y-28101144D02*
X131268234Y-28104563D01*
X131290843Y-28110227D01*
X131312787Y-28118079D01*
X131333857Y-28128044D01*
X131353848Y-28140026D01*
X131372568Y-28153910D01*
X131389838Y-28169562D01*
X131405490Y-28186832D01*
X131419374Y-28205552D01*
X131431356Y-28225543D01*
X131441321Y-28246613D01*
X131449173Y-28268557D01*
X131454837Y-28291166D01*
X131458256Y-28314221D01*
X131459400Y-28337500D01*
X131459400Y-28812500D01*
X131458256Y-28835779D01*
X131454837Y-28858834D01*
X131449173Y-28881443D01*
X131441321Y-28903387D01*
X131431356Y-28924457D01*
X131419374Y-28944448D01*
X131405490Y-28963168D01*
X131389838Y-28980438D01*
X131372568Y-28996090D01*
X131353848Y-29009974D01*
X131333857Y-29021956D01*
X131312787Y-29031921D01*
X131290843Y-29039773D01*
X131268234Y-29045437D01*
X131245179Y-29048856D01*
X131221900Y-29050000D01*
X130646900Y-29050000D01*
X130623621Y-29048856D01*
X130600566Y-29045437D01*
X130577957Y-29039773D01*
X130556013Y-29031921D01*
X130534943Y-29021956D01*
X130514952Y-29009974D01*
X130496232Y-28996090D01*
X130478962Y-28980438D01*
X130463310Y-28963168D01*
X130449426Y-28944448D01*
X130437444Y-28924457D01*
X130427479Y-28903387D01*
X130419627Y-28881443D01*
X130413963Y-28858834D01*
X130410544Y-28835779D01*
X130409400Y-28812500D01*
X130409400Y-28337500D01*
X130410544Y-28314221D01*
X130413963Y-28291166D01*
X130419627Y-28268557D01*
X130427479Y-28246613D01*
X130437444Y-28225543D01*
X130449426Y-28205552D01*
X130463310Y-28186832D01*
X130478962Y-28169562D01*
X130496232Y-28153910D01*
X130514952Y-28140026D01*
X130534943Y-28128044D01*
X130556013Y-28118079D01*
X130577957Y-28110227D01*
X130600566Y-28104563D01*
X130623621Y-28101144D01*
X130646900Y-28100000D01*
X131221900Y-28100000D01*
X131245179Y-28101144D01*
X131245179Y-28101144D01*
G37*
D12*
X130934400Y-28575000D03*
G04 #@! TD*
D11*
G04 #@! TO.C,R2*
G36*
X139754179Y-28101144D02*
X139777234Y-28104563D01*
X139799843Y-28110227D01*
X139821787Y-28118079D01*
X139842857Y-28128044D01*
X139862848Y-28140026D01*
X139881568Y-28153910D01*
X139898838Y-28169562D01*
X139914490Y-28186832D01*
X139928374Y-28205552D01*
X139940356Y-28225543D01*
X139950321Y-28246613D01*
X139958173Y-28268557D01*
X139963837Y-28291166D01*
X139967256Y-28314221D01*
X139968400Y-28337500D01*
X139968400Y-28812500D01*
X139967256Y-28835779D01*
X139963837Y-28858834D01*
X139958173Y-28881443D01*
X139950321Y-28903387D01*
X139940356Y-28924457D01*
X139928374Y-28944448D01*
X139914490Y-28963168D01*
X139898838Y-28980438D01*
X139881568Y-28996090D01*
X139862848Y-29009974D01*
X139842857Y-29021956D01*
X139821787Y-29031921D01*
X139799843Y-29039773D01*
X139777234Y-29045437D01*
X139754179Y-29048856D01*
X139730900Y-29050000D01*
X139155900Y-29050000D01*
X139132621Y-29048856D01*
X139109566Y-29045437D01*
X139086957Y-29039773D01*
X139065013Y-29031921D01*
X139043943Y-29021956D01*
X139023952Y-29009974D01*
X139005232Y-28996090D01*
X138987962Y-28980438D01*
X138972310Y-28963168D01*
X138958426Y-28944448D01*
X138946444Y-28924457D01*
X138936479Y-28903387D01*
X138928627Y-28881443D01*
X138922963Y-28858834D01*
X138919544Y-28835779D01*
X138918400Y-28812500D01*
X138918400Y-28337500D01*
X138919544Y-28314221D01*
X138922963Y-28291166D01*
X138928627Y-28268557D01*
X138936479Y-28246613D01*
X138946444Y-28225543D01*
X138958426Y-28205552D01*
X138972310Y-28186832D01*
X138987962Y-28169562D01*
X139005232Y-28153910D01*
X139023952Y-28140026D01*
X139043943Y-28128044D01*
X139065013Y-28118079D01*
X139086957Y-28110227D01*
X139109566Y-28104563D01*
X139132621Y-28101144D01*
X139155900Y-28100000D01*
X139730900Y-28100000D01*
X139754179Y-28101144D01*
X139754179Y-28101144D01*
G37*
D12*
X139443400Y-28575000D03*
D11*
G36*
X138004179Y-28101144D02*
X138027234Y-28104563D01*
X138049843Y-28110227D01*
X138071787Y-28118079D01*
X138092857Y-28128044D01*
X138112848Y-28140026D01*
X138131568Y-28153910D01*
X138148838Y-28169562D01*
X138164490Y-28186832D01*
X138178374Y-28205552D01*
X138190356Y-28225543D01*
X138200321Y-28246613D01*
X138208173Y-28268557D01*
X138213837Y-28291166D01*
X138217256Y-28314221D01*
X138218400Y-28337500D01*
X138218400Y-28812500D01*
X138217256Y-28835779D01*
X138213837Y-28858834D01*
X138208173Y-28881443D01*
X138200321Y-28903387D01*
X138190356Y-28924457D01*
X138178374Y-28944448D01*
X138164490Y-28963168D01*
X138148838Y-28980438D01*
X138131568Y-28996090D01*
X138112848Y-29009974D01*
X138092857Y-29021956D01*
X138071787Y-29031921D01*
X138049843Y-29039773D01*
X138027234Y-29045437D01*
X138004179Y-29048856D01*
X137980900Y-29050000D01*
X137405900Y-29050000D01*
X137382621Y-29048856D01*
X137359566Y-29045437D01*
X137336957Y-29039773D01*
X137315013Y-29031921D01*
X137293943Y-29021956D01*
X137273952Y-29009974D01*
X137255232Y-28996090D01*
X137237962Y-28980438D01*
X137222310Y-28963168D01*
X137208426Y-28944448D01*
X137196444Y-28924457D01*
X137186479Y-28903387D01*
X137178627Y-28881443D01*
X137172963Y-28858834D01*
X137169544Y-28835779D01*
X137168400Y-28812500D01*
X137168400Y-28337500D01*
X137169544Y-28314221D01*
X137172963Y-28291166D01*
X137178627Y-28268557D01*
X137186479Y-28246613D01*
X137196444Y-28225543D01*
X137208426Y-28205552D01*
X137222310Y-28186832D01*
X137237962Y-28169562D01*
X137255232Y-28153910D01*
X137273952Y-28140026D01*
X137293943Y-28128044D01*
X137315013Y-28118079D01*
X137336957Y-28110227D01*
X137359566Y-28104563D01*
X137382621Y-28101144D01*
X137405900Y-28100000D01*
X137980900Y-28100000D01*
X138004179Y-28101144D01*
X138004179Y-28101144D01*
G37*
D12*
X137693400Y-28575000D03*
G04 #@! TD*
D11*
G04 #@! TO.C,R3*
G36*
X148263179Y-28101144D02*
X148286234Y-28104563D01*
X148308843Y-28110227D01*
X148330787Y-28118079D01*
X148351857Y-28128044D01*
X148371848Y-28140026D01*
X148390568Y-28153910D01*
X148407838Y-28169562D01*
X148423490Y-28186832D01*
X148437374Y-28205552D01*
X148449356Y-28225543D01*
X148459321Y-28246613D01*
X148467173Y-28268557D01*
X148472837Y-28291166D01*
X148476256Y-28314221D01*
X148477400Y-28337500D01*
X148477400Y-28812500D01*
X148476256Y-28835779D01*
X148472837Y-28858834D01*
X148467173Y-28881443D01*
X148459321Y-28903387D01*
X148449356Y-28924457D01*
X148437374Y-28944448D01*
X148423490Y-28963168D01*
X148407838Y-28980438D01*
X148390568Y-28996090D01*
X148371848Y-29009974D01*
X148351857Y-29021956D01*
X148330787Y-29031921D01*
X148308843Y-29039773D01*
X148286234Y-29045437D01*
X148263179Y-29048856D01*
X148239900Y-29050000D01*
X147664900Y-29050000D01*
X147641621Y-29048856D01*
X147618566Y-29045437D01*
X147595957Y-29039773D01*
X147574013Y-29031921D01*
X147552943Y-29021956D01*
X147532952Y-29009974D01*
X147514232Y-28996090D01*
X147496962Y-28980438D01*
X147481310Y-28963168D01*
X147467426Y-28944448D01*
X147455444Y-28924457D01*
X147445479Y-28903387D01*
X147437627Y-28881443D01*
X147431963Y-28858834D01*
X147428544Y-28835779D01*
X147427400Y-28812500D01*
X147427400Y-28337500D01*
X147428544Y-28314221D01*
X147431963Y-28291166D01*
X147437627Y-28268557D01*
X147445479Y-28246613D01*
X147455444Y-28225543D01*
X147467426Y-28205552D01*
X147481310Y-28186832D01*
X147496962Y-28169562D01*
X147514232Y-28153910D01*
X147532952Y-28140026D01*
X147552943Y-28128044D01*
X147574013Y-28118079D01*
X147595957Y-28110227D01*
X147618566Y-28104563D01*
X147641621Y-28101144D01*
X147664900Y-28100000D01*
X148239900Y-28100000D01*
X148263179Y-28101144D01*
X148263179Y-28101144D01*
G37*
D12*
X147952400Y-28575000D03*
D11*
G36*
X146513179Y-28101144D02*
X146536234Y-28104563D01*
X146558843Y-28110227D01*
X146580787Y-28118079D01*
X146601857Y-28128044D01*
X146621848Y-28140026D01*
X146640568Y-28153910D01*
X146657838Y-28169562D01*
X146673490Y-28186832D01*
X146687374Y-28205552D01*
X146699356Y-28225543D01*
X146709321Y-28246613D01*
X146717173Y-28268557D01*
X146722837Y-28291166D01*
X146726256Y-28314221D01*
X146727400Y-28337500D01*
X146727400Y-28812500D01*
X146726256Y-28835779D01*
X146722837Y-28858834D01*
X146717173Y-28881443D01*
X146709321Y-28903387D01*
X146699356Y-28924457D01*
X146687374Y-28944448D01*
X146673490Y-28963168D01*
X146657838Y-28980438D01*
X146640568Y-28996090D01*
X146621848Y-29009974D01*
X146601857Y-29021956D01*
X146580787Y-29031921D01*
X146558843Y-29039773D01*
X146536234Y-29045437D01*
X146513179Y-29048856D01*
X146489900Y-29050000D01*
X145914900Y-29050000D01*
X145891621Y-29048856D01*
X145868566Y-29045437D01*
X145845957Y-29039773D01*
X145824013Y-29031921D01*
X145802943Y-29021956D01*
X145782952Y-29009974D01*
X145764232Y-28996090D01*
X145746962Y-28980438D01*
X145731310Y-28963168D01*
X145717426Y-28944448D01*
X145705444Y-28924457D01*
X145695479Y-28903387D01*
X145687627Y-28881443D01*
X145681963Y-28858834D01*
X145678544Y-28835779D01*
X145677400Y-28812500D01*
X145677400Y-28337500D01*
X145678544Y-28314221D01*
X145681963Y-28291166D01*
X145687627Y-28268557D01*
X145695479Y-28246613D01*
X145705444Y-28225543D01*
X145717426Y-28205552D01*
X145731310Y-28186832D01*
X145746962Y-28169562D01*
X145764232Y-28153910D01*
X145782952Y-28140026D01*
X145802943Y-28128044D01*
X145824013Y-28118079D01*
X145845957Y-28110227D01*
X145868566Y-28104563D01*
X145891621Y-28101144D01*
X145914900Y-28100000D01*
X146489900Y-28100000D01*
X146513179Y-28101144D01*
X146513179Y-28101144D01*
G37*
D12*
X146202400Y-28575000D03*
G04 #@! TD*
D11*
G04 #@! TO.C,R4*
G36*
X155022179Y-28101144D02*
X155045234Y-28104563D01*
X155067843Y-28110227D01*
X155089787Y-28118079D01*
X155110857Y-28128044D01*
X155130848Y-28140026D01*
X155149568Y-28153910D01*
X155166838Y-28169562D01*
X155182490Y-28186832D01*
X155196374Y-28205552D01*
X155208356Y-28225543D01*
X155218321Y-28246613D01*
X155226173Y-28268557D01*
X155231837Y-28291166D01*
X155235256Y-28314221D01*
X155236400Y-28337500D01*
X155236400Y-28812500D01*
X155235256Y-28835779D01*
X155231837Y-28858834D01*
X155226173Y-28881443D01*
X155218321Y-28903387D01*
X155208356Y-28924457D01*
X155196374Y-28944448D01*
X155182490Y-28963168D01*
X155166838Y-28980438D01*
X155149568Y-28996090D01*
X155130848Y-29009974D01*
X155110857Y-29021956D01*
X155089787Y-29031921D01*
X155067843Y-29039773D01*
X155045234Y-29045437D01*
X155022179Y-29048856D01*
X154998900Y-29050000D01*
X154423900Y-29050000D01*
X154400621Y-29048856D01*
X154377566Y-29045437D01*
X154354957Y-29039773D01*
X154333013Y-29031921D01*
X154311943Y-29021956D01*
X154291952Y-29009974D01*
X154273232Y-28996090D01*
X154255962Y-28980438D01*
X154240310Y-28963168D01*
X154226426Y-28944448D01*
X154214444Y-28924457D01*
X154204479Y-28903387D01*
X154196627Y-28881443D01*
X154190963Y-28858834D01*
X154187544Y-28835779D01*
X154186400Y-28812500D01*
X154186400Y-28337500D01*
X154187544Y-28314221D01*
X154190963Y-28291166D01*
X154196627Y-28268557D01*
X154204479Y-28246613D01*
X154214444Y-28225543D01*
X154226426Y-28205552D01*
X154240310Y-28186832D01*
X154255962Y-28169562D01*
X154273232Y-28153910D01*
X154291952Y-28140026D01*
X154311943Y-28128044D01*
X154333013Y-28118079D01*
X154354957Y-28110227D01*
X154377566Y-28104563D01*
X154400621Y-28101144D01*
X154423900Y-28100000D01*
X154998900Y-28100000D01*
X155022179Y-28101144D01*
X155022179Y-28101144D01*
G37*
D12*
X154711400Y-28575000D03*
D11*
G36*
X156772179Y-28101144D02*
X156795234Y-28104563D01*
X156817843Y-28110227D01*
X156839787Y-28118079D01*
X156860857Y-28128044D01*
X156880848Y-28140026D01*
X156899568Y-28153910D01*
X156916838Y-28169562D01*
X156932490Y-28186832D01*
X156946374Y-28205552D01*
X156958356Y-28225543D01*
X156968321Y-28246613D01*
X156976173Y-28268557D01*
X156981837Y-28291166D01*
X156985256Y-28314221D01*
X156986400Y-28337500D01*
X156986400Y-28812500D01*
X156985256Y-28835779D01*
X156981837Y-28858834D01*
X156976173Y-28881443D01*
X156968321Y-28903387D01*
X156958356Y-28924457D01*
X156946374Y-28944448D01*
X156932490Y-28963168D01*
X156916838Y-28980438D01*
X156899568Y-28996090D01*
X156880848Y-29009974D01*
X156860857Y-29021956D01*
X156839787Y-29031921D01*
X156817843Y-29039773D01*
X156795234Y-29045437D01*
X156772179Y-29048856D01*
X156748900Y-29050000D01*
X156173900Y-29050000D01*
X156150621Y-29048856D01*
X156127566Y-29045437D01*
X156104957Y-29039773D01*
X156083013Y-29031921D01*
X156061943Y-29021956D01*
X156041952Y-29009974D01*
X156023232Y-28996090D01*
X156005962Y-28980438D01*
X155990310Y-28963168D01*
X155976426Y-28944448D01*
X155964444Y-28924457D01*
X155954479Y-28903387D01*
X155946627Y-28881443D01*
X155940963Y-28858834D01*
X155937544Y-28835779D01*
X155936400Y-28812500D01*
X155936400Y-28337500D01*
X155937544Y-28314221D01*
X155940963Y-28291166D01*
X155946627Y-28268557D01*
X155954479Y-28246613D01*
X155964444Y-28225543D01*
X155976426Y-28205552D01*
X155990310Y-28186832D01*
X156005962Y-28169562D01*
X156023232Y-28153910D01*
X156041952Y-28140026D01*
X156061943Y-28128044D01*
X156083013Y-28118079D01*
X156104957Y-28110227D01*
X156127566Y-28104563D01*
X156150621Y-28101144D01*
X156173900Y-28100000D01*
X156748900Y-28100000D01*
X156772179Y-28101144D01*
X156772179Y-28101144D01*
G37*
D12*
X156461400Y-28575000D03*
G04 #@! TD*
D11*
G04 #@! TO.C,C1*
G36*
X118674779Y-49945144D02*
X118697834Y-49948563D01*
X118720443Y-49954227D01*
X118742387Y-49962079D01*
X118763457Y-49972044D01*
X118783448Y-49984026D01*
X118802168Y-49997910D01*
X118819438Y-50013562D01*
X118835090Y-50030832D01*
X118848974Y-50049552D01*
X118860956Y-50069543D01*
X118870921Y-50090613D01*
X118878773Y-50112557D01*
X118884437Y-50135166D01*
X118887856Y-50158221D01*
X118889000Y-50181500D01*
X118889000Y-50656500D01*
X118887856Y-50679779D01*
X118884437Y-50702834D01*
X118878773Y-50725443D01*
X118870921Y-50747387D01*
X118860956Y-50768457D01*
X118848974Y-50788448D01*
X118835090Y-50807168D01*
X118819438Y-50824438D01*
X118802168Y-50840090D01*
X118783448Y-50853974D01*
X118763457Y-50865956D01*
X118742387Y-50875921D01*
X118720443Y-50883773D01*
X118697834Y-50889437D01*
X118674779Y-50892856D01*
X118651500Y-50894000D01*
X118076500Y-50894000D01*
X118053221Y-50892856D01*
X118030166Y-50889437D01*
X118007557Y-50883773D01*
X117985613Y-50875921D01*
X117964543Y-50865956D01*
X117944552Y-50853974D01*
X117925832Y-50840090D01*
X117908562Y-50824438D01*
X117892910Y-50807168D01*
X117879026Y-50788448D01*
X117867044Y-50768457D01*
X117857079Y-50747387D01*
X117849227Y-50725443D01*
X117843563Y-50702834D01*
X117840144Y-50679779D01*
X117839000Y-50656500D01*
X117839000Y-50181500D01*
X117840144Y-50158221D01*
X117843563Y-50135166D01*
X117849227Y-50112557D01*
X117857079Y-50090613D01*
X117867044Y-50069543D01*
X117879026Y-50049552D01*
X117892910Y-50030832D01*
X117908562Y-50013562D01*
X117925832Y-49997910D01*
X117944552Y-49984026D01*
X117964543Y-49972044D01*
X117985613Y-49962079D01*
X118007557Y-49954227D01*
X118030166Y-49948563D01*
X118053221Y-49945144D01*
X118076500Y-49944000D01*
X118651500Y-49944000D01*
X118674779Y-49945144D01*
X118674779Y-49945144D01*
G37*
D12*
X118364000Y-50419000D03*
D11*
G36*
X120424779Y-49945144D02*
X120447834Y-49948563D01*
X120470443Y-49954227D01*
X120492387Y-49962079D01*
X120513457Y-49972044D01*
X120533448Y-49984026D01*
X120552168Y-49997910D01*
X120569438Y-50013562D01*
X120585090Y-50030832D01*
X120598974Y-50049552D01*
X120610956Y-50069543D01*
X120620921Y-50090613D01*
X120628773Y-50112557D01*
X120634437Y-50135166D01*
X120637856Y-50158221D01*
X120639000Y-50181500D01*
X120639000Y-50656500D01*
X120637856Y-50679779D01*
X120634437Y-50702834D01*
X120628773Y-50725443D01*
X120620921Y-50747387D01*
X120610956Y-50768457D01*
X120598974Y-50788448D01*
X120585090Y-50807168D01*
X120569438Y-50824438D01*
X120552168Y-50840090D01*
X120533448Y-50853974D01*
X120513457Y-50865956D01*
X120492387Y-50875921D01*
X120470443Y-50883773D01*
X120447834Y-50889437D01*
X120424779Y-50892856D01*
X120401500Y-50894000D01*
X119826500Y-50894000D01*
X119803221Y-50892856D01*
X119780166Y-50889437D01*
X119757557Y-50883773D01*
X119735613Y-50875921D01*
X119714543Y-50865956D01*
X119694552Y-50853974D01*
X119675832Y-50840090D01*
X119658562Y-50824438D01*
X119642910Y-50807168D01*
X119629026Y-50788448D01*
X119617044Y-50768457D01*
X119607079Y-50747387D01*
X119599227Y-50725443D01*
X119593563Y-50702834D01*
X119590144Y-50679779D01*
X119589000Y-50656500D01*
X119589000Y-50181500D01*
X119590144Y-50158221D01*
X119593563Y-50135166D01*
X119599227Y-50112557D01*
X119607079Y-50090613D01*
X119617044Y-50069543D01*
X119629026Y-50049552D01*
X119642910Y-50030832D01*
X119658562Y-50013562D01*
X119675832Y-49997910D01*
X119694552Y-49984026D01*
X119714543Y-49972044D01*
X119735613Y-49962079D01*
X119757557Y-49954227D01*
X119780166Y-49948563D01*
X119803221Y-49945144D01*
X119826500Y-49944000D01*
X120401500Y-49944000D01*
X120424779Y-49945144D01*
X120424779Y-49945144D01*
G37*
D12*
X120114000Y-50419000D03*
G04 #@! TD*
D11*
G04 #@! TO.C,D1*
G36*
X135207579Y-28075744D02*
X135230634Y-28079163D01*
X135253243Y-28084827D01*
X135275187Y-28092679D01*
X135296257Y-28102644D01*
X135316248Y-28114626D01*
X135334968Y-28128510D01*
X135352238Y-28144162D01*
X135367890Y-28161432D01*
X135381774Y-28180152D01*
X135393756Y-28200143D01*
X135403721Y-28221213D01*
X135411573Y-28243157D01*
X135417237Y-28265766D01*
X135420656Y-28288821D01*
X135421800Y-28312100D01*
X135421800Y-28787100D01*
X135420656Y-28810379D01*
X135417237Y-28833434D01*
X135411573Y-28856043D01*
X135403721Y-28877987D01*
X135393756Y-28899057D01*
X135381774Y-28919048D01*
X135367890Y-28937768D01*
X135352238Y-28955038D01*
X135334968Y-28970690D01*
X135316248Y-28984574D01*
X135296257Y-28996556D01*
X135275187Y-29006521D01*
X135253243Y-29014373D01*
X135230634Y-29020037D01*
X135207579Y-29023456D01*
X135184300Y-29024600D01*
X134609300Y-29024600D01*
X134586021Y-29023456D01*
X134562966Y-29020037D01*
X134540357Y-29014373D01*
X134518413Y-29006521D01*
X134497343Y-28996556D01*
X134477352Y-28984574D01*
X134458632Y-28970690D01*
X134441362Y-28955038D01*
X134425710Y-28937768D01*
X134411826Y-28919048D01*
X134399844Y-28899057D01*
X134389879Y-28877987D01*
X134382027Y-28856043D01*
X134376363Y-28833434D01*
X134372944Y-28810379D01*
X134371800Y-28787100D01*
X134371800Y-28312100D01*
X134372944Y-28288821D01*
X134376363Y-28265766D01*
X134382027Y-28243157D01*
X134389879Y-28221213D01*
X134399844Y-28200143D01*
X134411826Y-28180152D01*
X134425710Y-28161432D01*
X134441362Y-28144162D01*
X134458632Y-28128510D01*
X134477352Y-28114626D01*
X134497343Y-28102644D01*
X134518413Y-28092679D01*
X134540357Y-28084827D01*
X134562966Y-28079163D01*
X134586021Y-28075744D01*
X134609300Y-28074600D01*
X135184300Y-28074600D01*
X135207579Y-28075744D01*
X135207579Y-28075744D01*
G37*
D12*
X134896800Y-28549600D03*
D11*
G36*
X133457579Y-28075744D02*
X133480634Y-28079163D01*
X133503243Y-28084827D01*
X133525187Y-28092679D01*
X133546257Y-28102644D01*
X133566248Y-28114626D01*
X133584968Y-28128510D01*
X133602238Y-28144162D01*
X133617890Y-28161432D01*
X133631774Y-28180152D01*
X133643756Y-28200143D01*
X133653721Y-28221213D01*
X133661573Y-28243157D01*
X133667237Y-28265766D01*
X133670656Y-28288821D01*
X133671800Y-28312100D01*
X133671800Y-28787100D01*
X133670656Y-28810379D01*
X133667237Y-28833434D01*
X133661573Y-28856043D01*
X133653721Y-28877987D01*
X133643756Y-28899057D01*
X133631774Y-28919048D01*
X133617890Y-28937768D01*
X133602238Y-28955038D01*
X133584968Y-28970690D01*
X133566248Y-28984574D01*
X133546257Y-28996556D01*
X133525187Y-29006521D01*
X133503243Y-29014373D01*
X133480634Y-29020037D01*
X133457579Y-29023456D01*
X133434300Y-29024600D01*
X132859300Y-29024600D01*
X132836021Y-29023456D01*
X132812966Y-29020037D01*
X132790357Y-29014373D01*
X132768413Y-29006521D01*
X132747343Y-28996556D01*
X132727352Y-28984574D01*
X132708632Y-28970690D01*
X132691362Y-28955038D01*
X132675710Y-28937768D01*
X132661826Y-28919048D01*
X132649844Y-28899057D01*
X132639879Y-28877987D01*
X132632027Y-28856043D01*
X132626363Y-28833434D01*
X132622944Y-28810379D01*
X132621800Y-28787100D01*
X132621800Y-28312100D01*
X132622944Y-28288821D01*
X132626363Y-28265766D01*
X132632027Y-28243157D01*
X132639879Y-28221213D01*
X132649844Y-28200143D01*
X132661826Y-28180152D01*
X132675710Y-28161432D01*
X132691362Y-28144162D01*
X132708632Y-28128510D01*
X132727352Y-28114626D01*
X132747343Y-28102644D01*
X132768413Y-28092679D01*
X132790357Y-28084827D01*
X132812966Y-28079163D01*
X132836021Y-28075744D01*
X132859300Y-28074600D01*
X133434300Y-28074600D01*
X133457579Y-28075744D01*
X133457579Y-28075744D01*
G37*
D12*
X133146800Y-28549600D03*
G04 #@! TD*
D11*
G04 #@! TO.C,R5*
G36*
X134880779Y-47962144D02*
X134903834Y-47965563D01*
X134926443Y-47971227D01*
X134948387Y-47979079D01*
X134969457Y-47989044D01*
X134989448Y-48001026D01*
X135008168Y-48014910D01*
X135025438Y-48030562D01*
X135041090Y-48047832D01*
X135054974Y-48066552D01*
X135066956Y-48086543D01*
X135076921Y-48107613D01*
X135084773Y-48129557D01*
X135090437Y-48152166D01*
X135093856Y-48175221D01*
X135095000Y-48198500D01*
X135095000Y-48773500D01*
X135093856Y-48796779D01*
X135090437Y-48819834D01*
X135084773Y-48842443D01*
X135076921Y-48864387D01*
X135066956Y-48885457D01*
X135054974Y-48905448D01*
X135041090Y-48924168D01*
X135025438Y-48941438D01*
X135008168Y-48957090D01*
X134989448Y-48970974D01*
X134969457Y-48982956D01*
X134948387Y-48992921D01*
X134926443Y-49000773D01*
X134903834Y-49006437D01*
X134880779Y-49009856D01*
X134857500Y-49011000D01*
X134382500Y-49011000D01*
X134359221Y-49009856D01*
X134336166Y-49006437D01*
X134313557Y-49000773D01*
X134291613Y-48992921D01*
X134270543Y-48982956D01*
X134250552Y-48970974D01*
X134231832Y-48957090D01*
X134214562Y-48941438D01*
X134198910Y-48924168D01*
X134185026Y-48905448D01*
X134173044Y-48885457D01*
X134163079Y-48864387D01*
X134155227Y-48842443D01*
X134149563Y-48819834D01*
X134146144Y-48796779D01*
X134145000Y-48773500D01*
X134145000Y-48198500D01*
X134146144Y-48175221D01*
X134149563Y-48152166D01*
X134155227Y-48129557D01*
X134163079Y-48107613D01*
X134173044Y-48086543D01*
X134185026Y-48066552D01*
X134198910Y-48047832D01*
X134214562Y-48030562D01*
X134231832Y-48014910D01*
X134250552Y-48001026D01*
X134270543Y-47989044D01*
X134291613Y-47979079D01*
X134313557Y-47971227D01*
X134336166Y-47965563D01*
X134359221Y-47962144D01*
X134382500Y-47961000D01*
X134857500Y-47961000D01*
X134880779Y-47962144D01*
X134880779Y-47962144D01*
G37*
D12*
X134620000Y-48486000D03*
D11*
G36*
X134880779Y-46212144D02*
X134903834Y-46215563D01*
X134926443Y-46221227D01*
X134948387Y-46229079D01*
X134969457Y-46239044D01*
X134989448Y-46251026D01*
X135008168Y-46264910D01*
X135025438Y-46280562D01*
X135041090Y-46297832D01*
X135054974Y-46316552D01*
X135066956Y-46336543D01*
X135076921Y-46357613D01*
X135084773Y-46379557D01*
X135090437Y-46402166D01*
X135093856Y-46425221D01*
X135095000Y-46448500D01*
X135095000Y-47023500D01*
X135093856Y-47046779D01*
X135090437Y-47069834D01*
X135084773Y-47092443D01*
X135076921Y-47114387D01*
X135066956Y-47135457D01*
X135054974Y-47155448D01*
X135041090Y-47174168D01*
X135025438Y-47191438D01*
X135008168Y-47207090D01*
X134989448Y-47220974D01*
X134969457Y-47232956D01*
X134948387Y-47242921D01*
X134926443Y-47250773D01*
X134903834Y-47256437D01*
X134880779Y-47259856D01*
X134857500Y-47261000D01*
X134382500Y-47261000D01*
X134359221Y-47259856D01*
X134336166Y-47256437D01*
X134313557Y-47250773D01*
X134291613Y-47242921D01*
X134270543Y-47232956D01*
X134250552Y-47220974D01*
X134231832Y-47207090D01*
X134214562Y-47191438D01*
X134198910Y-47174168D01*
X134185026Y-47155448D01*
X134173044Y-47135457D01*
X134163079Y-47114387D01*
X134155227Y-47092443D01*
X134149563Y-47069834D01*
X134146144Y-47046779D01*
X134145000Y-47023500D01*
X134145000Y-46448500D01*
X134146144Y-46425221D01*
X134149563Y-46402166D01*
X134155227Y-46379557D01*
X134163079Y-46357613D01*
X134173044Y-46336543D01*
X134185026Y-46316552D01*
X134198910Y-46297832D01*
X134214562Y-46280562D01*
X134231832Y-46264910D01*
X134250552Y-46251026D01*
X134270543Y-46239044D01*
X134291613Y-46229079D01*
X134313557Y-46221227D01*
X134336166Y-46215563D01*
X134359221Y-46212144D01*
X134382500Y-46211000D01*
X134857500Y-46211000D01*
X134880779Y-46212144D01*
X134880779Y-46212144D01*
G37*
D12*
X134620000Y-46736000D03*
G04 #@! TD*
D11*
G04 #@! TO.C,R6*
G36*
X146945779Y-46226144D02*
X146968834Y-46229563D01*
X146991443Y-46235227D01*
X147013387Y-46243079D01*
X147034457Y-46253044D01*
X147054448Y-46265026D01*
X147073168Y-46278910D01*
X147090438Y-46294562D01*
X147106090Y-46311832D01*
X147119974Y-46330552D01*
X147131956Y-46350543D01*
X147141921Y-46371613D01*
X147149773Y-46393557D01*
X147155437Y-46416166D01*
X147158856Y-46439221D01*
X147160000Y-46462500D01*
X147160000Y-47037500D01*
X147158856Y-47060779D01*
X147155437Y-47083834D01*
X147149773Y-47106443D01*
X147141921Y-47128387D01*
X147131956Y-47149457D01*
X147119974Y-47169448D01*
X147106090Y-47188168D01*
X147090438Y-47205438D01*
X147073168Y-47221090D01*
X147054448Y-47234974D01*
X147034457Y-47246956D01*
X147013387Y-47256921D01*
X146991443Y-47264773D01*
X146968834Y-47270437D01*
X146945779Y-47273856D01*
X146922500Y-47275000D01*
X146447500Y-47275000D01*
X146424221Y-47273856D01*
X146401166Y-47270437D01*
X146378557Y-47264773D01*
X146356613Y-47256921D01*
X146335543Y-47246956D01*
X146315552Y-47234974D01*
X146296832Y-47221090D01*
X146279562Y-47205438D01*
X146263910Y-47188168D01*
X146250026Y-47169448D01*
X146238044Y-47149457D01*
X146228079Y-47128387D01*
X146220227Y-47106443D01*
X146214563Y-47083834D01*
X146211144Y-47060779D01*
X146210000Y-47037500D01*
X146210000Y-46462500D01*
X146211144Y-46439221D01*
X146214563Y-46416166D01*
X146220227Y-46393557D01*
X146228079Y-46371613D01*
X146238044Y-46350543D01*
X146250026Y-46330552D01*
X146263910Y-46311832D01*
X146279562Y-46294562D01*
X146296832Y-46278910D01*
X146315552Y-46265026D01*
X146335543Y-46253044D01*
X146356613Y-46243079D01*
X146378557Y-46235227D01*
X146401166Y-46229563D01*
X146424221Y-46226144D01*
X146447500Y-46225000D01*
X146922500Y-46225000D01*
X146945779Y-46226144D01*
X146945779Y-46226144D01*
G37*
D12*
X146685000Y-46750000D03*
D11*
G36*
X146945779Y-47976144D02*
X146968834Y-47979563D01*
X146991443Y-47985227D01*
X147013387Y-47993079D01*
X147034457Y-48003044D01*
X147054448Y-48015026D01*
X147073168Y-48028910D01*
X147090438Y-48044562D01*
X147106090Y-48061832D01*
X147119974Y-48080552D01*
X147131956Y-48100543D01*
X147141921Y-48121613D01*
X147149773Y-48143557D01*
X147155437Y-48166166D01*
X147158856Y-48189221D01*
X147160000Y-48212500D01*
X147160000Y-48787500D01*
X147158856Y-48810779D01*
X147155437Y-48833834D01*
X147149773Y-48856443D01*
X147141921Y-48878387D01*
X147131956Y-48899457D01*
X147119974Y-48919448D01*
X147106090Y-48938168D01*
X147090438Y-48955438D01*
X147073168Y-48971090D01*
X147054448Y-48984974D01*
X147034457Y-48996956D01*
X147013387Y-49006921D01*
X146991443Y-49014773D01*
X146968834Y-49020437D01*
X146945779Y-49023856D01*
X146922500Y-49025000D01*
X146447500Y-49025000D01*
X146424221Y-49023856D01*
X146401166Y-49020437D01*
X146378557Y-49014773D01*
X146356613Y-49006921D01*
X146335543Y-48996956D01*
X146315552Y-48984974D01*
X146296832Y-48971090D01*
X146279562Y-48955438D01*
X146263910Y-48938168D01*
X146250026Y-48919448D01*
X146238044Y-48899457D01*
X146228079Y-48878387D01*
X146220227Y-48856443D01*
X146214563Y-48833834D01*
X146211144Y-48810779D01*
X146210000Y-48787500D01*
X146210000Y-48212500D01*
X146211144Y-48189221D01*
X146214563Y-48166166D01*
X146220227Y-48143557D01*
X146228079Y-48121613D01*
X146238044Y-48100543D01*
X146250026Y-48080552D01*
X146263910Y-48061832D01*
X146279562Y-48044562D01*
X146296832Y-48028910D01*
X146315552Y-48015026D01*
X146335543Y-48003044D01*
X146356613Y-47993079D01*
X146378557Y-47985227D01*
X146401166Y-47979563D01*
X146424221Y-47976144D01*
X146447500Y-47975000D01*
X146922500Y-47975000D01*
X146945779Y-47976144D01*
X146945779Y-47976144D01*
G37*
D12*
X146685000Y-48500000D03*
G04 #@! TD*
D11*
G04 #@! TO.C,R7*
G36*
X159010779Y-47962144D02*
X159033834Y-47965563D01*
X159056443Y-47971227D01*
X159078387Y-47979079D01*
X159099457Y-47989044D01*
X159119448Y-48001026D01*
X159138168Y-48014910D01*
X159155438Y-48030562D01*
X159171090Y-48047832D01*
X159184974Y-48066552D01*
X159196956Y-48086543D01*
X159206921Y-48107613D01*
X159214773Y-48129557D01*
X159220437Y-48152166D01*
X159223856Y-48175221D01*
X159225000Y-48198500D01*
X159225000Y-48773500D01*
X159223856Y-48796779D01*
X159220437Y-48819834D01*
X159214773Y-48842443D01*
X159206921Y-48864387D01*
X159196956Y-48885457D01*
X159184974Y-48905448D01*
X159171090Y-48924168D01*
X159155438Y-48941438D01*
X159138168Y-48957090D01*
X159119448Y-48970974D01*
X159099457Y-48982956D01*
X159078387Y-48992921D01*
X159056443Y-49000773D01*
X159033834Y-49006437D01*
X159010779Y-49009856D01*
X158987500Y-49011000D01*
X158512500Y-49011000D01*
X158489221Y-49009856D01*
X158466166Y-49006437D01*
X158443557Y-49000773D01*
X158421613Y-48992921D01*
X158400543Y-48982956D01*
X158380552Y-48970974D01*
X158361832Y-48957090D01*
X158344562Y-48941438D01*
X158328910Y-48924168D01*
X158315026Y-48905448D01*
X158303044Y-48885457D01*
X158293079Y-48864387D01*
X158285227Y-48842443D01*
X158279563Y-48819834D01*
X158276144Y-48796779D01*
X158275000Y-48773500D01*
X158275000Y-48198500D01*
X158276144Y-48175221D01*
X158279563Y-48152166D01*
X158285227Y-48129557D01*
X158293079Y-48107613D01*
X158303044Y-48086543D01*
X158315026Y-48066552D01*
X158328910Y-48047832D01*
X158344562Y-48030562D01*
X158361832Y-48014910D01*
X158380552Y-48001026D01*
X158400543Y-47989044D01*
X158421613Y-47979079D01*
X158443557Y-47971227D01*
X158466166Y-47965563D01*
X158489221Y-47962144D01*
X158512500Y-47961000D01*
X158987500Y-47961000D01*
X159010779Y-47962144D01*
X159010779Y-47962144D01*
G37*
D12*
X158750000Y-48486000D03*
D11*
G36*
X159010779Y-46212144D02*
X159033834Y-46215563D01*
X159056443Y-46221227D01*
X159078387Y-46229079D01*
X159099457Y-46239044D01*
X159119448Y-46251026D01*
X159138168Y-46264910D01*
X159155438Y-46280562D01*
X159171090Y-46297832D01*
X159184974Y-46316552D01*
X159196956Y-46336543D01*
X159206921Y-46357613D01*
X159214773Y-46379557D01*
X159220437Y-46402166D01*
X159223856Y-46425221D01*
X159225000Y-46448500D01*
X159225000Y-47023500D01*
X159223856Y-47046779D01*
X159220437Y-47069834D01*
X159214773Y-47092443D01*
X159206921Y-47114387D01*
X159196956Y-47135457D01*
X159184974Y-47155448D01*
X159171090Y-47174168D01*
X159155438Y-47191438D01*
X159138168Y-47207090D01*
X159119448Y-47220974D01*
X159099457Y-47232956D01*
X159078387Y-47242921D01*
X159056443Y-47250773D01*
X159033834Y-47256437D01*
X159010779Y-47259856D01*
X158987500Y-47261000D01*
X158512500Y-47261000D01*
X158489221Y-47259856D01*
X158466166Y-47256437D01*
X158443557Y-47250773D01*
X158421613Y-47242921D01*
X158400543Y-47232956D01*
X158380552Y-47220974D01*
X158361832Y-47207090D01*
X158344562Y-47191438D01*
X158328910Y-47174168D01*
X158315026Y-47155448D01*
X158303044Y-47135457D01*
X158293079Y-47114387D01*
X158285227Y-47092443D01*
X158279563Y-47069834D01*
X158276144Y-47046779D01*
X158275000Y-47023500D01*
X158275000Y-46448500D01*
X158276144Y-46425221D01*
X158279563Y-46402166D01*
X158285227Y-46379557D01*
X158293079Y-46357613D01*
X158303044Y-46336543D01*
X158315026Y-46316552D01*
X158328910Y-46297832D01*
X158344562Y-46280562D01*
X158361832Y-46264910D01*
X158380552Y-46251026D01*
X158400543Y-46239044D01*
X158421613Y-46229079D01*
X158443557Y-46221227D01*
X158466166Y-46215563D01*
X158489221Y-46212144D01*
X158512500Y-46211000D01*
X158987500Y-46211000D01*
X159010779Y-46212144D01*
X159010779Y-46212144D01*
G37*
D12*
X158750000Y-46736000D03*
G04 #@! TD*
D13*
G04 #@! TO.C,SW1*
X134644500Y-40703500D03*
X127444500Y-40703500D03*
X134644500Y-43703500D03*
X127444500Y-43703500D03*
G04 #@! TD*
G04 #@! TO.C,SW2*
X139485000Y-43688000D03*
X146685000Y-43688000D03*
X139485000Y-40688000D03*
X146685000Y-40688000D03*
G04 #@! TD*
G04 #@! TO.C,SW3*
X158750000Y-40688000D03*
X151550000Y-40688000D03*
X158750000Y-43688000D03*
X151550000Y-43688000D03*
G04 #@! TD*
M02*
