G04 #@! TF.GenerationSoftware,KiCad,Pcbnew,(5.0.0)*
G04 #@! TF.CreationDate,2019-03-04T20:58:40-06:00*
G04 #@! TF.ProjectId,LightingBoard_Hardware,4C69676874696E67426F6172645F4861,rev?*
G04 #@! TF.SameCoordinates,Original*
G04 #@! TF.FileFunction,Legend,Bot*
G04 #@! TF.FilePolarity,Positive*
%FSLAX46Y46*%
G04 Gerber Fmt 4.6, Leading zero omitted, Abs format (unit mm)*
G04 Created by KiCad (PCBNEW (5.0.0)) date 03/04/19 20:58:40*
%MOMM*%
%LPD*%
G01*
G04 APERTURE LIST*
%ADD10C,0.300000*%
%ADD11C,0.200000*%
%ADD12C,0.150000*%
G04 APERTURE END LIST*
D10*
X150739642Y-42358571D02*
X151453928Y-42358571D01*
X151525357Y-43072857D01*
X151453928Y-43001428D01*
X151311071Y-42930000D01*
X150953928Y-42930000D01*
X150811071Y-43001428D01*
X150739642Y-43072857D01*
X150668214Y-43215714D01*
X150668214Y-43572857D01*
X150739642Y-43715714D01*
X150811071Y-43787142D01*
X150953928Y-43858571D01*
X151311071Y-43858571D01*
X151453928Y-43787142D01*
X151525357Y-43715714D01*
X150239642Y-42358571D02*
X149739642Y-43858571D01*
X149239642Y-42358571D01*
X147382500Y-43001428D02*
X147525357Y-42930000D01*
X147596785Y-42858571D01*
X147668214Y-42715714D01*
X147668214Y-42644285D01*
X147596785Y-42501428D01*
X147525357Y-42430000D01*
X147382500Y-42358571D01*
X147096785Y-42358571D01*
X146953928Y-42430000D01*
X146882500Y-42501428D01*
X146811071Y-42644285D01*
X146811071Y-42715714D01*
X146882500Y-42858571D01*
X146953928Y-42930000D01*
X147096785Y-43001428D01*
X147382500Y-43001428D01*
X147525357Y-43072857D01*
X147596785Y-43144285D01*
X147668214Y-43287142D01*
X147668214Y-43572857D01*
X147596785Y-43715714D01*
X147525357Y-43787142D01*
X147382500Y-43858571D01*
X147096785Y-43858571D01*
X146953928Y-43787142D01*
X146882500Y-43715714D01*
X146811071Y-43572857D01*
X146811071Y-43287142D01*
X146882500Y-43144285D01*
X146953928Y-43072857D01*
X147096785Y-43001428D01*
X146239642Y-43430000D02*
X145525357Y-43430000D01*
X146382500Y-43858571D02*
X145882500Y-42358571D01*
X145382500Y-43858571D01*
X143239642Y-43072857D02*
X143025357Y-43144285D01*
X142953928Y-43215714D01*
X142882500Y-43358571D01*
X142882500Y-43572857D01*
X142953928Y-43715714D01*
X143025357Y-43787142D01*
X143168214Y-43858571D01*
X143739642Y-43858571D01*
X143739642Y-42358571D01*
X143239642Y-42358571D01*
X143096785Y-42430000D01*
X143025357Y-42501428D01*
X142953928Y-42644285D01*
X142953928Y-42787142D01*
X143025357Y-42930000D01*
X143096785Y-43001428D01*
X143239642Y-43072857D01*
X143739642Y-43072857D01*
X141596785Y-42858571D02*
X141596785Y-43858571D01*
X142239642Y-42858571D02*
X142239642Y-43644285D01*
X142168214Y-43787142D01*
X142025357Y-43858571D01*
X141811071Y-43858571D01*
X141668214Y-43787142D01*
X141596785Y-43715714D01*
X140239642Y-43787142D02*
X140382500Y-43858571D01*
X140668214Y-43858571D01*
X140811071Y-43787142D01*
X140882500Y-43715714D01*
X140953928Y-43572857D01*
X140953928Y-43144285D01*
X140882500Y-43001428D01*
X140811071Y-42930000D01*
X140668214Y-42858571D01*
X140382500Y-42858571D01*
X140239642Y-42930000D01*
X139596785Y-43858571D02*
X139596785Y-42358571D01*
X139453928Y-43287142D02*
X139025357Y-43858571D01*
X139025357Y-42858571D02*
X139596785Y-43430000D01*
X136382500Y-43715714D02*
X136453928Y-43787142D01*
X136668214Y-43858571D01*
X136811071Y-43858571D01*
X137025357Y-43787142D01*
X137168214Y-43644285D01*
X137239642Y-43501428D01*
X137311071Y-43215714D01*
X137311071Y-43001428D01*
X137239642Y-42715714D01*
X137168214Y-42572857D01*
X137025357Y-42430000D01*
X136811071Y-42358571D01*
X136668214Y-42358571D01*
X136453928Y-42430000D01*
X136382500Y-42501428D01*
X135525357Y-43858571D02*
X135668214Y-43787142D01*
X135739642Y-43715714D01*
X135811071Y-43572857D01*
X135811071Y-43144285D01*
X135739642Y-43001428D01*
X135668214Y-42930000D01*
X135525357Y-42858571D01*
X135311071Y-42858571D01*
X135168214Y-42930000D01*
X135096785Y-43001428D01*
X135025357Y-43144285D01*
X135025357Y-43572857D01*
X135096785Y-43715714D01*
X135168214Y-43787142D01*
X135311071Y-43858571D01*
X135525357Y-43858571D01*
X134382500Y-42858571D02*
X134382500Y-43858571D01*
X134382500Y-43001428D02*
X134311071Y-42930000D01*
X134168214Y-42858571D01*
X133953928Y-42858571D01*
X133811071Y-42930000D01*
X133739642Y-43072857D01*
X133739642Y-43858571D01*
X133168214Y-42858571D02*
X132811071Y-43858571D01*
X132453928Y-42858571D01*
X131311071Y-43787142D02*
X131453928Y-43858571D01*
X131739642Y-43858571D01*
X131882500Y-43787142D01*
X131953928Y-43644285D01*
X131953928Y-43072857D01*
X131882500Y-42930000D01*
X131739642Y-42858571D01*
X131453928Y-42858571D01*
X131311071Y-42930000D01*
X131239642Y-43072857D01*
X131239642Y-43215714D01*
X131953928Y-43358571D01*
X130596785Y-43858571D02*
X130596785Y-42858571D01*
X130596785Y-43144285D02*
X130525357Y-43001428D01*
X130453928Y-42930000D01*
X130311071Y-42858571D01*
X130168214Y-42858571D01*
X129882500Y-42858571D02*
X129311071Y-42858571D01*
X129668214Y-42358571D02*
X129668214Y-43644285D01*
X129596785Y-43787142D01*
X129453928Y-43858571D01*
X129311071Y-43858571D01*
X128239642Y-43787142D02*
X128382500Y-43858571D01*
X128668214Y-43858571D01*
X128811071Y-43787142D01*
X128882500Y-43644285D01*
X128882500Y-43072857D01*
X128811071Y-42930000D01*
X128668214Y-42858571D01*
X128382500Y-42858571D01*
X128239642Y-42930000D01*
X128168214Y-43072857D01*
X128168214Y-43215714D01*
X128882500Y-43358571D01*
X127525357Y-43858571D02*
X127525357Y-42858571D01*
X127525357Y-43144285D02*
X127453928Y-43001428D01*
X127382500Y-42930000D01*
X127239642Y-42858571D01*
X127096785Y-42858571D01*
D11*
X162332000Y-27078940D02*
X162332000Y-59082940D01*
X116332000Y-59082940D02*
X162332000Y-59082940D01*
X116332000Y-27078940D02*
X116332000Y-59078940D01*
X116332000Y-27078940D02*
X162332000Y-27078940D01*
D12*
G04 #@! TO.C,U3*
X101498001Y-80390001D02*
X126898001Y-80390001D01*
X101498001Y-75310001D02*
X101498001Y-80390001D01*
X126898001Y-75310001D02*
X101498001Y-75310001D01*
X126898001Y-80390001D02*
X126898001Y-75310001D01*
X101498001Y-123570001D02*
X126898001Y-123570001D01*
X101498001Y-118490001D02*
X101498001Y-123570001D01*
X126898001Y-118490001D02*
X101498001Y-118490001D01*
X126898001Y-123570001D02*
X126898001Y-118490001D01*
X128628286Y-122466667D02*
X128152096Y-122466667D01*
X128723524Y-122752381D02*
X128390191Y-121752381D01*
X128056858Y-122752381D01*
X127199715Y-122752381D02*
X127771143Y-122752381D01*
X127485429Y-122752381D02*
X127485429Y-121752381D01*
X127580667Y-121895239D01*
X127675905Y-121990477D01*
X127771143Y-122038096D01*
X128318762Y-119688572D02*
X128175905Y-119736191D01*
X128128286Y-119783810D01*
X128080667Y-119879048D01*
X128080667Y-120021905D01*
X128128286Y-120117143D01*
X128175905Y-120164762D01*
X128271143Y-120212381D01*
X128652096Y-120212381D01*
X128652096Y-119212381D01*
X128318762Y-119212381D01*
X128223524Y-119260001D01*
X128175905Y-119307620D01*
X128128286Y-119402858D01*
X128128286Y-119498096D01*
X128175905Y-119593334D01*
X128223524Y-119640953D01*
X128318762Y-119688572D01*
X128652096Y-119688572D01*
X127128286Y-120212381D02*
X127699715Y-120212381D01*
X127414001Y-120212381D02*
X127414001Y-119212381D01*
X127509239Y-119355239D01*
X127604477Y-119450477D01*
X127699715Y-119498096D01*
X128652096Y-77286381D02*
X128652096Y-76286381D01*
X128414001Y-76286381D01*
X128271143Y-76334001D01*
X128175905Y-76429239D01*
X128128286Y-76524477D01*
X128080667Y-76714953D01*
X128080667Y-76857810D01*
X128128286Y-77048286D01*
X128175905Y-77143524D01*
X128271143Y-77238762D01*
X128414001Y-77286381D01*
X128652096Y-77286381D01*
X127128286Y-77286381D02*
X127699715Y-77286381D01*
X127414001Y-77286381D02*
X127414001Y-76286381D01*
X127509239Y-76429239D01*
X127604477Y-76524477D01*
X127699715Y-76572096D01*
X128080667Y-79477143D02*
X128128286Y-79524762D01*
X128271143Y-79572381D01*
X128366381Y-79572381D01*
X128509239Y-79524762D01*
X128604477Y-79429524D01*
X128652096Y-79334286D01*
X128699715Y-79143810D01*
X128699715Y-79000953D01*
X128652096Y-78810477D01*
X128604477Y-78715239D01*
X128509239Y-78620001D01*
X128366381Y-78572381D01*
X128271143Y-78572381D01*
X128128286Y-78620001D01*
X128080667Y-78667620D01*
X127128286Y-79572381D02*
X127699715Y-79572381D01*
X127414001Y-79572381D02*
X127414001Y-78572381D01*
X127509239Y-78715239D01*
X127604477Y-78810477D01*
X127699715Y-78858096D01*
X126437524Y-114640381D02*
X125770858Y-115640381D01*
X125770858Y-114640381D02*
X126437524Y-115640381D01*
X125247048Y-115068953D02*
X125342286Y-115021334D01*
X125389905Y-114973715D01*
X125437524Y-114878477D01*
X125437524Y-114830858D01*
X125389905Y-114735620D01*
X125342286Y-114688001D01*
X125247048Y-114640381D01*
X125056572Y-114640381D01*
X124961334Y-114688001D01*
X124913715Y-114735620D01*
X124866096Y-114830858D01*
X124866096Y-114878477D01*
X124913715Y-114973715D01*
X124961334Y-115021334D01*
X125056572Y-115068953D01*
X125247048Y-115068953D01*
X125342286Y-115116572D01*
X125389905Y-115164191D01*
X125437524Y-115259429D01*
X125437524Y-115449905D01*
X125389905Y-115545143D01*
X125342286Y-115592762D01*
X125247048Y-115640381D01*
X125056572Y-115640381D01*
X124961334Y-115592762D01*
X124913715Y-115545143D01*
X124866096Y-115449905D01*
X124866096Y-115259429D01*
X124913715Y-115164191D01*
X124961334Y-115116572D01*
X125056572Y-115068953D01*
X126437524Y-83144381D02*
X125770858Y-84144381D01*
X125770858Y-83144381D02*
X126437524Y-84144381D01*
X125342286Y-84144381D02*
X125151810Y-84144381D01*
X125056572Y-84096762D01*
X125008953Y-84049143D01*
X124913715Y-83906286D01*
X124866096Y-83715810D01*
X124866096Y-83334858D01*
X124913715Y-83239620D01*
X124961334Y-83192001D01*
X125056572Y-83144381D01*
X125247048Y-83144381D01*
X125342286Y-83192001D01*
X125389905Y-83239620D01*
X125437524Y-83334858D01*
X125437524Y-83572953D01*
X125389905Y-83668191D01*
X125342286Y-83715810D01*
X125247048Y-83763429D01*
X125056572Y-83763429D01*
X124961334Y-83715810D01*
X124913715Y-83668191D01*
X124866096Y-83572953D01*
X125818477Y-116910381D02*
X126389905Y-116910381D01*
X126104191Y-116910381D02*
X126104191Y-115910381D01*
X126199429Y-116053239D01*
X126294667Y-116148477D01*
X126389905Y-116196096D01*
X125199429Y-115910381D02*
X125104191Y-115910381D01*
X125008953Y-115958001D01*
X124961334Y-116005620D01*
X124913715Y-116100858D01*
X124866096Y-116291334D01*
X124866096Y-116529429D01*
X124913715Y-116719905D01*
X124961334Y-116815143D01*
X125008953Y-116862762D01*
X125104191Y-116910381D01*
X125199429Y-116910381D01*
X125294667Y-116862762D01*
X125342286Y-116815143D01*
X125389905Y-116719905D01*
X125437524Y-116529429D01*
X125437524Y-116291334D01*
X125389905Y-116100858D01*
X125342286Y-116005620D01*
X125294667Y-115958001D01*
X125199429Y-115910381D01*
X102482286Y-116910381D02*
X103053715Y-116910381D01*
X102768001Y-116910381D02*
X102768001Y-115910381D01*
X102863239Y-116053239D01*
X102958477Y-116148477D01*
X103053715Y-116196096D01*
X125818477Y-82874381D02*
X126389905Y-82874381D01*
X126104191Y-82874381D02*
X126104191Y-81874381D01*
X126199429Y-82017239D01*
X126294667Y-82112477D01*
X126389905Y-82160096D01*
X125199429Y-81874381D02*
X125104191Y-81874381D01*
X125008953Y-81922001D01*
X124961334Y-81969620D01*
X124913715Y-82064858D01*
X124866096Y-82255334D01*
X124866096Y-82493429D01*
X124913715Y-82683905D01*
X124961334Y-82779143D01*
X125008953Y-82826762D01*
X125104191Y-82874381D01*
X125199429Y-82874381D01*
X125294667Y-82826762D01*
X125342286Y-82779143D01*
X125389905Y-82683905D01*
X125437524Y-82493429D01*
X125437524Y-82255334D01*
X125389905Y-82064858D01*
X125342286Y-81969620D01*
X125294667Y-81922001D01*
X125199429Y-81874381D01*
X102482286Y-82874381D02*
X103053715Y-82874381D01*
X102768001Y-82874381D02*
X102768001Y-81874381D01*
X102863239Y-82017239D01*
X102958477Y-82112477D01*
X103053715Y-82160096D01*
G04 #@! TD*
M02*
