G04 #@! TF.GenerationSoftware,KiCad,Pcbnew,(6.0.7)*
G04 #@! TF.CreationDate,2022-11-19T15:20:26-06:00*
G04 #@! TF.ProjectId,2022-2023MultimediaBoard,32303232-2d32-4303-9233-4d756c74696d,rev?*
G04 #@! TF.SameCoordinates,Original*
G04 #@! TF.FileFunction,Copper,L1,Top*
G04 #@! TF.FilePolarity,Positive*
%FSLAX46Y46*%
G04 Gerber Fmt 4.6, Leading zero omitted, Abs format (unit mm)*
G04 Created by KiCad (PCBNEW (6.0.7)) date 2022-11-19 15:20:26*
%MOMM*%
%LPD*%
G01*
G04 APERTURE LIST*
G04 Aperture macros list*
%AMRoundRect*
0 Rectangle with rounded corners*
0 $1 Rounding radius*
0 $2 $3 $4 $5 $6 $7 $8 $9 X,Y pos of 4 corners*
0 Add a 4 corners polygon primitive as box body*
4,1,4,$2,$3,$4,$5,$6,$7,$8,$9,$2,$3,0*
0 Add four circle primitives for the rounded corners*
1,1,$1+$1,$2,$3*
1,1,$1+$1,$4,$5*
1,1,$1+$1,$6,$7*
1,1,$1+$1,$8,$9*
0 Add four rect primitives between the rounded corners*
20,1,$1+$1,$2,$3,$4,$5,0*
20,1,$1+$1,$4,$5,$6,$7,0*
20,1,$1+$1,$6,$7,$8,$9,0*
20,1,$1+$1,$8,$9,$2,$3,0*%
G04 Aperture macros list end*
G04 #@! TA.AperFunction,SMDPad,CuDef*
%ADD10RoundRect,0.237500X-0.300000X-0.237500X0.300000X-0.237500X0.300000X0.237500X-0.300000X0.237500X0*%
G04 #@! TD*
G04 #@! TA.AperFunction,ComponentPad*
%ADD11C,1.524000*%
G04 #@! TD*
G04 #@! TA.AperFunction,SMDPad,CuDef*
%ADD12RoundRect,0.237500X-0.287500X-0.237500X0.287500X-0.237500X0.287500X0.237500X-0.287500X0.237500X0*%
G04 #@! TD*
G04 #@! TA.AperFunction,SMDPad,CuDef*
%ADD13RoundRect,0.237500X-0.250000X-0.237500X0.250000X-0.237500X0.250000X0.237500X-0.250000X0.237500X0*%
G04 #@! TD*
G04 #@! TA.AperFunction,ComponentPad*
%ADD14O,5.100000X3.000000*%
G04 #@! TD*
G04 #@! TA.AperFunction,ComponentPad*
%ADD15C,1.100000*%
G04 #@! TD*
G04 #@! TA.AperFunction,ComponentPad*
%ADD16C,1.400000*%
G04 #@! TD*
G04 #@! TA.AperFunction,ComponentPad*
%ADD17C,4.000000*%
G04 #@! TD*
G04 #@! TA.AperFunction,ComponentPad*
%ADD18C,2.000000*%
G04 #@! TD*
G04 #@! TA.AperFunction,ComponentPad*
%ADD19R,1.350000X1.350000*%
G04 #@! TD*
G04 #@! TA.AperFunction,ComponentPad*
%ADD20O,1.350000X1.350000*%
G04 #@! TD*
G04 #@! TA.AperFunction,ComponentPad*
%ADD21C,1.308000*%
G04 #@! TD*
G04 #@! TA.AperFunction,ComponentPad*
%ADD22C,1.258000*%
G04 #@! TD*
G04 #@! TA.AperFunction,ComponentPad*
%ADD23C,1.208000*%
G04 #@! TD*
G04 #@! TA.AperFunction,ComponentPad*
%ADD24C,2.540000*%
G04 #@! TD*
G04 #@! TA.AperFunction,ComponentPad*
%ADD25O,3.000000X5.100000*%
G04 #@! TD*
G04 #@! TA.AperFunction,ViaPad*
%ADD26C,0.800000*%
G04 #@! TD*
G04 #@! TA.AperFunction,Conductor*
%ADD27C,0.254000*%
G04 #@! TD*
G04 #@! TA.AperFunction,Conductor*
%ADD28C,0.200000*%
G04 #@! TD*
G04 APERTURE END LIST*
D10*
X111911630Y-61803000D03*
X113636630Y-61803000D03*
D11*
X126744130Y-53040000D03*
X129284130Y-53040000D03*
D10*
X80860550Y-76949000D03*
X82585550Y-76949000D03*
D12*
X86626130Y-54691000D03*
X88376130Y-54691000D03*
D13*
X90525630Y-54691000D03*
X92350630Y-54691000D03*
D14*
X116317854Y-57679367D03*
X108443854Y-57679367D03*
D15*
X75042585Y-66379197D03*
X77582585Y-67649197D03*
X75042585Y-68919197D03*
X77582585Y-70189197D03*
X75042585Y-71459197D03*
X77582585Y-72729197D03*
X75042585Y-73999197D03*
X77582585Y-75269197D03*
D16*
X63612585Y-64499197D03*
X65402585Y-67039197D03*
X63612585Y-74609197D03*
X65402585Y-77149197D03*
D17*
X68692585Y-65109197D03*
X68692585Y-76539197D03*
D18*
X71742585Y-78699197D03*
X71742585Y-62949197D03*
D19*
X80704059Y-64962801D03*
D20*
X82704059Y-64962801D03*
X80704059Y-66962801D03*
X82704059Y-66962801D03*
X80704059Y-68962801D03*
X82704059Y-68962801D03*
D21*
X114058500Y-82689500D03*
X111518500Y-82689500D03*
X108978500Y-82689500D03*
X106438500Y-82689500D03*
X81038500Y-82689500D03*
X111518500Y-97929500D03*
X70878500Y-87769500D03*
X103898500Y-82689500D03*
X101358500Y-82689500D03*
D22*
X110248500Y-85739500D03*
D21*
X98818500Y-82689500D03*
X96278500Y-82689500D03*
X93738500Y-82689500D03*
X91198500Y-82689500D03*
X88658500Y-82689500D03*
X86118500Y-82689500D03*
X83578500Y-82689500D03*
X83578500Y-97929500D03*
X86118500Y-97929500D03*
X88658500Y-97929500D03*
X91198500Y-97929500D03*
X93738500Y-97929500D03*
X96278500Y-97929500D03*
X98818500Y-97929500D03*
X101358500Y-97929500D03*
X103898500Y-97929500D03*
X106438500Y-97929500D03*
X108978500Y-97929500D03*
X78498500Y-82689500D03*
X75958500Y-82689500D03*
X73418500Y-82689500D03*
X70878500Y-82689500D03*
X68338500Y-82689500D03*
X65798500Y-82689500D03*
X63258500Y-82689500D03*
X60718500Y-82689500D03*
X58178500Y-82689500D03*
X58178500Y-97929500D03*
X60718500Y-97929500D03*
X63258500Y-97929500D03*
X65798500Y-97929500D03*
X68338500Y-97929500D03*
X70878500Y-97929500D03*
X73418500Y-97929500D03*
X75958500Y-97929500D03*
X78498500Y-97929500D03*
D22*
X105168500Y-85739500D03*
X107708500Y-85739500D03*
D21*
X116598500Y-82689500D03*
X81038500Y-97929500D03*
X114058500Y-97929500D03*
X70878500Y-90309500D03*
D23*
X101628500Y-93479500D03*
X103628500Y-93479500D03*
D21*
X70878500Y-95389500D03*
X70878500Y-92849500D03*
D23*
X103628500Y-95479500D03*
X101628500Y-95479500D03*
X101628500Y-91479500D03*
X103628500Y-91479500D03*
D22*
X102628500Y-85739500D03*
X100088500Y-85739500D03*
D21*
X70878500Y-85229500D03*
X116598500Y-97929500D03*
X114058500Y-95389500D03*
D24*
X78232000Y-43277000D03*
X88392000Y-43277000D03*
X98552000Y-43277000D03*
X108691999Y-43277000D03*
D25*
X73027400Y-54056000D03*
X73027400Y-46182000D03*
D26*
X110744000Y-67564000D03*
D27*
X112300806Y-61803000D02*
X111911630Y-61803000D01*
X111911630Y-62635630D02*
X122936000Y-73660000D01*
X111911630Y-61803000D02*
X111911630Y-62635630D01*
X111911630Y-61448500D02*
X110742130Y-60279000D01*
X111911630Y-61803000D02*
X111911630Y-61448500D01*
X122936000Y-73660000D02*
X122936000Y-93472000D01*
X118478500Y-97929500D02*
X122936000Y-93472000D01*
X92350630Y-54691000D02*
X103630130Y-54691000D01*
X116598500Y-97929500D02*
X118478500Y-97929500D01*
D28*
X77582585Y-75269197D02*
X79180747Y-75269197D01*
X64276799Y-64499197D02*
X67248403Y-67470801D01*
X81679059Y-67937801D02*
X81679059Y-76130491D01*
X76325831Y-66454801D02*
X80196059Y-66454801D01*
X81679059Y-76130491D02*
X80860550Y-76949000D01*
X63612585Y-64499197D02*
X64276799Y-64499197D01*
X67248403Y-67470801D02*
X75309831Y-67470801D01*
X80704059Y-66962801D02*
X81679059Y-67937801D01*
X80196059Y-66454801D02*
X80704059Y-66962801D01*
X75309831Y-67470801D02*
X76325831Y-66454801D01*
X79180747Y-75269197D02*
X80860550Y-76949000D01*
X77582585Y-68919197D02*
X77582585Y-67649197D01*
X77960633Y-77724000D02*
X75892585Y-75655952D01*
X81810550Y-77724000D02*
X77960633Y-77724000D01*
X82585550Y-76949000D02*
X81810550Y-77724000D01*
X75892585Y-75655952D02*
X75892585Y-72309197D01*
X75042585Y-71459197D02*
X77582585Y-68919197D01*
X75892585Y-72309197D02*
X75042585Y-71459197D01*
D27*
X88376130Y-54691000D02*
X90525630Y-54691000D01*
D28*
X77932000Y-64288970D02*
X77932000Y-64688970D01*
X78532000Y-65688970D02*
X78532000Y-65288970D01*
X80704059Y-64988970D02*
X79432000Y-64988970D01*
X77289426Y-64988970D02*
X76432812Y-64988970D01*
X79132000Y-65288970D02*
X79132000Y-65688970D01*
X75042585Y-66379197D02*
X75024981Y-66379197D01*
X78532000Y-65288970D02*
X78532000Y-64288970D01*
X76432812Y-64988970D02*
X75042585Y-66379197D01*
X77632000Y-64988970D02*
X77289426Y-64988970D01*
X77931970Y-64288970D02*
G75*
G02*
X78232000Y-63988970I300030J-30D01*
G01*
X77632000Y-64989000D02*
G75*
G03*
X77932000Y-64688970I0J300000D01*
G01*
X78232000Y-63989000D02*
G75*
G02*
X78532000Y-64288970I0J-300000D01*
G01*
X79131970Y-65288970D02*
G75*
G02*
X79432000Y-64988970I300030J-30D01*
G01*
X78532030Y-65688970D02*
G75*
G03*
X78832000Y-65988970I299970J-30D01*
G01*
X78832000Y-65989000D02*
G75*
G03*
X79132000Y-65688970I0J300000D01*
G01*
X80704059Y-68962801D02*
X80704059Y-70204573D01*
X79881831Y-71026801D02*
X79284981Y-71026801D01*
X80704059Y-70204573D02*
X79881831Y-71026801D01*
X79284981Y-71026801D02*
X77582585Y-72729197D01*
D27*
X86118500Y-82689500D02*
X86118500Y-74409500D01*
X86118500Y-74409500D02*
X92964000Y-67564000D01*
X110744000Y-67564000D02*
X92964000Y-67564000D01*
G04 #@! TA.AperFunction,Conductor*
G36*
X112716251Y-41503002D02*
G01*
X112762744Y-41556658D01*
X112774130Y-41609000D01*
X112774130Y-60407000D01*
X112754128Y-60475121D01*
X112700472Y-60521614D01*
X112648130Y-60533000D01*
X103248130Y-60533000D01*
X103180009Y-60512998D01*
X103133516Y-60459342D01*
X103122130Y-60407000D01*
X103122130Y-41609000D01*
X103142132Y-41540879D01*
X103195788Y-41494386D01*
X103248130Y-41483000D01*
X112648130Y-41483000D01*
X112716251Y-41503002D01*
G37*
G04 #@! TD.AperFunction*
G04 #@! TA.AperFunction,Conductor*
G36*
X132048148Y-39961001D02*
G01*
X132051109Y-39961462D01*
X132061204Y-39963034D01*
X132071844Y-39964691D01*
X132084517Y-39963034D01*
X132111836Y-39962450D01*
X132243476Y-39973970D01*
X132265104Y-39977784D01*
X132414788Y-40017894D01*
X132435425Y-40025405D01*
X132575873Y-40090900D01*
X132594893Y-40101882D01*
X132721828Y-40190766D01*
X132738652Y-40204883D01*
X132848228Y-40314460D01*
X132862346Y-40331285D01*
X132951231Y-40458228D01*
X132962212Y-40477249D01*
X133027699Y-40617690D01*
X133035211Y-40638327D01*
X133054186Y-40709140D01*
X133075320Y-40788013D01*
X133079134Y-40809644D01*
X133090058Y-40934514D01*
X133089508Y-40950870D01*
X133089930Y-40950875D01*
X133089821Y-40959851D01*
X133088439Y-40968724D01*
X133092569Y-41000306D01*
X133093631Y-41016628D01*
X133095067Y-87164674D01*
X133095438Y-99086992D01*
X133095496Y-100965996D01*
X133075496Y-101034117D01*
X133021842Y-101080612D01*
X132969496Y-101092000D01*
X55498500Y-101092000D01*
X55430379Y-101071998D01*
X55383886Y-101018342D01*
X55372500Y-100966000D01*
X55372500Y-97898939D01*
X57011420Y-97898939D01*
X57025394Y-98112134D01*
X57077985Y-98319213D01*
X57167433Y-98513240D01*
X57170766Y-98517956D01*
X57202186Y-98562414D01*
X57290741Y-98687718D01*
X57443781Y-98836802D01*
X57621427Y-98955501D01*
X57626730Y-98957779D01*
X57626733Y-98957781D01*
X57812422Y-99037559D01*
X57817729Y-99039839D01*
X57919493Y-99062866D01*
X58020477Y-99085717D01*
X58020480Y-99085717D01*
X58026113Y-99086992D01*
X58031884Y-99087219D01*
X58031886Y-99087219D01*
X58096863Y-99089772D01*
X58239601Y-99095380D01*
X58345322Y-99080051D01*
X58445329Y-99065551D01*
X58445334Y-99065550D01*
X58451043Y-99064722D01*
X58456507Y-99062867D01*
X58456512Y-99062866D01*
X58647889Y-98997902D01*
X58653357Y-98996046D01*
X58839768Y-98891651D01*
X59004033Y-98755033D01*
X59140651Y-98590768D01*
X59245046Y-98404357D01*
X59313722Y-98202043D01*
X59322590Y-98140879D01*
X59352160Y-98076335D01*
X59411931Y-98038022D01*
X59482928Y-98038106D01*
X59542608Y-98076561D01*
X59569409Y-98127945D01*
X59588228Y-98202043D01*
X59617985Y-98319213D01*
X59707433Y-98513240D01*
X59710766Y-98517956D01*
X59742186Y-98562414D01*
X59830741Y-98687718D01*
X59983781Y-98836802D01*
X60161427Y-98955501D01*
X60166730Y-98957779D01*
X60166733Y-98957781D01*
X60352422Y-99037559D01*
X60357729Y-99039839D01*
X60459493Y-99062866D01*
X60560477Y-99085717D01*
X60560480Y-99085717D01*
X60566113Y-99086992D01*
X60571884Y-99087219D01*
X60571886Y-99087219D01*
X60636863Y-99089772D01*
X60779601Y-99095380D01*
X60885322Y-99080051D01*
X60985329Y-99065551D01*
X60985334Y-99065550D01*
X60991043Y-99064722D01*
X60996507Y-99062867D01*
X60996512Y-99062866D01*
X61187889Y-98997902D01*
X61193357Y-98996046D01*
X61379768Y-98891651D01*
X61544033Y-98755033D01*
X61680651Y-98590768D01*
X61785046Y-98404357D01*
X61853722Y-98202043D01*
X61862590Y-98140879D01*
X61892160Y-98076335D01*
X61951931Y-98038022D01*
X62022928Y-98038106D01*
X62082608Y-98076561D01*
X62109409Y-98127945D01*
X62128228Y-98202043D01*
X62157985Y-98319213D01*
X62247433Y-98513240D01*
X62250766Y-98517956D01*
X62282186Y-98562414D01*
X62370741Y-98687718D01*
X62523781Y-98836802D01*
X62701427Y-98955501D01*
X62706730Y-98957779D01*
X62706733Y-98957781D01*
X62892422Y-99037559D01*
X62897729Y-99039839D01*
X62999493Y-99062866D01*
X63100477Y-99085717D01*
X63100480Y-99085717D01*
X63106113Y-99086992D01*
X63111884Y-99087219D01*
X63111886Y-99087219D01*
X63176863Y-99089772D01*
X63319601Y-99095380D01*
X63425322Y-99080051D01*
X63525329Y-99065551D01*
X63525334Y-99065550D01*
X63531043Y-99064722D01*
X63536507Y-99062867D01*
X63536512Y-99062866D01*
X63727889Y-98997902D01*
X63733357Y-98996046D01*
X63919768Y-98891651D01*
X64084033Y-98755033D01*
X64220651Y-98590768D01*
X64325046Y-98404357D01*
X64393722Y-98202043D01*
X64402590Y-98140879D01*
X64432160Y-98076335D01*
X64491931Y-98038022D01*
X64562928Y-98038106D01*
X64622608Y-98076561D01*
X64649409Y-98127945D01*
X64668228Y-98202043D01*
X64697985Y-98319213D01*
X64787433Y-98513240D01*
X64790766Y-98517956D01*
X64822186Y-98562414D01*
X64910741Y-98687718D01*
X65063781Y-98836802D01*
X65241427Y-98955501D01*
X65246730Y-98957779D01*
X65246733Y-98957781D01*
X65432422Y-99037559D01*
X65437729Y-99039839D01*
X65539493Y-99062866D01*
X65640477Y-99085717D01*
X65640480Y-99085717D01*
X65646113Y-99086992D01*
X65651884Y-99087219D01*
X65651886Y-99087219D01*
X65716863Y-99089772D01*
X65859601Y-99095380D01*
X65965322Y-99080051D01*
X66065329Y-99065551D01*
X66065334Y-99065550D01*
X66071043Y-99064722D01*
X66076507Y-99062867D01*
X66076512Y-99062866D01*
X66267889Y-98997902D01*
X66273357Y-98996046D01*
X66459768Y-98891651D01*
X66624033Y-98755033D01*
X66760651Y-98590768D01*
X66865046Y-98404357D01*
X66933722Y-98202043D01*
X66942590Y-98140879D01*
X66972160Y-98076335D01*
X67031931Y-98038022D01*
X67102928Y-98038106D01*
X67162608Y-98076561D01*
X67189409Y-98127945D01*
X67208228Y-98202043D01*
X67237985Y-98319213D01*
X67327433Y-98513240D01*
X67330766Y-98517956D01*
X67362186Y-98562414D01*
X67450741Y-98687718D01*
X67603781Y-98836802D01*
X67781427Y-98955501D01*
X67786730Y-98957779D01*
X67786733Y-98957781D01*
X67972422Y-99037559D01*
X67977729Y-99039839D01*
X68079493Y-99062866D01*
X68180477Y-99085717D01*
X68180480Y-99085717D01*
X68186113Y-99086992D01*
X68191884Y-99087219D01*
X68191886Y-99087219D01*
X68256863Y-99089772D01*
X68399601Y-99095380D01*
X68505322Y-99080051D01*
X68605329Y-99065551D01*
X68605334Y-99065550D01*
X68611043Y-99064722D01*
X68616507Y-99062867D01*
X68616512Y-99062866D01*
X68807889Y-98997902D01*
X68813357Y-98996046D01*
X68999768Y-98891651D01*
X69164033Y-98755033D01*
X69300651Y-98590768D01*
X69405046Y-98404357D01*
X69473722Y-98202043D01*
X69482590Y-98140879D01*
X69512160Y-98076335D01*
X69571931Y-98038022D01*
X69642928Y-98038106D01*
X69702608Y-98076561D01*
X69729409Y-98127945D01*
X69748228Y-98202043D01*
X69777985Y-98319213D01*
X69867433Y-98513240D01*
X69870766Y-98517956D01*
X69902186Y-98562414D01*
X69990741Y-98687718D01*
X70143781Y-98836802D01*
X70321427Y-98955501D01*
X70326730Y-98957779D01*
X70326733Y-98957781D01*
X70512422Y-99037559D01*
X70517729Y-99039839D01*
X70619493Y-99062866D01*
X70720477Y-99085717D01*
X70720480Y-99085717D01*
X70726113Y-99086992D01*
X70731884Y-99087219D01*
X70731886Y-99087219D01*
X70796863Y-99089772D01*
X70939601Y-99095380D01*
X71045322Y-99080051D01*
X71145329Y-99065551D01*
X71145334Y-99065550D01*
X71151043Y-99064722D01*
X71156507Y-99062867D01*
X71156512Y-99062866D01*
X71347889Y-98997902D01*
X71353357Y-98996046D01*
X71539768Y-98891651D01*
X71704033Y-98755033D01*
X71840651Y-98590768D01*
X71945046Y-98404357D01*
X72013722Y-98202043D01*
X72022590Y-98140879D01*
X72052160Y-98076335D01*
X72111931Y-98038022D01*
X72182928Y-98038106D01*
X72242608Y-98076561D01*
X72269409Y-98127945D01*
X72288228Y-98202043D01*
X72317985Y-98319213D01*
X72407433Y-98513240D01*
X72410766Y-98517956D01*
X72442186Y-98562414D01*
X72530741Y-98687718D01*
X72683781Y-98836802D01*
X72861427Y-98955501D01*
X72866730Y-98957779D01*
X72866733Y-98957781D01*
X73052422Y-99037559D01*
X73057729Y-99039839D01*
X73159493Y-99062866D01*
X73260477Y-99085717D01*
X73260480Y-99085717D01*
X73266113Y-99086992D01*
X73271884Y-99087219D01*
X73271886Y-99087219D01*
X73336863Y-99089772D01*
X73479601Y-99095380D01*
X73585322Y-99080051D01*
X73685329Y-99065551D01*
X73685334Y-99065550D01*
X73691043Y-99064722D01*
X73696507Y-99062867D01*
X73696512Y-99062866D01*
X73887889Y-98997902D01*
X73893357Y-98996046D01*
X74079768Y-98891651D01*
X74244033Y-98755033D01*
X74380651Y-98590768D01*
X74485046Y-98404357D01*
X74553722Y-98202043D01*
X74562590Y-98140879D01*
X74592160Y-98076335D01*
X74651931Y-98038022D01*
X74722928Y-98038106D01*
X74782608Y-98076561D01*
X74809409Y-98127945D01*
X74828228Y-98202043D01*
X74857985Y-98319213D01*
X74947433Y-98513240D01*
X74950766Y-98517956D01*
X74982186Y-98562414D01*
X75070741Y-98687718D01*
X75223781Y-98836802D01*
X75401427Y-98955501D01*
X75406730Y-98957779D01*
X75406733Y-98957781D01*
X75592422Y-99037559D01*
X75597729Y-99039839D01*
X75699493Y-99062866D01*
X75800477Y-99085717D01*
X75800480Y-99085717D01*
X75806113Y-99086992D01*
X75811884Y-99087219D01*
X75811886Y-99087219D01*
X75876863Y-99089772D01*
X76019601Y-99095380D01*
X76125322Y-99080051D01*
X76225329Y-99065551D01*
X76225334Y-99065550D01*
X76231043Y-99064722D01*
X76236507Y-99062867D01*
X76236512Y-99062866D01*
X76427889Y-98997902D01*
X76433357Y-98996046D01*
X76619768Y-98891651D01*
X76784033Y-98755033D01*
X76920651Y-98590768D01*
X77025046Y-98404357D01*
X77093722Y-98202043D01*
X77102590Y-98140879D01*
X77132160Y-98076335D01*
X77191931Y-98038022D01*
X77262928Y-98038106D01*
X77322608Y-98076561D01*
X77349409Y-98127945D01*
X77368228Y-98202043D01*
X77397985Y-98319213D01*
X77487433Y-98513240D01*
X77490766Y-98517956D01*
X77522186Y-98562414D01*
X77610741Y-98687718D01*
X77763781Y-98836802D01*
X77941427Y-98955501D01*
X77946730Y-98957779D01*
X77946733Y-98957781D01*
X78132422Y-99037559D01*
X78137729Y-99039839D01*
X78239493Y-99062866D01*
X78340477Y-99085717D01*
X78340480Y-99085717D01*
X78346113Y-99086992D01*
X78351884Y-99087219D01*
X78351886Y-99087219D01*
X78416863Y-99089772D01*
X78559601Y-99095380D01*
X78665322Y-99080051D01*
X78765329Y-99065551D01*
X78765334Y-99065550D01*
X78771043Y-99064722D01*
X78776507Y-99062867D01*
X78776512Y-99062866D01*
X78967889Y-98997902D01*
X78973357Y-98996046D01*
X79159768Y-98891651D01*
X79324033Y-98755033D01*
X79460651Y-98590768D01*
X79565046Y-98404357D01*
X79633722Y-98202043D01*
X79642591Y-98140880D01*
X79663847Y-97994275D01*
X79664380Y-97990601D01*
X79665980Y-97929500D01*
X79663172Y-97898939D01*
X82411420Y-97898939D01*
X82425394Y-98112134D01*
X82477985Y-98319213D01*
X82567433Y-98513240D01*
X82570766Y-98517956D01*
X82602186Y-98562414D01*
X82690741Y-98687718D01*
X82843781Y-98836802D01*
X83021427Y-98955501D01*
X83026730Y-98957779D01*
X83026733Y-98957781D01*
X83212422Y-99037559D01*
X83217729Y-99039839D01*
X83319493Y-99062866D01*
X83420477Y-99085717D01*
X83420480Y-99085717D01*
X83426113Y-99086992D01*
X83431884Y-99087219D01*
X83431886Y-99087219D01*
X83496863Y-99089772D01*
X83639601Y-99095380D01*
X83745322Y-99080051D01*
X83845329Y-99065551D01*
X83845334Y-99065550D01*
X83851043Y-99064722D01*
X83856507Y-99062867D01*
X83856512Y-99062866D01*
X84047889Y-98997902D01*
X84053357Y-98996046D01*
X84239768Y-98891651D01*
X84404033Y-98755033D01*
X84540651Y-98590768D01*
X84645046Y-98404357D01*
X84713722Y-98202043D01*
X84722590Y-98140879D01*
X84752160Y-98076335D01*
X84811931Y-98038022D01*
X84882928Y-98038106D01*
X84942608Y-98076561D01*
X84969409Y-98127945D01*
X84988228Y-98202043D01*
X85017985Y-98319213D01*
X85107433Y-98513240D01*
X85110766Y-98517956D01*
X85142186Y-98562414D01*
X85230741Y-98687718D01*
X85383781Y-98836802D01*
X85561427Y-98955501D01*
X85566730Y-98957779D01*
X85566733Y-98957781D01*
X85752422Y-99037559D01*
X85757729Y-99039839D01*
X85859493Y-99062866D01*
X85960477Y-99085717D01*
X85960480Y-99085717D01*
X85966113Y-99086992D01*
X85971884Y-99087219D01*
X85971886Y-99087219D01*
X86036863Y-99089772D01*
X86179601Y-99095380D01*
X86285322Y-99080051D01*
X86385329Y-99065551D01*
X86385334Y-99065550D01*
X86391043Y-99064722D01*
X86396507Y-99062867D01*
X86396512Y-99062866D01*
X86587889Y-98997902D01*
X86593357Y-98996046D01*
X86779768Y-98891651D01*
X86944033Y-98755033D01*
X87080651Y-98590768D01*
X87185046Y-98404357D01*
X87253722Y-98202043D01*
X87262590Y-98140879D01*
X87292160Y-98076335D01*
X87351931Y-98038022D01*
X87422928Y-98038106D01*
X87482608Y-98076561D01*
X87509409Y-98127945D01*
X87528228Y-98202043D01*
X87557985Y-98319213D01*
X87647433Y-98513240D01*
X87650766Y-98517956D01*
X87682186Y-98562414D01*
X87770741Y-98687718D01*
X87923781Y-98836802D01*
X88101427Y-98955501D01*
X88106730Y-98957779D01*
X88106733Y-98957781D01*
X88292422Y-99037559D01*
X88297729Y-99039839D01*
X88399493Y-99062866D01*
X88500477Y-99085717D01*
X88500480Y-99085717D01*
X88506113Y-99086992D01*
X88511884Y-99087219D01*
X88511886Y-99087219D01*
X88576863Y-99089772D01*
X88719601Y-99095380D01*
X88825322Y-99080051D01*
X88925329Y-99065551D01*
X88925334Y-99065550D01*
X88931043Y-99064722D01*
X88936507Y-99062867D01*
X88936512Y-99062866D01*
X89127889Y-98997902D01*
X89133357Y-98996046D01*
X89319768Y-98891651D01*
X89484033Y-98755033D01*
X89620651Y-98590768D01*
X89725046Y-98404357D01*
X89793722Y-98202043D01*
X89802590Y-98140879D01*
X89832160Y-98076335D01*
X89891931Y-98038022D01*
X89962928Y-98038106D01*
X90022608Y-98076561D01*
X90049409Y-98127945D01*
X90068228Y-98202043D01*
X90097985Y-98319213D01*
X90187433Y-98513240D01*
X90190766Y-98517956D01*
X90222186Y-98562414D01*
X90310741Y-98687718D01*
X90463781Y-98836802D01*
X90641427Y-98955501D01*
X90646730Y-98957779D01*
X90646733Y-98957781D01*
X90832422Y-99037559D01*
X90837729Y-99039839D01*
X90939493Y-99062866D01*
X91040477Y-99085717D01*
X91040480Y-99085717D01*
X91046113Y-99086992D01*
X91051884Y-99087219D01*
X91051886Y-99087219D01*
X91116863Y-99089772D01*
X91259601Y-99095380D01*
X91365322Y-99080051D01*
X91465329Y-99065551D01*
X91465334Y-99065550D01*
X91471043Y-99064722D01*
X91476507Y-99062867D01*
X91476512Y-99062866D01*
X91667889Y-98997902D01*
X91673357Y-98996046D01*
X91859768Y-98891651D01*
X92024033Y-98755033D01*
X92160651Y-98590768D01*
X92265046Y-98404357D01*
X92333722Y-98202043D01*
X92342590Y-98140879D01*
X92372160Y-98076335D01*
X92431931Y-98038022D01*
X92502928Y-98038106D01*
X92562608Y-98076561D01*
X92589409Y-98127945D01*
X92608228Y-98202043D01*
X92637985Y-98319213D01*
X92727433Y-98513240D01*
X92730766Y-98517956D01*
X92762186Y-98562414D01*
X92850741Y-98687718D01*
X93003781Y-98836802D01*
X93181427Y-98955501D01*
X93186730Y-98957779D01*
X93186733Y-98957781D01*
X93372422Y-99037559D01*
X93377729Y-99039839D01*
X93479493Y-99062866D01*
X93580477Y-99085717D01*
X93580480Y-99085717D01*
X93586113Y-99086992D01*
X93591884Y-99087219D01*
X93591886Y-99087219D01*
X93656863Y-99089772D01*
X93799601Y-99095380D01*
X93905322Y-99080051D01*
X94005329Y-99065551D01*
X94005334Y-99065550D01*
X94011043Y-99064722D01*
X94016507Y-99062867D01*
X94016512Y-99062866D01*
X94207889Y-98997902D01*
X94213357Y-98996046D01*
X94399768Y-98891651D01*
X94564033Y-98755033D01*
X94700651Y-98590768D01*
X94805046Y-98404357D01*
X94873722Y-98202043D01*
X94882590Y-98140879D01*
X94912160Y-98076335D01*
X94971931Y-98038022D01*
X95042928Y-98038106D01*
X95102608Y-98076561D01*
X95129409Y-98127945D01*
X95148228Y-98202043D01*
X95177985Y-98319213D01*
X95267433Y-98513240D01*
X95270766Y-98517956D01*
X95302186Y-98562414D01*
X95390741Y-98687718D01*
X95543781Y-98836802D01*
X95721427Y-98955501D01*
X95726730Y-98957779D01*
X95726733Y-98957781D01*
X95912422Y-99037559D01*
X95917729Y-99039839D01*
X96019493Y-99062866D01*
X96120477Y-99085717D01*
X96120480Y-99085717D01*
X96126113Y-99086992D01*
X96131884Y-99087219D01*
X96131886Y-99087219D01*
X96196863Y-99089772D01*
X96339601Y-99095380D01*
X96445322Y-99080051D01*
X96545329Y-99065551D01*
X96545334Y-99065550D01*
X96551043Y-99064722D01*
X96556507Y-99062867D01*
X96556512Y-99062866D01*
X96747889Y-98997902D01*
X96753357Y-98996046D01*
X96939768Y-98891651D01*
X97104033Y-98755033D01*
X97240651Y-98590768D01*
X97345046Y-98404357D01*
X97413722Y-98202043D01*
X97422590Y-98140879D01*
X97452160Y-98076335D01*
X97511931Y-98038022D01*
X97582928Y-98038106D01*
X97642608Y-98076561D01*
X97669409Y-98127945D01*
X97688228Y-98202043D01*
X97717985Y-98319213D01*
X97807433Y-98513240D01*
X97810766Y-98517956D01*
X97842186Y-98562414D01*
X97930741Y-98687718D01*
X98083781Y-98836802D01*
X98261427Y-98955501D01*
X98266730Y-98957779D01*
X98266733Y-98957781D01*
X98452422Y-99037559D01*
X98457729Y-99039839D01*
X98559493Y-99062866D01*
X98660477Y-99085717D01*
X98660480Y-99085717D01*
X98666113Y-99086992D01*
X98671884Y-99087219D01*
X98671886Y-99087219D01*
X98736863Y-99089772D01*
X98879601Y-99095380D01*
X98985322Y-99080051D01*
X99085329Y-99065551D01*
X99085334Y-99065550D01*
X99091043Y-99064722D01*
X99096507Y-99062867D01*
X99096512Y-99062866D01*
X99287889Y-98997902D01*
X99293357Y-98996046D01*
X99479768Y-98891651D01*
X99644033Y-98755033D01*
X99780651Y-98590768D01*
X99885046Y-98404357D01*
X99953722Y-98202043D01*
X99962590Y-98140879D01*
X99992160Y-98076335D01*
X100051931Y-98038022D01*
X100122928Y-98038106D01*
X100182608Y-98076561D01*
X100209409Y-98127945D01*
X100228228Y-98202043D01*
X100257985Y-98319213D01*
X100347433Y-98513240D01*
X100350766Y-98517956D01*
X100382186Y-98562414D01*
X100470741Y-98687718D01*
X100623781Y-98836802D01*
X100801427Y-98955501D01*
X100806730Y-98957779D01*
X100806733Y-98957781D01*
X100992422Y-99037559D01*
X100997729Y-99039839D01*
X101099493Y-99062866D01*
X101200477Y-99085717D01*
X101200480Y-99085717D01*
X101206113Y-99086992D01*
X101211884Y-99087219D01*
X101211886Y-99087219D01*
X101276863Y-99089772D01*
X101419601Y-99095380D01*
X101525322Y-99080051D01*
X101625329Y-99065551D01*
X101625334Y-99065550D01*
X101631043Y-99064722D01*
X101636507Y-99062867D01*
X101636512Y-99062866D01*
X101827889Y-98997902D01*
X101833357Y-98996046D01*
X102019768Y-98891651D01*
X102184033Y-98755033D01*
X102320651Y-98590768D01*
X102425046Y-98404357D01*
X102493722Y-98202043D01*
X102502590Y-98140879D01*
X102532160Y-98076335D01*
X102591931Y-98038022D01*
X102662928Y-98038106D01*
X102722608Y-98076561D01*
X102749409Y-98127945D01*
X102768228Y-98202043D01*
X102797985Y-98319213D01*
X102887433Y-98513240D01*
X102890766Y-98517956D01*
X102922186Y-98562414D01*
X103010741Y-98687718D01*
X103163781Y-98836802D01*
X103341427Y-98955501D01*
X103346730Y-98957779D01*
X103346733Y-98957781D01*
X103532422Y-99037559D01*
X103537729Y-99039839D01*
X103639493Y-99062866D01*
X103740477Y-99085717D01*
X103740480Y-99085717D01*
X103746113Y-99086992D01*
X103751884Y-99087219D01*
X103751886Y-99087219D01*
X103816863Y-99089772D01*
X103959601Y-99095380D01*
X104065322Y-99080051D01*
X104165329Y-99065551D01*
X104165334Y-99065550D01*
X104171043Y-99064722D01*
X104176507Y-99062867D01*
X104176512Y-99062866D01*
X104367889Y-98997902D01*
X104373357Y-98996046D01*
X104559768Y-98891651D01*
X104724033Y-98755033D01*
X104860651Y-98590768D01*
X104965046Y-98404357D01*
X105033722Y-98202043D01*
X105042590Y-98140879D01*
X105072160Y-98076335D01*
X105131931Y-98038022D01*
X105202928Y-98038106D01*
X105262608Y-98076561D01*
X105289409Y-98127945D01*
X105308228Y-98202043D01*
X105337985Y-98319213D01*
X105427433Y-98513240D01*
X105430766Y-98517956D01*
X105462186Y-98562414D01*
X105550741Y-98687718D01*
X105703781Y-98836802D01*
X105881427Y-98955501D01*
X105886730Y-98957779D01*
X105886733Y-98957781D01*
X106072422Y-99037559D01*
X106077729Y-99039839D01*
X106179493Y-99062866D01*
X106280477Y-99085717D01*
X106280480Y-99085717D01*
X106286113Y-99086992D01*
X106291884Y-99087219D01*
X106291886Y-99087219D01*
X106356863Y-99089772D01*
X106499601Y-99095380D01*
X106605322Y-99080051D01*
X106705329Y-99065551D01*
X106705334Y-99065550D01*
X106711043Y-99064722D01*
X106716507Y-99062867D01*
X106716512Y-99062866D01*
X106907889Y-98997902D01*
X106913357Y-98996046D01*
X107099768Y-98891651D01*
X107264033Y-98755033D01*
X107400651Y-98590768D01*
X107505046Y-98404357D01*
X107573722Y-98202043D01*
X107582590Y-98140879D01*
X107612160Y-98076335D01*
X107671931Y-98038022D01*
X107742928Y-98038106D01*
X107802608Y-98076561D01*
X107829409Y-98127945D01*
X107848228Y-98202043D01*
X107877985Y-98319213D01*
X107967433Y-98513240D01*
X107970766Y-98517956D01*
X108002186Y-98562414D01*
X108090741Y-98687718D01*
X108243781Y-98836802D01*
X108421427Y-98955501D01*
X108426730Y-98957779D01*
X108426733Y-98957781D01*
X108612422Y-99037559D01*
X108617729Y-99039839D01*
X108719493Y-99062866D01*
X108820477Y-99085717D01*
X108820480Y-99085717D01*
X108826113Y-99086992D01*
X108831884Y-99087219D01*
X108831886Y-99087219D01*
X108896863Y-99089772D01*
X109039601Y-99095380D01*
X109145322Y-99080051D01*
X109245329Y-99065551D01*
X109245334Y-99065550D01*
X109251043Y-99064722D01*
X109256507Y-99062867D01*
X109256512Y-99062866D01*
X109447889Y-98997902D01*
X109453357Y-98996046D01*
X109639768Y-98891651D01*
X109804033Y-98755033D01*
X109940651Y-98590768D01*
X110045046Y-98404357D01*
X110113722Y-98202043D01*
X110122590Y-98140879D01*
X110152160Y-98076335D01*
X110211931Y-98038022D01*
X110282928Y-98038106D01*
X110342608Y-98076561D01*
X110369409Y-98127945D01*
X110388228Y-98202043D01*
X110417985Y-98319213D01*
X110507433Y-98513240D01*
X110510766Y-98517956D01*
X110542186Y-98562414D01*
X110630741Y-98687718D01*
X110783781Y-98836802D01*
X110961427Y-98955501D01*
X110966730Y-98957779D01*
X110966733Y-98957781D01*
X111152422Y-99037559D01*
X111157729Y-99039839D01*
X111259493Y-99062866D01*
X111360477Y-99085717D01*
X111360480Y-99085717D01*
X111366113Y-99086992D01*
X111371884Y-99087219D01*
X111371886Y-99087219D01*
X111436863Y-99089772D01*
X111579601Y-99095380D01*
X111685322Y-99080051D01*
X111785329Y-99065551D01*
X111785334Y-99065550D01*
X111791043Y-99064722D01*
X111796507Y-99062867D01*
X111796512Y-99062866D01*
X111987889Y-98997902D01*
X111993357Y-98996046D01*
X112179768Y-98891651D01*
X112344033Y-98755033D01*
X112480651Y-98590768D01*
X112585046Y-98404357D01*
X112653722Y-98202043D01*
X112662591Y-98140880D01*
X112683847Y-97994275D01*
X112684380Y-97990601D01*
X112685980Y-97929500D01*
X112666430Y-97716744D01*
X112659592Y-97692496D01*
X112610004Y-97516672D01*
X112610003Y-97516670D01*
X112608436Y-97511113D01*
X112597162Y-97488250D01*
X112516495Y-97324674D01*
X112513940Y-97319493D01*
X112494639Y-97293645D01*
X112389560Y-97152927D01*
X112389559Y-97152926D01*
X112386107Y-97148303D01*
X112381871Y-97144387D01*
X112233457Y-97007195D01*
X112233454Y-97007193D01*
X112229217Y-97003276D01*
X112048525Y-96889268D01*
X111850082Y-96810097D01*
X111844425Y-96808972D01*
X111844419Y-96808970D01*
X111646203Y-96769543D01*
X111646199Y-96769543D01*
X111640535Y-96768416D01*
X111634760Y-96768340D01*
X111634756Y-96768340D01*
X111527497Y-96766936D01*
X111426901Y-96765619D01*
X111421204Y-96766598D01*
X111421203Y-96766598D01*
X111222031Y-96800822D01*
X111216334Y-96801801D01*
X111015887Y-96875750D01*
X111010926Y-96878702D01*
X111010925Y-96878702D01*
X110837240Y-96982033D01*
X110837237Y-96982035D01*
X110832272Y-96984989D01*
X110827932Y-96988795D01*
X110827928Y-96988798D01*
X110675981Y-97122053D01*
X110671640Y-97125860D01*
X110539369Y-97293645D01*
X110536680Y-97298756D01*
X110536678Y-97298759D01*
X110523044Y-97324674D01*
X110439889Y-97482725D01*
X110438175Y-97488246D01*
X110438173Y-97488250D01*
X110432683Y-97505933D01*
X110376532Y-97686767D01*
X110375854Y-97692496D01*
X110375854Y-97692497D01*
X110374323Y-97705430D01*
X110346452Y-97770728D01*
X110287704Y-97810592D01*
X110216729Y-97812365D01*
X110156063Y-97775486D01*
X110126823Y-97716633D01*
X110126430Y-97716744D01*
X110119592Y-97692496D01*
X110070004Y-97516672D01*
X110070003Y-97516670D01*
X110068436Y-97511113D01*
X110057162Y-97488250D01*
X109976495Y-97324674D01*
X109973940Y-97319493D01*
X109954639Y-97293645D01*
X109849560Y-97152927D01*
X109849559Y-97152926D01*
X109846107Y-97148303D01*
X109841871Y-97144387D01*
X109693457Y-97007195D01*
X109693454Y-97007193D01*
X109689217Y-97003276D01*
X109508525Y-96889268D01*
X109310082Y-96810097D01*
X109304425Y-96808972D01*
X109304419Y-96808970D01*
X109106203Y-96769543D01*
X109106199Y-96769543D01*
X109100535Y-96768416D01*
X109094760Y-96768340D01*
X109094756Y-96768340D01*
X108987497Y-96766936D01*
X108886901Y-96765619D01*
X108881204Y-96766598D01*
X108881203Y-96766598D01*
X108682031Y-96800822D01*
X108676334Y-96801801D01*
X108475887Y-96875750D01*
X108470926Y-96878702D01*
X108470925Y-96878702D01*
X108297240Y-96982033D01*
X108297237Y-96982035D01*
X108292272Y-96984989D01*
X108287932Y-96988795D01*
X108287928Y-96988798D01*
X108135981Y-97122053D01*
X108131640Y-97125860D01*
X107999369Y-97293645D01*
X107996680Y-97298756D01*
X107996678Y-97298759D01*
X107983044Y-97324674D01*
X107899889Y-97482725D01*
X107898175Y-97488246D01*
X107898173Y-97488250D01*
X107892683Y-97505933D01*
X107836532Y-97686767D01*
X107835854Y-97692496D01*
X107835854Y-97692497D01*
X107834323Y-97705430D01*
X107806452Y-97770728D01*
X107747704Y-97810592D01*
X107676729Y-97812365D01*
X107616063Y-97775486D01*
X107586823Y-97716633D01*
X107586430Y-97716744D01*
X107579592Y-97692496D01*
X107530004Y-97516672D01*
X107530003Y-97516670D01*
X107528436Y-97511113D01*
X107517162Y-97488250D01*
X107436495Y-97324674D01*
X107433940Y-97319493D01*
X107414639Y-97293645D01*
X107309560Y-97152927D01*
X107309559Y-97152926D01*
X107306107Y-97148303D01*
X107301871Y-97144387D01*
X107153457Y-97007195D01*
X107153454Y-97007193D01*
X107149217Y-97003276D01*
X106968525Y-96889268D01*
X106770082Y-96810097D01*
X106764425Y-96808972D01*
X106764419Y-96808970D01*
X106566203Y-96769543D01*
X106566199Y-96769543D01*
X106560535Y-96768416D01*
X106554760Y-96768340D01*
X106554756Y-96768340D01*
X106447497Y-96766936D01*
X106346901Y-96765619D01*
X106341204Y-96766598D01*
X106341203Y-96766598D01*
X106142031Y-96800822D01*
X106136334Y-96801801D01*
X105935887Y-96875750D01*
X105930926Y-96878702D01*
X105930925Y-96878702D01*
X105757240Y-96982033D01*
X105757237Y-96982035D01*
X105752272Y-96984989D01*
X105747932Y-96988795D01*
X105747928Y-96988798D01*
X105595981Y-97122053D01*
X105591640Y-97125860D01*
X105459369Y-97293645D01*
X105456680Y-97298756D01*
X105456678Y-97298759D01*
X105443044Y-97324674D01*
X105359889Y-97482725D01*
X105358175Y-97488246D01*
X105358173Y-97488250D01*
X105352683Y-97505933D01*
X105296532Y-97686767D01*
X105295854Y-97692496D01*
X105295854Y-97692497D01*
X105294323Y-97705430D01*
X105266452Y-97770728D01*
X105207704Y-97810592D01*
X105136729Y-97812365D01*
X105076063Y-97775486D01*
X105046823Y-97716633D01*
X105046430Y-97716744D01*
X105039592Y-97692496D01*
X104990004Y-97516672D01*
X104990003Y-97516670D01*
X104988436Y-97511113D01*
X104977162Y-97488250D01*
X104896495Y-97324674D01*
X104893940Y-97319493D01*
X104874639Y-97293645D01*
X104769560Y-97152927D01*
X104769559Y-97152926D01*
X104766107Y-97148303D01*
X104761871Y-97144387D01*
X104613457Y-97007195D01*
X104613454Y-97007193D01*
X104609217Y-97003276D01*
X104428525Y-96889268D01*
X104230082Y-96810097D01*
X104224422Y-96808971D01*
X104224418Y-96808970D01*
X104022829Y-96768872D01*
X103959919Y-96735965D01*
X103924787Y-96674270D01*
X103928587Y-96603375D01*
X103970113Y-96545789D01*
X104006909Y-96525980D01*
X104077462Y-96502031D01*
X104077470Y-96502028D01*
X104082933Y-96500173D01*
X104261326Y-96400268D01*
X104418526Y-96269526D01*
X104549268Y-96112326D01*
X104649173Y-95933933D01*
X104714896Y-95740321D01*
X104727372Y-95654279D01*
X104730897Y-95629965D01*
X104744235Y-95537973D01*
X104745766Y-95479500D01*
X104734688Y-95358939D01*
X112891420Y-95358939D01*
X112905394Y-95572134D01*
X112957985Y-95779213D01*
X113047433Y-95973240D01*
X113050766Y-95977956D01*
X113148871Y-96116772D01*
X113170741Y-96147718D01*
X113323781Y-96296802D01*
X113501427Y-96415501D01*
X113506730Y-96417779D01*
X113506733Y-96417781D01*
X113613501Y-96463652D01*
X113697729Y-96499839D01*
X113799493Y-96522866D01*
X113900477Y-96545717D01*
X113900480Y-96545717D01*
X113906113Y-96546992D01*
X113911884Y-96547219D01*
X113911886Y-96547219D01*
X113976863Y-96549772D01*
X114119601Y-96555380D01*
X114243654Y-96537393D01*
X114325329Y-96525551D01*
X114325334Y-96525550D01*
X114331043Y-96524722D01*
X114336507Y-96522867D01*
X114336512Y-96522866D01*
X114527889Y-96457902D01*
X114533357Y-96456046D01*
X114719768Y-96351651D01*
X114729266Y-96343752D01*
X114818512Y-96269526D01*
X114884033Y-96215033D01*
X115020651Y-96050768D01*
X115125046Y-95864357D01*
X115165292Y-95745795D01*
X115191866Y-95667512D01*
X115191867Y-95667507D01*
X115193722Y-95662043D01*
X115206759Y-95572134D01*
X115220190Y-95479500D01*
X115224380Y-95450601D01*
X115225980Y-95389500D01*
X115206430Y-95176744D01*
X115199592Y-95152496D01*
X115150004Y-94976672D01*
X115150003Y-94976670D01*
X115148436Y-94971113D01*
X115137162Y-94948250D01*
X115056495Y-94784674D01*
X115053940Y-94779493D01*
X115034639Y-94753645D01*
X114929560Y-94612927D01*
X114929559Y-94612926D01*
X114926107Y-94608303D01*
X114913914Y-94597032D01*
X114773457Y-94467195D01*
X114773454Y-94467193D01*
X114769217Y-94463276D01*
X114588525Y-94349268D01*
X114390082Y-94270097D01*
X114384425Y-94268972D01*
X114384419Y-94268970D01*
X114186203Y-94229543D01*
X114186199Y-94229543D01*
X114180535Y-94228416D01*
X114174760Y-94228340D01*
X114174756Y-94228340D01*
X114067497Y-94226936D01*
X113966901Y-94225619D01*
X113961204Y-94226598D01*
X113961203Y-94226598D01*
X113762031Y-94260822D01*
X113756334Y-94261801D01*
X113555887Y-94335750D01*
X113550926Y-94338702D01*
X113550925Y-94338702D01*
X113377240Y-94442033D01*
X113377237Y-94442035D01*
X113372272Y-94444989D01*
X113367932Y-94448795D01*
X113367928Y-94448798D01*
X113334126Y-94478442D01*
X113211640Y-94585860D01*
X113079369Y-94753645D01*
X113076680Y-94758756D01*
X113076678Y-94758759D01*
X113063044Y-94784674D01*
X112979889Y-94942725D01*
X112978175Y-94948246D01*
X112978173Y-94948250D01*
X112937541Y-95079108D01*
X112916532Y-95146767D01*
X112891420Y-95358939D01*
X104734688Y-95358939D01*
X104727057Y-95275894D01*
X104718967Y-95247207D01*
X104673127Y-95084672D01*
X104671558Y-95079108D01*
X104581126Y-94895730D01*
X104478845Y-94758759D01*
X104462243Y-94736527D01*
X104462243Y-94736526D01*
X104458790Y-94731903D01*
X104330083Y-94612927D01*
X104312888Y-94597032D01*
X104312885Y-94597030D01*
X104308648Y-94593113D01*
X104296563Y-94585488D01*
X104249625Y-94532222D01*
X104238935Y-94462034D01*
X104267889Y-94397210D01*
X104283228Y-94382052D01*
X104299697Y-94368355D01*
X104418526Y-94269526D01*
X104549268Y-94112326D01*
X104649173Y-93933933D01*
X104690683Y-93811651D01*
X104713038Y-93745795D01*
X104713038Y-93745793D01*
X104714896Y-93740321D01*
X104718604Y-93714751D01*
X104735930Y-93595251D01*
X104744235Y-93537973D01*
X104745766Y-93479500D01*
X104727057Y-93275894D01*
X104718967Y-93247207D01*
X104673127Y-93084672D01*
X104671558Y-93079108D01*
X104588460Y-92910601D01*
X104583681Y-92900911D01*
X104581126Y-92895730D01*
X104458790Y-92731903D01*
X104349832Y-92631183D01*
X104312888Y-92597032D01*
X104312885Y-92597030D01*
X104308648Y-92593113D01*
X104296563Y-92585488D01*
X104249625Y-92532222D01*
X104238935Y-92462034D01*
X104267889Y-92397210D01*
X104283228Y-92382052D01*
X104324437Y-92347779D01*
X104418526Y-92269526D01*
X104549268Y-92112326D01*
X104649173Y-91933933D01*
X104690446Y-91812349D01*
X104713038Y-91745795D01*
X104713038Y-91745793D01*
X104714896Y-91740321D01*
X104716379Y-91730097D01*
X104743702Y-91541647D01*
X104744235Y-91537973D01*
X104745766Y-91479500D01*
X104727057Y-91275894D01*
X104718967Y-91247207D01*
X104673127Y-91084672D01*
X104671558Y-91079108D01*
X104581126Y-90895730D01*
X104458790Y-90731903D01*
X104308648Y-90593113D01*
X104135728Y-90484009D01*
X104103302Y-90471072D01*
X104076593Y-90460416D01*
X103945821Y-90408243D01*
X103940153Y-90407116D01*
X103940151Y-90407115D01*
X103750954Y-90369482D01*
X103750950Y-90369482D01*
X103745286Y-90368355D01*
X103739511Y-90368279D01*
X103739507Y-90368279D01*
X103636966Y-90366937D01*
X103540840Y-90365678D01*
X103535143Y-90366657D01*
X103535142Y-90366657D01*
X103518702Y-90369482D01*
X103339330Y-90400304D01*
X103147505Y-90471072D01*
X102971788Y-90575613D01*
X102818064Y-90710425D01*
X102814492Y-90714956D01*
X102726981Y-90825962D01*
X102669099Y-90867075D01*
X102598179Y-90870369D01*
X102536737Y-90834797D01*
X102527073Y-90823345D01*
X102462243Y-90736527D01*
X102462243Y-90736526D01*
X102458790Y-90731903D01*
X102308648Y-90593113D01*
X102135728Y-90484009D01*
X102103302Y-90471072D01*
X102076593Y-90460416D01*
X101945821Y-90408243D01*
X101940153Y-90407116D01*
X101940151Y-90407115D01*
X101750954Y-90369482D01*
X101750950Y-90369482D01*
X101745286Y-90368355D01*
X101739511Y-90368279D01*
X101739507Y-90368279D01*
X101636966Y-90366937D01*
X101540840Y-90365678D01*
X101535143Y-90366657D01*
X101535142Y-90366657D01*
X101518702Y-90369482D01*
X101339330Y-90400304D01*
X101147505Y-90471072D01*
X100971788Y-90575613D01*
X100818064Y-90710425D01*
X100814492Y-90714956D01*
X100720017Y-90834797D01*
X100691482Y-90870993D01*
X100688794Y-90876102D01*
X100598970Y-91046829D01*
X100598968Y-91046834D01*
X100596281Y-91051941D01*
X100535649Y-91247207D01*
X100511617Y-91450253D01*
X100524989Y-91654279D01*
X100575319Y-91852451D01*
X100660919Y-92038133D01*
X100778924Y-92205106D01*
X100925382Y-92347779D01*
X100930178Y-92350984D01*
X100930181Y-92350986D01*
X100963062Y-92372956D01*
X101095387Y-92461372D01*
X101100690Y-92463650D01*
X101100693Y-92463652D01*
X101185698Y-92500173D01*
X101283246Y-92542083D01*
X101370912Y-92561920D01*
X101477032Y-92585933D01*
X101477035Y-92585933D01*
X101482668Y-92587208D01*
X101488439Y-92587435D01*
X101488441Y-92587435D01*
X101551146Y-92589898D01*
X101686973Y-92595235D01*
X101822304Y-92575613D01*
X101883599Y-92566726D01*
X101883603Y-92566725D01*
X101889321Y-92565896D01*
X101894793Y-92564038D01*
X101894795Y-92564038D01*
X102077465Y-92502029D01*
X102082933Y-92500173D01*
X102261326Y-92400268D01*
X102418526Y-92269526D01*
X102532975Y-92131916D01*
X102591912Y-92092332D01*
X102662894Y-92090896D01*
X102723385Y-92128063D01*
X102732742Y-92139760D01*
X102755089Y-92171381D01*
X102775592Y-92200391D01*
X102778924Y-92205106D01*
X102925382Y-92347779D01*
X102930178Y-92350984D01*
X102930181Y-92350986D01*
X102963062Y-92372956D01*
X103008590Y-92427433D01*
X103017438Y-92497876D01*
X102986796Y-92561920D01*
X102971708Y-92575522D01*
X102971788Y-92575613D01*
X102818064Y-92710425D01*
X102814492Y-92714956D01*
X102705506Y-92853204D01*
X102691482Y-92870993D01*
X102688794Y-92876102D01*
X102598970Y-93046829D01*
X102598968Y-93046834D01*
X102596281Y-93051941D01*
X102586118Y-93084672D01*
X102547585Y-93208768D01*
X102535649Y-93247207D01*
X102511617Y-93450253D01*
X102524989Y-93654279D01*
X102526411Y-93659878D01*
X102569788Y-93830671D01*
X102575319Y-93852451D01*
X102660919Y-94038133D01*
X102778924Y-94205106D01*
X102925382Y-94347779D01*
X102930178Y-94350984D01*
X102930181Y-94350986D01*
X102963062Y-94372956D01*
X103008590Y-94427433D01*
X103017438Y-94497876D01*
X102986796Y-94561920D01*
X102971708Y-94575522D01*
X102971788Y-94575613D01*
X102818064Y-94710425D01*
X102814492Y-94714956D01*
X102726981Y-94825962D01*
X102669099Y-94867075D01*
X102598179Y-94870369D01*
X102536737Y-94834797D01*
X102527073Y-94823345D01*
X102462243Y-94736527D01*
X102462243Y-94736526D01*
X102458790Y-94731903D01*
X102330083Y-94612927D01*
X102312888Y-94597032D01*
X102312885Y-94597030D01*
X102308648Y-94593113D01*
X102135728Y-94484009D01*
X102121775Y-94478442D01*
X102047472Y-94448798D01*
X101945821Y-94408243D01*
X101940153Y-94407116D01*
X101940151Y-94407115D01*
X101750954Y-94369482D01*
X101750950Y-94369482D01*
X101745286Y-94368355D01*
X101739511Y-94368279D01*
X101739507Y-94368279D01*
X101636966Y-94366937D01*
X101540840Y-94365678D01*
X101535143Y-94366657D01*
X101535142Y-94366657D01*
X101345027Y-94399325D01*
X101339330Y-94400304D01*
X101147505Y-94471072D01*
X100971788Y-94575613D01*
X100818064Y-94710425D01*
X100814492Y-94714956D01*
X100720017Y-94834797D01*
X100691482Y-94870993D01*
X100688794Y-94876102D01*
X100598970Y-95046829D01*
X100598968Y-95046834D01*
X100596281Y-95051941D01*
X100535649Y-95247207D01*
X100511617Y-95450253D01*
X100524989Y-95654279D01*
X100575319Y-95852451D01*
X100660919Y-96038133D01*
X100778924Y-96205106D01*
X100925382Y-96347779D01*
X100930178Y-96350984D01*
X100930181Y-96350986D01*
X101026736Y-96415501D01*
X101095387Y-96461372D01*
X101100690Y-96463650D01*
X101100693Y-96463652D01*
X101190018Y-96502029D01*
X101245766Y-96525980D01*
X101259403Y-96531839D01*
X101314096Y-96577107D01*
X101335633Y-96644758D01*
X101317176Y-96713314D01*
X101264585Y-96761008D01*
X101231003Y-96771787D01*
X101062031Y-96800822D01*
X101056334Y-96801801D01*
X100855887Y-96875750D01*
X100850926Y-96878702D01*
X100850925Y-96878702D01*
X100677240Y-96982033D01*
X100677237Y-96982035D01*
X100672272Y-96984989D01*
X100667932Y-96988795D01*
X100667928Y-96988798D01*
X100515981Y-97122053D01*
X100511640Y-97125860D01*
X100379369Y-97293645D01*
X100376680Y-97298756D01*
X100376678Y-97298759D01*
X100363044Y-97324674D01*
X100279889Y-97482725D01*
X100278175Y-97488246D01*
X100278173Y-97488250D01*
X100272683Y-97505933D01*
X100216532Y-97686767D01*
X100215854Y-97692496D01*
X100215854Y-97692497D01*
X100214323Y-97705430D01*
X100186452Y-97770728D01*
X100127704Y-97810592D01*
X100056729Y-97812365D01*
X99996063Y-97775486D01*
X99966823Y-97716633D01*
X99966430Y-97716744D01*
X99959592Y-97692496D01*
X99910004Y-97516672D01*
X99910003Y-97516670D01*
X99908436Y-97511113D01*
X99897162Y-97488250D01*
X99816495Y-97324674D01*
X99813940Y-97319493D01*
X99794639Y-97293645D01*
X99689560Y-97152927D01*
X99689559Y-97152926D01*
X99686107Y-97148303D01*
X99681871Y-97144387D01*
X99533457Y-97007195D01*
X99533454Y-97007193D01*
X99529217Y-97003276D01*
X99348525Y-96889268D01*
X99150082Y-96810097D01*
X99144425Y-96808972D01*
X99144419Y-96808970D01*
X98946203Y-96769543D01*
X98946199Y-96769543D01*
X98940535Y-96768416D01*
X98934760Y-96768340D01*
X98934756Y-96768340D01*
X98827497Y-96766936D01*
X98726901Y-96765619D01*
X98721204Y-96766598D01*
X98721203Y-96766598D01*
X98522031Y-96800822D01*
X98516334Y-96801801D01*
X98315887Y-96875750D01*
X98310926Y-96878702D01*
X98310925Y-96878702D01*
X98137240Y-96982033D01*
X98137237Y-96982035D01*
X98132272Y-96984989D01*
X98127932Y-96988795D01*
X98127928Y-96988798D01*
X97975981Y-97122053D01*
X97971640Y-97125860D01*
X97839369Y-97293645D01*
X97836680Y-97298756D01*
X97836678Y-97298759D01*
X97823044Y-97324674D01*
X97739889Y-97482725D01*
X97738175Y-97488246D01*
X97738173Y-97488250D01*
X97732683Y-97505933D01*
X97676532Y-97686767D01*
X97675854Y-97692496D01*
X97675854Y-97692497D01*
X97674323Y-97705430D01*
X97646452Y-97770728D01*
X97587704Y-97810592D01*
X97516729Y-97812365D01*
X97456063Y-97775486D01*
X97426823Y-97716633D01*
X97426430Y-97716744D01*
X97419592Y-97692496D01*
X97370004Y-97516672D01*
X97370003Y-97516670D01*
X97368436Y-97511113D01*
X97357162Y-97488250D01*
X97276495Y-97324674D01*
X97273940Y-97319493D01*
X97254639Y-97293645D01*
X97149560Y-97152927D01*
X97149559Y-97152926D01*
X97146107Y-97148303D01*
X97141871Y-97144387D01*
X96993457Y-97007195D01*
X96993454Y-97007193D01*
X96989217Y-97003276D01*
X96808525Y-96889268D01*
X96610082Y-96810097D01*
X96604425Y-96808972D01*
X96604419Y-96808970D01*
X96406203Y-96769543D01*
X96406199Y-96769543D01*
X96400535Y-96768416D01*
X96394760Y-96768340D01*
X96394756Y-96768340D01*
X96287497Y-96766936D01*
X96186901Y-96765619D01*
X96181204Y-96766598D01*
X96181203Y-96766598D01*
X95982031Y-96800822D01*
X95976334Y-96801801D01*
X95775887Y-96875750D01*
X95770926Y-96878702D01*
X95770925Y-96878702D01*
X95597240Y-96982033D01*
X95597237Y-96982035D01*
X95592272Y-96984989D01*
X95587932Y-96988795D01*
X95587928Y-96988798D01*
X95435981Y-97122053D01*
X95431640Y-97125860D01*
X95299369Y-97293645D01*
X95296680Y-97298756D01*
X95296678Y-97298759D01*
X95283044Y-97324674D01*
X95199889Y-97482725D01*
X95198175Y-97488246D01*
X95198173Y-97488250D01*
X95192683Y-97505933D01*
X95136532Y-97686767D01*
X95135854Y-97692496D01*
X95135854Y-97692497D01*
X95134323Y-97705430D01*
X95106452Y-97770728D01*
X95047704Y-97810592D01*
X94976729Y-97812365D01*
X94916063Y-97775486D01*
X94886823Y-97716633D01*
X94886430Y-97716744D01*
X94879592Y-97692496D01*
X94830004Y-97516672D01*
X94830003Y-97516670D01*
X94828436Y-97511113D01*
X94817162Y-97488250D01*
X94736495Y-97324674D01*
X94733940Y-97319493D01*
X94714639Y-97293645D01*
X94609560Y-97152927D01*
X94609559Y-97152926D01*
X94606107Y-97148303D01*
X94601871Y-97144387D01*
X94453457Y-97007195D01*
X94453454Y-97007193D01*
X94449217Y-97003276D01*
X94268525Y-96889268D01*
X94070082Y-96810097D01*
X94064425Y-96808972D01*
X94064419Y-96808970D01*
X93866203Y-96769543D01*
X93866199Y-96769543D01*
X93860535Y-96768416D01*
X93854760Y-96768340D01*
X93854756Y-96768340D01*
X93747497Y-96766936D01*
X93646901Y-96765619D01*
X93641204Y-96766598D01*
X93641203Y-96766598D01*
X93442031Y-96800822D01*
X93436334Y-96801801D01*
X93235887Y-96875750D01*
X93230926Y-96878702D01*
X93230925Y-96878702D01*
X93057240Y-96982033D01*
X93057237Y-96982035D01*
X93052272Y-96984989D01*
X93047932Y-96988795D01*
X93047928Y-96988798D01*
X92895981Y-97122053D01*
X92891640Y-97125860D01*
X92759369Y-97293645D01*
X92756680Y-97298756D01*
X92756678Y-97298759D01*
X92743044Y-97324674D01*
X92659889Y-97482725D01*
X92658175Y-97488246D01*
X92658173Y-97488250D01*
X92652683Y-97505933D01*
X92596532Y-97686767D01*
X92595854Y-97692496D01*
X92595854Y-97692497D01*
X92594323Y-97705430D01*
X92566452Y-97770728D01*
X92507704Y-97810592D01*
X92436729Y-97812365D01*
X92376063Y-97775486D01*
X92346823Y-97716633D01*
X92346430Y-97716744D01*
X92339592Y-97692496D01*
X92290004Y-97516672D01*
X92290003Y-97516670D01*
X92288436Y-97511113D01*
X92277162Y-97488250D01*
X92196495Y-97324674D01*
X92193940Y-97319493D01*
X92174639Y-97293645D01*
X92069560Y-97152927D01*
X92069559Y-97152926D01*
X92066107Y-97148303D01*
X92061871Y-97144387D01*
X91913457Y-97007195D01*
X91913454Y-97007193D01*
X91909217Y-97003276D01*
X91728525Y-96889268D01*
X91530082Y-96810097D01*
X91524425Y-96808972D01*
X91524419Y-96808970D01*
X91326203Y-96769543D01*
X91326199Y-96769543D01*
X91320535Y-96768416D01*
X91314760Y-96768340D01*
X91314756Y-96768340D01*
X91207497Y-96766936D01*
X91106901Y-96765619D01*
X91101204Y-96766598D01*
X91101203Y-96766598D01*
X90902031Y-96800822D01*
X90896334Y-96801801D01*
X90695887Y-96875750D01*
X90690926Y-96878702D01*
X90690925Y-96878702D01*
X90517240Y-96982033D01*
X90517237Y-96982035D01*
X90512272Y-96984989D01*
X90507932Y-96988795D01*
X90507928Y-96988798D01*
X90355981Y-97122053D01*
X90351640Y-97125860D01*
X90219369Y-97293645D01*
X90216680Y-97298756D01*
X90216678Y-97298759D01*
X90203044Y-97324674D01*
X90119889Y-97482725D01*
X90118175Y-97488246D01*
X90118173Y-97488250D01*
X90112683Y-97505933D01*
X90056532Y-97686767D01*
X90055854Y-97692496D01*
X90055854Y-97692497D01*
X90054323Y-97705430D01*
X90026452Y-97770728D01*
X89967704Y-97810592D01*
X89896729Y-97812365D01*
X89836063Y-97775486D01*
X89806823Y-97716633D01*
X89806430Y-97716744D01*
X89799592Y-97692496D01*
X89750004Y-97516672D01*
X89750003Y-97516670D01*
X89748436Y-97511113D01*
X89737162Y-97488250D01*
X89656495Y-97324674D01*
X89653940Y-97319493D01*
X89634639Y-97293645D01*
X89529560Y-97152927D01*
X89529559Y-97152926D01*
X89526107Y-97148303D01*
X89521871Y-97144387D01*
X89373457Y-97007195D01*
X89373454Y-97007193D01*
X89369217Y-97003276D01*
X89188525Y-96889268D01*
X88990082Y-96810097D01*
X88984425Y-96808972D01*
X88984419Y-96808970D01*
X88786203Y-96769543D01*
X88786199Y-96769543D01*
X88780535Y-96768416D01*
X88774760Y-96768340D01*
X88774756Y-96768340D01*
X88667497Y-96766936D01*
X88566901Y-96765619D01*
X88561204Y-96766598D01*
X88561203Y-96766598D01*
X88362031Y-96800822D01*
X88356334Y-96801801D01*
X88155887Y-96875750D01*
X88150926Y-96878702D01*
X88150925Y-96878702D01*
X87977240Y-96982033D01*
X87977237Y-96982035D01*
X87972272Y-96984989D01*
X87967932Y-96988795D01*
X87967928Y-96988798D01*
X87815981Y-97122053D01*
X87811640Y-97125860D01*
X87679369Y-97293645D01*
X87676680Y-97298756D01*
X87676678Y-97298759D01*
X87663044Y-97324674D01*
X87579889Y-97482725D01*
X87578175Y-97488246D01*
X87578173Y-97488250D01*
X87572683Y-97505933D01*
X87516532Y-97686767D01*
X87515854Y-97692496D01*
X87515854Y-97692497D01*
X87514323Y-97705430D01*
X87486452Y-97770728D01*
X87427704Y-97810592D01*
X87356729Y-97812365D01*
X87296063Y-97775486D01*
X87266823Y-97716633D01*
X87266430Y-97716744D01*
X87259592Y-97692496D01*
X87210004Y-97516672D01*
X87210003Y-97516670D01*
X87208436Y-97511113D01*
X87197162Y-97488250D01*
X87116495Y-97324674D01*
X87113940Y-97319493D01*
X87094639Y-97293645D01*
X86989560Y-97152927D01*
X86989559Y-97152926D01*
X86986107Y-97148303D01*
X86981871Y-97144387D01*
X86833457Y-97007195D01*
X86833454Y-97007193D01*
X86829217Y-97003276D01*
X86648525Y-96889268D01*
X86450082Y-96810097D01*
X86444425Y-96808972D01*
X86444419Y-96808970D01*
X86246203Y-96769543D01*
X86246199Y-96769543D01*
X86240535Y-96768416D01*
X86234760Y-96768340D01*
X86234756Y-96768340D01*
X86127497Y-96766936D01*
X86026901Y-96765619D01*
X86021204Y-96766598D01*
X86021203Y-96766598D01*
X85822031Y-96800822D01*
X85816334Y-96801801D01*
X85615887Y-96875750D01*
X85610926Y-96878702D01*
X85610925Y-96878702D01*
X85437240Y-96982033D01*
X85437237Y-96982035D01*
X85432272Y-96984989D01*
X85427932Y-96988795D01*
X85427928Y-96988798D01*
X85275981Y-97122053D01*
X85271640Y-97125860D01*
X85139369Y-97293645D01*
X85136680Y-97298756D01*
X85136678Y-97298759D01*
X85123044Y-97324674D01*
X85039889Y-97482725D01*
X85038175Y-97488246D01*
X85038173Y-97488250D01*
X85032683Y-97505933D01*
X84976532Y-97686767D01*
X84975854Y-97692496D01*
X84975854Y-97692497D01*
X84974323Y-97705430D01*
X84946452Y-97770728D01*
X84887704Y-97810592D01*
X84816729Y-97812365D01*
X84756063Y-97775486D01*
X84726823Y-97716633D01*
X84726430Y-97716744D01*
X84719592Y-97692496D01*
X84670004Y-97516672D01*
X84670003Y-97516670D01*
X84668436Y-97511113D01*
X84657162Y-97488250D01*
X84576495Y-97324674D01*
X84573940Y-97319493D01*
X84554639Y-97293645D01*
X84449560Y-97152927D01*
X84449559Y-97152926D01*
X84446107Y-97148303D01*
X84441871Y-97144387D01*
X84293457Y-97007195D01*
X84293454Y-97007193D01*
X84289217Y-97003276D01*
X84108525Y-96889268D01*
X83910082Y-96810097D01*
X83904425Y-96808972D01*
X83904419Y-96808970D01*
X83706203Y-96769543D01*
X83706199Y-96769543D01*
X83700535Y-96768416D01*
X83694760Y-96768340D01*
X83694756Y-96768340D01*
X83587497Y-96766936D01*
X83486901Y-96765619D01*
X83481204Y-96766598D01*
X83481203Y-96766598D01*
X83282031Y-96800822D01*
X83276334Y-96801801D01*
X83075887Y-96875750D01*
X83070926Y-96878702D01*
X83070925Y-96878702D01*
X82897240Y-96982033D01*
X82897237Y-96982035D01*
X82892272Y-96984989D01*
X82887932Y-96988795D01*
X82887928Y-96988798D01*
X82735981Y-97122053D01*
X82731640Y-97125860D01*
X82599369Y-97293645D01*
X82596680Y-97298756D01*
X82596678Y-97298759D01*
X82583044Y-97324674D01*
X82499889Y-97482725D01*
X82498175Y-97488246D01*
X82498173Y-97488250D01*
X82492683Y-97505933D01*
X82436532Y-97686767D01*
X82411420Y-97898939D01*
X79663172Y-97898939D01*
X79646430Y-97716744D01*
X79639592Y-97692496D01*
X79590004Y-97516672D01*
X79590003Y-97516670D01*
X79588436Y-97511113D01*
X79577162Y-97488250D01*
X79496495Y-97324674D01*
X79493940Y-97319493D01*
X79474639Y-97293645D01*
X79369560Y-97152927D01*
X79369559Y-97152926D01*
X79366107Y-97148303D01*
X79361871Y-97144387D01*
X79213457Y-97007195D01*
X79213454Y-97007193D01*
X79209217Y-97003276D01*
X79028525Y-96889268D01*
X78830082Y-96810097D01*
X78824425Y-96808972D01*
X78824419Y-96808970D01*
X78626203Y-96769543D01*
X78626199Y-96769543D01*
X78620535Y-96768416D01*
X78614760Y-96768340D01*
X78614756Y-96768340D01*
X78507497Y-96766936D01*
X78406901Y-96765619D01*
X78401204Y-96766598D01*
X78401203Y-96766598D01*
X78202031Y-96800822D01*
X78196334Y-96801801D01*
X77995887Y-96875750D01*
X77990926Y-96878702D01*
X77990925Y-96878702D01*
X77817240Y-96982033D01*
X77817237Y-96982035D01*
X77812272Y-96984989D01*
X77807932Y-96988795D01*
X77807928Y-96988798D01*
X77655981Y-97122053D01*
X77651640Y-97125860D01*
X77519369Y-97293645D01*
X77516680Y-97298756D01*
X77516678Y-97298759D01*
X77503044Y-97324674D01*
X77419889Y-97482725D01*
X77418175Y-97488246D01*
X77418173Y-97488250D01*
X77412683Y-97505933D01*
X77356532Y-97686767D01*
X77355854Y-97692496D01*
X77355854Y-97692497D01*
X77354323Y-97705430D01*
X77326452Y-97770728D01*
X77267704Y-97810592D01*
X77196729Y-97812365D01*
X77136063Y-97775486D01*
X77106823Y-97716633D01*
X77106430Y-97716744D01*
X77099592Y-97692496D01*
X77050004Y-97516672D01*
X77050003Y-97516670D01*
X77048436Y-97511113D01*
X77037162Y-97488250D01*
X76956495Y-97324674D01*
X76953940Y-97319493D01*
X76934639Y-97293645D01*
X76829560Y-97152927D01*
X76829559Y-97152926D01*
X76826107Y-97148303D01*
X76821871Y-97144387D01*
X76673457Y-97007195D01*
X76673454Y-97007193D01*
X76669217Y-97003276D01*
X76488525Y-96889268D01*
X76290082Y-96810097D01*
X76284425Y-96808972D01*
X76284419Y-96808970D01*
X76086203Y-96769543D01*
X76086199Y-96769543D01*
X76080535Y-96768416D01*
X76074760Y-96768340D01*
X76074756Y-96768340D01*
X75967497Y-96766936D01*
X75866901Y-96765619D01*
X75861204Y-96766598D01*
X75861203Y-96766598D01*
X75662031Y-96800822D01*
X75656334Y-96801801D01*
X75455887Y-96875750D01*
X75450926Y-96878702D01*
X75450925Y-96878702D01*
X75277240Y-96982033D01*
X75277237Y-96982035D01*
X75272272Y-96984989D01*
X75267932Y-96988795D01*
X75267928Y-96988798D01*
X75115981Y-97122053D01*
X75111640Y-97125860D01*
X74979369Y-97293645D01*
X74976680Y-97298756D01*
X74976678Y-97298759D01*
X74963044Y-97324674D01*
X74879889Y-97482725D01*
X74878175Y-97488246D01*
X74878173Y-97488250D01*
X74872683Y-97505933D01*
X74816532Y-97686767D01*
X74815854Y-97692496D01*
X74815854Y-97692497D01*
X74814323Y-97705430D01*
X74786452Y-97770728D01*
X74727704Y-97810592D01*
X74656729Y-97812365D01*
X74596063Y-97775486D01*
X74566823Y-97716633D01*
X74566430Y-97716744D01*
X74559592Y-97692496D01*
X74510004Y-97516672D01*
X74510003Y-97516670D01*
X74508436Y-97511113D01*
X74497162Y-97488250D01*
X74416495Y-97324674D01*
X74413940Y-97319493D01*
X74394639Y-97293645D01*
X74289560Y-97152927D01*
X74289559Y-97152926D01*
X74286107Y-97148303D01*
X74281871Y-97144387D01*
X74133457Y-97007195D01*
X74133454Y-97007193D01*
X74129217Y-97003276D01*
X73948525Y-96889268D01*
X73750082Y-96810097D01*
X73744425Y-96808972D01*
X73744419Y-96808970D01*
X73546203Y-96769543D01*
X73546199Y-96769543D01*
X73540535Y-96768416D01*
X73534760Y-96768340D01*
X73534756Y-96768340D01*
X73427497Y-96766936D01*
X73326901Y-96765619D01*
X73321204Y-96766598D01*
X73321203Y-96766598D01*
X73122031Y-96800822D01*
X73116334Y-96801801D01*
X72915887Y-96875750D01*
X72910926Y-96878702D01*
X72910925Y-96878702D01*
X72737240Y-96982033D01*
X72737237Y-96982035D01*
X72732272Y-96984989D01*
X72727932Y-96988795D01*
X72727928Y-96988798D01*
X72575981Y-97122053D01*
X72571640Y-97125860D01*
X72439369Y-97293645D01*
X72436680Y-97298756D01*
X72436678Y-97298759D01*
X72423044Y-97324674D01*
X72339889Y-97482725D01*
X72338175Y-97488246D01*
X72338173Y-97488250D01*
X72332683Y-97505933D01*
X72276532Y-97686767D01*
X72275854Y-97692496D01*
X72275854Y-97692497D01*
X72274323Y-97705430D01*
X72246452Y-97770728D01*
X72187704Y-97810592D01*
X72116729Y-97812365D01*
X72056063Y-97775486D01*
X72026823Y-97716633D01*
X72026430Y-97716744D01*
X72019592Y-97692496D01*
X71970004Y-97516672D01*
X71970003Y-97516670D01*
X71968436Y-97511113D01*
X71957162Y-97488250D01*
X71876495Y-97324674D01*
X71873940Y-97319493D01*
X71854639Y-97293645D01*
X71749560Y-97152927D01*
X71749559Y-97152926D01*
X71746107Y-97148303D01*
X71741871Y-97144387D01*
X71593457Y-97007195D01*
X71593454Y-97007193D01*
X71589217Y-97003276D01*
X71408525Y-96889268D01*
X71210082Y-96810097D01*
X71148693Y-96797886D01*
X71074570Y-96783142D01*
X71011661Y-96750234D01*
X70976529Y-96688539D01*
X70980329Y-96617645D01*
X71021855Y-96560059D01*
X71081070Y-96534868D01*
X71151043Y-96524722D01*
X71156507Y-96522867D01*
X71156512Y-96522866D01*
X71347889Y-96457902D01*
X71353357Y-96456046D01*
X71539768Y-96351651D01*
X71549266Y-96343752D01*
X71638512Y-96269526D01*
X71704033Y-96215033D01*
X71840651Y-96050768D01*
X71945046Y-95864357D01*
X71985292Y-95745795D01*
X72011866Y-95667512D01*
X72011867Y-95667507D01*
X72013722Y-95662043D01*
X72026759Y-95572134D01*
X72040190Y-95479500D01*
X72044380Y-95450601D01*
X72045980Y-95389500D01*
X72026430Y-95176744D01*
X72019592Y-95152496D01*
X71970004Y-94976672D01*
X71970003Y-94976670D01*
X71968436Y-94971113D01*
X71957162Y-94948250D01*
X71876495Y-94784674D01*
X71873940Y-94779493D01*
X71854639Y-94753645D01*
X71749560Y-94612927D01*
X71749559Y-94612926D01*
X71746107Y-94608303D01*
X71733914Y-94597032D01*
X71593457Y-94467195D01*
X71593454Y-94467193D01*
X71589217Y-94463276D01*
X71408525Y-94349268D01*
X71210082Y-94270097D01*
X71148693Y-94257886D01*
X71074570Y-94243142D01*
X71011661Y-94210234D01*
X70976529Y-94148539D01*
X70980329Y-94077645D01*
X71021855Y-94020059D01*
X71081070Y-93994868D01*
X71151043Y-93984722D01*
X71156507Y-93982867D01*
X71156512Y-93982866D01*
X71347889Y-93917902D01*
X71353357Y-93916046D01*
X71539768Y-93811651D01*
X71704033Y-93675033D01*
X71840651Y-93510768D01*
X71945046Y-93324357D01*
X71971235Y-93247207D01*
X72011866Y-93127512D01*
X72011867Y-93127507D01*
X72013722Y-93122043D01*
X72019948Y-93079108D01*
X72043847Y-92914275D01*
X72044380Y-92910601D01*
X72045980Y-92849500D01*
X72033617Y-92714956D01*
X72026959Y-92642498D01*
X72026958Y-92642495D01*
X72026430Y-92636744D01*
X72019592Y-92612496D01*
X71970004Y-92436672D01*
X71970003Y-92436670D01*
X71968436Y-92431113D01*
X71957162Y-92408250D01*
X71876495Y-92244674D01*
X71873940Y-92239493D01*
X71854639Y-92213645D01*
X71749560Y-92072927D01*
X71749559Y-92072926D01*
X71746107Y-92068303D01*
X71741871Y-92064387D01*
X71593457Y-91927195D01*
X71593454Y-91927193D01*
X71589217Y-91923276D01*
X71408525Y-91809268D01*
X71210082Y-91730097D01*
X71204425Y-91728972D01*
X71204419Y-91728970D01*
X71006203Y-91689543D01*
X71006199Y-91689543D01*
X71000535Y-91688416D01*
X70994760Y-91688340D01*
X70994756Y-91688340D01*
X70887497Y-91686936D01*
X70786901Y-91685619D01*
X70781204Y-91686598D01*
X70781203Y-91686598D01*
X70582031Y-91720822D01*
X70576334Y-91721801D01*
X70375887Y-91795750D01*
X70370926Y-91798702D01*
X70370925Y-91798702D01*
X70197240Y-91902033D01*
X70197237Y-91902035D01*
X70192272Y-91904989D01*
X70187932Y-91908795D01*
X70187928Y-91908798D01*
X70118739Y-91969476D01*
X70031640Y-92045860D01*
X69899369Y-92213645D01*
X69896680Y-92218756D01*
X69896678Y-92218759D01*
X69842330Y-92322057D01*
X69799889Y-92402725D01*
X69798175Y-92408246D01*
X69798173Y-92408250D01*
X69739555Y-92597032D01*
X69736532Y-92606767D01*
X69711420Y-92818939D01*
X69725394Y-93032134D01*
X69777985Y-93239213D01*
X69867433Y-93433240D01*
X69990741Y-93607718D01*
X69994883Y-93611753D01*
X70042335Y-93657978D01*
X70143781Y-93756802D01*
X70321427Y-93875501D01*
X70326730Y-93877779D01*
X70326733Y-93877781D01*
X70444704Y-93928465D01*
X70517729Y-93959839D01*
X70588855Y-93975933D01*
X70683690Y-93997393D01*
X70745717Y-94031936D01*
X70779221Y-94094530D01*
X70773567Y-94165301D01*
X70730548Y-94221780D01*
X70677221Y-94244465D01*
X70576334Y-94261801D01*
X70375887Y-94335750D01*
X70370926Y-94338702D01*
X70370925Y-94338702D01*
X70197240Y-94442033D01*
X70197237Y-94442035D01*
X70192272Y-94444989D01*
X70187932Y-94448795D01*
X70187928Y-94448798D01*
X70154126Y-94478442D01*
X70031640Y-94585860D01*
X69899369Y-94753645D01*
X69896680Y-94758756D01*
X69896678Y-94758759D01*
X69883044Y-94784674D01*
X69799889Y-94942725D01*
X69798175Y-94948246D01*
X69798173Y-94948250D01*
X69757541Y-95079108D01*
X69736532Y-95146767D01*
X69711420Y-95358939D01*
X69725394Y-95572134D01*
X69777985Y-95779213D01*
X69867433Y-95973240D01*
X69870766Y-95977956D01*
X69968871Y-96116772D01*
X69990741Y-96147718D01*
X70143781Y-96296802D01*
X70321427Y-96415501D01*
X70326730Y-96417779D01*
X70326733Y-96417781D01*
X70433501Y-96463652D01*
X70517729Y-96499839D01*
X70588855Y-96515933D01*
X70683690Y-96537393D01*
X70745717Y-96571936D01*
X70779221Y-96634530D01*
X70773567Y-96705301D01*
X70730548Y-96761780D01*
X70677221Y-96784465D01*
X70576334Y-96801801D01*
X70375887Y-96875750D01*
X70370926Y-96878702D01*
X70370925Y-96878702D01*
X70197240Y-96982033D01*
X70197237Y-96982035D01*
X70192272Y-96984989D01*
X70187932Y-96988795D01*
X70187928Y-96988798D01*
X70035981Y-97122053D01*
X70031640Y-97125860D01*
X69899369Y-97293645D01*
X69896680Y-97298756D01*
X69896678Y-97298759D01*
X69883044Y-97324674D01*
X69799889Y-97482725D01*
X69798175Y-97488246D01*
X69798173Y-97488250D01*
X69792683Y-97505933D01*
X69736532Y-97686767D01*
X69735854Y-97692496D01*
X69735854Y-97692497D01*
X69734323Y-97705430D01*
X69706452Y-97770728D01*
X69647704Y-97810592D01*
X69576729Y-97812365D01*
X69516063Y-97775486D01*
X69486823Y-97716633D01*
X69486430Y-97716744D01*
X69479592Y-97692496D01*
X69430004Y-97516672D01*
X69430003Y-97516670D01*
X69428436Y-97511113D01*
X69417162Y-97488250D01*
X69336495Y-97324674D01*
X69333940Y-97319493D01*
X69314639Y-97293645D01*
X69209560Y-97152927D01*
X69209559Y-97152926D01*
X69206107Y-97148303D01*
X69201871Y-97144387D01*
X69053457Y-97007195D01*
X69053454Y-97007193D01*
X69049217Y-97003276D01*
X68868525Y-96889268D01*
X68670082Y-96810097D01*
X68664425Y-96808972D01*
X68664419Y-96808970D01*
X68466203Y-96769543D01*
X68466199Y-96769543D01*
X68460535Y-96768416D01*
X68454760Y-96768340D01*
X68454756Y-96768340D01*
X68347497Y-96766936D01*
X68246901Y-96765619D01*
X68241204Y-96766598D01*
X68241203Y-96766598D01*
X68042031Y-96800822D01*
X68036334Y-96801801D01*
X67835887Y-96875750D01*
X67830926Y-96878702D01*
X67830925Y-96878702D01*
X67657240Y-96982033D01*
X67657237Y-96982035D01*
X67652272Y-96984989D01*
X67647932Y-96988795D01*
X67647928Y-96988798D01*
X67495981Y-97122053D01*
X67491640Y-97125860D01*
X67359369Y-97293645D01*
X67356680Y-97298756D01*
X67356678Y-97298759D01*
X67343044Y-97324674D01*
X67259889Y-97482725D01*
X67258175Y-97488246D01*
X67258173Y-97488250D01*
X67252683Y-97505933D01*
X67196532Y-97686767D01*
X67195854Y-97692496D01*
X67195854Y-97692497D01*
X67194323Y-97705430D01*
X67166452Y-97770728D01*
X67107704Y-97810592D01*
X67036729Y-97812365D01*
X66976063Y-97775486D01*
X66946823Y-97716633D01*
X66946430Y-97716744D01*
X66939592Y-97692496D01*
X66890004Y-97516672D01*
X66890003Y-97516670D01*
X66888436Y-97511113D01*
X66877162Y-97488250D01*
X66796495Y-97324674D01*
X66793940Y-97319493D01*
X66774639Y-97293645D01*
X66669560Y-97152927D01*
X66669559Y-97152926D01*
X66666107Y-97148303D01*
X66661871Y-97144387D01*
X66513457Y-97007195D01*
X66513454Y-97007193D01*
X66509217Y-97003276D01*
X66328525Y-96889268D01*
X66130082Y-96810097D01*
X66124425Y-96808972D01*
X66124419Y-96808970D01*
X65926203Y-96769543D01*
X65926199Y-96769543D01*
X65920535Y-96768416D01*
X65914760Y-96768340D01*
X65914756Y-96768340D01*
X65807497Y-96766936D01*
X65706901Y-96765619D01*
X65701204Y-96766598D01*
X65701203Y-96766598D01*
X65502031Y-96800822D01*
X65496334Y-96801801D01*
X65295887Y-96875750D01*
X65290926Y-96878702D01*
X65290925Y-96878702D01*
X65117240Y-96982033D01*
X65117237Y-96982035D01*
X65112272Y-96984989D01*
X65107932Y-96988795D01*
X65107928Y-96988798D01*
X64955981Y-97122053D01*
X64951640Y-97125860D01*
X64819369Y-97293645D01*
X64816680Y-97298756D01*
X64816678Y-97298759D01*
X64803044Y-97324674D01*
X64719889Y-97482725D01*
X64718175Y-97488246D01*
X64718173Y-97488250D01*
X64712683Y-97505933D01*
X64656532Y-97686767D01*
X64655854Y-97692496D01*
X64655854Y-97692497D01*
X64654323Y-97705430D01*
X64626452Y-97770728D01*
X64567704Y-97810592D01*
X64496729Y-97812365D01*
X64436063Y-97775486D01*
X64406823Y-97716633D01*
X64406430Y-97716744D01*
X64399592Y-97692496D01*
X64350004Y-97516672D01*
X64350003Y-97516670D01*
X64348436Y-97511113D01*
X64337162Y-97488250D01*
X64256495Y-97324674D01*
X64253940Y-97319493D01*
X64234639Y-97293645D01*
X64129560Y-97152927D01*
X64129559Y-97152926D01*
X64126107Y-97148303D01*
X64121871Y-97144387D01*
X63973457Y-97007195D01*
X63973454Y-97007193D01*
X63969217Y-97003276D01*
X63788525Y-96889268D01*
X63590082Y-96810097D01*
X63584425Y-96808972D01*
X63584419Y-96808970D01*
X63386203Y-96769543D01*
X63386199Y-96769543D01*
X63380535Y-96768416D01*
X63374760Y-96768340D01*
X63374756Y-96768340D01*
X63267497Y-96766936D01*
X63166901Y-96765619D01*
X63161204Y-96766598D01*
X63161203Y-96766598D01*
X62962031Y-96800822D01*
X62956334Y-96801801D01*
X62755887Y-96875750D01*
X62750926Y-96878702D01*
X62750925Y-96878702D01*
X62577240Y-96982033D01*
X62577237Y-96982035D01*
X62572272Y-96984989D01*
X62567932Y-96988795D01*
X62567928Y-96988798D01*
X62415981Y-97122053D01*
X62411640Y-97125860D01*
X62279369Y-97293645D01*
X62276680Y-97298756D01*
X62276678Y-97298759D01*
X62263044Y-97324674D01*
X62179889Y-97482725D01*
X62178175Y-97488246D01*
X62178173Y-97488250D01*
X62172683Y-97505933D01*
X62116532Y-97686767D01*
X62115854Y-97692496D01*
X62115854Y-97692497D01*
X62114323Y-97705430D01*
X62086452Y-97770728D01*
X62027704Y-97810592D01*
X61956729Y-97812365D01*
X61896063Y-97775486D01*
X61866823Y-97716633D01*
X61866430Y-97716744D01*
X61859592Y-97692496D01*
X61810004Y-97516672D01*
X61810003Y-97516670D01*
X61808436Y-97511113D01*
X61797162Y-97488250D01*
X61716495Y-97324674D01*
X61713940Y-97319493D01*
X61694639Y-97293645D01*
X61589560Y-97152927D01*
X61589559Y-97152926D01*
X61586107Y-97148303D01*
X61581871Y-97144387D01*
X61433457Y-97007195D01*
X61433454Y-97007193D01*
X61429217Y-97003276D01*
X61248525Y-96889268D01*
X61050082Y-96810097D01*
X61044425Y-96808972D01*
X61044419Y-96808970D01*
X60846203Y-96769543D01*
X60846199Y-96769543D01*
X60840535Y-96768416D01*
X60834760Y-96768340D01*
X60834756Y-96768340D01*
X60727497Y-96766936D01*
X60626901Y-96765619D01*
X60621204Y-96766598D01*
X60621203Y-96766598D01*
X60422031Y-96800822D01*
X60416334Y-96801801D01*
X60215887Y-96875750D01*
X60210926Y-96878702D01*
X60210925Y-96878702D01*
X60037240Y-96982033D01*
X60037237Y-96982035D01*
X60032272Y-96984989D01*
X60027932Y-96988795D01*
X60027928Y-96988798D01*
X59875981Y-97122053D01*
X59871640Y-97125860D01*
X59739369Y-97293645D01*
X59736680Y-97298756D01*
X59736678Y-97298759D01*
X59723044Y-97324674D01*
X59639889Y-97482725D01*
X59638175Y-97488246D01*
X59638173Y-97488250D01*
X59632683Y-97505933D01*
X59576532Y-97686767D01*
X59575854Y-97692496D01*
X59575854Y-97692497D01*
X59574323Y-97705430D01*
X59546452Y-97770728D01*
X59487704Y-97810592D01*
X59416729Y-97812365D01*
X59356063Y-97775486D01*
X59326823Y-97716633D01*
X59326430Y-97716744D01*
X59319592Y-97692496D01*
X59270004Y-97516672D01*
X59270003Y-97516670D01*
X59268436Y-97511113D01*
X59257162Y-97488250D01*
X59176495Y-97324674D01*
X59173940Y-97319493D01*
X59154639Y-97293645D01*
X59049560Y-97152927D01*
X59049559Y-97152926D01*
X59046107Y-97148303D01*
X59041871Y-97144387D01*
X58893457Y-97007195D01*
X58893454Y-97007193D01*
X58889217Y-97003276D01*
X58708525Y-96889268D01*
X58510082Y-96810097D01*
X58504425Y-96808972D01*
X58504419Y-96808970D01*
X58306203Y-96769543D01*
X58306199Y-96769543D01*
X58300535Y-96768416D01*
X58294760Y-96768340D01*
X58294756Y-96768340D01*
X58187497Y-96766936D01*
X58086901Y-96765619D01*
X58081204Y-96766598D01*
X58081203Y-96766598D01*
X57882031Y-96800822D01*
X57876334Y-96801801D01*
X57675887Y-96875750D01*
X57670926Y-96878702D01*
X57670925Y-96878702D01*
X57497240Y-96982033D01*
X57497237Y-96982035D01*
X57492272Y-96984989D01*
X57487932Y-96988795D01*
X57487928Y-96988798D01*
X57335981Y-97122053D01*
X57331640Y-97125860D01*
X57199369Y-97293645D01*
X57196680Y-97298756D01*
X57196678Y-97298759D01*
X57183044Y-97324674D01*
X57099889Y-97482725D01*
X57098175Y-97488246D01*
X57098173Y-97488250D01*
X57092683Y-97505933D01*
X57036532Y-97686767D01*
X57011420Y-97898939D01*
X55372500Y-97898939D01*
X55372500Y-82658939D01*
X57011420Y-82658939D01*
X57025394Y-82872134D01*
X57077985Y-83079213D01*
X57167433Y-83273240D01*
X57290741Y-83447718D01*
X57443781Y-83596802D01*
X57621427Y-83715501D01*
X57626730Y-83717779D01*
X57626733Y-83717781D01*
X57812422Y-83797559D01*
X57817729Y-83799839D01*
X57919493Y-83822866D01*
X58020477Y-83845717D01*
X58020480Y-83845717D01*
X58026113Y-83846992D01*
X58031884Y-83847219D01*
X58031886Y-83847219D01*
X58096863Y-83849772D01*
X58239601Y-83855380D01*
X58363654Y-83837393D01*
X58445329Y-83825551D01*
X58445334Y-83825550D01*
X58451043Y-83824722D01*
X58456507Y-83822867D01*
X58456512Y-83822866D01*
X58647889Y-83757902D01*
X58653357Y-83756046D01*
X58839768Y-83651651D01*
X59004033Y-83515033D01*
X59140651Y-83350768D01*
X59245046Y-83164357D01*
X59313722Y-82962043D01*
X59322590Y-82900879D01*
X59352160Y-82836335D01*
X59411931Y-82798022D01*
X59482928Y-82798106D01*
X59542608Y-82836561D01*
X59569409Y-82887945D01*
X59588228Y-82962043D01*
X59617985Y-83079213D01*
X59707433Y-83273240D01*
X59830741Y-83447718D01*
X59983781Y-83596802D01*
X60161427Y-83715501D01*
X60166730Y-83717779D01*
X60166733Y-83717781D01*
X60352422Y-83797559D01*
X60357729Y-83799839D01*
X60459493Y-83822866D01*
X60560477Y-83845717D01*
X60560480Y-83845717D01*
X60566113Y-83846992D01*
X60571884Y-83847219D01*
X60571886Y-83847219D01*
X60636863Y-83849772D01*
X60779601Y-83855380D01*
X60903654Y-83837393D01*
X60985329Y-83825551D01*
X60985334Y-83825550D01*
X60991043Y-83824722D01*
X60996507Y-83822867D01*
X60996512Y-83822866D01*
X61187889Y-83757902D01*
X61193357Y-83756046D01*
X61379768Y-83651651D01*
X61544033Y-83515033D01*
X61680651Y-83350768D01*
X61785046Y-83164357D01*
X61853722Y-82962043D01*
X61862590Y-82900879D01*
X61892160Y-82836335D01*
X61951931Y-82798022D01*
X62022928Y-82798106D01*
X62082608Y-82836561D01*
X62109409Y-82887945D01*
X62128228Y-82962043D01*
X62157985Y-83079213D01*
X62247433Y-83273240D01*
X62370741Y-83447718D01*
X62523781Y-83596802D01*
X62701427Y-83715501D01*
X62706730Y-83717779D01*
X62706733Y-83717781D01*
X62892422Y-83797559D01*
X62897729Y-83799839D01*
X62999493Y-83822866D01*
X63100477Y-83845717D01*
X63100480Y-83845717D01*
X63106113Y-83846992D01*
X63111884Y-83847219D01*
X63111886Y-83847219D01*
X63176863Y-83849772D01*
X63319601Y-83855380D01*
X63443654Y-83837393D01*
X63525329Y-83825551D01*
X63525334Y-83825550D01*
X63531043Y-83824722D01*
X63536507Y-83822867D01*
X63536512Y-83822866D01*
X63727889Y-83757902D01*
X63733357Y-83756046D01*
X63919768Y-83651651D01*
X64084033Y-83515033D01*
X64220651Y-83350768D01*
X64325046Y-83164357D01*
X64393722Y-82962043D01*
X64402590Y-82900879D01*
X64432160Y-82836335D01*
X64491931Y-82798022D01*
X64562928Y-82798106D01*
X64622608Y-82836561D01*
X64649409Y-82887945D01*
X64668228Y-82962043D01*
X64697985Y-83079213D01*
X64787433Y-83273240D01*
X64910741Y-83447718D01*
X65063781Y-83596802D01*
X65241427Y-83715501D01*
X65246730Y-83717779D01*
X65246733Y-83717781D01*
X65432422Y-83797559D01*
X65437729Y-83799839D01*
X65539493Y-83822866D01*
X65640477Y-83845717D01*
X65640480Y-83845717D01*
X65646113Y-83846992D01*
X65651884Y-83847219D01*
X65651886Y-83847219D01*
X65716863Y-83849772D01*
X65859601Y-83855380D01*
X65983654Y-83837393D01*
X66065329Y-83825551D01*
X66065334Y-83825550D01*
X66071043Y-83824722D01*
X66076507Y-83822867D01*
X66076512Y-83822866D01*
X66267889Y-83757902D01*
X66273357Y-83756046D01*
X66459768Y-83651651D01*
X66624033Y-83515033D01*
X66760651Y-83350768D01*
X66865046Y-83164357D01*
X66933722Y-82962043D01*
X66942590Y-82900879D01*
X66972160Y-82836335D01*
X67031931Y-82798022D01*
X67102928Y-82798106D01*
X67162608Y-82836561D01*
X67189409Y-82887945D01*
X67208228Y-82962043D01*
X67237985Y-83079213D01*
X67327433Y-83273240D01*
X67450741Y-83447718D01*
X67603781Y-83596802D01*
X67781427Y-83715501D01*
X67786730Y-83717779D01*
X67786733Y-83717781D01*
X67972422Y-83797559D01*
X67977729Y-83799839D01*
X68079493Y-83822866D01*
X68180477Y-83845717D01*
X68180480Y-83845717D01*
X68186113Y-83846992D01*
X68191884Y-83847219D01*
X68191886Y-83847219D01*
X68256863Y-83849772D01*
X68399601Y-83855380D01*
X68523654Y-83837393D01*
X68605329Y-83825551D01*
X68605334Y-83825550D01*
X68611043Y-83824722D01*
X68616507Y-83822867D01*
X68616512Y-83822866D01*
X68807889Y-83757902D01*
X68813357Y-83756046D01*
X68999768Y-83651651D01*
X69164033Y-83515033D01*
X69300651Y-83350768D01*
X69405046Y-83164357D01*
X69473722Y-82962043D01*
X69482590Y-82900879D01*
X69512160Y-82836335D01*
X69571931Y-82798022D01*
X69642928Y-82798106D01*
X69702608Y-82836561D01*
X69729409Y-82887945D01*
X69748228Y-82962043D01*
X69777985Y-83079213D01*
X69867433Y-83273240D01*
X69990741Y-83447718D01*
X70143781Y-83596802D01*
X70321427Y-83715501D01*
X70326730Y-83717779D01*
X70326733Y-83717781D01*
X70512422Y-83797559D01*
X70517729Y-83799839D01*
X70588855Y-83815933D01*
X70683690Y-83837393D01*
X70745717Y-83871936D01*
X70779221Y-83934530D01*
X70773567Y-84005301D01*
X70730548Y-84061780D01*
X70677221Y-84084465D01*
X70576334Y-84101801D01*
X70375887Y-84175750D01*
X70370926Y-84178702D01*
X70370925Y-84178702D01*
X70197240Y-84282033D01*
X70197237Y-84282035D01*
X70192272Y-84284989D01*
X70187932Y-84288795D01*
X70187928Y-84288798D01*
X70035981Y-84422053D01*
X70031640Y-84425860D01*
X69899369Y-84593645D01*
X69896680Y-84598756D01*
X69896678Y-84598759D01*
X69842330Y-84702057D01*
X69799889Y-84782725D01*
X69798175Y-84788246D01*
X69798173Y-84788250D01*
X69740154Y-84975103D01*
X69736532Y-84986767D01*
X69711420Y-85198939D01*
X69725394Y-85412134D01*
X69777985Y-85619213D01*
X69867433Y-85813240D01*
X69990741Y-85987718D01*
X70143781Y-86136802D01*
X70321427Y-86255501D01*
X70326730Y-86257779D01*
X70326733Y-86257781D01*
X70460850Y-86315402D01*
X70517729Y-86339839D01*
X70588855Y-86355933D01*
X70683690Y-86377393D01*
X70745717Y-86411936D01*
X70779221Y-86474530D01*
X70773567Y-86545301D01*
X70730548Y-86601780D01*
X70677221Y-86624465D01*
X70576334Y-86641801D01*
X70375887Y-86715750D01*
X70370926Y-86718702D01*
X70370925Y-86718702D01*
X70197240Y-86822033D01*
X70197237Y-86822035D01*
X70192272Y-86824989D01*
X70187932Y-86828795D01*
X70187928Y-86828798D01*
X70130139Y-86879478D01*
X70031640Y-86965860D01*
X69899369Y-87133645D01*
X69896680Y-87138756D01*
X69896678Y-87138759D01*
X69883044Y-87164674D01*
X69799889Y-87322725D01*
X69798175Y-87328246D01*
X69798173Y-87328250D01*
X69792683Y-87345933D01*
X69736532Y-87526767D01*
X69711420Y-87738939D01*
X69725394Y-87952134D01*
X69777985Y-88159213D01*
X69867433Y-88353240D01*
X69990741Y-88527718D01*
X70143781Y-88676802D01*
X70321427Y-88795501D01*
X70326730Y-88797779D01*
X70326733Y-88797781D01*
X70512422Y-88877559D01*
X70517729Y-88879839D01*
X70619493Y-88902866D01*
X70720477Y-88925717D01*
X70720480Y-88925717D01*
X70726113Y-88926992D01*
X70731884Y-88927219D01*
X70731886Y-88927219D01*
X70796863Y-88929772D01*
X70939601Y-88935380D01*
X71045322Y-88920051D01*
X71145329Y-88905551D01*
X71145334Y-88905550D01*
X71151043Y-88904722D01*
X71156507Y-88902867D01*
X71156512Y-88902866D01*
X71347889Y-88837902D01*
X71353357Y-88836046D01*
X71539768Y-88731651D01*
X71704033Y-88595033D01*
X71840651Y-88430768D01*
X71945046Y-88244357D01*
X72013722Y-88042043D01*
X72026759Y-87952134D01*
X72043847Y-87834275D01*
X72044380Y-87830601D01*
X72045980Y-87769500D01*
X72026430Y-87556744D01*
X72019592Y-87532496D01*
X71970004Y-87356672D01*
X71970003Y-87356670D01*
X71968436Y-87351113D01*
X71957162Y-87328250D01*
X71876495Y-87164674D01*
X71873940Y-87159493D01*
X71854639Y-87133645D01*
X71749560Y-86992927D01*
X71749559Y-86992926D01*
X71746107Y-86988303D01*
X71741871Y-86984387D01*
X71593457Y-86847195D01*
X71593454Y-86847193D01*
X71589217Y-86843276D01*
X71408525Y-86729268D01*
X71210082Y-86650097D01*
X71148693Y-86637886D01*
X71074570Y-86623142D01*
X71011661Y-86590234D01*
X70976529Y-86528539D01*
X70980329Y-86457645D01*
X71021855Y-86400059D01*
X71081070Y-86374868D01*
X71151043Y-86364722D01*
X71156507Y-86362867D01*
X71156512Y-86362866D01*
X71347889Y-86297902D01*
X71353357Y-86296046D01*
X71539768Y-86191651D01*
X71704033Y-86055033D01*
X71840651Y-85890768D01*
X71942112Y-85709596D01*
X104026518Y-85709596D01*
X104040192Y-85918207D01*
X104091652Y-86120832D01*
X104179176Y-86310686D01*
X104299833Y-86481412D01*
X104449581Y-86627291D01*
X104454377Y-86630496D01*
X104454380Y-86630498D01*
X104524379Y-86677269D01*
X104623407Y-86743437D01*
X104628710Y-86745715D01*
X104628713Y-86745717D01*
X104715748Y-86783110D01*
X104815487Y-86825961D01*
X105019390Y-86872100D01*
X105025159Y-86872327D01*
X105025162Y-86872327D01*
X105103967Y-86875423D01*
X105228287Y-86880307D01*
X105435182Y-86850309D01*
X105440646Y-86848454D01*
X105440651Y-86848453D01*
X105627677Y-86784966D01*
X105633145Y-86783110D01*
X105815547Y-86680960D01*
X105976280Y-86547280D01*
X106109960Y-86386547D01*
X106212110Y-86204145D01*
X106242292Y-86115232D01*
X106277453Y-86011651D01*
X106277454Y-86011646D01*
X106279309Y-86006182D01*
X106309307Y-85799287D01*
X106310873Y-85739500D01*
X106308125Y-85709596D01*
X106566518Y-85709596D01*
X106580192Y-85918207D01*
X106631652Y-86120832D01*
X106719176Y-86310686D01*
X106839833Y-86481412D01*
X106989581Y-86627291D01*
X106994377Y-86630496D01*
X106994380Y-86630498D01*
X107064379Y-86677269D01*
X107163407Y-86743437D01*
X107168710Y-86745715D01*
X107168713Y-86745717D01*
X107255748Y-86783110D01*
X107355487Y-86825961D01*
X107559390Y-86872100D01*
X107565159Y-86872327D01*
X107565162Y-86872327D01*
X107643967Y-86875423D01*
X107768287Y-86880307D01*
X107975182Y-86850309D01*
X107980646Y-86848454D01*
X107980651Y-86848453D01*
X108167677Y-86784966D01*
X108173145Y-86783110D01*
X108355547Y-86680960D01*
X108516280Y-86547280D01*
X108649960Y-86386547D01*
X108752110Y-86204145D01*
X108782292Y-86115232D01*
X108817453Y-86011651D01*
X108817454Y-86011646D01*
X108819309Y-86006182D01*
X108849307Y-85799287D01*
X108850873Y-85739500D01*
X108848125Y-85709596D01*
X109106518Y-85709596D01*
X109120192Y-85918207D01*
X109171652Y-86120832D01*
X109259176Y-86310686D01*
X109379833Y-86481412D01*
X109529581Y-86627291D01*
X109534377Y-86630496D01*
X109534380Y-86630498D01*
X109604379Y-86677269D01*
X109703407Y-86743437D01*
X109708710Y-86745715D01*
X109708713Y-86745717D01*
X109795748Y-86783110D01*
X109895487Y-86825961D01*
X110099390Y-86872100D01*
X110105159Y-86872327D01*
X110105162Y-86872327D01*
X110183967Y-86875423D01*
X110308287Y-86880307D01*
X110515182Y-86850309D01*
X110520646Y-86848454D01*
X110520651Y-86848453D01*
X110707677Y-86784966D01*
X110713145Y-86783110D01*
X110895547Y-86680960D01*
X111056280Y-86547280D01*
X111189960Y-86386547D01*
X111292110Y-86204145D01*
X111322292Y-86115232D01*
X111357453Y-86011651D01*
X111357454Y-86011646D01*
X111359309Y-86006182D01*
X111389307Y-85799287D01*
X111390873Y-85739500D01*
X111371744Y-85531319D01*
X111365090Y-85507724D01*
X111316565Y-85335669D01*
X111316564Y-85335667D01*
X111314997Y-85330110D01*
X111304019Y-85307847D01*
X111225088Y-85147793D01*
X111222533Y-85142612D01*
X111219082Y-85137990D01*
X111219078Y-85137984D01*
X111100902Y-84979727D01*
X111100901Y-84979726D01*
X111097449Y-84975103D01*
X111093213Y-84971187D01*
X110948173Y-84837114D01*
X110948170Y-84837112D01*
X110943933Y-84833195D01*
X110767126Y-84721638D01*
X110572951Y-84644170D01*
X110567291Y-84643044D01*
X110567287Y-84643043D01*
X110373577Y-84604512D01*
X110373575Y-84604512D01*
X110367910Y-84603385D01*
X110362135Y-84603309D01*
X110362131Y-84603309D01*
X110257731Y-84601943D01*
X110158870Y-84600649D01*
X110153173Y-84601628D01*
X110153172Y-84601628D01*
X109958529Y-84635073D01*
X109958528Y-84635073D01*
X109952832Y-84636052D01*
X109756696Y-84708411D01*
X109751735Y-84711363D01*
X109751734Y-84711363D01*
X109622499Y-84788250D01*
X109577030Y-84815301D01*
X109419852Y-84953142D01*
X109290425Y-85117319D01*
X109193085Y-85302333D01*
X109131091Y-85501987D01*
X109106518Y-85709596D01*
X108848125Y-85709596D01*
X108831744Y-85531319D01*
X108825090Y-85507724D01*
X108776565Y-85335669D01*
X108776564Y-85335667D01*
X108774997Y-85330110D01*
X108764019Y-85307847D01*
X108685088Y-85147793D01*
X108682533Y-85142612D01*
X108679082Y-85137990D01*
X108679078Y-85137984D01*
X108560902Y-84979727D01*
X108560901Y-84979726D01*
X108557449Y-84975103D01*
X108553213Y-84971187D01*
X108408173Y-84837114D01*
X108408170Y-84837112D01*
X108403933Y-84833195D01*
X108227126Y-84721638D01*
X108032951Y-84644170D01*
X108027291Y-84643044D01*
X108027287Y-84643043D01*
X107833577Y-84604512D01*
X107833575Y-84604512D01*
X107827910Y-84603385D01*
X107822135Y-84603309D01*
X107822131Y-84603309D01*
X107717731Y-84601943D01*
X107618870Y-84600649D01*
X107613173Y-84601628D01*
X107613172Y-84601628D01*
X107418529Y-84635073D01*
X107418528Y-84635073D01*
X107412832Y-84636052D01*
X107216696Y-84708411D01*
X107211735Y-84711363D01*
X107211734Y-84711363D01*
X107082499Y-84788250D01*
X107037030Y-84815301D01*
X106879852Y-84953142D01*
X106750425Y-85117319D01*
X106653085Y-85302333D01*
X106591091Y-85501987D01*
X106566518Y-85709596D01*
X106308125Y-85709596D01*
X106291744Y-85531319D01*
X106285090Y-85507724D01*
X106236565Y-85335669D01*
X106236564Y-85335667D01*
X106234997Y-85330110D01*
X106224019Y-85307847D01*
X106145088Y-85147793D01*
X106142533Y-85142612D01*
X106139082Y-85137990D01*
X106139078Y-85137984D01*
X106020902Y-84979727D01*
X106020901Y-84979726D01*
X106017449Y-84975103D01*
X106013213Y-84971187D01*
X105868173Y-84837114D01*
X105868170Y-84837112D01*
X105863933Y-84833195D01*
X105687126Y-84721638D01*
X105492951Y-84644170D01*
X105487291Y-84643044D01*
X105487287Y-84643043D01*
X105293577Y-84604512D01*
X105293575Y-84604512D01*
X105287910Y-84603385D01*
X105282135Y-84603309D01*
X105282131Y-84603309D01*
X105177731Y-84601943D01*
X105078870Y-84600649D01*
X105073173Y-84601628D01*
X105073172Y-84601628D01*
X104878529Y-84635073D01*
X104878528Y-84635073D01*
X104872832Y-84636052D01*
X104676696Y-84708411D01*
X104671735Y-84711363D01*
X104671734Y-84711363D01*
X104542499Y-84788250D01*
X104497030Y-84815301D01*
X104339852Y-84953142D01*
X104210425Y-85117319D01*
X104113085Y-85302333D01*
X104051091Y-85501987D01*
X104026518Y-85709596D01*
X71942112Y-85709596D01*
X71945046Y-85704357D01*
X72001831Y-85537073D01*
X72011866Y-85507512D01*
X72011867Y-85507507D01*
X72013722Y-85502043D01*
X72026759Y-85412134D01*
X72043847Y-85294275D01*
X72044380Y-85290601D01*
X72045980Y-85229500D01*
X72026430Y-85016744D01*
X72019592Y-84992496D01*
X71970004Y-84816672D01*
X71970003Y-84816670D01*
X71968436Y-84811113D01*
X71957162Y-84788250D01*
X71876495Y-84624674D01*
X71873940Y-84619493D01*
X71854639Y-84593645D01*
X71749560Y-84452927D01*
X71749559Y-84452926D01*
X71746107Y-84448303D01*
X71741871Y-84444387D01*
X71593457Y-84307195D01*
X71593454Y-84307193D01*
X71589217Y-84303276D01*
X71408525Y-84189268D01*
X71210082Y-84110097D01*
X71148693Y-84097886D01*
X71074570Y-84083142D01*
X71011661Y-84050234D01*
X70976529Y-83988539D01*
X70980329Y-83917645D01*
X71021855Y-83860059D01*
X71081070Y-83834868D01*
X71151043Y-83824722D01*
X71156507Y-83822867D01*
X71156512Y-83822866D01*
X71347889Y-83757902D01*
X71353357Y-83756046D01*
X71539768Y-83651651D01*
X71704033Y-83515033D01*
X71840651Y-83350768D01*
X71945046Y-83164357D01*
X72013722Y-82962043D01*
X72022590Y-82900879D01*
X72052160Y-82836335D01*
X72111931Y-82798022D01*
X72182928Y-82798106D01*
X72242608Y-82836561D01*
X72269409Y-82887945D01*
X72288228Y-82962043D01*
X72317985Y-83079213D01*
X72407433Y-83273240D01*
X72530741Y-83447718D01*
X72683781Y-83596802D01*
X72861427Y-83715501D01*
X72866730Y-83717779D01*
X72866733Y-83717781D01*
X73052422Y-83797559D01*
X73057729Y-83799839D01*
X73159493Y-83822866D01*
X73260477Y-83845717D01*
X73260480Y-83845717D01*
X73266113Y-83846992D01*
X73271884Y-83847219D01*
X73271886Y-83847219D01*
X73336863Y-83849772D01*
X73479601Y-83855380D01*
X73603654Y-83837393D01*
X73685329Y-83825551D01*
X73685334Y-83825550D01*
X73691043Y-83824722D01*
X73696507Y-83822867D01*
X73696512Y-83822866D01*
X73887889Y-83757902D01*
X73893357Y-83756046D01*
X74079768Y-83651651D01*
X74244033Y-83515033D01*
X74380651Y-83350768D01*
X74485046Y-83164357D01*
X74553722Y-82962043D01*
X74562590Y-82900879D01*
X74592160Y-82836335D01*
X74651931Y-82798022D01*
X74722928Y-82798106D01*
X74782608Y-82836561D01*
X74809409Y-82887945D01*
X74828228Y-82962043D01*
X74857985Y-83079213D01*
X74947433Y-83273240D01*
X75070741Y-83447718D01*
X75223781Y-83596802D01*
X75401427Y-83715501D01*
X75406730Y-83717779D01*
X75406733Y-83717781D01*
X75592422Y-83797559D01*
X75597729Y-83799839D01*
X75699493Y-83822866D01*
X75800477Y-83845717D01*
X75800480Y-83845717D01*
X75806113Y-83846992D01*
X75811884Y-83847219D01*
X75811886Y-83847219D01*
X75876863Y-83849772D01*
X76019601Y-83855380D01*
X76143654Y-83837393D01*
X76225329Y-83825551D01*
X76225334Y-83825550D01*
X76231043Y-83824722D01*
X76236507Y-83822867D01*
X76236512Y-83822866D01*
X76427889Y-83757902D01*
X76433357Y-83756046D01*
X76619768Y-83651651D01*
X76784033Y-83515033D01*
X76920651Y-83350768D01*
X77025046Y-83164357D01*
X77093722Y-82962043D01*
X77102590Y-82900879D01*
X77132160Y-82836335D01*
X77191931Y-82798022D01*
X77262928Y-82798106D01*
X77322608Y-82836561D01*
X77349409Y-82887945D01*
X77368228Y-82962043D01*
X77397985Y-83079213D01*
X77487433Y-83273240D01*
X77610741Y-83447718D01*
X77763781Y-83596802D01*
X77941427Y-83715501D01*
X77946730Y-83717779D01*
X77946733Y-83717781D01*
X78132422Y-83797559D01*
X78137729Y-83799839D01*
X78239493Y-83822866D01*
X78340477Y-83845717D01*
X78340480Y-83845717D01*
X78346113Y-83846992D01*
X78351884Y-83847219D01*
X78351886Y-83847219D01*
X78416863Y-83849772D01*
X78559601Y-83855380D01*
X78683654Y-83837393D01*
X78765329Y-83825551D01*
X78765334Y-83825550D01*
X78771043Y-83824722D01*
X78776507Y-83822867D01*
X78776512Y-83822866D01*
X78967889Y-83757902D01*
X78973357Y-83756046D01*
X79159768Y-83651651D01*
X79324033Y-83515033D01*
X79460651Y-83350768D01*
X79565046Y-83164357D01*
X79633722Y-82962043D01*
X79642590Y-82900879D01*
X79672160Y-82836335D01*
X79731931Y-82798022D01*
X79802928Y-82798106D01*
X79862608Y-82836561D01*
X79889409Y-82887945D01*
X79908228Y-82962043D01*
X79937985Y-83079213D01*
X80027433Y-83273240D01*
X80150741Y-83447718D01*
X80303781Y-83596802D01*
X80481427Y-83715501D01*
X80486730Y-83717779D01*
X80486733Y-83717781D01*
X80672422Y-83797559D01*
X80677729Y-83799839D01*
X80779493Y-83822866D01*
X80880477Y-83845717D01*
X80880480Y-83845717D01*
X80886113Y-83846992D01*
X80891884Y-83847219D01*
X80891886Y-83847219D01*
X80956863Y-83849772D01*
X81099601Y-83855380D01*
X81223654Y-83837393D01*
X81305329Y-83825551D01*
X81305334Y-83825550D01*
X81311043Y-83824722D01*
X81316507Y-83822867D01*
X81316512Y-83822866D01*
X81507889Y-83757902D01*
X81513357Y-83756046D01*
X81699768Y-83651651D01*
X81864033Y-83515033D01*
X82000651Y-83350768D01*
X82105046Y-83164357D01*
X82173722Y-82962043D01*
X82182590Y-82900879D01*
X82212160Y-82836335D01*
X82271931Y-82798022D01*
X82342928Y-82798106D01*
X82402608Y-82836561D01*
X82429409Y-82887945D01*
X82448228Y-82962043D01*
X82477985Y-83079213D01*
X82567433Y-83273240D01*
X82690741Y-83447718D01*
X82843781Y-83596802D01*
X83021427Y-83715501D01*
X83026730Y-83717779D01*
X83026733Y-83717781D01*
X83212422Y-83797559D01*
X83217729Y-83799839D01*
X83319493Y-83822866D01*
X83420477Y-83845717D01*
X83420480Y-83845717D01*
X83426113Y-83846992D01*
X83431884Y-83847219D01*
X83431886Y-83847219D01*
X83496863Y-83849772D01*
X83639601Y-83855380D01*
X83763654Y-83837393D01*
X83845329Y-83825551D01*
X83845334Y-83825550D01*
X83851043Y-83824722D01*
X83856507Y-83822867D01*
X83856512Y-83822866D01*
X84047889Y-83757902D01*
X84053357Y-83756046D01*
X84239768Y-83651651D01*
X84404033Y-83515033D01*
X84540651Y-83350768D01*
X84645046Y-83164357D01*
X84713722Y-82962043D01*
X84722590Y-82900879D01*
X84752160Y-82836335D01*
X84811931Y-82798022D01*
X84882928Y-82798106D01*
X84942608Y-82836561D01*
X84969409Y-82887945D01*
X84988228Y-82962043D01*
X85017985Y-83079213D01*
X85107433Y-83273240D01*
X85230741Y-83447718D01*
X85383781Y-83596802D01*
X85561427Y-83715501D01*
X85566730Y-83717779D01*
X85566733Y-83717781D01*
X85752422Y-83797559D01*
X85757729Y-83799839D01*
X85859493Y-83822866D01*
X85960477Y-83845717D01*
X85960480Y-83845717D01*
X85966113Y-83846992D01*
X85971884Y-83847219D01*
X85971886Y-83847219D01*
X86036863Y-83849772D01*
X86179601Y-83855380D01*
X86303654Y-83837393D01*
X86385329Y-83825551D01*
X86385334Y-83825550D01*
X86391043Y-83824722D01*
X86396507Y-83822867D01*
X86396512Y-83822866D01*
X86587889Y-83757902D01*
X86593357Y-83756046D01*
X86779768Y-83651651D01*
X86944033Y-83515033D01*
X87080651Y-83350768D01*
X87185046Y-83164357D01*
X87253722Y-82962043D01*
X87262590Y-82900879D01*
X87292160Y-82836335D01*
X87351931Y-82798022D01*
X87422928Y-82798106D01*
X87482608Y-82836561D01*
X87509409Y-82887945D01*
X87528228Y-82962043D01*
X87557985Y-83079213D01*
X87647433Y-83273240D01*
X87770741Y-83447718D01*
X87923781Y-83596802D01*
X88101427Y-83715501D01*
X88106730Y-83717779D01*
X88106733Y-83717781D01*
X88292422Y-83797559D01*
X88297729Y-83799839D01*
X88399493Y-83822866D01*
X88500477Y-83845717D01*
X88500480Y-83845717D01*
X88506113Y-83846992D01*
X88511884Y-83847219D01*
X88511886Y-83847219D01*
X88576863Y-83849772D01*
X88719601Y-83855380D01*
X88843654Y-83837393D01*
X88925329Y-83825551D01*
X88925334Y-83825550D01*
X88931043Y-83824722D01*
X88936507Y-83822867D01*
X88936512Y-83822866D01*
X89127889Y-83757902D01*
X89133357Y-83756046D01*
X89319768Y-83651651D01*
X89484033Y-83515033D01*
X89620651Y-83350768D01*
X89725046Y-83164357D01*
X89793722Y-82962043D01*
X89802590Y-82900879D01*
X89832160Y-82836335D01*
X89891931Y-82798022D01*
X89962928Y-82798106D01*
X90022608Y-82836561D01*
X90049409Y-82887945D01*
X90068228Y-82962043D01*
X90097985Y-83079213D01*
X90187433Y-83273240D01*
X90310741Y-83447718D01*
X90463781Y-83596802D01*
X90641427Y-83715501D01*
X90646730Y-83717779D01*
X90646733Y-83717781D01*
X90832422Y-83797559D01*
X90837729Y-83799839D01*
X90939493Y-83822866D01*
X91040477Y-83845717D01*
X91040480Y-83845717D01*
X91046113Y-83846992D01*
X91051884Y-83847219D01*
X91051886Y-83847219D01*
X91116863Y-83849772D01*
X91259601Y-83855380D01*
X91383654Y-83837393D01*
X91465329Y-83825551D01*
X91465334Y-83825550D01*
X91471043Y-83824722D01*
X91476507Y-83822867D01*
X91476512Y-83822866D01*
X91667889Y-83757902D01*
X91673357Y-83756046D01*
X91859768Y-83651651D01*
X92024033Y-83515033D01*
X92160651Y-83350768D01*
X92265046Y-83164357D01*
X92333722Y-82962043D01*
X92342590Y-82900879D01*
X92372160Y-82836335D01*
X92431931Y-82798022D01*
X92502928Y-82798106D01*
X92562608Y-82836561D01*
X92589409Y-82887945D01*
X92608228Y-82962043D01*
X92637985Y-83079213D01*
X92727433Y-83273240D01*
X92850741Y-83447718D01*
X93003781Y-83596802D01*
X93181427Y-83715501D01*
X93186730Y-83717779D01*
X93186733Y-83717781D01*
X93372422Y-83797559D01*
X93377729Y-83799839D01*
X93479493Y-83822866D01*
X93580477Y-83845717D01*
X93580480Y-83845717D01*
X93586113Y-83846992D01*
X93591884Y-83847219D01*
X93591886Y-83847219D01*
X93656863Y-83849772D01*
X93799601Y-83855380D01*
X93923654Y-83837393D01*
X94005329Y-83825551D01*
X94005334Y-83825550D01*
X94011043Y-83824722D01*
X94016507Y-83822867D01*
X94016512Y-83822866D01*
X94207889Y-83757902D01*
X94213357Y-83756046D01*
X94399768Y-83651651D01*
X94564033Y-83515033D01*
X94700651Y-83350768D01*
X94805046Y-83164357D01*
X94873722Y-82962043D01*
X94882590Y-82900879D01*
X94912160Y-82836335D01*
X94971931Y-82798022D01*
X95042928Y-82798106D01*
X95102608Y-82836561D01*
X95129409Y-82887945D01*
X95148228Y-82962043D01*
X95177985Y-83079213D01*
X95267433Y-83273240D01*
X95390741Y-83447718D01*
X95543781Y-83596802D01*
X95721427Y-83715501D01*
X95726730Y-83717779D01*
X95726733Y-83717781D01*
X95912422Y-83797559D01*
X95917729Y-83799839D01*
X96019493Y-83822866D01*
X96120477Y-83845717D01*
X96120480Y-83845717D01*
X96126113Y-83846992D01*
X96131884Y-83847219D01*
X96131886Y-83847219D01*
X96196863Y-83849772D01*
X96339601Y-83855380D01*
X96463654Y-83837393D01*
X96545329Y-83825551D01*
X96545334Y-83825550D01*
X96551043Y-83824722D01*
X96556507Y-83822867D01*
X96556512Y-83822866D01*
X96747889Y-83757902D01*
X96753357Y-83756046D01*
X96939768Y-83651651D01*
X97104033Y-83515033D01*
X97240651Y-83350768D01*
X97345046Y-83164357D01*
X97413722Y-82962043D01*
X97422590Y-82900879D01*
X97452160Y-82836335D01*
X97511931Y-82798022D01*
X97582928Y-82798106D01*
X97642608Y-82836561D01*
X97669409Y-82887945D01*
X97688228Y-82962043D01*
X97717985Y-83079213D01*
X97807433Y-83273240D01*
X97930741Y-83447718D01*
X98083781Y-83596802D01*
X98261427Y-83715501D01*
X98266730Y-83717779D01*
X98266733Y-83717781D01*
X98452422Y-83797559D01*
X98457729Y-83799839D01*
X98559493Y-83822866D01*
X98660477Y-83845717D01*
X98660480Y-83845717D01*
X98666113Y-83846992D01*
X98671884Y-83847219D01*
X98671886Y-83847219D01*
X98736863Y-83849772D01*
X98879601Y-83855380D01*
X99003654Y-83837393D01*
X99085329Y-83825551D01*
X99085334Y-83825550D01*
X99091043Y-83824722D01*
X99096507Y-83822867D01*
X99096512Y-83822866D01*
X99287889Y-83757902D01*
X99293357Y-83756046D01*
X99479768Y-83651651D01*
X99644033Y-83515033D01*
X99780651Y-83350768D01*
X99885046Y-83164357D01*
X99953722Y-82962043D01*
X99962590Y-82900879D01*
X99992160Y-82836335D01*
X100051931Y-82798022D01*
X100122928Y-82798106D01*
X100182608Y-82836561D01*
X100209409Y-82887945D01*
X100228228Y-82962043D01*
X100257985Y-83079213D01*
X100347433Y-83273240D01*
X100470741Y-83447718D01*
X100623781Y-83596802D01*
X100801427Y-83715501D01*
X100806730Y-83717779D01*
X100806733Y-83717781D01*
X100992422Y-83797559D01*
X100997729Y-83799839D01*
X101099493Y-83822866D01*
X101200477Y-83845717D01*
X101200480Y-83845717D01*
X101206113Y-83846992D01*
X101211884Y-83847219D01*
X101211886Y-83847219D01*
X101276863Y-83849772D01*
X101419601Y-83855380D01*
X101543654Y-83837393D01*
X101625329Y-83825551D01*
X101625334Y-83825550D01*
X101631043Y-83824722D01*
X101636507Y-83822867D01*
X101636512Y-83822866D01*
X101827889Y-83757902D01*
X101833357Y-83756046D01*
X102019768Y-83651651D01*
X102184033Y-83515033D01*
X102320651Y-83350768D01*
X102425046Y-83164357D01*
X102493722Y-82962043D01*
X102502590Y-82900879D01*
X102532160Y-82836335D01*
X102591931Y-82798022D01*
X102662928Y-82798106D01*
X102722608Y-82836561D01*
X102749409Y-82887945D01*
X102768228Y-82962043D01*
X102797985Y-83079213D01*
X102887433Y-83273240D01*
X103010741Y-83447718D01*
X103163781Y-83596802D01*
X103341427Y-83715501D01*
X103346730Y-83717779D01*
X103346733Y-83717781D01*
X103532422Y-83797559D01*
X103537729Y-83799839D01*
X103639493Y-83822866D01*
X103740477Y-83845717D01*
X103740480Y-83845717D01*
X103746113Y-83846992D01*
X103751884Y-83847219D01*
X103751886Y-83847219D01*
X103816863Y-83849772D01*
X103959601Y-83855380D01*
X104083654Y-83837393D01*
X104165329Y-83825551D01*
X104165334Y-83825550D01*
X104171043Y-83824722D01*
X104176507Y-83822867D01*
X104176512Y-83822866D01*
X104367889Y-83757902D01*
X104373357Y-83756046D01*
X104559768Y-83651651D01*
X104724033Y-83515033D01*
X104860651Y-83350768D01*
X104965046Y-83164357D01*
X105033722Y-82962043D01*
X105042590Y-82900879D01*
X105072160Y-82836335D01*
X105131931Y-82798022D01*
X105202928Y-82798106D01*
X105262608Y-82836561D01*
X105289409Y-82887945D01*
X105308228Y-82962043D01*
X105337985Y-83079213D01*
X105427433Y-83273240D01*
X105550741Y-83447718D01*
X105703781Y-83596802D01*
X105881427Y-83715501D01*
X105886730Y-83717779D01*
X105886733Y-83717781D01*
X106072422Y-83797559D01*
X106077729Y-83799839D01*
X106179493Y-83822866D01*
X106280477Y-83845717D01*
X106280480Y-83845717D01*
X106286113Y-83846992D01*
X106291884Y-83847219D01*
X106291886Y-83847219D01*
X106356863Y-83849772D01*
X106499601Y-83855380D01*
X106623654Y-83837393D01*
X106705329Y-83825551D01*
X106705334Y-83825550D01*
X106711043Y-83824722D01*
X106716507Y-83822867D01*
X106716512Y-83822866D01*
X106907889Y-83757902D01*
X106913357Y-83756046D01*
X107099768Y-83651651D01*
X107264033Y-83515033D01*
X107400651Y-83350768D01*
X107505046Y-83164357D01*
X107573722Y-82962043D01*
X107582590Y-82900879D01*
X107612160Y-82836335D01*
X107671931Y-82798022D01*
X107742928Y-82798106D01*
X107802608Y-82836561D01*
X107829409Y-82887945D01*
X107848228Y-82962043D01*
X107877985Y-83079213D01*
X107967433Y-83273240D01*
X108090741Y-83447718D01*
X108243781Y-83596802D01*
X108421427Y-83715501D01*
X108426730Y-83717779D01*
X108426733Y-83717781D01*
X108612422Y-83797559D01*
X108617729Y-83799839D01*
X108719493Y-83822866D01*
X108820477Y-83845717D01*
X108820480Y-83845717D01*
X108826113Y-83846992D01*
X108831884Y-83847219D01*
X108831886Y-83847219D01*
X108896863Y-83849772D01*
X109039601Y-83855380D01*
X109163654Y-83837393D01*
X109245329Y-83825551D01*
X109245334Y-83825550D01*
X109251043Y-83824722D01*
X109256507Y-83822867D01*
X109256512Y-83822866D01*
X109447889Y-83757902D01*
X109453357Y-83756046D01*
X109639768Y-83651651D01*
X109804033Y-83515033D01*
X109940651Y-83350768D01*
X110045046Y-83164357D01*
X110113722Y-82962043D01*
X110122590Y-82900879D01*
X110152160Y-82836335D01*
X110211931Y-82798022D01*
X110282928Y-82798106D01*
X110342608Y-82836561D01*
X110369409Y-82887945D01*
X110388228Y-82962043D01*
X110417985Y-83079213D01*
X110507433Y-83273240D01*
X110630741Y-83447718D01*
X110783781Y-83596802D01*
X110961427Y-83715501D01*
X110966730Y-83717779D01*
X110966733Y-83717781D01*
X111152422Y-83797559D01*
X111157729Y-83799839D01*
X111259493Y-83822866D01*
X111360477Y-83845717D01*
X111360480Y-83845717D01*
X111366113Y-83846992D01*
X111371884Y-83847219D01*
X111371886Y-83847219D01*
X111436863Y-83849772D01*
X111579601Y-83855380D01*
X111703654Y-83837393D01*
X111785329Y-83825551D01*
X111785334Y-83825550D01*
X111791043Y-83824722D01*
X111796507Y-83822867D01*
X111796512Y-83822866D01*
X111987889Y-83757902D01*
X111993357Y-83756046D01*
X112179768Y-83651651D01*
X112344033Y-83515033D01*
X112480651Y-83350768D01*
X112585046Y-83164357D01*
X112653722Y-82962043D01*
X112662590Y-82900879D01*
X112692160Y-82836335D01*
X112751931Y-82798022D01*
X112822928Y-82798106D01*
X112882608Y-82836561D01*
X112909409Y-82887945D01*
X112928228Y-82962043D01*
X112957985Y-83079213D01*
X113047433Y-83273240D01*
X113170741Y-83447718D01*
X113323781Y-83596802D01*
X113501427Y-83715501D01*
X113506730Y-83717779D01*
X113506733Y-83717781D01*
X113692422Y-83797559D01*
X113697729Y-83799839D01*
X113799493Y-83822866D01*
X113900477Y-83845717D01*
X113900480Y-83845717D01*
X113906113Y-83846992D01*
X113911884Y-83847219D01*
X113911886Y-83847219D01*
X113976863Y-83849772D01*
X114119601Y-83855380D01*
X114243654Y-83837393D01*
X114325329Y-83825551D01*
X114325334Y-83825550D01*
X114331043Y-83824722D01*
X114336507Y-83822867D01*
X114336512Y-83822866D01*
X114527889Y-83757902D01*
X114533357Y-83756046D01*
X114719768Y-83651651D01*
X114884033Y-83515033D01*
X115020651Y-83350768D01*
X115125046Y-83164357D01*
X115193722Y-82962043D01*
X115202591Y-82900880D01*
X115223847Y-82754275D01*
X115224380Y-82750601D01*
X115225980Y-82689500D01*
X115206430Y-82476744D01*
X115199592Y-82452496D01*
X115150004Y-82276672D01*
X115150003Y-82276670D01*
X115148436Y-82271113D01*
X115137162Y-82248250D01*
X115056495Y-82084674D01*
X115053940Y-82079493D01*
X115034639Y-82053645D01*
X114929560Y-81912927D01*
X114929559Y-81912926D01*
X114926107Y-81908303D01*
X114921871Y-81904387D01*
X114773457Y-81767195D01*
X114773454Y-81767193D01*
X114769217Y-81763276D01*
X114588525Y-81649268D01*
X114390082Y-81570097D01*
X114384425Y-81568972D01*
X114384419Y-81568970D01*
X114186203Y-81529543D01*
X114186199Y-81529543D01*
X114180535Y-81528416D01*
X114174760Y-81528340D01*
X114174756Y-81528340D01*
X114067497Y-81526936D01*
X113966901Y-81525619D01*
X113961204Y-81526598D01*
X113961203Y-81526598D01*
X113762031Y-81560822D01*
X113756334Y-81561801D01*
X113555887Y-81635750D01*
X113550926Y-81638702D01*
X113550925Y-81638702D01*
X113377240Y-81742033D01*
X113377237Y-81742035D01*
X113372272Y-81744989D01*
X113367932Y-81748795D01*
X113367928Y-81748798D01*
X113215981Y-81882053D01*
X113211640Y-81885860D01*
X113079369Y-82053645D01*
X113076680Y-82058756D01*
X113076678Y-82058759D01*
X113063044Y-82084674D01*
X112979889Y-82242725D01*
X112978175Y-82248246D01*
X112978173Y-82248250D01*
X112972683Y-82265933D01*
X112916532Y-82446767D01*
X112915854Y-82452496D01*
X112915854Y-82452497D01*
X112914323Y-82465430D01*
X112886452Y-82530728D01*
X112827704Y-82570592D01*
X112756729Y-82572365D01*
X112696063Y-82535486D01*
X112666823Y-82476633D01*
X112666430Y-82476744D01*
X112659592Y-82452496D01*
X112610004Y-82276672D01*
X112610003Y-82276670D01*
X112608436Y-82271113D01*
X112597162Y-82248250D01*
X112516495Y-82084674D01*
X112513940Y-82079493D01*
X112494639Y-82053645D01*
X112389560Y-81912927D01*
X112389559Y-81912926D01*
X112386107Y-81908303D01*
X112381871Y-81904387D01*
X112233457Y-81767195D01*
X112233454Y-81767193D01*
X112229217Y-81763276D01*
X112048525Y-81649268D01*
X111850082Y-81570097D01*
X111844425Y-81568972D01*
X111844419Y-81568970D01*
X111646203Y-81529543D01*
X111646199Y-81529543D01*
X111640535Y-81528416D01*
X111634760Y-81528340D01*
X111634756Y-81528340D01*
X111527497Y-81526936D01*
X111426901Y-81525619D01*
X111421204Y-81526598D01*
X111421203Y-81526598D01*
X111222031Y-81560822D01*
X111216334Y-81561801D01*
X111015887Y-81635750D01*
X111010926Y-81638702D01*
X111010925Y-81638702D01*
X110837240Y-81742033D01*
X110837237Y-81742035D01*
X110832272Y-81744989D01*
X110827932Y-81748795D01*
X110827928Y-81748798D01*
X110675981Y-81882053D01*
X110671640Y-81885860D01*
X110539369Y-82053645D01*
X110536680Y-82058756D01*
X110536678Y-82058759D01*
X110523044Y-82084674D01*
X110439889Y-82242725D01*
X110438175Y-82248246D01*
X110438173Y-82248250D01*
X110432683Y-82265933D01*
X110376532Y-82446767D01*
X110375854Y-82452496D01*
X110375854Y-82452497D01*
X110374323Y-82465430D01*
X110346452Y-82530728D01*
X110287704Y-82570592D01*
X110216729Y-82572365D01*
X110156063Y-82535486D01*
X110126823Y-82476633D01*
X110126430Y-82476744D01*
X110119592Y-82452496D01*
X110070004Y-82276672D01*
X110070003Y-82276670D01*
X110068436Y-82271113D01*
X110057162Y-82248250D01*
X109976495Y-82084674D01*
X109973940Y-82079493D01*
X109954639Y-82053645D01*
X109849560Y-81912927D01*
X109849559Y-81912926D01*
X109846107Y-81908303D01*
X109841871Y-81904387D01*
X109693457Y-81767195D01*
X109693454Y-81767193D01*
X109689217Y-81763276D01*
X109508525Y-81649268D01*
X109310082Y-81570097D01*
X109304425Y-81568972D01*
X109304419Y-81568970D01*
X109106203Y-81529543D01*
X109106199Y-81529543D01*
X109100535Y-81528416D01*
X109094760Y-81528340D01*
X109094756Y-81528340D01*
X108987497Y-81526936D01*
X108886901Y-81525619D01*
X108881204Y-81526598D01*
X108881203Y-81526598D01*
X108682031Y-81560822D01*
X108676334Y-81561801D01*
X108475887Y-81635750D01*
X108470926Y-81638702D01*
X108470925Y-81638702D01*
X108297240Y-81742033D01*
X108297237Y-81742035D01*
X108292272Y-81744989D01*
X108287932Y-81748795D01*
X108287928Y-81748798D01*
X108135981Y-81882053D01*
X108131640Y-81885860D01*
X107999369Y-82053645D01*
X107996680Y-82058756D01*
X107996678Y-82058759D01*
X107983044Y-82084674D01*
X107899889Y-82242725D01*
X107898175Y-82248246D01*
X107898173Y-82248250D01*
X107892683Y-82265933D01*
X107836532Y-82446767D01*
X107835854Y-82452496D01*
X107835854Y-82452497D01*
X107834323Y-82465430D01*
X107806452Y-82530728D01*
X107747704Y-82570592D01*
X107676729Y-82572365D01*
X107616063Y-82535486D01*
X107586823Y-82476633D01*
X107586430Y-82476744D01*
X107579592Y-82452496D01*
X107530004Y-82276672D01*
X107530003Y-82276670D01*
X107528436Y-82271113D01*
X107517162Y-82248250D01*
X107436495Y-82084674D01*
X107433940Y-82079493D01*
X107414639Y-82053645D01*
X107309560Y-81912927D01*
X107309559Y-81912926D01*
X107306107Y-81908303D01*
X107301871Y-81904387D01*
X107153457Y-81767195D01*
X107153454Y-81767193D01*
X107149217Y-81763276D01*
X106968525Y-81649268D01*
X106770082Y-81570097D01*
X106764425Y-81568972D01*
X106764419Y-81568970D01*
X106566203Y-81529543D01*
X106566199Y-81529543D01*
X106560535Y-81528416D01*
X106554760Y-81528340D01*
X106554756Y-81528340D01*
X106447497Y-81526936D01*
X106346901Y-81525619D01*
X106341204Y-81526598D01*
X106341203Y-81526598D01*
X106142031Y-81560822D01*
X106136334Y-81561801D01*
X105935887Y-81635750D01*
X105930926Y-81638702D01*
X105930925Y-81638702D01*
X105757240Y-81742033D01*
X105757237Y-81742035D01*
X105752272Y-81744989D01*
X105747932Y-81748795D01*
X105747928Y-81748798D01*
X105595981Y-81882053D01*
X105591640Y-81885860D01*
X105459369Y-82053645D01*
X105456680Y-82058756D01*
X105456678Y-82058759D01*
X105443044Y-82084674D01*
X105359889Y-82242725D01*
X105358175Y-82248246D01*
X105358173Y-82248250D01*
X105352683Y-82265933D01*
X105296532Y-82446767D01*
X105295854Y-82452496D01*
X105295854Y-82452497D01*
X105294323Y-82465430D01*
X105266452Y-82530728D01*
X105207704Y-82570592D01*
X105136729Y-82572365D01*
X105076063Y-82535486D01*
X105046823Y-82476633D01*
X105046430Y-82476744D01*
X105039592Y-82452496D01*
X104990004Y-82276672D01*
X104990003Y-82276670D01*
X104988436Y-82271113D01*
X104977162Y-82248250D01*
X104896495Y-82084674D01*
X104893940Y-82079493D01*
X104874639Y-82053645D01*
X104769560Y-81912927D01*
X104769559Y-81912926D01*
X104766107Y-81908303D01*
X104761871Y-81904387D01*
X104613457Y-81767195D01*
X104613454Y-81767193D01*
X104609217Y-81763276D01*
X104428525Y-81649268D01*
X104230082Y-81570097D01*
X104224425Y-81568972D01*
X104224419Y-81568970D01*
X104026203Y-81529543D01*
X104026199Y-81529543D01*
X104020535Y-81528416D01*
X104014760Y-81528340D01*
X104014756Y-81528340D01*
X103907497Y-81526936D01*
X103806901Y-81525619D01*
X103801204Y-81526598D01*
X103801203Y-81526598D01*
X103602031Y-81560822D01*
X103596334Y-81561801D01*
X103395887Y-81635750D01*
X103390926Y-81638702D01*
X103390925Y-81638702D01*
X103217240Y-81742033D01*
X103217237Y-81742035D01*
X103212272Y-81744989D01*
X103207932Y-81748795D01*
X103207928Y-81748798D01*
X103055981Y-81882053D01*
X103051640Y-81885860D01*
X102919369Y-82053645D01*
X102916680Y-82058756D01*
X102916678Y-82058759D01*
X102903044Y-82084674D01*
X102819889Y-82242725D01*
X102818175Y-82248246D01*
X102818173Y-82248250D01*
X102812683Y-82265933D01*
X102756532Y-82446767D01*
X102755854Y-82452496D01*
X102755854Y-82452497D01*
X102754323Y-82465430D01*
X102726452Y-82530728D01*
X102667704Y-82570592D01*
X102596729Y-82572365D01*
X102536063Y-82535486D01*
X102506823Y-82476633D01*
X102506430Y-82476744D01*
X102499592Y-82452496D01*
X102450004Y-82276672D01*
X102450003Y-82276670D01*
X102448436Y-82271113D01*
X102437162Y-82248250D01*
X102356495Y-82084674D01*
X102353940Y-82079493D01*
X102334639Y-82053645D01*
X102229560Y-81912927D01*
X102229559Y-81912926D01*
X102226107Y-81908303D01*
X102221871Y-81904387D01*
X102073457Y-81767195D01*
X102073454Y-81767193D01*
X102069217Y-81763276D01*
X101888525Y-81649268D01*
X101690082Y-81570097D01*
X101684425Y-81568972D01*
X101684419Y-81568970D01*
X101486203Y-81529543D01*
X101486199Y-81529543D01*
X101480535Y-81528416D01*
X101474760Y-81528340D01*
X101474756Y-81528340D01*
X101367497Y-81526936D01*
X101266901Y-81525619D01*
X101261204Y-81526598D01*
X101261203Y-81526598D01*
X101062031Y-81560822D01*
X101056334Y-81561801D01*
X100855887Y-81635750D01*
X100850926Y-81638702D01*
X100850925Y-81638702D01*
X100677240Y-81742033D01*
X100677237Y-81742035D01*
X100672272Y-81744989D01*
X100667932Y-81748795D01*
X100667928Y-81748798D01*
X100515981Y-81882053D01*
X100511640Y-81885860D01*
X100379369Y-82053645D01*
X100376680Y-82058756D01*
X100376678Y-82058759D01*
X100363044Y-82084674D01*
X100279889Y-82242725D01*
X100278175Y-82248246D01*
X100278173Y-82248250D01*
X100272683Y-82265933D01*
X100216532Y-82446767D01*
X100215854Y-82452496D01*
X100215854Y-82452497D01*
X100214323Y-82465430D01*
X100186452Y-82530728D01*
X100127704Y-82570592D01*
X100056729Y-82572365D01*
X99996063Y-82535486D01*
X99966823Y-82476633D01*
X99966430Y-82476744D01*
X99959592Y-82452496D01*
X99910004Y-82276672D01*
X99910003Y-82276670D01*
X99908436Y-82271113D01*
X99897162Y-82248250D01*
X99816495Y-82084674D01*
X99813940Y-82079493D01*
X99794639Y-82053645D01*
X99689560Y-81912927D01*
X99689559Y-81912926D01*
X99686107Y-81908303D01*
X99681871Y-81904387D01*
X99533457Y-81767195D01*
X99533454Y-81767193D01*
X99529217Y-81763276D01*
X99348525Y-81649268D01*
X99150082Y-81570097D01*
X99144425Y-81568972D01*
X99144419Y-81568970D01*
X98946203Y-81529543D01*
X98946199Y-81529543D01*
X98940535Y-81528416D01*
X98934760Y-81528340D01*
X98934756Y-81528340D01*
X98827497Y-81526936D01*
X98726901Y-81525619D01*
X98721204Y-81526598D01*
X98721203Y-81526598D01*
X98522031Y-81560822D01*
X98516334Y-81561801D01*
X98315887Y-81635750D01*
X98310926Y-81638702D01*
X98310925Y-81638702D01*
X98137240Y-81742033D01*
X98137237Y-81742035D01*
X98132272Y-81744989D01*
X98127932Y-81748795D01*
X98127928Y-81748798D01*
X97975981Y-81882053D01*
X97971640Y-81885860D01*
X97839369Y-82053645D01*
X97836680Y-82058756D01*
X97836678Y-82058759D01*
X97823044Y-82084674D01*
X97739889Y-82242725D01*
X97738175Y-82248246D01*
X97738173Y-82248250D01*
X97732683Y-82265933D01*
X97676532Y-82446767D01*
X97675854Y-82452496D01*
X97675854Y-82452497D01*
X97674323Y-82465430D01*
X97646452Y-82530728D01*
X97587704Y-82570592D01*
X97516729Y-82572365D01*
X97456063Y-82535486D01*
X97426823Y-82476633D01*
X97426430Y-82476744D01*
X97419592Y-82452496D01*
X97370004Y-82276672D01*
X97370003Y-82276670D01*
X97368436Y-82271113D01*
X97357162Y-82248250D01*
X97276495Y-82084674D01*
X97273940Y-82079493D01*
X97254639Y-82053645D01*
X97149560Y-81912927D01*
X97149559Y-81912926D01*
X97146107Y-81908303D01*
X97141871Y-81904387D01*
X96993457Y-81767195D01*
X96993454Y-81767193D01*
X96989217Y-81763276D01*
X96808525Y-81649268D01*
X96610082Y-81570097D01*
X96604425Y-81568972D01*
X96604419Y-81568970D01*
X96406203Y-81529543D01*
X96406199Y-81529543D01*
X96400535Y-81528416D01*
X96394760Y-81528340D01*
X96394756Y-81528340D01*
X96287497Y-81526936D01*
X96186901Y-81525619D01*
X96181204Y-81526598D01*
X96181203Y-81526598D01*
X95982031Y-81560822D01*
X95976334Y-81561801D01*
X95775887Y-81635750D01*
X95770926Y-81638702D01*
X95770925Y-81638702D01*
X95597240Y-81742033D01*
X95597237Y-81742035D01*
X95592272Y-81744989D01*
X95587932Y-81748795D01*
X95587928Y-81748798D01*
X95435981Y-81882053D01*
X95431640Y-81885860D01*
X95299369Y-82053645D01*
X95296680Y-82058756D01*
X95296678Y-82058759D01*
X95283044Y-82084674D01*
X95199889Y-82242725D01*
X95198175Y-82248246D01*
X95198173Y-82248250D01*
X95192683Y-82265933D01*
X95136532Y-82446767D01*
X95135854Y-82452496D01*
X95135854Y-82452497D01*
X95134323Y-82465430D01*
X95106452Y-82530728D01*
X95047704Y-82570592D01*
X94976729Y-82572365D01*
X94916063Y-82535486D01*
X94886823Y-82476633D01*
X94886430Y-82476744D01*
X94879592Y-82452496D01*
X94830004Y-82276672D01*
X94830003Y-82276670D01*
X94828436Y-82271113D01*
X94817162Y-82248250D01*
X94736495Y-82084674D01*
X94733940Y-82079493D01*
X94714639Y-82053645D01*
X94609560Y-81912927D01*
X94609559Y-81912926D01*
X94606107Y-81908303D01*
X94601871Y-81904387D01*
X94453457Y-81767195D01*
X94453454Y-81767193D01*
X94449217Y-81763276D01*
X94268525Y-81649268D01*
X94070082Y-81570097D01*
X94064425Y-81568972D01*
X94064419Y-81568970D01*
X93866203Y-81529543D01*
X93866199Y-81529543D01*
X93860535Y-81528416D01*
X93854760Y-81528340D01*
X93854756Y-81528340D01*
X93747497Y-81526936D01*
X93646901Y-81525619D01*
X93641204Y-81526598D01*
X93641203Y-81526598D01*
X93442031Y-81560822D01*
X93436334Y-81561801D01*
X93235887Y-81635750D01*
X93230926Y-81638702D01*
X93230925Y-81638702D01*
X93057240Y-81742033D01*
X93057237Y-81742035D01*
X93052272Y-81744989D01*
X93047932Y-81748795D01*
X93047928Y-81748798D01*
X92895981Y-81882053D01*
X92891640Y-81885860D01*
X92759369Y-82053645D01*
X92756680Y-82058756D01*
X92756678Y-82058759D01*
X92743044Y-82084674D01*
X92659889Y-82242725D01*
X92658175Y-82248246D01*
X92658173Y-82248250D01*
X92652683Y-82265933D01*
X92596532Y-82446767D01*
X92595854Y-82452496D01*
X92595854Y-82452497D01*
X92594323Y-82465430D01*
X92566452Y-82530728D01*
X92507704Y-82570592D01*
X92436729Y-82572365D01*
X92376063Y-82535486D01*
X92346823Y-82476633D01*
X92346430Y-82476744D01*
X92339592Y-82452496D01*
X92290004Y-82276672D01*
X92290003Y-82276670D01*
X92288436Y-82271113D01*
X92277162Y-82248250D01*
X92196495Y-82084674D01*
X92193940Y-82079493D01*
X92174639Y-82053645D01*
X92069560Y-81912927D01*
X92069559Y-81912926D01*
X92066107Y-81908303D01*
X92061871Y-81904387D01*
X91913457Y-81767195D01*
X91913454Y-81767193D01*
X91909217Y-81763276D01*
X91728525Y-81649268D01*
X91530082Y-81570097D01*
X91524425Y-81568972D01*
X91524419Y-81568970D01*
X91326203Y-81529543D01*
X91326199Y-81529543D01*
X91320535Y-81528416D01*
X91314760Y-81528340D01*
X91314756Y-81528340D01*
X91207497Y-81526936D01*
X91106901Y-81525619D01*
X91101204Y-81526598D01*
X91101203Y-81526598D01*
X90902031Y-81560822D01*
X90896334Y-81561801D01*
X90695887Y-81635750D01*
X90690926Y-81638702D01*
X90690925Y-81638702D01*
X90517240Y-81742033D01*
X90517237Y-81742035D01*
X90512272Y-81744989D01*
X90507932Y-81748795D01*
X90507928Y-81748798D01*
X90355981Y-81882053D01*
X90351640Y-81885860D01*
X90219369Y-82053645D01*
X90216680Y-82058756D01*
X90216678Y-82058759D01*
X90203044Y-82084674D01*
X90119889Y-82242725D01*
X90118175Y-82248246D01*
X90118173Y-82248250D01*
X90112683Y-82265933D01*
X90056532Y-82446767D01*
X90055854Y-82452496D01*
X90055854Y-82452497D01*
X90054323Y-82465430D01*
X90026452Y-82530728D01*
X89967704Y-82570592D01*
X89896729Y-82572365D01*
X89836063Y-82535486D01*
X89806823Y-82476633D01*
X89806430Y-82476744D01*
X89799592Y-82452496D01*
X89750004Y-82276672D01*
X89750003Y-82276670D01*
X89748436Y-82271113D01*
X89737162Y-82248250D01*
X89656495Y-82084674D01*
X89653940Y-82079493D01*
X89634639Y-82053645D01*
X89529560Y-81912927D01*
X89529559Y-81912926D01*
X89526107Y-81908303D01*
X89521871Y-81904387D01*
X89373457Y-81767195D01*
X89373454Y-81767193D01*
X89369217Y-81763276D01*
X89188525Y-81649268D01*
X88990082Y-81570097D01*
X88984425Y-81568972D01*
X88984419Y-81568970D01*
X88786203Y-81529543D01*
X88786199Y-81529543D01*
X88780535Y-81528416D01*
X88774760Y-81528340D01*
X88774756Y-81528340D01*
X88667497Y-81526936D01*
X88566901Y-81525619D01*
X88561204Y-81526598D01*
X88561203Y-81526598D01*
X88362031Y-81560822D01*
X88356334Y-81561801D01*
X88155887Y-81635750D01*
X88150926Y-81638702D01*
X88150925Y-81638702D01*
X87977240Y-81742033D01*
X87977237Y-81742035D01*
X87972272Y-81744989D01*
X87967932Y-81748795D01*
X87967928Y-81748798D01*
X87815981Y-81882053D01*
X87811640Y-81885860D01*
X87679369Y-82053645D01*
X87676680Y-82058756D01*
X87676678Y-82058759D01*
X87663044Y-82084674D01*
X87579889Y-82242725D01*
X87578175Y-82248246D01*
X87578173Y-82248250D01*
X87572683Y-82265933D01*
X87516532Y-82446767D01*
X87515854Y-82452496D01*
X87515854Y-82452497D01*
X87514323Y-82465430D01*
X87486452Y-82530728D01*
X87427704Y-82570592D01*
X87356729Y-82572365D01*
X87296063Y-82535486D01*
X87266823Y-82476633D01*
X87266430Y-82476744D01*
X87259592Y-82452496D01*
X87210004Y-82276672D01*
X87210003Y-82276670D01*
X87208436Y-82271113D01*
X87197162Y-82248250D01*
X87116495Y-82084674D01*
X87113940Y-82079493D01*
X87094639Y-82053645D01*
X86989560Y-81912927D01*
X86989559Y-81912926D01*
X86986107Y-81908303D01*
X86981871Y-81904387D01*
X86833457Y-81767195D01*
X86833454Y-81767193D01*
X86829217Y-81763276D01*
X86812767Y-81752897D01*
X86765827Y-81699631D01*
X86754000Y-81646334D01*
X86754000Y-74724922D01*
X86774002Y-74656801D01*
X86790905Y-74635827D01*
X93190328Y-68236405D01*
X93252640Y-68202379D01*
X93279423Y-68199500D01*
X110037601Y-68199500D01*
X110105722Y-68219502D01*
X110122908Y-68234109D01*
X110123420Y-68233540D01*
X110128332Y-68237963D01*
X110132747Y-68242866D01*
X110145090Y-68251834D01*
X110262515Y-68337148D01*
X110287248Y-68355118D01*
X110293276Y-68357802D01*
X110293278Y-68357803D01*
X110440242Y-68423235D01*
X110461712Y-68432794D01*
X110555112Y-68452647D01*
X110642056Y-68471128D01*
X110642061Y-68471128D01*
X110648513Y-68472500D01*
X110839487Y-68472500D01*
X110845939Y-68471128D01*
X110845944Y-68471128D01*
X110932888Y-68452647D01*
X111026288Y-68432794D01*
X111047758Y-68423235D01*
X111194722Y-68357803D01*
X111194724Y-68357802D01*
X111200752Y-68355118D01*
X111225486Y-68337148D01*
X111295482Y-68286292D01*
X111355253Y-68242866D01*
X111363650Y-68233540D01*
X111478621Y-68105852D01*
X111478622Y-68105851D01*
X111483040Y-68100944D01*
X111578527Y-67935556D01*
X111637542Y-67753928D01*
X111639562Y-67734715D01*
X111656814Y-67570565D01*
X111657504Y-67564000D01*
X111642941Y-67425436D01*
X111638232Y-67380635D01*
X111638232Y-67380633D01*
X111637542Y-67374072D01*
X111578527Y-67192444D01*
X111483040Y-67027056D01*
X111477856Y-67021298D01*
X111359675Y-66890045D01*
X111359674Y-66890044D01*
X111355253Y-66885134D01*
X111200752Y-66772882D01*
X111194724Y-66770198D01*
X111194722Y-66770197D01*
X111032319Y-66697891D01*
X111032318Y-66697891D01*
X111026288Y-66695206D01*
X110932887Y-66675353D01*
X110845944Y-66656872D01*
X110845939Y-66656872D01*
X110839487Y-66655500D01*
X110648513Y-66655500D01*
X110642061Y-66656872D01*
X110642056Y-66656872D01*
X110555113Y-66675353D01*
X110461712Y-66695206D01*
X110455682Y-66697891D01*
X110455681Y-66697891D01*
X110293278Y-66770197D01*
X110293276Y-66770198D01*
X110287248Y-66772882D01*
X110132747Y-66885134D01*
X110128332Y-66890037D01*
X110123420Y-66894460D01*
X110121779Y-66892638D01*
X110070790Y-66924050D01*
X110037601Y-66928500D01*
X93043032Y-66928500D01*
X93031793Y-66927970D01*
X93024281Y-66926291D01*
X93016356Y-66926540D01*
X93016355Y-66926540D01*
X92955970Y-66928438D01*
X92952012Y-66928500D01*
X92924017Y-66928500D01*
X92920083Y-66928997D01*
X92920081Y-66928997D01*
X92919994Y-66929008D01*
X92908160Y-66929940D01*
X92863795Y-66931335D01*
X92856182Y-66933547D01*
X92856181Y-66933547D01*
X92844252Y-66937013D01*
X92824888Y-66941023D01*
X92812560Y-66942580D01*
X92812558Y-66942580D01*
X92804701Y-66943573D01*
X92797337Y-66946489D01*
X92797332Y-66946490D01*
X92763444Y-66959907D01*
X92752215Y-66963752D01*
X92742740Y-66966505D01*
X92709607Y-66976131D01*
X92702780Y-66980169D01*
X92702777Y-66980170D01*
X92692094Y-66986488D01*
X92674336Y-66995188D01*
X92662785Y-66999761D01*
X92662779Y-66999765D01*
X92655412Y-67002681D01*
X92619628Y-67028680D01*
X92619512Y-67028764D01*
X92609590Y-67035281D01*
X92578232Y-67053826D01*
X92578228Y-67053829D01*
X92571402Y-67057866D01*
X92557018Y-67072250D01*
X92541984Y-67085091D01*
X92525513Y-67097058D01*
X92520460Y-67103166D01*
X92497223Y-67131255D01*
X92489233Y-67140035D01*
X85725017Y-73904250D01*
X85716691Y-73911826D01*
X85710197Y-73915947D01*
X85704774Y-73921722D01*
X85663415Y-73965765D01*
X85660660Y-73968607D01*
X85640861Y-73988406D01*
X85638437Y-73991531D01*
X85638429Y-73991540D01*
X85638363Y-73991626D01*
X85630655Y-74000651D01*
X85600283Y-74032994D01*
X85596465Y-74039938D01*
X85596464Y-74039940D01*
X85590478Y-74050829D01*
X85579627Y-74067347D01*
X85567150Y-74083433D01*
X85549524Y-74124166D01*
X85544307Y-74134814D01*
X85522931Y-74173697D01*
X85520960Y-74181372D01*
X85520958Y-74181378D01*
X85517869Y-74193411D01*
X85511466Y-74212113D01*
X85503383Y-74230792D01*
X85502144Y-74238617D01*
X85496440Y-74274627D01*
X85494035Y-74286240D01*
X85483000Y-74329218D01*
X85483000Y-74349565D01*
X85481449Y-74369276D01*
X85478265Y-74389379D01*
X85479011Y-74397271D01*
X85482441Y-74433556D01*
X85483000Y-74445414D01*
X85483000Y-81644586D01*
X85462998Y-81712707D01*
X85432812Y-81744668D01*
X85432272Y-81744989D01*
X85427928Y-81748798D01*
X85427926Y-81748800D01*
X85406951Y-81767195D01*
X85271640Y-81885860D01*
X85139369Y-82053645D01*
X85136680Y-82058756D01*
X85136678Y-82058759D01*
X85123044Y-82084674D01*
X85039889Y-82242725D01*
X85038175Y-82248246D01*
X85038173Y-82248250D01*
X85032683Y-82265933D01*
X84976532Y-82446767D01*
X84975854Y-82452496D01*
X84975854Y-82452497D01*
X84974323Y-82465430D01*
X84946452Y-82530728D01*
X84887704Y-82570592D01*
X84816729Y-82572365D01*
X84756063Y-82535486D01*
X84726823Y-82476633D01*
X84726430Y-82476744D01*
X84719592Y-82452496D01*
X84670004Y-82276672D01*
X84670003Y-82276670D01*
X84668436Y-82271113D01*
X84657162Y-82248250D01*
X84576495Y-82084674D01*
X84573940Y-82079493D01*
X84554639Y-82053645D01*
X84449560Y-81912927D01*
X84449559Y-81912926D01*
X84446107Y-81908303D01*
X84441871Y-81904387D01*
X84293457Y-81767195D01*
X84293454Y-81767193D01*
X84289217Y-81763276D01*
X84108525Y-81649268D01*
X83910082Y-81570097D01*
X83904425Y-81568972D01*
X83904419Y-81568970D01*
X83706203Y-81529543D01*
X83706199Y-81529543D01*
X83700535Y-81528416D01*
X83694760Y-81528340D01*
X83694756Y-81528340D01*
X83587497Y-81526936D01*
X83486901Y-81525619D01*
X83481204Y-81526598D01*
X83481203Y-81526598D01*
X83282031Y-81560822D01*
X83276334Y-81561801D01*
X83075887Y-81635750D01*
X83070926Y-81638702D01*
X83070925Y-81638702D01*
X82897240Y-81742033D01*
X82897237Y-81742035D01*
X82892272Y-81744989D01*
X82887932Y-81748795D01*
X82887928Y-81748798D01*
X82735981Y-81882053D01*
X82731640Y-81885860D01*
X82599369Y-82053645D01*
X82596680Y-82058756D01*
X82596678Y-82058759D01*
X82583044Y-82084674D01*
X82499889Y-82242725D01*
X82498175Y-82248246D01*
X82498173Y-82248250D01*
X82492683Y-82265933D01*
X82436532Y-82446767D01*
X82435854Y-82452496D01*
X82435854Y-82452497D01*
X82434323Y-82465430D01*
X82406452Y-82530728D01*
X82347704Y-82570592D01*
X82276729Y-82572365D01*
X82216063Y-82535486D01*
X82186823Y-82476633D01*
X82186430Y-82476744D01*
X82179592Y-82452496D01*
X82130004Y-82276672D01*
X82130003Y-82276670D01*
X82128436Y-82271113D01*
X82117162Y-82248250D01*
X82036495Y-82084674D01*
X82033940Y-82079493D01*
X82014639Y-82053645D01*
X81909560Y-81912927D01*
X81909559Y-81912926D01*
X81906107Y-81908303D01*
X81901871Y-81904387D01*
X81753457Y-81767195D01*
X81753454Y-81767193D01*
X81749217Y-81763276D01*
X81568525Y-81649268D01*
X81370082Y-81570097D01*
X81364425Y-81568972D01*
X81364419Y-81568970D01*
X81166203Y-81529543D01*
X81166199Y-81529543D01*
X81160535Y-81528416D01*
X81154760Y-81528340D01*
X81154756Y-81528340D01*
X81047497Y-81526936D01*
X80946901Y-81525619D01*
X80941204Y-81526598D01*
X80941203Y-81526598D01*
X80742031Y-81560822D01*
X80736334Y-81561801D01*
X80535887Y-81635750D01*
X80530926Y-81638702D01*
X80530925Y-81638702D01*
X80357240Y-81742033D01*
X80357237Y-81742035D01*
X80352272Y-81744989D01*
X80347932Y-81748795D01*
X80347928Y-81748798D01*
X80195981Y-81882053D01*
X80191640Y-81885860D01*
X80059369Y-82053645D01*
X80056680Y-82058756D01*
X80056678Y-82058759D01*
X80043044Y-82084674D01*
X79959889Y-82242725D01*
X79958175Y-82248246D01*
X79958173Y-82248250D01*
X79952683Y-82265933D01*
X79896532Y-82446767D01*
X79895854Y-82452496D01*
X79895854Y-82452497D01*
X79894323Y-82465430D01*
X79866452Y-82530728D01*
X79807704Y-82570592D01*
X79736729Y-82572365D01*
X79676063Y-82535486D01*
X79646823Y-82476633D01*
X79646430Y-82476744D01*
X79639592Y-82452496D01*
X79590004Y-82276672D01*
X79590003Y-82276670D01*
X79588436Y-82271113D01*
X79577162Y-82248250D01*
X79496495Y-82084674D01*
X79493940Y-82079493D01*
X79474639Y-82053645D01*
X79369560Y-81912927D01*
X79369559Y-81912926D01*
X79366107Y-81908303D01*
X79361871Y-81904387D01*
X79213457Y-81767195D01*
X79213454Y-81767193D01*
X79209217Y-81763276D01*
X79028525Y-81649268D01*
X78830082Y-81570097D01*
X78824425Y-81568972D01*
X78824419Y-81568970D01*
X78626203Y-81529543D01*
X78626199Y-81529543D01*
X78620535Y-81528416D01*
X78614760Y-81528340D01*
X78614756Y-81528340D01*
X78507497Y-81526936D01*
X78406901Y-81525619D01*
X78401204Y-81526598D01*
X78401203Y-81526598D01*
X78202031Y-81560822D01*
X78196334Y-81561801D01*
X77995887Y-81635750D01*
X77990926Y-81638702D01*
X77990925Y-81638702D01*
X77817240Y-81742033D01*
X77817237Y-81742035D01*
X77812272Y-81744989D01*
X77807932Y-81748795D01*
X77807928Y-81748798D01*
X77655981Y-81882053D01*
X77651640Y-81885860D01*
X77519369Y-82053645D01*
X77516680Y-82058756D01*
X77516678Y-82058759D01*
X77503044Y-82084674D01*
X77419889Y-82242725D01*
X77418175Y-82248246D01*
X77418173Y-82248250D01*
X77412683Y-82265933D01*
X77356532Y-82446767D01*
X77355854Y-82452496D01*
X77355854Y-82452497D01*
X77354323Y-82465430D01*
X77326452Y-82530728D01*
X77267704Y-82570592D01*
X77196729Y-82572365D01*
X77136063Y-82535486D01*
X77106823Y-82476633D01*
X77106430Y-82476744D01*
X77099592Y-82452496D01*
X77050004Y-82276672D01*
X77050003Y-82276670D01*
X77048436Y-82271113D01*
X77037162Y-82248250D01*
X76956495Y-82084674D01*
X76953940Y-82079493D01*
X76934639Y-82053645D01*
X76829560Y-81912927D01*
X76829559Y-81912926D01*
X76826107Y-81908303D01*
X76821871Y-81904387D01*
X76673457Y-81767195D01*
X76673454Y-81767193D01*
X76669217Y-81763276D01*
X76488525Y-81649268D01*
X76290082Y-81570097D01*
X76284425Y-81568972D01*
X76284419Y-81568970D01*
X76086203Y-81529543D01*
X76086199Y-81529543D01*
X76080535Y-81528416D01*
X76074760Y-81528340D01*
X76074756Y-81528340D01*
X75967497Y-81526936D01*
X75866901Y-81525619D01*
X75861204Y-81526598D01*
X75861203Y-81526598D01*
X75662031Y-81560822D01*
X75656334Y-81561801D01*
X75455887Y-81635750D01*
X75450926Y-81638702D01*
X75450925Y-81638702D01*
X75277240Y-81742033D01*
X75277237Y-81742035D01*
X75272272Y-81744989D01*
X75267932Y-81748795D01*
X75267928Y-81748798D01*
X75115981Y-81882053D01*
X75111640Y-81885860D01*
X74979369Y-82053645D01*
X74976680Y-82058756D01*
X74976678Y-82058759D01*
X74963044Y-82084674D01*
X74879889Y-82242725D01*
X74878175Y-82248246D01*
X74878173Y-82248250D01*
X74872683Y-82265933D01*
X74816532Y-82446767D01*
X74815854Y-82452496D01*
X74815854Y-82452497D01*
X74814323Y-82465430D01*
X74786452Y-82530728D01*
X74727704Y-82570592D01*
X74656729Y-82572365D01*
X74596063Y-82535486D01*
X74566823Y-82476633D01*
X74566430Y-82476744D01*
X74559592Y-82452496D01*
X74510004Y-82276672D01*
X74510003Y-82276670D01*
X74508436Y-82271113D01*
X74497162Y-82248250D01*
X74416495Y-82084674D01*
X74413940Y-82079493D01*
X74394639Y-82053645D01*
X74289560Y-81912927D01*
X74289559Y-81912926D01*
X74286107Y-81908303D01*
X74281871Y-81904387D01*
X74133457Y-81767195D01*
X74133454Y-81767193D01*
X74129217Y-81763276D01*
X73948525Y-81649268D01*
X73750082Y-81570097D01*
X73744425Y-81568972D01*
X73744419Y-81568970D01*
X73546203Y-81529543D01*
X73546199Y-81529543D01*
X73540535Y-81528416D01*
X73534760Y-81528340D01*
X73534756Y-81528340D01*
X73427497Y-81526936D01*
X73326901Y-81525619D01*
X73321204Y-81526598D01*
X73321203Y-81526598D01*
X73122031Y-81560822D01*
X73116334Y-81561801D01*
X72915887Y-81635750D01*
X72910926Y-81638702D01*
X72910925Y-81638702D01*
X72737240Y-81742033D01*
X72737237Y-81742035D01*
X72732272Y-81744989D01*
X72727932Y-81748795D01*
X72727928Y-81748798D01*
X72575981Y-81882053D01*
X72571640Y-81885860D01*
X72439369Y-82053645D01*
X72436680Y-82058756D01*
X72436678Y-82058759D01*
X72423044Y-82084674D01*
X72339889Y-82242725D01*
X72338175Y-82248246D01*
X72338173Y-82248250D01*
X72332683Y-82265933D01*
X72276532Y-82446767D01*
X72275854Y-82452496D01*
X72275854Y-82452497D01*
X72274323Y-82465430D01*
X72246452Y-82530728D01*
X72187704Y-82570592D01*
X72116729Y-82572365D01*
X72056063Y-82535486D01*
X72026823Y-82476633D01*
X72026430Y-82476744D01*
X72019592Y-82452496D01*
X71970004Y-82276672D01*
X71970003Y-82276670D01*
X71968436Y-82271113D01*
X71957162Y-82248250D01*
X71876495Y-82084674D01*
X71873940Y-82079493D01*
X71854639Y-82053645D01*
X71749560Y-81912927D01*
X71749559Y-81912926D01*
X71746107Y-81908303D01*
X71741871Y-81904387D01*
X71593457Y-81767195D01*
X71593454Y-81767193D01*
X71589217Y-81763276D01*
X71408525Y-81649268D01*
X71210082Y-81570097D01*
X71204425Y-81568972D01*
X71204419Y-81568970D01*
X71006203Y-81529543D01*
X71006199Y-81529543D01*
X71000535Y-81528416D01*
X70994760Y-81528340D01*
X70994756Y-81528340D01*
X70887497Y-81526936D01*
X70786901Y-81525619D01*
X70781204Y-81526598D01*
X70781203Y-81526598D01*
X70582031Y-81560822D01*
X70576334Y-81561801D01*
X70375887Y-81635750D01*
X70370926Y-81638702D01*
X70370925Y-81638702D01*
X70197240Y-81742033D01*
X70197237Y-81742035D01*
X70192272Y-81744989D01*
X70187932Y-81748795D01*
X70187928Y-81748798D01*
X70035981Y-81882053D01*
X70031640Y-81885860D01*
X69899369Y-82053645D01*
X69896680Y-82058756D01*
X69896678Y-82058759D01*
X69883044Y-82084674D01*
X69799889Y-82242725D01*
X69798175Y-82248246D01*
X69798173Y-82248250D01*
X69792683Y-82265933D01*
X69736532Y-82446767D01*
X69735854Y-82452496D01*
X69735854Y-82452497D01*
X69734323Y-82465430D01*
X69706452Y-82530728D01*
X69647704Y-82570592D01*
X69576729Y-82572365D01*
X69516063Y-82535486D01*
X69486823Y-82476633D01*
X69486430Y-82476744D01*
X69479592Y-82452496D01*
X69430004Y-82276672D01*
X69430003Y-82276670D01*
X69428436Y-82271113D01*
X69417162Y-82248250D01*
X69336495Y-82084674D01*
X69333940Y-82079493D01*
X69314639Y-82053645D01*
X69209560Y-81912927D01*
X69209559Y-81912926D01*
X69206107Y-81908303D01*
X69201871Y-81904387D01*
X69053457Y-81767195D01*
X69053454Y-81767193D01*
X69049217Y-81763276D01*
X68868525Y-81649268D01*
X68670082Y-81570097D01*
X68664425Y-81568972D01*
X68664419Y-81568970D01*
X68466203Y-81529543D01*
X68466199Y-81529543D01*
X68460535Y-81528416D01*
X68454760Y-81528340D01*
X68454756Y-81528340D01*
X68347497Y-81526936D01*
X68246901Y-81525619D01*
X68241204Y-81526598D01*
X68241203Y-81526598D01*
X68042031Y-81560822D01*
X68036334Y-81561801D01*
X67835887Y-81635750D01*
X67830926Y-81638702D01*
X67830925Y-81638702D01*
X67657240Y-81742033D01*
X67657237Y-81742035D01*
X67652272Y-81744989D01*
X67647932Y-81748795D01*
X67647928Y-81748798D01*
X67495981Y-81882053D01*
X67491640Y-81885860D01*
X67359369Y-82053645D01*
X67356680Y-82058756D01*
X67356678Y-82058759D01*
X67343044Y-82084674D01*
X67259889Y-82242725D01*
X67258175Y-82248246D01*
X67258173Y-82248250D01*
X67252683Y-82265933D01*
X67196532Y-82446767D01*
X67195854Y-82452496D01*
X67195854Y-82452497D01*
X67194323Y-82465430D01*
X67166452Y-82530728D01*
X67107704Y-82570592D01*
X67036729Y-82572365D01*
X66976063Y-82535486D01*
X66946823Y-82476633D01*
X66946430Y-82476744D01*
X66939592Y-82452496D01*
X66890004Y-82276672D01*
X66890003Y-82276670D01*
X66888436Y-82271113D01*
X66877162Y-82248250D01*
X66796495Y-82084674D01*
X66793940Y-82079493D01*
X66774639Y-82053645D01*
X66669560Y-81912927D01*
X66669559Y-81912926D01*
X66666107Y-81908303D01*
X66661871Y-81904387D01*
X66513457Y-81767195D01*
X66513454Y-81767193D01*
X66509217Y-81763276D01*
X66328525Y-81649268D01*
X66130082Y-81570097D01*
X66124425Y-81568972D01*
X66124419Y-81568970D01*
X65926203Y-81529543D01*
X65926199Y-81529543D01*
X65920535Y-81528416D01*
X65914760Y-81528340D01*
X65914756Y-81528340D01*
X65807497Y-81526936D01*
X65706901Y-81525619D01*
X65701204Y-81526598D01*
X65701203Y-81526598D01*
X65502031Y-81560822D01*
X65496334Y-81561801D01*
X65295887Y-81635750D01*
X65290926Y-81638702D01*
X65290925Y-81638702D01*
X65117240Y-81742033D01*
X65117237Y-81742035D01*
X65112272Y-81744989D01*
X65107932Y-81748795D01*
X65107928Y-81748798D01*
X64955981Y-81882053D01*
X64951640Y-81885860D01*
X64819369Y-82053645D01*
X64816680Y-82058756D01*
X64816678Y-82058759D01*
X64803044Y-82084674D01*
X64719889Y-82242725D01*
X64718175Y-82248246D01*
X64718173Y-82248250D01*
X64712683Y-82265933D01*
X64656532Y-82446767D01*
X64655854Y-82452496D01*
X64655854Y-82452497D01*
X64654323Y-82465430D01*
X64626452Y-82530728D01*
X64567704Y-82570592D01*
X64496729Y-82572365D01*
X64436063Y-82535486D01*
X64406823Y-82476633D01*
X64406430Y-82476744D01*
X64399592Y-82452496D01*
X64350004Y-82276672D01*
X64350003Y-82276670D01*
X64348436Y-82271113D01*
X64337162Y-82248250D01*
X64256495Y-82084674D01*
X64253940Y-82079493D01*
X64234639Y-82053645D01*
X64129560Y-81912927D01*
X64129559Y-81912926D01*
X64126107Y-81908303D01*
X64121871Y-81904387D01*
X63973457Y-81767195D01*
X63973454Y-81767193D01*
X63969217Y-81763276D01*
X63788525Y-81649268D01*
X63590082Y-81570097D01*
X63584425Y-81568972D01*
X63584419Y-81568970D01*
X63386203Y-81529543D01*
X63386199Y-81529543D01*
X63380535Y-81528416D01*
X63374760Y-81528340D01*
X63374756Y-81528340D01*
X63267497Y-81526936D01*
X63166901Y-81525619D01*
X63161204Y-81526598D01*
X63161203Y-81526598D01*
X62962031Y-81560822D01*
X62956334Y-81561801D01*
X62755887Y-81635750D01*
X62750926Y-81638702D01*
X62750925Y-81638702D01*
X62577240Y-81742033D01*
X62577237Y-81742035D01*
X62572272Y-81744989D01*
X62567932Y-81748795D01*
X62567928Y-81748798D01*
X62415981Y-81882053D01*
X62411640Y-81885860D01*
X62279369Y-82053645D01*
X62276680Y-82058756D01*
X62276678Y-82058759D01*
X62263044Y-82084674D01*
X62179889Y-82242725D01*
X62178175Y-82248246D01*
X62178173Y-82248250D01*
X62172683Y-82265933D01*
X62116532Y-82446767D01*
X62115854Y-82452496D01*
X62115854Y-82452497D01*
X62114323Y-82465430D01*
X62086452Y-82530728D01*
X62027704Y-82570592D01*
X61956729Y-82572365D01*
X61896063Y-82535486D01*
X61866823Y-82476633D01*
X61866430Y-82476744D01*
X61859592Y-82452496D01*
X61810004Y-82276672D01*
X61810003Y-82276670D01*
X61808436Y-82271113D01*
X61797162Y-82248250D01*
X61716495Y-82084674D01*
X61713940Y-82079493D01*
X61694639Y-82053645D01*
X61589560Y-81912927D01*
X61589559Y-81912926D01*
X61586107Y-81908303D01*
X61581871Y-81904387D01*
X61433457Y-81767195D01*
X61433454Y-81767193D01*
X61429217Y-81763276D01*
X61248525Y-81649268D01*
X61050082Y-81570097D01*
X61044425Y-81568972D01*
X61044419Y-81568970D01*
X60846203Y-81529543D01*
X60846199Y-81529543D01*
X60840535Y-81528416D01*
X60834760Y-81528340D01*
X60834756Y-81528340D01*
X60727497Y-81526936D01*
X60626901Y-81525619D01*
X60621204Y-81526598D01*
X60621203Y-81526598D01*
X60422031Y-81560822D01*
X60416334Y-81561801D01*
X60215887Y-81635750D01*
X60210926Y-81638702D01*
X60210925Y-81638702D01*
X60037240Y-81742033D01*
X60037237Y-81742035D01*
X60032272Y-81744989D01*
X60027932Y-81748795D01*
X60027928Y-81748798D01*
X59875981Y-81882053D01*
X59871640Y-81885860D01*
X59739369Y-82053645D01*
X59736680Y-82058756D01*
X59736678Y-82058759D01*
X59723044Y-82084674D01*
X59639889Y-82242725D01*
X59638175Y-82248246D01*
X59638173Y-82248250D01*
X59632683Y-82265933D01*
X59576532Y-82446767D01*
X59575854Y-82452496D01*
X59575854Y-82452497D01*
X59574323Y-82465430D01*
X59546452Y-82530728D01*
X59487704Y-82570592D01*
X59416729Y-82572365D01*
X59356063Y-82535486D01*
X59326823Y-82476633D01*
X59326430Y-82476744D01*
X59319592Y-82452496D01*
X59270004Y-82276672D01*
X59270003Y-82276670D01*
X59268436Y-82271113D01*
X59257162Y-82248250D01*
X59176495Y-82084674D01*
X59173940Y-82079493D01*
X59154639Y-82053645D01*
X59049560Y-81912927D01*
X59049559Y-81912926D01*
X59046107Y-81908303D01*
X59041871Y-81904387D01*
X58893457Y-81767195D01*
X58893454Y-81767193D01*
X58889217Y-81763276D01*
X58708525Y-81649268D01*
X58510082Y-81570097D01*
X58504425Y-81568972D01*
X58504419Y-81568970D01*
X58306203Y-81529543D01*
X58306199Y-81529543D01*
X58300535Y-81528416D01*
X58294760Y-81528340D01*
X58294756Y-81528340D01*
X58187497Y-81526936D01*
X58086901Y-81525619D01*
X58081204Y-81526598D01*
X58081203Y-81526598D01*
X57882031Y-81560822D01*
X57876334Y-81561801D01*
X57675887Y-81635750D01*
X57670926Y-81638702D01*
X57670925Y-81638702D01*
X57497240Y-81742033D01*
X57497237Y-81742035D01*
X57492272Y-81744989D01*
X57487932Y-81748795D01*
X57487928Y-81748798D01*
X57335981Y-81882053D01*
X57331640Y-81885860D01*
X57199369Y-82053645D01*
X57196680Y-82058756D01*
X57196678Y-82058759D01*
X57183044Y-82084674D01*
X57099889Y-82242725D01*
X57098175Y-82248246D01*
X57098173Y-82248250D01*
X57092683Y-82265933D01*
X57036532Y-82446767D01*
X57011420Y-82658939D01*
X55372500Y-82658939D01*
X55372500Y-77149197D01*
X64189469Y-77149197D01*
X64207899Y-77359852D01*
X64262629Y-77564107D01*
X64264951Y-77569088D01*
X64264952Y-77569089D01*
X64306032Y-77657184D01*
X64351996Y-77755755D01*
X64473284Y-77928973D01*
X64622809Y-78078498D01*
X64796027Y-78199786D01*
X64801005Y-78202107D01*
X64801008Y-78202109D01*
X64982693Y-78286830D01*
X64987675Y-78289153D01*
X64992983Y-78290575D01*
X64992985Y-78290576D01*
X65186615Y-78342459D01*
X65186617Y-78342459D01*
X65191930Y-78343883D01*
X65402585Y-78362313D01*
X65613240Y-78343883D01*
X65618553Y-78342459D01*
X65618555Y-78342459D01*
X65812185Y-78290576D01*
X65812187Y-78290575D01*
X65817495Y-78289153D01*
X65822477Y-78286830D01*
X66004162Y-78202109D01*
X66004165Y-78202107D01*
X66009143Y-78199786D01*
X66182361Y-78078498D01*
X66331886Y-77928973D01*
X66366034Y-77880204D01*
X66421490Y-77835877D01*
X66492109Y-77828568D01*
X66555470Y-77860599D01*
X66575630Y-77884960D01*
X66659153Y-78016572D01*
X66661678Y-78019624D01*
X66852672Y-78250495D01*
X66860352Y-78259779D01*
X67090445Y-78475851D01*
X67345806Y-78661381D01*
X67622406Y-78813444D01*
X67626075Y-78814897D01*
X67626080Y-78814899D01*
X67912213Y-78928187D01*
X67915883Y-78929640D01*
X68221610Y-79008137D01*
X68534764Y-79047697D01*
X68850406Y-79047697D01*
X69163560Y-79008137D01*
X69469287Y-78929640D01*
X69472957Y-78928187D01*
X69759090Y-78814899D01*
X69759095Y-78814897D01*
X69762764Y-78813444D01*
X70039364Y-78661381D01*
X70294725Y-78475851D01*
X70524818Y-78259779D01*
X70532499Y-78250495D01*
X70723492Y-78019624D01*
X70726017Y-78016572D01*
X70895147Y-77750066D01*
X70896831Y-77746487D01*
X70896835Y-77746480D01*
X71027852Y-77468053D01*
X71027854Y-77468049D01*
X71029541Y-77464463D01*
X71127080Y-77164269D01*
X71186226Y-76854217D01*
X71206045Y-76539197D01*
X71186226Y-76224177D01*
X71127080Y-75914125D01*
X71043415Y-75656631D01*
X71030767Y-75617704D01*
X71030767Y-75617703D01*
X71029541Y-75613931D01*
X70994045Y-75538498D01*
X70896835Y-75331914D01*
X70896831Y-75331907D01*
X70895147Y-75328328D01*
X70726017Y-75061822D01*
X70524818Y-74818615D01*
X70294725Y-74602543D01*
X70257325Y-74575370D01*
X70238954Y-74562023D01*
X70039364Y-74417013D01*
X70001557Y-74396228D01*
X69766233Y-74266857D01*
X69766232Y-74266856D01*
X69762764Y-74264950D01*
X69759095Y-74263497D01*
X69759090Y-74263495D01*
X69472957Y-74150207D01*
X69472956Y-74150207D01*
X69469287Y-74148754D01*
X69163560Y-74070257D01*
X68850406Y-74030697D01*
X68534764Y-74030697D01*
X68221610Y-74070257D01*
X67915883Y-74148754D01*
X67912214Y-74150207D01*
X67912213Y-74150207D01*
X67626080Y-74263495D01*
X67626075Y-74263497D01*
X67622406Y-74264950D01*
X67618938Y-74266856D01*
X67618937Y-74266857D01*
X67383614Y-74396228D01*
X67345806Y-74417013D01*
X67146216Y-74562023D01*
X67127846Y-74575370D01*
X67090445Y-74602543D01*
X66860352Y-74818615D01*
X66659153Y-75061822D01*
X66490023Y-75328328D01*
X66488339Y-75331907D01*
X66488335Y-75331914D01*
X66391125Y-75538498D01*
X66355629Y-75613931D01*
X66354403Y-75617703D01*
X66354403Y-75617704D01*
X66341755Y-75656631D01*
X66258090Y-75914125D01*
X66257346Y-75918026D01*
X66234206Y-76039328D01*
X66201794Y-76102494D01*
X66140376Y-76138110D01*
X66069454Y-76134866D01*
X66038169Y-76118932D01*
X66024561Y-76109404D01*
X66009143Y-76098608D01*
X66004165Y-76096287D01*
X66004162Y-76096285D01*
X65822477Y-76011564D01*
X65822476Y-76011563D01*
X65817495Y-76009241D01*
X65812187Y-76007819D01*
X65812185Y-76007818D01*
X65618555Y-75955935D01*
X65618553Y-75955935D01*
X65613240Y-75954511D01*
X65402585Y-75936081D01*
X65191930Y-75954511D01*
X65186617Y-75955935D01*
X65186615Y-75955935D01*
X64992985Y-76007818D01*
X64992983Y-76007819D01*
X64987675Y-76009241D01*
X64982694Y-76011563D01*
X64982693Y-76011564D01*
X64801008Y-76096285D01*
X64801005Y-76096287D01*
X64796027Y-76098608D01*
X64622809Y-76219896D01*
X64473284Y-76369421D01*
X64351996Y-76542639D01*
X64349675Y-76547617D01*
X64349673Y-76547620D01*
X64266193Y-76726644D01*
X64262629Y-76734287D01*
X64207899Y-76938542D01*
X64189469Y-77149197D01*
X55372500Y-77149197D01*
X55372500Y-74609197D01*
X62399469Y-74609197D01*
X62417899Y-74819852D01*
X62419323Y-74825165D01*
X62419323Y-74825167D01*
X62459166Y-74973861D01*
X62472629Y-75024107D01*
X62474951Y-75029088D01*
X62474952Y-75029089D01*
X62516121Y-75117375D01*
X62561996Y-75215755D01*
X62683284Y-75388973D01*
X62832809Y-75538498D01*
X63006027Y-75659786D01*
X63011005Y-75662107D01*
X63011008Y-75662109D01*
X63192693Y-75746830D01*
X63197675Y-75749153D01*
X63202983Y-75750575D01*
X63202985Y-75750576D01*
X63396615Y-75802459D01*
X63396617Y-75802459D01*
X63401930Y-75803883D01*
X63612585Y-75822313D01*
X63823240Y-75803883D01*
X63828553Y-75802459D01*
X63828555Y-75802459D01*
X64022185Y-75750576D01*
X64022187Y-75750575D01*
X64027495Y-75749153D01*
X64032477Y-75746830D01*
X64214162Y-75662109D01*
X64214165Y-75662107D01*
X64219143Y-75659786D01*
X64392361Y-75538498D01*
X64541886Y-75388973D01*
X64663174Y-75215755D01*
X64709050Y-75117375D01*
X64750218Y-75029089D01*
X64750219Y-75029088D01*
X64752541Y-75024107D01*
X64766005Y-74973861D01*
X64805847Y-74825167D01*
X64805847Y-74825165D01*
X64807271Y-74819852D01*
X64825701Y-74609197D01*
X64807271Y-74398542D01*
X64799429Y-74369276D01*
X64753964Y-74199597D01*
X64753963Y-74199595D01*
X64752541Y-74194287D01*
X64750218Y-74189305D01*
X64665497Y-74007620D01*
X64665495Y-74007617D01*
X64663174Y-74002639D01*
X64541886Y-73829421D01*
X64392361Y-73679896D01*
X64219143Y-73558608D01*
X64214165Y-73556287D01*
X64214162Y-73556285D01*
X64032477Y-73471564D01*
X64032476Y-73471563D01*
X64027495Y-73469241D01*
X64022187Y-73467819D01*
X64022185Y-73467818D01*
X63828555Y-73415935D01*
X63828553Y-73415935D01*
X63823240Y-73414511D01*
X63612585Y-73396081D01*
X63401930Y-73414511D01*
X63396617Y-73415935D01*
X63396615Y-73415935D01*
X63202985Y-73467818D01*
X63202983Y-73467819D01*
X63197675Y-73469241D01*
X63192694Y-73471563D01*
X63192693Y-73471564D01*
X63011008Y-73556285D01*
X63011005Y-73556287D01*
X63006027Y-73558608D01*
X62832809Y-73679896D01*
X62683284Y-73829421D01*
X62561996Y-74002639D01*
X62559675Y-74007617D01*
X62559673Y-74007620D01*
X62474952Y-74189305D01*
X62472629Y-74194287D01*
X62471207Y-74199595D01*
X62471206Y-74199597D01*
X62425741Y-74369276D01*
X62417899Y-74398542D01*
X62399469Y-74609197D01*
X55372500Y-74609197D01*
X55372500Y-64499197D01*
X62399469Y-64499197D01*
X62417899Y-64709852D01*
X62472629Y-64914107D01*
X62474951Y-64919088D01*
X62474952Y-64919089D01*
X62497063Y-64966505D01*
X62561996Y-65105755D01*
X62683284Y-65278973D01*
X62832809Y-65428498D01*
X63006027Y-65549786D01*
X63011005Y-65552107D01*
X63011008Y-65552109D01*
X63165151Y-65623987D01*
X63197675Y-65639153D01*
X63202983Y-65640575D01*
X63202985Y-65640576D01*
X63396615Y-65692459D01*
X63396617Y-65692459D01*
X63401930Y-65693883D01*
X63612585Y-65712313D01*
X63823240Y-65693883D01*
X63828553Y-65692459D01*
X63828555Y-65692459D01*
X64022185Y-65640576D01*
X64022187Y-65640575D01*
X64027495Y-65639153D01*
X64060019Y-65623987D01*
X64214162Y-65552109D01*
X64214165Y-65552107D01*
X64219143Y-65549786D01*
X64278225Y-65508417D01*
X64345499Y-65485730D01*
X64414359Y-65503016D01*
X64439589Y-65522536D01*
X64754330Y-65837277D01*
X64788356Y-65899589D01*
X64783291Y-65970404D01*
X64737507Y-66029584D01*
X64622809Y-66109896D01*
X64473284Y-66259421D01*
X64351996Y-66432639D01*
X64349675Y-66437617D01*
X64349673Y-66437620D01*
X64303399Y-66536856D01*
X64262629Y-66624287D01*
X64261207Y-66629595D01*
X64261206Y-66629597D01*
X64223386Y-66770742D01*
X64207899Y-66828542D01*
X64189469Y-67039197D01*
X64207899Y-67249852D01*
X64209323Y-67255165D01*
X64209323Y-67255167D01*
X64261189Y-67448731D01*
X64262629Y-67454107D01*
X64264951Y-67459088D01*
X64264952Y-67459089D01*
X64347454Y-67636014D01*
X64351996Y-67645755D01*
X64473284Y-67818973D01*
X64622809Y-67968498D01*
X64796027Y-68089786D01*
X64801005Y-68092107D01*
X64801008Y-68092109D01*
X64982693Y-68176830D01*
X64987675Y-68179153D01*
X64992983Y-68180575D01*
X64992985Y-68180576D01*
X65186615Y-68232459D01*
X65186617Y-68232459D01*
X65191930Y-68233883D01*
X65402585Y-68252313D01*
X65613240Y-68233883D01*
X65618553Y-68232459D01*
X65618555Y-68232459D01*
X65812185Y-68180576D01*
X65812187Y-68180575D01*
X65817495Y-68179153D01*
X65822477Y-68176830D01*
X66004162Y-68092109D01*
X66004165Y-68092107D01*
X66009143Y-68089786D01*
X66182361Y-67968498D01*
X66331886Y-67818973D01*
X66412198Y-67704275D01*
X66467654Y-67659948D01*
X66538273Y-67652639D01*
X66604505Y-67687452D01*
X66784088Y-67867035D01*
X66794955Y-67879426D01*
X66814416Y-67904788D01*
X66820966Y-67909814D01*
X66846324Y-67929272D01*
X66846340Y-67929286D01*
X66889918Y-67962724D01*
X66941527Y-68002325D01*
X67089552Y-68063639D01*
X67248403Y-68084552D01*
X67280102Y-68080379D01*
X67296547Y-68079301D01*
X74095300Y-68079301D01*
X74163421Y-68099303D01*
X74209914Y-68152959D01*
X74220018Y-68223233D01*
X74191822Y-68286292D01*
X74164976Y-68318286D01*
X74162012Y-68323678D01*
X74162009Y-68323682D01*
X74102024Y-68432794D01*
X74064972Y-68500192D01*
X74002206Y-68698058D01*
X74001520Y-68704175D01*
X74001519Y-68704179D01*
X73980956Y-68887507D01*
X73979067Y-68904347D01*
X73979583Y-68910491D01*
X73994294Y-69085676D01*
X73996437Y-69111201D01*
X74053654Y-69310742D01*
X74056472Y-69316224D01*
X74056473Y-69316228D01*
X74125880Y-69451279D01*
X74148540Y-69495370D01*
X74277479Y-69658051D01*
X74282166Y-69662040D01*
X74282169Y-69662043D01*
X74314363Y-69689442D01*
X74435561Y-69792589D01*
X74616765Y-69893861D01*
X74814188Y-69958007D01*
X75020310Y-69982586D01*
X75026445Y-69982114D01*
X75026447Y-69982114D01*
X75221140Y-69967133D01*
X75221145Y-69967132D01*
X75227281Y-69966660D01*
X75233215Y-69965003D01*
X75233222Y-69965002D01*
X75385244Y-69922557D01*
X75456234Y-69923503D01*
X75515444Y-69962679D01*
X75544073Y-70027647D01*
X75533034Y-70097780D01*
X75508223Y-70133010D01*
X75269524Y-70371709D01*
X75207212Y-70405735D01*
X75167259Y-70407924D01*
X75056139Y-70396245D01*
X75056137Y-70396245D01*
X75050010Y-70395601D01*
X74964100Y-70403420D01*
X74849421Y-70413856D01*
X74849418Y-70413857D01*
X74843282Y-70414415D01*
X74837376Y-70416153D01*
X74837372Y-70416154D01*
X74689517Y-70459670D01*
X74644145Y-70473024D01*
X74460185Y-70569196D01*
X74298408Y-70699268D01*
X74164976Y-70858286D01*
X74162012Y-70863678D01*
X74162009Y-70863682D01*
X74109365Y-70959442D01*
X74064972Y-71040192D01*
X74063109Y-71046065D01*
X74016340Y-71193503D01*
X74002206Y-71238058D01*
X74001520Y-71244175D01*
X74001519Y-71244179D01*
X73995522Y-71297647D01*
X73979067Y-71444347D01*
X73979583Y-71450491D01*
X73995703Y-71642456D01*
X73996437Y-71651201D01*
X74053654Y-71850742D01*
X74056472Y-71856224D01*
X74056473Y-71856228D01*
X74082627Y-71907118D01*
X74148540Y-72035370D01*
X74277479Y-72198051D01*
X74282166Y-72202040D01*
X74282169Y-72202043D01*
X74430869Y-72328596D01*
X74435561Y-72332589D01*
X74616765Y-72433861D01*
X74814188Y-72498007D01*
X75020310Y-72522586D01*
X75026445Y-72522114D01*
X75026447Y-72522114D01*
X75074915Y-72518384D01*
X75148419Y-72512728D01*
X75217872Y-72527445D01*
X75268345Y-72577375D01*
X75284085Y-72638357D01*
X75284085Y-72820266D01*
X75264083Y-72888387D01*
X75210427Y-72934880D01*
X75144915Y-72945576D01*
X75050010Y-72935601D01*
X74964100Y-72943420D01*
X74849421Y-72953856D01*
X74849418Y-72953857D01*
X74843282Y-72954415D01*
X74837376Y-72956153D01*
X74837372Y-72956154D01*
X74689517Y-72999670D01*
X74644145Y-73013024D01*
X74460185Y-73109196D01*
X74298408Y-73239268D01*
X74294450Y-73243985D01*
X74294448Y-73243987D01*
X74279509Y-73261791D01*
X74164976Y-73398286D01*
X74162012Y-73403678D01*
X74162009Y-73403682D01*
X74107277Y-73503240D01*
X74064972Y-73580192D01*
X74002206Y-73778058D01*
X74001520Y-73784175D01*
X74001519Y-73784179D01*
X73980068Y-73975423D01*
X73979067Y-73984347D01*
X73979583Y-73990491D01*
X73994384Y-74166749D01*
X73996437Y-74191201D01*
X74053654Y-74390742D01*
X74056472Y-74396224D01*
X74056473Y-74396228D01*
X74112585Y-74505409D01*
X74148540Y-74575370D01*
X74277479Y-74738051D01*
X74282166Y-74742040D01*
X74282169Y-74742043D01*
X74421441Y-74860572D01*
X74435561Y-74872589D01*
X74616765Y-74973861D01*
X74814188Y-75038007D01*
X75020310Y-75062586D01*
X75026445Y-75062114D01*
X75026447Y-75062114D01*
X75074915Y-75058384D01*
X75148419Y-75052728D01*
X75217872Y-75067445D01*
X75268345Y-75117375D01*
X75284085Y-75178357D01*
X75284085Y-75607816D01*
X75283007Y-75624259D01*
X75278835Y-75655952D01*
X75284085Y-75695832D01*
X75284085Y-75695837D01*
X75291104Y-75749153D01*
X75299747Y-75814803D01*
X75361061Y-75962828D01*
X75366088Y-75969379D01*
X75366089Y-75969381D01*
X75434105Y-76058021D01*
X75434111Y-76058027D01*
X75458598Y-76089939D01*
X75465153Y-76094969D01*
X75483964Y-76109404D01*
X75496355Y-76120271D01*
X77496318Y-78120234D01*
X77507185Y-78132625D01*
X77526646Y-78157987D01*
X77533196Y-78163013D01*
X77558554Y-78182471D01*
X77558570Y-78182485D01*
X77607938Y-78220366D01*
X77653757Y-78255524D01*
X77727770Y-78286181D01*
X77794153Y-78313678D01*
X77794156Y-78313679D01*
X77801783Y-78316838D01*
X77960633Y-78337751D01*
X77992332Y-78333578D01*
X78008777Y-78332500D01*
X81762414Y-78332500D01*
X81778857Y-78333578D01*
X81810550Y-78337750D01*
X81818739Y-78336672D01*
X81850424Y-78332501D01*
X81850434Y-78332500D01*
X81850435Y-78332500D01*
X81950007Y-78319391D01*
X81961214Y-78317916D01*
X81961216Y-78317915D01*
X81969401Y-78316838D01*
X82117426Y-78255524D01*
X82123980Y-78250495D01*
X82212619Y-78182480D01*
X82212625Y-78182474D01*
X82237984Y-78163015D01*
X82244537Y-78157987D01*
X82249567Y-78151432D01*
X82264002Y-78132621D01*
X82274869Y-78120230D01*
X82425694Y-77969405D01*
X82488006Y-77935379D01*
X82514789Y-77932500D01*
X82935122Y-77932500D01*
X82938368Y-77932163D01*
X82938372Y-77932163D01*
X83032285Y-77922419D01*
X83032289Y-77922418D01*
X83039143Y-77921707D01*
X83045679Y-77919526D01*
X83045681Y-77919526D01*
X83197209Y-77868972D01*
X83204157Y-77866654D01*
X83352081Y-77775116D01*
X83373746Y-77753413D01*
X83469808Y-77657184D01*
X83469812Y-77657179D01*
X83474979Y-77652003D01*
X83566259Y-77503920D01*
X83621024Y-77338809D01*
X83631550Y-77236072D01*
X83631550Y-76661928D01*
X83620757Y-76557907D01*
X83615836Y-76543155D01*
X83568022Y-76399841D01*
X83565704Y-76392893D01*
X83474166Y-76244969D01*
X83399088Y-76170022D01*
X83356234Y-76127242D01*
X83356229Y-76127238D01*
X83351053Y-76122071D01*
X83338652Y-76114427D01*
X83209200Y-76034631D01*
X83209198Y-76034630D01*
X83202970Y-76030791D01*
X83037859Y-75976026D01*
X83031023Y-75975326D01*
X83031020Y-75975325D01*
X82979524Y-75970049D01*
X82935122Y-75965500D01*
X82413559Y-75965500D01*
X82345438Y-75945498D01*
X82298945Y-75891842D01*
X82287559Y-75839500D01*
X82287559Y-70239759D01*
X82307561Y-70171638D01*
X82361217Y-70125145D01*
X82431491Y-70115041D01*
X82441366Y-70116866D01*
X82548919Y-70141203D01*
X82554690Y-70141430D01*
X82554692Y-70141430D01*
X82627679Y-70144297D01*
X82766264Y-70149742D01*
X82981525Y-70118531D01*
X82986989Y-70116676D01*
X82986994Y-70116675D01*
X83182022Y-70050472D01*
X83182027Y-70050470D01*
X83187494Y-70048614D01*
X83239683Y-70019387D01*
X83250789Y-70013167D01*
X83377272Y-69942333D01*
X83544505Y-69803247D01*
X83683591Y-69636014D01*
X83762356Y-69495370D01*
X83787048Y-69451279D01*
X83787049Y-69451277D01*
X83789872Y-69446236D01*
X83791728Y-69440769D01*
X83791730Y-69440764D01*
X83857933Y-69245736D01*
X83857934Y-69245731D01*
X83859789Y-69240267D01*
X83891000Y-69025006D01*
X83892629Y-68962801D01*
X83872726Y-68746201D01*
X83813685Y-68536856D01*
X83717482Y-68341775D01*
X83713203Y-68336044D01*
X83590792Y-68172116D01*
X83590791Y-68172115D01*
X83587339Y-68167492D01*
X83578443Y-68159268D01*
X83465137Y-68054530D01*
X83428692Y-67993601D01*
X83430973Y-67922641D01*
X83470097Y-67865131D01*
X83525597Y-67818973D01*
X83544505Y-67803247D01*
X83683591Y-67636014D01*
X83789872Y-67446236D01*
X83791728Y-67440769D01*
X83791730Y-67440764D01*
X83857933Y-67245736D01*
X83857934Y-67245731D01*
X83859789Y-67240267D01*
X83891000Y-67025006D01*
X83892629Y-66962801D01*
X83872726Y-66746201D01*
X83813685Y-66536856D01*
X83717482Y-66341775D01*
X83703771Y-66323413D01*
X83590792Y-66172116D01*
X83590791Y-66172115D01*
X83587339Y-66167492D01*
X83577134Y-66158058D01*
X83465137Y-66054530D01*
X83428692Y-65993601D01*
X83430973Y-65922641D01*
X83470097Y-65865131D01*
X83540067Y-65806938D01*
X83544505Y-65803247D01*
X83683591Y-65636014D01*
X83758074Y-65503016D01*
X83787048Y-65451279D01*
X83787049Y-65451277D01*
X83789872Y-65446236D01*
X83791728Y-65440769D01*
X83791730Y-65440764D01*
X83857933Y-65245736D01*
X83857934Y-65245731D01*
X83859789Y-65240267D01*
X83891000Y-65025006D01*
X83892629Y-64962801D01*
X83872726Y-64746201D01*
X83813685Y-64536856D01*
X83717482Y-64341775D01*
X83707769Y-64328767D01*
X83590792Y-64172116D01*
X83590791Y-64172115D01*
X83587339Y-64167492D01*
X83583103Y-64163576D01*
X83431855Y-64023764D01*
X83431852Y-64023762D01*
X83427615Y-64019845D01*
X83243658Y-63903777D01*
X83041631Y-63823177D01*
X82828298Y-63780742D01*
X82822523Y-63780666D01*
X82822519Y-63780666D01*
X82713478Y-63779239D01*
X82610805Y-63777895D01*
X82605108Y-63778874D01*
X82605107Y-63778874D01*
X82402124Y-63813753D01*
X82402121Y-63813754D01*
X82396434Y-63814731D01*
X82192366Y-63890015D01*
X82005435Y-64001228D01*
X82001091Y-64005038D01*
X81983651Y-64020332D01*
X81919247Y-64050209D01*
X81848914Y-64040523D01*
X81799748Y-64001166D01*
X81797581Y-63998274D01*
X81742320Y-63924540D01*
X81625764Y-63837186D01*
X81489375Y-63786056D01*
X81427193Y-63779301D01*
X79980925Y-63779301D01*
X79918743Y-63786056D01*
X79782354Y-63837186D01*
X79665798Y-63924540D01*
X79578444Y-64041096D01*
X79527314Y-64177485D01*
X79520559Y-64239667D01*
X79520559Y-64253061D01*
X79500557Y-64321182D01*
X79446901Y-64367675D01*
X79411019Y-64377981D01*
X79408264Y-64378344D01*
X79404162Y-64378816D01*
X79282097Y-64390837D01*
X79212345Y-64377608D01*
X79160817Y-64328767D01*
X79144829Y-64281904D01*
X79142624Y-64265170D01*
X79142152Y-64261072D01*
X79132540Y-64163576D01*
X79127339Y-64110824D01*
X79122458Y-64094736D01*
X79094065Y-64001166D01*
X79075380Y-63939587D01*
X79014293Y-63825319D01*
X78993934Y-63787236D01*
X78993931Y-63787232D01*
X78991014Y-63781775D01*
X78877483Y-63643453D01*
X78872700Y-63639528D01*
X78872698Y-63639526D01*
X78743933Y-63533862D01*
X78739149Y-63529936D01*
X78581329Y-63445585D01*
X78410086Y-63393643D01*
X78403927Y-63393036D01*
X78403925Y-63393036D01*
X78330751Y-63385830D01*
X78260730Y-63378933D01*
X78256678Y-63378468D01*
X78232000Y-63375219D01*
X78208204Y-63378352D01*
X78204180Y-63378814D01*
X78053908Y-63393613D01*
X78047981Y-63395411D01*
X78047980Y-63395411D01*
X77888586Y-63443760D01*
X77888585Y-63443761D01*
X77882659Y-63445558D01*
X77724834Y-63529911D01*
X77586496Y-63643432D01*
X77472961Y-63781758D01*
X77455857Y-63813753D01*
X77396631Y-63924540D01*
X77388593Y-63939575D01*
X77386797Y-63945493D01*
X77386796Y-63945496D01*
X77357788Y-64041096D01*
X77336631Y-64110819D01*
X77321819Y-64261072D01*
X77321728Y-64261992D01*
X77321262Y-64266044D01*
X77320616Y-64270942D01*
X77291882Y-64335862D01*
X77232610Y-64374942D01*
X77195698Y-64380470D01*
X76480948Y-64380470D01*
X76464505Y-64379392D01*
X76432812Y-64375220D01*
X76424623Y-64376298D01*
X76392938Y-64380469D01*
X76392929Y-64380470D01*
X76392927Y-64380470D01*
X76392921Y-64380471D01*
X76392919Y-64380471D01*
X76293355Y-64393579D01*
X76282148Y-64395054D01*
X76282146Y-64395055D01*
X76273961Y-64396132D01*
X76125936Y-64457446D01*
X76086084Y-64488026D01*
X76030749Y-64530485D01*
X76030733Y-64530499D01*
X76005378Y-64549954D01*
X76005375Y-64549957D01*
X75998825Y-64554983D01*
X75993795Y-64561538D01*
X75979360Y-64580349D01*
X75968493Y-64592740D01*
X75269524Y-65291709D01*
X75207212Y-65325735D01*
X75167259Y-65327924D01*
X75056139Y-65316245D01*
X75056137Y-65316245D01*
X75050010Y-65315601D01*
X74964100Y-65323420D01*
X74849421Y-65333856D01*
X74849418Y-65333857D01*
X74843282Y-65334415D01*
X74837376Y-65336153D01*
X74837372Y-65336154D01*
X74720060Y-65370681D01*
X74644145Y-65393024D01*
X74460185Y-65489196D01*
X74298408Y-65619268D01*
X74294450Y-65623985D01*
X74294448Y-65623987D01*
X74235397Y-65694362D01*
X74164976Y-65778286D01*
X74162012Y-65783678D01*
X74162009Y-65783682D01*
X74098289Y-65899589D01*
X74064972Y-65960192D01*
X74002206Y-66158058D01*
X74001520Y-66164175D01*
X74001519Y-66164179D01*
X73983658Y-66323413D01*
X73979067Y-66364347D01*
X73979583Y-66370491D01*
X73993118Y-66531673D01*
X73996437Y-66571201D01*
X74033820Y-66701571D01*
X74033369Y-66772566D01*
X73994607Y-66832047D01*
X73929841Y-66861130D01*
X73912701Y-66862301D01*
X70765678Y-66862301D01*
X70697557Y-66842299D01*
X70651064Y-66788643D01*
X70640960Y-66718369D01*
X70668594Y-66655985D01*
X70723485Y-66589634D01*
X70723493Y-66589623D01*
X70726017Y-66586572D01*
X70895147Y-66320066D01*
X70896831Y-66316487D01*
X70896835Y-66316480D01*
X71027852Y-66038053D01*
X71027854Y-66038049D01*
X71029541Y-66034463D01*
X71127080Y-65734269D01*
X71186226Y-65424217D01*
X71206045Y-65109197D01*
X71186226Y-64794177D01*
X71127080Y-64484125D01*
X71029541Y-64183931D01*
X71026508Y-64177485D01*
X70896835Y-63901914D01*
X70896831Y-63901907D01*
X70895147Y-63898328D01*
X70891746Y-63892968D01*
X70823897Y-63786056D01*
X70726017Y-63631822D01*
X70528953Y-63393613D01*
X70527343Y-63391667D01*
X70527342Y-63391666D01*
X70524818Y-63388615D01*
X70294725Y-63172543D01*
X70039364Y-62987013D01*
X70026823Y-62980118D01*
X69766233Y-62836857D01*
X69766232Y-62836856D01*
X69762764Y-62834950D01*
X69759095Y-62833497D01*
X69759090Y-62833495D01*
X69472957Y-62720207D01*
X69472956Y-62720207D01*
X69469287Y-62718754D01*
X69163560Y-62640257D01*
X68850406Y-62600697D01*
X68534764Y-62600697D01*
X68221610Y-62640257D01*
X67915883Y-62718754D01*
X67912214Y-62720207D01*
X67912213Y-62720207D01*
X67626080Y-62833495D01*
X67626075Y-62833497D01*
X67622406Y-62834950D01*
X67618938Y-62836856D01*
X67618937Y-62836857D01*
X67358348Y-62980118D01*
X67345806Y-62987013D01*
X67090445Y-63172543D01*
X66860352Y-63388615D01*
X66857828Y-63391666D01*
X66857827Y-63391667D01*
X66856217Y-63393613D01*
X66659153Y-63631822D01*
X66561273Y-63786056D01*
X66493425Y-63892968D01*
X66490023Y-63898328D01*
X66488339Y-63901907D01*
X66488335Y-63901914D01*
X66358662Y-64177485D01*
X66355629Y-64183931D01*
X66258090Y-64484125D01*
X66198944Y-64794177D01*
X66179125Y-65109197D01*
X66179374Y-65113155D01*
X66187176Y-65237173D01*
X66171491Y-65306415D01*
X66120860Y-65356185D01*
X66051359Y-65370681D01*
X65985054Y-65345301D01*
X65972330Y-65334179D01*
X64787433Y-64149282D01*
X64755940Y-64094736D01*
X64755846Y-64094770D01*
X64755651Y-64094235D01*
X64754821Y-64092797D01*
X64752541Y-64084287D01*
X64732401Y-64041096D01*
X64665497Y-63897620D01*
X64665495Y-63897617D01*
X64663174Y-63892639D01*
X64541886Y-63719421D01*
X64392361Y-63569896D01*
X64219143Y-63448608D01*
X64214165Y-63446287D01*
X64214162Y-63446285D01*
X64032477Y-63361564D01*
X64032476Y-63361563D01*
X64027495Y-63359241D01*
X64022187Y-63357819D01*
X64022185Y-63357818D01*
X63828555Y-63305935D01*
X63828553Y-63305935D01*
X63823240Y-63304511D01*
X63612585Y-63286081D01*
X63401930Y-63304511D01*
X63396617Y-63305935D01*
X63396615Y-63305935D01*
X63202985Y-63357818D01*
X63202983Y-63357819D01*
X63197675Y-63359241D01*
X63192694Y-63361563D01*
X63192693Y-63361564D01*
X63011008Y-63446285D01*
X63011005Y-63446287D01*
X63006027Y-63448608D01*
X62832809Y-63569896D01*
X62683284Y-63719421D01*
X62561996Y-63892639D01*
X62559675Y-63897617D01*
X62559673Y-63897620D01*
X62488520Y-64050209D01*
X62472629Y-64084287D01*
X62471207Y-64089595D01*
X62471206Y-64089597D01*
X62419323Y-64283227D01*
X62417899Y-64288542D01*
X62399469Y-64499197D01*
X55372500Y-64499197D01*
X55372500Y-54978072D01*
X87342630Y-54978072D01*
X87353423Y-55082093D01*
X87408476Y-55247107D01*
X87500014Y-55395031D01*
X87505196Y-55400204D01*
X87617946Y-55512758D01*
X87617951Y-55512762D01*
X87623127Y-55517929D01*
X87771210Y-55609209D01*
X87936321Y-55663974D01*
X87943157Y-55664674D01*
X87943160Y-55664675D01*
X87994656Y-55669951D01*
X88039058Y-55674500D01*
X88713202Y-55674500D01*
X88716448Y-55674163D01*
X88716452Y-55674163D01*
X88810365Y-55664419D01*
X88810369Y-55664418D01*
X88817223Y-55663707D01*
X88823759Y-55661526D01*
X88823761Y-55661526D01*
X88956525Y-55617232D01*
X88982237Y-55608654D01*
X89130161Y-55517116D01*
X89253059Y-55394003D01*
X89257756Y-55386383D01*
X89258588Y-55385635D01*
X89261436Y-55382028D01*
X89262053Y-55382516D01*
X89310527Y-55338891D01*
X89365015Y-55326500D01*
X89574402Y-55326500D01*
X89642523Y-55346502D01*
X89678533Y-55383131D01*
X89678613Y-55383068D01*
X89679205Y-55383814D01*
X89681544Y-55386194D01*
X89683159Y-55388803D01*
X89683164Y-55388809D01*
X89687014Y-55395031D01*
X89692192Y-55400200D01*
X89804946Y-55512758D01*
X89804951Y-55512762D01*
X89810127Y-55517929D01*
X89958210Y-55609209D01*
X90123321Y-55663974D01*
X90130157Y-55664674D01*
X90130160Y-55664675D01*
X90181656Y-55669951D01*
X90226058Y-55674500D01*
X90825202Y-55674500D01*
X90828448Y-55674163D01*
X90828452Y-55674163D01*
X90922365Y-55664419D01*
X90922369Y-55664418D01*
X90929223Y-55663707D01*
X90935759Y-55661526D01*
X90935761Y-55661526D01*
X91068525Y-55617232D01*
X91094237Y-55608654D01*
X91242161Y-55517116D01*
X91247334Y-55511934D01*
X91348877Y-55410214D01*
X91411160Y-55376135D01*
X91481980Y-55381138D01*
X91527067Y-55410059D01*
X91629942Y-55512754D01*
X91629947Y-55512758D01*
X91635127Y-55517929D01*
X91783210Y-55609209D01*
X91948321Y-55663974D01*
X91955157Y-55664674D01*
X91955160Y-55664675D01*
X92006656Y-55669951D01*
X92051058Y-55674500D01*
X92650202Y-55674500D01*
X92653448Y-55674163D01*
X92653452Y-55674163D01*
X92747365Y-55664419D01*
X92747369Y-55664418D01*
X92754223Y-55663707D01*
X92760759Y-55661526D01*
X92760761Y-55661526D01*
X92893525Y-55617232D01*
X92919237Y-55608654D01*
X93067161Y-55517116D01*
X93190059Y-55394003D01*
X93194756Y-55386383D01*
X93195588Y-55385635D01*
X93198436Y-55382028D01*
X93199053Y-55382516D01*
X93247527Y-55338891D01*
X93302015Y-55326500D01*
X102482630Y-55326500D01*
X102550751Y-55346502D01*
X102597244Y-55400158D01*
X102608630Y-55452500D01*
X102608630Y-60407000D01*
X102620364Y-60516149D01*
X102621082Y-60519449D01*
X102621082Y-60519450D01*
X102628091Y-60551669D01*
X102631750Y-60568491D01*
X102666420Y-60672657D01*
X102745438Y-60795612D01*
X102791931Y-60849268D01*
X102795324Y-60852208D01*
X102895580Y-60939081D01*
X102895583Y-60939083D01*
X102902391Y-60944982D01*
X103035340Y-61005698D01*
X103059094Y-61012673D01*
X103099138Y-61024431D01*
X103099142Y-61024432D01*
X103103461Y-61025700D01*
X103107910Y-61026340D01*
X103107916Y-61026341D01*
X103243683Y-61045861D01*
X103243688Y-61045861D01*
X103248130Y-61046500D01*
X110558707Y-61046500D01*
X110626828Y-61066502D01*
X110647802Y-61083405D01*
X110846447Y-61282050D01*
X110880473Y-61344362D01*
X110877545Y-61399459D01*
X110879764Y-61399935D01*
X110878323Y-61406659D01*
X110876156Y-61413191D01*
X110865630Y-61515928D01*
X110865630Y-62090072D01*
X110876423Y-62194093D01*
X110931476Y-62359107D01*
X111023014Y-62507031D01*
X111028196Y-62512204D01*
X111140946Y-62624758D01*
X111140951Y-62624762D01*
X111146127Y-62629929D01*
X111152357Y-62633769D01*
X111152358Y-62633770D01*
X111229129Y-62681092D01*
X111276622Y-62733864D01*
X111284015Y-62753217D01*
X111284648Y-62755397D01*
X111288653Y-62774742D01*
X111291203Y-62794929D01*
X111294119Y-62802293D01*
X111294120Y-62802298D01*
X111307537Y-62836186D01*
X111311382Y-62847415D01*
X111323761Y-62890023D01*
X111327799Y-62896850D01*
X111327800Y-62896853D01*
X111334118Y-62907536D01*
X111342818Y-62925294D01*
X111347391Y-62936845D01*
X111347395Y-62936851D01*
X111350311Y-62944218D01*
X111354969Y-62950629D01*
X111354970Y-62950631D01*
X111376394Y-62980118D01*
X111382911Y-62990040D01*
X111401456Y-63021398D01*
X111401459Y-63021402D01*
X111405496Y-63028228D01*
X111419880Y-63042612D01*
X111432721Y-63057646D01*
X111444688Y-63074117D01*
X111450796Y-63079170D01*
X111478885Y-63102407D01*
X111487665Y-63110397D01*
X122263595Y-73886328D01*
X122297621Y-73948640D01*
X122300500Y-73975423D01*
X122300500Y-93156578D01*
X122280498Y-93224699D01*
X122263595Y-93245673D01*
X118252172Y-97257095D01*
X118189860Y-97291121D01*
X118163077Y-97294000D01*
X117638069Y-97294000D01*
X117569948Y-97273998D01*
X117537111Y-97243389D01*
X117469560Y-97152927D01*
X117469559Y-97152926D01*
X117466107Y-97148303D01*
X117461871Y-97144387D01*
X117313457Y-97007195D01*
X117313454Y-97007193D01*
X117309217Y-97003276D01*
X117128525Y-96889268D01*
X116930082Y-96810097D01*
X116924425Y-96808972D01*
X116924419Y-96808970D01*
X116726203Y-96769543D01*
X116726199Y-96769543D01*
X116720535Y-96768416D01*
X116714760Y-96768340D01*
X116714756Y-96768340D01*
X116607497Y-96766936D01*
X116506901Y-96765619D01*
X116501204Y-96766598D01*
X116501203Y-96766598D01*
X116302031Y-96800822D01*
X116296334Y-96801801D01*
X116095887Y-96875750D01*
X116090926Y-96878702D01*
X116090925Y-96878702D01*
X115917240Y-96982033D01*
X115917237Y-96982035D01*
X115912272Y-96984989D01*
X115907932Y-96988795D01*
X115907928Y-96988798D01*
X115755981Y-97122053D01*
X115751640Y-97125860D01*
X115619369Y-97293645D01*
X115616680Y-97298756D01*
X115616678Y-97298759D01*
X115603044Y-97324674D01*
X115519889Y-97482725D01*
X115518175Y-97488246D01*
X115518173Y-97488250D01*
X115512683Y-97505933D01*
X115456532Y-97686767D01*
X115431420Y-97898939D01*
X115445394Y-98112134D01*
X115497985Y-98319213D01*
X115587433Y-98513240D01*
X115590766Y-98517956D01*
X115622186Y-98562414D01*
X115710741Y-98687718D01*
X115863781Y-98836802D01*
X116041427Y-98955501D01*
X116046730Y-98957779D01*
X116046733Y-98957781D01*
X116232422Y-99037559D01*
X116237729Y-99039839D01*
X116339493Y-99062866D01*
X116440477Y-99085717D01*
X116440480Y-99085717D01*
X116446113Y-99086992D01*
X116451884Y-99087219D01*
X116451886Y-99087219D01*
X116516863Y-99089772D01*
X116659601Y-99095380D01*
X116765322Y-99080051D01*
X116865329Y-99065551D01*
X116865334Y-99065550D01*
X116871043Y-99064722D01*
X116876507Y-99062867D01*
X116876512Y-99062866D01*
X117067889Y-98997902D01*
X117073357Y-98996046D01*
X117259768Y-98891651D01*
X117424033Y-98755033D01*
X117544298Y-98610430D01*
X117603234Y-98570847D01*
X117641171Y-98565000D01*
X118399480Y-98565000D01*
X118410714Y-98565530D01*
X118418219Y-98567208D01*
X118486512Y-98565062D01*
X118490469Y-98565000D01*
X118518483Y-98565000D01*
X118522408Y-98564504D01*
X118522409Y-98564504D01*
X118522504Y-98564492D01*
X118534349Y-98563559D01*
X118564170Y-98562622D01*
X118570782Y-98562414D01*
X118570783Y-98562414D01*
X118578705Y-98562165D01*
X118598249Y-98556487D01*
X118617612Y-98552477D01*
X118629940Y-98550920D01*
X118629942Y-98550920D01*
X118637799Y-98549927D01*
X118645163Y-98547011D01*
X118645168Y-98547010D01*
X118679056Y-98533593D01*
X118690285Y-98529748D01*
X118706965Y-98524902D01*
X118732893Y-98517369D01*
X118739720Y-98513331D01*
X118739723Y-98513330D01*
X118750406Y-98507012D01*
X118768164Y-98498312D01*
X118779715Y-98493739D01*
X118779721Y-98493735D01*
X118787088Y-98490819D01*
X118822991Y-98464734D01*
X118832910Y-98458219D01*
X118864268Y-98439674D01*
X118864272Y-98439671D01*
X118871098Y-98435634D01*
X118885482Y-98421250D01*
X118900516Y-98408409D01*
X118910573Y-98401102D01*
X118916987Y-98396442D01*
X118945278Y-98362244D01*
X118953267Y-98353465D01*
X123329483Y-93977250D01*
X123337809Y-93969674D01*
X123344303Y-93965553D01*
X123391086Y-93915734D01*
X123393840Y-93912893D01*
X123413639Y-93893094D01*
X123416063Y-93889969D01*
X123416071Y-93889960D01*
X123416137Y-93889874D01*
X123423845Y-93880849D01*
X123448790Y-93854285D01*
X123454217Y-93848506D01*
X123464023Y-93830669D01*
X123474873Y-93814153D01*
X123487350Y-93798067D01*
X123504976Y-93757334D01*
X123510193Y-93746686D01*
X123527749Y-93714751D01*
X123531569Y-93707803D01*
X123533540Y-93700128D01*
X123533542Y-93700122D01*
X123536631Y-93688089D01*
X123543034Y-93669387D01*
X123551117Y-93650708D01*
X123558060Y-93606873D01*
X123560467Y-93595251D01*
X123571500Y-93552282D01*
X123571500Y-93531935D01*
X123573051Y-93512224D01*
X123574995Y-93499950D01*
X123576235Y-93492121D01*
X123572059Y-93447944D01*
X123571500Y-93436086D01*
X123571500Y-73739032D01*
X123572030Y-73727793D01*
X123573709Y-73720281D01*
X123573099Y-73700855D01*
X123571562Y-73651970D01*
X123571500Y-73648012D01*
X123571500Y-73620017D01*
X123570992Y-73615994D01*
X123570059Y-73604152D01*
X123569885Y-73598596D01*
X123568665Y-73559795D01*
X123562987Y-73540251D01*
X123558977Y-73520888D01*
X123557420Y-73508560D01*
X123557420Y-73508558D01*
X123556427Y-73500701D01*
X123553511Y-73493337D01*
X123553510Y-73493332D01*
X123540093Y-73459444D01*
X123536248Y-73448215D01*
X123531154Y-73430682D01*
X123523869Y-73405607D01*
X123513510Y-73388091D01*
X123504813Y-73370341D01*
X123497319Y-73351412D01*
X123471238Y-73315514D01*
X123464722Y-73305594D01*
X123446173Y-73274229D01*
X123446171Y-73274226D01*
X123442135Y-73267402D01*
X123427747Y-73253014D01*
X123414906Y-73237980D01*
X123407602Y-73227927D01*
X123402942Y-73221513D01*
X123368750Y-73193227D01*
X123359971Y-73185238D01*
X112825601Y-62650868D01*
X112791575Y-62588556D01*
X112796640Y-62517741D01*
X112807436Y-62495657D01*
X112888499Y-62364150D01*
X112888500Y-62364148D01*
X112892339Y-62357920D01*
X112947104Y-62192809D01*
X112957630Y-62090072D01*
X112957630Y-61515928D01*
X112957293Y-61512678D01*
X112947549Y-61418765D01*
X112947548Y-61418761D01*
X112946837Y-61411907D01*
X112920016Y-61331513D01*
X112894102Y-61253841D01*
X112891784Y-61246893D01*
X112846890Y-61174345D01*
X112828053Y-61105893D01*
X112849215Y-61038124D01*
X112899657Y-60994381D01*
X112906305Y-60991200D01*
X112913787Y-60988710D01*
X113036742Y-60909692D01*
X113090398Y-60863199D01*
X113146018Y-60799010D01*
X113180211Y-60759550D01*
X113180213Y-60759547D01*
X113186112Y-60752739D01*
X113246828Y-60619790D01*
X113266830Y-60551669D01*
X113271463Y-60519450D01*
X113286991Y-60411447D01*
X113286991Y-60411442D01*
X113287630Y-60407000D01*
X113287630Y-53040000D01*
X125468777Y-53040000D01*
X125488152Y-53261463D01*
X125545690Y-53476196D01*
X125548012Y-53481177D01*
X125548013Y-53481178D01*
X125637316Y-53672689D01*
X125637319Y-53672694D01*
X125639642Y-53677676D01*
X125642798Y-53682183D01*
X125642799Y-53682185D01*
X125709331Y-53777202D01*
X125767153Y-53859781D01*
X125924349Y-54016977D01*
X125928857Y-54020134D01*
X125928860Y-54020136D01*
X125979365Y-54055500D01*
X126106453Y-54144488D01*
X126111435Y-54146811D01*
X126111440Y-54146814D01*
X126302952Y-54236117D01*
X126307934Y-54238440D01*
X126313242Y-54239862D01*
X126313244Y-54239863D01*
X126379079Y-54257503D01*
X126522667Y-54295978D01*
X126744130Y-54315353D01*
X126965593Y-54295978D01*
X127109181Y-54257503D01*
X127175016Y-54239863D01*
X127175018Y-54239862D01*
X127180326Y-54238440D01*
X127185308Y-54236117D01*
X127376820Y-54146814D01*
X127376825Y-54146811D01*
X127381807Y-54144488D01*
X127508895Y-54055500D01*
X127559400Y-54020136D01*
X127559403Y-54020134D01*
X127563911Y-54016977D01*
X127721107Y-53859781D01*
X127778930Y-53777202D01*
X127845461Y-53682185D01*
X127845462Y-53682183D01*
X127848618Y-53677676D01*
X127850941Y-53672694D01*
X127850944Y-53672689D01*
X127940247Y-53481178D01*
X127940248Y-53481177D01*
X127942570Y-53476196D01*
X128000108Y-53261463D01*
X128019483Y-53040000D01*
X128000108Y-52818537D01*
X127942570Y-52603804D01*
X127940247Y-52598822D01*
X127850944Y-52407311D01*
X127850941Y-52407306D01*
X127848618Y-52402324D01*
X127771349Y-52291972D01*
X127724266Y-52224730D01*
X127724264Y-52224727D01*
X127721107Y-52220219D01*
X127563911Y-52063023D01*
X127559403Y-52059866D01*
X127559400Y-52059864D01*
X127483635Y-52006813D01*
X127381807Y-51935512D01*
X127376825Y-51933189D01*
X127376820Y-51933186D01*
X127185308Y-51843883D01*
X127185307Y-51843882D01*
X127180326Y-51841560D01*
X127175018Y-51840138D01*
X127175016Y-51840137D01*
X127109181Y-51822497D01*
X126965593Y-51784022D01*
X126744130Y-51764647D01*
X126522667Y-51784022D01*
X126379079Y-51822497D01*
X126313244Y-51840137D01*
X126313242Y-51840138D01*
X126307934Y-51841560D01*
X126302953Y-51843882D01*
X126302952Y-51843883D01*
X126111441Y-51933186D01*
X126111436Y-51933189D01*
X126106454Y-51935512D01*
X126101947Y-51938668D01*
X126101945Y-51938669D01*
X125928860Y-52059864D01*
X125928857Y-52059866D01*
X125924349Y-52063023D01*
X125767153Y-52220219D01*
X125763996Y-52224727D01*
X125763994Y-52224730D01*
X125716911Y-52291972D01*
X125639642Y-52402324D01*
X125637319Y-52407306D01*
X125637316Y-52407311D01*
X125548013Y-52598822D01*
X125545690Y-52603804D01*
X125488152Y-52818537D01*
X125468777Y-53040000D01*
X113287630Y-53040000D01*
X113287630Y-44446880D01*
X123361122Y-44446880D01*
X123361485Y-44451028D01*
X123361485Y-44451032D01*
X123386617Y-44738293D01*
X123386618Y-44738301D01*
X123386982Y-44742459D01*
X123387896Y-44746548D01*
X123432377Y-44945542D01*
X123451707Y-45032021D01*
X123453149Y-45035941D01*
X123453151Y-45035947D01*
X123552712Y-45306548D01*
X123554159Y-45310480D01*
X123692540Y-45572942D01*
X123864418Y-45814797D01*
X124066772Y-46031796D01*
X124296048Y-46220125D01*
X124548218Y-46376477D01*
X124818852Y-46498105D01*
X124991520Y-46549580D01*
X125099195Y-46581679D01*
X125099197Y-46581679D01*
X125103194Y-46582871D01*
X125107314Y-46583524D01*
X125107316Y-46583524D01*
X125226236Y-46602359D01*
X125396249Y-46629286D01*
X125441276Y-46631331D01*
X125487627Y-46633436D01*
X125487646Y-46633436D01*
X125489046Y-46633500D01*
X125674394Y-46633500D01*
X125895186Y-46618835D01*
X126186040Y-46560188D01*
X126454966Y-46467590D01*
X126462619Y-46464955D01*
X126462620Y-46464954D01*
X126466583Y-46463590D01*
X126470326Y-46461716D01*
X126470330Y-46461714D01*
X126728142Y-46332611D01*
X126728144Y-46332610D01*
X126731886Y-46330736D01*
X126885518Y-46226328D01*
X126973829Y-46166312D01*
X126973832Y-46166310D01*
X126977288Y-46163961D01*
X127198476Y-45966196D01*
X127391566Y-45740914D01*
X127498051Y-45576942D01*
X127550893Y-45495572D01*
X127550895Y-45495569D01*
X127553165Y-45492073D01*
X127680434Y-45224046D01*
X127740826Y-45035947D01*
X127769856Y-44945530D01*
X127769857Y-44945524D01*
X127771136Y-44941542D01*
X127806237Y-44746459D01*
X127822939Y-44653632D01*
X127822940Y-44653627D01*
X127823678Y-44649523D01*
X127832699Y-44450880D01*
X128189122Y-44450880D01*
X128189485Y-44455028D01*
X128189485Y-44455032D01*
X128214617Y-44742293D01*
X128214618Y-44742301D01*
X128214982Y-44746459D01*
X128279707Y-45036021D01*
X128281149Y-45039941D01*
X128281151Y-45039947D01*
X128380687Y-45310480D01*
X128382159Y-45314480D01*
X128520540Y-45576942D01*
X128692418Y-45818797D01*
X128894772Y-46035796D01*
X129124048Y-46224125D01*
X129376218Y-46380477D01*
X129646852Y-46502105D01*
X129819520Y-46553580D01*
X129927195Y-46585679D01*
X129927197Y-46585679D01*
X129931194Y-46586871D01*
X129935314Y-46587524D01*
X129935316Y-46587524D01*
X130054236Y-46606359D01*
X130224249Y-46633286D01*
X130269276Y-46635331D01*
X130315627Y-46637436D01*
X130315646Y-46637436D01*
X130317046Y-46637500D01*
X130502394Y-46637500D01*
X130723186Y-46622835D01*
X131014040Y-46564188D01*
X131294583Y-46467590D01*
X131298326Y-46465716D01*
X131298330Y-46465714D01*
X131556142Y-46336611D01*
X131556144Y-46336610D01*
X131559886Y-46334736D01*
X131722645Y-46224125D01*
X131801829Y-46170312D01*
X131801832Y-46170310D01*
X131805288Y-46167961D01*
X132026476Y-45970196D01*
X132029905Y-45966196D01*
X132216848Y-45748085D01*
X132219566Y-45744914D01*
X132222164Y-45740914D01*
X132378893Y-45499572D01*
X132378895Y-45499569D01*
X132381165Y-45496073D01*
X132383065Y-45492073D01*
X132429759Y-45393734D01*
X132508434Y-45228046D01*
X132568826Y-45039947D01*
X132597856Y-44949530D01*
X132597857Y-44949524D01*
X132599136Y-44945542D01*
X132634221Y-44750548D01*
X132650939Y-44657632D01*
X132650940Y-44657627D01*
X132651678Y-44653523D01*
X132652050Y-44645349D01*
X132664949Y-44361290D01*
X132664949Y-44361285D01*
X132665138Y-44357120D01*
X132664425Y-44348968D01*
X132639643Y-44065707D01*
X132639642Y-44065699D01*
X132639278Y-44061541D01*
X132574553Y-43771979D01*
X132573082Y-43767979D01*
X132473548Y-43497452D01*
X132473546Y-43497448D01*
X132472101Y-43493520D01*
X132333720Y-43231058D01*
X132161842Y-42989203D01*
X131959488Y-42772204D01*
X131730212Y-42583875D01*
X131478042Y-42427523D01*
X131207408Y-42305895D01*
X131034740Y-42254420D01*
X130927065Y-42222321D01*
X130927063Y-42222321D01*
X130923066Y-42221129D01*
X130918946Y-42220476D01*
X130918944Y-42220476D01*
X130800024Y-42201641D01*
X130630011Y-42174714D01*
X130584984Y-42172669D01*
X130538633Y-42170564D01*
X130538614Y-42170564D01*
X130537214Y-42170500D01*
X130351866Y-42170500D01*
X130131074Y-42185165D01*
X129840220Y-42243812D01*
X129666550Y-42303611D01*
X129565846Y-42338286D01*
X129559677Y-42340410D01*
X129555934Y-42342284D01*
X129555930Y-42342286D01*
X129381309Y-42429730D01*
X129294374Y-42473264D01*
X129290909Y-42475619D01*
X129054858Y-42636039D01*
X129048972Y-42640039D01*
X128827784Y-42837804D01*
X128634694Y-43063086D01*
X128632420Y-43066588D01*
X128632419Y-43066589D01*
X128475693Y-43307927D01*
X128473095Y-43311927D01*
X128345826Y-43579954D01*
X128344547Y-43583937D01*
X128344546Y-43583940D01*
X128257689Y-43854470D01*
X128255124Y-43862458D01*
X128254383Y-43866577D01*
X128219304Y-44061541D01*
X128202582Y-44154477D01*
X128202393Y-44158644D01*
X128202392Y-44158651D01*
X128193372Y-44357290D01*
X128189122Y-44450880D01*
X127832699Y-44450880D01*
X127832881Y-44446880D01*
X127836949Y-44357290D01*
X127836949Y-44357285D01*
X127837138Y-44353120D01*
X127820124Y-44158651D01*
X127811643Y-44061707D01*
X127811642Y-44061699D01*
X127811278Y-44057541D01*
X127746553Y-43767979D01*
X127678841Y-43583940D01*
X127645548Y-43493452D01*
X127645546Y-43493448D01*
X127644101Y-43489520D01*
X127505720Y-43227058D01*
X127333842Y-42985203D01*
X127131488Y-42768204D01*
X126902212Y-42579875D01*
X126650042Y-42423523D01*
X126379408Y-42301895D01*
X126181802Y-42242986D01*
X126099065Y-42218321D01*
X126099063Y-42218321D01*
X126095066Y-42217129D01*
X126090946Y-42216476D01*
X126090944Y-42216476D01*
X125898473Y-42185992D01*
X125802011Y-42170714D01*
X125756984Y-42168669D01*
X125710633Y-42166564D01*
X125710614Y-42166564D01*
X125709214Y-42166500D01*
X125523866Y-42166500D01*
X125303074Y-42181165D01*
X125012220Y-42239812D01*
X124731677Y-42336410D01*
X124727934Y-42338284D01*
X124727930Y-42338286D01*
X124545321Y-42429730D01*
X124466374Y-42469264D01*
X124462909Y-42471619D01*
X124300971Y-42581672D01*
X124220972Y-42636039D01*
X123999784Y-42833804D01*
X123997067Y-42836974D01*
X123997066Y-42836975D01*
X123993638Y-42840975D01*
X123806694Y-43059086D01*
X123804420Y-43062588D01*
X123804419Y-43062589D01*
X123699828Y-43223646D01*
X123645095Y-43307927D01*
X123643307Y-43311693D01*
X123643304Y-43311698D01*
X123641405Y-43315698D01*
X123517826Y-43575954D01*
X123516547Y-43579937D01*
X123516546Y-43579940D01*
X123456150Y-43768053D01*
X123427124Y-43858458D01*
X123426383Y-43862577D01*
X123391304Y-44057541D01*
X123374582Y-44150477D01*
X123374393Y-44154644D01*
X123374392Y-44154651D01*
X123361311Y-44442710D01*
X123361122Y-44446880D01*
X113287630Y-44446880D01*
X113287630Y-41609000D01*
X113279809Y-41536250D01*
X113276258Y-41503215D01*
X113276257Y-41503208D01*
X113275896Y-41499851D01*
X113273289Y-41487865D01*
X113265224Y-41450790D01*
X113265223Y-41450785D01*
X113264510Y-41447509D01*
X113229840Y-41343343D01*
X113150822Y-41220388D01*
X113131516Y-41198107D01*
X113107269Y-41170125D01*
X113104329Y-41166732D01*
X113095063Y-41158703D01*
X113000680Y-41076919D01*
X113000677Y-41076917D01*
X112993869Y-41071018D01*
X112860920Y-41010302D01*
X112826846Y-41000297D01*
X112797122Y-40991569D01*
X112797118Y-40991568D01*
X112792799Y-40990300D01*
X112788350Y-40989660D01*
X112788344Y-40989659D01*
X112652577Y-40970139D01*
X112652572Y-40970139D01*
X112648130Y-40969500D01*
X103248130Y-40969500D01*
X103244784Y-40969860D01*
X103244779Y-40969860D01*
X103142345Y-40980872D01*
X103142338Y-40980873D01*
X103138981Y-40981234D01*
X103135681Y-40981952D01*
X103135680Y-40981952D01*
X103089920Y-40991906D01*
X103089915Y-40991907D01*
X103086639Y-40992620D01*
X102982473Y-41027290D01*
X102859518Y-41106308D01*
X102805862Y-41152801D01*
X102802922Y-41156194D01*
X102716049Y-41256450D01*
X102716047Y-41256453D01*
X102710148Y-41263261D01*
X102649432Y-41396210D01*
X102648164Y-41400529D01*
X102635056Y-41445172D01*
X102629430Y-41464331D01*
X102628790Y-41468780D01*
X102628789Y-41468786D01*
X102609269Y-41604553D01*
X102608630Y-41609000D01*
X102608630Y-53929500D01*
X102588628Y-53997621D01*
X102534972Y-54044114D01*
X102482630Y-54055500D01*
X93301858Y-54055500D01*
X93233737Y-54035498D01*
X93197727Y-53998869D01*
X93197647Y-53998932D01*
X93197055Y-53998186D01*
X93194716Y-53995806D01*
X93193101Y-53993197D01*
X93193096Y-53993191D01*
X93189246Y-53986969D01*
X93174192Y-53971941D01*
X93071314Y-53869242D01*
X93071309Y-53869238D01*
X93066133Y-53864071D01*
X93059902Y-53860230D01*
X92924280Y-53776631D01*
X92924278Y-53776630D01*
X92918050Y-53772791D01*
X92752939Y-53718026D01*
X92746103Y-53717326D01*
X92746100Y-53717325D01*
X92694604Y-53712049D01*
X92650202Y-53707500D01*
X92051058Y-53707500D01*
X92047812Y-53707837D01*
X92047808Y-53707837D01*
X91953895Y-53717581D01*
X91953891Y-53717582D01*
X91947037Y-53718293D01*
X91940501Y-53720474D01*
X91940499Y-53720474D01*
X91807735Y-53764768D01*
X91782023Y-53773346D01*
X91634099Y-53864884D01*
X91628926Y-53870066D01*
X91527383Y-53971786D01*
X91465100Y-54005865D01*
X91394280Y-54000862D01*
X91349193Y-53971941D01*
X91246318Y-53869246D01*
X91246313Y-53869242D01*
X91241133Y-53864071D01*
X91234902Y-53860230D01*
X91099280Y-53776631D01*
X91099278Y-53776630D01*
X91093050Y-53772791D01*
X90927939Y-53718026D01*
X90921103Y-53717326D01*
X90921100Y-53717325D01*
X90869604Y-53712049D01*
X90825202Y-53707500D01*
X90226058Y-53707500D01*
X90222812Y-53707837D01*
X90222808Y-53707837D01*
X90128895Y-53717581D01*
X90128891Y-53717582D01*
X90122037Y-53718293D01*
X90115501Y-53720474D01*
X90115499Y-53720474D01*
X89982735Y-53764768D01*
X89957023Y-53773346D01*
X89809099Y-53864884D01*
X89686201Y-53987997D01*
X89682363Y-53994224D01*
X89682361Y-53994226D01*
X89681505Y-53995616D01*
X89680672Y-53996365D01*
X89677824Y-53999972D01*
X89677207Y-53999484D01*
X89628733Y-54043109D01*
X89574245Y-54055500D01*
X89364858Y-54055500D01*
X89296737Y-54035498D01*
X89260727Y-53998869D01*
X89260647Y-53998932D01*
X89260055Y-53998186D01*
X89257716Y-53995806D01*
X89256101Y-53993197D01*
X89256096Y-53993191D01*
X89252246Y-53986969D01*
X89237192Y-53971941D01*
X89134314Y-53869242D01*
X89134309Y-53869238D01*
X89129133Y-53864071D01*
X89122902Y-53860230D01*
X88987280Y-53776631D01*
X88987278Y-53776630D01*
X88981050Y-53772791D01*
X88815939Y-53718026D01*
X88809103Y-53717326D01*
X88809100Y-53717325D01*
X88757604Y-53712049D01*
X88713202Y-53707500D01*
X88039058Y-53707500D01*
X88035812Y-53707837D01*
X88035808Y-53707837D01*
X87941895Y-53717581D01*
X87941891Y-53717582D01*
X87935037Y-53718293D01*
X87928501Y-53720474D01*
X87928499Y-53720474D01*
X87795735Y-53764768D01*
X87770023Y-53773346D01*
X87622099Y-53864884D01*
X87616926Y-53870066D01*
X87504372Y-53982816D01*
X87504368Y-53982821D01*
X87499201Y-53987997D01*
X87495361Y-53994227D01*
X87495360Y-53994228D01*
X87483740Y-54013080D01*
X87407921Y-54136080D01*
X87353156Y-54301191D01*
X87342630Y-54403928D01*
X87342630Y-54978072D01*
X55372500Y-54978072D01*
X55372500Y-52287487D01*
X55371865Y-52283051D01*
X55371546Y-52278575D01*
X55371565Y-52278574D01*
X55370630Y-52265449D01*
X55370630Y-50501000D01*
X70604630Y-50501000D01*
X70616364Y-50610149D01*
X70617082Y-50613449D01*
X70617082Y-50613450D01*
X70624091Y-50645669D01*
X70627750Y-50662491D01*
X70662420Y-50766657D01*
X70741438Y-50889612D01*
X70787931Y-50943268D01*
X70791324Y-50946208D01*
X70891580Y-51033081D01*
X70891583Y-51033083D01*
X70898391Y-51038982D01*
X71031340Y-51099698D01*
X71055094Y-51106673D01*
X71095138Y-51118431D01*
X71095142Y-51118432D01*
X71099461Y-51119700D01*
X71103910Y-51120340D01*
X71103916Y-51120341D01*
X71239683Y-51139861D01*
X71239688Y-51139861D01*
X71244130Y-51140500D01*
X85216130Y-51140500D01*
X85219476Y-51140140D01*
X85219481Y-51140140D01*
X85321915Y-51129128D01*
X85321922Y-51129127D01*
X85325279Y-51128766D01*
X85328580Y-51128048D01*
X85374340Y-51118094D01*
X85374345Y-51118093D01*
X85377621Y-51117380D01*
X85481787Y-51082710D01*
X85604742Y-51003692D01*
X85658398Y-50957199D01*
X85714018Y-50893010D01*
X85748211Y-50853550D01*
X85748213Y-50853547D01*
X85754112Y-50846739D01*
X85814828Y-50713790D01*
X85834830Y-50645669D01*
X85839463Y-50613450D01*
X85854991Y-50505447D01*
X85854991Y-50505442D01*
X85855630Y-50501000D01*
X85855630Y-41609000D01*
X85847809Y-41536250D01*
X85844258Y-41503215D01*
X85844257Y-41503208D01*
X85843896Y-41499851D01*
X85841289Y-41487865D01*
X85833224Y-41450790D01*
X85833223Y-41450785D01*
X85832510Y-41447509D01*
X85797840Y-41343343D01*
X85718822Y-41220388D01*
X85699516Y-41198107D01*
X85675269Y-41170125D01*
X85672329Y-41166732D01*
X85663063Y-41158703D01*
X85568680Y-41076919D01*
X85568677Y-41076917D01*
X85561869Y-41071018D01*
X85428920Y-41010302D01*
X85394846Y-41000297D01*
X85365122Y-40991569D01*
X85365118Y-40991568D01*
X85360799Y-40990300D01*
X85356350Y-40989660D01*
X85356344Y-40989659D01*
X85220577Y-40970139D01*
X85220572Y-40970139D01*
X85216130Y-40969500D01*
X71244130Y-40969500D01*
X71240784Y-40969860D01*
X71240779Y-40969860D01*
X71138345Y-40980872D01*
X71138338Y-40980873D01*
X71134981Y-40981234D01*
X71131681Y-40981952D01*
X71131680Y-40981952D01*
X71085920Y-40991906D01*
X71085915Y-40991907D01*
X71082639Y-40992620D01*
X70978473Y-41027290D01*
X70855518Y-41106308D01*
X70801862Y-41152801D01*
X70798922Y-41156194D01*
X70712049Y-41256450D01*
X70712047Y-41256453D01*
X70706148Y-41263261D01*
X70645432Y-41396210D01*
X70644164Y-41400529D01*
X70631056Y-41445172D01*
X70625430Y-41464331D01*
X70624790Y-41468780D01*
X70624789Y-41468786D01*
X70605269Y-41604553D01*
X70604630Y-41609000D01*
X70604630Y-50501000D01*
X55370630Y-50501000D01*
X55370630Y-41536250D01*
X55372376Y-41515345D01*
X55374900Y-41500344D01*
X55374900Y-41500341D01*
X55375706Y-41495552D01*
X55375859Y-41483000D01*
X55374287Y-41472021D01*
X55373336Y-41445172D01*
X55385494Y-41275177D01*
X55388052Y-41257383D01*
X55421445Y-41103878D01*
X55430427Y-41062590D01*
X55435491Y-41045342D01*
X55454759Y-40993682D01*
X55505159Y-40858556D01*
X55512626Y-40842208D01*
X55536405Y-40798662D01*
X55608160Y-40667255D01*
X55617878Y-40652132D01*
X55628213Y-40638327D01*
X55737347Y-40492543D01*
X55749119Y-40478958D01*
X55890077Y-40338002D01*
X55903664Y-40326229D01*
X56063250Y-40206767D01*
X56078374Y-40197048D01*
X56253333Y-40101515D01*
X56269686Y-40094047D01*
X56456461Y-40024386D01*
X56473708Y-40019322D01*
X56668505Y-39976949D01*
X56686298Y-39974391D01*
X56852856Y-39962481D01*
X56870204Y-39963202D01*
X56878973Y-39963309D01*
X56887846Y-39964691D01*
X56919418Y-39960563D01*
X56935753Y-39959500D01*
X132028761Y-39959500D01*
X132048148Y-39961001D01*
G37*
G04 #@! TD.AperFunction*
G04 #@! TA.AperFunction,Conductor*
G36*
X85284251Y-41503002D02*
G01*
X85330744Y-41556658D01*
X85342130Y-41609000D01*
X85342130Y-50501000D01*
X85322128Y-50569121D01*
X85268472Y-50615614D01*
X85216130Y-50627000D01*
X71244130Y-50627000D01*
X71176009Y-50606998D01*
X71129516Y-50553342D01*
X71118130Y-50501000D01*
X71118130Y-41609000D01*
X71138132Y-41540879D01*
X71191788Y-41494386D01*
X71244130Y-41483000D01*
X85216130Y-41483000D01*
X85284251Y-41503002D01*
G37*
G04 #@! TD.AperFunction*
M02*
