G04 #@! TF.GenerationSoftware,KiCad,Pcbnew,(6.0.7)*
G04 #@! TF.CreationDate,2022-11-19T15:20:26-06:00*
G04 #@! TF.ProjectId,2022-2023MultimediaBoard,32303232-2d32-4303-9233-4d756c74696d,rev?*
G04 #@! TF.SameCoordinates,Original*
G04 #@! TF.FileFunction,Copper,L2,Bot*
G04 #@! TF.FilePolarity,Positive*
%FSLAX46Y46*%
G04 Gerber Fmt 4.6, Leading zero omitted, Abs format (unit mm)*
G04 Created by KiCad (PCBNEW (6.0.7)) date 2022-11-19 15:20:26*
%MOMM*%
%LPD*%
G01*
G04 APERTURE LIST*
G04 #@! TA.AperFunction,ComponentPad*
%ADD10C,1.524000*%
G04 #@! TD*
G04 #@! TA.AperFunction,ComponentPad*
%ADD11O,5.100000X3.000000*%
G04 #@! TD*
G04 #@! TA.AperFunction,ComponentPad*
%ADD12C,1.100000*%
G04 #@! TD*
G04 #@! TA.AperFunction,ComponentPad*
%ADD13C,1.400000*%
G04 #@! TD*
G04 #@! TA.AperFunction,ComponentPad*
%ADD14C,4.000000*%
G04 #@! TD*
G04 #@! TA.AperFunction,ComponentPad*
%ADD15C,2.000000*%
G04 #@! TD*
G04 #@! TA.AperFunction,ComponentPad*
%ADD16R,1.350000X1.350000*%
G04 #@! TD*
G04 #@! TA.AperFunction,ComponentPad*
%ADD17O,1.350000X1.350000*%
G04 #@! TD*
G04 #@! TA.AperFunction,ComponentPad*
%ADD18C,1.308000*%
G04 #@! TD*
G04 #@! TA.AperFunction,ComponentPad*
%ADD19C,1.258000*%
G04 #@! TD*
G04 #@! TA.AperFunction,ComponentPad*
%ADD20C,1.208000*%
G04 #@! TD*
G04 #@! TA.AperFunction,ComponentPad*
%ADD21C,2.540000*%
G04 #@! TD*
G04 #@! TA.AperFunction,ComponentPad*
%ADD22O,3.000000X5.100000*%
G04 #@! TD*
G04 #@! TA.AperFunction,ViaPad*
%ADD23C,0.800000*%
G04 #@! TD*
G04 #@! TA.AperFunction,Conductor*
%ADD24C,0.200000*%
G04 #@! TD*
G04 #@! TA.AperFunction,Conductor*
%ADD25C,0.254000*%
G04 #@! TD*
G04 APERTURE END LIST*
D10*
X126744130Y-53040000D03*
X129284130Y-53040000D03*
D11*
X116317854Y-57679367D03*
X108443854Y-57679367D03*
D12*
X75042585Y-66379197D03*
X77582585Y-67649197D03*
X75042585Y-68919197D03*
X77582585Y-70189197D03*
X75042585Y-71459197D03*
X77582585Y-72729197D03*
X75042585Y-73999197D03*
X77582585Y-75269197D03*
D13*
X63612585Y-64499197D03*
X65402585Y-67039197D03*
X63612585Y-74609197D03*
X65402585Y-77149197D03*
D14*
X68692585Y-65109197D03*
X68692585Y-76539197D03*
D15*
X71742585Y-78699197D03*
X71742585Y-62949197D03*
D16*
X80704059Y-64962801D03*
D17*
X82704059Y-64962801D03*
X80704059Y-66962801D03*
X82704059Y-66962801D03*
X80704059Y-68962801D03*
X82704059Y-68962801D03*
D18*
X114058500Y-82689500D03*
X111518500Y-82689500D03*
X108978500Y-82689500D03*
X106438500Y-82689500D03*
X81038500Y-82689500D03*
X111518500Y-97929500D03*
X70878500Y-87769500D03*
X103898500Y-82689500D03*
X101358500Y-82689500D03*
D19*
X110248500Y-85739500D03*
D18*
X98818500Y-82689500D03*
X96278500Y-82689500D03*
X93738500Y-82689500D03*
X91198500Y-82689500D03*
X88658500Y-82689500D03*
X86118500Y-82689500D03*
X83578500Y-82689500D03*
X83578500Y-97929500D03*
X86118500Y-97929500D03*
X88658500Y-97929500D03*
X91198500Y-97929500D03*
X93738500Y-97929500D03*
X96278500Y-97929500D03*
X98818500Y-97929500D03*
X101358500Y-97929500D03*
X103898500Y-97929500D03*
X106438500Y-97929500D03*
X108978500Y-97929500D03*
X78498500Y-82689500D03*
X75958500Y-82689500D03*
X73418500Y-82689500D03*
X70878500Y-82689500D03*
X68338500Y-82689500D03*
X65798500Y-82689500D03*
X63258500Y-82689500D03*
X60718500Y-82689500D03*
X58178500Y-82689500D03*
X58178500Y-97929500D03*
X60718500Y-97929500D03*
X63258500Y-97929500D03*
X65798500Y-97929500D03*
X68338500Y-97929500D03*
X70878500Y-97929500D03*
X73418500Y-97929500D03*
X75958500Y-97929500D03*
X78498500Y-97929500D03*
D19*
X105168500Y-85739500D03*
X107708500Y-85739500D03*
D18*
X116598500Y-82689500D03*
X81038500Y-97929500D03*
X114058500Y-97929500D03*
X70878500Y-90309500D03*
D20*
X101628500Y-93479500D03*
X103628500Y-93479500D03*
D18*
X70878500Y-95389500D03*
X70878500Y-92849500D03*
D20*
X103628500Y-95479500D03*
X101628500Y-95479500D03*
X101628500Y-91479500D03*
X103628500Y-91479500D03*
D19*
X102628500Y-85739500D03*
X100088500Y-85739500D03*
D18*
X70878500Y-85229500D03*
X116598500Y-97929500D03*
X114058500Y-95389500D03*
D21*
X78232000Y-43277000D03*
X88392000Y-43277000D03*
X98552000Y-43277000D03*
X108691999Y-43277000D03*
D22*
X73027400Y-54056000D03*
X73027400Y-46182000D03*
D23*
X110744000Y-67564000D03*
D24*
X77997812Y-65963970D02*
X75042585Y-68919197D01*
X82704059Y-64988970D02*
X81729059Y-65963970D01*
X81729059Y-65963970D02*
X77997812Y-65963970D01*
X77849831Y-68994801D02*
X76325831Y-68994801D01*
X68882189Y-70518801D02*
X65402585Y-67039197D01*
X74801831Y-70518801D02*
X68882189Y-70518801D01*
X82704059Y-66962801D02*
X81688059Y-67978801D01*
X78865831Y-67978801D02*
X77849831Y-68994801D01*
X76325831Y-68994801D02*
X74801831Y-70518801D01*
X81688059Y-67978801D02*
X78865831Y-67978801D01*
X82704059Y-68962801D02*
X81477663Y-70189197D01*
X81477663Y-70189197D02*
X77582585Y-70189197D01*
D25*
X125268000Y-53040000D02*
X126744130Y-53040000D01*
X110744000Y-67564000D02*
X125268000Y-53040000D01*
G04 #@! TA.AperFunction,Conductor*
G36*
X132048148Y-39961001D02*
G01*
X132051109Y-39961462D01*
X132061204Y-39963034D01*
X132071844Y-39964691D01*
X132084517Y-39963034D01*
X132111836Y-39962450D01*
X132243476Y-39973970D01*
X132265104Y-39977784D01*
X132414788Y-40017894D01*
X132435425Y-40025405D01*
X132575873Y-40090900D01*
X132594893Y-40101882D01*
X132721828Y-40190766D01*
X132738652Y-40204883D01*
X132848228Y-40314460D01*
X132862346Y-40331285D01*
X132951231Y-40458228D01*
X132962212Y-40477249D01*
X133027699Y-40617690D01*
X133035211Y-40638327D01*
X133054186Y-40709140D01*
X133075320Y-40788013D01*
X133079134Y-40809644D01*
X133090058Y-40934514D01*
X133089508Y-40950870D01*
X133089930Y-40950875D01*
X133089821Y-40959851D01*
X133088439Y-40968724D01*
X133092569Y-41000306D01*
X133093631Y-41016628D01*
X133095067Y-87164674D01*
X133095438Y-99086992D01*
X133095496Y-100965996D01*
X133075496Y-101034117D01*
X133021842Y-101080612D01*
X132969496Y-101092000D01*
X55498500Y-101092000D01*
X55430379Y-101071998D01*
X55383886Y-101018342D01*
X55372500Y-100966000D01*
X55372500Y-97898939D01*
X57011420Y-97898939D01*
X57025394Y-98112134D01*
X57077985Y-98319213D01*
X57167433Y-98513240D01*
X57290741Y-98687718D01*
X57443781Y-98836802D01*
X57621427Y-98955501D01*
X57626730Y-98957779D01*
X57626733Y-98957781D01*
X57812422Y-99037559D01*
X57817729Y-99039839D01*
X57919493Y-99062866D01*
X58020477Y-99085717D01*
X58020480Y-99085717D01*
X58026113Y-99086992D01*
X58031884Y-99087219D01*
X58031886Y-99087219D01*
X58096863Y-99089772D01*
X58239601Y-99095380D01*
X58345322Y-99080051D01*
X58445329Y-99065551D01*
X58445334Y-99065550D01*
X58451043Y-99064722D01*
X58456507Y-99062867D01*
X58456512Y-99062866D01*
X58647889Y-98997902D01*
X58653357Y-98996046D01*
X58839768Y-98891651D01*
X59004033Y-98755033D01*
X59140651Y-98590768D01*
X59245046Y-98404357D01*
X59313722Y-98202043D01*
X59322590Y-98140879D01*
X59352160Y-98076335D01*
X59411931Y-98038022D01*
X59482928Y-98038106D01*
X59542608Y-98076561D01*
X59569409Y-98127945D01*
X59588228Y-98202043D01*
X59617985Y-98319213D01*
X59707433Y-98513240D01*
X59830741Y-98687718D01*
X59983781Y-98836802D01*
X60161427Y-98955501D01*
X60166730Y-98957779D01*
X60166733Y-98957781D01*
X60352422Y-99037559D01*
X60357729Y-99039839D01*
X60459493Y-99062866D01*
X60560477Y-99085717D01*
X60560480Y-99085717D01*
X60566113Y-99086992D01*
X60571884Y-99087219D01*
X60571886Y-99087219D01*
X60636863Y-99089772D01*
X60779601Y-99095380D01*
X60885322Y-99080051D01*
X60985329Y-99065551D01*
X60985334Y-99065550D01*
X60991043Y-99064722D01*
X60996507Y-99062867D01*
X60996512Y-99062866D01*
X61187889Y-98997902D01*
X61193357Y-98996046D01*
X61379768Y-98891651D01*
X61544033Y-98755033D01*
X61680651Y-98590768D01*
X61785046Y-98404357D01*
X61853722Y-98202043D01*
X61862590Y-98140879D01*
X61892160Y-98076335D01*
X61951931Y-98038022D01*
X62022928Y-98038106D01*
X62082608Y-98076561D01*
X62109409Y-98127945D01*
X62128228Y-98202043D01*
X62157985Y-98319213D01*
X62247433Y-98513240D01*
X62370741Y-98687718D01*
X62523781Y-98836802D01*
X62701427Y-98955501D01*
X62706730Y-98957779D01*
X62706733Y-98957781D01*
X62892422Y-99037559D01*
X62897729Y-99039839D01*
X62999493Y-99062866D01*
X63100477Y-99085717D01*
X63100480Y-99085717D01*
X63106113Y-99086992D01*
X63111884Y-99087219D01*
X63111886Y-99087219D01*
X63176863Y-99089772D01*
X63319601Y-99095380D01*
X63425322Y-99080051D01*
X63525329Y-99065551D01*
X63525334Y-99065550D01*
X63531043Y-99064722D01*
X63536507Y-99062867D01*
X63536512Y-99062866D01*
X63727889Y-98997902D01*
X63733357Y-98996046D01*
X63919768Y-98891651D01*
X64084033Y-98755033D01*
X64220651Y-98590768D01*
X64325046Y-98404357D01*
X64393722Y-98202043D01*
X64402590Y-98140879D01*
X64432160Y-98076335D01*
X64491931Y-98038022D01*
X64562928Y-98038106D01*
X64622608Y-98076561D01*
X64649409Y-98127945D01*
X64668228Y-98202043D01*
X64697985Y-98319213D01*
X64787433Y-98513240D01*
X64910741Y-98687718D01*
X65063781Y-98836802D01*
X65241427Y-98955501D01*
X65246730Y-98957779D01*
X65246733Y-98957781D01*
X65432422Y-99037559D01*
X65437729Y-99039839D01*
X65539493Y-99062866D01*
X65640477Y-99085717D01*
X65640480Y-99085717D01*
X65646113Y-99086992D01*
X65651884Y-99087219D01*
X65651886Y-99087219D01*
X65716863Y-99089772D01*
X65859601Y-99095380D01*
X65965322Y-99080051D01*
X66065329Y-99065551D01*
X66065334Y-99065550D01*
X66071043Y-99064722D01*
X66076507Y-99062867D01*
X66076512Y-99062866D01*
X66267889Y-98997902D01*
X66273357Y-98996046D01*
X66459768Y-98891651D01*
X66624033Y-98755033D01*
X66760651Y-98590768D01*
X66865046Y-98404357D01*
X66933722Y-98202043D01*
X66942590Y-98140879D01*
X66972160Y-98076335D01*
X67031931Y-98038022D01*
X67102928Y-98038106D01*
X67162608Y-98076561D01*
X67189409Y-98127945D01*
X67208228Y-98202043D01*
X67237985Y-98319213D01*
X67327433Y-98513240D01*
X67450741Y-98687718D01*
X67603781Y-98836802D01*
X67781427Y-98955501D01*
X67786730Y-98957779D01*
X67786733Y-98957781D01*
X67972422Y-99037559D01*
X67977729Y-99039839D01*
X68079493Y-99062866D01*
X68180477Y-99085717D01*
X68180480Y-99085717D01*
X68186113Y-99086992D01*
X68191884Y-99087219D01*
X68191886Y-99087219D01*
X68256863Y-99089772D01*
X68399601Y-99095380D01*
X68505322Y-99080051D01*
X68605329Y-99065551D01*
X68605334Y-99065550D01*
X68611043Y-99064722D01*
X68616507Y-99062867D01*
X68616512Y-99062866D01*
X68807889Y-98997902D01*
X68813357Y-98996046D01*
X68999768Y-98891651D01*
X69164033Y-98755033D01*
X69300651Y-98590768D01*
X69405046Y-98404357D01*
X69473722Y-98202043D01*
X69482590Y-98140879D01*
X69512160Y-98076335D01*
X69571931Y-98038022D01*
X69642928Y-98038106D01*
X69702608Y-98076561D01*
X69729409Y-98127945D01*
X69748228Y-98202043D01*
X69777985Y-98319213D01*
X69867433Y-98513240D01*
X69990741Y-98687718D01*
X70143781Y-98836802D01*
X70321427Y-98955501D01*
X70326730Y-98957779D01*
X70326733Y-98957781D01*
X70512422Y-99037559D01*
X70517729Y-99039839D01*
X70619493Y-99062866D01*
X70720477Y-99085717D01*
X70720480Y-99085717D01*
X70726113Y-99086992D01*
X70731884Y-99087219D01*
X70731886Y-99087219D01*
X70796863Y-99089772D01*
X70939601Y-99095380D01*
X71045322Y-99080051D01*
X71145329Y-99065551D01*
X71145334Y-99065550D01*
X71151043Y-99064722D01*
X71156507Y-99062867D01*
X71156512Y-99062866D01*
X71347889Y-98997902D01*
X71353357Y-98996046D01*
X71539768Y-98891651D01*
X71704033Y-98755033D01*
X71840651Y-98590768D01*
X71945046Y-98404357D01*
X72013722Y-98202043D01*
X72022590Y-98140879D01*
X72052160Y-98076335D01*
X72111931Y-98038022D01*
X72182928Y-98038106D01*
X72242608Y-98076561D01*
X72269409Y-98127945D01*
X72288228Y-98202043D01*
X72317985Y-98319213D01*
X72407433Y-98513240D01*
X72530741Y-98687718D01*
X72683781Y-98836802D01*
X72861427Y-98955501D01*
X72866730Y-98957779D01*
X72866733Y-98957781D01*
X73052422Y-99037559D01*
X73057729Y-99039839D01*
X73159493Y-99062866D01*
X73260477Y-99085717D01*
X73260480Y-99085717D01*
X73266113Y-99086992D01*
X73271884Y-99087219D01*
X73271886Y-99087219D01*
X73336863Y-99089772D01*
X73479601Y-99095380D01*
X73585322Y-99080051D01*
X73685329Y-99065551D01*
X73685334Y-99065550D01*
X73691043Y-99064722D01*
X73696507Y-99062867D01*
X73696512Y-99062866D01*
X73887889Y-98997902D01*
X73893357Y-98996046D01*
X74079768Y-98891651D01*
X74244033Y-98755033D01*
X74380651Y-98590768D01*
X74485046Y-98404357D01*
X74553722Y-98202043D01*
X74562590Y-98140879D01*
X74592160Y-98076335D01*
X74651931Y-98038022D01*
X74722928Y-98038106D01*
X74782608Y-98076561D01*
X74809409Y-98127945D01*
X74828228Y-98202043D01*
X74857985Y-98319213D01*
X74947433Y-98513240D01*
X75070741Y-98687718D01*
X75223781Y-98836802D01*
X75401427Y-98955501D01*
X75406730Y-98957779D01*
X75406733Y-98957781D01*
X75592422Y-99037559D01*
X75597729Y-99039839D01*
X75699493Y-99062866D01*
X75800477Y-99085717D01*
X75800480Y-99085717D01*
X75806113Y-99086992D01*
X75811884Y-99087219D01*
X75811886Y-99087219D01*
X75876863Y-99089772D01*
X76019601Y-99095380D01*
X76125322Y-99080051D01*
X76225329Y-99065551D01*
X76225334Y-99065550D01*
X76231043Y-99064722D01*
X76236507Y-99062867D01*
X76236512Y-99062866D01*
X76427889Y-98997902D01*
X76433357Y-98996046D01*
X76619768Y-98891651D01*
X76784033Y-98755033D01*
X76920651Y-98590768D01*
X77025046Y-98404357D01*
X77093722Y-98202043D01*
X77102590Y-98140879D01*
X77132160Y-98076335D01*
X77191931Y-98038022D01*
X77262928Y-98038106D01*
X77322608Y-98076561D01*
X77349409Y-98127945D01*
X77368228Y-98202043D01*
X77397985Y-98319213D01*
X77487433Y-98513240D01*
X77610741Y-98687718D01*
X77763781Y-98836802D01*
X77941427Y-98955501D01*
X77946730Y-98957779D01*
X77946733Y-98957781D01*
X78132422Y-99037559D01*
X78137729Y-99039839D01*
X78239493Y-99062866D01*
X78340477Y-99085717D01*
X78340480Y-99085717D01*
X78346113Y-99086992D01*
X78351884Y-99087219D01*
X78351886Y-99087219D01*
X78416863Y-99089772D01*
X78559601Y-99095380D01*
X78665322Y-99080051D01*
X78765329Y-99065551D01*
X78765334Y-99065550D01*
X78771043Y-99064722D01*
X78776507Y-99062867D01*
X78776512Y-99062866D01*
X78967889Y-98997902D01*
X78973357Y-98996046D01*
X79159768Y-98891651D01*
X79324033Y-98755033D01*
X79460651Y-98590768D01*
X79565046Y-98404357D01*
X79633722Y-98202043D01*
X79642591Y-98140880D01*
X79663847Y-97994275D01*
X79664380Y-97990601D01*
X79665980Y-97929500D01*
X79663172Y-97898939D01*
X82411420Y-97898939D01*
X82425394Y-98112134D01*
X82477985Y-98319213D01*
X82567433Y-98513240D01*
X82690741Y-98687718D01*
X82843781Y-98836802D01*
X83021427Y-98955501D01*
X83026730Y-98957779D01*
X83026733Y-98957781D01*
X83212422Y-99037559D01*
X83217729Y-99039839D01*
X83319493Y-99062866D01*
X83420477Y-99085717D01*
X83420480Y-99085717D01*
X83426113Y-99086992D01*
X83431884Y-99087219D01*
X83431886Y-99087219D01*
X83496863Y-99089772D01*
X83639601Y-99095380D01*
X83745322Y-99080051D01*
X83845329Y-99065551D01*
X83845334Y-99065550D01*
X83851043Y-99064722D01*
X83856507Y-99062867D01*
X83856512Y-99062866D01*
X84047889Y-98997902D01*
X84053357Y-98996046D01*
X84239768Y-98891651D01*
X84404033Y-98755033D01*
X84540651Y-98590768D01*
X84645046Y-98404357D01*
X84713722Y-98202043D01*
X84722590Y-98140879D01*
X84752160Y-98076335D01*
X84811931Y-98038022D01*
X84882928Y-98038106D01*
X84942608Y-98076561D01*
X84969409Y-98127945D01*
X84988228Y-98202043D01*
X85017985Y-98319213D01*
X85107433Y-98513240D01*
X85230741Y-98687718D01*
X85383781Y-98836802D01*
X85561427Y-98955501D01*
X85566730Y-98957779D01*
X85566733Y-98957781D01*
X85752422Y-99037559D01*
X85757729Y-99039839D01*
X85859493Y-99062866D01*
X85960477Y-99085717D01*
X85960480Y-99085717D01*
X85966113Y-99086992D01*
X85971884Y-99087219D01*
X85971886Y-99087219D01*
X86036863Y-99089772D01*
X86179601Y-99095380D01*
X86285322Y-99080051D01*
X86385329Y-99065551D01*
X86385334Y-99065550D01*
X86391043Y-99064722D01*
X86396507Y-99062867D01*
X86396512Y-99062866D01*
X86587889Y-98997902D01*
X86593357Y-98996046D01*
X86779768Y-98891651D01*
X86944033Y-98755033D01*
X87080651Y-98590768D01*
X87185046Y-98404357D01*
X87253722Y-98202043D01*
X87262590Y-98140879D01*
X87292160Y-98076335D01*
X87351931Y-98038022D01*
X87422928Y-98038106D01*
X87482608Y-98076561D01*
X87509409Y-98127945D01*
X87528228Y-98202043D01*
X87557985Y-98319213D01*
X87647433Y-98513240D01*
X87770741Y-98687718D01*
X87923781Y-98836802D01*
X88101427Y-98955501D01*
X88106730Y-98957779D01*
X88106733Y-98957781D01*
X88292422Y-99037559D01*
X88297729Y-99039839D01*
X88399493Y-99062866D01*
X88500477Y-99085717D01*
X88500480Y-99085717D01*
X88506113Y-99086992D01*
X88511884Y-99087219D01*
X88511886Y-99087219D01*
X88576863Y-99089772D01*
X88719601Y-99095380D01*
X88825322Y-99080051D01*
X88925329Y-99065551D01*
X88925334Y-99065550D01*
X88931043Y-99064722D01*
X88936507Y-99062867D01*
X88936512Y-99062866D01*
X89127889Y-98997902D01*
X89133357Y-98996046D01*
X89319768Y-98891651D01*
X89484033Y-98755033D01*
X89620651Y-98590768D01*
X89725046Y-98404357D01*
X89793722Y-98202043D01*
X89802590Y-98140879D01*
X89832160Y-98076335D01*
X89891931Y-98038022D01*
X89962928Y-98038106D01*
X90022608Y-98076561D01*
X90049409Y-98127945D01*
X90068228Y-98202043D01*
X90097985Y-98319213D01*
X90187433Y-98513240D01*
X90310741Y-98687718D01*
X90463781Y-98836802D01*
X90641427Y-98955501D01*
X90646730Y-98957779D01*
X90646733Y-98957781D01*
X90832422Y-99037559D01*
X90837729Y-99039839D01*
X90939493Y-99062866D01*
X91040477Y-99085717D01*
X91040480Y-99085717D01*
X91046113Y-99086992D01*
X91051884Y-99087219D01*
X91051886Y-99087219D01*
X91116863Y-99089772D01*
X91259601Y-99095380D01*
X91365322Y-99080051D01*
X91465329Y-99065551D01*
X91465334Y-99065550D01*
X91471043Y-99064722D01*
X91476507Y-99062867D01*
X91476512Y-99062866D01*
X91667889Y-98997902D01*
X91673357Y-98996046D01*
X91859768Y-98891651D01*
X92024033Y-98755033D01*
X92160651Y-98590768D01*
X92265046Y-98404357D01*
X92333722Y-98202043D01*
X92342590Y-98140879D01*
X92372160Y-98076335D01*
X92431931Y-98038022D01*
X92502928Y-98038106D01*
X92562608Y-98076561D01*
X92589409Y-98127945D01*
X92608228Y-98202043D01*
X92637985Y-98319213D01*
X92727433Y-98513240D01*
X92850741Y-98687718D01*
X93003781Y-98836802D01*
X93181427Y-98955501D01*
X93186730Y-98957779D01*
X93186733Y-98957781D01*
X93372422Y-99037559D01*
X93377729Y-99039839D01*
X93479493Y-99062866D01*
X93580477Y-99085717D01*
X93580480Y-99085717D01*
X93586113Y-99086992D01*
X93591884Y-99087219D01*
X93591886Y-99087219D01*
X93656863Y-99089772D01*
X93799601Y-99095380D01*
X93905322Y-99080051D01*
X94005329Y-99065551D01*
X94005334Y-99065550D01*
X94011043Y-99064722D01*
X94016507Y-99062867D01*
X94016512Y-99062866D01*
X94207889Y-98997902D01*
X94213357Y-98996046D01*
X94399768Y-98891651D01*
X94564033Y-98755033D01*
X94700651Y-98590768D01*
X94805046Y-98404357D01*
X94873722Y-98202043D01*
X94882590Y-98140879D01*
X94912160Y-98076335D01*
X94971931Y-98038022D01*
X95042928Y-98038106D01*
X95102608Y-98076561D01*
X95129409Y-98127945D01*
X95148228Y-98202043D01*
X95177985Y-98319213D01*
X95267433Y-98513240D01*
X95390741Y-98687718D01*
X95543781Y-98836802D01*
X95721427Y-98955501D01*
X95726730Y-98957779D01*
X95726733Y-98957781D01*
X95912422Y-99037559D01*
X95917729Y-99039839D01*
X96019493Y-99062866D01*
X96120477Y-99085717D01*
X96120480Y-99085717D01*
X96126113Y-99086992D01*
X96131884Y-99087219D01*
X96131886Y-99087219D01*
X96196863Y-99089772D01*
X96339601Y-99095380D01*
X96445322Y-99080051D01*
X96545329Y-99065551D01*
X96545334Y-99065550D01*
X96551043Y-99064722D01*
X96556507Y-99062867D01*
X96556512Y-99062866D01*
X96747889Y-98997902D01*
X96753357Y-98996046D01*
X96939768Y-98891651D01*
X97104033Y-98755033D01*
X97240651Y-98590768D01*
X97345046Y-98404357D01*
X97413722Y-98202043D01*
X97422590Y-98140879D01*
X97452160Y-98076335D01*
X97511931Y-98038022D01*
X97582928Y-98038106D01*
X97642608Y-98076561D01*
X97669409Y-98127945D01*
X97688228Y-98202043D01*
X97717985Y-98319213D01*
X97807433Y-98513240D01*
X97930741Y-98687718D01*
X98083781Y-98836802D01*
X98261427Y-98955501D01*
X98266730Y-98957779D01*
X98266733Y-98957781D01*
X98452422Y-99037559D01*
X98457729Y-99039839D01*
X98559493Y-99062866D01*
X98660477Y-99085717D01*
X98660480Y-99085717D01*
X98666113Y-99086992D01*
X98671884Y-99087219D01*
X98671886Y-99087219D01*
X98736863Y-99089772D01*
X98879601Y-99095380D01*
X98985322Y-99080051D01*
X99085329Y-99065551D01*
X99085334Y-99065550D01*
X99091043Y-99064722D01*
X99096507Y-99062867D01*
X99096512Y-99062866D01*
X99287889Y-98997902D01*
X99293357Y-98996046D01*
X99479768Y-98891651D01*
X99644033Y-98755033D01*
X99780651Y-98590768D01*
X99885046Y-98404357D01*
X99953722Y-98202043D01*
X99962590Y-98140879D01*
X99992160Y-98076335D01*
X100051931Y-98038022D01*
X100122928Y-98038106D01*
X100182608Y-98076561D01*
X100209409Y-98127945D01*
X100228228Y-98202043D01*
X100257985Y-98319213D01*
X100347433Y-98513240D01*
X100470741Y-98687718D01*
X100623781Y-98836802D01*
X100801427Y-98955501D01*
X100806730Y-98957779D01*
X100806733Y-98957781D01*
X100992422Y-99037559D01*
X100997729Y-99039839D01*
X101099493Y-99062866D01*
X101200477Y-99085717D01*
X101200480Y-99085717D01*
X101206113Y-99086992D01*
X101211884Y-99087219D01*
X101211886Y-99087219D01*
X101276863Y-99089772D01*
X101419601Y-99095380D01*
X101525322Y-99080051D01*
X101625329Y-99065551D01*
X101625334Y-99065550D01*
X101631043Y-99064722D01*
X101636507Y-99062867D01*
X101636512Y-99062866D01*
X101827889Y-98997902D01*
X101833357Y-98996046D01*
X102019768Y-98891651D01*
X102184033Y-98755033D01*
X102320651Y-98590768D01*
X102425046Y-98404357D01*
X102493722Y-98202043D01*
X102502590Y-98140879D01*
X102532160Y-98076335D01*
X102591931Y-98038022D01*
X102662928Y-98038106D01*
X102722608Y-98076561D01*
X102749409Y-98127945D01*
X102768228Y-98202043D01*
X102797985Y-98319213D01*
X102887433Y-98513240D01*
X103010741Y-98687718D01*
X103163781Y-98836802D01*
X103341427Y-98955501D01*
X103346730Y-98957779D01*
X103346733Y-98957781D01*
X103532422Y-99037559D01*
X103537729Y-99039839D01*
X103639493Y-99062866D01*
X103740477Y-99085717D01*
X103740480Y-99085717D01*
X103746113Y-99086992D01*
X103751884Y-99087219D01*
X103751886Y-99087219D01*
X103816863Y-99089772D01*
X103959601Y-99095380D01*
X104065322Y-99080051D01*
X104165329Y-99065551D01*
X104165334Y-99065550D01*
X104171043Y-99064722D01*
X104176507Y-99062867D01*
X104176512Y-99062866D01*
X104367889Y-98997902D01*
X104373357Y-98996046D01*
X104559768Y-98891651D01*
X104724033Y-98755033D01*
X104860651Y-98590768D01*
X104965046Y-98404357D01*
X105033722Y-98202043D01*
X105042590Y-98140879D01*
X105072160Y-98076335D01*
X105131931Y-98038022D01*
X105202928Y-98038106D01*
X105262608Y-98076561D01*
X105289409Y-98127945D01*
X105308228Y-98202043D01*
X105337985Y-98319213D01*
X105427433Y-98513240D01*
X105550741Y-98687718D01*
X105703781Y-98836802D01*
X105881427Y-98955501D01*
X105886730Y-98957779D01*
X105886733Y-98957781D01*
X106072422Y-99037559D01*
X106077729Y-99039839D01*
X106179493Y-99062866D01*
X106280477Y-99085717D01*
X106280480Y-99085717D01*
X106286113Y-99086992D01*
X106291884Y-99087219D01*
X106291886Y-99087219D01*
X106356863Y-99089772D01*
X106499601Y-99095380D01*
X106605322Y-99080051D01*
X106705329Y-99065551D01*
X106705334Y-99065550D01*
X106711043Y-99064722D01*
X106716507Y-99062867D01*
X106716512Y-99062866D01*
X106907889Y-98997902D01*
X106913357Y-98996046D01*
X107099768Y-98891651D01*
X107264033Y-98755033D01*
X107400651Y-98590768D01*
X107505046Y-98404357D01*
X107573722Y-98202043D01*
X107582590Y-98140879D01*
X107612160Y-98076335D01*
X107671931Y-98038022D01*
X107742928Y-98038106D01*
X107802608Y-98076561D01*
X107829409Y-98127945D01*
X107848228Y-98202043D01*
X107877985Y-98319213D01*
X107967433Y-98513240D01*
X108090741Y-98687718D01*
X108243781Y-98836802D01*
X108421427Y-98955501D01*
X108426730Y-98957779D01*
X108426733Y-98957781D01*
X108612422Y-99037559D01*
X108617729Y-99039839D01*
X108719493Y-99062866D01*
X108820477Y-99085717D01*
X108820480Y-99085717D01*
X108826113Y-99086992D01*
X108831884Y-99087219D01*
X108831886Y-99087219D01*
X108896863Y-99089772D01*
X109039601Y-99095380D01*
X109145322Y-99080051D01*
X109245329Y-99065551D01*
X109245334Y-99065550D01*
X109251043Y-99064722D01*
X109256507Y-99062867D01*
X109256512Y-99062866D01*
X109447889Y-98997902D01*
X109453357Y-98996046D01*
X109639768Y-98891651D01*
X109804033Y-98755033D01*
X109940651Y-98590768D01*
X110045046Y-98404357D01*
X110113722Y-98202043D01*
X110122590Y-98140879D01*
X110152160Y-98076335D01*
X110211931Y-98038022D01*
X110282928Y-98038106D01*
X110342608Y-98076561D01*
X110369409Y-98127945D01*
X110388228Y-98202043D01*
X110417985Y-98319213D01*
X110507433Y-98513240D01*
X110630741Y-98687718D01*
X110783781Y-98836802D01*
X110961427Y-98955501D01*
X110966730Y-98957779D01*
X110966733Y-98957781D01*
X111152422Y-99037559D01*
X111157729Y-99039839D01*
X111259493Y-99062866D01*
X111360477Y-99085717D01*
X111360480Y-99085717D01*
X111366113Y-99086992D01*
X111371884Y-99087219D01*
X111371886Y-99087219D01*
X111436863Y-99089772D01*
X111579601Y-99095380D01*
X111685322Y-99080051D01*
X111785329Y-99065551D01*
X111785334Y-99065550D01*
X111791043Y-99064722D01*
X111796507Y-99062867D01*
X111796512Y-99062866D01*
X111987889Y-98997902D01*
X111993357Y-98996046D01*
X112179768Y-98891651D01*
X112344033Y-98755033D01*
X112480651Y-98590768D01*
X112585046Y-98404357D01*
X112653722Y-98202043D01*
X112662591Y-98140880D01*
X112683847Y-97994275D01*
X112684380Y-97990601D01*
X112685980Y-97929500D01*
X112683172Y-97898939D01*
X115431420Y-97898939D01*
X115445394Y-98112134D01*
X115497985Y-98319213D01*
X115587433Y-98513240D01*
X115710741Y-98687718D01*
X115863781Y-98836802D01*
X116041427Y-98955501D01*
X116046730Y-98957779D01*
X116046733Y-98957781D01*
X116232422Y-99037559D01*
X116237729Y-99039839D01*
X116339493Y-99062866D01*
X116440477Y-99085717D01*
X116440480Y-99085717D01*
X116446113Y-99086992D01*
X116451884Y-99087219D01*
X116451886Y-99087219D01*
X116516863Y-99089772D01*
X116659601Y-99095380D01*
X116765322Y-99080051D01*
X116865329Y-99065551D01*
X116865334Y-99065550D01*
X116871043Y-99064722D01*
X116876507Y-99062867D01*
X116876512Y-99062866D01*
X117067889Y-98997902D01*
X117073357Y-98996046D01*
X117259768Y-98891651D01*
X117424033Y-98755033D01*
X117560651Y-98590768D01*
X117665046Y-98404357D01*
X117733722Y-98202043D01*
X117742591Y-98140880D01*
X117763847Y-97994275D01*
X117764380Y-97990601D01*
X117765980Y-97929500D01*
X117746430Y-97716744D01*
X117739592Y-97692496D01*
X117690004Y-97516672D01*
X117690003Y-97516670D01*
X117688436Y-97511113D01*
X117677162Y-97488250D01*
X117596495Y-97324674D01*
X117593940Y-97319493D01*
X117574639Y-97293645D01*
X117469560Y-97152927D01*
X117469559Y-97152926D01*
X117466107Y-97148303D01*
X117461871Y-97144387D01*
X117313457Y-97007195D01*
X117313454Y-97007193D01*
X117309217Y-97003276D01*
X117128525Y-96889268D01*
X116930082Y-96810097D01*
X116924425Y-96808972D01*
X116924419Y-96808970D01*
X116726203Y-96769543D01*
X116726199Y-96769543D01*
X116720535Y-96768416D01*
X116714760Y-96768340D01*
X116714756Y-96768340D01*
X116607497Y-96766936D01*
X116506901Y-96765619D01*
X116501204Y-96766598D01*
X116501203Y-96766598D01*
X116302031Y-96800822D01*
X116296334Y-96801801D01*
X116095887Y-96875750D01*
X116090926Y-96878702D01*
X116090925Y-96878702D01*
X115917240Y-96982033D01*
X115917237Y-96982035D01*
X115912272Y-96984989D01*
X115907932Y-96988795D01*
X115907928Y-96988798D01*
X115755981Y-97122053D01*
X115751640Y-97125860D01*
X115619369Y-97293645D01*
X115616680Y-97298756D01*
X115616678Y-97298759D01*
X115603044Y-97324674D01*
X115519889Y-97482725D01*
X115518175Y-97488246D01*
X115518173Y-97488250D01*
X115512683Y-97505933D01*
X115456532Y-97686767D01*
X115431420Y-97898939D01*
X112683172Y-97898939D01*
X112666430Y-97716744D01*
X112659592Y-97692496D01*
X112610004Y-97516672D01*
X112610003Y-97516670D01*
X112608436Y-97511113D01*
X112597162Y-97488250D01*
X112516495Y-97324674D01*
X112513940Y-97319493D01*
X112494639Y-97293645D01*
X112389560Y-97152927D01*
X112389559Y-97152926D01*
X112386107Y-97148303D01*
X112381871Y-97144387D01*
X112233457Y-97007195D01*
X112233454Y-97007193D01*
X112229217Y-97003276D01*
X112048525Y-96889268D01*
X111850082Y-96810097D01*
X111844425Y-96808972D01*
X111844419Y-96808970D01*
X111646203Y-96769543D01*
X111646199Y-96769543D01*
X111640535Y-96768416D01*
X111634760Y-96768340D01*
X111634756Y-96768340D01*
X111527497Y-96766936D01*
X111426901Y-96765619D01*
X111421204Y-96766598D01*
X111421203Y-96766598D01*
X111222031Y-96800822D01*
X111216334Y-96801801D01*
X111015887Y-96875750D01*
X111010926Y-96878702D01*
X111010925Y-96878702D01*
X110837240Y-96982033D01*
X110837237Y-96982035D01*
X110832272Y-96984989D01*
X110827932Y-96988795D01*
X110827928Y-96988798D01*
X110675981Y-97122053D01*
X110671640Y-97125860D01*
X110539369Y-97293645D01*
X110536680Y-97298756D01*
X110536678Y-97298759D01*
X110523044Y-97324674D01*
X110439889Y-97482725D01*
X110438175Y-97488246D01*
X110438173Y-97488250D01*
X110432683Y-97505933D01*
X110376532Y-97686767D01*
X110375854Y-97692496D01*
X110375854Y-97692497D01*
X110374323Y-97705430D01*
X110346452Y-97770728D01*
X110287704Y-97810592D01*
X110216729Y-97812365D01*
X110156063Y-97775486D01*
X110126823Y-97716633D01*
X110126430Y-97716744D01*
X110119592Y-97692496D01*
X110070004Y-97516672D01*
X110070003Y-97516670D01*
X110068436Y-97511113D01*
X110057162Y-97488250D01*
X109976495Y-97324674D01*
X109973940Y-97319493D01*
X109954639Y-97293645D01*
X109849560Y-97152927D01*
X109849559Y-97152926D01*
X109846107Y-97148303D01*
X109841871Y-97144387D01*
X109693457Y-97007195D01*
X109693454Y-97007193D01*
X109689217Y-97003276D01*
X109508525Y-96889268D01*
X109310082Y-96810097D01*
X109304425Y-96808972D01*
X109304419Y-96808970D01*
X109106203Y-96769543D01*
X109106199Y-96769543D01*
X109100535Y-96768416D01*
X109094760Y-96768340D01*
X109094756Y-96768340D01*
X108987497Y-96766936D01*
X108886901Y-96765619D01*
X108881204Y-96766598D01*
X108881203Y-96766598D01*
X108682031Y-96800822D01*
X108676334Y-96801801D01*
X108475887Y-96875750D01*
X108470926Y-96878702D01*
X108470925Y-96878702D01*
X108297240Y-96982033D01*
X108297237Y-96982035D01*
X108292272Y-96984989D01*
X108287932Y-96988795D01*
X108287928Y-96988798D01*
X108135981Y-97122053D01*
X108131640Y-97125860D01*
X107999369Y-97293645D01*
X107996680Y-97298756D01*
X107996678Y-97298759D01*
X107983044Y-97324674D01*
X107899889Y-97482725D01*
X107898175Y-97488246D01*
X107898173Y-97488250D01*
X107892683Y-97505933D01*
X107836532Y-97686767D01*
X107835854Y-97692496D01*
X107835854Y-97692497D01*
X107834323Y-97705430D01*
X107806452Y-97770728D01*
X107747704Y-97810592D01*
X107676729Y-97812365D01*
X107616063Y-97775486D01*
X107586823Y-97716633D01*
X107586430Y-97716744D01*
X107579592Y-97692496D01*
X107530004Y-97516672D01*
X107530003Y-97516670D01*
X107528436Y-97511113D01*
X107517162Y-97488250D01*
X107436495Y-97324674D01*
X107433940Y-97319493D01*
X107414639Y-97293645D01*
X107309560Y-97152927D01*
X107309559Y-97152926D01*
X107306107Y-97148303D01*
X107301871Y-97144387D01*
X107153457Y-97007195D01*
X107153454Y-97007193D01*
X107149217Y-97003276D01*
X106968525Y-96889268D01*
X106770082Y-96810097D01*
X106764425Y-96808972D01*
X106764419Y-96808970D01*
X106566203Y-96769543D01*
X106566199Y-96769543D01*
X106560535Y-96768416D01*
X106554760Y-96768340D01*
X106554756Y-96768340D01*
X106447497Y-96766936D01*
X106346901Y-96765619D01*
X106341204Y-96766598D01*
X106341203Y-96766598D01*
X106142031Y-96800822D01*
X106136334Y-96801801D01*
X105935887Y-96875750D01*
X105930926Y-96878702D01*
X105930925Y-96878702D01*
X105757240Y-96982033D01*
X105757237Y-96982035D01*
X105752272Y-96984989D01*
X105747932Y-96988795D01*
X105747928Y-96988798D01*
X105595981Y-97122053D01*
X105591640Y-97125860D01*
X105459369Y-97293645D01*
X105456680Y-97298756D01*
X105456678Y-97298759D01*
X105443044Y-97324674D01*
X105359889Y-97482725D01*
X105358175Y-97488246D01*
X105358173Y-97488250D01*
X105352683Y-97505933D01*
X105296532Y-97686767D01*
X105295854Y-97692496D01*
X105295854Y-97692497D01*
X105294323Y-97705430D01*
X105266452Y-97770728D01*
X105207704Y-97810592D01*
X105136729Y-97812365D01*
X105076063Y-97775486D01*
X105046823Y-97716633D01*
X105046430Y-97716744D01*
X105039592Y-97692496D01*
X104990004Y-97516672D01*
X104990003Y-97516670D01*
X104988436Y-97511113D01*
X104977162Y-97488250D01*
X104896495Y-97324674D01*
X104893940Y-97319493D01*
X104874639Y-97293645D01*
X104769560Y-97152927D01*
X104769559Y-97152926D01*
X104766107Y-97148303D01*
X104761871Y-97144387D01*
X104613457Y-97007195D01*
X104613454Y-97007193D01*
X104609217Y-97003276D01*
X104428525Y-96889268D01*
X104230082Y-96810097D01*
X104224422Y-96808971D01*
X104224418Y-96808970D01*
X104022829Y-96768872D01*
X103959919Y-96735965D01*
X103924787Y-96674270D01*
X103928587Y-96603375D01*
X103970113Y-96545789D01*
X104006909Y-96525980D01*
X104077462Y-96502031D01*
X104077470Y-96502028D01*
X104082933Y-96500173D01*
X104261326Y-96400268D01*
X104418526Y-96269526D01*
X104549268Y-96112326D01*
X104649173Y-95933933D01*
X104714896Y-95740321D01*
X104727372Y-95654279D01*
X104730897Y-95629965D01*
X104744235Y-95537973D01*
X104745766Y-95479500D01*
X104734688Y-95358939D01*
X112891420Y-95358939D01*
X112905394Y-95572134D01*
X112957985Y-95779213D01*
X113047433Y-95973240D01*
X113050766Y-95977956D01*
X113148871Y-96116772D01*
X113170741Y-96147718D01*
X113323781Y-96296802D01*
X113501427Y-96415501D01*
X113506730Y-96417779D01*
X113506733Y-96417781D01*
X113613501Y-96463652D01*
X113697729Y-96499839D01*
X113799493Y-96522866D01*
X113900477Y-96545717D01*
X113900480Y-96545717D01*
X113906113Y-96546992D01*
X113911884Y-96547219D01*
X113911886Y-96547219D01*
X113976863Y-96549772D01*
X114119601Y-96555380D01*
X114243654Y-96537393D01*
X114325329Y-96525551D01*
X114325334Y-96525550D01*
X114331043Y-96524722D01*
X114336507Y-96522867D01*
X114336512Y-96522866D01*
X114527889Y-96457902D01*
X114533357Y-96456046D01*
X114719768Y-96351651D01*
X114729266Y-96343752D01*
X114818512Y-96269526D01*
X114884033Y-96215033D01*
X115020651Y-96050768D01*
X115125046Y-95864357D01*
X115165292Y-95745795D01*
X115191866Y-95667512D01*
X115191867Y-95667507D01*
X115193722Y-95662043D01*
X115206759Y-95572134D01*
X115220190Y-95479500D01*
X115224380Y-95450601D01*
X115225980Y-95389500D01*
X115206430Y-95176744D01*
X115199592Y-95152496D01*
X115150004Y-94976672D01*
X115150003Y-94976670D01*
X115148436Y-94971113D01*
X115137162Y-94948250D01*
X115056495Y-94784674D01*
X115053940Y-94779493D01*
X115034639Y-94753645D01*
X114929560Y-94612927D01*
X114929559Y-94612926D01*
X114926107Y-94608303D01*
X114913914Y-94597032D01*
X114773457Y-94467195D01*
X114773454Y-94467193D01*
X114769217Y-94463276D01*
X114588525Y-94349268D01*
X114390082Y-94270097D01*
X114384425Y-94268972D01*
X114384419Y-94268970D01*
X114186203Y-94229543D01*
X114186199Y-94229543D01*
X114180535Y-94228416D01*
X114174760Y-94228340D01*
X114174756Y-94228340D01*
X114067497Y-94226936D01*
X113966901Y-94225619D01*
X113961204Y-94226598D01*
X113961203Y-94226598D01*
X113762031Y-94260822D01*
X113756334Y-94261801D01*
X113555887Y-94335750D01*
X113550926Y-94338702D01*
X113550925Y-94338702D01*
X113377240Y-94442033D01*
X113377237Y-94442035D01*
X113372272Y-94444989D01*
X113367932Y-94448795D01*
X113367928Y-94448798D01*
X113334126Y-94478442D01*
X113211640Y-94585860D01*
X113079369Y-94753645D01*
X113076680Y-94758756D01*
X113076678Y-94758759D01*
X113063044Y-94784674D01*
X112979889Y-94942725D01*
X112978175Y-94948246D01*
X112978173Y-94948250D01*
X112937541Y-95079108D01*
X112916532Y-95146767D01*
X112891420Y-95358939D01*
X104734688Y-95358939D01*
X104727057Y-95275894D01*
X104718967Y-95247207D01*
X104673127Y-95084672D01*
X104671558Y-95079108D01*
X104581126Y-94895730D01*
X104478845Y-94758759D01*
X104462243Y-94736527D01*
X104462243Y-94736526D01*
X104458790Y-94731903D01*
X104330083Y-94612927D01*
X104312888Y-94597032D01*
X104312885Y-94597030D01*
X104308648Y-94593113D01*
X104296563Y-94585488D01*
X104249625Y-94532222D01*
X104238935Y-94462034D01*
X104267889Y-94397210D01*
X104283228Y-94382052D01*
X104299697Y-94368355D01*
X104418526Y-94269526D01*
X104549268Y-94112326D01*
X104649173Y-93933933D01*
X104690683Y-93811651D01*
X104713038Y-93745795D01*
X104713038Y-93745793D01*
X104714896Y-93740321D01*
X104727372Y-93654279D01*
X104743702Y-93541647D01*
X104744235Y-93537973D01*
X104745766Y-93479500D01*
X104727057Y-93275894D01*
X104718967Y-93247207D01*
X104673127Y-93084672D01*
X104671558Y-93079108D01*
X104588460Y-92910601D01*
X104583681Y-92900911D01*
X104581126Y-92895730D01*
X104458790Y-92731903D01*
X104349832Y-92631183D01*
X104312888Y-92597032D01*
X104312885Y-92597030D01*
X104308648Y-92593113D01*
X104296563Y-92585488D01*
X104249625Y-92532222D01*
X104238935Y-92462034D01*
X104267889Y-92397210D01*
X104283228Y-92382052D01*
X104324437Y-92347779D01*
X104418526Y-92269526D01*
X104549268Y-92112326D01*
X104649173Y-91933933D01*
X104690446Y-91812349D01*
X104713038Y-91745795D01*
X104713038Y-91745793D01*
X104714896Y-91740321D01*
X104716379Y-91730097D01*
X104743702Y-91541647D01*
X104744235Y-91537973D01*
X104745766Y-91479500D01*
X104727057Y-91275894D01*
X104718967Y-91247207D01*
X104673127Y-91084672D01*
X104671558Y-91079108D01*
X104581126Y-90895730D01*
X104458790Y-90731903D01*
X104308648Y-90593113D01*
X104135728Y-90484009D01*
X104103302Y-90471072D01*
X104076593Y-90460416D01*
X103945821Y-90408243D01*
X103940153Y-90407116D01*
X103940151Y-90407115D01*
X103750954Y-90369482D01*
X103750950Y-90369482D01*
X103745286Y-90368355D01*
X103739511Y-90368279D01*
X103739507Y-90368279D01*
X103636966Y-90366937D01*
X103540840Y-90365678D01*
X103535143Y-90366657D01*
X103535142Y-90366657D01*
X103518702Y-90369482D01*
X103339330Y-90400304D01*
X103147505Y-90471072D01*
X102971788Y-90575613D01*
X102818064Y-90710425D01*
X102814492Y-90714956D01*
X102726981Y-90825962D01*
X102669099Y-90867075D01*
X102598179Y-90870369D01*
X102536737Y-90834797D01*
X102527073Y-90823345D01*
X102462243Y-90736527D01*
X102462243Y-90736526D01*
X102458790Y-90731903D01*
X102308648Y-90593113D01*
X102135728Y-90484009D01*
X102103302Y-90471072D01*
X102076593Y-90460416D01*
X101945821Y-90408243D01*
X101940153Y-90407116D01*
X101940151Y-90407115D01*
X101750954Y-90369482D01*
X101750950Y-90369482D01*
X101745286Y-90368355D01*
X101739511Y-90368279D01*
X101739507Y-90368279D01*
X101636966Y-90366937D01*
X101540840Y-90365678D01*
X101535143Y-90366657D01*
X101535142Y-90366657D01*
X101518702Y-90369482D01*
X101339330Y-90400304D01*
X101147505Y-90471072D01*
X100971788Y-90575613D01*
X100818064Y-90710425D01*
X100814492Y-90714956D01*
X100720017Y-90834797D01*
X100691482Y-90870993D01*
X100688794Y-90876102D01*
X100598970Y-91046829D01*
X100598968Y-91046834D01*
X100596281Y-91051941D01*
X100535649Y-91247207D01*
X100511617Y-91450253D01*
X100524989Y-91654279D01*
X100575319Y-91852451D01*
X100660919Y-92038133D01*
X100778924Y-92205106D01*
X100925382Y-92347779D01*
X100930178Y-92350984D01*
X100930181Y-92350986D01*
X100963062Y-92372956D01*
X101095387Y-92461372D01*
X101100690Y-92463650D01*
X101100693Y-92463652D01*
X101185698Y-92500173D01*
X101283246Y-92542083D01*
X101370912Y-92561920D01*
X101477032Y-92585933D01*
X101477035Y-92585933D01*
X101482668Y-92587208D01*
X101488439Y-92587435D01*
X101488441Y-92587435D01*
X101551146Y-92589898D01*
X101686973Y-92595235D01*
X101822304Y-92575613D01*
X101883599Y-92566726D01*
X101883603Y-92566725D01*
X101889321Y-92565896D01*
X101894793Y-92564038D01*
X101894795Y-92564038D01*
X102077465Y-92502029D01*
X102082933Y-92500173D01*
X102261326Y-92400268D01*
X102418526Y-92269526D01*
X102532975Y-92131916D01*
X102591912Y-92092332D01*
X102662894Y-92090896D01*
X102723385Y-92128063D01*
X102732742Y-92139760D01*
X102755089Y-92171381D01*
X102775592Y-92200391D01*
X102778924Y-92205106D01*
X102925382Y-92347779D01*
X102930178Y-92350984D01*
X102930181Y-92350986D01*
X102963062Y-92372956D01*
X103008590Y-92427433D01*
X103017438Y-92497876D01*
X102986796Y-92561920D01*
X102971708Y-92575522D01*
X102971788Y-92575613D01*
X102818064Y-92710425D01*
X102814492Y-92714956D01*
X102705506Y-92853204D01*
X102691482Y-92870993D01*
X102688794Y-92876102D01*
X102598970Y-93046829D01*
X102598968Y-93046834D01*
X102596281Y-93051941D01*
X102535649Y-93247207D01*
X102511617Y-93450253D01*
X102524989Y-93654279D01*
X102575319Y-93852451D01*
X102660919Y-94038133D01*
X102778924Y-94205106D01*
X102925382Y-94347779D01*
X102930178Y-94350984D01*
X102930181Y-94350986D01*
X102963062Y-94372956D01*
X103008590Y-94427433D01*
X103017438Y-94497876D01*
X102986796Y-94561920D01*
X102971708Y-94575522D01*
X102971788Y-94575613D01*
X102818064Y-94710425D01*
X102814492Y-94714956D01*
X102726981Y-94825962D01*
X102669099Y-94867075D01*
X102598179Y-94870369D01*
X102536737Y-94834797D01*
X102527073Y-94823345D01*
X102462243Y-94736527D01*
X102462243Y-94736526D01*
X102458790Y-94731903D01*
X102330083Y-94612927D01*
X102312888Y-94597032D01*
X102312885Y-94597030D01*
X102308648Y-94593113D01*
X102135728Y-94484009D01*
X102121775Y-94478442D01*
X102047472Y-94448798D01*
X101945821Y-94408243D01*
X101940153Y-94407116D01*
X101940151Y-94407115D01*
X101750954Y-94369482D01*
X101750950Y-94369482D01*
X101745286Y-94368355D01*
X101739511Y-94368279D01*
X101739507Y-94368279D01*
X101636966Y-94366937D01*
X101540840Y-94365678D01*
X101535143Y-94366657D01*
X101535142Y-94366657D01*
X101345027Y-94399325D01*
X101339330Y-94400304D01*
X101147505Y-94471072D01*
X100971788Y-94575613D01*
X100818064Y-94710425D01*
X100814492Y-94714956D01*
X100720017Y-94834797D01*
X100691482Y-94870993D01*
X100688794Y-94876102D01*
X100598970Y-95046829D01*
X100598968Y-95046834D01*
X100596281Y-95051941D01*
X100535649Y-95247207D01*
X100511617Y-95450253D01*
X100524989Y-95654279D01*
X100575319Y-95852451D01*
X100660919Y-96038133D01*
X100778924Y-96205106D01*
X100925382Y-96347779D01*
X100930178Y-96350984D01*
X100930181Y-96350986D01*
X101026736Y-96415501D01*
X101095387Y-96461372D01*
X101100690Y-96463650D01*
X101100693Y-96463652D01*
X101190018Y-96502029D01*
X101245766Y-96525980D01*
X101259403Y-96531839D01*
X101314096Y-96577107D01*
X101335633Y-96644758D01*
X101317176Y-96713314D01*
X101264585Y-96761008D01*
X101231003Y-96771787D01*
X101062031Y-96800822D01*
X101056334Y-96801801D01*
X100855887Y-96875750D01*
X100850926Y-96878702D01*
X100850925Y-96878702D01*
X100677240Y-96982033D01*
X100677237Y-96982035D01*
X100672272Y-96984989D01*
X100667932Y-96988795D01*
X100667928Y-96988798D01*
X100515981Y-97122053D01*
X100511640Y-97125860D01*
X100379369Y-97293645D01*
X100376680Y-97298756D01*
X100376678Y-97298759D01*
X100363044Y-97324674D01*
X100279889Y-97482725D01*
X100278175Y-97488246D01*
X100278173Y-97488250D01*
X100272683Y-97505933D01*
X100216532Y-97686767D01*
X100215854Y-97692496D01*
X100215854Y-97692497D01*
X100214323Y-97705430D01*
X100186452Y-97770728D01*
X100127704Y-97810592D01*
X100056729Y-97812365D01*
X99996063Y-97775486D01*
X99966823Y-97716633D01*
X99966430Y-97716744D01*
X99959592Y-97692496D01*
X99910004Y-97516672D01*
X99910003Y-97516670D01*
X99908436Y-97511113D01*
X99897162Y-97488250D01*
X99816495Y-97324674D01*
X99813940Y-97319493D01*
X99794639Y-97293645D01*
X99689560Y-97152927D01*
X99689559Y-97152926D01*
X99686107Y-97148303D01*
X99681871Y-97144387D01*
X99533457Y-97007195D01*
X99533454Y-97007193D01*
X99529217Y-97003276D01*
X99348525Y-96889268D01*
X99150082Y-96810097D01*
X99144425Y-96808972D01*
X99144419Y-96808970D01*
X98946203Y-96769543D01*
X98946199Y-96769543D01*
X98940535Y-96768416D01*
X98934760Y-96768340D01*
X98934756Y-96768340D01*
X98827497Y-96766936D01*
X98726901Y-96765619D01*
X98721204Y-96766598D01*
X98721203Y-96766598D01*
X98522031Y-96800822D01*
X98516334Y-96801801D01*
X98315887Y-96875750D01*
X98310926Y-96878702D01*
X98310925Y-96878702D01*
X98137240Y-96982033D01*
X98137237Y-96982035D01*
X98132272Y-96984989D01*
X98127932Y-96988795D01*
X98127928Y-96988798D01*
X97975981Y-97122053D01*
X97971640Y-97125860D01*
X97839369Y-97293645D01*
X97836680Y-97298756D01*
X97836678Y-97298759D01*
X97823044Y-97324674D01*
X97739889Y-97482725D01*
X97738175Y-97488246D01*
X97738173Y-97488250D01*
X97732683Y-97505933D01*
X97676532Y-97686767D01*
X97675854Y-97692496D01*
X97675854Y-97692497D01*
X97674323Y-97705430D01*
X97646452Y-97770728D01*
X97587704Y-97810592D01*
X97516729Y-97812365D01*
X97456063Y-97775486D01*
X97426823Y-97716633D01*
X97426430Y-97716744D01*
X97419592Y-97692496D01*
X97370004Y-97516672D01*
X97370003Y-97516670D01*
X97368436Y-97511113D01*
X97357162Y-97488250D01*
X97276495Y-97324674D01*
X97273940Y-97319493D01*
X97254639Y-97293645D01*
X97149560Y-97152927D01*
X97149559Y-97152926D01*
X97146107Y-97148303D01*
X97141871Y-97144387D01*
X96993457Y-97007195D01*
X96993454Y-97007193D01*
X96989217Y-97003276D01*
X96808525Y-96889268D01*
X96610082Y-96810097D01*
X96604425Y-96808972D01*
X96604419Y-96808970D01*
X96406203Y-96769543D01*
X96406199Y-96769543D01*
X96400535Y-96768416D01*
X96394760Y-96768340D01*
X96394756Y-96768340D01*
X96287497Y-96766936D01*
X96186901Y-96765619D01*
X96181204Y-96766598D01*
X96181203Y-96766598D01*
X95982031Y-96800822D01*
X95976334Y-96801801D01*
X95775887Y-96875750D01*
X95770926Y-96878702D01*
X95770925Y-96878702D01*
X95597240Y-96982033D01*
X95597237Y-96982035D01*
X95592272Y-96984989D01*
X95587932Y-96988795D01*
X95587928Y-96988798D01*
X95435981Y-97122053D01*
X95431640Y-97125860D01*
X95299369Y-97293645D01*
X95296680Y-97298756D01*
X95296678Y-97298759D01*
X95283044Y-97324674D01*
X95199889Y-97482725D01*
X95198175Y-97488246D01*
X95198173Y-97488250D01*
X95192683Y-97505933D01*
X95136532Y-97686767D01*
X95135854Y-97692496D01*
X95135854Y-97692497D01*
X95134323Y-97705430D01*
X95106452Y-97770728D01*
X95047704Y-97810592D01*
X94976729Y-97812365D01*
X94916063Y-97775486D01*
X94886823Y-97716633D01*
X94886430Y-97716744D01*
X94879592Y-97692496D01*
X94830004Y-97516672D01*
X94830003Y-97516670D01*
X94828436Y-97511113D01*
X94817162Y-97488250D01*
X94736495Y-97324674D01*
X94733940Y-97319493D01*
X94714639Y-97293645D01*
X94609560Y-97152927D01*
X94609559Y-97152926D01*
X94606107Y-97148303D01*
X94601871Y-97144387D01*
X94453457Y-97007195D01*
X94453454Y-97007193D01*
X94449217Y-97003276D01*
X94268525Y-96889268D01*
X94070082Y-96810097D01*
X94064425Y-96808972D01*
X94064419Y-96808970D01*
X93866203Y-96769543D01*
X93866199Y-96769543D01*
X93860535Y-96768416D01*
X93854760Y-96768340D01*
X93854756Y-96768340D01*
X93747497Y-96766936D01*
X93646901Y-96765619D01*
X93641204Y-96766598D01*
X93641203Y-96766598D01*
X93442031Y-96800822D01*
X93436334Y-96801801D01*
X93235887Y-96875750D01*
X93230926Y-96878702D01*
X93230925Y-96878702D01*
X93057240Y-96982033D01*
X93057237Y-96982035D01*
X93052272Y-96984989D01*
X93047932Y-96988795D01*
X93047928Y-96988798D01*
X92895981Y-97122053D01*
X92891640Y-97125860D01*
X92759369Y-97293645D01*
X92756680Y-97298756D01*
X92756678Y-97298759D01*
X92743044Y-97324674D01*
X92659889Y-97482725D01*
X92658175Y-97488246D01*
X92658173Y-97488250D01*
X92652683Y-97505933D01*
X92596532Y-97686767D01*
X92595854Y-97692496D01*
X92595854Y-97692497D01*
X92594323Y-97705430D01*
X92566452Y-97770728D01*
X92507704Y-97810592D01*
X92436729Y-97812365D01*
X92376063Y-97775486D01*
X92346823Y-97716633D01*
X92346430Y-97716744D01*
X92339592Y-97692496D01*
X92290004Y-97516672D01*
X92290003Y-97516670D01*
X92288436Y-97511113D01*
X92277162Y-97488250D01*
X92196495Y-97324674D01*
X92193940Y-97319493D01*
X92174639Y-97293645D01*
X92069560Y-97152927D01*
X92069559Y-97152926D01*
X92066107Y-97148303D01*
X92061871Y-97144387D01*
X91913457Y-97007195D01*
X91913454Y-97007193D01*
X91909217Y-97003276D01*
X91728525Y-96889268D01*
X91530082Y-96810097D01*
X91524425Y-96808972D01*
X91524419Y-96808970D01*
X91326203Y-96769543D01*
X91326199Y-96769543D01*
X91320535Y-96768416D01*
X91314760Y-96768340D01*
X91314756Y-96768340D01*
X91207497Y-96766936D01*
X91106901Y-96765619D01*
X91101204Y-96766598D01*
X91101203Y-96766598D01*
X90902031Y-96800822D01*
X90896334Y-96801801D01*
X90695887Y-96875750D01*
X90690926Y-96878702D01*
X90690925Y-96878702D01*
X90517240Y-96982033D01*
X90517237Y-96982035D01*
X90512272Y-96984989D01*
X90507932Y-96988795D01*
X90507928Y-96988798D01*
X90355981Y-97122053D01*
X90351640Y-97125860D01*
X90219369Y-97293645D01*
X90216680Y-97298756D01*
X90216678Y-97298759D01*
X90203044Y-97324674D01*
X90119889Y-97482725D01*
X90118175Y-97488246D01*
X90118173Y-97488250D01*
X90112683Y-97505933D01*
X90056532Y-97686767D01*
X90055854Y-97692496D01*
X90055854Y-97692497D01*
X90054323Y-97705430D01*
X90026452Y-97770728D01*
X89967704Y-97810592D01*
X89896729Y-97812365D01*
X89836063Y-97775486D01*
X89806823Y-97716633D01*
X89806430Y-97716744D01*
X89799592Y-97692496D01*
X89750004Y-97516672D01*
X89750003Y-97516670D01*
X89748436Y-97511113D01*
X89737162Y-97488250D01*
X89656495Y-97324674D01*
X89653940Y-97319493D01*
X89634639Y-97293645D01*
X89529560Y-97152927D01*
X89529559Y-97152926D01*
X89526107Y-97148303D01*
X89521871Y-97144387D01*
X89373457Y-97007195D01*
X89373454Y-97007193D01*
X89369217Y-97003276D01*
X89188525Y-96889268D01*
X88990082Y-96810097D01*
X88984425Y-96808972D01*
X88984419Y-96808970D01*
X88786203Y-96769543D01*
X88786199Y-96769543D01*
X88780535Y-96768416D01*
X88774760Y-96768340D01*
X88774756Y-96768340D01*
X88667497Y-96766936D01*
X88566901Y-96765619D01*
X88561204Y-96766598D01*
X88561203Y-96766598D01*
X88362031Y-96800822D01*
X88356334Y-96801801D01*
X88155887Y-96875750D01*
X88150926Y-96878702D01*
X88150925Y-96878702D01*
X87977240Y-96982033D01*
X87977237Y-96982035D01*
X87972272Y-96984989D01*
X87967932Y-96988795D01*
X87967928Y-96988798D01*
X87815981Y-97122053D01*
X87811640Y-97125860D01*
X87679369Y-97293645D01*
X87676680Y-97298756D01*
X87676678Y-97298759D01*
X87663044Y-97324674D01*
X87579889Y-97482725D01*
X87578175Y-97488246D01*
X87578173Y-97488250D01*
X87572683Y-97505933D01*
X87516532Y-97686767D01*
X87515854Y-97692496D01*
X87515854Y-97692497D01*
X87514323Y-97705430D01*
X87486452Y-97770728D01*
X87427704Y-97810592D01*
X87356729Y-97812365D01*
X87296063Y-97775486D01*
X87266823Y-97716633D01*
X87266430Y-97716744D01*
X87259592Y-97692496D01*
X87210004Y-97516672D01*
X87210003Y-97516670D01*
X87208436Y-97511113D01*
X87197162Y-97488250D01*
X87116495Y-97324674D01*
X87113940Y-97319493D01*
X87094639Y-97293645D01*
X86989560Y-97152927D01*
X86989559Y-97152926D01*
X86986107Y-97148303D01*
X86981871Y-97144387D01*
X86833457Y-97007195D01*
X86833454Y-97007193D01*
X86829217Y-97003276D01*
X86648525Y-96889268D01*
X86450082Y-96810097D01*
X86444425Y-96808972D01*
X86444419Y-96808970D01*
X86246203Y-96769543D01*
X86246199Y-96769543D01*
X86240535Y-96768416D01*
X86234760Y-96768340D01*
X86234756Y-96768340D01*
X86127497Y-96766936D01*
X86026901Y-96765619D01*
X86021204Y-96766598D01*
X86021203Y-96766598D01*
X85822031Y-96800822D01*
X85816334Y-96801801D01*
X85615887Y-96875750D01*
X85610926Y-96878702D01*
X85610925Y-96878702D01*
X85437240Y-96982033D01*
X85437237Y-96982035D01*
X85432272Y-96984989D01*
X85427932Y-96988795D01*
X85427928Y-96988798D01*
X85275981Y-97122053D01*
X85271640Y-97125860D01*
X85139369Y-97293645D01*
X85136680Y-97298756D01*
X85136678Y-97298759D01*
X85123044Y-97324674D01*
X85039889Y-97482725D01*
X85038175Y-97488246D01*
X85038173Y-97488250D01*
X85032683Y-97505933D01*
X84976532Y-97686767D01*
X84975854Y-97692496D01*
X84975854Y-97692497D01*
X84974323Y-97705430D01*
X84946452Y-97770728D01*
X84887704Y-97810592D01*
X84816729Y-97812365D01*
X84756063Y-97775486D01*
X84726823Y-97716633D01*
X84726430Y-97716744D01*
X84719592Y-97692496D01*
X84670004Y-97516672D01*
X84670003Y-97516670D01*
X84668436Y-97511113D01*
X84657162Y-97488250D01*
X84576495Y-97324674D01*
X84573940Y-97319493D01*
X84554639Y-97293645D01*
X84449560Y-97152927D01*
X84449559Y-97152926D01*
X84446107Y-97148303D01*
X84441871Y-97144387D01*
X84293457Y-97007195D01*
X84293454Y-97007193D01*
X84289217Y-97003276D01*
X84108525Y-96889268D01*
X83910082Y-96810097D01*
X83904425Y-96808972D01*
X83904419Y-96808970D01*
X83706203Y-96769543D01*
X83706199Y-96769543D01*
X83700535Y-96768416D01*
X83694760Y-96768340D01*
X83694756Y-96768340D01*
X83587497Y-96766936D01*
X83486901Y-96765619D01*
X83481204Y-96766598D01*
X83481203Y-96766598D01*
X83282031Y-96800822D01*
X83276334Y-96801801D01*
X83075887Y-96875750D01*
X83070926Y-96878702D01*
X83070925Y-96878702D01*
X82897240Y-96982033D01*
X82897237Y-96982035D01*
X82892272Y-96984989D01*
X82887932Y-96988795D01*
X82887928Y-96988798D01*
X82735981Y-97122053D01*
X82731640Y-97125860D01*
X82599369Y-97293645D01*
X82596680Y-97298756D01*
X82596678Y-97298759D01*
X82583044Y-97324674D01*
X82499889Y-97482725D01*
X82498175Y-97488246D01*
X82498173Y-97488250D01*
X82492683Y-97505933D01*
X82436532Y-97686767D01*
X82411420Y-97898939D01*
X79663172Y-97898939D01*
X79646430Y-97716744D01*
X79639592Y-97692496D01*
X79590004Y-97516672D01*
X79590003Y-97516670D01*
X79588436Y-97511113D01*
X79577162Y-97488250D01*
X79496495Y-97324674D01*
X79493940Y-97319493D01*
X79474639Y-97293645D01*
X79369560Y-97152927D01*
X79369559Y-97152926D01*
X79366107Y-97148303D01*
X79361871Y-97144387D01*
X79213457Y-97007195D01*
X79213454Y-97007193D01*
X79209217Y-97003276D01*
X79028525Y-96889268D01*
X78830082Y-96810097D01*
X78824425Y-96808972D01*
X78824419Y-96808970D01*
X78626203Y-96769543D01*
X78626199Y-96769543D01*
X78620535Y-96768416D01*
X78614760Y-96768340D01*
X78614756Y-96768340D01*
X78507497Y-96766936D01*
X78406901Y-96765619D01*
X78401204Y-96766598D01*
X78401203Y-96766598D01*
X78202031Y-96800822D01*
X78196334Y-96801801D01*
X77995887Y-96875750D01*
X77990926Y-96878702D01*
X77990925Y-96878702D01*
X77817240Y-96982033D01*
X77817237Y-96982035D01*
X77812272Y-96984989D01*
X77807932Y-96988795D01*
X77807928Y-96988798D01*
X77655981Y-97122053D01*
X77651640Y-97125860D01*
X77519369Y-97293645D01*
X77516680Y-97298756D01*
X77516678Y-97298759D01*
X77503044Y-97324674D01*
X77419889Y-97482725D01*
X77418175Y-97488246D01*
X77418173Y-97488250D01*
X77412683Y-97505933D01*
X77356532Y-97686767D01*
X77355854Y-97692496D01*
X77355854Y-97692497D01*
X77354323Y-97705430D01*
X77326452Y-97770728D01*
X77267704Y-97810592D01*
X77196729Y-97812365D01*
X77136063Y-97775486D01*
X77106823Y-97716633D01*
X77106430Y-97716744D01*
X77099592Y-97692496D01*
X77050004Y-97516672D01*
X77050003Y-97516670D01*
X77048436Y-97511113D01*
X77037162Y-97488250D01*
X76956495Y-97324674D01*
X76953940Y-97319493D01*
X76934639Y-97293645D01*
X76829560Y-97152927D01*
X76829559Y-97152926D01*
X76826107Y-97148303D01*
X76821871Y-97144387D01*
X76673457Y-97007195D01*
X76673454Y-97007193D01*
X76669217Y-97003276D01*
X76488525Y-96889268D01*
X76290082Y-96810097D01*
X76284425Y-96808972D01*
X76284419Y-96808970D01*
X76086203Y-96769543D01*
X76086199Y-96769543D01*
X76080535Y-96768416D01*
X76074760Y-96768340D01*
X76074756Y-96768340D01*
X75967497Y-96766936D01*
X75866901Y-96765619D01*
X75861204Y-96766598D01*
X75861203Y-96766598D01*
X75662031Y-96800822D01*
X75656334Y-96801801D01*
X75455887Y-96875750D01*
X75450926Y-96878702D01*
X75450925Y-96878702D01*
X75277240Y-96982033D01*
X75277237Y-96982035D01*
X75272272Y-96984989D01*
X75267932Y-96988795D01*
X75267928Y-96988798D01*
X75115981Y-97122053D01*
X75111640Y-97125860D01*
X74979369Y-97293645D01*
X74976680Y-97298756D01*
X74976678Y-97298759D01*
X74963044Y-97324674D01*
X74879889Y-97482725D01*
X74878175Y-97488246D01*
X74878173Y-97488250D01*
X74872683Y-97505933D01*
X74816532Y-97686767D01*
X74815854Y-97692496D01*
X74815854Y-97692497D01*
X74814323Y-97705430D01*
X74786452Y-97770728D01*
X74727704Y-97810592D01*
X74656729Y-97812365D01*
X74596063Y-97775486D01*
X74566823Y-97716633D01*
X74566430Y-97716744D01*
X74559592Y-97692496D01*
X74510004Y-97516672D01*
X74510003Y-97516670D01*
X74508436Y-97511113D01*
X74497162Y-97488250D01*
X74416495Y-97324674D01*
X74413940Y-97319493D01*
X74394639Y-97293645D01*
X74289560Y-97152927D01*
X74289559Y-97152926D01*
X74286107Y-97148303D01*
X74281871Y-97144387D01*
X74133457Y-97007195D01*
X74133454Y-97007193D01*
X74129217Y-97003276D01*
X73948525Y-96889268D01*
X73750082Y-96810097D01*
X73744425Y-96808972D01*
X73744419Y-96808970D01*
X73546203Y-96769543D01*
X73546199Y-96769543D01*
X73540535Y-96768416D01*
X73534760Y-96768340D01*
X73534756Y-96768340D01*
X73427497Y-96766936D01*
X73326901Y-96765619D01*
X73321204Y-96766598D01*
X73321203Y-96766598D01*
X73122031Y-96800822D01*
X73116334Y-96801801D01*
X72915887Y-96875750D01*
X72910926Y-96878702D01*
X72910925Y-96878702D01*
X72737240Y-96982033D01*
X72737237Y-96982035D01*
X72732272Y-96984989D01*
X72727932Y-96988795D01*
X72727928Y-96988798D01*
X72575981Y-97122053D01*
X72571640Y-97125860D01*
X72439369Y-97293645D01*
X72436680Y-97298756D01*
X72436678Y-97298759D01*
X72423044Y-97324674D01*
X72339889Y-97482725D01*
X72338175Y-97488246D01*
X72338173Y-97488250D01*
X72332683Y-97505933D01*
X72276532Y-97686767D01*
X72275854Y-97692496D01*
X72275854Y-97692497D01*
X72274323Y-97705430D01*
X72246452Y-97770728D01*
X72187704Y-97810592D01*
X72116729Y-97812365D01*
X72056063Y-97775486D01*
X72026823Y-97716633D01*
X72026430Y-97716744D01*
X72019592Y-97692496D01*
X71970004Y-97516672D01*
X71970003Y-97516670D01*
X71968436Y-97511113D01*
X71957162Y-97488250D01*
X71876495Y-97324674D01*
X71873940Y-97319493D01*
X71854639Y-97293645D01*
X71749560Y-97152927D01*
X71749559Y-97152926D01*
X71746107Y-97148303D01*
X71741871Y-97144387D01*
X71593457Y-97007195D01*
X71593454Y-97007193D01*
X71589217Y-97003276D01*
X71408525Y-96889268D01*
X71210082Y-96810097D01*
X71148693Y-96797886D01*
X71074570Y-96783142D01*
X71011661Y-96750234D01*
X70976529Y-96688539D01*
X70980329Y-96617645D01*
X71021855Y-96560059D01*
X71081070Y-96534868D01*
X71151043Y-96524722D01*
X71156507Y-96522867D01*
X71156512Y-96522866D01*
X71347889Y-96457902D01*
X71353357Y-96456046D01*
X71539768Y-96351651D01*
X71549266Y-96343752D01*
X71638512Y-96269526D01*
X71704033Y-96215033D01*
X71840651Y-96050768D01*
X71945046Y-95864357D01*
X71985292Y-95745795D01*
X72011866Y-95667512D01*
X72011867Y-95667507D01*
X72013722Y-95662043D01*
X72026759Y-95572134D01*
X72040190Y-95479500D01*
X72044380Y-95450601D01*
X72045980Y-95389500D01*
X72026430Y-95176744D01*
X72019592Y-95152496D01*
X71970004Y-94976672D01*
X71970003Y-94976670D01*
X71968436Y-94971113D01*
X71957162Y-94948250D01*
X71876495Y-94784674D01*
X71873940Y-94779493D01*
X71854639Y-94753645D01*
X71749560Y-94612927D01*
X71749559Y-94612926D01*
X71746107Y-94608303D01*
X71733914Y-94597032D01*
X71593457Y-94467195D01*
X71593454Y-94467193D01*
X71589217Y-94463276D01*
X71408525Y-94349268D01*
X71210082Y-94270097D01*
X71148693Y-94257886D01*
X71074570Y-94243142D01*
X71011661Y-94210234D01*
X70976529Y-94148539D01*
X70980329Y-94077645D01*
X71021855Y-94020059D01*
X71081070Y-93994868D01*
X71151043Y-93984722D01*
X71156507Y-93982867D01*
X71156512Y-93982866D01*
X71347889Y-93917902D01*
X71353357Y-93916046D01*
X71539768Y-93811651D01*
X71704033Y-93675033D01*
X71840651Y-93510768D01*
X71945046Y-93324357D01*
X72013722Y-93122043D01*
X72019948Y-93079108D01*
X72043847Y-92914275D01*
X72044380Y-92910601D01*
X72045980Y-92849500D01*
X72033617Y-92714956D01*
X72026959Y-92642498D01*
X72026958Y-92642495D01*
X72026430Y-92636744D01*
X72019592Y-92612496D01*
X71970004Y-92436672D01*
X71970003Y-92436670D01*
X71968436Y-92431113D01*
X71957162Y-92408250D01*
X71876495Y-92244674D01*
X71873940Y-92239493D01*
X71854639Y-92213645D01*
X71749560Y-92072927D01*
X71749559Y-92072926D01*
X71746107Y-92068303D01*
X71741871Y-92064387D01*
X71593457Y-91927195D01*
X71593454Y-91927193D01*
X71589217Y-91923276D01*
X71408525Y-91809268D01*
X71210082Y-91730097D01*
X71204425Y-91728972D01*
X71204419Y-91728970D01*
X71006203Y-91689543D01*
X71006199Y-91689543D01*
X71000535Y-91688416D01*
X70994760Y-91688340D01*
X70994756Y-91688340D01*
X70887497Y-91686936D01*
X70786901Y-91685619D01*
X70781204Y-91686598D01*
X70781203Y-91686598D01*
X70582031Y-91720822D01*
X70576334Y-91721801D01*
X70375887Y-91795750D01*
X70370926Y-91798702D01*
X70370925Y-91798702D01*
X70197240Y-91902033D01*
X70197237Y-91902035D01*
X70192272Y-91904989D01*
X70187932Y-91908795D01*
X70187928Y-91908798D01*
X70118739Y-91969476D01*
X70031640Y-92045860D01*
X69899369Y-92213645D01*
X69896680Y-92218756D01*
X69896678Y-92218759D01*
X69842330Y-92322057D01*
X69799889Y-92402725D01*
X69798175Y-92408246D01*
X69798173Y-92408250D01*
X69739555Y-92597032D01*
X69736532Y-92606767D01*
X69711420Y-92818939D01*
X69725394Y-93032134D01*
X69777985Y-93239213D01*
X69867433Y-93433240D01*
X69990741Y-93607718D01*
X69994883Y-93611753D01*
X70044285Y-93659878D01*
X70143781Y-93756802D01*
X70321427Y-93875501D01*
X70326730Y-93877779D01*
X70326733Y-93877781D01*
X70444704Y-93928465D01*
X70517729Y-93959839D01*
X70588855Y-93975933D01*
X70683690Y-93997393D01*
X70745717Y-94031936D01*
X70779221Y-94094530D01*
X70773567Y-94165301D01*
X70730548Y-94221780D01*
X70677221Y-94244465D01*
X70576334Y-94261801D01*
X70375887Y-94335750D01*
X70370926Y-94338702D01*
X70370925Y-94338702D01*
X70197240Y-94442033D01*
X70197237Y-94442035D01*
X70192272Y-94444989D01*
X70187932Y-94448795D01*
X70187928Y-94448798D01*
X70154126Y-94478442D01*
X70031640Y-94585860D01*
X69899369Y-94753645D01*
X69896680Y-94758756D01*
X69896678Y-94758759D01*
X69883044Y-94784674D01*
X69799889Y-94942725D01*
X69798175Y-94948246D01*
X69798173Y-94948250D01*
X69757541Y-95079108D01*
X69736532Y-95146767D01*
X69711420Y-95358939D01*
X69725394Y-95572134D01*
X69777985Y-95779213D01*
X69867433Y-95973240D01*
X69870766Y-95977956D01*
X69968871Y-96116772D01*
X69990741Y-96147718D01*
X70143781Y-96296802D01*
X70321427Y-96415501D01*
X70326730Y-96417779D01*
X70326733Y-96417781D01*
X70433501Y-96463652D01*
X70517729Y-96499839D01*
X70588855Y-96515933D01*
X70683690Y-96537393D01*
X70745717Y-96571936D01*
X70779221Y-96634530D01*
X70773567Y-96705301D01*
X70730548Y-96761780D01*
X70677221Y-96784465D01*
X70576334Y-96801801D01*
X70375887Y-96875750D01*
X70370926Y-96878702D01*
X70370925Y-96878702D01*
X70197240Y-96982033D01*
X70197237Y-96982035D01*
X70192272Y-96984989D01*
X70187932Y-96988795D01*
X70187928Y-96988798D01*
X70035981Y-97122053D01*
X70031640Y-97125860D01*
X69899369Y-97293645D01*
X69896680Y-97298756D01*
X69896678Y-97298759D01*
X69883044Y-97324674D01*
X69799889Y-97482725D01*
X69798175Y-97488246D01*
X69798173Y-97488250D01*
X69792683Y-97505933D01*
X69736532Y-97686767D01*
X69735854Y-97692496D01*
X69735854Y-97692497D01*
X69734323Y-97705430D01*
X69706452Y-97770728D01*
X69647704Y-97810592D01*
X69576729Y-97812365D01*
X69516063Y-97775486D01*
X69486823Y-97716633D01*
X69486430Y-97716744D01*
X69479592Y-97692496D01*
X69430004Y-97516672D01*
X69430003Y-97516670D01*
X69428436Y-97511113D01*
X69417162Y-97488250D01*
X69336495Y-97324674D01*
X69333940Y-97319493D01*
X69314639Y-97293645D01*
X69209560Y-97152927D01*
X69209559Y-97152926D01*
X69206107Y-97148303D01*
X69201871Y-97144387D01*
X69053457Y-97007195D01*
X69053454Y-97007193D01*
X69049217Y-97003276D01*
X68868525Y-96889268D01*
X68670082Y-96810097D01*
X68664425Y-96808972D01*
X68664419Y-96808970D01*
X68466203Y-96769543D01*
X68466199Y-96769543D01*
X68460535Y-96768416D01*
X68454760Y-96768340D01*
X68454756Y-96768340D01*
X68347497Y-96766936D01*
X68246901Y-96765619D01*
X68241204Y-96766598D01*
X68241203Y-96766598D01*
X68042031Y-96800822D01*
X68036334Y-96801801D01*
X67835887Y-96875750D01*
X67830926Y-96878702D01*
X67830925Y-96878702D01*
X67657240Y-96982033D01*
X67657237Y-96982035D01*
X67652272Y-96984989D01*
X67647932Y-96988795D01*
X67647928Y-96988798D01*
X67495981Y-97122053D01*
X67491640Y-97125860D01*
X67359369Y-97293645D01*
X67356680Y-97298756D01*
X67356678Y-97298759D01*
X67343044Y-97324674D01*
X67259889Y-97482725D01*
X67258175Y-97488246D01*
X67258173Y-97488250D01*
X67252683Y-97505933D01*
X67196532Y-97686767D01*
X67195854Y-97692496D01*
X67195854Y-97692497D01*
X67194323Y-97705430D01*
X67166452Y-97770728D01*
X67107704Y-97810592D01*
X67036729Y-97812365D01*
X66976063Y-97775486D01*
X66946823Y-97716633D01*
X66946430Y-97716744D01*
X66939592Y-97692496D01*
X66890004Y-97516672D01*
X66890003Y-97516670D01*
X66888436Y-97511113D01*
X66877162Y-97488250D01*
X66796495Y-97324674D01*
X66793940Y-97319493D01*
X66774639Y-97293645D01*
X66669560Y-97152927D01*
X66669559Y-97152926D01*
X66666107Y-97148303D01*
X66661871Y-97144387D01*
X66513457Y-97007195D01*
X66513454Y-97007193D01*
X66509217Y-97003276D01*
X66328525Y-96889268D01*
X66130082Y-96810097D01*
X66124425Y-96808972D01*
X66124419Y-96808970D01*
X65926203Y-96769543D01*
X65926199Y-96769543D01*
X65920535Y-96768416D01*
X65914760Y-96768340D01*
X65914756Y-96768340D01*
X65807497Y-96766936D01*
X65706901Y-96765619D01*
X65701204Y-96766598D01*
X65701203Y-96766598D01*
X65502031Y-96800822D01*
X65496334Y-96801801D01*
X65295887Y-96875750D01*
X65290926Y-96878702D01*
X65290925Y-96878702D01*
X65117240Y-96982033D01*
X65117237Y-96982035D01*
X65112272Y-96984989D01*
X65107932Y-96988795D01*
X65107928Y-96988798D01*
X64955981Y-97122053D01*
X64951640Y-97125860D01*
X64819369Y-97293645D01*
X64816680Y-97298756D01*
X64816678Y-97298759D01*
X64803044Y-97324674D01*
X64719889Y-97482725D01*
X64718175Y-97488246D01*
X64718173Y-97488250D01*
X64712683Y-97505933D01*
X64656532Y-97686767D01*
X64655854Y-97692496D01*
X64655854Y-97692497D01*
X64654323Y-97705430D01*
X64626452Y-97770728D01*
X64567704Y-97810592D01*
X64496729Y-97812365D01*
X64436063Y-97775486D01*
X64406823Y-97716633D01*
X64406430Y-97716744D01*
X64399592Y-97692496D01*
X64350004Y-97516672D01*
X64350003Y-97516670D01*
X64348436Y-97511113D01*
X64337162Y-97488250D01*
X64256495Y-97324674D01*
X64253940Y-97319493D01*
X64234639Y-97293645D01*
X64129560Y-97152927D01*
X64129559Y-97152926D01*
X64126107Y-97148303D01*
X64121871Y-97144387D01*
X63973457Y-97007195D01*
X63973454Y-97007193D01*
X63969217Y-97003276D01*
X63788525Y-96889268D01*
X63590082Y-96810097D01*
X63584425Y-96808972D01*
X63584419Y-96808970D01*
X63386203Y-96769543D01*
X63386199Y-96769543D01*
X63380535Y-96768416D01*
X63374760Y-96768340D01*
X63374756Y-96768340D01*
X63267497Y-96766936D01*
X63166901Y-96765619D01*
X63161204Y-96766598D01*
X63161203Y-96766598D01*
X62962031Y-96800822D01*
X62956334Y-96801801D01*
X62755887Y-96875750D01*
X62750926Y-96878702D01*
X62750925Y-96878702D01*
X62577240Y-96982033D01*
X62577237Y-96982035D01*
X62572272Y-96984989D01*
X62567932Y-96988795D01*
X62567928Y-96988798D01*
X62415981Y-97122053D01*
X62411640Y-97125860D01*
X62279369Y-97293645D01*
X62276680Y-97298756D01*
X62276678Y-97298759D01*
X62263044Y-97324674D01*
X62179889Y-97482725D01*
X62178175Y-97488246D01*
X62178173Y-97488250D01*
X62172683Y-97505933D01*
X62116532Y-97686767D01*
X62115854Y-97692496D01*
X62115854Y-97692497D01*
X62114323Y-97705430D01*
X62086452Y-97770728D01*
X62027704Y-97810592D01*
X61956729Y-97812365D01*
X61896063Y-97775486D01*
X61866823Y-97716633D01*
X61866430Y-97716744D01*
X61859592Y-97692496D01*
X61810004Y-97516672D01*
X61810003Y-97516670D01*
X61808436Y-97511113D01*
X61797162Y-97488250D01*
X61716495Y-97324674D01*
X61713940Y-97319493D01*
X61694639Y-97293645D01*
X61589560Y-97152927D01*
X61589559Y-97152926D01*
X61586107Y-97148303D01*
X61581871Y-97144387D01*
X61433457Y-97007195D01*
X61433454Y-97007193D01*
X61429217Y-97003276D01*
X61248525Y-96889268D01*
X61050082Y-96810097D01*
X61044425Y-96808972D01*
X61044419Y-96808970D01*
X60846203Y-96769543D01*
X60846199Y-96769543D01*
X60840535Y-96768416D01*
X60834760Y-96768340D01*
X60834756Y-96768340D01*
X60727497Y-96766936D01*
X60626901Y-96765619D01*
X60621204Y-96766598D01*
X60621203Y-96766598D01*
X60422031Y-96800822D01*
X60416334Y-96801801D01*
X60215887Y-96875750D01*
X60210926Y-96878702D01*
X60210925Y-96878702D01*
X60037240Y-96982033D01*
X60037237Y-96982035D01*
X60032272Y-96984989D01*
X60027932Y-96988795D01*
X60027928Y-96988798D01*
X59875981Y-97122053D01*
X59871640Y-97125860D01*
X59739369Y-97293645D01*
X59736680Y-97298756D01*
X59736678Y-97298759D01*
X59723044Y-97324674D01*
X59639889Y-97482725D01*
X59638175Y-97488246D01*
X59638173Y-97488250D01*
X59632683Y-97505933D01*
X59576532Y-97686767D01*
X59575854Y-97692496D01*
X59575854Y-97692497D01*
X59574323Y-97705430D01*
X59546452Y-97770728D01*
X59487704Y-97810592D01*
X59416729Y-97812365D01*
X59356063Y-97775486D01*
X59326823Y-97716633D01*
X59326430Y-97716744D01*
X59319592Y-97692496D01*
X59270004Y-97516672D01*
X59270003Y-97516670D01*
X59268436Y-97511113D01*
X59257162Y-97488250D01*
X59176495Y-97324674D01*
X59173940Y-97319493D01*
X59154639Y-97293645D01*
X59049560Y-97152927D01*
X59049559Y-97152926D01*
X59046107Y-97148303D01*
X59041871Y-97144387D01*
X58893457Y-97007195D01*
X58893454Y-97007193D01*
X58889217Y-97003276D01*
X58708525Y-96889268D01*
X58510082Y-96810097D01*
X58504425Y-96808972D01*
X58504419Y-96808970D01*
X58306203Y-96769543D01*
X58306199Y-96769543D01*
X58300535Y-96768416D01*
X58294760Y-96768340D01*
X58294756Y-96768340D01*
X58187497Y-96766936D01*
X58086901Y-96765619D01*
X58081204Y-96766598D01*
X58081203Y-96766598D01*
X57882031Y-96800822D01*
X57876334Y-96801801D01*
X57675887Y-96875750D01*
X57670926Y-96878702D01*
X57670925Y-96878702D01*
X57497240Y-96982033D01*
X57497237Y-96982035D01*
X57492272Y-96984989D01*
X57487932Y-96988795D01*
X57487928Y-96988798D01*
X57335981Y-97122053D01*
X57331640Y-97125860D01*
X57199369Y-97293645D01*
X57196680Y-97298756D01*
X57196678Y-97298759D01*
X57183044Y-97324674D01*
X57099889Y-97482725D01*
X57098175Y-97488246D01*
X57098173Y-97488250D01*
X57092683Y-97505933D01*
X57036532Y-97686767D01*
X57011420Y-97898939D01*
X55372500Y-97898939D01*
X55372500Y-82658939D01*
X57011420Y-82658939D01*
X57025394Y-82872134D01*
X57077985Y-83079213D01*
X57167433Y-83273240D01*
X57290741Y-83447718D01*
X57443781Y-83596802D01*
X57621427Y-83715501D01*
X57626730Y-83717779D01*
X57626733Y-83717781D01*
X57812422Y-83797559D01*
X57817729Y-83799839D01*
X57919493Y-83822866D01*
X58020477Y-83845717D01*
X58020480Y-83845717D01*
X58026113Y-83846992D01*
X58031884Y-83847219D01*
X58031886Y-83847219D01*
X58096863Y-83849772D01*
X58239601Y-83855380D01*
X58363654Y-83837393D01*
X58445329Y-83825551D01*
X58445334Y-83825550D01*
X58451043Y-83824722D01*
X58456507Y-83822867D01*
X58456512Y-83822866D01*
X58647889Y-83757902D01*
X58653357Y-83756046D01*
X58839768Y-83651651D01*
X59004033Y-83515033D01*
X59140651Y-83350768D01*
X59245046Y-83164357D01*
X59313722Y-82962043D01*
X59322590Y-82900879D01*
X59352160Y-82836335D01*
X59411931Y-82798022D01*
X59482928Y-82798106D01*
X59542608Y-82836561D01*
X59569409Y-82887945D01*
X59588228Y-82962043D01*
X59617985Y-83079213D01*
X59707433Y-83273240D01*
X59830741Y-83447718D01*
X59983781Y-83596802D01*
X60161427Y-83715501D01*
X60166730Y-83717779D01*
X60166733Y-83717781D01*
X60352422Y-83797559D01*
X60357729Y-83799839D01*
X60459493Y-83822866D01*
X60560477Y-83845717D01*
X60560480Y-83845717D01*
X60566113Y-83846992D01*
X60571884Y-83847219D01*
X60571886Y-83847219D01*
X60636863Y-83849772D01*
X60779601Y-83855380D01*
X60903654Y-83837393D01*
X60985329Y-83825551D01*
X60985334Y-83825550D01*
X60991043Y-83824722D01*
X60996507Y-83822867D01*
X60996512Y-83822866D01*
X61187889Y-83757902D01*
X61193357Y-83756046D01*
X61379768Y-83651651D01*
X61544033Y-83515033D01*
X61680651Y-83350768D01*
X61785046Y-83164357D01*
X61853722Y-82962043D01*
X61862590Y-82900879D01*
X61892160Y-82836335D01*
X61951931Y-82798022D01*
X62022928Y-82798106D01*
X62082608Y-82836561D01*
X62109409Y-82887945D01*
X62128228Y-82962043D01*
X62157985Y-83079213D01*
X62247433Y-83273240D01*
X62370741Y-83447718D01*
X62523781Y-83596802D01*
X62701427Y-83715501D01*
X62706730Y-83717779D01*
X62706733Y-83717781D01*
X62892422Y-83797559D01*
X62897729Y-83799839D01*
X62999493Y-83822866D01*
X63100477Y-83845717D01*
X63100480Y-83845717D01*
X63106113Y-83846992D01*
X63111884Y-83847219D01*
X63111886Y-83847219D01*
X63176863Y-83849772D01*
X63319601Y-83855380D01*
X63443654Y-83837393D01*
X63525329Y-83825551D01*
X63525334Y-83825550D01*
X63531043Y-83824722D01*
X63536507Y-83822867D01*
X63536512Y-83822866D01*
X63727889Y-83757902D01*
X63733357Y-83756046D01*
X63919768Y-83651651D01*
X64084033Y-83515033D01*
X64220651Y-83350768D01*
X64325046Y-83164357D01*
X64393722Y-82962043D01*
X64402590Y-82900879D01*
X64432160Y-82836335D01*
X64491931Y-82798022D01*
X64562928Y-82798106D01*
X64622608Y-82836561D01*
X64649409Y-82887945D01*
X64668228Y-82962043D01*
X64697985Y-83079213D01*
X64787433Y-83273240D01*
X64910741Y-83447718D01*
X65063781Y-83596802D01*
X65241427Y-83715501D01*
X65246730Y-83717779D01*
X65246733Y-83717781D01*
X65432422Y-83797559D01*
X65437729Y-83799839D01*
X65539493Y-83822866D01*
X65640477Y-83845717D01*
X65640480Y-83845717D01*
X65646113Y-83846992D01*
X65651884Y-83847219D01*
X65651886Y-83847219D01*
X65716863Y-83849772D01*
X65859601Y-83855380D01*
X65983654Y-83837393D01*
X66065329Y-83825551D01*
X66065334Y-83825550D01*
X66071043Y-83824722D01*
X66076507Y-83822867D01*
X66076512Y-83822866D01*
X66267889Y-83757902D01*
X66273357Y-83756046D01*
X66459768Y-83651651D01*
X66624033Y-83515033D01*
X66760651Y-83350768D01*
X66865046Y-83164357D01*
X66933722Y-82962043D01*
X66942590Y-82900879D01*
X66972160Y-82836335D01*
X67031931Y-82798022D01*
X67102928Y-82798106D01*
X67162608Y-82836561D01*
X67189409Y-82887945D01*
X67208228Y-82962043D01*
X67237985Y-83079213D01*
X67327433Y-83273240D01*
X67450741Y-83447718D01*
X67603781Y-83596802D01*
X67781427Y-83715501D01*
X67786730Y-83717779D01*
X67786733Y-83717781D01*
X67972422Y-83797559D01*
X67977729Y-83799839D01*
X68079493Y-83822866D01*
X68180477Y-83845717D01*
X68180480Y-83845717D01*
X68186113Y-83846992D01*
X68191884Y-83847219D01*
X68191886Y-83847219D01*
X68256863Y-83849772D01*
X68399601Y-83855380D01*
X68523654Y-83837393D01*
X68605329Y-83825551D01*
X68605334Y-83825550D01*
X68611043Y-83824722D01*
X68616507Y-83822867D01*
X68616512Y-83822866D01*
X68807889Y-83757902D01*
X68813357Y-83756046D01*
X68999768Y-83651651D01*
X69164033Y-83515033D01*
X69300651Y-83350768D01*
X69405046Y-83164357D01*
X69473722Y-82962043D01*
X69482590Y-82900879D01*
X69512160Y-82836335D01*
X69571931Y-82798022D01*
X69642928Y-82798106D01*
X69702608Y-82836561D01*
X69729409Y-82887945D01*
X69748228Y-82962043D01*
X69777985Y-83079213D01*
X69867433Y-83273240D01*
X69990741Y-83447718D01*
X70143781Y-83596802D01*
X70321427Y-83715501D01*
X70326730Y-83717779D01*
X70326733Y-83717781D01*
X70512422Y-83797559D01*
X70517729Y-83799839D01*
X70588855Y-83815933D01*
X70683690Y-83837393D01*
X70745717Y-83871936D01*
X70779221Y-83934530D01*
X70773567Y-84005301D01*
X70730548Y-84061780D01*
X70677221Y-84084465D01*
X70576334Y-84101801D01*
X70375887Y-84175750D01*
X70370926Y-84178702D01*
X70370925Y-84178702D01*
X70197240Y-84282033D01*
X70197237Y-84282035D01*
X70192272Y-84284989D01*
X70187932Y-84288795D01*
X70187928Y-84288798D01*
X70035981Y-84422053D01*
X70031640Y-84425860D01*
X69899369Y-84593645D01*
X69896680Y-84598756D01*
X69896678Y-84598759D01*
X69842330Y-84702057D01*
X69799889Y-84782725D01*
X69798175Y-84788246D01*
X69798173Y-84788250D01*
X69740154Y-84975103D01*
X69736532Y-84986767D01*
X69711420Y-85198939D01*
X69725394Y-85412134D01*
X69777985Y-85619213D01*
X69867433Y-85813240D01*
X69990741Y-85987718D01*
X70143781Y-86136802D01*
X70321427Y-86255501D01*
X70326730Y-86257779D01*
X70326733Y-86257781D01*
X70460850Y-86315402D01*
X70517729Y-86339839D01*
X70588855Y-86355933D01*
X70683690Y-86377393D01*
X70745717Y-86411936D01*
X70779221Y-86474530D01*
X70773567Y-86545301D01*
X70730548Y-86601780D01*
X70677221Y-86624465D01*
X70576334Y-86641801D01*
X70375887Y-86715750D01*
X70370926Y-86718702D01*
X70370925Y-86718702D01*
X70197240Y-86822033D01*
X70197237Y-86822035D01*
X70192272Y-86824989D01*
X70187932Y-86828795D01*
X70187928Y-86828798D01*
X70130139Y-86879478D01*
X70031640Y-86965860D01*
X69899369Y-87133645D01*
X69896680Y-87138756D01*
X69896678Y-87138759D01*
X69883044Y-87164674D01*
X69799889Y-87322725D01*
X69798175Y-87328246D01*
X69798173Y-87328250D01*
X69792683Y-87345933D01*
X69736532Y-87526767D01*
X69711420Y-87738939D01*
X69725394Y-87952134D01*
X69777985Y-88159213D01*
X69867433Y-88353240D01*
X69990741Y-88527718D01*
X70143781Y-88676802D01*
X70321427Y-88795501D01*
X70326730Y-88797779D01*
X70326733Y-88797781D01*
X70512422Y-88877559D01*
X70517729Y-88879839D01*
X70619493Y-88902866D01*
X70720477Y-88925717D01*
X70720480Y-88925717D01*
X70726113Y-88926992D01*
X70731884Y-88927219D01*
X70731886Y-88927219D01*
X70796863Y-88929772D01*
X70939601Y-88935380D01*
X71045322Y-88920051D01*
X71145329Y-88905551D01*
X71145334Y-88905550D01*
X71151043Y-88904722D01*
X71156507Y-88902867D01*
X71156512Y-88902866D01*
X71347889Y-88837902D01*
X71353357Y-88836046D01*
X71539768Y-88731651D01*
X71704033Y-88595033D01*
X71840651Y-88430768D01*
X71945046Y-88244357D01*
X72013722Y-88042043D01*
X72026759Y-87952134D01*
X72043847Y-87834275D01*
X72044380Y-87830601D01*
X72045980Y-87769500D01*
X72026430Y-87556744D01*
X72019592Y-87532496D01*
X71970004Y-87356672D01*
X71970003Y-87356670D01*
X71968436Y-87351113D01*
X71957162Y-87328250D01*
X71876495Y-87164674D01*
X71873940Y-87159493D01*
X71854639Y-87133645D01*
X71749560Y-86992927D01*
X71749559Y-86992926D01*
X71746107Y-86988303D01*
X71741871Y-86984387D01*
X71593457Y-86847195D01*
X71593454Y-86847193D01*
X71589217Y-86843276D01*
X71408525Y-86729268D01*
X71210082Y-86650097D01*
X71148693Y-86637886D01*
X71074570Y-86623142D01*
X71011661Y-86590234D01*
X70976529Y-86528539D01*
X70980329Y-86457645D01*
X71021855Y-86400059D01*
X71081070Y-86374868D01*
X71151043Y-86364722D01*
X71156507Y-86362867D01*
X71156512Y-86362866D01*
X71347889Y-86297902D01*
X71353357Y-86296046D01*
X71539768Y-86191651D01*
X71704033Y-86055033D01*
X71840651Y-85890768D01*
X71942112Y-85709596D01*
X104026518Y-85709596D01*
X104040192Y-85918207D01*
X104091652Y-86120832D01*
X104179176Y-86310686D01*
X104299833Y-86481412D01*
X104449581Y-86627291D01*
X104454377Y-86630496D01*
X104454380Y-86630498D01*
X104524379Y-86677269D01*
X104623407Y-86743437D01*
X104628710Y-86745715D01*
X104628713Y-86745717D01*
X104715748Y-86783110D01*
X104815487Y-86825961D01*
X105019390Y-86872100D01*
X105025159Y-86872327D01*
X105025162Y-86872327D01*
X105103967Y-86875423D01*
X105228287Y-86880307D01*
X105435182Y-86850309D01*
X105440646Y-86848454D01*
X105440651Y-86848453D01*
X105627677Y-86784966D01*
X105633145Y-86783110D01*
X105815547Y-86680960D01*
X105976280Y-86547280D01*
X106109960Y-86386547D01*
X106212110Y-86204145D01*
X106242292Y-86115232D01*
X106277453Y-86011651D01*
X106277454Y-86011646D01*
X106279309Y-86006182D01*
X106309307Y-85799287D01*
X106310873Y-85739500D01*
X106308125Y-85709596D01*
X106566518Y-85709596D01*
X106580192Y-85918207D01*
X106631652Y-86120832D01*
X106719176Y-86310686D01*
X106839833Y-86481412D01*
X106989581Y-86627291D01*
X106994377Y-86630496D01*
X106994380Y-86630498D01*
X107064379Y-86677269D01*
X107163407Y-86743437D01*
X107168710Y-86745715D01*
X107168713Y-86745717D01*
X107255748Y-86783110D01*
X107355487Y-86825961D01*
X107559390Y-86872100D01*
X107565159Y-86872327D01*
X107565162Y-86872327D01*
X107643967Y-86875423D01*
X107768287Y-86880307D01*
X107975182Y-86850309D01*
X107980646Y-86848454D01*
X107980651Y-86848453D01*
X108167677Y-86784966D01*
X108173145Y-86783110D01*
X108355547Y-86680960D01*
X108516280Y-86547280D01*
X108649960Y-86386547D01*
X108752110Y-86204145D01*
X108782292Y-86115232D01*
X108817453Y-86011651D01*
X108817454Y-86011646D01*
X108819309Y-86006182D01*
X108849307Y-85799287D01*
X108850873Y-85739500D01*
X108848125Y-85709596D01*
X109106518Y-85709596D01*
X109120192Y-85918207D01*
X109171652Y-86120832D01*
X109259176Y-86310686D01*
X109379833Y-86481412D01*
X109529581Y-86627291D01*
X109534377Y-86630496D01*
X109534380Y-86630498D01*
X109604379Y-86677269D01*
X109703407Y-86743437D01*
X109708710Y-86745715D01*
X109708713Y-86745717D01*
X109795748Y-86783110D01*
X109895487Y-86825961D01*
X110099390Y-86872100D01*
X110105159Y-86872327D01*
X110105162Y-86872327D01*
X110183967Y-86875423D01*
X110308287Y-86880307D01*
X110515182Y-86850309D01*
X110520646Y-86848454D01*
X110520651Y-86848453D01*
X110707677Y-86784966D01*
X110713145Y-86783110D01*
X110895547Y-86680960D01*
X111056280Y-86547280D01*
X111189960Y-86386547D01*
X111292110Y-86204145D01*
X111322292Y-86115232D01*
X111357453Y-86011651D01*
X111357454Y-86011646D01*
X111359309Y-86006182D01*
X111389307Y-85799287D01*
X111390873Y-85739500D01*
X111371744Y-85531319D01*
X111365090Y-85507724D01*
X111316565Y-85335669D01*
X111316564Y-85335667D01*
X111314997Y-85330110D01*
X111304019Y-85307847D01*
X111225088Y-85147793D01*
X111222533Y-85142612D01*
X111219082Y-85137990D01*
X111219078Y-85137984D01*
X111100902Y-84979727D01*
X111100901Y-84979726D01*
X111097449Y-84975103D01*
X111093213Y-84971187D01*
X110948173Y-84837114D01*
X110948170Y-84837112D01*
X110943933Y-84833195D01*
X110767126Y-84721638D01*
X110572951Y-84644170D01*
X110567291Y-84643044D01*
X110567287Y-84643043D01*
X110373577Y-84604512D01*
X110373575Y-84604512D01*
X110367910Y-84603385D01*
X110362135Y-84603309D01*
X110362131Y-84603309D01*
X110257731Y-84601943D01*
X110158870Y-84600649D01*
X110153173Y-84601628D01*
X110153172Y-84601628D01*
X109958529Y-84635073D01*
X109958528Y-84635073D01*
X109952832Y-84636052D01*
X109756696Y-84708411D01*
X109751735Y-84711363D01*
X109751734Y-84711363D01*
X109622499Y-84788250D01*
X109577030Y-84815301D01*
X109419852Y-84953142D01*
X109290425Y-85117319D01*
X109193085Y-85302333D01*
X109131091Y-85501987D01*
X109106518Y-85709596D01*
X108848125Y-85709596D01*
X108831744Y-85531319D01*
X108825090Y-85507724D01*
X108776565Y-85335669D01*
X108776564Y-85335667D01*
X108774997Y-85330110D01*
X108764019Y-85307847D01*
X108685088Y-85147793D01*
X108682533Y-85142612D01*
X108679082Y-85137990D01*
X108679078Y-85137984D01*
X108560902Y-84979727D01*
X108560901Y-84979726D01*
X108557449Y-84975103D01*
X108553213Y-84971187D01*
X108408173Y-84837114D01*
X108408170Y-84837112D01*
X108403933Y-84833195D01*
X108227126Y-84721638D01*
X108032951Y-84644170D01*
X108027291Y-84643044D01*
X108027287Y-84643043D01*
X107833577Y-84604512D01*
X107833575Y-84604512D01*
X107827910Y-84603385D01*
X107822135Y-84603309D01*
X107822131Y-84603309D01*
X107717731Y-84601943D01*
X107618870Y-84600649D01*
X107613173Y-84601628D01*
X107613172Y-84601628D01*
X107418529Y-84635073D01*
X107418528Y-84635073D01*
X107412832Y-84636052D01*
X107216696Y-84708411D01*
X107211735Y-84711363D01*
X107211734Y-84711363D01*
X107082499Y-84788250D01*
X107037030Y-84815301D01*
X106879852Y-84953142D01*
X106750425Y-85117319D01*
X106653085Y-85302333D01*
X106591091Y-85501987D01*
X106566518Y-85709596D01*
X106308125Y-85709596D01*
X106291744Y-85531319D01*
X106285090Y-85507724D01*
X106236565Y-85335669D01*
X106236564Y-85335667D01*
X106234997Y-85330110D01*
X106224019Y-85307847D01*
X106145088Y-85147793D01*
X106142533Y-85142612D01*
X106139082Y-85137990D01*
X106139078Y-85137984D01*
X106020902Y-84979727D01*
X106020901Y-84979726D01*
X106017449Y-84975103D01*
X106013213Y-84971187D01*
X105868173Y-84837114D01*
X105868170Y-84837112D01*
X105863933Y-84833195D01*
X105687126Y-84721638D01*
X105492951Y-84644170D01*
X105487291Y-84643044D01*
X105487287Y-84643043D01*
X105293577Y-84604512D01*
X105293575Y-84604512D01*
X105287910Y-84603385D01*
X105282135Y-84603309D01*
X105282131Y-84603309D01*
X105177731Y-84601943D01*
X105078870Y-84600649D01*
X105073173Y-84601628D01*
X105073172Y-84601628D01*
X104878529Y-84635073D01*
X104878528Y-84635073D01*
X104872832Y-84636052D01*
X104676696Y-84708411D01*
X104671735Y-84711363D01*
X104671734Y-84711363D01*
X104542499Y-84788250D01*
X104497030Y-84815301D01*
X104339852Y-84953142D01*
X104210425Y-85117319D01*
X104113085Y-85302333D01*
X104051091Y-85501987D01*
X104026518Y-85709596D01*
X71942112Y-85709596D01*
X71945046Y-85704357D01*
X72001831Y-85537073D01*
X72011866Y-85507512D01*
X72011867Y-85507507D01*
X72013722Y-85502043D01*
X72026759Y-85412134D01*
X72043847Y-85294275D01*
X72044380Y-85290601D01*
X72045980Y-85229500D01*
X72026430Y-85016744D01*
X72019592Y-84992496D01*
X71970004Y-84816672D01*
X71970003Y-84816670D01*
X71968436Y-84811113D01*
X71957162Y-84788250D01*
X71876495Y-84624674D01*
X71873940Y-84619493D01*
X71854639Y-84593645D01*
X71749560Y-84452927D01*
X71749559Y-84452926D01*
X71746107Y-84448303D01*
X71741871Y-84444387D01*
X71593457Y-84307195D01*
X71593454Y-84307193D01*
X71589217Y-84303276D01*
X71408525Y-84189268D01*
X71210082Y-84110097D01*
X71148693Y-84097886D01*
X71074570Y-84083142D01*
X71011661Y-84050234D01*
X70976529Y-83988539D01*
X70980329Y-83917645D01*
X71021855Y-83860059D01*
X71081070Y-83834868D01*
X71151043Y-83824722D01*
X71156507Y-83822867D01*
X71156512Y-83822866D01*
X71347889Y-83757902D01*
X71353357Y-83756046D01*
X71539768Y-83651651D01*
X71704033Y-83515033D01*
X71840651Y-83350768D01*
X71945046Y-83164357D01*
X72013722Y-82962043D01*
X72022590Y-82900879D01*
X72052160Y-82836335D01*
X72111931Y-82798022D01*
X72182928Y-82798106D01*
X72242608Y-82836561D01*
X72269409Y-82887945D01*
X72288228Y-82962043D01*
X72317985Y-83079213D01*
X72407433Y-83273240D01*
X72530741Y-83447718D01*
X72683781Y-83596802D01*
X72861427Y-83715501D01*
X72866730Y-83717779D01*
X72866733Y-83717781D01*
X73052422Y-83797559D01*
X73057729Y-83799839D01*
X73159493Y-83822866D01*
X73260477Y-83845717D01*
X73260480Y-83845717D01*
X73266113Y-83846992D01*
X73271884Y-83847219D01*
X73271886Y-83847219D01*
X73336863Y-83849772D01*
X73479601Y-83855380D01*
X73603654Y-83837393D01*
X73685329Y-83825551D01*
X73685334Y-83825550D01*
X73691043Y-83824722D01*
X73696507Y-83822867D01*
X73696512Y-83822866D01*
X73887889Y-83757902D01*
X73893357Y-83756046D01*
X74079768Y-83651651D01*
X74244033Y-83515033D01*
X74380651Y-83350768D01*
X74485046Y-83164357D01*
X74553722Y-82962043D01*
X74562590Y-82900879D01*
X74592160Y-82836335D01*
X74651931Y-82798022D01*
X74722928Y-82798106D01*
X74782608Y-82836561D01*
X74809409Y-82887945D01*
X74828228Y-82962043D01*
X74857985Y-83079213D01*
X74947433Y-83273240D01*
X75070741Y-83447718D01*
X75223781Y-83596802D01*
X75401427Y-83715501D01*
X75406730Y-83717779D01*
X75406733Y-83717781D01*
X75592422Y-83797559D01*
X75597729Y-83799839D01*
X75699493Y-83822866D01*
X75800477Y-83845717D01*
X75800480Y-83845717D01*
X75806113Y-83846992D01*
X75811884Y-83847219D01*
X75811886Y-83847219D01*
X75876863Y-83849772D01*
X76019601Y-83855380D01*
X76143654Y-83837393D01*
X76225329Y-83825551D01*
X76225334Y-83825550D01*
X76231043Y-83824722D01*
X76236507Y-83822867D01*
X76236512Y-83822866D01*
X76427889Y-83757902D01*
X76433357Y-83756046D01*
X76619768Y-83651651D01*
X76784033Y-83515033D01*
X76920651Y-83350768D01*
X77025046Y-83164357D01*
X77093722Y-82962043D01*
X77102590Y-82900879D01*
X77132160Y-82836335D01*
X77191931Y-82798022D01*
X77262928Y-82798106D01*
X77322608Y-82836561D01*
X77349409Y-82887945D01*
X77368228Y-82962043D01*
X77397985Y-83079213D01*
X77487433Y-83273240D01*
X77610741Y-83447718D01*
X77763781Y-83596802D01*
X77941427Y-83715501D01*
X77946730Y-83717779D01*
X77946733Y-83717781D01*
X78132422Y-83797559D01*
X78137729Y-83799839D01*
X78239493Y-83822866D01*
X78340477Y-83845717D01*
X78340480Y-83845717D01*
X78346113Y-83846992D01*
X78351884Y-83847219D01*
X78351886Y-83847219D01*
X78416863Y-83849772D01*
X78559601Y-83855380D01*
X78683654Y-83837393D01*
X78765329Y-83825551D01*
X78765334Y-83825550D01*
X78771043Y-83824722D01*
X78776507Y-83822867D01*
X78776512Y-83822866D01*
X78967889Y-83757902D01*
X78973357Y-83756046D01*
X79159768Y-83651651D01*
X79324033Y-83515033D01*
X79460651Y-83350768D01*
X79565046Y-83164357D01*
X79633722Y-82962043D01*
X79642590Y-82900879D01*
X79672160Y-82836335D01*
X79731931Y-82798022D01*
X79802928Y-82798106D01*
X79862608Y-82836561D01*
X79889409Y-82887945D01*
X79908228Y-82962043D01*
X79937985Y-83079213D01*
X80027433Y-83273240D01*
X80150741Y-83447718D01*
X80303781Y-83596802D01*
X80481427Y-83715501D01*
X80486730Y-83717779D01*
X80486733Y-83717781D01*
X80672422Y-83797559D01*
X80677729Y-83799839D01*
X80779493Y-83822866D01*
X80880477Y-83845717D01*
X80880480Y-83845717D01*
X80886113Y-83846992D01*
X80891884Y-83847219D01*
X80891886Y-83847219D01*
X80956863Y-83849772D01*
X81099601Y-83855380D01*
X81223654Y-83837393D01*
X81305329Y-83825551D01*
X81305334Y-83825550D01*
X81311043Y-83824722D01*
X81316507Y-83822867D01*
X81316512Y-83822866D01*
X81507889Y-83757902D01*
X81513357Y-83756046D01*
X81699768Y-83651651D01*
X81864033Y-83515033D01*
X82000651Y-83350768D01*
X82105046Y-83164357D01*
X82173722Y-82962043D01*
X82182590Y-82900879D01*
X82212160Y-82836335D01*
X82271931Y-82798022D01*
X82342928Y-82798106D01*
X82402608Y-82836561D01*
X82429409Y-82887945D01*
X82448228Y-82962043D01*
X82477985Y-83079213D01*
X82567433Y-83273240D01*
X82690741Y-83447718D01*
X82843781Y-83596802D01*
X83021427Y-83715501D01*
X83026730Y-83717779D01*
X83026733Y-83717781D01*
X83212422Y-83797559D01*
X83217729Y-83799839D01*
X83319493Y-83822866D01*
X83420477Y-83845717D01*
X83420480Y-83845717D01*
X83426113Y-83846992D01*
X83431884Y-83847219D01*
X83431886Y-83847219D01*
X83496863Y-83849772D01*
X83639601Y-83855380D01*
X83763654Y-83837393D01*
X83845329Y-83825551D01*
X83845334Y-83825550D01*
X83851043Y-83824722D01*
X83856507Y-83822867D01*
X83856512Y-83822866D01*
X84047889Y-83757902D01*
X84053357Y-83756046D01*
X84239768Y-83651651D01*
X84404033Y-83515033D01*
X84540651Y-83350768D01*
X84645046Y-83164357D01*
X84713722Y-82962043D01*
X84722590Y-82900879D01*
X84752160Y-82836335D01*
X84811931Y-82798022D01*
X84882928Y-82798106D01*
X84942608Y-82836561D01*
X84969409Y-82887945D01*
X84988228Y-82962043D01*
X85017985Y-83079213D01*
X85107433Y-83273240D01*
X85230741Y-83447718D01*
X85383781Y-83596802D01*
X85561427Y-83715501D01*
X85566730Y-83717779D01*
X85566733Y-83717781D01*
X85752422Y-83797559D01*
X85757729Y-83799839D01*
X85859493Y-83822866D01*
X85960477Y-83845717D01*
X85960480Y-83845717D01*
X85966113Y-83846992D01*
X85971884Y-83847219D01*
X85971886Y-83847219D01*
X86036863Y-83849772D01*
X86179601Y-83855380D01*
X86303654Y-83837393D01*
X86385329Y-83825551D01*
X86385334Y-83825550D01*
X86391043Y-83824722D01*
X86396507Y-83822867D01*
X86396512Y-83822866D01*
X86587889Y-83757902D01*
X86593357Y-83756046D01*
X86779768Y-83651651D01*
X86944033Y-83515033D01*
X87080651Y-83350768D01*
X87185046Y-83164357D01*
X87253722Y-82962043D01*
X87262590Y-82900879D01*
X87292160Y-82836335D01*
X87351931Y-82798022D01*
X87422928Y-82798106D01*
X87482608Y-82836561D01*
X87509409Y-82887945D01*
X87528228Y-82962043D01*
X87557985Y-83079213D01*
X87647433Y-83273240D01*
X87770741Y-83447718D01*
X87923781Y-83596802D01*
X88101427Y-83715501D01*
X88106730Y-83717779D01*
X88106733Y-83717781D01*
X88292422Y-83797559D01*
X88297729Y-83799839D01*
X88399493Y-83822866D01*
X88500477Y-83845717D01*
X88500480Y-83845717D01*
X88506113Y-83846992D01*
X88511884Y-83847219D01*
X88511886Y-83847219D01*
X88576863Y-83849772D01*
X88719601Y-83855380D01*
X88843654Y-83837393D01*
X88925329Y-83825551D01*
X88925334Y-83825550D01*
X88931043Y-83824722D01*
X88936507Y-83822867D01*
X88936512Y-83822866D01*
X89127889Y-83757902D01*
X89133357Y-83756046D01*
X89319768Y-83651651D01*
X89484033Y-83515033D01*
X89620651Y-83350768D01*
X89725046Y-83164357D01*
X89793722Y-82962043D01*
X89802590Y-82900879D01*
X89832160Y-82836335D01*
X89891931Y-82798022D01*
X89962928Y-82798106D01*
X90022608Y-82836561D01*
X90049409Y-82887945D01*
X90068228Y-82962043D01*
X90097985Y-83079213D01*
X90187433Y-83273240D01*
X90310741Y-83447718D01*
X90463781Y-83596802D01*
X90641427Y-83715501D01*
X90646730Y-83717779D01*
X90646733Y-83717781D01*
X90832422Y-83797559D01*
X90837729Y-83799839D01*
X90939493Y-83822866D01*
X91040477Y-83845717D01*
X91040480Y-83845717D01*
X91046113Y-83846992D01*
X91051884Y-83847219D01*
X91051886Y-83847219D01*
X91116863Y-83849772D01*
X91259601Y-83855380D01*
X91383654Y-83837393D01*
X91465329Y-83825551D01*
X91465334Y-83825550D01*
X91471043Y-83824722D01*
X91476507Y-83822867D01*
X91476512Y-83822866D01*
X91667889Y-83757902D01*
X91673357Y-83756046D01*
X91859768Y-83651651D01*
X92024033Y-83515033D01*
X92160651Y-83350768D01*
X92265046Y-83164357D01*
X92333722Y-82962043D01*
X92342590Y-82900879D01*
X92372160Y-82836335D01*
X92431931Y-82798022D01*
X92502928Y-82798106D01*
X92562608Y-82836561D01*
X92589409Y-82887945D01*
X92608228Y-82962043D01*
X92637985Y-83079213D01*
X92727433Y-83273240D01*
X92850741Y-83447718D01*
X93003781Y-83596802D01*
X93181427Y-83715501D01*
X93186730Y-83717779D01*
X93186733Y-83717781D01*
X93372422Y-83797559D01*
X93377729Y-83799839D01*
X93479493Y-83822866D01*
X93580477Y-83845717D01*
X93580480Y-83845717D01*
X93586113Y-83846992D01*
X93591884Y-83847219D01*
X93591886Y-83847219D01*
X93656863Y-83849772D01*
X93799601Y-83855380D01*
X93923654Y-83837393D01*
X94005329Y-83825551D01*
X94005334Y-83825550D01*
X94011043Y-83824722D01*
X94016507Y-83822867D01*
X94016512Y-83822866D01*
X94207889Y-83757902D01*
X94213357Y-83756046D01*
X94399768Y-83651651D01*
X94564033Y-83515033D01*
X94700651Y-83350768D01*
X94805046Y-83164357D01*
X94873722Y-82962043D01*
X94882590Y-82900879D01*
X94912160Y-82836335D01*
X94971931Y-82798022D01*
X95042928Y-82798106D01*
X95102608Y-82836561D01*
X95129409Y-82887945D01*
X95148228Y-82962043D01*
X95177985Y-83079213D01*
X95267433Y-83273240D01*
X95390741Y-83447718D01*
X95543781Y-83596802D01*
X95721427Y-83715501D01*
X95726730Y-83717779D01*
X95726733Y-83717781D01*
X95912422Y-83797559D01*
X95917729Y-83799839D01*
X96019493Y-83822866D01*
X96120477Y-83845717D01*
X96120480Y-83845717D01*
X96126113Y-83846992D01*
X96131884Y-83847219D01*
X96131886Y-83847219D01*
X96196863Y-83849772D01*
X96339601Y-83855380D01*
X96463654Y-83837393D01*
X96545329Y-83825551D01*
X96545334Y-83825550D01*
X96551043Y-83824722D01*
X96556507Y-83822867D01*
X96556512Y-83822866D01*
X96747889Y-83757902D01*
X96753357Y-83756046D01*
X96939768Y-83651651D01*
X97104033Y-83515033D01*
X97240651Y-83350768D01*
X97345046Y-83164357D01*
X97413722Y-82962043D01*
X97422590Y-82900879D01*
X97452160Y-82836335D01*
X97511931Y-82798022D01*
X97582928Y-82798106D01*
X97642608Y-82836561D01*
X97669409Y-82887945D01*
X97688228Y-82962043D01*
X97717985Y-83079213D01*
X97807433Y-83273240D01*
X97930741Y-83447718D01*
X98083781Y-83596802D01*
X98261427Y-83715501D01*
X98266730Y-83717779D01*
X98266733Y-83717781D01*
X98452422Y-83797559D01*
X98457729Y-83799839D01*
X98559493Y-83822866D01*
X98660477Y-83845717D01*
X98660480Y-83845717D01*
X98666113Y-83846992D01*
X98671884Y-83847219D01*
X98671886Y-83847219D01*
X98736863Y-83849772D01*
X98879601Y-83855380D01*
X99003654Y-83837393D01*
X99085329Y-83825551D01*
X99085334Y-83825550D01*
X99091043Y-83824722D01*
X99096507Y-83822867D01*
X99096512Y-83822866D01*
X99287889Y-83757902D01*
X99293357Y-83756046D01*
X99479768Y-83651651D01*
X99644033Y-83515033D01*
X99780651Y-83350768D01*
X99885046Y-83164357D01*
X99953722Y-82962043D01*
X99962590Y-82900879D01*
X99992160Y-82836335D01*
X100051931Y-82798022D01*
X100122928Y-82798106D01*
X100182608Y-82836561D01*
X100209409Y-82887945D01*
X100228228Y-82962043D01*
X100257985Y-83079213D01*
X100347433Y-83273240D01*
X100470741Y-83447718D01*
X100623781Y-83596802D01*
X100801427Y-83715501D01*
X100806730Y-83717779D01*
X100806733Y-83717781D01*
X100992422Y-83797559D01*
X100997729Y-83799839D01*
X101099493Y-83822866D01*
X101200477Y-83845717D01*
X101200480Y-83845717D01*
X101206113Y-83846992D01*
X101211884Y-83847219D01*
X101211886Y-83847219D01*
X101276863Y-83849772D01*
X101419601Y-83855380D01*
X101543654Y-83837393D01*
X101625329Y-83825551D01*
X101625334Y-83825550D01*
X101631043Y-83824722D01*
X101636507Y-83822867D01*
X101636512Y-83822866D01*
X101827889Y-83757902D01*
X101833357Y-83756046D01*
X102019768Y-83651651D01*
X102184033Y-83515033D01*
X102320651Y-83350768D01*
X102425046Y-83164357D01*
X102493722Y-82962043D01*
X102502590Y-82900879D01*
X102532160Y-82836335D01*
X102591931Y-82798022D01*
X102662928Y-82798106D01*
X102722608Y-82836561D01*
X102749409Y-82887945D01*
X102768228Y-82962043D01*
X102797985Y-83079213D01*
X102887433Y-83273240D01*
X103010741Y-83447718D01*
X103163781Y-83596802D01*
X103341427Y-83715501D01*
X103346730Y-83717779D01*
X103346733Y-83717781D01*
X103532422Y-83797559D01*
X103537729Y-83799839D01*
X103639493Y-83822866D01*
X103740477Y-83845717D01*
X103740480Y-83845717D01*
X103746113Y-83846992D01*
X103751884Y-83847219D01*
X103751886Y-83847219D01*
X103816863Y-83849772D01*
X103959601Y-83855380D01*
X104083654Y-83837393D01*
X104165329Y-83825551D01*
X104165334Y-83825550D01*
X104171043Y-83824722D01*
X104176507Y-83822867D01*
X104176512Y-83822866D01*
X104367889Y-83757902D01*
X104373357Y-83756046D01*
X104559768Y-83651651D01*
X104724033Y-83515033D01*
X104860651Y-83350768D01*
X104965046Y-83164357D01*
X105033722Y-82962043D01*
X105042590Y-82900879D01*
X105072160Y-82836335D01*
X105131931Y-82798022D01*
X105202928Y-82798106D01*
X105262608Y-82836561D01*
X105289409Y-82887945D01*
X105308228Y-82962043D01*
X105337985Y-83079213D01*
X105427433Y-83273240D01*
X105550741Y-83447718D01*
X105703781Y-83596802D01*
X105881427Y-83715501D01*
X105886730Y-83717779D01*
X105886733Y-83717781D01*
X106072422Y-83797559D01*
X106077729Y-83799839D01*
X106179493Y-83822866D01*
X106280477Y-83845717D01*
X106280480Y-83845717D01*
X106286113Y-83846992D01*
X106291884Y-83847219D01*
X106291886Y-83847219D01*
X106356863Y-83849772D01*
X106499601Y-83855380D01*
X106623654Y-83837393D01*
X106705329Y-83825551D01*
X106705334Y-83825550D01*
X106711043Y-83824722D01*
X106716507Y-83822867D01*
X106716512Y-83822866D01*
X106907889Y-83757902D01*
X106913357Y-83756046D01*
X107099768Y-83651651D01*
X107264033Y-83515033D01*
X107400651Y-83350768D01*
X107505046Y-83164357D01*
X107573722Y-82962043D01*
X107582590Y-82900879D01*
X107612160Y-82836335D01*
X107671931Y-82798022D01*
X107742928Y-82798106D01*
X107802608Y-82836561D01*
X107829409Y-82887945D01*
X107848228Y-82962043D01*
X107877985Y-83079213D01*
X107967433Y-83273240D01*
X108090741Y-83447718D01*
X108243781Y-83596802D01*
X108421427Y-83715501D01*
X108426730Y-83717779D01*
X108426733Y-83717781D01*
X108612422Y-83797559D01*
X108617729Y-83799839D01*
X108719493Y-83822866D01*
X108820477Y-83845717D01*
X108820480Y-83845717D01*
X108826113Y-83846992D01*
X108831884Y-83847219D01*
X108831886Y-83847219D01*
X108896863Y-83849772D01*
X109039601Y-83855380D01*
X109163654Y-83837393D01*
X109245329Y-83825551D01*
X109245334Y-83825550D01*
X109251043Y-83824722D01*
X109256507Y-83822867D01*
X109256512Y-83822866D01*
X109447889Y-83757902D01*
X109453357Y-83756046D01*
X109639768Y-83651651D01*
X109804033Y-83515033D01*
X109940651Y-83350768D01*
X110045046Y-83164357D01*
X110113722Y-82962043D01*
X110122590Y-82900879D01*
X110152160Y-82836335D01*
X110211931Y-82798022D01*
X110282928Y-82798106D01*
X110342608Y-82836561D01*
X110369409Y-82887945D01*
X110388228Y-82962043D01*
X110417985Y-83079213D01*
X110507433Y-83273240D01*
X110630741Y-83447718D01*
X110783781Y-83596802D01*
X110961427Y-83715501D01*
X110966730Y-83717779D01*
X110966733Y-83717781D01*
X111152422Y-83797559D01*
X111157729Y-83799839D01*
X111259493Y-83822866D01*
X111360477Y-83845717D01*
X111360480Y-83845717D01*
X111366113Y-83846992D01*
X111371884Y-83847219D01*
X111371886Y-83847219D01*
X111436863Y-83849772D01*
X111579601Y-83855380D01*
X111703654Y-83837393D01*
X111785329Y-83825551D01*
X111785334Y-83825550D01*
X111791043Y-83824722D01*
X111796507Y-83822867D01*
X111796512Y-83822866D01*
X111987889Y-83757902D01*
X111993357Y-83756046D01*
X112179768Y-83651651D01*
X112344033Y-83515033D01*
X112480651Y-83350768D01*
X112585046Y-83164357D01*
X112653722Y-82962043D01*
X112662590Y-82900879D01*
X112692160Y-82836335D01*
X112751931Y-82798022D01*
X112822928Y-82798106D01*
X112882608Y-82836561D01*
X112909409Y-82887945D01*
X112928228Y-82962043D01*
X112957985Y-83079213D01*
X113047433Y-83273240D01*
X113170741Y-83447718D01*
X113323781Y-83596802D01*
X113501427Y-83715501D01*
X113506730Y-83717779D01*
X113506733Y-83717781D01*
X113692422Y-83797559D01*
X113697729Y-83799839D01*
X113799493Y-83822866D01*
X113900477Y-83845717D01*
X113900480Y-83845717D01*
X113906113Y-83846992D01*
X113911884Y-83847219D01*
X113911886Y-83847219D01*
X113976863Y-83849772D01*
X114119601Y-83855380D01*
X114243654Y-83837393D01*
X114325329Y-83825551D01*
X114325334Y-83825550D01*
X114331043Y-83824722D01*
X114336507Y-83822867D01*
X114336512Y-83822866D01*
X114527889Y-83757902D01*
X114533357Y-83756046D01*
X114719768Y-83651651D01*
X114884033Y-83515033D01*
X115020651Y-83350768D01*
X115125046Y-83164357D01*
X115193722Y-82962043D01*
X115202591Y-82900880D01*
X115223847Y-82754275D01*
X115224380Y-82750601D01*
X115225980Y-82689500D01*
X115206430Y-82476744D01*
X115199592Y-82452496D01*
X115150004Y-82276672D01*
X115150003Y-82276670D01*
X115148436Y-82271113D01*
X115137162Y-82248250D01*
X115056495Y-82084674D01*
X115053940Y-82079493D01*
X115034639Y-82053645D01*
X114929560Y-81912927D01*
X114929559Y-81912926D01*
X114926107Y-81908303D01*
X114921871Y-81904387D01*
X114773457Y-81767195D01*
X114773454Y-81767193D01*
X114769217Y-81763276D01*
X114588525Y-81649268D01*
X114390082Y-81570097D01*
X114384425Y-81568972D01*
X114384419Y-81568970D01*
X114186203Y-81529543D01*
X114186199Y-81529543D01*
X114180535Y-81528416D01*
X114174760Y-81528340D01*
X114174756Y-81528340D01*
X114067497Y-81526936D01*
X113966901Y-81525619D01*
X113961204Y-81526598D01*
X113961203Y-81526598D01*
X113762031Y-81560822D01*
X113756334Y-81561801D01*
X113555887Y-81635750D01*
X113550926Y-81638702D01*
X113550925Y-81638702D01*
X113377240Y-81742033D01*
X113377237Y-81742035D01*
X113372272Y-81744989D01*
X113367932Y-81748795D01*
X113367928Y-81748798D01*
X113215981Y-81882053D01*
X113211640Y-81885860D01*
X113079369Y-82053645D01*
X113076680Y-82058756D01*
X113076678Y-82058759D01*
X113063044Y-82084674D01*
X112979889Y-82242725D01*
X112978175Y-82248246D01*
X112978173Y-82248250D01*
X112972683Y-82265933D01*
X112916532Y-82446767D01*
X112915854Y-82452496D01*
X112915854Y-82452497D01*
X112914323Y-82465430D01*
X112886452Y-82530728D01*
X112827704Y-82570592D01*
X112756729Y-82572365D01*
X112696063Y-82535486D01*
X112666823Y-82476633D01*
X112666430Y-82476744D01*
X112659592Y-82452496D01*
X112610004Y-82276672D01*
X112610003Y-82276670D01*
X112608436Y-82271113D01*
X112597162Y-82248250D01*
X112516495Y-82084674D01*
X112513940Y-82079493D01*
X112494639Y-82053645D01*
X112389560Y-81912927D01*
X112389559Y-81912926D01*
X112386107Y-81908303D01*
X112381871Y-81904387D01*
X112233457Y-81767195D01*
X112233454Y-81767193D01*
X112229217Y-81763276D01*
X112048525Y-81649268D01*
X111850082Y-81570097D01*
X111844425Y-81568972D01*
X111844419Y-81568970D01*
X111646203Y-81529543D01*
X111646199Y-81529543D01*
X111640535Y-81528416D01*
X111634760Y-81528340D01*
X111634756Y-81528340D01*
X111527497Y-81526936D01*
X111426901Y-81525619D01*
X111421204Y-81526598D01*
X111421203Y-81526598D01*
X111222031Y-81560822D01*
X111216334Y-81561801D01*
X111015887Y-81635750D01*
X111010926Y-81638702D01*
X111010925Y-81638702D01*
X110837240Y-81742033D01*
X110837237Y-81742035D01*
X110832272Y-81744989D01*
X110827932Y-81748795D01*
X110827928Y-81748798D01*
X110675981Y-81882053D01*
X110671640Y-81885860D01*
X110539369Y-82053645D01*
X110536680Y-82058756D01*
X110536678Y-82058759D01*
X110523044Y-82084674D01*
X110439889Y-82242725D01*
X110438175Y-82248246D01*
X110438173Y-82248250D01*
X110432683Y-82265933D01*
X110376532Y-82446767D01*
X110375854Y-82452496D01*
X110375854Y-82452497D01*
X110374323Y-82465430D01*
X110346452Y-82530728D01*
X110287704Y-82570592D01*
X110216729Y-82572365D01*
X110156063Y-82535486D01*
X110126823Y-82476633D01*
X110126430Y-82476744D01*
X110119592Y-82452496D01*
X110070004Y-82276672D01*
X110070003Y-82276670D01*
X110068436Y-82271113D01*
X110057162Y-82248250D01*
X109976495Y-82084674D01*
X109973940Y-82079493D01*
X109954639Y-82053645D01*
X109849560Y-81912927D01*
X109849559Y-81912926D01*
X109846107Y-81908303D01*
X109841871Y-81904387D01*
X109693457Y-81767195D01*
X109693454Y-81767193D01*
X109689217Y-81763276D01*
X109508525Y-81649268D01*
X109310082Y-81570097D01*
X109304425Y-81568972D01*
X109304419Y-81568970D01*
X109106203Y-81529543D01*
X109106199Y-81529543D01*
X109100535Y-81528416D01*
X109094760Y-81528340D01*
X109094756Y-81528340D01*
X108987497Y-81526936D01*
X108886901Y-81525619D01*
X108881204Y-81526598D01*
X108881203Y-81526598D01*
X108682031Y-81560822D01*
X108676334Y-81561801D01*
X108475887Y-81635750D01*
X108470926Y-81638702D01*
X108470925Y-81638702D01*
X108297240Y-81742033D01*
X108297237Y-81742035D01*
X108292272Y-81744989D01*
X108287932Y-81748795D01*
X108287928Y-81748798D01*
X108135981Y-81882053D01*
X108131640Y-81885860D01*
X107999369Y-82053645D01*
X107996680Y-82058756D01*
X107996678Y-82058759D01*
X107983044Y-82084674D01*
X107899889Y-82242725D01*
X107898175Y-82248246D01*
X107898173Y-82248250D01*
X107892683Y-82265933D01*
X107836532Y-82446767D01*
X107835854Y-82452496D01*
X107835854Y-82452497D01*
X107834323Y-82465430D01*
X107806452Y-82530728D01*
X107747704Y-82570592D01*
X107676729Y-82572365D01*
X107616063Y-82535486D01*
X107586823Y-82476633D01*
X107586430Y-82476744D01*
X107579592Y-82452496D01*
X107530004Y-82276672D01*
X107530003Y-82276670D01*
X107528436Y-82271113D01*
X107517162Y-82248250D01*
X107436495Y-82084674D01*
X107433940Y-82079493D01*
X107414639Y-82053645D01*
X107309560Y-81912927D01*
X107309559Y-81912926D01*
X107306107Y-81908303D01*
X107301871Y-81904387D01*
X107153457Y-81767195D01*
X107153454Y-81767193D01*
X107149217Y-81763276D01*
X106968525Y-81649268D01*
X106770082Y-81570097D01*
X106764425Y-81568972D01*
X106764419Y-81568970D01*
X106566203Y-81529543D01*
X106566199Y-81529543D01*
X106560535Y-81528416D01*
X106554760Y-81528340D01*
X106554756Y-81528340D01*
X106447497Y-81526936D01*
X106346901Y-81525619D01*
X106341204Y-81526598D01*
X106341203Y-81526598D01*
X106142031Y-81560822D01*
X106136334Y-81561801D01*
X105935887Y-81635750D01*
X105930926Y-81638702D01*
X105930925Y-81638702D01*
X105757240Y-81742033D01*
X105757237Y-81742035D01*
X105752272Y-81744989D01*
X105747932Y-81748795D01*
X105747928Y-81748798D01*
X105595981Y-81882053D01*
X105591640Y-81885860D01*
X105459369Y-82053645D01*
X105456680Y-82058756D01*
X105456678Y-82058759D01*
X105443044Y-82084674D01*
X105359889Y-82242725D01*
X105358175Y-82248246D01*
X105358173Y-82248250D01*
X105352683Y-82265933D01*
X105296532Y-82446767D01*
X105295854Y-82452496D01*
X105295854Y-82452497D01*
X105294323Y-82465430D01*
X105266452Y-82530728D01*
X105207704Y-82570592D01*
X105136729Y-82572365D01*
X105076063Y-82535486D01*
X105046823Y-82476633D01*
X105046430Y-82476744D01*
X105039592Y-82452496D01*
X104990004Y-82276672D01*
X104990003Y-82276670D01*
X104988436Y-82271113D01*
X104977162Y-82248250D01*
X104896495Y-82084674D01*
X104893940Y-82079493D01*
X104874639Y-82053645D01*
X104769560Y-81912927D01*
X104769559Y-81912926D01*
X104766107Y-81908303D01*
X104761871Y-81904387D01*
X104613457Y-81767195D01*
X104613454Y-81767193D01*
X104609217Y-81763276D01*
X104428525Y-81649268D01*
X104230082Y-81570097D01*
X104224425Y-81568972D01*
X104224419Y-81568970D01*
X104026203Y-81529543D01*
X104026199Y-81529543D01*
X104020535Y-81528416D01*
X104014760Y-81528340D01*
X104014756Y-81528340D01*
X103907497Y-81526936D01*
X103806901Y-81525619D01*
X103801204Y-81526598D01*
X103801203Y-81526598D01*
X103602031Y-81560822D01*
X103596334Y-81561801D01*
X103395887Y-81635750D01*
X103390926Y-81638702D01*
X103390925Y-81638702D01*
X103217240Y-81742033D01*
X103217237Y-81742035D01*
X103212272Y-81744989D01*
X103207932Y-81748795D01*
X103207928Y-81748798D01*
X103055981Y-81882053D01*
X103051640Y-81885860D01*
X102919369Y-82053645D01*
X102916680Y-82058756D01*
X102916678Y-82058759D01*
X102903044Y-82084674D01*
X102819889Y-82242725D01*
X102818175Y-82248246D01*
X102818173Y-82248250D01*
X102812683Y-82265933D01*
X102756532Y-82446767D01*
X102755854Y-82452496D01*
X102755854Y-82452497D01*
X102754323Y-82465430D01*
X102726452Y-82530728D01*
X102667704Y-82570592D01*
X102596729Y-82572365D01*
X102536063Y-82535486D01*
X102506823Y-82476633D01*
X102506430Y-82476744D01*
X102499592Y-82452496D01*
X102450004Y-82276672D01*
X102450003Y-82276670D01*
X102448436Y-82271113D01*
X102437162Y-82248250D01*
X102356495Y-82084674D01*
X102353940Y-82079493D01*
X102334639Y-82053645D01*
X102229560Y-81912927D01*
X102229559Y-81912926D01*
X102226107Y-81908303D01*
X102221871Y-81904387D01*
X102073457Y-81767195D01*
X102073454Y-81767193D01*
X102069217Y-81763276D01*
X101888525Y-81649268D01*
X101690082Y-81570097D01*
X101684425Y-81568972D01*
X101684419Y-81568970D01*
X101486203Y-81529543D01*
X101486199Y-81529543D01*
X101480535Y-81528416D01*
X101474760Y-81528340D01*
X101474756Y-81528340D01*
X101367497Y-81526936D01*
X101266901Y-81525619D01*
X101261204Y-81526598D01*
X101261203Y-81526598D01*
X101062031Y-81560822D01*
X101056334Y-81561801D01*
X100855887Y-81635750D01*
X100850926Y-81638702D01*
X100850925Y-81638702D01*
X100677240Y-81742033D01*
X100677237Y-81742035D01*
X100672272Y-81744989D01*
X100667932Y-81748795D01*
X100667928Y-81748798D01*
X100515981Y-81882053D01*
X100511640Y-81885860D01*
X100379369Y-82053645D01*
X100376680Y-82058756D01*
X100376678Y-82058759D01*
X100363044Y-82084674D01*
X100279889Y-82242725D01*
X100278175Y-82248246D01*
X100278173Y-82248250D01*
X100272683Y-82265933D01*
X100216532Y-82446767D01*
X100215854Y-82452496D01*
X100215854Y-82452497D01*
X100214323Y-82465430D01*
X100186452Y-82530728D01*
X100127704Y-82570592D01*
X100056729Y-82572365D01*
X99996063Y-82535486D01*
X99966823Y-82476633D01*
X99966430Y-82476744D01*
X99959592Y-82452496D01*
X99910004Y-82276672D01*
X99910003Y-82276670D01*
X99908436Y-82271113D01*
X99897162Y-82248250D01*
X99816495Y-82084674D01*
X99813940Y-82079493D01*
X99794639Y-82053645D01*
X99689560Y-81912927D01*
X99689559Y-81912926D01*
X99686107Y-81908303D01*
X99681871Y-81904387D01*
X99533457Y-81767195D01*
X99533454Y-81767193D01*
X99529217Y-81763276D01*
X99348525Y-81649268D01*
X99150082Y-81570097D01*
X99144425Y-81568972D01*
X99144419Y-81568970D01*
X98946203Y-81529543D01*
X98946199Y-81529543D01*
X98940535Y-81528416D01*
X98934760Y-81528340D01*
X98934756Y-81528340D01*
X98827497Y-81526936D01*
X98726901Y-81525619D01*
X98721204Y-81526598D01*
X98721203Y-81526598D01*
X98522031Y-81560822D01*
X98516334Y-81561801D01*
X98315887Y-81635750D01*
X98310926Y-81638702D01*
X98310925Y-81638702D01*
X98137240Y-81742033D01*
X98137237Y-81742035D01*
X98132272Y-81744989D01*
X98127932Y-81748795D01*
X98127928Y-81748798D01*
X97975981Y-81882053D01*
X97971640Y-81885860D01*
X97839369Y-82053645D01*
X97836680Y-82058756D01*
X97836678Y-82058759D01*
X97823044Y-82084674D01*
X97739889Y-82242725D01*
X97738175Y-82248246D01*
X97738173Y-82248250D01*
X97732683Y-82265933D01*
X97676532Y-82446767D01*
X97675854Y-82452496D01*
X97675854Y-82452497D01*
X97674323Y-82465430D01*
X97646452Y-82530728D01*
X97587704Y-82570592D01*
X97516729Y-82572365D01*
X97456063Y-82535486D01*
X97426823Y-82476633D01*
X97426430Y-82476744D01*
X97419592Y-82452496D01*
X97370004Y-82276672D01*
X97370003Y-82276670D01*
X97368436Y-82271113D01*
X97357162Y-82248250D01*
X97276495Y-82084674D01*
X97273940Y-82079493D01*
X97254639Y-82053645D01*
X97149560Y-81912927D01*
X97149559Y-81912926D01*
X97146107Y-81908303D01*
X97141871Y-81904387D01*
X96993457Y-81767195D01*
X96993454Y-81767193D01*
X96989217Y-81763276D01*
X96808525Y-81649268D01*
X96610082Y-81570097D01*
X96604425Y-81568972D01*
X96604419Y-81568970D01*
X96406203Y-81529543D01*
X96406199Y-81529543D01*
X96400535Y-81528416D01*
X96394760Y-81528340D01*
X96394756Y-81528340D01*
X96287497Y-81526936D01*
X96186901Y-81525619D01*
X96181204Y-81526598D01*
X96181203Y-81526598D01*
X95982031Y-81560822D01*
X95976334Y-81561801D01*
X95775887Y-81635750D01*
X95770926Y-81638702D01*
X95770925Y-81638702D01*
X95597240Y-81742033D01*
X95597237Y-81742035D01*
X95592272Y-81744989D01*
X95587932Y-81748795D01*
X95587928Y-81748798D01*
X95435981Y-81882053D01*
X95431640Y-81885860D01*
X95299369Y-82053645D01*
X95296680Y-82058756D01*
X95296678Y-82058759D01*
X95283044Y-82084674D01*
X95199889Y-82242725D01*
X95198175Y-82248246D01*
X95198173Y-82248250D01*
X95192683Y-82265933D01*
X95136532Y-82446767D01*
X95135854Y-82452496D01*
X95135854Y-82452497D01*
X95134323Y-82465430D01*
X95106452Y-82530728D01*
X95047704Y-82570592D01*
X94976729Y-82572365D01*
X94916063Y-82535486D01*
X94886823Y-82476633D01*
X94886430Y-82476744D01*
X94879592Y-82452496D01*
X94830004Y-82276672D01*
X94830003Y-82276670D01*
X94828436Y-82271113D01*
X94817162Y-82248250D01*
X94736495Y-82084674D01*
X94733940Y-82079493D01*
X94714639Y-82053645D01*
X94609560Y-81912927D01*
X94609559Y-81912926D01*
X94606107Y-81908303D01*
X94601871Y-81904387D01*
X94453457Y-81767195D01*
X94453454Y-81767193D01*
X94449217Y-81763276D01*
X94268525Y-81649268D01*
X94070082Y-81570097D01*
X94064425Y-81568972D01*
X94064419Y-81568970D01*
X93866203Y-81529543D01*
X93866199Y-81529543D01*
X93860535Y-81528416D01*
X93854760Y-81528340D01*
X93854756Y-81528340D01*
X93747497Y-81526936D01*
X93646901Y-81525619D01*
X93641204Y-81526598D01*
X93641203Y-81526598D01*
X93442031Y-81560822D01*
X93436334Y-81561801D01*
X93235887Y-81635750D01*
X93230926Y-81638702D01*
X93230925Y-81638702D01*
X93057240Y-81742033D01*
X93057237Y-81742035D01*
X93052272Y-81744989D01*
X93047932Y-81748795D01*
X93047928Y-81748798D01*
X92895981Y-81882053D01*
X92891640Y-81885860D01*
X92759369Y-82053645D01*
X92756680Y-82058756D01*
X92756678Y-82058759D01*
X92743044Y-82084674D01*
X92659889Y-82242725D01*
X92658175Y-82248246D01*
X92658173Y-82248250D01*
X92652683Y-82265933D01*
X92596532Y-82446767D01*
X92595854Y-82452496D01*
X92595854Y-82452497D01*
X92594323Y-82465430D01*
X92566452Y-82530728D01*
X92507704Y-82570592D01*
X92436729Y-82572365D01*
X92376063Y-82535486D01*
X92346823Y-82476633D01*
X92346430Y-82476744D01*
X92339592Y-82452496D01*
X92290004Y-82276672D01*
X92290003Y-82276670D01*
X92288436Y-82271113D01*
X92277162Y-82248250D01*
X92196495Y-82084674D01*
X92193940Y-82079493D01*
X92174639Y-82053645D01*
X92069560Y-81912927D01*
X92069559Y-81912926D01*
X92066107Y-81908303D01*
X92061871Y-81904387D01*
X91913457Y-81767195D01*
X91913454Y-81767193D01*
X91909217Y-81763276D01*
X91728525Y-81649268D01*
X91530082Y-81570097D01*
X91524425Y-81568972D01*
X91524419Y-81568970D01*
X91326203Y-81529543D01*
X91326199Y-81529543D01*
X91320535Y-81528416D01*
X91314760Y-81528340D01*
X91314756Y-81528340D01*
X91207497Y-81526936D01*
X91106901Y-81525619D01*
X91101204Y-81526598D01*
X91101203Y-81526598D01*
X90902031Y-81560822D01*
X90896334Y-81561801D01*
X90695887Y-81635750D01*
X90690926Y-81638702D01*
X90690925Y-81638702D01*
X90517240Y-81742033D01*
X90517237Y-81742035D01*
X90512272Y-81744989D01*
X90507932Y-81748795D01*
X90507928Y-81748798D01*
X90355981Y-81882053D01*
X90351640Y-81885860D01*
X90219369Y-82053645D01*
X90216680Y-82058756D01*
X90216678Y-82058759D01*
X90203044Y-82084674D01*
X90119889Y-82242725D01*
X90118175Y-82248246D01*
X90118173Y-82248250D01*
X90112683Y-82265933D01*
X90056532Y-82446767D01*
X90055854Y-82452496D01*
X90055854Y-82452497D01*
X90054323Y-82465430D01*
X90026452Y-82530728D01*
X89967704Y-82570592D01*
X89896729Y-82572365D01*
X89836063Y-82535486D01*
X89806823Y-82476633D01*
X89806430Y-82476744D01*
X89799592Y-82452496D01*
X89750004Y-82276672D01*
X89750003Y-82276670D01*
X89748436Y-82271113D01*
X89737162Y-82248250D01*
X89656495Y-82084674D01*
X89653940Y-82079493D01*
X89634639Y-82053645D01*
X89529560Y-81912927D01*
X89529559Y-81912926D01*
X89526107Y-81908303D01*
X89521871Y-81904387D01*
X89373457Y-81767195D01*
X89373454Y-81767193D01*
X89369217Y-81763276D01*
X89188525Y-81649268D01*
X88990082Y-81570097D01*
X88984425Y-81568972D01*
X88984419Y-81568970D01*
X88786203Y-81529543D01*
X88786199Y-81529543D01*
X88780535Y-81528416D01*
X88774760Y-81528340D01*
X88774756Y-81528340D01*
X88667497Y-81526936D01*
X88566901Y-81525619D01*
X88561204Y-81526598D01*
X88561203Y-81526598D01*
X88362031Y-81560822D01*
X88356334Y-81561801D01*
X88155887Y-81635750D01*
X88150926Y-81638702D01*
X88150925Y-81638702D01*
X87977240Y-81742033D01*
X87977237Y-81742035D01*
X87972272Y-81744989D01*
X87967932Y-81748795D01*
X87967928Y-81748798D01*
X87815981Y-81882053D01*
X87811640Y-81885860D01*
X87679369Y-82053645D01*
X87676680Y-82058756D01*
X87676678Y-82058759D01*
X87663044Y-82084674D01*
X87579889Y-82242725D01*
X87578175Y-82248246D01*
X87578173Y-82248250D01*
X87572683Y-82265933D01*
X87516532Y-82446767D01*
X87515854Y-82452496D01*
X87515854Y-82452497D01*
X87514323Y-82465430D01*
X87486452Y-82530728D01*
X87427704Y-82570592D01*
X87356729Y-82572365D01*
X87296063Y-82535486D01*
X87266823Y-82476633D01*
X87266430Y-82476744D01*
X87259592Y-82452496D01*
X87210004Y-82276672D01*
X87210003Y-82276670D01*
X87208436Y-82271113D01*
X87197162Y-82248250D01*
X87116495Y-82084674D01*
X87113940Y-82079493D01*
X87094639Y-82053645D01*
X86989560Y-81912927D01*
X86989559Y-81912926D01*
X86986107Y-81908303D01*
X86981871Y-81904387D01*
X86833457Y-81767195D01*
X86833454Y-81767193D01*
X86829217Y-81763276D01*
X86648525Y-81649268D01*
X86450082Y-81570097D01*
X86444425Y-81568972D01*
X86444419Y-81568970D01*
X86246203Y-81529543D01*
X86246199Y-81529543D01*
X86240535Y-81528416D01*
X86234760Y-81528340D01*
X86234756Y-81528340D01*
X86127497Y-81526936D01*
X86026901Y-81525619D01*
X86021204Y-81526598D01*
X86021203Y-81526598D01*
X85822031Y-81560822D01*
X85816334Y-81561801D01*
X85615887Y-81635750D01*
X85610926Y-81638702D01*
X85610925Y-81638702D01*
X85437240Y-81742033D01*
X85437237Y-81742035D01*
X85432272Y-81744989D01*
X85427932Y-81748795D01*
X85427928Y-81748798D01*
X85275981Y-81882053D01*
X85271640Y-81885860D01*
X85139369Y-82053645D01*
X85136680Y-82058756D01*
X85136678Y-82058759D01*
X85123044Y-82084674D01*
X85039889Y-82242725D01*
X85038175Y-82248246D01*
X85038173Y-82248250D01*
X85032683Y-82265933D01*
X84976532Y-82446767D01*
X84975854Y-82452496D01*
X84975854Y-82452497D01*
X84974323Y-82465430D01*
X84946452Y-82530728D01*
X84887704Y-82570592D01*
X84816729Y-82572365D01*
X84756063Y-82535486D01*
X84726823Y-82476633D01*
X84726430Y-82476744D01*
X84719592Y-82452496D01*
X84670004Y-82276672D01*
X84670003Y-82276670D01*
X84668436Y-82271113D01*
X84657162Y-82248250D01*
X84576495Y-82084674D01*
X84573940Y-82079493D01*
X84554639Y-82053645D01*
X84449560Y-81912927D01*
X84449559Y-81912926D01*
X84446107Y-81908303D01*
X84441871Y-81904387D01*
X84293457Y-81767195D01*
X84293454Y-81767193D01*
X84289217Y-81763276D01*
X84108525Y-81649268D01*
X83910082Y-81570097D01*
X83904425Y-81568972D01*
X83904419Y-81568970D01*
X83706203Y-81529543D01*
X83706199Y-81529543D01*
X83700535Y-81528416D01*
X83694760Y-81528340D01*
X83694756Y-81528340D01*
X83587497Y-81526936D01*
X83486901Y-81525619D01*
X83481204Y-81526598D01*
X83481203Y-81526598D01*
X83282031Y-81560822D01*
X83276334Y-81561801D01*
X83075887Y-81635750D01*
X83070926Y-81638702D01*
X83070925Y-81638702D01*
X82897240Y-81742033D01*
X82897237Y-81742035D01*
X82892272Y-81744989D01*
X82887932Y-81748795D01*
X82887928Y-81748798D01*
X82735981Y-81882053D01*
X82731640Y-81885860D01*
X82599369Y-82053645D01*
X82596680Y-82058756D01*
X82596678Y-82058759D01*
X82583044Y-82084674D01*
X82499889Y-82242725D01*
X82498175Y-82248246D01*
X82498173Y-82248250D01*
X82492683Y-82265933D01*
X82436532Y-82446767D01*
X82435854Y-82452496D01*
X82435854Y-82452497D01*
X82434323Y-82465430D01*
X82406452Y-82530728D01*
X82347704Y-82570592D01*
X82276729Y-82572365D01*
X82216063Y-82535486D01*
X82186823Y-82476633D01*
X82186430Y-82476744D01*
X82179592Y-82452496D01*
X82130004Y-82276672D01*
X82130003Y-82276670D01*
X82128436Y-82271113D01*
X82117162Y-82248250D01*
X82036495Y-82084674D01*
X82033940Y-82079493D01*
X82014639Y-82053645D01*
X81909560Y-81912927D01*
X81909559Y-81912926D01*
X81906107Y-81908303D01*
X81901871Y-81904387D01*
X81753457Y-81767195D01*
X81753454Y-81767193D01*
X81749217Y-81763276D01*
X81568525Y-81649268D01*
X81370082Y-81570097D01*
X81364425Y-81568972D01*
X81364419Y-81568970D01*
X81166203Y-81529543D01*
X81166199Y-81529543D01*
X81160535Y-81528416D01*
X81154760Y-81528340D01*
X81154756Y-81528340D01*
X81047497Y-81526936D01*
X80946901Y-81525619D01*
X80941204Y-81526598D01*
X80941203Y-81526598D01*
X80742031Y-81560822D01*
X80736334Y-81561801D01*
X80535887Y-81635750D01*
X80530926Y-81638702D01*
X80530925Y-81638702D01*
X80357240Y-81742033D01*
X80357237Y-81742035D01*
X80352272Y-81744989D01*
X80347932Y-81748795D01*
X80347928Y-81748798D01*
X80195981Y-81882053D01*
X80191640Y-81885860D01*
X80059369Y-82053645D01*
X80056680Y-82058756D01*
X80056678Y-82058759D01*
X80043044Y-82084674D01*
X79959889Y-82242725D01*
X79958175Y-82248246D01*
X79958173Y-82248250D01*
X79952683Y-82265933D01*
X79896532Y-82446767D01*
X79895854Y-82452496D01*
X79895854Y-82452497D01*
X79894323Y-82465430D01*
X79866452Y-82530728D01*
X79807704Y-82570592D01*
X79736729Y-82572365D01*
X79676063Y-82535486D01*
X79646823Y-82476633D01*
X79646430Y-82476744D01*
X79639592Y-82452496D01*
X79590004Y-82276672D01*
X79590003Y-82276670D01*
X79588436Y-82271113D01*
X79577162Y-82248250D01*
X79496495Y-82084674D01*
X79493940Y-82079493D01*
X79474639Y-82053645D01*
X79369560Y-81912927D01*
X79369559Y-81912926D01*
X79366107Y-81908303D01*
X79361871Y-81904387D01*
X79213457Y-81767195D01*
X79213454Y-81767193D01*
X79209217Y-81763276D01*
X79028525Y-81649268D01*
X78830082Y-81570097D01*
X78824425Y-81568972D01*
X78824419Y-81568970D01*
X78626203Y-81529543D01*
X78626199Y-81529543D01*
X78620535Y-81528416D01*
X78614760Y-81528340D01*
X78614756Y-81528340D01*
X78507497Y-81526936D01*
X78406901Y-81525619D01*
X78401204Y-81526598D01*
X78401203Y-81526598D01*
X78202031Y-81560822D01*
X78196334Y-81561801D01*
X77995887Y-81635750D01*
X77990926Y-81638702D01*
X77990925Y-81638702D01*
X77817240Y-81742033D01*
X77817237Y-81742035D01*
X77812272Y-81744989D01*
X77807932Y-81748795D01*
X77807928Y-81748798D01*
X77655981Y-81882053D01*
X77651640Y-81885860D01*
X77519369Y-82053645D01*
X77516680Y-82058756D01*
X77516678Y-82058759D01*
X77503044Y-82084674D01*
X77419889Y-82242725D01*
X77418175Y-82248246D01*
X77418173Y-82248250D01*
X77412683Y-82265933D01*
X77356532Y-82446767D01*
X77355854Y-82452496D01*
X77355854Y-82452497D01*
X77354323Y-82465430D01*
X77326452Y-82530728D01*
X77267704Y-82570592D01*
X77196729Y-82572365D01*
X77136063Y-82535486D01*
X77106823Y-82476633D01*
X77106430Y-82476744D01*
X77099592Y-82452496D01*
X77050004Y-82276672D01*
X77050003Y-82276670D01*
X77048436Y-82271113D01*
X77037162Y-82248250D01*
X76956495Y-82084674D01*
X76953940Y-82079493D01*
X76934639Y-82053645D01*
X76829560Y-81912927D01*
X76829559Y-81912926D01*
X76826107Y-81908303D01*
X76821871Y-81904387D01*
X76673457Y-81767195D01*
X76673454Y-81767193D01*
X76669217Y-81763276D01*
X76488525Y-81649268D01*
X76290082Y-81570097D01*
X76284425Y-81568972D01*
X76284419Y-81568970D01*
X76086203Y-81529543D01*
X76086199Y-81529543D01*
X76080535Y-81528416D01*
X76074760Y-81528340D01*
X76074756Y-81528340D01*
X75967497Y-81526936D01*
X75866901Y-81525619D01*
X75861204Y-81526598D01*
X75861203Y-81526598D01*
X75662031Y-81560822D01*
X75656334Y-81561801D01*
X75455887Y-81635750D01*
X75450926Y-81638702D01*
X75450925Y-81638702D01*
X75277240Y-81742033D01*
X75277237Y-81742035D01*
X75272272Y-81744989D01*
X75267932Y-81748795D01*
X75267928Y-81748798D01*
X75115981Y-81882053D01*
X75111640Y-81885860D01*
X74979369Y-82053645D01*
X74976680Y-82058756D01*
X74976678Y-82058759D01*
X74963044Y-82084674D01*
X74879889Y-82242725D01*
X74878175Y-82248246D01*
X74878173Y-82248250D01*
X74872683Y-82265933D01*
X74816532Y-82446767D01*
X74815854Y-82452496D01*
X74815854Y-82452497D01*
X74814323Y-82465430D01*
X74786452Y-82530728D01*
X74727704Y-82570592D01*
X74656729Y-82572365D01*
X74596063Y-82535486D01*
X74566823Y-82476633D01*
X74566430Y-82476744D01*
X74559592Y-82452496D01*
X74510004Y-82276672D01*
X74510003Y-82276670D01*
X74508436Y-82271113D01*
X74497162Y-82248250D01*
X74416495Y-82084674D01*
X74413940Y-82079493D01*
X74394639Y-82053645D01*
X74289560Y-81912927D01*
X74289559Y-81912926D01*
X74286107Y-81908303D01*
X74281871Y-81904387D01*
X74133457Y-81767195D01*
X74133454Y-81767193D01*
X74129217Y-81763276D01*
X73948525Y-81649268D01*
X73750082Y-81570097D01*
X73744425Y-81568972D01*
X73744419Y-81568970D01*
X73546203Y-81529543D01*
X73546199Y-81529543D01*
X73540535Y-81528416D01*
X73534760Y-81528340D01*
X73534756Y-81528340D01*
X73427497Y-81526936D01*
X73326901Y-81525619D01*
X73321204Y-81526598D01*
X73321203Y-81526598D01*
X73122031Y-81560822D01*
X73116334Y-81561801D01*
X72915887Y-81635750D01*
X72910926Y-81638702D01*
X72910925Y-81638702D01*
X72737240Y-81742033D01*
X72737237Y-81742035D01*
X72732272Y-81744989D01*
X72727932Y-81748795D01*
X72727928Y-81748798D01*
X72575981Y-81882053D01*
X72571640Y-81885860D01*
X72439369Y-82053645D01*
X72436680Y-82058756D01*
X72436678Y-82058759D01*
X72423044Y-82084674D01*
X72339889Y-82242725D01*
X72338175Y-82248246D01*
X72338173Y-82248250D01*
X72332683Y-82265933D01*
X72276532Y-82446767D01*
X72275854Y-82452496D01*
X72275854Y-82452497D01*
X72274323Y-82465430D01*
X72246452Y-82530728D01*
X72187704Y-82570592D01*
X72116729Y-82572365D01*
X72056063Y-82535486D01*
X72026823Y-82476633D01*
X72026430Y-82476744D01*
X72019592Y-82452496D01*
X71970004Y-82276672D01*
X71970003Y-82276670D01*
X71968436Y-82271113D01*
X71957162Y-82248250D01*
X71876495Y-82084674D01*
X71873940Y-82079493D01*
X71854639Y-82053645D01*
X71749560Y-81912927D01*
X71749559Y-81912926D01*
X71746107Y-81908303D01*
X71741871Y-81904387D01*
X71593457Y-81767195D01*
X71593454Y-81767193D01*
X71589217Y-81763276D01*
X71408525Y-81649268D01*
X71210082Y-81570097D01*
X71204425Y-81568972D01*
X71204419Y-81568970D01*
X71006203Y-81529543D01*
X71006199Y-81529543D01*
X71000535Y-81528416D01*
X70994760Y-81528340D01*
X70994756Y-81528340D01*
X70887497Y-81526936D01*
X70786901Y-81525619D01*
X70781204Y-81526598D01*
X70781203Y-81526598D01*
X70582031Y-81560822D01*
X70576334Y-81561801D01*
X70375887Y-81635750D01*
X70370926Y-81638702D01*
X70370925Y-81638702D01*
X70197240Y-81742033D01*
X70197237Y-81742035D01*
X70192272Y-81744989D01*
X70187932Y-81748795D01*
X70187928Y-81748798D01*
X70035981Y-81882053D01*
X70031640Y-81885860D01*
X69899369Y-82053645D01*
X69896680Y-82058756D01*
X69896678Y-82058759D01*
X69883044Y-82084674D01*
X69799889Y-82242725D01*
X69798175Y-82248246D01*
X69798173Y-82248250D01*
X69792683Y-82265933D01*
X69736532Y-82446767D01*
X69735854Y-82452496D01*
X69735854Y-82452497D01*
X69734323Y-82465430D01*
X69706452Y-82530728D01*
X69647704Y-82570592D01*
X69576729Y-82572365D01*
X69516063Y-82535486D01*
X69486823Y-82476633D01*
X69486430Y-82476744D01*
X69479592Y-82452496D01*
X69430004Y-82276672D01*
X69430003Y-82276670D01*
X69428436Y-82271113D01*
X69417162Y-82248250D01*
X69336495Y-82084674D01*
X69333940Y-82079493D01*
X69314639Y-82053645D01*
X69209560Y-81912927D01*
X69209559Y-81912926D01*
X69206107Y-81908303D01*
X69201871Y-81904387D01*
X69053457Y-81767195D01*
X69053454Y-81767193D01*
X69049217Y-81763276D01*
X68868525Y-81649268D01*
X68670082Y-81570097D01*
X68664425Y-81568972D01*
X68664419Y-81568970D01*
X68466203Y-81529543D01*
X68466199Y-81529543D01*
X68460535Y-81528416D01*
X68454760Y-81528340D01*
X68454756Y-81528340D01*
X68347497Y-81526936D01*
X68246901Y-81525619D01*
X68241204Y-81526598D01*
X68241203Y-81526598D01*
X68042031Y-81560822D01*
X68036334Y-81561801D01*
X67835887Y-81635750D01*
X67830926Y-81638702D01*
X67830925Y-81638702D01*
X67657240Y-81742033D01*
X67657237Y-81742035D01*
X67652272Y-81744989D01*
X67647932Y-81748795D01*
X67647928Y-81748798D01*
X67495981Y-81882053D01*
X67491640Y-81885860D01*
X67359369Y-82053645D01*
X67356680Y-82058756D01*
X67356678Y-82058759D01*
X67343044Y-82084674D01*
X67259889Y-82242725D01*
X67258175Y-82248246D01*
X67258173Y-82248250D01*
X67252683Y-82265933D01*
X67196532Y-82446767D01*
X67195854Y-82452496D01*
X67195854Y-82452497D01*
X67194323Y-82465430D01*
X67166452Y-82530728D01*
X67107704Y-82570592D01*
X67036729Y-82572365D01*
X66976063Y-82535486D01*
X66946823Y-82476633D01*
X66946430Y-82476744D01*
X66939592Y-82452496D01*
X66890004Y-82276672D01*
X66890003Y-82276670D01*
X66888436Y-82271113D01*
X66877162Y-82248250D01*
X66796495Y-82084674D01*
X66793940Y-82079493D01*
X66774639Y-82053645D01*
X66669560Y-81912927D01*
X66669559Y-81912926D01*
X66666107Y-81908303D01*
X66661871Y-81904387D01*
X66513457Y-81767195D01*
X66513454Y-81767193D01*
X66509217Y-81763276D01*
X66328525Y-81649268D01*
X66130082Y-81570097D01*
X66124425Y-81568972D01*
X66124419Y-81568970D01*
X65926203Y-81529543D01*
X65926199Y-81529543D01*
X65920535Y-81528416D01*
X65914760Y-81528340D01*
X65914756Y-81528340D01*
X65807497Y-81526936D01*
X65706901Y-81525619D01*
X65701204Y-81526598D01*
X65701203Y-81526598D01*
X65502031Y-81560822D01*
X65496334Y-81561801D01*
X65295887Y-81635750D01*
X65290926Y-81638702D01*
X65290925Y-81638702D01*
X65117240Y-81742033D01*
X65117237Y-81742035D01*
X65112272Y-81744989D01*
X65107932Y-81748795D01*
X65107928Y-81748798D01*
X64955981Y-81882053D01*
X64951640Y-81885860D01*
X64819369Y-82053645D01*
X64816680Y-82058756D01*
X64816678Y-82058759D01*
X64803044Y-82084674D01*
X64719889Y-82242725D01*
X64718175Y-82248246D01*
X64718173Y-82248250D01*
X64712683Y-82265933D01*
X64656532Y-82446767D01*
X64655854Y-82452496D01*
X64655854Y-82452497D01*
X64654323Y-82465430D01*
X64626452Y-82530728D01*
X64567704Y-82570592D01*
X64496729Y-82572365D01*
X64436063Y-82535486D01*
X64406823Y-82476633D01*
X64406430Y-82476744D01*
X64399592Y-82452496D01*
X64350004Y-82276672D01*
X64350003Y-82276670D01*
X64348436Y-82271113D01*
X64337162Y-82248250D01*
X64256495Y-82084674D01*
X64253940Y-82079493D01*
X64234639Y-82053645D01*
X64129560Y-81912927D01*
X64129559Y-81912926D01*
X64126107Y-81908303D01*
X64121871Y-81904387D01*
X63973457Y-81767195D01*
X63973454Y-81767193D01*
X63969217Y-81763276D01*
X63788525Y-81649268D01*
X63590082Y-81570097D01*
X63584425Y-81568972D01*
X63584419Y-81568970D01*
X63386203Y-81529543D01*
X63386199Y-81529543D01*
X63380535Y-81528416D01*
X63374760Y-81528340D01*
X63374756Y-81528340D01*
X63267497Y-81526936D01*
X63166901Y-81525619D01*
X63161204Y-81526598D01*
X63161203Y-81526598D01*
X62962031Y-81560822D01*
X62956334Y-81561801D01*
X62755887Y-81635750D01*
X62750926Y-81638702D01*
X62750925Y-81638702D01*
X62577240Y-81742033D01*
X62577237Y-81742035D01*
X62572272Y-81744989D01*
X62567932Y-81748795D01*
X62567928Y-81748798D01*
X62415981Y-81882053D01*
X62411640Y-81885860D01*
X62279369Y-82053645D01*
X62276680Y-82058756D01*
X62276678Y-82058759D01*
X62263044Y-82084674D01*
X62179889Y-82242725D01*
X62178175Y-82248246D01*
X62178173Y-82248250D01*
X62172683Y-82265933D01*
X62116532Y-82446767D01*
X62115854Y-82452496D01*
X62115854Y-82452497D01*
X62114323Y-82465430D01*
X62086452Y-82530728D01*
X62027704Y-82570592D01*
X61956729Y-82572365D01*
X61896063Y-82535486D01*
X61866823Y-82476633D01*
X61866430Y-82476744D01*
X61859592Y-82452496D01*
X61810004Y-82276672D01*
X61810003Y-82276670D01*
X61808436Y-82271113D01*
X61797162Y-82248250D01*
X61716495Y-82084674D01*
X61713940Y-82079493D01*
X61694639Y-82053645D01*
X61589560Y-81912927D01*
X61589559Y-81912926D01*
X61586107Y-81908303D01*
X61581871Y-81904387D01*
X61433457Y-81767195D01*
X61433454Y-81767193D01*
X61429217Y-81763276D01*
X61248525Y-81649268D01*
X61050082Y-81570097D01*
X61044425Y-81568972D01*
X61044419Y-81568970D01*
X60846203Y-81529543D01*
X60846199Y-81529543D01*
X60840535Y-81528416D01*
X60834760Y-81528340D01*
X60834756Y-81528340D01*
X60727497Y-81526936D01*
X60626901Y-81525619D01*
X60621204Y-81526598D01*
X60621203Y-81526598D01*
X60422031Y-81560822D01*
X60416334Y-81561801D01*
X60215887Y-81635750D01*
X60210926Y-81638702D01*
X60210925Y-81638702D01*
X60037240Y-81742033D01*
X60037237Y-81742035D01*
X60032272Y-81744989D01*
X60027932Y-81748795D01*
X60027928Y-81748798D01*
X59875981Y-81882053D01*
X59871640Y-81885860D01*
X59739369Y-82053645D01*
X59736680Y-82058756D01*
X59736678Y-82058759D01*
X59723044Y-82084674D01*
X59639889Y-82242725D01*
X59638175Y-82248246D01*
X59638173Y-82248250D01*
X59632683Y-82265933D01*
X59576532Y-82446767D01*
X59575854Y-82452496D01*
X59575854Y-82452497D01*
X59574323Y-82465430D01*
X59546452Y-82530728D01*
X59487704Y-82570592D01*
X59416729Y-82572365D01*
X59356063Y-82535486D01*
X59326823Y-82476633D01*
X59326430Y-82476744D01*
X59319592Y-82452496D01*
X59270004Y-82276672D01*
X59270003Y-82276670D01*
X59268436Y-82271113D01*
X59257162Y-82248250D01*
X59176495Y-82084674D01*
X59173940Y-82079493D01*
X59154639Y-82053645D01*
X59049560Y-81912927D01*
X59049559Y-81912926D01*
X59046107Y-81908303D01*
X59041871Y-81904387D01*
X58893457Y-81767195D01*
X58893454Y-81767193D01*
X58889217Y-81763276D01*
X58708525Y-81649268D01*
X58510082Y-81570097D01*
X58504425Y-81568972D01*
X58504419Y-81568970D01*
X58306203Y-81529543D01*
X58306199Y-81529543D01*
X58300535Y-81528416D01*
X58294760Y-81528340D01*
X58294756Y-81528340D01*
X58187497Y-81526936D01*
X58086901Y-81525619D01*
X58081204Y-81526598D01*
X58081203Y-81526598D01*
X57882031Y-81560822D01*
X57876334Y-81561801D01*
X57675887Y-81635750D01*
X57670926Y-81638702D01*
X57670925Y-81638702D01*
X57497240Y-81742033D01*
X57497237Y-81742035D01*
X57492272Y-81744989D01*
X57487932Y-81748795D01*
X57487928Y-81748798D01*
X57335981Y-81882053D01*
X57331640Y-81885860D01*
X57199369Y-82053645D01*
X57196680Y-82058756D01*
X57196678Y-82058759D01*
X57183044Y-82084674D01*
X57099889Y-82242725D01*
X57098175Y-82248246D01*
X57098173Y-82248250D01*
X57092683Y-82265933D01*
X57036532Y-82446767D01*
X57011420Y-82658939D01*
X55372500Y-82658939D01*
X55372500Y-77149197D01*
X64189469Y-77149197D01*
X64207899Y-77359852D01*
X64262629Y-77564107D01*
X64351996Y-77755755D01*
X64473284Y-77928973D01*
X64622809Y-78078498D01*
X64796027Y-78199786D01*
X64801005Y-78202107D01*
X64801008Y-78202109D01*
X64982693Y-78286830D01*
X64987675Y-78289153D01*
X64992983Y-78290575D01*
X64992985Y-78290576D01*
X65186615Y-78342459D01*
X65186617Y-78342459D01*
X65191930Y-78343883D01*
X65402585Y-78362313D01*
X65613240Y-78343883D01*
X65618553Y-78342459D01*
X65618555Y-78342459D01*
X65812185Y-78290576D01*
X65812187Y-78290575D01*
X65817495Y-78289153D01*
X65822477Y-78286830D01*
X66004162Y-78202109D01*
X66004165Y-78202107D01*
X66009143Y-78199786D01*
X66182361Y-78078498D01*
X66331886Y-77928973D01*
X66366034Y-77880204D01*
X66421490Y-77835877D01*
X66492109Y-77828568D01*
X66555470Y-77860599D01*
X66575630Y-77884960D01*
X66659153Y-78016572D01*
X66860352Y-78259779D01*
X67090445Y-78475851D01*
X67345806Y-78661381D01*
X67622406Y-78813444D01*
X67626075Y-78814897D01*
X67626080Y-78814899D01*
X67912213Y-78928187D01*
X67915883Y-78929640D01*
X68221610Y-79008137D01*
X68534764Y-79047697D01*
X68850406Y-79047697D01*
X69163560Y-79008137D01*
X69469287Y-78929640D01*
X69472957Y-78928187D01*
X69759090Y-78814899D01*
X69759095Y-78814897D01*
X69762764Y-78813444D01*
X70039364Y-78661381D01*
X70294725Y-78475851D01*
X70524818Y-78259779D01*
X70726017Y-78016572D01*
X70895147Y-77750066D01*
X70896831Y-77746487D01*
X70896835Y-77746480D01*
X71027852Y-77468053D01*
X71027854Y-77468049D01*
X71029541Y-77464463D01*
X71127080Y-77164269D01*
X71186226Y-76854217D01*
X71206045Y-76539197D01*
X71186226Y-76224177D01*
X71127080Y-75914125D01*
X71029541Y-75613931D01*
X70994045Y-75538498D01*
X70896835Y-75331914D01*
X70896831Y-75331907D01*
X70895147Y-75328328D01*
X70848197Y-75254347D01*
X76519067Y-75254347D01*
X76536437Y-75461201D01*
X76593654Y-75660742D01*
X76596472Y-75666224D01*
X76596473Y-75666228D01*
X76667465Y-75804362D01*
X76688540Y-75845370D01*
X76817479Y-76008051D01*
X76822166Y-76012040D01*
X76822169Y-76012043D01*
X76923883Y-76098608D01*
X76975561Y-76142589D01*
X77156765Y-76243861D01*
X77354188Y-76308007D01*
X77560310Y-76332586D01*
X77566445Y-76332114D01*
X77566447Y-76332114D01*
X77761140Y-76317133D01*
X77761145Y-76317132D01*
X77767281Y-76316660D01*
X77773211Y-76315004D01*
X77773213Y-76315004D01*
X77867249Y-76288749D01*
X77967217Y-76260837D01*
X78016879Y-76235751D01*
X78147001Y-76170022D01*
X78147003Y-76170021D01*
X78152502Y-76167243D01*
X78316080Y-76039442D01*
X78451718Y-75882303D01*
X78554252Y-75701811D01*
X78619775Y-75504841D01*
X78645792Y-75298895D01*
X78646207Y-75269197D01*
X78625950Y-75062605D01*
X78565953Y-74863882D01*
X78513257Y-74764776D01*
X78471394Y-74686044D01*
X78471393Y-74686042D01*
X78468498Y-74680598D01*
X78404838Y-74602543D01*
X78341195Y-74524508D01*
X78341192Y-74524505D01*
X78337300Y-74519733D01*
X78330355Y-74513987D01*
X78182103Y-74391342D01*
X78182104Y-74391342D01*
X78177355Y-74387414D01*
X78171938Y-74384485D01*
X78171935Y-74384483D01*
X78000175Y-74291613D01*
X78000170Y-74291611D01*
X77994755Y-74288683D01*
X77796456Y-74227299D01*
X77790331Y-74226655D01*
X77790330Y-74226655D01*
X77596139Y-74206245D01*
X77596137Y-74206245D01*
X77590010Y-74205601D01*
X77504100Y-74213420D01*
X77389421Y-74223856D01*
X77389418Y-74223857D01*
X77383282Y-74224415D01*
X77377376Y-74226153D01*
X77377372Y-74226154D01*
X77250499Y-74263495D01*
X77184145Y-74283024D01*
X77000185Y-74379196D01*
X76838408Y-74509268D01*
X76834450Y-74513985D01*
X76834448Y-74513987D01*
X76748039Y-74616965D01*
X76704976Y-74668286D01*
X76702012Y-74673678D01*
X76702009Y-74673682D01*
X76651930Y-74764776D01*
X76604972Y-74850192D01*
X76542206Y-75048058D01*
X76541520Y-75054175D01*
X76541519Y-75054179D01*
X76541004Y-75058770D01*
X76519067Y-75254347D01*
X70848197Y-75254347D01*
X70726017Y-75061822D01*
X70557760Y-74858435D01*
X70527343Y-74821667D01*
X70527342Y-74821666D01*
X70524818Y-74818615D01*
X70294725Y-74602543D01*
X70257325Y-74575370D01*
X70238954Y-74562023D01*
X70039364Y-74417013D01*
X70001557Y-74396228D01*
X69766233Y-74266857D01*
X69766232Y-74266856D01*
X69762764Y-74264950D01*
X69759095Y-74263497D01*
X69759090Y-74263495D01*
X69472957Y-74150207D01*
X69472956Y-74150207D01*
X69469287Y-74148754D01*
X69163560Y-74070257D01*
X68850406Y-74030697D01*
X68534764Y-74030697D01*
X68221610Y-74070257D01*
X67915883Y-74148754D01*
X67912214Y-74150207D01*
X67912213Y-74150207D01*
X67626080Y-74263495D01*
X67626075Y-74263497D01*
X67622406Y-74264950D01*
X67618938Y-74266856D01*
X67618937Y-74266857D01*
X67383614Y-74396228D01*
X67345806Y-74417013D01*
X67146216Y-74562023D01*
X67127846Y-74575370D01*
X67090445Y-74602543D01*
X66860352Y-74818615D01*
X66857828Y-74821666D01*
X66857827Y-74821667D01*
X66827410Y-74858435D01*
X66659153Y-75061822D01*
X66490023Y-75328328D01*
X66488339Y-75331907D01*
X66488335Y-75331914D01*
X66391125Y-75538498D01*
X66355629Y-75613931D01*
X66258090Y-75914125D01*
X66257346Y-75918026D01*
X66234206Y-76039328D01*
X66201794Y-76102494D01*
X66140376Y-76138110D01*
X66069454Y-76134866D01*
X66038169Y-76118932D01*
X66035258Y-76116894D01*
X66009143Y-76098608D01*
X66004165Y-76096287D01*
X66004162Y-76096285D01*
X65822477Y-76011564D01*
X65822476Y-76011563D01*
X65817495Y-76009241D01*
X65812187Y-76007819D01*
X65812185Y-76007818D01*
X65618555Y-75955935D01*
X65618553Y-75955935D01*
X65613240Y-75954511D01*
X65402585Y-75936081D01*
X65191930Y-75954511D01*
X65186617Y-75955935D01*
X65186615Y-75955935D01*
X64992985Y-76007818D01*
X64992983Y-76007819D01*
X64987675Y-76009241D01*
X64982694Y-76011563D01*
X64982693Y-76011564D01*
X64801008Y-76096285D01*
X64801005Y-76096287D01*
X64796027Y-76098608D01*
X64622809Y-76219896D01*
X64473284Y-76369421D01*
X64351996Y-76542639D01*
X64262629Y-76734287D01*
X64207899Y-76938542D01*
X64189469Y-77149197D01*
X55372500Y-77149197D01*
X55372500Y-74609197D01*
X62399469Y-74609197D01*
X62417899Y-74819852D01*
X62419323Y-74825165D01*
X62419323Y-74825167D01*
X62459166Y-74973861D01*
X62472629Y-75024107D01*
X62474951Y-75029088D01*
X62474952Y-75029089D01*
X62493438Y-75068731D01*
X62561996Y-75215755D01*
X62683284Y-75388973D01*
X62832809Y-75538498D01*
X63006027Y-75659786D01*
X63011005Y-75662107D01*
X63011008Y-75662109D01*
X63192693Y-75746830D01*
X63197675Y-75749153D01*
X63202983Y-75750575D01*
X63202985Y-75750576D01*
X63396615Y-75802459D01*
X63396617Y-75802459D01*
X63401930Y-75803883D01*
X63612585Y-75822313D01*
X63823240Y-75803883D01*
X63828553Y-75802459D01*
X63828555Y-75802459D01*
X64022185Y-75750576D01*
X64022187Y-75750575D01*
X64027495Y-75749153D01*
X64032477Y-75746830D01*
X64214162Y-75662109D01*
X64214165Y-75662107D01*
X64219143Y-75659786D01*
X64392361Y-75538498D01*
X64541886Y-75388973D01*
X64663174Y-75215755D01*
X64731733Y-75068731D01*
X64750218Y-75029089D01*
X64750219Y-75029088D01*
X64752541Y-75024107D01*
X64766005Y-74973861D01*
X64805847Y-74825167D01*
X64805847Y-74825165D01*
X64807271Y-74819852D01*
X64825701Y-74609197D01*
X64807271Y-74398542D01*
X64801323Y-74376342D01*
X64753964Y-74199597D01*
X64753963Y-74199595D01*
X64752541Y-74194287D01*
X64750218Y-74189305D01*
X64665497Y-74007620D01*
X64665495Y-74007617D01*
X64663174Y-74002639D01*
X64650366Y-73984347D01*
X73979067Y-73984347D01*
X73979583Y-73990491D01*
X73992995Y-74150207D01*
X73996437Y-74191201D01*
X74053654Y-74390742D01*
X74056472Y-74396224D01*
X74056473Y-74396228D01*
X74112585Y-74505409D01*
X74148540Y-74575370D01*
X74277479Y-74738051D01*
X74282166Y-74742040D01*
X74282169Y-74742043D01*
X74416145Y-74856065D01*
X74435561Y-74872589D01*
X74616765Y-74973861D01*
X74814188Y-75038007D01*
X75020310Y-75062586D01*
X75026445Y-75062114D01*
X75026447Y-75062114D01*
X75221140Y-75047133D01*
X75221145Y-75047132D01*
X75227281Y-75046660D01*
X75233211Y-75045004D01*
X75233213Y-75045004D01*
X75327249Y-75018748D01*
X75427217Y-74990837D01*
X75612502Y-74897243D01*
X75776080Y-74769442D01*
X75911718Y-74612303D01*
X75915723Y-74605254D01*
X76011205Y-74437174D01*
X76014252Y-74431811D01*
X76079775Y-74234841D01*
X76105792Y-74028895D01*
X76106207Y-73999197D01*
X76096246Y-73897613D01*
X76086551Y-73798731D01*
X76086550Y-73798728D01*
X76085950Y-73792605D01*
X76025953Y-73593882D01*
X76008875Y-73561763D01*
X75931394Y-73416044D01*
X75931393Y-73416042D01*
X75928498Y-73410598D01*
X75846620Y-73310205D01*
X75801195Y-73254508D01*
X75801192Y-73254505D01*
X75797300Y-73249733D01*
X75790355Y-73243987D01*
X75642103Y-73121342D01*
X75642104Y-73121342D01*
X75637355Y-73117414D01*
X75631938Y-73114485D01*
X75631935Y-73114483D01*
X75460175Y-73021613D01*
X75460170Y-73021611D01*
X75454755Y-73018683D01*
X75256456Y-72957299D01*
X75250331Y-72956655D01*
X75250330Y-72956655D01*
X75056139Y-72936245D01*
X75056137Y-72936245D01*
X75050010Y-72935601D01*
X74964100Y-72943420D01*
X74849421Y-72953856D01*
X74849418Y-72953857D01*
X74843282Y-72954415D01*
X74837376Y-72956153D01*
X74837372Y-72956154D01*
X74689517Y-72999670D01*
X74644145Y-73013024D01*
X74460185Y-73109196D01*
X74298408Y-73239268D01*
X74294450Y-73243985D01*
X74294448Y-73243987D01*
X74289627Y-73249733D01*
X74164976Y-73398286D01*
X74162012Y-73403678D01*
X74162009Y-73403682D01*
X74111930Y-73494776D01*
X74064972Y-73580192D01*
X74002206Y-73778058D01*
X74001520Y-73784175D01*
X74001519Y-73784179D01*
X73979754Y-73978222D01*
X73979067Y-73984347D01*
X64650366Y-73984347D01*
X64541886Y-73829421D01*
X64392361Y-73679896D01*
X64219143Y-73558608D01*
X64214165Y-73556287D01*
X64214162Y-73556285D01*
X64032477Y-73471564D01*
X64032476Y-73471563D01*
X64027495Y-73469241D01*
X64022187Y-73467819D01*
X64022185Y-73467818D01*
X63828555Y-73415935D01*
X63828553Y-73415935D01*
X63823240Y-73414511D01*
X63612585Y-73396081D01*
X63401930Y-73414511D01*
X63396617Y-73415935D01*
X63396615Y-73415935D01*
X63202985Y-73467818D01*
X63202983Y-73467819D01*
X63197675Y-73469241D01*
X63192694Y-73471563D01*
X63192693Y-73471564D01*
X63011008Y-73556285D01*
X63011005Y-73556287D01*
X63006027Y-73558608D01*
X62832809Y-73679896D01*
X62683284Y-73829421D01*
X62561996Y-74002639D01*
X62559675Y-74007617D01*
X62559673Y-74007620D01*
X62474952Y-74189305D01*
X62472629Y-74194287D01*
X62471207Y-74199595D01*
X62471206Y-74199597D01*
X62423847Y-74376342D01*
X62417899Y-74398542D01*
X62399469Y-74609197D01*
X55372500Y-74609197D01*
X55372500Y-72714347D01*
X76519067Y-72714347D01*
X76536437Y-72921201D01*
X76593654Y-73120742D01*
X76596472Y-73126224D01*
X76596473Y-73126228D01*
X76652585Y-73235409D01*
X76688540Y-73305370D01*
X76817479Y-73468051D01*
X76822166Y-73472040D01*
X76822169Y-73472043D01*
X76956145Y-73586065D01*
X76975561Y-73602589D01*
X77156765Y-73703861D01*
X77354188Y-73768007D01*
X77560310Y-73792586D01*
X77566445Y-73792114D01*
X77566447Y-73792114D01*
X77761140Y-73777133D01*
X77761145Y-73777132D01*
X77767281Y-73776660D01*
X77773211Y-73775004D01*
X77773213Y-73775004D01*
X77867249Y-73748748D01*
X77967217Y-73720837D01*
X78048267Y-73679896D01*
X78147001Y-73630022D01*
X78147003Y-73630021D01*
X78152502Y-73627243D01*
X78316080Y-73499442D01*
X78451718Y-73342303D01*
X78554252Y-73161811D01*
X78619775Y-72964841D01*
X78645792Y-72758895D01*
X78646207Y-72729197D01*
X78625950Y-72522605D01*
X78565953Y-72323882D01*
X78513257Y-72224776D01*
X78471394Y-72146044D01*
X78471393Y-72146042D01*
X78468498Y-72140598D01*
X78386620Y-72040205D01*
X78341195Y-71984508D01*
X78341192Y-71984505D01*
X78337300Y-71979733D01*
X78330355Y-71973987D01*
X78182103Y-71851342D01*
X78182104Y-71851342D01*
X78177355Y-71847414D01*
X78171938Y-71844485D01*
X78171935Y-71844483D01*
X78000175Y-71751613D01*
X78000170Y-71751611D01*
X77994755Y-71748683D01*
X77796456Y-71687299D01*
X77790331Y-71686655D01*
X77790330Y-71686655D01*
X77596139Y-71666245D01*
X77596137Y-71666245D01*
X77590010Y-71665601D01*
X77504100Y-71673420D01*
X77389421Y-71683856D01*
X77389418Y-71683857D01*
X77383282Y-71684415D01*
X77377376Y-71686153D01*
X77377372Y-71686154D01*
X77229517Y-71729670D01*
X77184145Y-71743024D01*
X77000185Y-71839196D01*
X76838408Y-71969268D01*
X76834450Y-71973985D01*
X76834448Y-71973987D01*
X76829627Y-71979733D01*
X76704976Y-72128286D01*
X76702012Y-72133678D01*
X76702009Y-72133682D01*
X76651930Y-72224776D01*
X76604972Y-72310192D01*
X76542206Y-72508058D01*
X76541520Y-72514175D01*
X76541519Y-72514179D01*
X76540658Y-72521857D01*
X76519067Y-72714347D01*
X55372500Y-72714347D01*
X55372500Y-67039197D01*
X64189469Y-67039197D01*
X64207899Y-67249852D01*
X64209323Y-67255165D01*
X64209323Y-67255167D01*
X64259347Y-67441857D01*
X64262629Y-67454107D01*
X64264951Y-67459088D01*
X64264952Y-67459089D01*
X64347454Y-67636014D01*
X64351996Y-67645755D01*
X64473284Y-67818973D01*
X64622809Y-67968498D01*
X64796027Y-68089786D01*
X64801005Y-68092107D01*
X64801008Y-68092109D01*
X64954270Y-68163576D01*
X64987675Y-68179153D01*
X64992983Y-68180575D01*
X64992985Y-68180576D01*
X65186615Y-68232459D01*
X65186617Y-68232459D01*
X65191930Y-68233883D01*
X65402585Y-68252313D01*
X65613240Y-68233883D01*
X65618553Y-68232459D01*
X65618555Y-68232459D01*
X65640361Y-68226616D01*
X65711338Y-68228306D01*
X65762067Y-68259228D01*
X68417874Y-70915035D01*
X68428741Y-70927426D01*
X68448202Y-70952788D01*
X68480114Y-70977275D01*
X68480117Y-70977278D01*
X68575313Y-71050325D01*
X68612176Y-71065594D01*
X68636627Y-71075722D01*
X68715709Y-71108479D01*
X68715712Y-71108480D01*
X68723339Y-71111639D01*
X68842304Y-71127301D01*
X68842309Y-71127301D01*
X68842318Y-71127302D01*
X68874001Y-71131473D01*
X68882189Y-71132551D01*
X68913882Y-71128379D01*
X68930325Y-71127301D01*
X73873706Y-71127301D01*
X73941827Y-71147303D01*
X73988320Y-71200959D01*
X73998921Y-71267345D01*
X73979067Y-71444347D01*
X73996437Y-71651201D01*
X74053654Y-71850742D01*
X74056472Y-71856224D01*
X74056473Y-71856228D01*
X74112585Y-71965409D01*
X74148540Y-72035370D01*
X74277479Y-72198051D01*
X74282166Y-72202040D01*
X74282169Y-72202043D01*
X74416145Y-72316065D01*
X74435561Y-72332589D01*
X74616765Y-72433861D01*
X74814188Y-72498007D01*
X75020310Y-72522586D01*
X75026445Y-72522114D01*
X75026447Y-72522114D01*
X75221140Y-72507133D01*
X75221145Y-72507132D01*
X75227281Y-72506660D01*
X75233211Y-72505004D01*
X75233213Y-72505004D01*
X75327249Y-72478749D01*
X75427217Y-72450837D01*
X75612502Y-72357243D01*
X75776080Y-72229442D01*
X75911718Y-72072303D01*
X76014252Y-71891811D01*
X76079775Y-71694841D01*
X76105792Y-71488895D01*
X76106207Y-71459197D01*
X76096246Y-71357613D01*
X76086551Y-71258731D01*
X76086550Y-71258728D01*
X76085950Y-71252605D01*
X76025953Y-71053882D01*
X76021388Y-71045297D01*
X75931394Y-70876044D01*
X75931393Y-70876042D01*
X75928498Y-70870598D01*
X75846620Y-70770205D01*
X75801195Y-70714508D01*
X75801192Y-70714505D01*
X75797300Y-70709733D01*
X75759537Y-70678493D01*
X75725667Y-70650472D01*
X75685929Y-70591638D01*
X75684308Y-70520660D01*
X75716888Y-70464293D01*
X76331036Y-69850145D01*
X76393348Y-69816119D01*
X76464163Y-69821184D01*
X76520999Y-69863731D01*
X76545810Y-69930251D01*
X76543473Y-69964064D01*
X76542206Y-69968058D01*
X76541519Y-69974181D01*
X76541519Y-69974182D01*
X76525536Y-70116675D01*
X76519067Y-70174347D01*
X76536437Y-70381201D01*
X76593654Y-70580742D01*
X76596472Y-70586224D01*
X76596473Y-70586228D01*
X76685720Y-70759883D01*
X76688540Y-70765370D01*
X76817479Y-70928051D01*
X76822166Y-70932040D01*
X76822169Y-70932043D01*
X76955243Y-71045297D01*
X76975561Y-71062589D01*
X77156765Y-71163861D01*
X77354188Y-71228007D01*
X77560310Y-71252586D01*
X77566445Y-71252114D01*
X77566447Y-71252114D01*
X77761140Y-71237133D01*
X77761145Y-71237132D01*
X77767281Y-71236660D01*
X77773211Y-71235004D01*
X77773213Y-71235004D01*
X77895148Y-71200959D01*
X77967217Y-71180837D01*
X78006775Y-71160855D01*
X78147001Y-71090022D01*
X78147003Y-71090021D01*
X78152502Y-71087243D01*
X78316080Y-70959442D01*
X78418000Y-70841366D01*
X78477653Y-70802869D01*
X78513382Y-70797697D01*
X81429527Y-70797697D01*
X81445970Y-70798775D01*
X81477663Y-70802947D01*
X81485852Y-70801869D01*
X81517537Y-70797698D01*
X81517547Y-70797697D01*
X81517548Y-70797697D01*
X81617120Y-70784588D01*
X81628327Y-70783113D01*
X81628329Y-70783112D01*
X81636514Y-70782035D01*
X81784539Y-70720721D01*
X81879735Y-70647674D01*
X81879738Y-70647671D01*
X81911650Y-70623184D01*
X81916680Y-70616629D01*
X81931115Y-70597818D01*
X81941982Y-70585427D01*
X82367098Y-70160311D01*
X82429410Y-70126285D01*
X82484000Y-70126513D01*
X82548919Y-70141203D01*
X82554687Y-70141430D01*
X82554690Y-70141430D01*
X82644533Y-70144959D01*
X82766264Y-70149742D01*
X82981525Y-70118531D01*
X82986989Y-70116676D01*
X82986994Y-70116675D01*
X83182022Y-70050472D01*
X83182027Y-70050470D01*
X83187494Y-70048614D01*
X83377272Y-69942333D01*
X83544505Y-69803247D01*
X83683591Y-69636014D01*
X83762356Y-69495370D01*
X83787048Y-69451279D01*
X83787049Y-69451277D01*
X83789872Y-69446236D01*
X83791728Y-69440769D01*
X83791730Y-69440764D01*
X83857933Y-69245736D01*
X83857934Y-69245731D01*
X83859789Y-69240267D01*
X83891000Y-69025006D01*
X83892629Y-68962801D01*
X83872726Y-68746201D01*
X83813685Y-68536856D01*
X83717482Y-68341775D01*
X83636916Y-68233883D01*
X83590792Y-68172116D01*
X83590791Y-68172115D01*
X83587339Y-68167492D01*
X83578443Y-68159268D01*
X83465137Y-68054530D01*
X83428692Y-67993601D01*
X83430973Y-67922641D01*
X83470097Y-67865131D01*
X83480782Y-67856245D01*
X83544505Y-67803247D01*
X83683591Y-67636014D01*
X83723921Y-67564000D01*
X109830496Y-67564000D01*
X109850458Y-67753928D01*
X109909473Y-67935556D01*
X110004960Y-68100944D01*
X110009378Y-68105851D01*
X110009379Y-68105852D01*
X110124659Y-68233883D01*
X110132747Y-68242866D01*
X110230060Y-68313568D01*
X110262515Y-68337148D01*
X110287248Y-68355118D01*
X110293276Y-68357802D01*
X110293278Y-68357803D01*
X110455681Y-68430109D01*
X110461712Y-68432794D01*
X110555112Y-68452647D01*
X110642056Y-68471128D01*
X110642061Y-68471128D01*
X110648513Y-68472500D01*
X110839487Y-68472500D01*
X110845939Y-68471128D01*
X110845944Y-68471128D01*
X110932888Y-68452647D01*
X111026288Y-68432794D01*
X111032319Y-68430109D01*
X111194722Y-68357803D01*
X111194724Y-68357802D01*
X111200752Y-68355118D01*
X111225486Y-68337148D01*
X111257940Y-68313568D01*
X111355253Y-68242866D01*
X111363341Y-68233883D01*
X111478621Y-68105852D01*
X111478622Y-68105851D01*
X111483040Y-68100944D01*
X111578527Y-67935556D01*
X111637542Y-67753928D01*
X111654575Y-67591867D01*
X111681588Y-67526210D01*
X111690790Y-67515942D01*
X125487919Y-53718814D01*
X125550231Y-53684788D01*
X125621046Y-53689853D01*
X125680227Y-53735638D01*
X125767153Y-53859781D01*
X125924349Y-54016977D01*
X125928857Y-54020134D01*
X125928860Y-54020136D01*
X126004625Y-54073187D01*
X126106453Y-54144488D01*
X126111435Y-54146811D01*
X126111440Y-54146814D01*
X126302952Y-54236117D01*
X126307934Y-54238440D01*
X126313242Y-54239862D01*
X126313244Y-54239863D01*
X126379079Y-54257503D01*
X126522667Y-54295978D01*
X126744130Y-54315353D01*
X126965593Y-54295978D01*
X127109181Y-54257503D01*
X127175016Y-54239863D01*
X127175018Y-54239862D01*
X127180326Y-54238440D01*
X127185308Y-54236117D01*
X127376820Y-54146814D01*
X127376825Y-54146811D01*
X127381807Y-54144488D01*
X127483635Y-54073187D01*
X127559400Y-54020136D01*
X127559403Y-54020134D01*
X127563911Y-54016977D01*
X127721107Y-53859781D01*
X127848618Y-53677676D01*
X127850941Y-53672694D01*
X127850944Y-53672689D01*
X127940247Y-53481178D01*
X127940248Y-53481177D01*
X127942570Y-53476196D01*
X128000108Y-53261463D01*
X128019483Y-53040000D01*
X128000108Y-52818537D01*
X127942570Y-52603804D01*
X127912574Y-52539477D01*
X127850944Y-52407311D01*
X127850941Y-52407306D01*
X127848618Y-52402324D01*
X127771349Y-52291972D01*
X127724266Y-52224730D01*
X127724264Y-52224727D01*
X127721107Y-52220219D01*
X127563911Y-52063023D01*
X127559403Y-52059866D01*
X127559400Y-52059864D01*
X127483635Y-52006813D01*
X127381807Y-51935512D01*
X127376825Y-51933189D01*
X127376820Y-51933186D01*
X127185308Y-51843883D01*
X127185307Y-51843882D01*
X127180326Y-51841560D01*
X127175018Y-51840138D01*
X127175016Y-51840137D01*
X127109181Y-51822497D01*
X126965593Y-51784022D01*
X126744130Y-51764647D01*
X126522667Y-51784022D01*
X126379079Y-51822497D01*
X126313244Y-51840137D01*
X126313242Y-51840138D01*
X126307934Y-51841560D01*
X126302953Y-51843882D01*
X126302952Y-51843883D01*
X126111441Y-51933186D01*
X126111436Y-51933189D01*
X126106454Y-51935512D01*
X126101947Y-51938668D01*
X126101945Y-51938669D01*
X125928860Y-52059864D01*
X125928857Y-52059866D01*
X125924349Y-52063023D01*
X125767153Y-52220219D01*
X125763995Y-52224729D01*
X125763990Y-52224735D01*
X125675740Y-52350770D01*
X125620283Y-52395099D01*
X125572527Y-52404500D01*
X125347032Y-52404500D01*
X125335793Y-52403970D01*
X125328281Y-52402291D01*
X125320356Y-52402540D01*
X125320355Y-52402540D01*
X125259970Y-52404438D01*
X125256012Y-52404500D01*
X125228017Y-52404500D01*
X125224083Y-52404997D01*
X125224081Y-52404997D01*
X125223994Y-52405008D01*
X125212160Y-52405940D01*
X125167795Y-52407335D01*
X125160182Y-52409547D01*
X125160181Y-52409547D01*
X125148252Y-52413013D01*
X125128888Y-52417023D01*
X125116560Y-52418580D01*
X125116558Y-52418580D01*
X125108701Y-52419573D01*
X125101337Y-52422489D01*
X125101332Y-52422490D01*
X125067444Y-52435907D01*
X125056215Y-52439752D01*
X125039535Y-52444598D01*
X125013607Y-52452131D01*
X125006780Y-52456169D01*
X125006777Y-52456170D01*
X124996094Y-52462488D01*
X124978336Y-52471188D01*
X124966785Y-52475761D01*
X124966779Y-52475765D01*
X124959412Y-52478681D01*
X124953001Y-52483339D01*
X124952999Y-52483340D01*
X124923512Y-52504764D01*
X124913590Y-52511281D01*
X124882232Y-52529826D01*
X124882228Y-52529829D01*
X124875402Y-52533866D01*
X124861018Y-52548250D01*
X124845984Y-52561091D01*
X124829513Y-52573058D01*
X124824460Y-52579166D01*
X124801223Y-52607255D01*
X124793233Y-52616035D01*
X110790672Y-66618595D01*
X110728360Y-66652621D01*
X110701577Y-66655500D01*
X110648513Y-66655500D01*
X110642061Y-66656872D01*
X110642056Y-66656872D01*
X110555113Y-66675353D01*
X110461712Y-66695206D01*
X110455682Y-66697891D01*
X110455681Y-66697891D01*
X110293278Y-66770197D01*
X110293276Y-66770198D01*
X110287248Y-66772882D01*
X110132747Y-66885134D01*
X110128326Y-66890044D01*
X110128325Y-66890045D01*
X110010145Y-67021298D01*
X110004960Y-67027056D01*
X109909473Y-67192444D01*
X109850458Y-67374072D01*
X109849768Y-67380633D01*
X109849768Y-67380635D01*
X109843257Y-67442586D01*
X109830496Y-67564000D01*
X83723921Y-67564000D01*
X83789872Y-67446236D01*
X83791728Y-67440769D01*
X83791730Y-67440764D01*
X83857933Y-67245736D01*
X83857934Y-67245731D01*
X83859789Y-67240267D01*
X83891000Y-67025006D01*
X83892629Y-66962801D01*
X83872726Y-66746201D01*
X83813685Y-66536856D01*
X83717482Y-66341775D01*
X83703771Y-66323413D01*
X83590792Y-66172116D01*
X83590791Y-66172115D01*
X83587339Y-66167492D01*
X83577134Y-66158058D01*
X83465137Y-66054530D01*
X83428692Y-65993601D01*
X83430973Y-65922641D01*
X83470097Y-65865131D01*
X83540067Y-65806938D01*
X83544505Y-65803247D01*
X83683591Y-65636014D01*
X83762852Y-65494483D01*
X83787048Y-65451279D01*
X83787049Y-65451277D01*
X83789872Y-65446236D01*
X83791728Y-65440769D01*
X83791730Y-65440764D01*
X83857933Y-65245736D01*
X83857934Y-65245731D01*
X83859789Y-65240267D01*
X83891000Y-65025006D01*
X83892629Y-64962801D01*
X83872726Y-64746201D01*
X83813685Y-64536856D01*
X83717482Y-64341775D01*
X83600668Y-64185341D01*
X83590792Y-64172116D01*
X83590791Y-64172115D01*
X83587339Y-64167492D01*
X83543636Y-64127093D01*
X83431855Y-64023764D01*
X83431852Y-64023762D01*
X83427615Y-64019845D01*
X83243658Y-63903777D01*
X83041631Y-63823177D01*
X82828298Y-63780742D01*
X82822523Y-63780666D01*
X82822519Y-63780666D01*
X82713478Y-63779239D01*
X82610805Y-63777895D01*
X82605108Y-63778874D01*
X82605107Y-63778874D01*
X82402124Y-63813753D01*
X82402121Y-63813754D01*
X82396434Y-63814731D01*
X82192366Y-63890015D01*
X82005435Y-64001228D01*
X82001091Y-64005038D01*
X81983651Y-64020332D01*
X81919247Y-64050209D01*
X81848914Y-64040523D01*
X81799748Y-64001166D01*
X81797581Y-63998274D01*
X81742320Y-63924540D01*
X81625764Y-63837186D01*
X81489375Y-63786056D01*
X81427193Y-63779301D01*
X79980925Y-63779301D01*
X79918743Y-63786056D01*
X79782354Y-63837186D01*
X79665798Y-63924540D01*
X79578444Y-64041096D01*
X79527314Y-64177485D01*
X79520559Y-64239667D01*
X79520559Y-65229470D01*
X79500557Y-65297591D01*
X79446901Y-65344084D01*
X79394559Y-65355470D01*
X78045948Y-65355470D01*
X78029505Y-65354392D01*
X77997812Y-65350220D01*
X77989623Y-65351298D01*
X77957938Y-65355469D01*
X77957929Y-65355470D01*
X77957927Y-65355470D01*
X77957921Y-65355471D01*
X77957919Y-65355471D01*
X77858355Y-65368579D01*
X77847148Y-65370054D01*
X77847146Y-65370055D01*
X77838961Y-65371132D01*
X77690936Y-65432446D01*
X77684385Y-65437473D01*
X77684383Y-65437474D01*
X77611948Y-65493056D01*
X77595740Y-65505493D01*
X77595737Y-65505496D01*
X77563825Y-65529983D01*
X77558795Y-65536538D01*
X77544360Y-65555349D01*
X77533493Y-65567740D01*
X76253985Y-66847248D01*
X76191673Y-66881274D01*
X76120858Y-66876209D01*
X76064022Y-66833662D01*
X76039211Y-66767142D01*
X76045332Y-66718381D01*
X76065793Y-66656872D01*
X76079775Y-66614841D01*
X76105792Y-66408895D01*
X76106207Y-66379197D01*
X76085950Y-66172605D01*
X76039830Y-66019845D01*
X76027737Y-65979790D01*
X76027736Y-65979787D01*
X76025953Y-65973882D01*
X76003166Y-65931026D01*
X75931394Y-65796044D01*
X75931393Y-65796042D01*
X75928498Y-65790598D01*
X75879376Y-65730368D01*
X75801195Y-65634508D01*
X75801192Y-65634505D01*
X75797300Y-65629733D01*
X75790355Y-65623987D01*
X75642103Y-65501342D01*
X75642104Y-65501342D01*
X75637355Y-65497414D01*
X75631938Y-65494485D01*
X75631935Y-65494483D01*
X75460175Y-65401613D01*
X75460170Y-65401611D01*
X75454755Y-65398683D01*
X75256456Y-65337299D01*
X75250331Y-65336655D01*
X75250330Y-65336655D01*
X75056139Y-65316245D01*
X75056137Y-65316245D01*
X75050010Y-65315601D01*
X74964100Y-65323420D01*
X74849421Y-65333856D01*
X74849418Y-65333857D01*
X74843282Y-65334415D01*
X74837376Y-65336153D01*
X74837372Y-65336154D01*
X74718528Y-65371132D01*
X74644145Y-65393024D01*
X74460185Y-65489196D01*
X74298408Y-65619268D01*
X74294450Y-65623985D01*
X74294448Y-65623987D01*
X74235397Y-65694362D01*
X74164976Y-65778286D01*
X74162012Y-65783678D01*
X74162009Y-65783682D01*
X74098480Y-65899241D01*
X74064972Y-65960192D01*
X74002206Y-66158058D01*
X74001520Y-66164175D01*
X74001519Y-66164179D01*
X74000629Y-66172116D01*
X73979067Y-66364347D01*
X73979583Y-66370491D01*
X73993118Y-66531673D01*
X73996437Y-66571201D01*
X74053654Y-66770742D01*
X74056472Y-66776224D01*
X74056473Y-66776228D01*
X74114967Y-66890045D01*
X74148540Y-66955370D01*
X74277479Y-67118051D01*
X74282166Y-67122040D01*
X74282169Y-67122043D01*
X74430869Y-67248596D01*
X74435561Y-67252589D01*
X74616765Y-67353861D01*
X74814188Y-67418007D01*
X75020310Y-67442586D01*
X75026445Y-67442114D01*
X75026447Y-67442114D01*
X75221140Y-67427133D01*
X75221145Y-67427132D01*
X75227281Y-67426660D01*
X75233215Y-67425003D01*
X75233222Y-67425002D01*
X75385244Y-67382557D01*
X75456234Y-67383503D01*
X75515444Y-67422679D01*
X75544073Y-67487647D01*
X75533034Y-67557780D01*
X75508223Y-67593010D01*
X75269524Y-67831709D01*
X75207212Y-67865735D01*
X75167259Y-67867924D01*
X75056139Y-67856245D01*
X75056137Y-67856245D01*
X75050010Y-67855601D01*
X74964100Y-67863420D01*
X74849421Y-67873856D01*
X74849418Y-67873857D01*
X74843282Y-67874415D01*
X74837376Y-67876153D01*
X74837372Y-67876154D01*
X74689517Y-67919670D01*
X74644145Y-67933024D01*
X74460185Y-68029196D01*
X74298408Y-68159268D01*
X74294450Y-68163985D01*
X74294448Y-68163987D01*
X74235397Y-68234362D01*
X74164976Y-68318286D01*
X74162012Y-68323678D01*
X74162009Y-68323682D01*
X74102024Y-68432794D01*
X74064972Y-68500192D01*
X74002206Y-68698058D01*
X73979067Y-68904347D01*
X73979583Y-68910491D01*
X73989508Y-69028680D01*
X73996437Y-69111201D01*
X74053654Y-69310742D01*
X74056472Y-69316224D01*
X74056473Y-69316228D01*
X74125880Y-69451279D01*
X74148540Y-69495370D01*
X74277479Y-69658051D01*
X74282166Y-69662040D01*
X74282169Y-69662043D01*
X74313077Y-69688347D01*
X74351990Y-69747729D01*
X74352621Y-69818723D01*
X74314770Y-69878788D01*
X74250454Y-69908854D01*
X74231414Y-69910301D01*
X69186428Y-69910301D01*
X69118307Y-69890299D01*
X69097333Y-69873396D01*
X66622616Y-67398679D01*
X66588590Y-67336367D01*
X66590004Y-67276973D01*
X66595847Y-67255167D01*
X66595847Y-67255165D01*
X66597271Y-67249852D01*
X66615701Y-67039197D01*
X66614639Y-67027056D01*
X66601538Y-66877308D01*
X66615527Y-66807704D01*
X66664927Y-66756711D01*
X66734053Y-66740521D01*
X66800958Y-66764274D01*
X66824144Y-66786012D01*
X66857820Y-66826720D01*
X66857827Y-66826727D01*
X66860352Y-66829779D01*
X66863242Y-66832493D01*
X66863243Y-66832494D01*
X66899584Y-66866620D01*
X67090445Y-67045851D01*
X67093647Y-67048178D01*
X67093649Y-67048179D01*
X67118238Y-67066044D01*
X67345806Y-67231381D01*
X67349275Y-67233288D01*
X67349278Y-67233290D01*
X67563127Y-67350855D01*
X67622406Y-67383444D01*
X67626075Y-67384897D01*
X67626080Y-67384899D01*
X67793737Y-67451279D01*
X67915883Y-67499640D01*
X68221610Y-67578137D01*
X68534764Y-67617697D01*
X68850406Y-67617697D01*
X69163560Y-67578137D01*
X69469287Y-67499640D01*
X69591433Y-67451279D01*
X69759090Y-67384899D01*
X69759095Y-67384897D01*
X69762764Y-67383444D01*
X69822043Y-67350855D01*
X70035892Y-67233290D01*
X70035895Y-67233288D01*
X70039364Y-67231381D01*
X70266932Y-67066044D01*
X70291521Y-67048179D01*
X70291523Y-67048178D01*
X70294725Y-67045851D01*
X70485586Y-66866620D01*
X70521927Y-66832494D01*
X70521928Y-66832493D01*
X70524818Y-66829779D01*
X70539683Y-66811811D01*
X70676748Y-66646128D01*
X70726017Y-66586572D01*
X70895147Y-66320066D01*
X70896831Y-66316487D01*
X70896835Y-66316480D01*
X71027852Y-66038053D01*
X71027854Y-66038049D01*
X71029541Y-66034463D01*
X71127080Y-65734269D01*
X71186226Y-65424217D01*
X71206045Y-65109197D01*
X71186226Y-64794177D01*
X71127080Y-64484125D01*
X71029541Y-64183931D01*
X71026508Y-64177485D01*
X70896835Y-63901914D01*
X70896831Y-63901907D01*
X70895147Y-63898328D01*
X70891746Y-63892968D01*
X70823897Y-63786056D01*
X70726017Y-63631822D01*
X70524818Y-63388615D01*
X70294725Y-63172543D01*
X70039364Y-62987013D01*
X69762764Y-62834950D01*
X69759095Y-62833497D01*
X69759090Y-62833495D01*
X69472957Y-62720207D01*
X69472956Y-62720207D01*
X69469287Y-62718754D01*
X69163560Y-62640257D01*
X68850406Y-62600697D01*
X68534764Y-62600697D01*
X68221610Y-62640257D01*
X67915883Y-62718754D01*
X67912214Y-62720207D01*
X67912213Y-62720207D01*
X67626080Y-62833495D01*
X67626075Y-62833497D01*
X67622406Y-62834950D01*
X67345806Y-62987013D01*
X67090445Y-63172543D01*
X66860352Y-63388615D01*
X66659153Y-63631822D01*
X66561273Y-63786056D01*
X66493425Y-63892968D01*
X66490023Y-63898328D01*
X66488339Y-63901907D01*
X66488335Y-63901914D01*
X66358662Y-64177485D01*
X66355629Y-64183931D01*
X66258090Y-64484125D01*
X66198944Y-64794177D01*
X66179125Y-65109197D01*
X66198944Y-65424217D01*
X66258090Y-65734269D01*
X66259317Y-65738045D01*
X66322020Y-65931026D01*
X66324047Y-66001994D01*
X66287385Y-66062791D01*
X66223673Y-66094117D01*
X66153139Y-66086024D01*
X66129924Y-66073180D01*
X66009143Y-65988608D01*
X66004165Y-65986287D01*
X66004162Y-65986285D01*
X65822477Y-65901564D01*
X65822476Y-65901563D01*
X65817495Y-65899241D01*
X65812187Y-65897819D01*
X65812185Y-65897818D01*
X65618555Y-65845935D01*
X65618553Y-65845935D01*
X65613240Y-65844511D01*
X65402585Y-65826081D01*
X65191930Y-65844511D01*
X65186617Y-65845935D01*
X65186615Y-65845935D01*
X64992985Y-65897818D01*
X64992983Y-65897819D01*
X64987675Y-65899241D01*
X64982694Y-65901563D01*
X64982693Y-65901564D01*
X64801008Y-65986285D01*
X64801005Y-65986287D01*
X64796027Y-65988608D01*
X64622809Y-66109896D01*
X64473284Y-66259421D01*
X64351996Y-66432639D01*
X64349675Y-66437617D01*
X64349673Y-66437620D01*
X64267394Y-66614068D01*
X64262629Y-66624287D01*
X64261207Y-66629595D01*
X64261206Y-66629597D01*
X64212382Y-66811811D01*
X64207899Y-66828542D01*
X64189469Y-67039197D01*
X55372500Y-67039197D01*
X55372500Y-64499197D01*
X62399469Y-64499197D01*
X62417899Y-64709852D01*
X62472629Y-64914107D01*
X62474951Y-64919088D01*
X62474952Y-64919089D01*
X62497063Y-64966505D01*
X62561996Y-65105755D01*
X62683284Y-65278973D01*
X62832809Y-65428498D01*
X63006027Y-65549786D01*
X63011005Y-65552107D01*
X63011008Y-65552109D01*
X63190943Y-65636014D01*
X63197675Y-65639153D01*
X63202983Y-65640575D01*
X63202985Y-65640576D01*
X63396615Y-65692459D01*
X63396617Y-65692459D01*
X63401930Y-65693883D01*
X63612585Y-65712313D01*
X63823240Y-65693883D01*
X63828553Y-65692459D01*
X63828555Y-65692459D01*
X64022185Y-65640576D01*
X64022187Y-65640575D01*
X64027495Y-65639153D01*
X64034227Y-65636014D01*
X64214162Y-65552109D01*
X64214165Y-65552107D01*
X64219143Y-65549786D01*
X64392361Y-65428498D01*
X64541886Y-65278973D01*
X64663174Y-65105755D01*
X64728108Y-64966505D01*
X64750218Y-64919089D01*
X64750219Y-64919088D01*
X64752541Y-64914107D01*
X64807271Y-64709852D01*
X64825701Y-64499197D01*
X64807271Y-64288542D01*
X64780252Y-64187704D01*
X64753964Y-64089597D01*
X64753963Y-64089595D01*
X64752541Y-64084287D01*
X64736650Y-64050209D01*
X64665497Y-63897620D01*
X64665495Y-63897617D01*
X64663174Y-63892639D01*
X64541886Y-63719421D01*
X64392361Y-63569896D01*
X64219143Y-63448608D01*
X64214165Y-63446287D01*
X64214162Y-63446285D01*
X64032477Y-63361564D01*
X64032476Y-63361563D01*
X64027495Y-63359241D01*
X64022187Y-63357819D01*
X64022185Y-63357818D01*
X63828555Y-63305935D01*
X63828553Y-63305935D01*
X63823240Y-63304511D01*
X63612585Y-63286081D01*
X63401930Y-63304511D01*
X63396617Y-63305935D01*
X63396615Y-63305935D01*
X63202985Y-63357818D01*
X63202983Y-63357819D01*
X63197675Y-63359241D01*
X63192694Y-63361563D01*
X63192693Y-63361564D01*
X63011008Y-63446285D01*
X63011005Y-63446287D01*
X63006027Y-63448608D01*
X62832809Y-63569896D01*
X62683284Y-63719421D01*
X62561996Y-63892639D01*
X62559675Y-63897617D01*
X62559673Y-63897620D01*
X62488520Y-64050209D01*
X62472629Y-64084287D01*
X62471207Y-64089595D01*
X62471206Y-64089597D01*
X62444918Y-64187704D01*
X62417899Y-64288542D01*
X62399469Y-64499197D01*
X55372500Y-64499197D01*
X55372500Y-57609100D01*
X105381676Y-57609100D01*
X105391479Y-57889825D01*
X105392241Y-57894148D01*
X105392242Y-57894155D01*
X105416018Y-58028991D01*
X105440256Y-58166454D01*
X105527057Y-58433602D01*
X105650194Y-58686069D01*
X105652649Y-58689708D01*
X105652652Y-58689714D01*
X105725744Y-58798077D01*
X105807269Y-58918943D01*
X105995225Y-59127689D01*
X106210404Y-59308246D01*
X106448618Y-59457098D01*
X106705229Y-59571349D01*
X106975244Y-59648774D01*
X106979594Y-59649385D01*
X106979597Y-59649386D01*
X107082544Y-59663854D01*
X107253406Y-59687867D01*
X109564000Y-59687867D01*
X109566186Y-59687714D01*
X109566190Y-59687714D01*
X109769681Y-59673485D01*
X109769686Y-59673484D01*
X109774066Y-59673178D01*
X110048824Y-59614776D01*
X110052953Y-59613273D01*
X110052957Y-59613272D01*
X110308635Y-59520213D01*
X110308639Y-59520211D01*
X110312780Y-59518704D01*
X110560796Y-59386831D01*
X110665750Y-59310578D01*
X110784483Y-59224314D01*
X110784486Y-59224311D01*
X110788046Y-59221725D01*
X110990106Y-59026598D01*
X111163042Y-58805249D01*
X111165238Y-58801445D01*
X111165243Y-58801438D01*
X111301289Y-58565798D01*
X111303490Y-58561986D01*
X111408716Y-58301543D01*
X111442398Y-58166454D01*
X111475607Y-58033260D01*
X111475608Y-58033255D01*
X111476671Y-58028991D01*
X111506032Y-57749634D01*
X111496229Y-57468909D01*
X111472462Y-57334116D01*
X111448214Y-57196603D01*
X111447452Y-57192280D01*
X111360651Y-56925132D01*
X111237514Y-56672665D01*
X111235059Y-56669026D01*
X111235056Y-56669020D01*
X111154789Y-56550020D01*
X111080439Y-56439791D01*
X110892483Y-56231045D01*
X110677304Y-56050488D01*
X110439090Y-55901636D01*
X110182479Y-55787385D01*
X109912464Y-55709960D01*
X109908114Y-55709349D01*
X109908111Y-55709348D01*
X109805164Y-55694880D01*
X109634302Y-55670867D01*
X107323708Y-55670867D01*
X107321522Y-55671020D01*
X107321518Y-55671020D01*
X107118027Y-55685249D01*
X107118022Y-55685250D01*
X107113642Y-55685556D01*
X106838884Y-55743958D01*
X106834755Y-55745461D01*
X106834751Y-55745462D01*
X106579073Y-55838521D01*
X106579069Y-55838523D01*
X106574928Y-55840030D01*
X106326912Y-55971903D01*
X106323353Y-55974489D01*
X106323351Y-55974490D01*
X106218749Y-56050488D01*
X106099662Y-56137009D01*
X105897602Y-56332136D01*
X105724666Y-56553485D01*
X105722470Y-56557289D01*
X105722465Y-56557296D01*
X105608648Y-56754435D01*
X105584218Y-56796748D01*
X105478992Y-57057191D01*
X105477927Y-57061464D01*
X105477926Y-57061466D01*
X105444233Y-57196603D01*
X105411037Y-57329743D01*
X105381676Y-57609100D01*
X55372500Y-57609100D01*
X55372500Y-52287487D01*
X55371865Y-52283051D01*
X55371546Y-52278575D01*
X55371565Y-52278574D01*
X55370630Y-52265449D01*
X55370630Y-47302146D01*
X71018900Y-47302146D01*
X71033589Y-47512212D01*
X71091991Y-47786970D01*
X71188063Y-48050926D01*
X71319936Y-48298942D01*
X71322522Y-48302501D01*
X71322523Y-48302503D01*
X71404584Y-48415450D01*
X71485042Y-48526192D01*
X71680169Y-48728252D01*
X71901518Y-48901188D01*
X71905322Y-48903384D01*
X71905329Y-48903389D01*
X72102467Y-49017206D01*
X72144781Y-49041636D01*
X72405224Y-49146862D01*
X72409497Y-49147927D01*
X72409499Y-49147928D01*
X72673507Y-49213753D01*
X72673512Y-49213754D01*
X72677776Y-49214817D01*
X72682144Y-49215276D01*
X72682149Y-49215277D01*
X72952764Y-49243719D01*
X72952767Y-49243719D01*
X72957133Y-49244178D01*
X72961521Y-49244025D01*
X72961527Y-49244025D01*
X73233461Y-49234529D01*
X73233467Y-49234528D01*
X73237858Y-49234375D01*
X73242181Y-49233613D01*
X73242188Y-49233612D01*
X73417894Y-49202630D01*
X73514487Y-49185598D01*
X73781635Y-49098797D01*
X73785588Y-49096869D01*
X73785593Y-49096867D01*
X73898832Y-49041636D01*
X74034102Y-48975660D01*
X74037741Y-48973205D01*
X74037747Y-48973202D01*
X74148525Y-48898481D01*
X74266976Y-48818585D01*
X74475722Y-48630629D01*
X74656279Y-48415450D01*
X74805131Y-48177236D01*
X74919382Y-47920625D01*
X74996807Y-47650610D01*
X75035900Y-47372448D01*
X75035900Y-45061854D01*
X75035747Y-45059664D01*
X75021518Y-44856173D01*
X75021517Y-44856168D01*
X75021211Y-44851788D01*
X74962809Y-44577030D01*
X74953733Y-44552093D01*
X74868246Y-44317219D01*
X74868244Y-44317215D01*
X74866737Y-44313074D01*
X74734864Y-44065058D01*
X74726432Y-44053452D01*
X74572347Y-43841371D01*
X74572344Y-43841368D01*
X74569758Y-43837808D01*
X74374631Y-43635748D01*
X74153282Y-43462812D01*
X74149478Y-43460616D01*
X74149471Y-43460611D01*
X73913831Y-43324565D01*
X73910019Y-43322364D01*
X73682188Y-43230314D01*
X76449124Y-43230314D01*
X76449348Y-43234980D01*
X76449348Y-43234985D01*
X76453651Y-43324565D01*
X76461807Y-43494352D01*
X76471964Y-43545415D01*
X76508767Y-43730434D01*
X76513378Y-43753616D01*
X76514957Y-43758014D01*
X76514959Y-43758021D01*
X76582156Y-43945180D01*
X76602704Y-44002410D01*
X76604921Y-44006536D01*
X76701761Y-44186764D01*
X76727822Y-44235267D01*
X76730617Y-44239011D01*
X76730619Y-44239013D01*
X76813743Y-44350329D01*
X76885985Y-44447073D01*
X76889292Y-44450351D01*
X76889297Y-44450357D01*
X77021415Y-44581326D01*
X77073718Y-44633174D01*
X77077485Y-44635936D01*
X77077486Y-44635937D01*
X77283125Y-44786718D01*
X77286896Y-44789483D01*
X77291031Y-44791659D01*
X77291035Y-44791661D01*
X77397155Y-44847493D01*
X77520836Y-44912565D01*
X77626688Y-44949530D01*
X77747022Y-44991552D01*
X77770400Y-44999716D01*
X77774993Y-45000588D01*
X78025515Y-45048151D01*
X78025518Y-45048151D01*
X78030104Y-45049022D01*
X78162174Y-45054212D01*
X78289575Y-45059218D01*
X78289581Y-45059218D01*
X78294243Y-45059401D01*
X78557015Y-45030622D01*
X78561526Y-45029434D01*
X78561528Y-45029434D01*
X78808124Y-44964511D01*
X78808126Y-44964510D01*
X78812647Y-44963320D01*
X78844744Y-44949530D01*
X79051229Y-44860817D01*
X79051231Y-44860816D01*
X79055523Y-44858972D01*
X79237198Y-44746548D01*
X79276332Y-44722331D01*
X79276334Y-44722330D01*
X79280307Y-44719871D01*
X79363406Y-44649523D01*
X79478496Y-44552093D01*
X79478498Y-44552091D01*
X79482063Y-44549073D01*
X79656356Y-44350329D01*
X79680320Y-44313074D01*
X79796831Y-44131936D01*
X79799359Y-44128006D01*
X79907930Y-43886988D01*
X79979683Y-43632570D01*
X79997267Y-43494352D01*
X80012645Y-43373471D01*
X80012645Y-43373465D01*
X80013043Y-43370340D01*
X80015487Y-43277000D01*
X80012018Y-43230314D01*
X106909123Y-43230314D01*
X106909347Y-43234980D01*
X106909347Y-43234985D01*
X106913650Y-43324565D01*
X106921806Y-43494352D01*
X106931963Y-43545415D01*
X106968766Y-43730434D01*
X106973377Y-43753616D01*
X106974956Y-43758014D01*
X106974958Y-43758021D01*
X107042155Y-43945180D01*
X107062703Y-44002410D01*
X107064920Y-44006536D01*
X107161760Y-44186764D01*
X107187821Y-44235267D01*
X107190616Y-44239011D01*
X107190618Y-44239013D01*
X107273742Y-44350329D01*
X107345984Y-44447073D01*
X107349291Y-44450351D01*
X107349296Y-44450357D01*
X107481414Y-44581326D01*
X107533717Y-44633174D01*
X107537484Y-44635936D01*
X107537485Y-44635937D01*
X107743124Y-44786718D01*
X107746895Y-44789483D01*
X107751030Y-44791659D01*
X107751034Y-44791661D01*
X107857154Y-44847493D01*
X107980835Y-44912565D01*
X108086687Y-44949530D01*
X108207021Y-44991552D01*
X108230399Y-44999716D01*
X108234992Y-45000588D01*
X108485514Y-45048151D01*
X108485517Y-45048151D01*
X108490103Y-45049022D01*
X108622173Y-45054212D01*
X108749574Y-45059218D01*
X108749580Y-45059218D01*
X108754242Y-45059401D01*
X109017014Y-45030622D01*
X109021525Y-45029434D01*
X109021527Y-45029434D01*
X109268123Y-44964511D01*
X109268125Y-44964510D01*
X109272646Y-44963320D01*
X109304743Y-44949530D01*
X109511228Y-44860817D01*
X109511230Y-44860816D01*
X109515522Y-44858972D01*
X109697197Y-44746548D01*
X109736331Y-44722331D01*
X109736333Y-44722330D01*
X109740306Y-44719871D01*
X109823405Y-44649523D01*
X109938495Y-44552093D01*
X109938497Y-44552091D01*
X109942062Y-44549073D01*
X110031682Y-44446880D01*
X123361122Y-44446880D01*
X123361485Y-44451028D01*
X123361485Y-44451032D01*
X123386617Y-44738293D01*
X123386618Y-44738301D01*
X123386982Y-44742459D01*
X123387896Y-44746548D01*
X123444681Y-45000588D01*
X123451707Y-45032021D01*
X123453149Y-45035941D01*
X123453151Y-45035947D01*
X123552712Y-45306548D01*
X123554159Y-45310480D01*
X123692540Y-45572942D01*
X123864418Y-45814797D01*
X124066772Y-46031796D01*
X124296048Y-46220125D01*
X124548218Y-46376477D01*
X124818852Y-46498105D01*
X124991520Y-46549580D01*
X125099195Y-46581679D01*
X125099197Y-46581679D01*
X125103194Y-46582871D01*
X125107314Y-46583524D01*
X125107316Y-46583524D01*
X125226236Y-46602359D01*
X125396249Y-46629286D01*
X125441276Y-46631331D01*
X125487627Y-46633436D01*
X125487646Y-46633436D01*
X125489046Y-46633500D01*
X125674394Y-46633500D01*
X125895186Y-46618835D01*
X126186040Y-46560188D01*
X126454966Y-46467590D01*
X126462619Y-46464955D01*
X126462620Y-46464954D01*
X126466583Y-46463590D01*
X126470326Y-46461716D01*
X126470330Y-46461714D01*
X126728142Y-46332611D01*
X126728144Y-46332610D01*
X126731886Y-46330736D01*
X126885518Y-46226328D01*
X126973829Y-46166312D01*
X126973832Y-46166310D01*
X126977288Y-46163961D01*
X127198476Y-45966196D01*
X127391566Y-45740914D01*
X127498051Y-45576942D01*
X127550893Y-45495572D01*
X127550895Y-45495569D01*
X127553165Y-45492073D01*
X127680434Y-45224046D01*
X127681714Y-45220060D01*
X127769856Y-44945530D01*
X127769857Y-44945524D01*
X127771136Y-44941542D01*
X127798104Y-44791661D01*
X127822939Y-44653632D01*
X127822940Y-44653627D01*
X127823678Y-44649523D01*
X127824421Y-44633174D01*
X127832699Y-44450880D01*
X128189122Y-44450880D01*
X128189485Y-44455028D01*
X128189485Y-44455032D01*
X128214617Y-44742293D01*
X128214618Y-44742301D01*
X128214982Y-44746459D01*
X128215896Y-44750548D01*
X128263723Y-44964511D01*
X128279707Y-45036021D01*
X128281149Y-45039941D01*
X128281151Y-45039947D01*
X128380687Y-45310480D01*
X128382159Y-45314480D01*
X128520540Y-45576942D01*
X128692418Y-45818797D01*
X128894772Y-46035796D01*
X129124048Y-46224125D01*
X129376218Y-46380477D01*
X129646852Y-46502105D01*
X129819520Y-46553580D01*
X129927195Y-46585679D01*
X129927197Y-46585679D01*
X129931194Y-46586871D01*
X129935314Y-46587524D01*
X129935316Y-46587524D01*
X130054236Y-46606359D01*
X130224249Y-46633286D01*
X130269276Y-46635331D01*
X130315627Y-46637436D01*
X130315646Y-46637436D01*
X130317046Y-46637500D01*
X130502394Y-46637500D01*
X130723186Y-46622835D01*
X131014040Y-46564188D01*
X131294583Y-46467590D01*
X131298326Y-46465716D01*
X131298330Y-46465714D01*
X131556142Y-46336611D01*
X131556144Y-46336610D01*
X131559886Y-46334736D01*
X131722645Y-46224125D01*
X131801829Y-46170312D01*
X131801832Y-46170310D01*
X131805288Y-46167961D01*
X132026476Y-45970196D01*
X132029905Y-45966196D01*
X132216848Y-45748085D01*
X132219566Y-45744914D01*
X132222164Y-45740914D01*
X132378893Y-45499572D01*
X132378895Y-45499569D01*
X132381165Y-45496073D01*
X132383065Y-45492073D01*
X132429759Y-45393734D01*
X132508434Y-45228046D01*
X132561088Y-45064049D01*
X132597856Y-44949530D01*
X132597857Y-44949524D01*
X132599136Y-44945542D01*
X132634221Y-44750548D01*
X132650939Y-44657632D01*
X132650940Y-44657627D01*
X132651678Y-44653523D01*
X132652050Y-44645349D01*
X132664949Y-44361290D01*
X132664949Y-44361285D01*
X132665138Y-44357120D01*
X132661647Y-44317219D01*
X132639643Y-44065707D01*
X132639642Y-44065699D01*
X132639278Y-44061541D01*
X132574553Y-43771979D01*
X132573082Y-43767979D01*
X132473548Y-43497452D01*
X132473546Y-43497448D01*
X132472101Y-43493520D01*
X132470077Y-43489680D01*
X132335673Y-43234762D01*
X132335672Y-43234761D01*
X132333720Y-43231058D01*
X132161842Y-42989203D01*
X131959488Y-42772204D01*
X131730212Y-42583875D01*
X131478042Y-42427523D01*
X131207408Y-42305895D01*
X131004203Y-42245317D01*
X130927065Y-42222321D01*
X130927063Y-42222321D01*
X130923066Y-42221129D01*
X130918946Y-42220476D01*
X130918944Y-42220476D01*
X130800024Y-42201641D01*
X130630011Y-42174714D01*
X130584984Y-42172669D01*
X130538633Y-42170564D01*
X130538614Y-42170564D01*
X130537214Y-42170500D01*
X130351866Y-42170500D01*
X130131074Y-42185165D01*
X129840220Y-42243812D01*
X129666550Y-42303611D01*
X129565846Y-42338286D01*
X129559677Y-42340410D01*
X129555934Y-42342284D01*
X129555930Y-42342286D01*
X129306256Y-42467314D01*
X129294374Y-42473264D01*
X129290909Y-42475619D01*
X129054858Y-42636039D01*
X129048972Y-42640039D01*
X128827784Y-42837804D01*
X128634694Y-43063086D01*
X128632420Y-43066588D01*
X128632419Y-43066589D01*
X128475693Y-43307927D01*
X128473095Y-43311927D01*
X128471307Y-43315693D01*
X128471304Y-43315698D01*
X128468139Y-43322364D01*
X128345826Y-43579954D01*
X128344547Y-43583937D01*
X128344546Y-43583940D01*
X128257689Y-43854470D01*
X128255124Y-43862458D01*
X128240594Y-43943214D01*
X128206638Y-44131936D01*
X128202582Y-44154477D01*
X128202393Y-44158644D01*
X128202392Y-44158651D01*
X128189311Y-44446710D01*
X128189122Y-44450880D01*
X127832699Y-44450880D01*
X127836949Y-44357290D01*
X127836949Y-44357285D01*
X127837138Y-44353120D01*
X127833997Y-44317219D01*
X127811643Y-44061707D01*
X127811642Y-44061699D01*
X127811278Y-44057541D01*
X127746553Y-43767979D01*
X127742890Y-43758021D01*
X127645548Y-43493452D01*
X127645546Y-43493448D01*
X127644101Y-43489520D01*
X127630020Y-43462812D01*
X127507673Y-43230762D01*
X127507672Y-43230761D01*
X127505720Y-43227058D01*
X127333842Y-42985203D01*
X127131488Y-42768204D01*
X126902212Y-42579875D01*
X126650042Y-42423523D01*
X126379408Y-42301895D01*
X126176227Y-42241324D01*
X126099065Y-42218321D01*
X126099063Y-42218321D01*
X126095066Y-42217129D01*
X126090946Y-42216476D01*
X126090944Y-42216476D01*
X125898473Y-42185992D01*
X125802011Y-42170714D01*
X125756984Y-42168669D01*
X125710633Y-42166564D01*
X125710614Y-42166564D01*
X125709214Y-42166500D01*
X125523866Y-42166500D01*
X125303074Y-42181165D01*
X125012220Y-42239812D01*
X124731677Y-42336410D01*
X124727934Y-42338284D01*
X124727930Y-42338286D01*
X124545321Y-42429730D01*
X124466374Y-42469264D01*
X124407626Y-42509189D01*
X124300971Y-42581672D01*
X124220972Y-42636039D01*
X123999784Y-42833804D01*
X123997067Y-42836974D01*
X123997066Y-42836975D01*
X123993638Y-42840975D01*
X123806694Y-43059086D01*
X123804420Y-43062588D01*
X123804419Y-43062589D01*
X123699828Y-43223646D01*
X123645095Y-43307927D01*
X123643307Y-43311693D01*
X123643304Y-43311698D01*
X123616958Y-43367183D01*
X123517826Y-43575954D01*
X123516547Y-43579937D01*
X123516546Y-43579940D01*
X123434771Y-43834641D01*
X123427124Y-43858458D01*
X123426383Y-43862577D01*
X123391304Y-44057541D01*
X123374582Y-44150477D01*
X123374393Y-44154644D01*
X123374392Y-44154651D01*
X123361463Y-44439361D01*
X123361122Y-44446880D01*
X110031682Y-44446880D01*
X110116355Y-44350329D01*
X110140319Y-44313074D01*
X110256830Y-44131936D01*
X110259358Y-44128006D01*
X110367929Y-43886988D01*
X110439682Y-43632570D01*
X110457266Y-43494352D01*
X110472644Y-43373471D01*
X110472644Y-43373465D01*
X110473042Y-43370340D01*
X110475486Y-43277000D01*
X110471160Y-43218788D01*
X110456242Y-43018036D01*
X110456241Y-43018032D01*
X110455896Y-43013384D01*
X110397556Y-42755559D01*
X110382027Y-42715626D01*
X110303441Y-42513542D01*
X110303440Y-42513540D01*
X110301748Y-42509189D01*
X110275534Y-42463323D01*
X110202997Y-42336410D01*
X110170577Y-42279687D01*
X110006924Y-42072094D01*
X109814384Y-41890970D01*
X109777211Y-41865182D01*
X109601025Y-41742958D01*
X109601020Y-41742955D01*
X109597187Y-41740296D01*
X109592996Y-41738229D01*
X109364293Y-41625445D01*
X109364290Y-41625444D01*
X109360105Y-41623380D01*
X109303149Y-41605148D01*
X109112791Y-41544214D01*
X109112793Y-41544214D01*
X109108346Y-41542791D01*
X108939820Y-41515345D01*
X108852052Y-41501051D01*
X108852051Y-41501051D01*
X108847440Y-41500300D01*
X108715280Y-41498570D01*
X108587797Y-41496901D01*
X108587794Y-41496901D01*
X108583120Y-41496840D01*
X108321191Y-41532486D01*
X108316701Y-41533795D01*
X108316695Y-41533796D01*
X108208731Y-41565265D01*
X108067409Y-41606457D01*
X108063162Y-41608415D01*
X108063159Y-41608416D01*
X107972949Y-41650004D01*
X107827347Y-41717127D01*
X107823438Y-41719690D01*
X107610194Y-41859499D01*
X107610189Y-41859503D01*
X107606281Y-41862065D01*
X107409066Y-42038086D01*
X107240035Y-42241324D01*
X107102900Y-42467314D01*
X107101095Y-42471619D01*
X107101093Y-42471623D01*
X107030471Y-42640039D01*
X107000676Y-42711091D01*
X106999525Y-42715623D01*
X106999524Y-42715626D01*
X106988225Y-42760116D01*
X106935607Y-42967301D01*
X106909123Y-43230314D01*
X80012018Y-43230314D01*
X80011161Y-43218788D01*
X79996243Y-43018036D01*
X79996242Y-43018032D01*
X79995897Y-43013384D01*
X79937557Y-42755559D01*
X79922028Y-42715626D01*
X79843442Y-42513542D01*
X79843441Y-42513540D01*
X79841749Y-42509189D01*
X79815535Y-42463323D01*
X79742998Y-42336410D01*
X79710578Y-42279687D01*
X79546925Y-42072094D01*
X79354385Y-41890970D01*
X79317212Y-41865182D01*
X79141026Y-41742958D01*
X79141021Y-41742955D01*
X79137188Y-41740296D01*
X79132997Y-41738229D01*
X78904294Y-41625445D01*
X78904291Y-41625444D01*
X78900106Y-41623380D01*
X78843150Y-41605148D01*
X78652792Y-41544214D01*
X78652794Y-41544214D01*
X78648347Y-41542791D01*
X78479821Y-41515345D01*
X78392053Y-41501051D01*
X78392052Y-41501051D01*
X78387441Y-41500300D01*
X78255281Y-41498570D01*
X78127798Y-41496901D01*
X78127795Y-41496901D01*
X78123121Y-41496840D01*
X77861192Y-41532486D01*
X77856702Y-41533795D01*
X77856696Y-41533796D01*
X77748732Y-41565265D01*
X77607410Y-41606457D01*
X77603163Y-41608415D01*
X77603160Y-41608416D01*
X77512950Y-41650004D01*
X77367348Y-41717127D01*
X77363439Y-41719690D01*
X77150195Y-41859499D01*
X77150190Y-41859503D01*
X77146282Y-41862065D01*
X76949067Y-42038086D01*
X76780036Y-42241324D01*
X76642901Y-42467314D01*
X76641096Y-42471619D01*
X76641094Y-42471623D01*
X76570472Y-42640039D01*
X76540677Y-42711091D01*
X76539526Y-42715623D01*
X76539525Y-42715626D01*
X76528226Y-42760116D01*
X76475608Y-42967301D01*
X76449124Y-43230314D01*
X73682188Y-43230314D01*
X73649576Y-43217138D01*
X73645301Y-43216072D01*
X73381293Y-43150247D01*
X73381288Y-43150246D01*
X73377024Y-43149183D01*
X73372656Y-43148724D01*
X73372651Y-43148723D01*
X73102036Y-43120281D01*
X73102033Y-43120281D01*
X73097667Y-43119822D01*
X73093279Y-43119975D01*
X73093273Y-43119975D01*
X72821339Y-43129471D01*
X72821333Y-43129472D01*
X72816942Y-43129625D01*
X72812619Y-43130387D01*
X72812612Y-43130388D01*
X72636906Y-43161370D01*
X72540313Y-43178402D01*
X72273165Y-43265203D01*
X72269212Y-43267131D01*
X72269207Y-43267133D01*
X72177367Y-43311927D01*
X72020698Y-43388340D01*
X72017059Y-43390795D01*
X72017053Y-43390798D01*
X71913551Y-43460611D01*
X71787824Y-43545415D01*
X71579078Y-43733371D01*
X71398521Y-43948550D01*
X71249669Y-44186764D01*
X71135418Y-44443375D01*
X71057993Y-44713390D01*
X71057382Y-44717740D01*
X71057381Y-44717743D01*
X71053345Y-44746459D01*
X71018900Y-44991552D01*
X71018900Y-47302146D01*
X55370630Y-47302146D01*
X55370630Y-41536250D01*
X55372376Y-41515345D01*
X55374900Y-41500344D01*
X55374900Y-41500341D01*
X55375706Y-41495552D01*
X55375859Y-41483000D01*
X55374287Y-41472021D01*
X55373336Y-41445172D01*
X55385494Y-41275177D01*
X55388052Y-41257383D01*
X55430426Y-41062592D01*
X55435491Y-41045342D01*
X55460749Y-40977624D01*
X55505159Y-40858556D01*
X55512626Y-40842208D01*
X55536405Y-40798662D01*
X55608160Y-40667255D01*
X55617878Y-40652132D01*
X55628213Y-40638327D01*
X55737347Y-40492543D01*
X55749119Y-40478958D01*
X55890077Y-40338002D01*
X55903664Y-40326229D01*
X56063250Y-40206767D01*
X56078374Y-40197048D01*
X56253333Y-40101515D01*
X56269686Y-40094047D01*
X56456461Y-40024386D01*
X56473708Y-40019322D01*
X56668505Y-39976949D01*
X56686298Y-39974391D01*
X56852856Y-39962481D01*
X56870204Y-39963202D01*
X56878973Y-39963309D01*
X56887846Y-39964691D01*
X56919418Y-39960563D01*
X56935753Y-39959500D01*
X132028761Y-39959500D01*
X132048148Y-39961001D01*
G37*
G04 #@! TD.AperFunction*
M02*
