M48
; DRILL file {KiCad (6.0.7)} date Sat Nov 19 15:20:37 2022
; FORMAT={-:-/ absolute / metric / decimal}
; #@! TF.CreationDate,2022-11-19T15:20:37-06:00
; #@! TF.GenerationSoftware,Kicad,Pcbnew,(6.0.7)
; #@! TF.FileFunction,Plated,1,2,PTH
FMAT,2
METRIC
; #@! TA.AperFunction,Plated,PTH,ViaDrill
T1C0.400
; #@! TA.AperFunction,Plated,PTH,ComponentDrill
T2C0.700
; #@! TA.AperFunction,Plated,PTH,ComponentDrill
T3C0.750
; #@! TA.AperFunction,Plated,PTH,ComponentDrill
T4C0.800
; #@! TA.AperFunction,Plated,PTH,ComponentDrill
T5C0.900
; #@! TA.AperFunction,Plated,PTH,ComponentDrill
T6C1.020
; #@! TA.AperFunction,Plated,PTH,ComponentDrill
T7C1.270
; #@! TA.AperFunction,Plated,PTH,ComponentDrill
T8C1.600
; #@! TA.AperFunction,Plated,PTH,ComponentDrill
T9C2.000
; #@! TA.AperFunction,Plated,PTH,ComponentDrill
T10C3.250
%
G90
G05
T1
X110.744Y-67.564
T2
X101.629Y-91.48
X101.629Y-93.48
X101.629Y-95.48
X103.628Y-91.48
X103.628Y-93.48
X103.628Y-95.48
T3
X100.088Y-85.739
X102.628Y-85.739
X105.168Y-85.739
X107.709Y-85.739
X110.248Y-85.739
T4
X58.178Y-82.689
X58.178Y-97.929
X60.718Y-82.689
X60.718Y-97.929
X63.258Y-82.689
X63.258Y-97.929
X65.798Y-82.689
X65.798Y-97.929
X68.338Y-82.689
X68.338Y-97.929
X70.879Y-82.689
X70.879Y-85.23
X70.879Y-87.769
X70.879Y-90.309
X70.879Y-92.849
X70.879Y-95.389
X70.879Y-97.929
X73.418Y-82.689
X73.418Y-97.929
X75.959Y-82.689
X75.959Y-97.929
X78.498Y-82.689
X78.498Y-97.929
X80.704Y-64.963
X80.704Y-66.963
X80.704Y-68.963
X81.038Y-82.689
X81.038Y-97.929
X82.704Y-64.963
X82.704Y-66.963
X82.704Y-68.963
X83.578Y-82.689
X83.578Y-97.929
X86.118Y-82.689
X86.118Y-97.929
X88.658Y-82.689
X88.658Y-97.929
X91.198Y-82.689
X91.198Y-97.929
X93.739Y-82.689
X93.739Y-97.929
X96.278Y-82.689
X96.278Y-97.929
X98.819Y-82.689
X98.819Y-97.929
X101.358Y-82.689
X101.358Y-97.929
X103.898Y-82.689
X103.898Y-97.929
X106.438Y-82.689
X106.438Y-97.929
X108.978Y-82.689
X108.978Y-97.929
X111.518Y-82.689
X111.518Y-97.929
X114.058Y-82.689
X114.058Y-95.389
X114.058Y-97.929
X116.599Y-82.689
X116.599Y-97.929
T5
X75.043Y-66.379
X75.043Y-68.919
X75.043Y-71.459
X75.043Y-73.999
X77.583Y-67.649
X77.583Y-70.189
X77.583Y-72.729
X77.583Y-75.269
X126.744Y-53.04
X129.284Y-53.04
T6
X63.613Y-64.499
X63.613Y-74.609
X65.403Y-67.039
X65.403Y-77.149
T7
X78.232Y-43.277
X88.392Y-43.277
X98.552Y-43.277
X108.692Y-43.277
T8
X71.743Y-62.949
X71.743Y-78.699
T10
X68.693Y-65.109
X68.693Y-76.539
T9
X73.027Y-45.132G85X73.027Y-47.232
G05
X73.027Y-53.006G85X73.027Y-55.106
G05
X109.494Y-57.679G85X107.394Y-57.679
G05
X117.368Y-57.679G85X115.268Y-57.679
G05
T0
M30
