%TF.GenerationSoftware,KiCad,Pcbnew,(5.1.6)-1*%
%TF.CreationDate,2022-03-14T17:12:02-05:00*%
%TF.ProjectId,2022 Multimedia Rev1,32303232-204d-4756-9c74-696d65646961,rev?*%
%TF.SameCoordinates,Original*%
%TF.FileFunction,Copper,L2,Bot*%
%TF.FilePolarity,Positive*%
%FSLAX46Y46*%
G04 Gerber Fmt 4.6, Leading zero omitted, Abs format (unit mm)*
G04 Created by KiCad (PCBNEW (5.1.6)-1) date 2022-03-14 17:12:02*
%MOMM*%
%LPD*%
G01*
G04 APERTURE LIST*
%TA.AperFunction,ComponentPad*%
%ADD10O,5.100000X3.000000*%
%TD*%
%TA.AperFunction,ComponentPad*%
%ADD11O,3.000000X5.100000*%
%TD*%
%TA.AperFunction,ComponentPad*%
%ADD12C,1.524000*%
%TD*%
%TA.AperFunction,ComponentPad*%
%ADD13C,3.073400*%
%TD*%
%TA.AperFunction,SMDPad,CuDef*%
%ADD14R,0.990600X1.778000*%
%TD*%
%TA.AperFunction,ComponentPad*%
%ADD15C,3.000000*%
%TD*%
%TA.AperFunction,ComponentPad*%
%ADD16R,1.358000X1.358000*%
%TD*%
%TA.AperFunction,ComponentPad*%
%ADD17C,1.358000*%
%TD*%
%TA.AperFunction,ViaPad*%
%ADD18C,0.800000*%
%TD*%
%TA.AperFunction,Conductor*%
%ADD19C,1.016000*%
%TD*%
%TA.AperFunction,Conductor*%
%ADD20C,0.254000*%
%TD*%
G04 APERTURE END LIST*
D10*
%TO.P,Conn4,1*%
%TO.N,GND*%
X160528000Y-50800000D03*
%TO.P,Conn4,2*%
%TO.N,+5V*%
X152654000Y-50800000D03*
%TD*%
D11*
%TO.P,Conn1,3*%
%TO.N,+12VA*%
X130302000Y-79744000D03*
%TO.P,Conn1,1*%
%TO.N,GND*%
X130279000Y-95492000D03*
%TO.P,Conn1,2*%
%TO.N,+12L*%
X130302000Y-87630000D03*
%TD*%
D12*
%TO.P,Data,1*%
%TO.N,AutopanelNeoPixel*%
X169926000Y-40513000D03*
%TO.P,Data,2*%
%TO.N,GND*%
X172974000Y-40513000D03*
D13*
%TO.P,Data,*%
%TO.N,*%
X171450000Y-36195000D03*
%TD*%
D14*
%TO.P,U4,PP2*%
%TO.N,Net-(U4-PadPP2)*%
X136398000Y-64617600D03*
%TO.P,U4,PN3*%
%TO.N,Net-(U4-PadPN3)*%
X133858000Y-64617600D03*
%TO.P,U4,PN2*%
%TO.N,Net-(U4-PadPN2)*%
X131318000Y-64617600D03*
%TO.P,U4,PD0*%
%TO.N,Net-(U4-PadPD0)*%
X128778000Y-64617600D03*
%TO.P,U4,PD1*%
%TO.N,Net-(U4-PadPD1)*%
X126238000Y-64617600D03*
%TO.P,U4,Rese*%
%TO.N,Net-(U4-PadRese)*%
X123698000Y-64617600D03*
%TO.P,U4,PH3*%
%TO.N,Net-(U4-PadPH3)*%
X121158000Y-64617600D03*
%TO.P,U4,PH2*%
%TO.N,Net-(U4-PadPH2)*%
X118618000Y-64617600D03*
%TO.P,U4,PM3*%
%TO.N,Net-(U4-PadPM3)*%
X116078000Y-64617600D03*
%TO.P,U4,GND*%
%TO.N,GND*%
X113538000Y-64617600D03*
%TO.P,U4,PL3*%
%TO.N,Net-(U4-PadPL3)*%
X136398000Y-70510400D03*
%TO.P,U4,PL2*%
%TO.N,Net-(U4-PadPL2)*%
X133858000Y-70510400D03*
%TO.P,U4,PL1*%
%TO.N,Net-(U4-PadPL1)*%
X131318000Y-70510400D03*
%TO.P,U4,PL0*%
%TO.N,Net-(U4-PadPL0)*%
X128778000Y-70510400D03*
%TO.P,U4,PL5*%
%TO.N,Net-(U4-PadPL5)*%
X126238000Y-70510400D03*
%TO.P,U4,PL4*%
%TO.N,Net-(U4-PadPL4)*%
X123698000Y-70510400D03*
%TO.P,U4,PG0*%
%TO.N,Net-(U4-PadPG0)*%
X121158000Y-70510400D03*
%TO.P,U4,PF3*%
%TO.N,Net-(U4-PadPF3)*%
X118618000Y-70510400D03*
%TO.P,U4,PF2*%
%TO.N,Net-(U4-PadPF2)*%
X116078000Y-70510400D03*
%TO.P,U4,PF1*%
%TO.N,AutopanelNeoPixel*%
X113538000Y-70510400D03*
%TO.P,U4,PB3*%
%TO.N,Net-(U4-PadPB3)*%
X136398000Y-113690400D03*
%TO.P,U4,PB2*%
%TO.N,Net-(U4-PadPB2)*%
X133858000Y-113690400D03*
%TO.P,U4,PC7*%
%TO.N,Net-(U4-PadPC7)*%
X131318000Y-113690400D03*
%TO.P,U4,PD3*%
%TO.N,Net-(U4-PadPD3)*%
X128778000Y-113690400D03*
%TO.P,U4,PE5*%
%TO.N,Net-(U4-PadPE5)*%
X126238000Y-113690400D03*
%TO.P,U4,PC6*%
%TO.N,Net-(U4-PadPC6)*%
X123698000Y-113690400D03*
%TO.P,U4,PC5*%
%TO.N,Net-(U4-PadPC5)*%
X121158000Y-113690400D03*
%TO.P,U4,PC4*%
%TO.N,Net-(U4-PadPC4)*%
X118618000Y-113690400D03*
%TO.P,U4,PE4*%
%TO.N,Net-(U4-PadPE4)*%
X116078000Y-113690400D03*
%TO.P,U4,+3V3*%
%TO.N,+3V3*%
X113538000Y-113690400D03*
%TO.P,U4,PM5*%
%TO.N,Net-(U4-PadPM5)*%
X136398000Y-107797600D03*
%TO.P,U4,PM4*%
%TO.N,Net-(U4-PadPM4)*%
X133858000Y-107797600D03*
%TO.P,U4,PA6*%
%TO.N,Net-(U4-PadPA6)*%
X131318000Y-107797600D03*
%TO.P,U4,PD7*%
%TO.N,Net-(U4-PadPD7)*%
X128778000Y-107797600D03*
%TO.P,U4,PE3*%
%TO.N,HeadlightToggle*%
X126238000Y-107797600D03*
%TO.P,U4,PE2*%
%TO.N,Net-(U4-PadPE2)*%
X123698000Y-107797600D03*
%TO.P,U4,PE1*%
%TO.N,Net-(U4-PadPE1)*%
X121158000Y-107797600D03*
%TO.P,U4,PE0*%
%TO.N,Net-(U4-PadPE0)*%
X118618000Y-107797600D03*
%TO.P,U4,GND*%
%TO.N,GND*%
X116078000Y-107797600D03*
%TO.P,U4,+5V*%
%TO.N,Net-(U4-Pad+5V)*%
X113538000Y-107797600D03*
%TO.P,U4,PP5*%
%TO.N,Net-(U4-PadPP5)*%
X182118000Y-64617600D03*
%TO.P,U4,PM7*%
%TO.N,Net-(U4-PadPM7)*%
X179578000Y-64617600D03*
%TO.P,U4,GND*%
%TO.N,GND*%
X177038000Y-64617600D03*
%TO.P,U4,PK7*%
%TO.N,Net-(U4-PadPK7)*%
X199898000Y-70510400D03*
%TO.P,U4,PK6*%
%TO.N,Net-(U4-PadPK6)*%
X197358000Y-70510400D03*
%TO.P,U4,PH1*%
%TO.N,Net-(U4-PadPH1)*%
X194818000Y-70510400D03*
%TO.P,U4,PH0*%
%TO.N,Net-(U4-PadPH0)*%
X192278000Y-70510400D03*
%TO.P,U4,PM2*%
%TO.N,Net-(U4-PadPM2)*%
X189738000Y-70510400D03*
%TO.P,U4,PM1*%
%TO.N,Net-(U4-PadPM1)*%
X187198000Y-70510400D03*
%TO.P,U4,PM0*%
%TO.N,Net-(U4-PadPM0)*%
X184658000Y-70510400D03*
%TO.P,U4,PK5*%
%TO.N,Net-(U4-PadPK5)*%
X182118000Y-70510400D03*
%TO.P,U4,PK4*%
%TO.N,Net-(U4-PadPK4)*%
X179578000Y-70510400D03*
%TO.P,U4,PG1*%
%TO.N,Net-(U4-PadPG1)*%
X177038000Y-70510400D03*
%TO.P,U4,PN4*%
%TO.N,Net-(U4-PadPN4)*%
X199898000Y-113690400D03*
%TO.P,U4,PP4*%
%TO.N,Net-(U4-PadPP4)*%
X194818000Y-113690400D03*
%TO.P,U4,PD5*%
%TO.N,Net-(U4-PadPD5)*%
X189738000Y-113690400D03*
%TO.P,U4,PD4*%
%TO.N,Net-(U4-PadPD4)*%
X187198000Y-113690400D03*
%TO.P,U4,PP1*%
%TO.N,Net-(U4-PadPP1)*%
X184658000Y-113690400D03*
%TO.P,U4,PP0*%
%TO.N,Net-(U4-PadPP0)*%
X182118000Y-113690400D03*
%TO.P,U4,PD2*%
%TO.N,Net-(U4-PadPD2)*%
X179578000Y-113690400D03*
%TO.P,U4,PA5*%
%TO.N,Net-(U4-PadPA5)*%
X199898000Y-107797600D03*
%TO.P,U4,PK3*%
%TO.N,Net-(U4-PadPK3)*%
X194818000Y-107797600D03*
%TO.P,U4,PB5*%
%TO.N,Net-(U4-PadPB5)*%
X184658000Y-107797600D03*
%TO.P,U4,PB4*%
%TO.N,Net-(U4-PadPB4)*%
X182118000Y-107797600D03*
%TO.P,U4,GND*%
%TO.N,GND*%
X179578000Y-107797600D03*
%TO.P,U4,+5V'*%
%TO.N,Net-(U4-Pad+5V')*%
X177038000Y-107797600D03*
%TO.P,U4,PK1*%
%TO.N,Net-(U4-PadPK1)*%
X189738000Y-107797600D03*
%TO.P,U4,PK2*%
%TO.N,Net-(U4-PadPK2)*%
X192278000Y-107797600D03*
%TO.P,U4,PN5*%
%TO.N,Net-(U4-PadPN5)*%
X197358000Y-113690400D03*
%TO.P,U4,PA7*%
%TO.N,Net-(U4-PadPA7)*%
X184658000Y-64617600D03*
%TO.P,U4,Rese'*%
%TO.N,Net-(U4-PadRese')*%
X187198000Y-64617600D03*
%TO.P,U4,PA4*%
%TO.N,Net-(U4-PadPA4)*%
X197358000Y-107797600D03*
%TO.P,U4,PQ0*%
%TO.N,Net-(U4-PadPQ0)*%
X192278000Y-113690400D03*
%TO.P,U4,PP3*%
%TO.N,Net-(U4-PadPP3)*%
X194818000Y-64617600D03*
%TO.P,U4,PQ3*%
%TO.N,Net-(U4-PadPQ3)*%
X192278000Y-64617600D03*
%TO.P,U4,PK0*%
%TO.N,Net-(U4-PadPK0)*%
X187198000Y-107797600D03*
%TO.P,U4,PQ2*%
%TO.N,Net-(U4-PadPQ2)*%
X189738000Y-64617600D03*
%TO.P,U4,PQ1*%
%TO.N,Net-(U4-PadPQ1)*%
X197358000Y-64617600D03*
%TO.P,U4,PM6*%
%TO.N,Net-(U4-PadPM6)*%
X199898000Y-64617600D03*
%TO.P,U4,+3V3'*%
%TO.N,+3V3*%
X177038000Y-113690400D03*
%TD*%
D15*
%TO.P,U2,1*%
%TO.N,+12VA*%
X149606000Y-95504000D03*
%TO.P,U2,4*%
%TO.N,+5V*%
X169164000Y-95567500D03*
%TO.P,U2,3*%
%TO.N,GND*%
X162941000Y-95504000D03*
%TO.P,U2,2*%
X155829000Y-95504000D03*
%TD*%
D16*
%TO.P,U1,1*%
%TO.N,+12L*%
X156972000Y-105156000D03*
D17*
%TO.P,U1,2*%
%TO.N,GND*%
X159512000Y-105156000D03*
%TO.P,U1,3*%
%TO.N,+3V3*%
X162052000Y-105156000D03*
%TD*%
D10*
%TO.P,Conn3,1*%
%TO.N,GND*%
X142960000Y-50800000D03*
%TO.P,Conn3,2*%
%TO.N,Net-(C10-Pad1)*%
X135086000Y-50800000D03*
%TD*%
%TO.P,Conn2,1*%
%TO.N,GND*%
X125222000Y-50927000D03*
%TO.P,Conn2,2*%
%TO.N,+12VA*%
X117348000Y-50927000D03*
%TD*%
D18*
%TO.N,GND*%
X115570000Y-81280000D03*
X118110000Y-81280000D03*
X120650000Y-81280000D03*
X123190000Y-81280000D03*
X121920000Y-80010000D03*
X119380000Y-80010000D03*
X116840000Y-80010000D03*
X115570000Y-78740000D03*
X118110000Y-78740000D03*
X120650000Y-78740000D03*
X123190000Y-78740000D03*
X116840000Y-77470000D03*
X119380000Y-77470000D03*
X121920000Y-77470000D03*
X123190000Y-76200000D03*
X120650000Y-76200000D03*
X118110000Y-76200000D03*
X115570000Y-76200000D03*
X113030000Y-66675000D03*
%TO.N,+3V3*%
X167132000Y-113792000D03*
%TO.N,AutopanelNeoPixel*%
X112903000Y-60833000D03*
%TO.N,HeadlightToggle*%
X128016000Y-61976000D03*
X124460000Y-72898000D03*
X124460000Y-83566000D03*
X124460000Y-87503000D03*
X126111000Y-105918000D03*
%TD*%
D19*
%TO.N,+3V3*%
X176936400Y-113792000D02*
X177038000Y-113690400D01*
X167132000Y-113792000D02*
X176936400Y-113792000D01*
X167132000Y-113792000D02*
X140716000Y-113792000D01*
X140716000Y-113792000D02*
X137668000Y-110744000D01*
X137668000Y-110744000D02*
X115316000Y-110744000D01*
X113538000Y-112522000D02*
X113538000Y-113690400D01*
X115316000Y-110744000D02*
X113538000Y-112522000D01*
D20*
%TO.N,AutopanelNeoPixel*%
X113538000Y-70510400D02*
X113538000Y-68326000D01*
X113538000Y-68326000D02*
X114808000Y-67056000D01*
X114808000Y-67056000D02*
X114808000Y-62738000D01*
X114808000Y-62738000D02*
X112903000Y-60833000D01*
%TO.N,HeadlightToggle*%
X128016000Y-61976000D02*
X127381000Y-62611000D01*
X127381000Y-62611000D02*
X127381000Y-70866000D01*
X127381000Y-70866000D02*
X127381000Y-71340302D01*
X127381000Y-71340302D02*
X127381000Y-72263000D01*
X127381000Y-72263000D02*
X127381000Y-72644000D01*
X127381000Y-72644000D02*
X127127000Y-72898000D01*
X127127000Y-72898000D02*
X124460000Y-72898000D01*
X124460000Y-83566000D02*
X124460000Y-87503000D01*
X126111000Y-107670600D02*
X126238000Y-107797600D01*
X126111000Y-105918000D02*
X126111000Y-107670600D01*
%TD*%
%TO.N,GND*%
G36*
X196069700Y-33501133D02*
G01*
X198582508Y-33725395D01*
X201077584Y-34098288D01*
X203546175Y-34618501D01*
X205979555Y-35284199D01*
X208369186Y-36093044D01*
X210706636Y-37042184D01*
X212983662Y-38128270D01*
X215192289Y-39347497D01*
X217324722Y-40695564D01*
X219373438Y-42167717D01*
X221331245Y-43758781D01*
X223191259Y-45463171D01*
X224946897Y-47274848D01*
X226592030Y-49187492D01*
X228120810Y-51194302D01*
X229527891Y-53288261D01*
X230808308Y-55461979D01*
X231957556Y-57707807D01*
X232971587Y-60017833D01*
X233846838Y-62383946D01*
X234580222Y-64797797D01*
X235169157Y-67250886D01*
X235611570Y-69734581D01*
X235905909Y-72240164D01*
X236051430Y-74763960D01*
X236068000Y-75950632D01*
X236068001Y-90899711D01*
X236038766Y-91197876D01*
X235961551Y-91453624D01*
X235836131Y-91689504D01*
X235667289Y-91896525D01*
X235461446Y-92066813D01*
X235226444Y-92193879D01*
X234971240Y-92272877D01*
X234675118Y-92304000D01*
X218980419Y-92304000D01*
X218948000Y-92300807D01*
X218915581Y-92304000D01*
X218818617Y-92313550D01*
X218694207Y-92351290D01*
X218579550Y-92412575D01*
X218479052Y-92495052D01*
X218396575Y-92595550D01*
X218335290Y-92710207D01*
X218297550Y-92834617D01*
X218284807Y-92964000D01*
X218288001Y-92996429D01*
X218288000Y-113759581D01*
X218284807Y-113792000D01*
X218297550Y-113921383D01*
X218335290Y-114045793D01*
X218396575Y-114160450D01*
X218477645Y-114259233D01*
X218479052Y-114260948D01*
X218579550Y-114343425D01*
X218694207Y-114404710D01*
X218818617Y-114442450D01*
X218948000Y-114455193D01*
X218980419Y-114452000D01*
X234663721Y-114452000D01*
X234961875Y-114481234D01*
X235217622Y-114558448D01*
X235453504Y-114683869D01*
X235660530Y-114852716D01*
X235830813Y-115058554D01*
X235957879Y-115293556D01*
X236036876Y-115548756D01*
X236068001Y-115844891D01*
X236068000Y-123379339D01*
X235727946Y-123487211D01*
X235672974Y-123510772D01*
X235617659Y-123533571D01*
X235609553Y-123537954D01*
X235262030Y-123729006D01*
X235212674Y-123762801D01*
X235162847Y-123795906D01*
X235155747Y-123801780D01*
X234851951Y-124056695D01*
X234810105Y-124099428D01*
X234767653Y-124141584D01*
X234761829Y-124148725D01*
X234513332Y-124457794D01*
X234480606Y-124507805D01*
X234447127Y-124557439D01*
X234442801Y-124565576D01*
X234259068Y-124917022D01*
X234236656Y-124972494D01*
X234213478Y-125027632D01*
X234210815Y-125036454D01*
X234098845Y-125416896D01*
X234087645Y-125475612D01*
X234075607Y-125534254D01*
X234074708Y-125543425D01*
X234038766Y-125938370D01*
X234039184Y-125998186D01*
X234038766Y-126058003D01*
X234039665Y-126067174D01*
X234081118Y-126461577D01*
X234093148Y-126520183D01*
X234104355Y-126578935D01*
X234107019Y-126587757D01*
X234224290Y-126966599D01*
X234247474Y-127021750D01*
X234269880Y-127077208D01*
X234274206Y-127085345D01*
X234462828Y-127434193D01*
X234496283Y-127483792D01*
X234529032Y-127533838D01*
X234534855Y-127540977D01*
X234534858Y-127540981D01*
X234534862Y-127540985D01*
X234787644Y-127846547D01*
X234830061Y-127888669D01*
X234871943Y-127931438D01*
X234879044Y-127937311D01*
X235186369Y-128187960D01*
X235236178Y-128221052D01*
X235285550Y-128254859D01*
X235293656Y-128259241D01*
X235643813Y-128445423D01*
X235699105Y-128468212D01*
X235754101Y-128491784D01*
X235762905Y-128494509D01*
X236068001Y-128586623D01*
X236068000Y-136619721D01*
X236038766Y-136917876D01*
X235961551Y-137173624D01*
X235836131Y-137409504D01*
X235667289Y-137616525D01*
X235461446Y-137786813D01*
X235226444Y-137913879D01*
X234971240Y-137992877D01*
X234675118Y-138024000D01*
X114332279Y-138024000D01*
X114034124Y-137994766D01*
X113778376Y-137917551D01*
X113542496Y-137792131D01*
X113335475Y-137623289D01*
X113165187Y-137417446D01*
X113038121Y-137182444D01*
X112959123Y-136927240D01*
X112928000Y-136631118D01*
X112928000Y-128588661D01*
X113268055Y-128480789D01*
X113323040Y-128457222D01*
X113378341Y-128434429D01*
X113386447Y-128430046D01*
X113733970Y-128238994D01*
X113783327Y-128205199D01*
X113833153Y-128172094D01*
X113840254Y-128166220D01*
X114144049Y-127911305D01*
X114185912Y-127868555D01*
X114228347Y-127826416D01*
X114234171Y-127819274D01*
X114482668Y-127510206D01*
X114515415Y-127460164D01*
X114548873Y-127410561D01*
X114553199Y-127402425D01*
X114736932Y-127050978D01*
X114759337Y-126995523D01*
X114782522Y-126940368D01*
X114785185Y-126931546D01*
X114897155Y-126551104D01*
X114908355Y-126492388D01*
X114920393Y-126433746D01*
X114921292Y-126424575D01*
X114957234Y-126029630D01*
X114956816Y-125969814D01*
X114957234Y-125909997D01*
X114956334Y-125900826D01*
X114914882Y-125506422D01*
X114902855Y-125447829D01*
X114891645Y-125389065D01*
X114888981Y-125380243D01*
X114771710Y-125001401D01*
X114748526Y-124946250D01*
X114726120Y-124890792D01*
X114721794Y-124882655D01*
X114533172Y-124533807D01*
X114499717Y-124484208D01*
X114466968Y-124434162D01*
X114461144Y-124427021D01*
X114208356Y-124121453D01*
X114165923Y-124079315D01*
X114124057Y-124036562D01*
X114116962Y-124030694D01*
X114116957Y-124030689D01*
X114116952Y-124030685D01*
X113809631Y-123780041D01*
X113759838Y-123746959D01*
X113710449Y-123713141D01*
X113702343Y-123708759D01*
X113352187Y-123522577D01*
X113296867Y-123499776D01*
X113241899Y-123476216D01*
X113233099Y-123473492D01*
X113233093Y-123473490D01*
X112928000Y-123381378D01*
X112928000Y-115206175D01*
X113042700Y-115217472D01*
X114033300Y-115217472D01*
X114157782Y-115205212D01*
X114277480Y-115168902D01*
X114387794Y-115109937D01*
X114484485Y-115030585D01*
X114563837Y-114933894D01*
X114622802Y-114823580D01*
X114659112Y-114703882D01*
X114671372Y-114579400D01*
X114671372Y-113844299D01*
X114681000Y-113746546D01*
X114681000Y-112995445D01*
X114952230Y-112724216D01*
X114944628Y-112801400D01*
X114944628Y-114579400D01*
X114956888Y-114703882D01*
X114993198Y-114823580D01*
X115052163Y-114933894D01*
X115131515Y-115030585D01*
X115228206Y-115109937D01*
X115338520Y-115168902D01*
X115458218Y-115205212D01*
X115582700Y-115217472D01*
X116573300Y-115217472D01*
X116697782Y-115205212D01*
X116817480Y-115168902D01*
X116927794Y-115109937D01*
X117024485Y-115030585D01*
X117103837Y-114933894D01*
X117162802Y-114823580D01*
X117199112Y-114703882D01*
X117211372Y-114579400D01*
X117211372Y-112801400D01*
X117484628Y-112801400D01*
X117484628Y-114579400D01*
X117496888Y-114703882D01*
X117533198Y-114823580D01*
X117592163Y-114933894D01*
X117671515Y-115030585D01*
X117768206Y-115109937D01*
X117878520Y-115168902D01*
X117998218Y-115205212D01*
X118122700Y-115217472D01*
X119113300Y-115217472D01*
X119237782Y-115205212D01*
X119357480Y-115168902D01*
X119467794Y-115109937D01*
X119564485Y-115030585D01*
X119643837Y-114933894D01*
X119702802Y-114823580D01*
X119739112Y-114703882D01*
X119751372Y-114579400D01*
X119751372Y-112801400D01*
X120024628Y-112801400D01*
X120024628Y-114579400D01*
X120036888Y-114703882D01*
X120073198Y-114823580D01*
X120132163Y-114933894D01*
X120211515Y-115030585D01*
X120308206Y-115109937D01*
X120418520Y-115168902D01*
X120538218Y-115205212D01*
X120662700Y-115217472D01*
X121653300Y-115217472D01*
X121777782Y-115205212D01*
X121897480Y-115168902D01*
X122007794Y-115109937D01*
X122104485Y-115030585D01*
X122183837Y-114933894D01*
X122242802Y-114823580D01*
X122279112Y-114703882D01*
X122291372Y-114579400D01*
X122291372Y-112801400D01*
X122564628Y-112801400D01*
X122564628Y-114579400D01*
X122576888Y-114703882D01*
X122613198Y-114823580D01*
X122672163Y-114933894D01*
X122751515Y-115030585D01*
X122848206Y-115109937D01*
X122958520Y-115168902D01*
X123078218Y-115205212D01*
X123202700Y-115217472D01*
X124193300Y-115217472D01*
X124317782Y-115205212D01*
X124437480Y-115168902D01*
X124547794Y-115109937D01*
X124644485Y-115030585D01*
X124723837Y-114933894D01*
X124782802Y-114823580D01*
X124819112Y-114703882D01*
X124831372Y-114579400D01*
X124831372Y-112801400D01*
X125104628Y-112801400D01*
X125104628Y-114579400D01*
X125116888Y-114703882D01*
X125153198Y-114823580D01*
X125212163Y-114933894D01*
X125291515Y-115030585D01*
X125388206Y-115109937D01*
X125498520Y-115168902D01*
X125618218Y-115205212D01*
X125742700Y-115217472D01*
X126733300Y-115217472D01*
X126857782Y-115205212D01*
X126977480Y-115168902D01*
X127087794Y-115109937D01*
X127184485Y-115030585D01*
X127263837Y-114933894D01*
X127322802Y-114823580D01*
X127359112Y-114703882D01*
X127371372Y-114579400D01*
X127371372Y-112801400D01*
X127644628Y-112801400D01*
X127644628Y-114579400D01*
X127656888Y-114703882D01*
X127693198Y-114823580D01*
X127752163Y-114933894D01*
X127831515Y-115030585D01*
X127928206Y-115109937D01*
X128038520Y-115168902D01*
X128158218Y-115205212D01*
X128282700Y-115217472D01*
X129273300Y-115217472D01*
X129397782Y-115205212D01*
X129517480Y-115168902D01*
X129627794Y-115109937D01*
X129724485Y-115030585D01*
X129803837Y-114933894D01*
X129862802Y-114823580D01*
X129899112Y-114703882D01*
X129911372Y-114579400D01*
X129911372Y-112801400D01*
X130184628Y-112801400D01*
X130184628Y-114579400D01*
X130196888Y-114703882D01*
X130233198Y-114823580D01*
X130292163Y-114933894D01*
X130371515Y-115030585D01*
X130468206Y-115109937D01*
X130578520Y-115168902D01*
X130698218Y-115205212D01*
X130822700Y-115217472D01*
X131813300Y-115217472D01*
X131937782Y-115205212D01*
X132057480Y-115168902D01*
X132167794Y-115109937D01*
X132264485Y-115030585D01*
X132343837Y-114933894D01*
X132402802Y-114823580D01*
X132439112Y-114703882D01*
X132451372Y-114579400D01*
X132451372Y-112801400D01*
X132724628Y-112801400D01*
X132724628Y-114579400D01*
X132736888Y-114703882D01*
X132773198Y-114823580D01*
X132832163Y-114933894D01*
X132911515Y-115030585D01*
X133008206Y-115109937D01*
X133118520Y-115168902D01*
X133238218Y-115205212D01*
X133362700Y-115217472D01*
X134353300Y-115217472D01*
X134477782Y-115205212D01*
X134597480Y-115168902D01*
X134707794Y-115109937D01*
X134804485Y-115030585D01*
X134883837Y-114933894D01*
X134942802Y-114823580D01*
X134979112Y-114703882D01*
X134991372Y-114579400D01*
X134991372Y-112801400D01*
X135264628Y-112801400D01*
X135264628Y-114579400D01*
X135276888Y-114703882D01*
X135313198Y-114823580D01*
X135372163Y-114933894D01*
X135451515Y-115030585D01*
X135548206Y-115109937D01*
X135658520Y-115168902D01*
X135778218Y-115205212D01*
X135902700Y-115217472D01*
X136893300Y-115217472D01*
X137017782Y-115205212D01*
X137137480Y-115168902D01*
X137247794Y-115109937D01*
X137344485Y-115030585D01*
X137423837Y-114933894D01*
X137482802Y-114823580D01*
X137519112Y-114703882D01*
X137531372Y-114579400D01*
X137531372Y-112801400D01*
X137519112Y-112676918D01*
X137482802Y-112557220D01*
X137423837Y-112446906D01*
X137344485Y-112350215D01*
X137247794Y-112270863D01*
X137137480Y-112211898D01*
X137017782Y-112175588D01*
X136893300Y-112163328D01*
X135902700Y-112163328D01*
X135778218Y-112175588D01*
X135658520Y-112211898D01*
X135548206Y-112270863D01*
X135451515Y-112350215D01*
X135372163Y-112446906D01*
X135313198Y-112557220D01*
X135276888Y-112676918D01*
X135264628Y-112801400D01*
X134991372Y-112801400D01*
X134979112Y-112676918D01*
X134942802Y-112557220D01*
X134883837Y-112446906D01*
X134804485Y-112350215D01*
X134707794Y-112270863D01*
X134597480Y-112211898D01*
X134477782Y-112175588D01*
X134353300Y-112163328D01*
X133362700Y-112163328D01*
X133238218Y-112175588D01*
X133118520Y-112211898D01*
X133008206Y-112270863D01*
X132911515Y-112350215D01*
X132832163Y-112446906D01*
X132773198Y-112557220D01*
X132736888Y-112676918D01*
X132724628Y-112801400D01*
X132451372Y-112801400D01*
X132439112Y-112676918D01*
X132402802Y-112557220D01*
X132343837Y-112446906D01*
X132264485Y-112350215D01*
X132167794Y-112270863D01*
X132057480Y-112211898D01*
X131937782Y-112175588D01*
X131813300Y-112163328D01*
X130822700Y-112163328D01*
X130698218Y-112175588D01*
X130578520Y-112211898D01*
X130468206Y-112270863D01*
X130371515Y-112350215D01*
X130292163Y-112446906D01*
X130233198Y-112557220D01*
X130196888Y-112676918D01*
X130184628Y-112801400D01*
X129911372Y-112801400D01*
X129899112Y-112676918D01*
X129862802Y-112557220D01*
X129803837Y-112446906D01*
X129724485Y-112350215D01*
X129627794Y-112270863D01*
X129517480Y-112211898D01*
X129397782Y-112175588D01*
X129273300Y-112163328D01*
X128282700Y-112163328D01*
X128158218Y-112175588D01*
X128038520Y-112211898D01*
X127928206Y-112270863D01*
X127831515Y-112350215D01*
X127752163Y-112446906D01*
X127693198Y-112557220D01*
X127656888Y-112676918D01*
X127644628Y-112801400D01*
X127371372Y-112801400D01*
X127359112Y-112676918D01*
X127322802Y-112557220D01*
X127263837Y-112446906D01*
X127184485Y-112350215D01*
X127087794Y-112270863D01*
X126977480Y-112211898D01*
X126857782Y-112175588D01*
X126733300Y-112163328D01*
X125742700Y-112163328D01*
X125618218Y-112175588D01*
X125498520Y-112211898D01*
X125388206Y-112270863D01*
X125291515Y-112350215D01*
X125212163Y-112446906D01*
X125153198Y-112557220D01*
X125116888Y-112676918D01*
X125104628Y-112801400D01*
X124831372Y-112801400D01*
X124819112Y-112676918D01*
X124782802Y-112557220D01*
X124723837Y-112446906D01*
X124644485Y-112350215D01*
X124547794Y-112270863D01*
X124437480Y-112211898D01*
X124317782Y-112175588D01*
X124193300Y-112163328D01*
X123202700Y-112163328D01*
X123078218Y-112175588D01*
X122958520Y-112211898D01*
X122848206Y-112270863D01*
X122751515Y-112350215D01*
X122672163Y-112446906D01*
X122613198Y-112557220D01*
X122576888Y-112676918D01*
X122564628Y-112801400D01*
X122291372Y-112801400D01*
X122279112Y-112676918D01*
X122242802Y-112557220D01*
X122183837Y-112446906D01*
X122104485Y-112350215D01*
X122007794Y-112270863D01*
X121897480Y-112211898D01*
X121777782Y-112175588D01*
X121653300Y-112163328D01*
X120662700Y-112163328D01*
X120538218Y-112175588D01*
X120418520Y-112211898D01*
X120308206Y-112270863D01*
X120211515Y-112350215D01*
X120132163Y-112446906D01*
X120073198Y-112557220D01*
X120036888Y-112676918D01*
X120024628Y-112801400D01*
X119751372Y-112801400D01*
X119739112Y-112676918D01*
X119702802Y-112557220D01*
X119643837Y-112446906D01*
X119564485Y-112350215D01*
X119467794Y-112270863D01*
X119357480Y-112211898D01*
X119237782Y-112175588D01*
X119113300Y-112163328D01*
X118122700Y-112163328D01*
X117998218Y-112175588D01*
X117878520Y-112211898D01*
X117768206Y-112270863D01*
X117671515Y-112350215D01*
X117592163Y-112446906D01*
X117533198Y-112557220D01*
X117496888Y-112676918D01*
X117484628Y-112801400D01*
X117211372Y-112801400D01*
X117199112Y-112676918D01*
X117162802Y-112557220D01*
X117103837Y-112446906D01*
X117024485Y-112350215D01*
X116927794Y-112270863D01*
X116817480Y-112211898D01*
X116697782Y-112175588D01*
X116573300Y-112163328D01*
X115582700Y-112163328D01*
X115505516Y-112170930D01*
X115789446Y-111887000D01*
X137194555Y-111887000D01*
X139868077Y-114560523D01*
X139903867Y-114604133D01*
X140077911Y-114746968D01*
X140276477Y-114853103D01*
X140410027Y-114893615D01*
X140491932Y-114918461D01*
X140512517Y-114920488D01*
X140659854Y-114935000D01*
X140659861Y-114935000D01*
X140716000Y-114940529D01*
X140772139Y-114935000D01*
X176013071Y-114935000D01*
X176091515Y-115030585D01*
X176188206Y-115109937D01*
X176298520Y-115168902D01*
X176418218Y-115205212D01*
X176542700Y-115217472D01*
X177533300Y-115217472D01*
X177657782Y-115205212D01*
X177777480Y-115168902D01*
X177887794Y-115109937D01*
X177984485Y-115030585D01*
X178063837Y-114933894D01*
X178122802Y-114823580D01*
X178159112Y-114703882D01*
X178171372Y-114579400D01*
X178171372Y-113844297D01*
X178186529Y-113690401D01*
X178171372Y-113536504D01*
X178171372Y-112801400D01*
X178444628Y-112801400D01*
X178444628Y-114579400D01*
X178456888Y-114703882D01*
X178493198Y-114823580D01*
X178552163Y-114933894D01*
X178631515Y-115030585D01*
X178728206Y-115109937D01*
X178838520Y-115168902D01*
X178958218Y-115205212D01*
X179082700Y-115217472D01*
X180073300Y-115217472D01*
X180197782Y-115205212D01*
X180317480Y-115168902D01*
X180427794Y-115109937D01*
X180524485Y-115030585D01*
X180603837Y-114933894D01*
X180662802Y-114823580D01*
X180699112Y-114703882D01*
X180711372Y-114579400D01*
X180711372Y-112801400D01*
X180984628Y-112801400D01*
X180984628Y-114579400D01*
X180996888Y-114703882D01*
X181033198Y-114823580D01*
X181092163Y-114933894D01*
X181171515Y-115030585D01*
X181268206Y-115109937D01*
X181378520Y-115168902D01*
X181498218Y-115205212D01*
X181622700Y-115217472D01*
X182613300Y-115217472D01*
X182737782Y-115205212D01*
X182857480Y-115168902D01*
X182967794Y-115109937D01*
X183064485Y-115030585D01*
X183143837Y-114933894D01*
X183202802Y-114823580D01*
X183239112Y-114703882D01*
X183251372Y-114579400D01*
X183251372Y-112801400D01*
X183524628Y-112801400D01*
X183524628Y-114579400D01*
X183536888Y-114703882D01*
X183573198Y-114823580D01*
X183632163Y-114933894D01*
X183711515Y-115030585D01*
X183808206Y-115109937D01*
X183918520Y-115168902D01*
X184038218Y-115205212D01*
X184162700Y-115217472D01*
X185153300Y-115217472D01*
X185277782Y-115205212D01*
X185397480Y-115168902D01*
X185507794Y-115109937D01*
X185604485Y-115030585D01*
X185683837Y-114933894D01*
X185742802Y-114823580D01*
X185779112Y-114703882D01*
X185791372Y-114579400D01*
X185791372Y-112801400D01*
X186064628Y-112801400D01*
X186064628Y-114579400D01*
X186076888Y-114703882D01*
X186113198Y-114823580D01*
X186172163Y-114933894D01*
X186251515Y-115030585D01*
X186348206Y-115109937D01*
X186458520Y-115168902D01*
X186578218Y-115205212D01*
X186702700Y-115217472D01*
X187693300Y-115217472D01*
X187817782Y-115205212D01*
X187937480Y-115168902D01*
X188047794Y-115109937D01*
X188144485Y-115030585D01*
X188223837Y-114933894D01*
X188282802Y-114823580D01*
X188319112Y-114703882D01*
X188331372Y-114579400D01*
X188331372Y-112801400D01*
X188604628Y-112801400D01*
X188604628Y-114579400D01*
X188616888Y-114703882D01*
X188653198Y-114823580D01*
X188712163Y-114933894D01*
X188791515Y-115030585D01*
X188888206Y-115109937D01*
X188998520Y-115168902D01*
X189118218Y-115205212D01*
X189242700Y-115217472D01*
X190233300Y-115217472D01*
X190357782Y-115205212D01*
X190477480Y-115168902D01*
X190587794Y-115109937D01*
X190684485Y-115030585D01*
X190763837Y-114933894D01*
X190822802Y-114823580D01*
X190859112Y-114703882D01*
X190871372Y-114579400D01*
X190871372Y-112801400D01*
X191144628Y-112801400D01*
X191144628Y-114579400D01*
X191156888Y-114703882D01*
X191193198Y-114823580D01*
X191252163Y-114933894D01*
X191331515Y-115030585D01*
X191428206Y-115109937D01*
X191538520Y-115168902D01*
X191658218Y-115205212D01*
X191782700Y-115217472D01*
X192773300Y-115217472D01*
X192897782Y-115205212D01*
X193017480Y-115168902D01*
X193127794Y-115109937D01*
X193224485Y-115030585D01*
X193303837Y-114933894D01*
X193362802Y-114823580D01*
X193399112Y-114703882D01*
X193411372Y-114579400D01*
X193411372Y-112801400D01*
X193684628Y-112801400D01*
X193684628Y-114579400D01*
X193696888Y-114703882D01*
X193733198Y-114823580D01*
X193792163Y-114933894D01*
X193871515Y-115030585D01*
X193968206Y-115109937D01*
X194078520Y-115168902D01*
X194198218Y-115205212D01*
X194322700Y-115217472D01*
X195313300Y-115217472D01*
X195437782Y-115205212D01*
X195557480Y-115168902D01*
X195667794Y-115109937D01*
X195764485Y-115030585D01*
X195843837Y-114933894D01*
X195902802Y-114823580D01*
X195939112Y-114703882D01*
X195951372Y-114579400D01*
X195951372Y-112801400D01*
X196224628Y-112801400D01*
X196224628Y-114579400D01*
X196236888Y-114703882D01*
X196273198Y-114823580D01*
X196332163Y-114933894D01*
X196411515Y-115030585D01*
X196508206Y-115109937D01*
X196618520Y-115168902D01*
X196738218Y-115205212D01*
X196862700Y-115217472D01*
X197853300Y-115217472D01*
X197977782Y-115205212D01*
X198097480Y-115168902D01*
X198207794Y-115109937D01*
X198304485Y-115030585D01*
X198383837Y-114933894D01*
X198442802Y-114823580D01*
X198479112Y-114703882D01*
X198491372Y-114579400D01*
X198491372Y-112801400D01*
X198764628Y-112801400D01*
X198764628Y-114579400D01*
X198776888Y-114703882D01*
X198813198Y-114823580D01*
X198872163Y-114933894D01*
X198951515Y-115030585D01*
X199048206Y-115109937D01*
X199158520Y-115168902D01*
X199278218Y-115205212D01*
X199402700Y-115217472D01*
X200393300Y-115217472D01*
X200517782Y-115205212D01*
X200637480Y-115168902D01*
X200747794Y-115109937D01*
X200844485Y-115030585D01*
X200923837Y-114933894D01*
X200982802Y-114823580D01*
X201019112Y-114703882D01*
X201031372Y-114579400D01*
X201031372Y-112801400D01*
X201019112Y-112676918D01*
X200982802Y-112557220D01*
X200923837Y-112446906D01*
X200844485Y-112350215D01*
X200747794Y-112270863D01*
X200637480Y-112211898D01*
X200517782Y-112175588D01*
X200393300Y-112163328D01*
X199402700Y-112163328D01*
X199278218Y-112175588D01*
X199158520Y-112211898D01*
X199048206Y-112270863D01*
X198951515Y-112350215D01*
X198872163Y-112446906D01*
X198813198Y-112557220D01*
X198776888Y-112676918D01*
X198764628Y-112801400D01*
X198491372Y-112801400D01*
X198479112Y-112676918D01*
X198442802Y-112557220D01*
X198383837Y-112446906D01*
X198304485Y-112350215D01*
X198207794Y-112270863D01*
X198097480Y-112211898D01*
X197977782Y-112175588D01*
X197853300Y-112163328D01*
X196862700Y-112163328D01*
X196738218Y-112175588D01*
X196618520Y-112211898D01*
X196508206Y-112270863D01*
X196411515Y-112350215D01*
X196332163Y-112446906D01*
X196273198Y-112557220D01*
X196236888Y-112676918D01*
X196224628Y-112801400D01*
X195951372Y-112801400D01*
X195939112Y-112676918D01*
X195902802Y-112557220D01*
X195843837Y-112446906D01*
X195764485Y-112350215D01*
X195667794Y-112270863D01*
X195557480Y-112211898D01*
X195437782Y-112175588D01*
X195313300Y-112163328D01*
X194322700Y-112163328D01*
X194198218Y-112175588D01*
X194078520Y-112211898D01*
X193968206Y-112270863D01*
X193871515Y-112350215D01*
X193792163Y-112446906D01*
X193733198Y-112557220D01*
X193696888Y-112676918D01*
X193684628Y-112801400D01*
X193411372Y-112801400D01*
X193399112Y-112676918D01*
X193362802Y-112557220D01*
X193303837Y-112446906D01*
X193224485Y-112350215D01*
X193127794Y-112270863D01*
X193017480Y-112211898D01*
X192897782Y-112175588D01*
X192773300Y-112163328D01*
X191782700Y-112163328D01*
X191658218Y-112175588D01*
X191538520Y-112211898D01*
X191428206Y-112270863D01*
X191331515Y-112350215D01*
X191252163Y-112446906D01*
X191193198Y-112557220D01*
X191156888Y-112676918D01*
X191144628Y-112801400D01*
X190871372Y-112801400D01*
X190859112Y-112676918D01*
X190822802Y-112557220D01*
X190763837Y-112446906D01*
X190684485Y-112350215D01*
X190587794Y-112270863D01*
X190477480Y-112211898D01*
X190357782Y-112175588D01*
X190233300Y-112163328D01*
X189242700Y-112163328D01*
X189118218Y-112175588D01*
X188998520Y-112211898D01*
X188888206Y-112270863D01*
X188791515Y-112350215D01*
X188712163Y-112446906D01*
X188653198Y-112557220D01*
X188616888Y-112676918D01*
X188604628Y-112801400D01*
X188331372Y-112801400D01*
X188319112Y-112676918D01*
X188282802Y-112557220D01*
X188223837Y-112446906D01*
X188144485Y-112350215D01*
X188047794Y-112270863D01*
X187937480Y-112211898D01*
X187817782Y-112175588D01*
X187693300Y-112163328D01*
X186702700Y-112163328D01*
X186578218Y-112175588D01*
X186458520Y-112211898D01*
X186348206Y-112270863D01*
X186251515Y-112350215D01*
X186172163Y-112446906D01*
X186113198Y-112557220D01*
X186076888Y-112676918D01*
X186064628Y-112801400D01*
X185791372Y-112801400D01*
X185779112Y-112676918D01*
X185742802Y-112557220D01*
X185683837Y-112446906D01*
X185604485Y-112350215D01*
X185507794Y-112270863D01*
X185397480Y-112211898D01*
X185277782Y-112175588D01*
X185153300Y-112163328D01*
X184162700Y-112163328D01*
X184038218Y-112175588D01*
X183918520Y-112211898D01*
X183808206Y-112270863D01*
X183711515Y-112350215D01*
X183632163Y-112446906D01*
X183573198Y-112557220D01*
X183536888Y-112676918D01*
X183524628Y-112801400D01*
X183251372Y-112801400D01*
X183239112Y-112676918D01*
X183202802Y-112557220D01*
X183143837Y-112446906D01*
X183064485Y-112350215D01*
X182967794Y-112270863D01*
X182857480Y-112211898D01*
X182737782Y-112175588D01*
X182613300Y-112163328D01*
X181622700Y-112163328D01*
X181498218Y-112175588D01*
X181378520Y-112211898D01*
X181268206Y-112270863D01*
X181171515Y-112350215D01*
X181092163Y-112446906D01*
X181033198Y-112557220D01*
X180996888Y-112676918D01*
X180984628Y-112801400D01*
X180711372Y-112801400D01*
X180699112Y-112676918D01*
X180662802Y-112557220D01*
X180603837Y-112446906D01*
X180524485Y-112350215D01*
X180427794Y-112270863D01*
X180317480Y-112211898D01*
X180197782Y-112175588D01*
X180073300Y-112163328D01*
X179082700Y-112163328D01*
X178958218Y-112175588D01*
X178838520Y-112211898D01*
X178728206Y-112270863D01*
X178631515Y-112350215D01*
X178552163Y-112446906D01*
X178493198Y-112557220D01*
X178456888Y-112676918D01*
X178444628Y-112801400D01*
X178171372Y-112801400D01*
X178159112Y-112676918D01*
X178122802Y-112557220D01*
X178063837Y-112446906D01*
X177984485Y-112350215D01*
X177887794Y-112270863D01*
X177777480Y-112211898D01*
X177657782Y-112175588D01*
X177533300Y-112163328D01*
X176542700Y-112163328D01*
X176418218Y-112175588D01*
X176298520Y-112211898D01*
X176188206Y-112270863D01*
X176091515Y-112350215D01*
X176012163Y-112446906D01*
X175953198Y-112557220D01*
X175925357Y-112649000D01*
X141189446Y-112649000D01*
X138515927Y-109975482D01*
X138480133Y-109931867D01*
X138306089Y-109789032D01*
X138107523Y-109682897D01*
X137892067Y-109617539D01*
X137724146Y-109601000D01*
X137724139Y-109601000D01*
X137668000Y-109595471D01*
X137611861Y-109601000D01*
X115372139Y-109601000D01*
X115316000Y-109595471D01*
X115259861Y-109601000D01*
X115259854Y-109601000D01*
X115112517Y-109615512D01*
X115091932Y-109617539D01*
X114876476Y-109682897D01*
X114807311Y-109719867D01*
X114677911Y-109789032D01*
X114503867Y-109931867D01*
X114468077Y-109975477D01*
X112928000Y-111515555D01*
X112928000Y-109313375D01*
X113042700Y-109324672D01*
X114033300Y-109324672D01*
X114157782Y-109312412D01*
X114277480Y-109276102D01*
X114387794Y-109217137D01*
X114484485Y-109137785D01*
X114563837Y-109041094D01*
X114622802Y-108930780D01*
X114659112Y-108811082D01*
X114671372Y-108686600D01*
X114671372Y-106908600D01*
X117484628Y-106908600D01*
X117484628Y-108686600D01*
X117496888Y-108811082D01*
X117533198Y-108930780D01*
X117592163Y-109041094D01*
X117671515Y-109137785D01*
X117768206Y-109217137D01*
X117878520Y-109276102D01*
X117998218Y-109312412D01*
X118122700Y-109324672D01*
X119113300Y-109324672D01*
X119237782Y-109312412D01*
X119357480Y-109276102D01*
X119467794Y-109217137D01*
X119564485Y-109137785D01*
X119643837Y-109041094D01*
X119702802Y-108930780D01*
X119739112Y-108811082D01*
X119751372Y-108686600D01*
X119751372Y-106908600D01*
X120024628Y-106908600D01*
X120024628Y-108686600D01*
X120036888Y-108811082D01*
X120073198Y-108930780D01*
X120132163Y-109041094D01*
X120211515Y-109137785D01*
X120308206Y-109217137D01*
X120418520Y-109276102D01*
X120538218Y-109312412D01*
X120662700Y-109324672D01*
X121653300Y-109324672D01*
X121777782Y-109312412D01*
X121897480Y-109276102D01*
X122007794Y-109217137D01*
X122104485Y-109137785D01*
X122183837Y-109041094D01*
X122242802Y-108930780D01*
X122279112Y-108811082D01*
X122291372Y-108686600D01*
X122291372Y-106908600D01*
X122564628Y-106908600D01*
X122564628Y-108686600D01*
X122576888Y-108811082D01*
X122613198Y-108930780D01*
X122672163Y-109041094D01*
X122751515Y-109137785D01*
X122848206Y-109217137D01*
X122958520Y-109276102D01*
X123078218Y-109312412D01*
X123202700Y-109324672D01*
X124193300Y-109324672D01*
X124317782Y-109312412D01*
X124437480Y-109276102D01*
X124547794Y-109217137D01*
X124644485Y-109137785D01*
X124723837Y-109041094D01*
X124782802Y-108930780D01*
X124819112Y-108811082D01*
X124831372Y-108686600D01*
X124831372Y-106908600D01*
X124819112Y-106784118D01*
X124782802Y-106664420D01*
X124723837Y-106554106D01*
X124644485Y-106457415D01*
X124547794Y-106378063D01*
X124437480Y-106319098D01*
X124317782Y-106282788D01*
X124193300Y-106270528D01*
X123202700Y-106270528D01*
X123078218Y-106282788D01*
X122958520Y-106319098D01*
X122848206Y-106378063D01*
X122751515Y-106457415D01*
X122672163Y-106554106D01*
X122613198Y-106664420D01*
X122576888Y-106784118D01*
X122564628Y-106908600D01*
X122291372Y-106908600D01*
X122279112Y-106784118D01*
X122242802Y-106664420D01*
X122183837Y-106554106D01*
X122104485Y-106457415D01*
X122007794Y-106378063D01*
X121897480Y-106319098D01*
X121777782Y-106282788D01*
X121653300Y-106270528D01*
X120662700Y-106270528D01*
X120538218Y-106282788D01*
X120418520Y-106319098D01*
X120308206Y-106378063D01*
X120211515Y-106457415D01*
X120132163Y-106554106D01*
X120073198Y-106664420D01*
X120036888Y-106784118D01*
X120024628Y-106908600D01*
X119751372Y-106908600D01*
X119739112Y-106784118D01*
X119702802Y-106664420D01*
X119643837Y-106554106D01*
X119564485Y-106457415D01*
X119467794Y-106378063D01*
X119357480Y-106319098D01*
X119237782Y-106282788D01*
X119113300Y-106270528D01*
X118122700Y-106270528D01*
X117998218Y-106282788D01*
X117878520Y-106319098D01*
X117768206Y-106378063D01*
X117671515Y-106457415D01*
X117592163Y-106554106D01*
X117533198Y-106664420D01*
X117496888Y-106784118D01*
X117484628Y-106908600D01*
X114671372Y-106908600D01*
X114659112Y-106784118D01*
X114622802Y-106664420D01*
X114563837Y-106554106D01*
X114484485Y-106457415D01*
X114387794Y-106378063D01*
X114277480Y-106319098D01*
X114157782Y-106282788D01*
X114033300Y-106270528D01*
X113042700Y-106270528D01*
X112928000Y-106281825D01*
X112928000Y-105816061D01*
X125076000Y-105816061D01*
X125076000Y-106019939D01*
X125115774Y-106219898D01*
X125193795Y-106408256D01*
X125255756Y-106500988D01*
X125212163Y-106554106D01*
X125153198Y-106664420D01*
X125116888Y-106784118D01*
X125104628Y-106908600D01*
X125104628Y-108686600D01*
X125116888Y-108811082D01*
X125153198Y-108930780D01*
X125212163Y-109041094D01*
X125291515Y-109137785D01*
X125388206Y-109217137D01*
X125498520Y-109276102D01*
X125618218Y-109312412D01*
X125742700Y-109324672D01*
X126733300Y-109324672D01*
X126857782Y-109312412D01*
X126977480Y-109276102D01*
X127087794Y-109217137D01*
X127184485Y-109137785D01*
X127263837Y-109041094D01*
X127322802Y-108930780D01*
X127359112Y-108811082D01*
X127371372Y-108686600D01*
X127371372Y-106908600D01*
X127644628Y-106908600D01*
X127644628Y-108686600D01*
X127656888Y-108811082D01*
X127693198Y-108930780D01*
X127752163Y-109041094D01*
X127831515Y-109137785D01*
X127928206Y-109217137D01*
X128038520Y-109276102D01*
X128158218Y-109312412D01*
X128282700Y-109324672D01*
X129273300Y-109324672D01*
X129397782Y-109312412D01*
X129517480Y-109276102D01*
X129627794Y-109217137D01*
X129724485Y-109137785D01*
X129803837Y-109041094D01*
X129862802Y-108930780D01*
X129899112Y-108811082D01*
X129911372Y-108686600D01*
X129911372Y-106908600D01*
X130184628Y-106908600D01*
X130184628Y-108686600D01*
X130196888Y-108811082D01*
X130233198Y-108930780D01*
X130292163Y-109041094D01*
X130371515Y-109137785D01*
X130468206Y-109217137D01*
X130578520Y-109276102D01*
X130698218Y-109312412D01*
X130822700Y-109324672D01*
X131813300Y-109324672D01*
X131937782Y-109312412D01*
X132057480Y-109276102D01*
X132167794Y-109217137D01*
X132264485Y-109137785D01*
X132343837Y-109041094D01*
X132402802Y-108930780D01*
X132439112Y-108811082D01*
X132451372Y-108686600D01*
X132451372Y-106908600D01*
X132724628Y-106908600D01*
X132724628Y-108686600D01*
X132736888Y-108811082D01*
X132773198Y-108930780D01*
X132832163Y-109041094D01*
X132911515Y-109137785D01*
X133008206Y-109217137D01*
X133118520Y-109276102D01*
X133238218Y-109312412D01*
X133362700Y-109324672D01*
X134353300Y-109324672D01*
X134477782Y-109312412D01*
X134597480Y-109276102D01*
X134707794Y-109217137D01*
X134804485Y-109137785D01*
X134883837Y-109041094D01*
X134942802Y-108930780D01*
X134979112Y-108811082D01*
X134991372Y-108686600D01*
X134991372Y-106908600D01*
X135264628Y-106908600D01*
X135264628Y-108686600D01*
X135276888Y-108811082D01*
X135313198Y-108930780D01*
X135372163Y-109041094D01*
X135451515Y-109137785D01*
X135548206Y-109217137D01*
X135658520Y-109276102D01*
X135778218Y-109312412D01*
X135902700Y-109324672D01*
X136893300Y-109324672D01*
X137017782Y-109312412D01*
X137137480Y-109276102D01*
X137247794Y-109217137D01*
X137344485Y-109137785D01*
X137423837Y-109041094D01*
X137482802Y-108930780D01*
X137519112Y-108811082D01*
X137531372Y-108686600D01*
X137531372Y-106908600D01*
X175904628Y-106908600D01*
X175904628Y-108686600D01*
X175916888Y-108811082D01*
X175953198Y-108930780D01*
X176012163Y-109041094D01*
X176091515Y-109137785D01*
X176188206Y-109217137D01*
X176298520Y-109276102D01*
X176418218Y-109312412D01*
X176542700Y-109324672D01*
X177533300Y-109324672D01*
X177657782Y-109312412D01*
X177777480Y-109276102D01*
X177887794Y-109217137D01*
X177984485Y-109137785D01*
X178063837Y-109041094D01*
X178122802Y-108930780D01*
X178159112Y-108811082D01*
X178171372Y-108686600D01*
X178171372Y-106908600D01*
X180984628Y-106908600D01*
X180984628Y-108686600D01*
X180996888Y-108811082D01*
X181033198Y-108930780D01*
X181092163Y-109041094D01*
X181171515Y-109137785D01*
X181268206Y-109217137D01*
X181378520Y-109276102D01*
X181498218Y-109312412D01*
X181622700Y-109324672D01*
X182613300Y-109324672D01*
X182737782Y-109312412D01*
X182857480Y-109276102D01*
X182967794Y-109217137D01*
X183064485Y-109137785D01*
X183143837Y-109041094D01*
X183202802Y-108930780D01*
X183239112Y-108811082D01*
X183251372Y-108686600D01*
X183251372Y-106908600D01*
X183524628Y-106908600D01*
X183524628Y-108686600D01*
X183536888Y-108811082D01*
X183573198Y-108930780D01*
X183632163Y-109041094D01*
X183711515Y-109137785D01*
X183808206Y-109217137D01*
X183918520Y-109276102D01*
X184038218Y-109312412D01*
X184162700Y-109324672D01*
X185153300Y-109324672D01*
X185277782Y-109312412D01*
X185397480Y-109276102D01*
X185507794Y-109217137D01*
X185604485Y-109137785D01*
X185683837Y-109041094D01*
X185742802Y-108930780D01*
X185779112Y-108811082D01*
X185791372Y-108686600D01*
X185791372Y-106908600D01*
X186064628Y-106908600D01*
X186064628Y-108686600D01*
X186076888Y-108811082D01*
X186113198Y-108930780D01*
X186172163Y-109041094D01*
X186251515Y-109137785D01*
X186348206Y-109217137D01*
X186458520Y-109276102D01*
X186578218Y-109312412D01*
X186702700Y-109324672D01*
X187693300Y-109324672D01*
X187817782Y-109312412D01*
X187937480Y-109276102D01*
X188047794Y-109217137D01*
X188144485Y-109137785D01*
X188223837Y-109041094D01*
X188282802Y-108930780D01*
X188319112Y-108811082D01*
X188331372Y-108686600D01*
X188331372Y-106908600D01*
X188604628Y-106908600D01*
X188604628Y-108686600D01*
X188616888Y-108811082D01*
X188653198Y-108930780D01*
X188712163Y-109041094D01*
X188791515Y-109137785D01*
X188888206Y-109217137D01*
X188998520Y-109276102D01*
X189118218Y-109312412D01*
X189242700Y-109324672D01*
X190233300Y-109324672D01*
X190357782Y-109312412D01*
X190477480Y-109276102D01*
X190587794Y-109217137D01*
X190684485Y-109137785D01*
X190763837Y-109041094D01*
X190822802Y-108930780D01*
X190859112Y-108811082D01*
X190871372Y-108686600D01*
X190871372Y-106908600D01*
X191144628Y-106908600D01*
X191144628Y-108686600D01*
X191156888Y-108811082D01*
X191193198Y-108930780D01*
X191252163Y-109041094D01*
X191331515Y-109137785D01*
X191428206Y-109217137D01*
X191538520Y-109276102D01*
X191658218Y-109312412D01*
X191782700Y-109324672D01*
X192773300Y-109324672D01*
X192897782Y-109312412D01*
X193017480Y-109276102D01*
X193127794Y-109217137D01*
X193224485Y-109137785D01*
X193303837Y-109041094D01*
X193362802Y-108930780D01*
X193399112Y-108811082D01*
X193411372Y-108686600D01*
X193411372Y-106908600D01*
X193684628Y-106908600D01*
X193684628Y-108686600D01*
X193696888Y-108811082D01*
X193733198Y-108930780D01*
X193792163Y-109041094D01*
X193871515Y-109137785D01*
X193968206Y-109217137D01*
X194078520Y-109276102D01*
X194198218Y-109312412D01*
X194322700Y-109324672D01*
X195313300Y-109324672D01*
X195437782Y-109312412D01*
X195557480Y-109276102D01*
X195667794Y-109217137D01*
X195764485Y-109137785D01*
X195843837Y-109041094D01*
X195902802Y-108930780D01*
X195939112Y-108811082D01*
X195951372Y-108686600D01*
X195951372Y-106908600D01*
X196224628Y-106908600D01*
X196224628Y-108686600D01*
X196236888Y-108811082D01*
X196273198Y-108930780D01*
X196332163Y-109041094D01*
X196411515Y-109137785D01*
X196508206Y-109217137D01*
X196618520Y-109276102D01*
X196738218Y-109312412D01*
X196862700Y-109324672D01*
X197853300Y-109324672D01*
X197977782Y-109312412D01*
X198097480Y-109276102D01*
X198207794Y-109217137D01*
X198304485Y-109137785D01*
X198383837Y-109041094D01*
X198442802Y-108930780D01*
X198479112Y-108811082D01*
X198491372Y-108686600D01*
X198491372Y-106908600D01*
X198764628Y-106908600D01*
X198764628Y-108686600D01*
X198776888Y-108811082D01*
X198813198Y-108930780D01*
X198872163Y-109041094D01*
X198951515Y-109137785D01*
X199048206Y-109217137D01*
X199158520Y-109276102D01*
X199278218Y-109312412D01*
X199402700Y-109324672D01*
X200393300Y-109324672D01*
X200517782Y-109312412D01*
X200637480Y-109276102D01*
X200747794Y-109217137D01*
X200844485Y-109137785D01*
X200923837Y-109041094D01*
X200982802Y-108930780D01*
X201019112Y-108811082D01*
X201031372Y-108686600D01*
X201031372Y-106908600D01*
X201019112Y-106784118D01*
X200982802Y-106664420D01*
X200923837Y-106554106D01*
X200844485Y-106457415D01*
X200747794Y-106378063D01*
X200637480Y-106319098D01*
X200517782Y-106282788D01*
X200393300Y-106270528D01*
X199402700Y-106270528D01*
X199278218Y-106282788D01*
X199158520Y-106319098D01*
X199048206Y-106378063D01*
X198951515Y-106457415D01*
X198872163Y-106554106D01*
X198813198Y-106664420D01*
X198776888Y-106784118D01*
X198764628Y-106908600D01*
X198491372Y-106908600D01*
X198479112Y-106784118D01*
X198442802Y-106664420D01*
X198383837Y-106554106D01*
X198304485Y-106457415D01*
X198207794Y-106378063D01*
X198097480Y-106319098D01*
X197977782Y-106282788D01*
X197853300Y-106270528D01*
X196862700Y-106270528D01*
X196738218Y-106282788D01*
X196618520Y-106319098D01*
X196508206Y-106378063D01*
X196411515Y-106457415D01*
X196332163Y-106554106D01*
X196273198Y-106664420D01*
X196236888Y-106784118D01*
X196224628Y-106908600D01*
X195951372Y-106908600D01*
X195939112Y-106784118D01*
X195902802Y-106664420D01*
X195843837Y-106554106D01*
X195764485Y-106457415D01*
X195667794Y-106378063D01*
X195557480Y-106319098D01*
X195437782Y-106282788D01*
X195313300Y-106270528D01*
X194322700Y-106270528D01*
X194198218Y-106282788D01*
X194078520Y-106319098D01*
X193968206Y-106378063D01*
X193871515Y-106457415D01*
X193792163Y-106554106D01*
X193733198Y-106664420D01*
X193696888Y-106784118D01*
X193684628Y-106908600D01*
X193411372Y-106908600D01*
X193399112Y-106784118D01*
X193362802Y-106664420D01*
X193303837Y-106554106D01*
X193224485Y-106457415D01*
X193127794Y-106378063D01*
X193017480Y-106319098D01*
X192897782Y-106282788D01*
X192773300Y-106270528D01*
X191782700Y-106270528D01*
X191658218Y-106282788D01*
X191538520Y-106319098D01*
X191428206Y-106378063D01*
X191331515Y-106457415D01*
X191252163Y-106554106D01*
X191193198Y-106664420D01*
X191156888Y-106784118D01*
X191144628Y-106908600D01*
X190871372Y-106908600D01*
X190859112Y-106784118D01*
X190822802Y-106664420D01*
X190763837Y-106554106D01*
X190684485Y-106457415D01*
X190587794Y-106378063D01*
X190477480Y-106319098D01*
X190357782Y-106282788D01*
X190233300Y-106270528D01*
X189242700Y-106270528D01*
X189118218Y-106282788D01*
X188998520Y-106319098D01*
X188888206Y-106378063D01*
X188791515Y-106457415D01*
X188712163Y-106554106D01*
X188653198Y-106664420D01*
X188616888Y-106784118D01*
X188604628Y-106908600D01*
X188331372Y-106908600D01*
X188319112Y-106784118D01*
X188282802Y-106664420D01*
X188223837Y-106554106D01*
X188144485Y-106457415D01*
X188047794Y-106378063D01*
X187937480Y-106319098D01*
X187817782Y-106282788D01*
X187693300Y-106270528D01*
X186702700Y-106270528D01*
X186578218Y-106282788D01*
X186458520Y-106319098D01*
X186348206Y-106378063D01*
X186251515Y-106457415D01*
X186172163Y-106554106D01*
X186113198Y-106664420D01*
X186076888Y-106784118D01*
X186064628Y-106908600D01*
X185791372Y-106908600D01*
X185779112Y-106784118D01*
X185742802Y-106664420D01*
X185683837Y-106554106D01*
X185604485Y-106457415D01*
X185507794Y-106378063D01*
X185397480Y-106319098D01*
X185277782Y-106282788D01*
X185153300Y-106270528D01*
X184162700Y-106270528D01*
X184038218Y-106282788D01*
X183918520Y-106319098D01*
X183808206Y-106378063D01*
X183711515Y-106457415D01*
X183632163Y-106554106D01*
X183573198Y-106664420D01*
X183536888Y-106784118D01*
X183524628Y-106908600D01*
X183251372Y-106908600D01*
X183239112Y-106784118D01*
X183202802Y-106664420D01*
X183143837Y-106554106D01*
X183064485Y-106457415D01*
X182967794Y-106378063D01*
X182857480Y-106319098D01*
X182737782Y-106282788D01*
X182613300Y-106270528D01*
X181622700Y-106270528D01*
X181498218Y-106282788D01*
X181378520Y-106319098D01*
X181268206Y-106378063D01*
X181171515Y-106457415D01*
X181092163Y-106554106D01*
X181033198Y-106664420D01*
X180996888Y-106784118D01*
X180984628Y-106908600D01*
X178171372Y-106908600D01*
X178159112Y-106784118D01*
X178122802Y-106664420D01*
X178063837Y-106554106D01*
X177984485Y-106457415D01*
X177887794Y-106378063D01*
X177777480Y-106319098D01*
X177657782Y-106282788D01*
X177533300Y-106270528D01*
X176542700Y-106270528D01*
X176418218Y-106282788D01*
X176298520Y-106319098D01*
X176188206Y-106378063D01*
X176091515Y-106457415D01*
X176012163Y-106554106D01*
X175953198Y-106664420D01*
X175916888Y-106784118D01*
X175904628Y-106908600D01*
X137531372Y-106908600D01*
X137519112Y-106784118D01*
X137482802Y-106664420D01*
X137423837Y-106554106D01*
X137344485Y-106457415D01*
X137247794Y-106378063D01*
X137137480Y-106319098D01*
X137017782Y-106282788D01*
X136893300Y-106270528D01*
X135902700Y-106270528D01*
X135778218Y-106282788D01*
X135658520Y-106319098D01*
X135548206Y-106378063D01*
X135451515Y-106457415D01*
X135372163Y-106554106D01*
X135313198Y-106664420D01*
X135276888Y-106784118D01*
X135264628Y-106908600D01*
X134991372Y-106908600D01*
X134979112Y-106784118D01*
X134942802Y-106664420D01*
X134883837Y-106554106D01*
X134804485Y-106457415D01*
X134707794Y-106378063D01*
X134597480Y-106319098D01*
X134477782Y-106282788D01*
X134353300Y-106270528D01*
X133362700Y-106270528D01*
X133238218Y-106282788D01*
X133118520Y-106319098D01*
X133008206Y-106378063D01*
X132911515Y-106457415D01*
X132832163Y-106554106D01*
X132773198Y-106664420D01*
X132736888Y-106784118D01*
X132724628Y-106908600D01*
X132451372Y-106908600D01*
X132439112Y-106784118D01*
X132402802Y-106664420D01*
X132343837Y-106554106D01*
X132264485Y-106457415D01*
X132167794Y-106378063D01*
X132057480Y-106319098D01*
X131937782Y-106282788D01*
X131813300Y-106270528D01*
X130822700Y-106270528D01*
X130698218Y-106282788D01*
X130578520Y-106319098D01*
X130468206Y-106378063D01*
X130371515Y-106457415D01*
X130292163Y-106554106D01*
X130233198Y-106664420D01*
X130196888Y-106784118D01*
X130184628Y-106908600D01*
X129911372Y-106908600D01*
X129899112Y-106784118D01*
X129862802Y-106664420D01*
X129803837Y-106554106D01*
X129724485Y-106457415D01*
X129627794Y-106378063D01*
X129517480Y-106319098D01*
X129397782Y-106282788D01*
X129273300Y-106270528D01*
X128282700Y-106270528D01*
X128158218Y-106282788D01*
X128038520Y-106319098D01*
X127928206Y-106378063D01*
X127831515Y-106457415D01*
X127752163Y-106554106D01*
X127693198Y-106664420D01*
X127656888Y-106784118D01*
X127644628Y-106908600D01*
X127371372Y-106908600D01*
X127359112Y-106784118D01*
X127322802Y-106664420D01*
X127263837Y-106554106D01*
X127184485Y-106457415D01*
X127087794Y-106378063D01*
X127049246Y-106357458D01*
X127106226Y-106219898D01*
X127146000Y-106019939D01*
X127146000Y-105816061D01*
X127106226Y-105616102D01*
X127028205Y-105427744D01*
X126914937Y-105258226D01*
X126770774Y-105114063D01*
X126601256Y-105000795D01*
X126412898Y-104922774D01*
X126212939Y-104883000D01*
X126009061Y-104883000D01*
X125809102Y-104922774D01*
X125620744Y-105000795D01*
X125451226Y-105114063D01*
X125307063Y-105258226D01*
X125193795Y-105427744D01*
X125115774Y-105616102D01*
X125076000Y-105816061D01*
X112928000Y-105816061D01*
X112928000Y-104477000D01*
X155654928Y-104477000D01*
X155654928Y-105835000D01*
X155667188Y-105959482D01*
X155703498Y-106079180D01*
X155762463Y-106189494D01*
X155841815Y-106286185D01*
X155938506Y-106365537D01*
X156048820Y-106424502D01*
X156168518Y-106460812D01*
X156293000Y-106473072D01*
X157651000Y-106473072D01*
X157775482Y-106460812D01*
X157895180Y-106424502D01*
X158005494Y-106365537D01*
X158102185Y-106286185D01*
X158181537Y-106189494D01*
X158240502Y-106079180D01*
X158276812Y-105959482D01*
X158289072Y-105835000D01*
X158289072Y-105026582D01*
X160738000Y-105026582D01*
X160738000Y-105285418D01*
X160788496Y-105539280D01*
X160887548Y-105778412D01*
X161031349Y-105993626D01*
X161214374Y-106176651D01*
X161429588Y-106320452D01*
X161668720Y-106419504D01*
X161922582Y-106470000D01*
X162181418Y-106470000D01*
X162435280Y-106419504D01*
X162674412Y-106320452D01*
X162889626Y-106176651D01*
X163072651Y-105993626D01*
X163216452Y-105778412D01*
X163315504Y-105539280D01*
X163366000Y-105285418D01*
X163366000Y-105026582D01*
X163315504Y-104772720D01*
X163216452Y-104533588D01*
X163072651Y-104318374D01*
X162889626Y-104135349D01*
X162674412Y-103991548D01*
X162435280Y-103892496D01*
X162181418Y-103842000D01*
X161922582Y-103842000D01*
X161668720Y-103892496D01*
X161429588Y-103991548D01*
X161214374Y-104135349D01*
X161031349Y-104318374D01*
X160887548Y-104533588D01*
X160788496Y-104772720D01*
X160738000Y-105026582D01*
X158289072Y-105026582D01*
X158289072Y-104477000D01*
X158276812Y-104352518D01*
X158240502Y-104232820D01*
X158181537Y-104122506D01*
X158102185Y-104025815D01*
X158005494Y-103946463D01*
X157895180Y-103887498D01*
X157775482Y-103851188D01*
X157651000Y-103838928D01*
X156293000Y-103838928D01*
X156168518Y-103851188D01*
X156048820Y-103887498D01*
X155938506Y-103946463D01*
X155841815Y-104025815D01*
X155762463Y-104122506D01*
X155703498Y-104232820D01*
X155667188Y-104352518D01*
X155654928Y-104477000D01*
X112928000Y-104477000D01*
X112928000Y-95293721D01*
X147471000Y-95293721D01*
X147471000Y-95714279D01*
X147553047Y-96126756D01*
X147713988Y-96515302D01*
X147947637Y-96864983D01*
X148245017Y-97162363D01*
X148594698Y-97396012D01*
X148983244Y-97556953D01*
X149395721Y-97639000D01*
X149816279Y-97639000D01*
X150228756Y-97556953D01*
X150617302Y-97396012D01*
X150966983Y-97162363D01*
X151264363Y-96864983D01*
X151498012Y-96515302D01*
X151658953Y-96126756D01*
X151741000Y-95714279D01*
X151741000Y-95357221D01*
X167029000Y-95357221D01*
X167029000Y-95777779D01*
X167111047Y-96190256D01*
X167271988Y-96578802D01*
X167505637Y-96928483D01*
X167803017Y-97225863D01*
X168152698Y-97459512D01*
X168541244Y-97620453D01*
X168953721Y-97702500D01*
X169374279Y-97702500D01*
X169786756Y-97620453D01*
X170175302Y-97459512D01*
X170524983Y-97225863D01*
X170822363Y-96928483D01*
X171056012Y-96578802D01*
X171216953Y-96190256D01*
X171299000Y-95777779D01*
X171299000Y-95357221D01*
X171216953Y-94944744D01*
X171056012Y-94556198D01*
X170822363Y-94206517D01*
X170524983Y-93909137D01*
X170175302Y-93675488D01*
X169786756Y-93514547D01*
X169374279Y-93432500D01*
X168953721Y-93432500D01*
X168541244Y-93514547D01*
X168152698Y-93675488D01*
X167803017Y-93909137D01*
X167505637Y-94206517D01*
X167271988Y-94556198D01*
X167111047Y-94944744D01*
X167029000Y-95357221D01*
X151741000Y-95357221D01*
X151741000Y-95293721D01*
X151658953Y-94881244D01*
X151498012Y-94492698D01*
X151264363Y-94143017D01*
X150966983Y-93845637D01*
X150617302Y-93611988D01*
X150228756Y-93451047D01*
X149816279Y-93369000D01*
X149395721Y-93369000D01*
X148983244Y-93451047D01*
X148594698Y-93611988D01*
X148245017Y-93845637D01*
X147947637Y-94143017D01*
X147713988Y-94492698D01*
X147553047Y-94881244D01*
X147471000Y-95293721D01*
X112928000Y-95293721D01*
X112928000Y-83464061D01*
X123425000Y-83464061D01*
X123425000Y-83667939D01*
X123464774Y-83867898D01*
X123542795Y-84056256D01*
X123656063Y-84225774D01*
X123698000Y-84267711D01*
X123698001Y-86801288D01*
X123656063Y-86843226D01*
X123542795Y-87012744D01*
X123464774Y-87201102D01*
X123425000Y-87401061D01*
X123425000Y-87604939D01*
X123464774Y-87804898D01*
X123542795Y-87993256D01*
X123656063Y-88162774D01*
X123800226Y-88306937D01*
X123969744Y-88420205D01*
X124158102Y-88498226D01*
X124358061Y-88538000D01*
X124561939Y-88538000D01*
X124761898Y-88498226D01*
X124950256Y-88420205D01*
X125119774Y-88306937D01*
X125263937Y-88162774D01*
X125377205Y-87993256D01*
X125455226Y-87804898D01*
X125495000Y-87604939D01*
X125495000Y-87401061D01*
X125455226Y-87201102D01*
X125377205Y-87012744D01*
X125263937Y-86843226D01*
X125222000Y-86801289D01*
X125222000Y-86475119D01*
X128167000Y-86475119D01*
X128167000Y-88784882D01*
X128197892Y-89098533D01*
X128319975Y-89500982D01*
X128518224Y-89871881D01*
X128785024Y-90196977D01*
X129110120Y-90463777D01*
X129481019Y-90662026D01*
X129883468Y-90784108D01*
X130302000Y-90825330D01*
X130720533Y-90784108D01*
X131122982Y-90662026D01*
X131493881Y-90463777D01*
X131818977Y-90196977D01*
X132085777Y-89871881D01*
X132284026Y-89500982D01*
X132406108Y-89098533D01*
X132437000Y-88784882D01*
X132437000Y-86475118D01*
X132406108Y-86161467D01*
X132284026Y-85759018D01*
X132085777Y-85388119D01*
X131818977Y-85063023D01*
X131493881Y-84796223D01*
X131122981Y-84597974D01*
X130720532Y-84475892D01*
X130302000Y-84434670D01*
X129883467Y-84475892D01*
X129481018Y-84597974D01*
X129110119Y-84796223D01*
X128785023Y-85063023D01*
X128518223Y-85388119D01*
X128319974Y-85759019D01*
X128197892Y-86161468D01*
X128167000Y-86475119D01*
X125222000Y-86475119D01*
X125222000Y-84267711D01*
X125263937Y-84225774D01*
X125377205Y-84056256D01*
X125455226Y-83867898D01*
X125495000Y-83667939D01*
X125495000Y-83464061D01*
X125455226Y-83264102D01*
X125377205Y-83075744D01*
X125263937Y-82906226D01*
X125119774Y-82762063D01*
X124950256Y-82648795D01*
X124761898Y-82570774D01*
X124561939Y-82531000D01*
X124358061Y-82531000D01*
X124158102Y-82570774D01*
X123969744Y-82648795D01*
X123800226Y-82762063D01*
X123656063Y-82906226D01*
X123542795Y-83075744D01*
X123464774Y-83264102D01*
X123425000Y-83464061D01*
X112928000Y-83464061D01*
X112928000Y-78589119D01*
X128167000Y-78589119D01*
X128167000Y-80898882D01*
X128197892Y-81212533D01*
X128319975Y-81614982D01*
X128518224Y-81985881D01*
X128785024Y-82310977D01*
X129110120Y-82577777D01*
X129481019Y-82776026D01*
X129883468Y-82898108D01*
X130302000Y-82939330D01*
X130720533Y-82898108D01*
X131122982Y-82776026D01*
X131493881Y-82577777D01*
X131818977Y-82310977D01*
X132085777Y-81985881D01*
X132284026Y-81614982D01*
X132406108Y-81212533D01*
X132437000Y-80898882D01*
X132437000Y-78589118D01*
X132406108Y-78275467D01*
X132284026Y-77873018D01*
X132085777Y-77502119D01*
X131818977Y-77177023D01*
X131493881Y-76910223D01*
X131122981Y-76711974D01*
X130720532Y-76589892D01*
X130302000Y-76548670D01*
X129883467Y-76589892D01*
X129481018Y-76711974D01*
X129110119Y-76910223D01*
X128785023Y-77177023D01*
X128518223Y-77502119D01*
X128319974Y-77873019D01*
X128197892Y-78275468D01*
X128167000Y-78589119D01*
X112928000Y-78589119D01*
X112928000Y-72026175D01*
X113042700Y-72037472D01*
X114033300Y-72037472D01*
X114157782Y-72025212D01*
X114277480Y-71988902D01*
X114387794Y-71929937D01*
X114484485Y-71850585D01*
X114563837Y-71753894D01*
X114622802Y-71643580D01*
X114659112Y-71523882D01*
X114671372Y-71399400D01*
X114671372Y-69621400D01*
X114944628Y-69621400D01*
X114944628Y-71399400D01*
X114956888Y-71523882D01*
X114993198Y-71643580D01*
X115052163Y-71753894D01*
X115131515Y-71850585D01*
X115228206Y-71929937D01*
X115338520Y-71988902D01*
X115458218Y-72025212D01*
X115582700Y-72037472D01*
X116573300Y-72037472D01*
X116697782Y-72025212D01*
X116817480Y-71988902D01*
X116927794Y-71929937D01*
X117024485Y-71850585D01*
X117103837Y-71753894D01*
X117162802Y-71643580D01*
X117199112Y-71523882D01*
X117211372Y-71399400D01*
X117211372Y-69621400D01*
X117484628Y-69621400D01*
X117484628Y-71399400D01*
X117496888Y-71523882D01*
X117533198Y-71643580D01*
X117592163Y-71753894D01*
X117671515Y-71850585D01*
X117768206Y-71929937D01*
X117878520Y-71988902D01*
X117998218Y-72025212D01*
X118122700Y-72037472D01*
X119113300Y-72037472D01*
X119237782Y-72025212D01*
X119357480Y-71988902D01*
X119467794Y-71929937D01*
X119564485Y-71850585D01*
X119643837Y-71753894D01*
X119702802Y-71643580D01*
X119739112Y-71523882D01*
X119751372Y-71399400D01*
X119751372Y-69621400D01*
X120024628Y-69621400D01*
X120024628Y-71399400D01*
X120036888Y-71523882D01*
X120073198Y-71643580D01*
X120132163Y-71753894D01*
X120211515Y-71850585D01*
X120308206Y-71929937D01*
X120418520Y-71988902D01*
X120538218Y-72025212D01*
X120662700Y-72037472D01*
X121653300Y-72037472D01*
X121777782Y-72025212D01*
X121897480Y-71988902D01*
X122007794Y-71929937D01*
X122104485Y-71850585D01*
X122183837Y-71753894D01*
X122242802Y-71643580D01*
X122279112Y-71523882D01*
X122291372Y-71399400D01*
X122291372Y-69621400D01*
X122564628Y-69621400D01*
X122564628Y-71399400D01*
X122576888Y-71523882D01*
X122613198Y-71643580D01*
X122672163Y-71753894D01*
X122751515Y-71850585D01*
X122848206Y-71929937D01*
X122958520Y-71988902D01*
X123078218Y-72025212D01*
X123202700Y-72037472D01*
X123884921Y-72037472D01*
X123800226Y-72094063D01*
X123656063Y-72238226D01*
X123542795Y-72407744D01*
X123464774Y-72596102D01*
X123425000Y-72796061D01*
X123425000Y-72999939D01*
X123464774Y-73199898D01*
X123542795Y-73388256D01*
X123656063Y-73557774D01*
X123800226Y-73701937D01*
X123969744Y-73815205D01*
X124158102Y-73893226D01*
X124358061Y-73933000D01*
X124561939Y-73933000D01*
X124761898Y-73893226D01*
X124950256Y-73815205D01*
X125119774Y-73701937D01*
X125161711Y-73660000D01*
X127089577Y-73660000D01*
X127127000Y-73663686D01*
X127164423Y-73660000D01*
X127164426Y-73660000D01*
X127276378Y-73648974D01*
X127420015Y-73605402D01*
X127552392Y-73534645D01*
X127668422Y-73439422D01*
X127692284Y-73410346D01*
X127893346Y-73209284D01*
X127922422Y-73185422D01*
X128017645Y-73069392D01*
X128088402Y-72937015D01*
X128131974Y-72793378D01*
X128143000Y-72681425D01*
X128143000Y-72681424D01*
X128146686Y-72644001D01*
X128143000Y-72606578D01*
X128143000Y-72020596D01*
X128158218Y-72025212D01*
X128282700Y-72037472D01*
X129273300Y-72037472D01*
X129397782Y-72025212D01*
X129517480Y-71988902D01*
X129627794Y-71929937D01*
X129724485Y-71850585D01*
X129803837Y-71753894D01*
X129862802Y-71643580D01*
X129899112Y-71523882D01*
X129911372Y-71399400D01*
X129911372Y-69621400D01*
X130184628Y-69621400D01*
X130184628Y-71399400D01*
X130196888Y-71523882D01*
X130233198Y-71643580D01*
X130292163Y-71753894D01*
X130371515Y-71850585D01*
X130468206Y-71929937D01*
X130578520Y-71988902D01*
X130698218Y-72025212D01*
X130822700Y-72037472D01*
X131813300Y-72037472D01*
X131937782Y-72025212D01*
X132057480Y-71988902D01*
X132167794Y-71929937D01*
X132264485Y-71850585D01*
X132343837Y-71753894D01*
X132402802Y-71643580D01*
X132439112Y-71523882D01*
X132451372Y-71399400D01*
X132451372Y-69621400D01*
X132724628Y-69621400D01*
X132724628Y-71399400D01*
X132736888Y-71523882D01*
X132773198Y-71643580D01*
X132832163Y-71753894D01*
X132911515Y-71850585D01*
X133008206Y-71929937D01*
X133118520Y-71988902D01*
X133238218Y-72025212D01*
X133362700Y-72037472D01*
X134353300Y-72037472D01*
X134477782Y-72025212D01*
X134597480Y-71988902D01*
X134707794Y-71929937D01*
X134804485Y-71850585D01*
X134883837Y-71753894D01*
X134942802Y-71643580D01*
X134979112Y-71523882D01*
X134991372Y-71399400D01*
X134991372Y-69621400D01*
X135264628Y-69621400D01*
X135264628Y-71399400D01*
X135276888Y-71523882D01*
X135313198Y-71643580D01*
X135372163Y-71753894D01*
X135451515Y-71850585D01*
X135548206Y-71929937D01*
X135658520Y-71988902D01*
X135778218Y-72025212D01*
X135902700Y-72037472D01*
X136893300Y-72037472D01*
X137017782Y-72025212D01*
X137137480Y-71988902D01*
X137247794Y-71929937D01*
X137344485Y-71850585D01*
X137423837Y-71753894D01*
X137482802Y-71643580D01*
X137519112Y-71523882D01*
X137531372Y-71399400D01*
X137531372Y-69621400D01*
X175904628Y-69621400D01*
X175904628Y-71399400D01*
X175916888Y-71523882D01*
X175953198Y-71643580D01*
X176012163Y-71753894D01*
X176091515Y-71850585D01*
X176188206Y-71929937D01*
X176298520Y-71988902D01*
X176418218Y-72025212D01*
X176542700Y-72037472D01*
X177533300Y-72037472D01*
X177657782Y-72025212D01*
X177777480Y-71988902D01*
X177887794Y-71929937D01*
X177984485Y-71850585D01*
X178063837Y-71753894D01*
X178122802Y-71643580D01*
X178159112Y-71523882D01*
X178171372Y-71399400D01*
X178171372Y-69621400D01*
X178444628Y-69621400D01*
X178444628Y-71399400D01*
X178456888Y-71523882D01*
X178493198Y-71643580D01*
X178552163Y-71753894D01*
X178631515Y-71850585D01*
X178728206Y-71929937D01*
X178838520Y-71988902D01*
X178958218Y-72025212D01*
X179082700Y-72037472D01*
X180073300Y-72037472D01*
X180197782Y-72025212D01*
X180317480Y-71988902D01*
X180427794Y-71929937D01*
X180524485Y-71850585D01*
X180603837Y-71753894D01*
X180662802Y-71643580D01*
X180699112Y-71523882D01*
X180711372Y-71399400D01*
X180711372Y-69621400D01*
X180984628Y-69621400D01*
X180984628Y-71399400D01*
X180996888Y-71523882D01*
X181033198Y-71643580D01*
X181092163Y-71753894D01*
X181171515Y-71850585D01*
X181268206Y-71929937D01*
X181378520Y-71988902D01*
X181498218Y-72025212D01*
X181622700Y-72037472D01*
X182613300Y-72037472D01*
X182737782Y-72025212D01*
X182857480Y-71988902D01*
X182967794Y-71929937D01*
X183064485Y-71850585D01*
X183143837Y-71753894D01*
X183202802Y-71643580D01*
X183239112Y-71523882D01*
X183251372Y-71399400D01*
X183251372Y-69621400D01*
X183524628Y-69621400D01*
X183524628Y-71399400D01*
X183536888Y-71523882D01*
X183573198Y-71643580D01*
X183632163Y-71753894D01*
X183711515Y-71850585D01*
X183808206Y-71929937D01*
X183918520Y-71988902D01*
X184038218Y-72025212D01*
X184162700Y-72037472D01*
X185153300Y-72037472D01*
X185277782Y-72025212D01*
X185397480Y-71988902D01*
X185507794Y-71929937D01*
X185604485Y-71850585D01*
X185683837Y-71753894D01*
X185742802Y-71643580D01*
X185779112Y-71523882D01*
X185791372Y-71399400D01*
X185791372Y-69621400D01*
X186064628Y-69621400D01*
X186064628Y-71399400D01*
X186076888Y-71523882D01*
X186113198Y-71643580D01*
X186172163Y-71753894D01*
X186251515Y-71850585D01*
X186348206Y-71929937D01*
X186458520Y-71988902D01*
X186578218Y-72025212D01*
X186702700Y-72037472D01*
X187693300Y-72037472D01*
X187817782Y-72025212D01*
X187937480Y-71988902D01*
X188047794Y-71929937D01*
X188144485Y-71850585D01*
X188223837Y-71753894D01*
X188282802Y-71643580D01*
X188319112Y-71523882D01*
X188331372Y-71399400D01*
X188331372Y-69621400D01*
X188604628Y-69621400D01*
X188604628Y-71399400D01*
X188616888Y-71523882D01*
X188653198Y-71643580D01*
X188712163Y-71753894D01*
X188791515Y-71850585D01*
X188888206Y-71929937D01*
X188998520Y-71988902D01*
X189118218Y-72025212D01*
X189242700Y-72037472D01*
X190233300Y-72037472D01*
X190357782Y-72025212D01*
X190477480Y-71988902D01*
X190587794Y-71929937D01*
X190684485Y-71850585D01*
X190763837Y-71753894D01*
X190822802Y-71643580D01*
X190859112Y-71523882D01*
X190871372Y-71399400D01*
X190871372Y-69621400D01*
X191144628Y-69621400D01*
X191144628Y-71399400D01*
X191156888Y-71523882D01*
X191193198Y-71643580D01*
X191252163Y-71753894D01*
X191331515Y-71850585D01*
X191428206Y-71929937D01*
X191538520Y-71988902D01*
X191658218Y-72025212D01*
X191782700Y-72037472D01*
X192773300Y-72037472D01*
X192897782Y-72025212D01*
X193017480Y-71988902D01*
X193127794Y-71929937D01*
X193224485Y-71850585D01*
X193303837Y-71753894D01*
X193362802Y-71643580D01*
X193399112Y-71523882D01*
X193411372Y-71399400D01*
X193411372Y-69621400D01*
X193684628Y-69621400D01*
X193684628Y-71399400D01*
X193696888Y-71523882D01*
X193733198Y-71643580D01*
X193792163Y-71753894D01*
X193871515Y-71850585D01*
X193968206Y-71929937D01*
X194078520Y-71988902D01*
X194198218Y-72025212D01*
X194322700Y-72037472D01*
X195313300Y-72037472D01*
X195437782Y-72025212D01*
X195557480Y-71988902D01*
X195667794Y-71929937D01*
X195764485Y-71850585D01*
X195843837Y-71753894D01*
X195902802Y-71643580D01*
X195939112Y-71523882D01*
X195951372Y-71399400D01*
X195951372Y-69621400D01*
X196224628Y-69621400D01*
X196224628Y-71399400D01*
X196236888Y-71523882D01*
X196273198Y-71643580D01*
X196332163Y-71753894D01*
X196411515Y-71850585D01*
X196508206Y-71929937D01*
X196618520Y-71988902D01*
X196738218Y-72025212D01*
X196862700Y-72037472D01*
X197853300Y-72037472D01*
X197977782Y-72025212D01*
X198097480Y-71988902D01*
X198207794Y-71929937D01*
X198304485Y-71850585D01*
X198383837Y-71753894D01*
X198442802Y-71643580D01*
X198479112Y-71523882D01*
X198491372Y-71399400D01*
X198491372Y-69621400D01*
X198764628Y-69621400D01*
X198764628Y-71399400D01*
X198776888Y-71523882D01*
X198813198Y-71643580D01*
X198872163Y-71753894D01*
X198951515Y-71850585D01*
X199048206Y-71929937D01*
X199158520Y-71988902D01*
X199278218Y-72025212D01*
X199402700Y-72037472D01*
X200393300Y-72037472D01*
X200517782Y-72025212D01*
X200637480Y-71988902D01*
X200747794Y-71929937D01*
X200844485Y-71850585D01*
X200923837Y-71753894D01*
X200982802Y-71643580D01*
X201019112Y-71523882D01*
X201031372Y-71399400D01*
X201031372Y-69621400D01*
X201019112Y-69496918D01*
X200982802Y-69377220D01*
X200923837Y-69266906D01*
X200844485Y-69170215D01*
X200747794Y-69090863D01*
X200637480Y-69031898D01*
X200517782Y-68995588D01*
X200393300Y-68983328D01*
X199402700Y-68983328D01*
X199278218Y-68995588D01*
X199158520Y-69031898D01*
X199048206Y-69090863D01*
X198951515Y-69170215D01*
X198872163Y-69266906D01*
X198813198Y-69377220D01*
X198776888Y-69496918D01*
X198764628Y-69621400D01*
X198491372Y-69621400D01*
X198479112Y-69496918D01*
X198442802Y-69377220D01*
X198383837Y-69266906D01*
X198304485Y-69170215D01*
X198207794Y-69090863D01*
X198097480Y-69031898D01*
X197977782Y-68995588D01*
X197853300Y-68983328D01*
X196862700Y-68983328D01*
X196738218Y-68995588D01*
X196618520Y-69031898D01*
X196508206Y-69090863D01*
X196411515Y-69170215D01*
X196332163Y-69266906D01*
X196273198Y-69377220D01*
X196236888Y-69496918D01*
X196224628Y-69621400D01*
X195951372Y-69621400D01*
X195939112Y-69496918D01*
X195902802Y-69377220D01*
X195843837Y-69266906D01*
X195764485Y-69170215D01*
X195667794Y-69090863D01*
X195557480Y-69031898D01*
X195437782Y-68995588D01*
X195313300Y-68983328D01*
X194322700Y-68983328D01*
X194198218Y-68995588D01*
X194078520Y-69031898D01*
X193968206Y-69090863D01*
X193871515Y-69170215D01*
X193792163Y-69266906D01*
X193733198Y-69377220D01*
X193696888Y-69496918D01*
X193684628Y-69621400D01*
X193411372Y-69621400D01*
X193399112Y-69496918D01*
X193362802Y-69377220D01*
X193303837Y-69266906D01*
X193224485Y-69170215D01*
X193127794Y-69090863D01*
X193017480Y-69031898D01*
X192897782Y-68995588D01*
X192773300Y-68983328D01*
X191782700Y-68983328D01*
X191658218Y-68995588D01*
X191538520Y-69031898D01*
X191428206Y-69090863D01*
X191331515Y-69170215D01*
X191252163Y-69266906D01*
X191193198Y-69377220D01*
X191156888Y-69496918D01*
X191144628Y-69621400D01*
X190871372Y-69621400D01*
X190859112Y-69496918D01*
X190822802Y-69377220D01*
X190763837Y-69266906D01*
X190684485Y-69170215D01*
X190587794Y-69090863D01*
X190477480Y-69031898D01*
X190357782Y-68995588D01*
X190233300Y-68983328D01*
X189242700Y-68983328D01*
X189118218Y-68995588D01*
X188998520Y-69031898D01*
X188888206Y-69090863D01*
X188791515Y-69170215D01*
X188712163Y-69266906D01*
X188653198Y-69377220D01*
X188616888Y-69496918D01*
X188604628Y-69621400D01*
X188331372Y-69621400D01*
X188319112Y-69496918D01*
X188282802Y-69377220D01*
X188223837Y-69266906D01*
X188144485Y-69170215D01*
X188047794Y-69090863D01*
X187937480Y-69031898D01*
X187817782Y-68995588D01*
X187693300Y-68983328D01*
X186702700Y-68983328D01*
X186578218Y-68995588D01*
X186458520Y-69031898D01*
X186348206Y-69090863D01*
X186251515Y-69170215D01*
X186172163Y-69266906D01*
X186113198Y-69377220D01*
X186076888Y-69496918D01*
X186064628Y-69621400D01*
X185791372Y-69621400D01*
X185779112Y-69496918D01*
X185742802Y-69377220D01*
X185683837Y-69266906D01*
X185604485Y-69170215D01*
X185507794Y-69090863D01*
X185397480Y-69031898D01*
X185277782Y-68995588D01*
X185153300Y-68983328D01*
X184162700Y-68983328D01*
X184038218Y-68995588D01*
X183918520Y-69031898D01*
X183808206Y-69090863D01*
X183711515Y-69170215D01*
X183632163Y-69266906D01*
X183573198Y-69377220D01*
X183536888Y-69496918D01*
X183524628Y-69621400D01*
X183251372Y-69621400D01*
X183239112Y-69496918D01*
X183202802Y-69377220D01*
X183143837Y-69266906D01*
X183064485Y-69170215D01*
X182967794Y-69090863D01*
X182857480Y-69031898D01*
X182737782Y-68995588D01*
X182613300Y-68983328D01*
X181622700Y-68983328D01*
X181498218Y-68995588D01*
X181378520Y-69031898D01*
X181268206Y-69090863D01*
X181171515Y-69170215D01*
X181092163Y-69266906D01*
X181033198Y-69377220D01*
X180996888Y-69496918D01*
X180984628Y-69621400D01*
X180711372Y-69621400D01*
X180699112Y-69496918D01*
X180662802Y-69377220D01*
X180603837Y-69266906D01*
X180524485Y-69170215D01*
X180427794Y-69090863D01*
X180317480Y-69031898D01*
X180197782Y-68995588D01*
X180073300Y-68983328D01*
X179082700Y-68983328D01*
X178958218Y-68995588D01*
X178838520Y-69031898D01*
X178728206Y-69090863D01*
X178631515Y-69170215D01*
X178552163Y-69266906D01*
X178493198Y-69377220D01*
X178456888Y-69496918D01*
X178444628Y-69621400D01*
X178171372Y-69621400D01*
X178159112Y-69496918D01*
X178122802Y-69377220D01*
X178063837Y-69266906D01*
X177984485Y-69170215D01*
X177887794Y-69090863D01*
X177777480Y-69031898D01*
X177657782Y-68995588D01*
X177533300Y-68983328D01*
X176542700Y-68983328D01*
X176418218Y-68995588D01*
X176298520Y-69031898D01*
X176188206Y-69090863D01*
X176091515Y-69170215D01*
X176012163Y-69266906D01*
X175953198Y-69377220D01*
X175916888Y-69496918D01*
X175904628Y-69621400D01*
X137531372Y-69621400D01*
X137519112Y-69496918D01*
X137482802Y-69377220D01*
X137423837Y-69266906D01*
X137344485Y-69170215D01*
X137247794Y-69090863D01*
X137137480Y-69031898D01*
X137017782Y-68995588D01*
X136893300Y-68983328D01*
X135902700Y-68983328D01*
X135778218Y-68995588D01*
X135658520Y-69031898D01*
X135548206Y-69090863D01*
X135451515Y-69170215D01*
X135372163Y-69266906D01*
X135313198Y-69377220D01*
X135276888Y-69496918D01*
X135264628Y-69621400D01*
X134991372Y-69621400D01*
X134979112Y-69496918D01*
X134942802Y-69377220D01*
X134883837Y-69266906D01*
X134804485Y-69170215D01*
X134707794Y-69090863D01*
X134597480Y-69031898D01*
X134477782Y-68995588D01*
X134353300Y-68983328D01*
X133362700Y-68983328D01*
X133238218Y-68995588D01*
X133118520Y-69031898D01*
X133008206Y-69090863D01*
X132911515Y-69170215D01*
X132832163Y-69266906D01*
X132773198Y-69377220D01*
X132736888Y-69496918D01*
X132724628Y-69621400D01*
X132451372Y-69621400D01*
X132439112Y-69496918D01*
X132402802Y-69377220D01*
X132343837Y-69266906D01*
X132264485Y-69170215D01*
X132167794Y-69090863D01*
X132057480Y-69031898D01*
X131937782Y-68995588D01*
X131813300Y-68983328D01*
X130822700Y-68983328D01*
X130698218Y-68995588D01*
X130578520Y-69031898D01*
X130468206Y-69090863D01*
X130371515Y-69170215D01*
X130292163Y-69266906D01*
X130233198Y-69377220D01*
X130196888Y-69496918D01*
X130184628Y-69621400D01*
X129911372Y-69621400D01*
X129899112Y-69496918D01*
X129862802Y-69377220D01*
X129803837Y-69266906D01*
X129724485Y-69170215D01*
X129627794Y-69090863D01*
X129517480Y-69031898D01*
X129397782Y-68995588D01*
X129273300Y-68983328D01*
X128282700Y-68983328D01*
X128158218Y-68995588D01*
X128143000Y-69000204D01*
X128143000Y-66127796D01*
X128158218Y-66132412D01*
X128282700Y-66144672D01*
X129273300Y-66144672D01*
X129397782Y-66132412D01*
X129517480Y-66096102D01*
X129627794Y-66037137D01*
X129724485Y-65957785D01*
X129803837Y-65861094D01*
X129862802Y-65750780D01*
X129899112Y-65631082D01*
X129911372Y-65506600D01*
X129911372Y-63728600D01*
X130184628Y-63728600D01*
X130184628Y-65506600D01*
X130196888Y-65631082D01*
X130233198Y-65750780D01*
X130292163Y-65861094D01*
X130371515Y-65957785D01*
X130468206Y-66037137D01*
X130578520Y-66096102D01*
X130698218Y-66132412D01*
X130822700Y-66144672D01*
X131813300Y-66144672D01*
X131937782Y-66132412D01*
X132057480Y-66096102D01*
X132167794Y-66037137D01*
X132264485Y-65957785D01*
X132343837Y-65861094D01*
X132402802Y-65750780D01*
X132439112Y-65631082D01*
X132451372Y-65506600D01*
X132451372Y-63728600D01*
X132724628Y-63728600D01*
X132724628Y-65506600D01*
X132736888Y-65631082D01*
X132773198Y-65750780D01*
X132832163Y-65861094D01*
X132911515Y-65957785D01*
X133008206Y-66037137D01*
X133118520Y-66096102D01*
X133238218Y-66132412D01*
X133362700Y-66144672D01*
X134353300Y-66144672D01*
X134477782Y-66132412D01*
X134597480Y-66096102D01*
X134707794Y-66037137D01*
X134804485Y-65957785D01*
X134883837Y-65861094D01*
X134942802Y-65750780D01*
X134979112Y-65631082D01*
X134991372Y-65506600D01*
X134991372Y-63728600D01*
X135264628Y-63728600D01*
X135264628Y-65506600D01*
X135276888Y-65631082D01*
X135313198Y-65750780D01*
X135372163Y-65861094D01*
X135451515Y-65957785D01*
X135548206Y-66037137D01*
X135658520Y-66096102D01*
X135778218Y-66132412D01*
X135902700Y-66144672D01*
X136893300Y-66144672D01*
X137017782Y-66132412D01*
X137137480Y-66096102D01*
X137247794Y-66037137D01*
X137344485Y-65957785D01*
X137423837Y-65861094D01*
X137482802Y-65750780D01*
X137519112Y-65631082D01*
X137531372Y-65506600D01*
X137531372Y-63728600D01*
X178444628Y-63728600D01*
X178444628Y-65506600D01*
X178456888Y-65631082D01*
X178493198Y-65750780D01*
X178552163Y-65861094D01*
X178631515Y-65957785D01*
X178728206Y-66037137D01*
X178838520Y-66096102D01*
X178958218Y-66132412D01*
X179082700Y-66144672D01*
X180073300Y-66144672D01*
X180197782Y-66132412D01*
X180317480Y-66096102D01*
X180427794Y-66037137D01*
X180524485Y-65957785D01*
X180603837Y-65861094D01*
X180662802Y-65750780D01*
X180699112Y-65631082D01*
X180711372Y-65506600D01*
X180711372Y-63728600D01*
X180984628Y-63728600D01*
X180984628Y-65506600D01*
X180996888Y-65631082D01*
X181033198Y-65750780D01*
X181092163Y-65861094D01*
X181171515Y-65957785D01*
X181268206Y-66037137D01*
X181378520Y-66096102D01*
X181498218Y-66132412D01*
X181622700Y-66144672D01*
X182613300Y-66144672D01*
X182737782Y-66132412D01*
X182857480Y-66096102D01*
X182967794Y-66037137D01*
X183064485Y-65957785D01*
X183143837Y-65861094D01*
X183202802Y-65750780D01*
X183239112Y-65631082D01*
X183251372Y-65506600D01*
X183251372Y-63728600D01*
X183524628Y-63728600D01*
X183524628Y-65506600D01*
X183536888Y-65631082D01*
X183573198Y-65750780D01*
X183632163Y-65861094D01*
X183711515Y-65957785D01*
X183808206Y-66037137D01*
X183918520Y-66096102D01*
X184038218Y-66132412D01*
X184162700Y-66144672D01*
X185153300Y-66144672D01*
X185277782Y-66132412D01*
X185397480Y-66096102D01*
X185507794Y-66037137D01*
X185604485Y-65957785D01*
X185683837Y-65861094D01*
X185742802Y-65750780D01*
X185779112Y-65631082D01*
X185791372Y-65506600D01*
X185791372Y-63728600D01*
X186064628Y-63728600D01*
X186064628Y-65506600D01*
X186076888Y-65631082D01*
X186113198Y-65750780D01*
X186172163Y-65861094D01*
X186251515Y-65957785D01*
X186348206Y-66037137D01*
X186458520Y-66096102D01*
X186578218Y-66132412D01*
X186702700Y-66144672D01*
X187693300Y-66144672D01*
X187817782Y-66132412D01*
X187937480Y-66096102D01*
X188047794Y-66037137D01*
X188144485Y-65957785D01*
X188223837Y-65861094D01*
X188282802Y-65750780D01*
X188319112Y-65631082D01*
X188331372Y-65506600D01*
X188331372Y-63728600D01*
X188604628Y-63728600D01*
X188604628Y-65506600D01*
X188616888Y-65631082D01*
X188653198Y-65750780D01*
X188712163Y-65861094D01*
X188791515Y-65957785D01*
X188888206Y-66037137D01*
X188998520Y-66096102D01*
X189118218Y-66132412D01*
X189242700Y-66144672D01*
X190233300Y-66144672D01*
X190357782Y-66132412D01*
X190477480Y-66096102D01*
X190587794Y-66037137D01*
X190684485Y-65957785D01*
X190763837Y-65861094D01*
X190822802Y-65750780D01*
X190859112Y-65631082D01*
X190871372Y-65506600D01*
X190871372Y-63728600D01*
X191144628Y-63728600D01*
X191144628Y-65506600D01*
X191156888Y-65631082D01*
X191193198Y-65750780D01*
X191252163Y-65861094D01*
X191331515Y-65957785D01*
X191428206Y-66037137D01*
X191538520Y-66096102D01*
X191658218Y-66132412D01*
X191782700Y-66144672D01*
X192773300Y-66144672D01*
X192897782Y-66132412D01*
X193017480Y-66096102D01*
X193127794Y-66037137D01*
X193224485Y-65957785D01*
X193303837Y-65861094D01*
X193362802Y-65750780D01*
X193399112Y-65631082D01*
X193411372Y-65506600D01*
X193411372Y-63728600D01*
X193684628Y-63728600D01*
X193684628Y-65506600D01*
X193696888Y-65631082D01*
X193733198Y-65750780D01*
X193792163Y-65861094D01*
X193871515Y-65957785D01*
X193968206Y-66037137D01*
X194078520Y-66096102D01*
X194198218Y-66132412D01*
X194322700Y-66144672D01*
X195313300Y-66144672D01*
X195437782Y-66132412D01*
X195557480Y-66096102D01*
X195667794Y-66037137D01*
X195764485Y-65957785D01*
X195843837Y-65861094D01*
X195902802Y-65750780D01*
X195939112Y-65631082D01*
X195951372Y-65506600D01*
X195951372Y-63728600D01*
X196224628Y-63728600D01*
X196224628Y-65506600D01*
X196236888Y-65631082D01*
X196273198Y-65750780D01*
X196332163Y-65861094D01*
X196411515Y-65957785D01*
X196508206Y-66037137D01*
X196618520Y-66096102D01*
X196738218Y-66132412D01*
X196862700Y-66144672D01*
X197853300Y-66144672D01*
X197977782Y-66132412D01*
X198097480Y-66096102D01*
X198207794Y-66037137D01*
X198304485Y-65957785D01*
X198383837Y-65861094D01*
X198442802Y-65750780D01*
X198479112Y-65631082D01*
X198491372Y-65506600D01*
X198491372Y-63728600D01*
X198764628Y-63728600D01*
X198764628Y-65506600D01*
X198776888Y-65631082D01*
X198813198Y-65750780D01*
X198872163Y-65861094D01*
X198951515Y-65957785D01*
X199048206Y-66037137D01*
X199158520Y-66096102D01*
X199278218Y-66132412D01*
X199402700Y-66144672D01*
X200393300Y-66144672D01*
X200517782Y-66132412D01*
X200637480Y-66096102D01*
X200747794Y-66037137D01*
X200844485Y-65957785D01*
X200923837Y-65861094D01*
X200982802Y-65750780D01*
X201019112Y-65631082D01*
X201031372Y-65506600D01*
X201031372Y-63728600D01*
X201019112Y-63604118D01*
X200982802Y-63484420D01*
X200923837Y-63374106D01*
X200844485Y-63277415D01*
X200747794Y-63198063D01*
X200637480Y-63139098D01*
X200517782Y-63102788D01*
X200393300Y-63090528D01*
X199402700Y-63090528D01*
X199278218Y-63102788D01*
X199158520Y-63139098D01*
X199048206Y-63198063D01*
X198951515Y-63277415D01*
X198872163Y-63374106D01*
X198813198Y-63484420D01*
X198776888Y-63604118D01*
X198764628Y-63728600D01*
X198491372Y-63728600D01*
X198479112Y-63604118D01*
X198442802Y-63484420D01*
X198383837Y-63374106D01*
X198304485Y-63277415D01*
X198207794Y-63198063D01*
X198097480Y-63139098D01*
X197977782Y-63102788D01*
X197853300Y-63090528D01*
X196862700Y-63090528D01*
X196738218Y-63102788D01*
X196618520Y-63139098D01*
X196508206Y-63198063D01*
X196411515Y-63277415D01*
X196332163Y-63374106D01*
X196273198Y-63484420D01*
X196236888Y-63604118D01*
X196224628Y-63728600D01*
X195951372Y-63728600D01*
X195939112Y-63604118D01*
X195902802Y-63484420D01*
X195843837Y-63374106D01*
X195764485Y-63277415D01*
X195667794Y-63198063D01*
X195557480Y-63139098D01*
X195437782Y-63102788D01*
X195313300Y-63090528D01*
X194322700Y-63090528D01*
X194198218Y-63102788D01*
X194078520Y-63139098D01*
X193968206Y-63198063D01*
X193871515Y-63277415D01*
X193792163Y-63374106D01*
X193733198Y-63484420D01*
X193696888Y-63604118D01*
X193684628Y-63728600D01*
X193411372Y-63728600D01*
X193399112Y-63604118D01*
X193362802Y-63484420D01*
X193303837Y-63374106D01*
X193224485Y-63277415D01*
X193127794Y-63198063D01*
X193017480Y-63139098D01*
X192897782Y-63102788D01*
X192773300Y-63090528D01*
X191782700Y-63090528D01*
X191658218Y-63102788D01*
X191538520Y-63139098D01*
X191428206Y-63198063D01*
X191331515Y-63277415D01*
X191252163Y-63374106D01*
X191193198Y-63484420D01*
X191156888Y-63604118D01*
X191144628Y-63728600D01*
X190871372Y-63728600D01*
X190859112Y-63604118D01*
X190822802Y-63484420D01*
X190763837Y-63374106D01*
X190684485Y-63277415D01*
X190587794Y-63198063D01*
X190477480Y-63139098D01*
X190357782Y-63102788D01*
X190233300Y-63090528D01*
X189242700Y-63090528D01*
X189118218Y-63102788D01*
X188998520Y-63139098D01*
X188888206Y-63198063D01*
X188791515Y-63277415D01*
X188712163Y-63374106D01*
X188653198Y-63484420D01*
X188616888Y-63604118D01*
X188604628Y-63728600D01*
X188331372Y-63728600D01*
X188319112Y-63604118D01*
X188282802Y-63484420D01*
X188223837Y-63374106D01*
X188144485Y-63277415D01*
X188047794Y-63198063D01*
X187937480Y-63139098D01*
X187817782Y-63102788D01*
X187693300Y-63090528D01*
X186702700Y-63090528D01*
X186578218Y-63102788D01*
X186458520Y-63139098D01*
X186348206Y-63198063D01*
X186251515Y-63277415D01*
X186172163Y-63374106D01*
X186113198Y-63484420D01*
X186076888Y-63604118D01*
X186064628Y-63728600D01*
X185791372Y-63728600D01*
X185779112Y-63604118D01*
X185742802Y-63484420D01*
X185683837Y-63374106D01*
X185604485Y-63277415D01*
X185507794Y-63198063D01*
X185397480Y-63139098D01*
X185277782Y-63102788D01*
X185153300Y-63090528D01*
X184162700Y-63090528D01*
X184038218Y-63102788D01*
X183918520Y-63139098D01*
X183808206Y-63198063D01*
X183711515Y-63277415D01*
X183632163Y-63374106D01*
X183573198Y-63484420D01*
X183536888Y-63604118D01*
X183524628Y-63728600D01*
X183251372Y-63728600D01*
X183239112Y-63604118D01*
X183202802Y-63484420D01*
X183143837Y-63374106D01*
X183064485Y-63277415D01*
X182967794Y-63198063D01*
X182857480Y-63139098D01*
X182737782Y-63102788D01*
X182613300Y-63090528D01*
X181622700Y-63090528D01*
X181498218Y-63102788D01*
X181378520Y-63139098D01*
X181268206Y-63198063D01*
X181171515Y-63277415D01*
X181092163Y-63374106D01*
X181033198Y-63484420D01*
X180996888Y-63604118D01*
X180984628Y-63728600D01*
X180711372Y-63728600D01*
X180699112Y-63604118D01*
X180662802Y-63484420D01*
X180603837Y-63374106D01*
X180524485Y-63277415D01*
X180427794Y-63198063D01*
X180317480Y-63139098D01*
X180197782Y-63102788D01*
X180073300Y-63090528D01*
X179082700Y-63090528D01*
X178958218Y-63102788D01*
X178838520Y-63139098D01*
X178728206Y-63198063D01*
X178631515Y-63277415D01*
X178552163Y-63374106D01*
X178493198Y-63484420D01*
X178456888Y-63604118D01*
X178444628Y-63728600D01*
X137531372Y-63728600D01*
X137519112Y-63604118D01*
X137482802Y-63484420D01*
X137423837Y-63374106D01*
X137344485Y-63277415D01*
X137247794Y-63198063D01*
X137137480Y-63139098D01*
X137017782Y-63102788D01*
X136893300Y-63090528D01*
X135902700Y-63090528D01*
X135778218Y-63102788D01*
X135658520Y-63139098D01*
X135548206Y-63198063D01*
X135451515Y-63277415D01*
X135372163Y-63374106D01*
X135313198Y-63484420D01*
X135276888Y-63604118D01*
X135264628Y-63728600D01*
X134991372Y-63728600D01*
X134979112Y-63604118D01*
X134942802Y-63484420D01*
X134883837Y-63374106D01*
X134804485Y-63277415D01*
X134707794Y-63198063D01*
X134597480Y-63139098D01*
X134477782Y-63102788D01*
X134353300Y-63090528D01*
X133362700Y-63090528D01*
X133238218Y-63102788D01*
X133118520Y-63139098D01*
X133008206Y-63198063D01*
X132911515Y-63277415D01*
X132832163Y-63374106D01*
X132773198Y-63484420D01*
X132736888Y-63604118D01*
X132724628Y-63728600D01*
X132451372Y-63728600D01*
X132439112Y-63604118D01*
X132402802Y-63484420D01*
X132343837Y-63374106D01*
X132264485Y-63277415D01*
X132167794Y-63198063D01*
X132057480Y-63139098D01*
X131937782Y-63102788D01*
X131813300Y-63090528D01*
X130822700Y-63090528D01*
X130698218Y-63102788D01*
X130578520Y-63139098D01*
X130468206Y-63198063D01*
X130371515Y-63277415D01*
X130292163Y-63374106D01*
X130233198Y-63484420D01*
X130196888Y-63604118D01*
X130184628Y-63728600D01*
X129911372Y-63728600D01*
X129899112Y-63604118D01*
X129862802Y-63484420D01*
X129803837Y-63374106D01*
X129724485Y-63277415D01*
X129627794Y-63198063D01*
X129517480Y-63139098D01*
X129397782Y-63102788D01*
X129273300Y-63090528D01*
X128282700Y-63090528D01*
X128158218Y-63102788D01*
X128143000Y-63107404D01*
X128143000Y-63006015D01*
X128317898Y-62971226D01*
X128506256Y-62893205D01*
X128675774Y-62779937D01*
X128819937Y-62635774D01*
X128933205Y-62466256D01*
X129011226Y-62277898D01*
X129051000Y-62077939D01*
X129051000Y-61874061D01*
X129011226Y-61674102D01*
X128933205Y-61485744D01*
X128819937Y-61316226D01*
X128675774Y-61172063D01*
X128506256Y-61058795D01*
X128317898Y-60980774D01*
X128117939Y-60941000D01*
X127914061Y-60941000D01*
X127714102Y-60980774D01*
X127525744Y-61058795D01*
X127356226Y-61172063D01*
X127212063Y-61316226D01*
X127098795Y-61485744D01*
X127020774Y-61674102D01*
X126981000Y-61874061D01*
X126981000Y-61933370D01*
X126868654Y-62045716D01*
X126839578Y-62069578D01*
X126813500Y-62101355D01*
X126744355Y-62185608D01*
X126709756Y-62250340D01*
X126673598Y-62317986D01*
X126630026Y-62461623D01*
X126627394Y-62488351D01*
X126615314Y-62611000D01*
X126619000Y-62648423D01*
X126619000Y-63090528D01*
X125742700Y-63090528D01*
X125618218Y-63102788D01*
X125498520Y-63139098D01*
X125388206Y-63198063D01*
X125291515Y-63277415D01*
X125212163Y-63374106D01*
X125153198Y-63484420D01*
X125116888Y-63604118D01*
X125104628Y-63728600D01*
X125104628Y-65506600D01*
X125116888Y-65631082D01*
X125153198Y-65750780D01*
X125212163Y-65861094D01*
X125291515Y-65957785D01*
X125388206Y-66037137D01*
X125498520Y-66096102D01*
X125618218Y-66132412D01*
X125742700Y-66144672D01*
X126619000Y-66144672D01*
X126619001Y-68983328D01*
X125742700Y-68983328D01*
X125618218Y-68995588D01*
X125498520Y-69031898D01*
X125388206Y-69090863D01*
X125291515Y-69170215D01*
X125212163Y-69266906D01*
X125153198Y-69377220D01*
X125116888Y-69496918D01*
X125104628Y-69621400D01*
X125104628Y-71399400D01*
X125116888Y-71523882D01*
X125153198Y-71643580D01*
X125212163Y-71753894D01*
X125291515Y-71850585D01*
X125388206Y-71929937D01*
X125498520Y-71988902D01*
X125618218Y-72025212D01*
X125742700Y-72037472D01*
X126619001Y-72037472D01*
X126619001Y-72136000D01*
X125161711Y-72136000D01*
X125119774Y-72094063D01*
X124950256Y-71980795D01*
X124761898Y-71902774D01*
X124616205Y-71873794D01*
X124644485Y-71850585D01*
X124723837Y-71753894D01*
X124782802Y-71643580D01*
X124819112Y-71523882D01*
X124831372Y-71399400D01*
X124831372Y-69621400D01*
X124819112Y-69496918D01*
X124782802Y-69377220D01*
X124723837Y-69266906D01*
X124644485Y-69170215D01*
X124547794Y-69090863D01*
X124437480Y-69031898D01*
X124317782Y-68995588D01*
X124193300Y-68983328D01*
X123202700Y-68983328D01*
X123078218Y-68995588D01*
X122958520Y-69031898D01*
X122848206Y-69090863D01*
X122751515Y-69170215D01*
X122672163Y-69266906D01*
X122613198Y-69377220D01*
X122576888Y-69496918D01*
X122564628Y-69621400D01*
X122291372Y-69621400D01*
X122279112Y-69496918D01*
X122242802Y-69377220D01*
X122183837Y-69266906D01*
X122104485Y-69170215D01*
X122007794Y-69090863D01*
X121897480Y-69031898D01*
X121777782Y-68995588D01*
X121653300Y-68983328D01*
X120662700Y-68983328D01*
X120538218Y-68995588D01*
X120418520Y-69031898D01*
X120308206Y-69090863D01*
X120211515Y-69170215D01*
X120132163Y-69266906D01*
X120073198Y-69377220D01*
X120036888Y-69496918D01*
X120024628Y-69621400D01*
X119751372Y-69621400D01*
X119739112Y-69496918D01*
X119702802Y-69377220D01*
X119643837Y-69266906D01*
X119564485Y-69170215D01*
X119467794Y-69090863D01*
X119357480Y-69031898D01*
X119237782Y-68995588D01*
X119113300Y-68983328D01*
X118122700Y-68983328D01*
X117998218Y-68995588D01*
X117878520Y-69031898D01*
X117768206Y-69090863D01*
X117671515Y-69170215D01*
X117592163Y-69266906D01*
X117533198Y-69377220D01*
X117496888Y-69496918D01*
X117484628Y-69621400D01*
X117211372Y-69621400D01*
X117199112Y-69496918D01*
X117162802Y-69377220D01*
X117103837Y-69266906D01*
X117024485Y-69170215D01*
X116927794Y-69090863D01*
X116817480Y-69031898D01*
X116697782Y-68995588D01*
X116573300Y-68983328D01*
X115582700Y-68983328D01*
X115458218Y-68995588D01*
X115338520Y-69031898D01*
X115228206Y-69090863D01*
X115131515Y-69170215D01*
X115052163Y-69266906D01*
X114993198Y-69377220D01*
X114956888Y-69496918D01*
X114944628Y-69621400D01*
X114671372Y-69621400D01*
X114659112Y-69496918D01*
X114622802Y-69377220D01*
X114563837Y-69266906D01*
X114484485Y-69170215D01*
X114387794Y-69090863D01*
X114300000Y-69043935D01*
X114300000Y-68641630D01*
X115320353Y-67621278D01*
X115349422Y-67597422D01*
X115444645Y-67481392D01*
X115515402Y-67349015D01*
X115558974Y-67205378D01*
X115570000Y-67093426D01*
X115570000Y-67093424D01*
X115573686Y-67056001D01*
X115570000Y-67018578D01*
X115570000Y-66143421D01*
X115582700Y-66144672D01*
X116573300Y-66144672D01*
X116697782Y-66132412D01*
X116817480Y-66096102D01*
X116927794Y-66037137D01*
X117024485Y-65957785D01*
X117103837Y-65861094D01*
X117162802Y-65750780D01*
X117199112Y-65631082D01*
X117211372Y-65506600D01*
X117211372Y-63728600D01*
X117484628Y-63728600D01*
X117484628Y-65506600D01*
X117496888Y-65631082D01*
X117533198Y-65750780D01*
X117592163Y-65861094D01*
X117671515Y-65957785D01*
X117768206Y-66037137D01*
X117878520Y-66096102D01*
X117998218Y-66132412D01*
X118122700Y-66144672D01*
X119113300Y-66144672D01*
X119237782Y-66132412D01*
X119357480Y-66096102D01*
X119467794Y-66037137D01*
X119564485Y-65957785D01*
X119643837Y-65861094D01*
X119702802Y-65750780D01*
X119739112Y-65631082D01*
X119751372Y-65506600D01*
X119751372Y-63728600D01*
X120024628Y-63728600D01*
X120024628Y-65506600D01*
X120036888Y-65631082D01*
X120073198Y-65750780D01*
X120132163Y-65861094D01*
X120211515Y-65957785D01*
X120308206Y-66037137D01*
X120418520Y-66096102D01*
X120538218Y-66132412D01*
X120662700Y-66144672D01*
X121653300Y-66144672D01*
X121777782Y-66132412D01*
X121897480Y-66096102D01*
X122007794Y-66037137D01*
X122104485Y-65957785D01*
X122183837Y-65861094D01*
X122242802Y-65750780D01*
X122279112Y-65631082D01*
X122291372Y-65506600D01*
X122291372Y-63728600D01*
X122564628Y-63728600D01*
X122564628Y-65506600D01*
X122576888Y-65631082D01*
X122613198Y-65750780D01*
X122672163Y-65861094D01*
X122751515Y-65957785D01*
X122848206Y-66037137D01*
X122958520Y-66096102D01*
X123078218Y-66132412D01*
X123202700Y-66144672D01*
X124193300Y-66144672D01*
X124317782Y-66132412D01*
X124437480Y-66096102D01*
X124547794Y-66037137D01*
X124644485Y-65957785D01*
X124723837Y-65861094D01*
X124782802Y-65750780D01*
X124819112Y-65631082D01*
X124831372Y-65506600D01*
X124831372Y-63728600D01*
X124819112Y-63604118D01*
X124782802Y-63484420D01*
X124723837Y-63374106D01*
X124644485Y-63277415D01*
X124547794Y-63198063D01*
X124437480Y-63139098D01*
X124317782Y-63102788D01*
X124193300Y-63090528D01*
X123202700Y-63090528D01*
X123078218Y-63102788D01*
X122958520Y-63139098D01*
X122848206Y-63198063D01*
X122751515Y-63277415D01*
X122672163Y-63374106D01*
X122613198Y-63484420D01*
X122576888Y-63604118D01*
X122564628Y-63728600D01*
X122291372Y-63728600D01*
X122279112Y-63604118D01*
X122242802Y-63484420D01*
X122183837Y-63374106D01*
X122104485Y-63277415D01*
X122007794Y-63198063D01*
X121897480Y-63139098D01*
X121777782Y-63102788D01*
X121653300Y-63090528D01*
X120662700Y-63090528D01*
X120538218Y-63102788D01*
X120418520Y-63139098D01*
X120308206Y-63198063D01*
X120211515Y-63277415D01*
X120132163Y-63374106D01*
X120073198Y-63484420D01*
X120036888Y-63604118D01*
X120024628Y-63728600D01*
X119751372Y-63728600D01*
X119739112Y-63604118D01*
X119702802Y-63484420D01*
X119643837Y-63374106D01*
X119564485Y-63277415D01*
X119467794Y-63198063D01*
X119357480Y-63139098D01*
X119237782Y-63102788D01*
X119113300Y-63090528D01*
X118122700Y-63090528D01*
X117998218Y-63102788D01*
X117878520Y-63139098D01*
X117768206Y-63198063D01*
X117671515Y-63277415D01*
X117592163Y-63374106D01*
X117533198Y-63484420D01*
X117496888Y-63604118D01*
X117484628Y-63728600D01*
X117211372Y-63728600D01*
X117199112Y-63604118D01*
X117162802Y-63484420D01*
X117103837Y-63374106D01*
X117024485Y-63277415D01*
X116927794Y-63198063D01*
X116817480Y-63139098D01*
X116697782Y-63102788D01*
X116573300Y-63090528D01*
X115582700Y-63090528D01*
X115570000Y-63091779D01*
X115570000Y-62775423D01*
X115573686Y-62738000D01*
X115565998Y-62659940D01*
X115558974Y-62588622D01*
X115515402Y-62444985D01*
X115472756Y-62365200D01*
X115444645Y-62312607D01*
X115373279Y-62225648D01*
X115349422Y-62196578D01*
X115320352Y-62172721D01*
X113938000Y-60790370D01*
X113938000Y-60731061D01*
X113898226Y-60531102D01*
X113820205Y-60342744D01*
X113706937Y-60173226D01*
X113562774Y-60029063D01*
X113393256Y-59915795D01*
X113204898Y-59837774D01*
X113004939Y-59798000D01*
X112928000Y-59798000D01*
X112928000Y-50927000D01*
X114152670Y-50927000D01*
X114193892Y-51345533D01*
X114315974Y-51747982D01*
X114514223Y-52118881D01*
X114781023Y-52443977D01*
X115106119Y-52710777D01*
X115477018Y-52909026D01*
X115879467Y-53031108D01*
X116193118Y-53062000D01*
X118502882Y-53062000D01*
X118816533Y-53031108D01*
X119218982Y-52909026D01*
X119589881Y-52710777D01*
X119914977Y-52443977D01*
X120181777Y-52118881D01*
X120380026Y-51747982D01*
X120502108Y-51345533D01*
X120543330Y-50927000D01*
X120530822Y-50800000D01*
X131890670Y-50800000D01*
X131931892Y-51218533D01*
X132053974Y-51620982D01*
X132252223Y-51991881D01*
X132519023Y-52316977D01*
X132844119Y-52583777D01*
X133215018Y-52782026D01*
X133617467Y-52904108D01*
X133931118Y-52935000D01*
X136240882Y-52935000D01*
X136554533Y-52904108D01*
X136956982Y-52782026D01*
X137327881Y-52583777D01*
X137652977Y-52316977D01*
X137919777Y-51991881D01*
X138118026Y-51620982D01*
X138240108Y-51218533D01*
X138281330Y-50800000D01*
X149458670Y-50800000D01*
X149499892Y-51218533D01*
X149621974Y-51620982D01*
X149820223Y-51991881D01*
X150087023Y-52316977D01*
X150412119Y-52583777D01*
X150783018Y-52782026D01*
X151185467Y-52904108D01*
X151499118Y-52935000D01*
X153808882Y-52935000D01*
X154122533Y-52904108D01*
X154524982Y-52782026D01*
X154895881Y-52583777D01*
X155220977Y-52316977D01*
X155487777Y-51991881D01*
X155686026Y-51620982D01*
X155808108Y-51218533D01*
X155849330Y-50800000D01*
X155808108Y-50381467D01*
X155686026Y-49979018D01*
X155487777Y-49608119D01*
X155220977Y-49283023D01*
X154895881Y-49016223D01*
X154524982Y-48817974D01*
X154122533Y-48695892D01*
X153808882Y-48665000D01*
X151499118Y-48665000D01*
X151185467Y-48695892D01*
X150783018Y-48817974D01*
X150412119Y-49016223D01*
X150087023Y-49283023D01*
X149820223Y-49608119D01*
X149621974Y-49979018D01*
X149499892Y-50381467D01*
X149458670Y-50800000D01*
X138281330Y-50800000D01*
X138240108Y-50381467D01*
X138118026Y-49979018D01*
X137919777Y-49608119D01*
X137652977Y-49283023D01*
X137327881Y-49016223D01*
X136956982Y-48817974D01*
X136554533Y-48695892D01*
X136240882Y-48665000D01*
X133931118Y-48665000D01*
X133617467Y-48695892D01*
X133215018Y-48817974D01*
X132844119Y-49016223D01*
X132519023Y-49283023D01*
X132252223Y-49608119D01*
X132053974Y-49979018D01*
X131931892Y-50381467D01*
X131890670Y-50800000D01*
X120530822Y-50800000D01*
X120502108Y-50508467D01*
X120380026Y-50106018D01*
X120181777Y-49735119D01*
X119914977Y-49410023D01*
X119589881Y-49143223D01*
X119218982Y-48944974D01*
X118816533Y-48822892D01*
X118502882Y-48792000D01*
X116193118Y-48792000D01*
X115879467Y-48822892D01*
X115477018Y-48944974D01*
X115106119Y-49143223D01*
X114781023Y-49410023D01*
X114514223Y-49735119D01*
X114315974Y-50106018D01*
X114193892Y-50508467D01*
X114152670Y-50927000D01*
X112928000Y-50927000D01*
X112928000Y-40375408D01*
X168529000Y-40375408D01*
X168529000Y-40650592D01*
X168582686Y-40920490D01*
X168687995Y-41174727D01*
X168840880Y-41403535D01*
X169035465Y-41598120D01*
X169264273Y-41751005D01*
X169518510Y-41856314D01*
X169788408Y-41910000D01*
X170063592Y-41910000D01*
X170333490Y-41856314D01*
X170587727Y-41751005D01*
X170816535Y-41598120D01*
X171011120Y-41403535D01*
X171164005Y-41174727D01*
X171269314Y-40920490D01*
X171323000Y-40650592D01*
X171323000Y-40375408D01*
X171269314Y-40105510D01*
X171164005Y-39851273D01*
X171011120Y-39622465D01*
X170816535Y-39427880D01*
X170587727Y-39274995D01*
X170333490Y-39169686D01*
X170063592Y-39116000D01*
X169788408Y-39116000D01*
X169518510Y-39169686D01*
X169264273Y-39274995D01*
X169035465Y-39427880D01*
X168840880Y-39622465D01*
X168687995Y-39851273D01*
X168582686Y-40105510D01*
X168529000Y-40375408D01*
X112928000Y-40375408D01*
X112928000Y-35981106D01*
X169278300Y-35981106D01*
X169278300Y-36408894D01*
X169361757Y-36828462D01*
X169525464Y-37223686D01*
X169763130Y-37579378D01*
X170065622Y-37881870D01*
X170421314Y-38119536D01*
X170816538Y-38283243D01*
X171236106Y-38366700D01*
X171663894Y-38366700D01*
X172083462Y-38283243D01*
X172478686Y-38119536D01*
X172834378Y-37881870D01*
X173136870Y-37579378D01*
X173374536Y-37223686D01*
X173538243Y-36828462D01*
X173621700Y-36408894D01*
X173621700Y-35981106D01*
X173538243Y-35561538D01*
X173374536Y-35166314D01*
X173136870Y-34810622D01*
X172834378Y-34508130D01*
X172478686Y-34270464D01*
X172083462Y-34106757D01*
X171663894Y-34023300D01*
X171236106Y-34023300D01*
X170816538Y-34106757D01*
X170421314Y-34270464D01*
X170065622Y-34508130D01*
X169763130Y-34810622D01*
X169525464Y-35166314D01*
X169361757Y-35561538D01*
X169278300Y-35981106D01*
X112928000Y-35981106D01*
X112928000Y-34068279D01*
X112942722Y-33918131D01*
X112976953Y-33804754D01*
X113032555Y-33700181D01*
X113107407Y-33608404D01*
X113198664Y-33532909D01*
X113302844Y-33476581D01*
X113415976Y-33441560D01*
X113564022Y-33426000D01*
X193538191Y-33426000D01*
X196069700Y-33501133D01*
G37*
X196069700Y-33501133D02*
X198582508Y-33725395D01*
X201077584Y-34098288D01*
X203546175Y-34618501D01*
X205979555Y-35284199D01*
X208369186Y-36093044D01*
X210706636Y-37042184D01*
X212983662Y-38128270D01*
X215192289Y-39347497D01*
X217324722Y-40695564D01*
X219373438Y-42167717D01*
X221331245Y-43758781D01*
X223191259Y-45463171D01*
X224946897Y-47274848D01*
X226592030Y-49187492D01*
X228120810Y-51194302D01*
X229527891Y-53288261D01*
X230808308Y-55461979D01*
X231957556Y-57707807D01*
X232971587Y-60017833D01*
X233846838Y-62383946D01*
X234580222Y-64797797D01*
X235169157Y-67250886D01*
X235611570Y-69734581D01*
X235905909Y-72240164D01*
X236051430Y-74763960D01*
X236068000Y-75950632D01*
X236068001Y-90899711D01*
X236038766Y-91197876D01*
X235961551Y-91453624D01*
X235836131Y-91689504D01*
X235667289Y-91896525D01*
X235461446Y-92066813D01*
X235226444Y-92193879D01*
X234971240Y-92272877D01*
X234675118Y-92304000D01*
X218980419Y-92304000D01*
X218948000Y-92300807D01*
X218915581Y-92304000D01*
X218818617Y-92313550D01*
X218694207Y-92351290D01*
X218579550Y-92412575D01*
X218479052Y-92495052D01*
X218396575Y-92595550D01*
X218335290Y-92710207D01*
X218297550Y-92834617D01*
X218284807Y-92964000D01*
X218288001Y-92996429D01*
X218288000Y-113759581D01*
X218284807Y-113792000D01*
X218297550Y-113921383D01*
X218335290Y-114045793D01*
X218396575Y-114160450D01*
X218477645Y-114259233D01*
X218479052Y-114260948D01*
X218579550Y-114343425D01*
X218694207Y-114404710D01*
X218818617Y-114442450D01*
X218948000Y-114455193D01*
X218980419Y-114452000D01*
X234663721Y-114452000D01*
X234961875Y-114481234D01*
X235217622Y-114558448D01*
X235453504Y-114683869D01*
X235660530Y-114852716D01*
X235830813Y-115058554D01*
X235957879Y-115293556D01*
X236036876Y-115548756D01*
X236068001Y-115844891D01*
X236068000Y-123379339D01*
X235727946Y-123487211D01*
X235672974Y-123510772D01*
X235617659Y-123533571D01*
X235609553Y-123537954D01*
X235262030Y-123729006D01*
X235212674Y-123762801D01*
X235162847Y-123795906D01*
X235155747Y-123801780D01*
X234851951Y-124056695D01*
X234810105Y-124099428D01*
X234767653Y-124141584D01*
X234761829Y-124148725D01*
X234513332Y-124457794D01*
X234480606Y-124507805D01*
X234447127Y-124557439D01*
X234442801Y-124565576D01*
X234259068Y-124917022D01*
X234236656Y-124972494D01*
X234213478Y-125027632D01*
X234210815Y-125036454D01*
X234098845Y-125416896D01*
X234087645Y-125475612D01*
X234075607Y-125534254D01*
X234074708Y-125543425D01*
X234038766Y-125938370D01*
X234039184Y-125998186D01*
X234038766Y-126058003D01*
X234039665Y-126067174D01*
X234081118Y-126461577D01*
X234093148Y-126520183D01*
X234104355Y-126578935D01*
X234107019Y-126587757D01*
X234224290Y-126966599D01*
X234247474Y-127021750D01*
X234269880Y-127077208D01*
X234274206Y-127085345D01*
X234462828Y-127434193D01*
X234496283Y-127483792D01*
X234529032Y-127533838D01*
X234534855Y-127540977D01*
X234534858Y-127540981D01*
X234534862Y-127540985D01*
X234787644Y-127846547D01*
X234830061Y-127888669D01*
X234871943Y-127931438D01*
X234879044Y-127937311D01*
X235186369Y-128187960D01*
X235236178Y-128221052D01*
X235285550Y-128254859D01*
X235293656Y-128259241D01*
X235643813Y-128445423D01*
X235699105Y-128468212D01*
X235754101Y-128491784D01*
X235762905Y-128494509D01*
X236068001Y-128586623D01*
X236068000Y-136619721D01*
X236038766Y-136917876D01*
X235961551Y-137173624D01*
X235836131Y-137409504D01*
X235667289Y-137616525D01*
X235461446Y-137786813D01*
X235226444Y-137913879D01*
X234971240Y-137992877D01*
X234675118Y-138024000D01*
X114332279Y-138024000D01*
X114034124Y-137994766D01*
X113778376Y-137917551D01*
X113542496Y-137792131D01*
X113335475Y-137623289D01*
X113165187Y-137417446D01*
X113038121Y-137182444D01*
X112959123Y-136927240D01*
X112928000Y-136631118D01*
X112928000Y-128588661D01*
X113268055Y-128480789D01*
X113323040Y-128457222D01*
X113378341Y-128434429D01*
X113386447Y-128430046D01*
X113733970Y-128238994D01*
X113783327Y-128205199D01*
X113833153Y-128172094D01*
X113840254Y-128166220D01*
X114144049Y-127911305D01*
X114185912Y-127868555D01*
X114228347Y-127826416D01*
X114234171Y-127819274D01*
X114482668Y-127510206D01*
X114515415Y-127460164D01*
X114548873Y-127410561D01*
X114553199Y-127402425D01*
X114736932Y-127050978D01*
X114759337Y-126995523D01*
X114782522Y-126940368D01*
X114785185Y-126931546D01*
X114897155Y-126551104D01*
X114908355Y-126492388D01*
X114920393Y-126433746D01*
X114921292Y-126424575D01*
X114957234Y-126029630D01*
X114956816Y-125969814D01*
X114957234Y-125909997D01*
X114956334Y-125900826D01*
X114914882Y-125506422D01*
X114902855Y-125447829D01*
X114891645Y-125389065D01*
X114888981Y-125380243D01*
X114771710Y-125001401D01*
X114748526Y-124946250D01*
X114726120Y-124890792D01*
X114721794Y-124882655D01*
X114533172Y-124533807D01*
X114499717Y-124484208D01*
X114466968Y-124434162D01*
X114461144Y-124427021D01*
X114208356Y-124121453D01*
X114165923Y-124079315D01*
X114124057Y-124036562D01*
X114116962Y-124030694D01*
X114116957Y-124030689D01*
X114116952Y-124030685D01*
X113809631Y-123780041D01*
X113759838Y-123746959D01*
X113710449Y-123713141D01*
X113702343Y-123708759D01*
X113352187Y-123522577D01*
X113296867Y-123499776D01*
X113241899Y-123476216D01*
X113233099Y-123473492D01*
X113233093Y-123473490D01*
X112928000Y-123381378D01*
X112928000Y-115206175D01*
X113042700Y-115217472D01*
X114033300Y-115217472D01*
X114157782Y-115205212D01*
X114277480Y-115168902D01*
X114387794Y-115109937D01*
X114484485Y-115030585D01*
X114563837Y-114933894D01*
X114622802Y-114823580D01*
X114659112Y-114703882D01*
X114671372Y-114579400D01*
X114671372Y-113844299D01*
X114681000Y-113746546D01*
X114681000Y-112995445D01*
X114952230Y-112724216D01*
X114944628Y-112801400D01*
X114944628Y-114579400D01*
X114956888Y-114703882D01*
X114993198Y-114823580D01*
X115052163Y-114933894D01*
X115131515Y-115030585D01*
X115228206Y-115109937D01*
X115338520Y-115168902D01*
X115458218Y-115205212D01*
X115582700Y-115217472D01*
X116573300Y-115217472D01*
X116697782Y-115205212D01*
X116817480Y-115168902D01*
X116927794Y-115109937D01*
X117024485Y-115030585D01*
X117103837Y-114933894D01*
X117162802Y-114823580D01*
X117199112Y-114703882D01*
X117211372Y-114579400D01*
X117211372Y-112801400D01*
X117484628Y-112801400D01*
X117484628Y-114579400D01*
X117496888Y-114703882D01*
X117533198Y-114823580D01*
X117592163Y-114933894D01*
X117671515Y-115030585D01*
X117768206Y-115109937D01*
X117878520Y-115168902D01*
X117998218Y-115205212D01*
X118122700Y-115217472D01*
X119113300Y-115217472D01*
X119237782Y-115205212D01*
X119357480Y-115168902D01*
X119467794Y-115109937D01*
X119564485Y-115030585D01*
X119643837Y-114933894D01*
X119702802Y-114823580D01*
X119739112Y-114703882D01*
X119751372Y-114579400D01*
X119751372Y-112801400D01*
X120024628Y-112801400D01*
X120024628Y-114579400D01*
X120036888Y-114703882D01*
X120073198Y-114823580D01*
X120132163Y-114933894D01*
X120211515Y-115030585D01*
X120308206Y-115109937D01*
X120418520Y-115168902D01*
X120538218Y-115205212D01*
X120662700Y-115217472D01*
X121653300Y-115217472D01*
X121777782Y-115205212D01*
X121897480Y-115168902D01*
X122007794Y-115109937D01*
X122104485Y-115030585D01*
X122183837Y-114933894D01*
X122242802Y-114823580D01*
X122279112Y-114703882D01*
X122291372Y-114579400D01*
X122291372Y-112801400D01*
X122564628Y-112801400D01*
X122564628Y-114579400D01*
X122576888Y-114703882D01*
X122613198Y-114823580D01*
X122672163Y-114933894D01*
X122751515Y-115030585D01*
X122848206Y-115109937D01*
X122958520Y-115168902D01*
X123078218Y-115205212D01*
X123202700Y-115217472D01*
X124193300Y-115217472D01*
X124317782Y-115205212D01*
X124437480Y-115168902D01*
X124547794Y-115109937D01*
X124644485Y-115030585D01*
X124723837Y-114933894D01*
X124782802Y-114823580D01*
X124819112Y-114703882D01*
X124831372Y-114579400D01*
X124831372Y-112801400D01*
X125104628Y-112801400D01*
X125104628Y-114579400D01*
X125116888Y-114703882D01*
X125153198Y-114823580D01*
X125212163Y-114933894D01*
X125291515Y-115030585D01*
X125388206Y-115109937D01*
X125498520Y-115168902D01*
X125618218Y-115205212D01*
X125742700Y-115217472D01*
X126733300Y-115217472D01*
X126857782Y-115205212D01*
X126977480Y-115168902D01*
X127087794Y-115109937D01*
X127184485Y-115030585D01*
X127263837Y-114933894D01*
X127322802Y-114823580D01*
X127359112Y-114703882D01*
X127371372Y-114579400D01*
X127371372Y-112801400D01*
X127644628Y-112801400D01*
X127644628Y-114579400D01*
X127656888Y-114703882D01*
X127693198Y-114823580D01*
X127752163Y-114933894D01*
X127831515Y-115030585D01*
X127928206Y-115109937D01*
X128038520Y-115168902D01*
X128158218Y-115205212D01*
X128282700Y-115217472D01*
X129273300Y-115217472D01*
X129397782Y-115205212D01*
X129517480Y-115168902D01*
X129627794Y-115109937D01*
X129724485Y-115030585D01*
X129803837Y-114933894D01*
X129862802Y-114823580D01*
X129899112Y-114703882D01*
X129911372Y-114579400D01*
X129911372Y-112801400D01*
X130184628Y-112801400D01*
X130184628Y-114579400D01*
X130196888Y-114703882D01*
X130233198Y-114823580D01*
X130292163Y-114933894D01*
X130371515Y-115030585D01*
X130468206Y-115109937D01*
X130578520Y-115168902D01*
X130698218Y-115205212D01*
X130822700Y-115217472D01*
X131813300Y-115217472D01*
X131937782Y-115205212D01*
X132057480Y-115168902D01*
X132167794Y-115109937D01*
X132264485Y-115030585D01*
X132343837Y-114933894D01*
X132402802Y-114823580D01*
X132439112Y-114703882D01*
X132451372Y-114579400D01*
X132451372Y-112801400D01*
X132724628Y-112801400D01*
X132724628Y-114579400D01*
X132736888Y-114703882D01*
X132773198Y-114823580D01*
X132832163Y-114933894D01*
X132911515Y-115030585D01*
X133008206Y-115109937D01*
X133118520Y-115168902D01*
X133238218Y-115205212D01*
X133362700Y-115217472D01*
X134353300Y-115217472D01*
X134477782Y-115205212D01*
X134597480Y-115168902D01*
X134707794Y-115109937D01*
X134804485Y-115030585D01*
X134883837Y-114933894D01*
X134942802Y-114823580D01*
X134979112Y-114703882D01*
X134991372Y-114579400D01*
X134991372Y-112801400D01*
X135264628Y-112801400D01*
X135264628Y-114579400D01*
X135276888Y-114703882D01*
X135313198Y-114823580D01*
X135372163Y-114933894D01*
X135451515Y-115030585D01*
X135548206Y-115109937D01*
X135658520Y-115168902D01*
X135778218Y-115205212D01*
X135902700Y-115217472D01*
X136893300Y-115217472D01*
X137017782Y-115205212D01*
X137137480Y-115168902D01*
X137247794Y-115109937D01*
X137344485Y-115030585D01*
X137423837Y-114933894D01*
X137482802Y-114823580D01*
X137519112Y-114703882D01*
X137531372Y-114579400D01*
X137531372Y-112801400D01*
X137519112Y-112676918D01*
X137482802Y-112557220D01*
X137423837Y-112446906D01*
X137344485Y-112350215D01*
X137247794Y-112270863D01*
X137137480Y-112211898D01*
X137017782Y-112175588D01*
X136893300Y-112163328D01*
X135902700Y-112163328D01*
X135778218Y-112175588D01*
X135658520Y-112211898D01*
X135548206Y-112270863D01*
X135451515Y-112350215D01*
X135372163Y-112446906D01*
X135313198Y-112557220D01*
X135276888Y-112676918D01*
X135264628Y-112801400D01*
X134991372Y-112801400D01*
X134979112Y-112676918D01*
X134942802Y-112557220D01*
X134883837Y-112446906D01*
X134804485Y-112350215D01*
X134707794Y-112270863D01*
X134597480Y-112211898D01*
X134477782Y-112175588D01*
X134353300Y-112163328D01*
X133362700Y-112163328D01*
X133238218Y-112175588D01*
X133118520Y-112211898D01*
X133008206Y-112270863D01*
X132911515Y-112350215D01*
X132832163Y-112446906D01*
X132773198Y-112557220D01*
X132736888Y-112676918D01*
X132724628Y-112801400D01*
X132451372Y-112801400D01*
X132439112Y-112676918D01*
X132402802Y-112557220D01*
X132343837Y-112446906D01*
X132264485Y-112350215D01*
X132167794Y-112270863D01*
X132057480Y-112211898D01*
X131937782Y-112175588D01*
X131813300Y-112163328D01*
X130822700Y-112163328D01*
X130698218Y-112175588D01*
X130578520Y-112211898D01*
X130468206Y-112270863D01*
X130371515Y-112350215D01*
X130292163Y-112446906D01*
X130233198Y-112557220D01*
X130196888Y-112676918D01*
X130184628Y-112801400D01*
X129911372Y-112801400D01*
X129899112Y-112676918D01*
X129862802Y-112557220D01*
X129803837Y-112446906D01*
X129724485Y-112350215D01*
X129627794Y-112270863D01*
X129517480Y-112211898D01*
X129397782Y-112175588D01*
X129273300Y-112163328D01*
X128282700Y-112163328D01*
X128158218Y-112175588D01*
X128038520Y-112211898D01*
X127928206Y-112270863D01*
X127831515Y-112350215D01*
X127752163Y-112446906D01*
X127693198Y-112557220D01*
X127656888Y-112676918D01*
X127644628Y-112801400D01*
X127371372Y-112801400D01*
X127359112Y-112676918D01*
X127322802Y-112557220D01*
X127263837Y-112446906D01*
X127184485Y-112350215D01*
X127087794Y-112270863D01*
X126977480Y-112211898D01*
X126857782Y-112175588D01*
X126733300Y-112163328D01*
X125742700Y-112163328D01*
X125618218Y-112175588D01*
X125498520Y-112211898D01*
X125388206Y-112270863D01*
X125291515Y-112350215D01*
X125212163Y-112446906D01*
X125153198Y-112557220D01*
X125116888Y-112676918D01*
X125104628Y-112801400D01*
X124831372Y-112801400D01*
X124819112Y-112676918D01*
X124782802Y-112557220D01*
X124723837Y-112446906D01*
X124644485Y-112350215D01*
X124547794Y-112270863D01*
X124437480Y-112211898D01*
X124317782Y-112175588D01*
X124193300Y-112163328D01*
X123202700Y-112163328D01*
X123078218Y-112175588D01*
X122958520Y-112211898D01*
X122848206Y-112270863D01*
X122751515Y-112350215D01*
X122672163Y-112446906D01*
X122613198Y-112557220D01*
X122576888Y-112676918D01*
X122564628Y-112801400D01*
X122291372Y-112801400D01*
X122279112Y-112676918D01*
X122242802Y-112557220D01*
X122183837Y-112446906D01*
X122104485Y-112350215D01*
X122007794Y-112270863D01*
X121897480Y-112211898D01*
X121777782Y-112175588D01*
X121653300Y-112163328D01*
X120662700Y-112163328D01*
X120538218Y-112175588D01*
X120418520Y-112211898D01*
X120308206Y-112270863D01*
X120211515Y-112350215D01*
X120132163Y-112446906D01*
X120073198Y-112557220D01*
X120036888Y-112676918D01*
X120024628Y-112801400D01*
X119751372Y-112801400D01*
X119739112Y-112676918D01*
X119702802Y-112557220D01*
X119643837Y-112446906D01*
X119564485Y-112350215D01*
X119467794Y-112270863D01*
X119357480Y-112211898D01*
X119237782Y-112175588D01*
X119113300Y-112163328D01*
X118122700Y-112163328D01*
X117998218Y-112175588D01*
X117878520Y-112211898D01*
X117768206Y-112270863D01*
X117671515Y-112350215D01*
X117592163Y-112446906D01*
X117533198Y-112557220D01*
X117496888Y-112676918D01*
X117484628Y-112801400D01*
X117211372Y-112801400D01*
X117199112Y-112676918D01*
X117162802Y-112557220D01*
X117103837Y-112446906D01*
X117024485Y-112350215D01*
X116927794Y-112270863D01*
X116817480Y-112211898D01*
X116697782Y-112175588D01*
X116573300Y-112163328D01*
X115582700Y-112163328D01*
X115505516Y-112170930D01*
X115789446Y-111887000D01*
X137194555Y-111887000D01*
X139868077Y-114560523D01*
X139903867Y-114604133D01*
X140077911Y-114746968D01*
X140276477Y-114853103D01*
X140410027Y-114893615D01*
X140491932Y-114918461D01*
X140512517Y-114920488D01*
X140659854Y-114935000D01*
X140659861Y-114935000D01*
X140716000Y-114940529D01*
X140772139Y-114935000D01*
X176013071Y-114935000D01*
X176091515Y-115030585D01*
X176188206Y-115109937D01*
X176298520Y-115168902D01*
X176418218Y-115205212D01*
X176542700Y-115217472D01*
X177533300Y-115217472D01*
X177657782Y-115205212D01*
X177777480Y-115168902D01*
X177887794Y-115109937D01*
X177984485Y-115030585D01*
X178063837Y-114933894D01*
X178122802Y-114823580D01*
X178159112Y-114703882D01*
X178171372Y-114579400D01*
X178171372Y-113844297D01*
X178186529Y-113690401D01*
X178171372Y-113536504D01*
X178171372Y-112801400D01*
X178444628Y-112801400D01*
X178444628Y-114579400D01*
X178456888Y-114703882D01*
X178493198Y-114823580D01*
X178552163Y-114933894D01*
X178631515Y-115030585D01*
X178728206Y-115109937D01*
X178838520Y-115168902D01*
X178958218Y-115205212D01*
X179082700Y-115217472D01*
X180073300Y-115217472D01*
X180197782Y-115205212D01*
X180317480Y-115168902D01*
X180427794Y-115109937D01*
X180524485Y-115030585D01*
X180603837Y-114933894D01*
X180662802Y-114823580D01*
X180699112Y-114703882D01*
X180711372Y-114579400D01*
X180711372Y-112801400D01*
X180984628Y-112801400D01*
X180984628Y-114579400D01*
X180996888Y-114703882D01*
X181033198Y-114823580D01*
X181092163Y-114933894D01*
X181171515Y-115030585D01*
X181268206Y-115109937D01*
X181378520Y-115168902D01*
X181498218Y-115205212D01*
X181622700Y-115217472D01*
X182613300Y-115217472D01*
X182737782Y-115205212D01*
X182857480Y-115168902D01*
X182967794Y-115109937D01*
X183064485Y-115030585D01*
X183143837Y-114933894D01*
X183202802Y-114823580D01*
X183239112Y-114703882D01*
X183251372Y-114579400D01*
X183251372Y-112801400D01*
X183524628Y-112801400D01*
X183524628Y-114579400D01*
X183536888Y-114703882D01*
X183573198Y-114823580D01*
X183632163Y-114933894D01*
X183711515Y-115030585D01*
X183808206Y-115109937D01*
X183918520Y-115168902D01*
X184038218Y-115205212D01*
X184162700Y-115217472D01*
X185153300Y-115217472D01*
X185277782Y-115205212D01*
X185397480Y-115168902D01*
X185507794Y-115109937D01*
X185604485Y-115030585D01*
X185683837Y-114933894D01*
X185742802Y-114823580D01*
X185779112Y-114703882D01*
X185791372Y-114579400D01*
X185791372Y-112801400D01*
X186064628Y-112801400D01*
X186064628Y-114579400D01*
X186076888Y-114703882D01*
X186113198Y-114823580D01*
X186172163Y-114933894D01*
X186251515Y-115030585D01*
X186348206Y-115109937D01*
X186458520Y-115168902D01*
X186578218Y-115205212D01*
X186702700Y-115217472D01*
X187693300Y-115217472D01*
X187817782Y-115205212D01*
X187937480Y-115168902D01*
X188047794Y-115109937D01*
X188144485Y-115030585D01*
X188223837Y-114933894D01*
X188282802Y-114823580D01*
X188319112Y-114703882D01*
X188331372Y-114579400D01*
X188331372Y-112801400D01*
X188604628Y-112801400D01*
X188604628Y-114579400D01*
X188616888Y-114703882D01*
X188653198Y-114823580D01*
X188712163Y-114933894D01*
X188791515Y-115030585D01*
X188888206Y-115109937D01*
X188998520Y-115168902D01*
X189118218Y-115205212D01*
X189242700Y-115217472D01*
X190233300Y-115217472D01*
X190357782Y-115205212D01*
X190477480Y-115168902D01*
X190587794Y-115109937D01*
X190684485Y-115030585D01*
X190763837Y-114933894D01*
X190822802Y-114823580D01*
X190859112Y-114703882D01*
X190871372Y-114579400D01*
X190871372Y-112801400D01*
X191144628Y-112801400D01*
X191144628Y-114579400D01*
X191156888Y-114703882D01*
X191193198Y-114823580D01*
X191252163Y-114933894D01*
X191331515Y-115030585D01*
X191428206Y-115109937D01*
X191538520Y-115168902D01*
X191658218Y-115205212D01*
X191782700Y-115217472D01*
X192773300Y-115217472D01*
X192897782Y-115205212D01*
X193017480Y-115168902D01*
X193127794Y-115109937D01*
X193224485Y-115030585D01*
X193303837Y-114933894D01*
X193362802Y-114823580D01*
X193399112Y-114703882D01*
X193411372Y-114579400D01*
X193411372Y-112801400D01*
X193684628Y-112801400D01*
X193684628Y-114579400D01*
X193696888Y-114703882D01*
X193733198Y-114823580D01*
X193792163Y-114933894D01*
X193871515Y-115030585D01*
X193968206Y-115109937D01*
X194078520Y-115168902D01*
X194198218Y-115205212D01*
X194322700Y-115217472D01*
X195313300Y-115217472D01*
X195437782Y-115205212D01*
X195557480Y-115168902D01*
X195667794Y-115109937D01*
X195764485Y-115030585D01*
X195843837Y-114933894D01*
X195902802Y-114823580D01*
X195939112Y-114703882D01*
X195951372Y-114579400D01*
X195951372Y-112801400D01*
X196224628Y-112801400D01*
X196224628Y-114579400D01*
X196236888Y-114703882D01*
X196273198Y-114823580D01*
X196332163Y-114933894D01*
X196411515Y-115030585D01*
X196508206Y-115109937D01*
X196618520Y-115168902D01*
X196738218Y-115205212D01*
X196862700Y-115217472D01*
X197853300Y-115217472D01*
X197977782Y-115205212D01*
X198097480Y-115168902D01*
X198207794Y-115109937D01*
X198304485Y-115030585D01*
X198383837Y-114933894D01*
X198442802Y-114823580D01*
X198479112Y-114703882D01*
X198491372Y-114579400D01*
X198491372Y-112801400D01*
X198764628Y-112801400D01*
X198764628Y-114579400D01*
X198776888Y-114703882D01*
X198813198Y-114823580D01*
X198872163Y-114933894D01*
X198951515Y-115030585D01*
X199048206Y-115109937D01*
X199158520Y-115168902D01*
X199278218Y-115205212D01*
X199402700Y-115217472D01*
X200393300Y-115217472D01*
X200517782Y-115205212D01*
X200637480Y-115168902D01*
X200747794Y-115109937D01*
X200844485Y-115030585D01*
X200923837Y-114933894D01*
X200982802Y-114823580D01*
X201019112Y-114703882D01*
X201031372Y-114579400D01*
X201031372Y-112801400D01*
X201019112Y-112676918D01*
X200982802Y-112557220D01*
X200923837Y-112446906D01*
X200844485Y-112350215D01*
X200747794Y-112270863D01*
X200637480Y-112211898D01*
X200517782Y-112175588D01*
X200393300Y-112163328D01*
X199402700Y-112163328D01*
X199278218Y-112175588D01*
X199158520Y-112211898D01*
X199048206Y-112270863D01*
X198951515Y-112350215D01*
X198872163Y-112446906D01*
X198813198Y-112557220D01*
X198776888Y-112676918D01*
X198764628Y-112801400D01*
X198491372Y-112801400D01*
X198479112Y-112676918D01*
X198442802Y-112557220D01*
X198383837Y-112446906D01*
X198304485Y-112350215D01*
X198207794Y-112270863D01*
X198097480Y-112211898D01*
X197977782Y-112175588D01*
X197853300Y-112163328D01*
X196862700Y-112163328D01*
X196738218Y-112175588D01*
X196618520Y-112211898D01*
X196508206Y-112270863D01*
X196411515Y-112350215D01*
X196332163Y-112446906D01*
X196273198Y-112557220D01*
X196236888Y-112676918D01*
X196224628Y-112801400D01*
X195951372Y-112801400D01*
X195939112Y-112676918D01*
X195902802Y-112557220D01*
X195843837Y-112446906D01*
X195764485Y-112350215D01*
X195667794Y-112270863D01*
X195557480Y-112211898D01*
X195437782Y-112175588D01*
X195313300Y-112163328D01*
X194322700Y-112163328D01*
X194198218Y-112175588D01*
X194078520Y-112211898D01*
X193968206Y-112270863D01*
X193871515Y-112350215D01*
X193792163Y-112446906D01*
X193733198Y-112557220D01*
X193696888Y-112676918D01*
X193684628Y-112801400D01*
X193411372Y-112801400D01*
X193399112Y-112676918D01*
X193362802Y-112557220D01*
X193303837Y-112446906D01*
X193224485Y-112350215D01*
X193127794Y-112270863D01*
X193017480Y-112211898D01*
X192897782Y-112175588D01*
X192773300Y-112163328D01*
X191782700Y-112163328D01*
X191658218Y-112175588D01*
X191538520Y-112211898D01*
X191428206Y-112270863D01*
X191331515Y-112350215D01*
X191252163Y-112446906D01*
X191193198Y-112557220D01*
X191156888Y-112676918D01*
X191144628Y-112801400D01*
X190871372Y-112801400D01*
X190859112Y-112676918D01*
X190822802Y-112557220D01*
X190763837Y-112446906D01*
X190684485Y-112350215D01*
X190587794Y-112270863D01*
X190477480Y-112211898D01*
X190357782Y-112175588D01*
X190233300Y-112163328D01*
X189242700Y-112163328D01*
X189118218Y-112175588D01*
X188998520Y-112211898D01*
X188888206Y-112270863D01*
X188791515Y-112350215D01*
X188712163Y-112446906D01*
X188653198Y-112557220D01*
X188616888Y-112676918D01*
X188604628Y-112801400D01*
X188331372Y-112801400D01*
X188319112Y-112676918D01*
X188282802Y-112557220D01*
X188223837Y-112446906D01*
X188144485Y-112350215D01*
X188047794Y-112270863D01*
X187937480Y-112211898D01*
X187817782Y-112175588D01*
X187693300Y-112163328D01*
X186702700Y-112163328D01*
X186578218Y-112175588D01*
X186458520Y-112211898D01*
X186348206Y-112270863D01*
X186251515Y-112350215D01*
X186172163Y-112446906D01*
X186113198Y-112557220D01*
X186076888Y-112676918D01*
X186064628Y-112801400D01*
X185791372Y-112801400D01*
X185779112Y-112676918D01*
X185742802Y-112557220D01*
X185683837Y-112446906D01*
X185604485Y-112350215D01*
X185507794Y-112270863D01*
X185397480Y-112211898D01*
X185277782Y-112175588D01*
X185153300Y-112163328D01*
X184162700Y-112163328D01*
X184038218Y-112175588D01*
X183918520Y-112211898D01*
X183808206Y-112270863D01*
X183711515Y-112350215D01*
X183632163Y-112446906D01*
X183573198Y-112557220D01*
X183536888Y-112676918D01*
X183524628Y-112801400D01*
X183251372Y-112801400D01*
X183239112Y-112676918D01*
X183202802Y-112557220D01*
X183143837Y-112446906D01*
X183064485Y-112350215D01*
X182967794Y-112270863D01*
X182857480Y-112211898D01*
X182737782Y-112175588D01*
X182613300Y-112163328D01*
X181622700Y-112163328D01*
X181498218Y-112175588D01*
X181378520Y-112211898D01*
X181268206Y-112270863D01*
X181171515Y-112350215D01*
X181092163Y-112446906D01*
X181033198Y-112557220D01*
X180996888Y-112676918D01*
X180984628Y-112801400D01*
X180711372Y-112801400D01*
X180699112Y-112676918D01*
X180662802Y-112557220D01*
X180603837Y-112446906D01*
X180524485Y-112350215D01*
X180427794Y-112270863D01*
X180317480Y-112211898D01*
X180197782Y-112175588D01*
X180073300Y-112163328D01*
X179082700Y-112163328D01*
X178958218Y-112175588D01*
X178838520Y-112211898D01*
X178728206Y-112270863D01*
X178631515Y-112350215D01*
X178552163Y-112446906D01*
X178493198Y-112557220D01*
X178456888Y-112676918D01*
X178444628Y-112801400D01*
X178171372Y-112801400D01*
X178159112Y-112676918D01*
X178122802Y-112557220D01*
X178063837Y-112446906D01*
X177984485Y-112350215D01*
X177887794Y-112270863D01*
X177777480Y-112211898D01*
X177657782Y-112175588D01*
X177533300Y-112163328D01*
X176542700Y-112163328D01*
X176418218Y-112175588D01*
X176298520Y-112211898D01*
X176188206Y-112270863D01*
X176091515Y-112350215D01*
X176012163Y-112446906D01*
X175953198Y-112557220D01*
X175925357Y-112649000D01*
X141189446Y-112649000D01*
X138515927Y-109975482D01*
X138480133Y-109931867D01*
X138306089Y-109789032D01*
X138107523Y-109682897D01*
X137892067Y-109617539D01*
X137724146Y-109601000D01*
X137724139Y-109601000D01*
X137668000Y-109595471D01*
X137611861Y-109601000D01*
X115372139Y-109601000D01*
X115316000Y-109595471D01*
X115259861Y-109601000D01*
X115259854Y-109601000D01*
X115112517Y-109615512D01*
X115091932Y-109617539D01*
X114876476Y-109682897D01*
X114807311Y-109719867D01*
X114677911Y-109789032D01*
X114503867Y-109931867D01*
X114468077Y-109975477D01*
X112928000Y-111515555D01*
X112928000Y-109313375D01*
X113042700Y-109324672D01*
X114033300Y-109324672D01*
X114157782Y-109312412D01*
X114277480Y-109276102D01*
X114387794Y-109217137D01*
X114484485Y-109137785D01*
X114563837Y-109041094D01*
X114622802Y-108930780D01*
X114659112Y-108811082D01*
X114671372Y-108686600D01*
X114671372Y-106908600D01*
X117484628Y-106908600D01*
X117484628Y-108686600D01*
X117496888Y-108811082D01*
X117533198Y-108930780D01*
X117592163Y-109041094D01*
X117671515Y-109137785D01*
X117768206Y-109217137D01*
X117878520Y-109276102D01*
X117998218Y-109312412D01*
X118122700Y-109324672D01*
X119113300Y-109324672D01*
X119237782Y-109312412D01*
X119357480Y-109276102D01*
X119467794Y-109217137D01*
X119564485Y-109137785D01*
X119643837Y-109041094D01*
X119702802Y-108930780D01*
X119739112Y-108811082D01*
X119751372Y-108686600D01*
X119751372Y-106908600D01*
X120024628Y-106908600D01*
X120024628Y-108686600D01*
X120036888Y-108811082D01*
X120073198Y-108930780D01*
X120132163Y-109041094D01*
X120211515Y-109137785D01*
X120308206Y-109217137D01*
X120418520Y-109276102D01*
X120538218Y-109312412D01*
X120662700Y-109324672D01*
X121653300Y-109324672D01*
X121777782Y-109312412D01*
X121897480Y-109276102D01*
X122007794Y-109217137D01*
X122104485Y-109137785D01*
X122183837Y-109041094D01*
X122242802Y-108930780D01*
X122279112Y-108811082D01*
X122291372Y-108686600D01*
X122291372Y-106908600D01*
X122564628Y-106908600D01*
X122564628Y-108686600D01*
X122576888Y-108811082D01*
X122613198Y-108930780D01*
X122672163Y-109041094D01*
X122751515Y-109137785D01*
X122848206Y-109217137D01*
X122958520Y-109276102D01*
X123078218Y-109312412D01*
X123202700Y-109324672D01*
X124193300Y-109324672D01*
X124317782Y-109312412D01*
X124437480Y-109276102D01*
X124547794Y-109217137D01*
X124644485Y-109137785D01*
X124723837Y-109041094D01*
X124782802Y-108930780D01*
X124819112Y-108811082D01*
X124831372Y-108686600D01*
X124831372Y-106908600D01*
X124819112Y-106784118D01*
X124782802Y-106664420D01*
X124723837Y-106554106D01*
X124644485Y-106457415D01*
X124547794Y-106378063D01*
X124437480Y-106319098D01*
X124317782Y-106282788D01*
X124193300Y-106270528D01*
X123202700Y-106270528D01*
X123078218Y-106282788D01*
X122958520Y-106319098D01*
X122848206Y-106378063D01*
X122751515Y-106457415D01*
X122672163Y-106554106D01*
X122613198Y-106664420D01*
X122576888Y-106784118D01*
X122564628Y-106908600D01*
X122291372Y-106908600D01*
X122279112Y-106784118D01*
X122242802Y-106664420D01*
X122183837Y-106554106D01*
X122104485Y-106457415D01*
X122007794Y-106378063D01*
X121897480Y-106319098D01*
X121777782Y-106282788D01*
X121653300Y-106270528D01*
X120662700Y-106270528D01*
X120538218Y-106282788D01*
X120418520Y-106319098D01*
X120308206Y-106378063D01*
X120211515Y-106457415D01*
X120132163Y-106554106D01*
X120073198Y-106664420D01*
X120036888Y-106784118D01*
X120024628Y-106908600D01*
X119751372Y-106908600D01*
X119739112Y-106784118D01*
X119702802Y-106664420D01*
X119643837Y-106554106D01*
X119564485Y-106457415D01*
X119467794Y-106378063D01*
X119357480Y-106319098D01*
X119237782Y-106282788D01*
X119113300Y-106270528D01*
X118122700Y-106270528D01*
X117998218Y-106282788D01*
X117878520Y-106319098D01*
X117768206Y-106378063D01*
X117671515Y-106457415D01*
X117592163Y-106554106D01*
X117533198Y-106664420D01*
X117496888Y-106784118D01*
X117484628Y-106908600D01*
X114671372Y-106908600D01*
X114659112Y-106784118D01*
X114622802Y-106664420D01*
X114563837Y-106554106D01*
X114484485Y-106457415D01*
X114387794Y-106378063D01*
X114277480Y-106319098D01*
X114157782Y-106282788D01*
X114033300Y-106270528D01*
X113042700Y-106270528D01*
X112928000Y-106281825D01*
X112928000Y-105816061D01*
X125076000Y-105816061D01*
X125076000Y-106019939D01*
X125115774Y-106219898D01*
X125193795Y-106408256D01*
X125255756Y-106500988D01*
X125212163Y-106554106D01*
X125153198Y-106664420D01*
X125116888Y-106784118D01*
X125104628Y-106908600D01*
X125104628Y-108686600D01*
X125116888Y-108811082D01*
X125153198Y-108930780D01*
X125212163Y-109041094D01*
X125291515Y-109137785D01*
X125388206Y-109217137D01*
X125498520Y-109276102D01*
X125618218Y-109312412D01*
X125742700Y-109324672D01*
X126733300Y-109324672D01*
X126857782Y-109312412D01*
X126977480Y-109276102D01*
X127087794Y-109217137D01*
X127184485Y-109137785D01*
X127263837Y-109041094D01*
X127322802Y-108930780D01*
X127359112Y-108811082D01*
X127371372Y-108686600D01*
X127371372Y-106908600D01*
X127644628Y-106908600D01*
X127644628Y-108686600D01*
X127656888Y-108811082D01*
X127693198Y-108930780D01*
X127752163Y-109041094D01*
X127831515Y-109137785D01*
X127928206Y-109217137D01*
X128038520Y-109276102D01*
X128158218Y-109312412D01*
X128282700Y-109324672D01*
X129273300Y-109324672D01*
X129397782Y-109312412D01*
X129517480Y-109276102D01*
X129627794Y-109217137D01*
X129724485Y-109137785D01*
X129803837Y-109041094D01*
X129862802Y-108930780D01*
X129899112Y-108811082D01*
X129911372Y-108686600D01*
X129911372Y-106908600D01*
X130184628Y-106908600D01*
X130184628Y-108686600D01*
X130196888Y-108811082D01*
X130233198Y-108930780D01*
X130292163Y-109041094D01*
X130371515Y-109137785D01*
X130468206Y-109217137D01*
X130578520Y-109276102D01*
X130698218Y-109312412D01*
X130822700Y-109324672D01*
X131813300Y-109324672D01*
X131937782Y-109312412D01*
X132057480Y-109276102D01*
X132167794Y-109217137D01*
X132264485Y-109137785D01*
X132343837Y-109041094D01*
X132402802Y-108930780D01*
X132439112Y-108811082D01*
X132451372Y-108686600D01*
X132451372Y-106908600D01*
X132724628Y-106908600D01*
X132724628Y-108686600D01*
X132736888Y-108811082D01*
X132773198Y-108930780D01*
X132832163Y-109041094D01*
X132911515Y-109137785D01*
X133008206Y-109217137D01*
X133118520Y-109276102D01*
X133238218Y-109312412D01*
X133362700Y-109324672D01*
X134353300Y-109324672D01*
X134477782Y-109312412D01*
X134597480Y-109276102D01*
X134707794Y-109217137D01*
X134804485Y-109137785D01*
X134883837Y-109041094D01*
X134942802Y-108930780D01*
X134979112Y-108811082D01*
X134991372Y-108686600D01*
X134991372Y-106908600D01*
X135264628Y-106908600D01*
X135264628Y-108686600D01*
X135276888Y-108811082D01*
X135313198Y-108930780D01*
X135372163Y-109041094D01*
X135451515Y-109137785D01*
X135548206Y-109217137D01*
X135658520Y-109276102D01*
X135778218Y-109312412D01*
X135902700Y-109324672D01*
X136893300Y-109324672D01*
X137017782Y-109312412D01*
X137137480Y-109276102D01*
X137247794Y-109217137D01*
X137344485Y-109137785D01*
X137423837Y-109041094D01*
X137482802Y-108930780D01*
X137519112Y-108811082D01*
X137531372Y-108686600D01*
X137531372Y-106908600D01*
X175904628Y-106908600D01*
X175904628Y-108686600D01*
X175916888Y-108811082D01*
X175953198Y-108930780D01*
X176012163Y-109041094D01*
X176091515Y-109137785D01*
X176188206Y-109217137D01*
X176298520Y-109276102D01*
X176418218Y-109312412D01*
X176542700Y-109324672D01*
X177533300Y-109324672D01*
X177657782Y-109312412D01*
X177777480Y-109276102D01*
X177887794Y-109217137D01*
X177984485Y-109137785D01*
X178063837Y-109041094D01*
X178122802Y-108930780D01*
X178159112Y-108811082D01*
X178171372Y-108686600D01*
X178171372Y-106908600D01*
X180984628Y-106908600D01*
X180984628Y-108686600D01*
X180996888Y-108811082D01*
X181033198Y-108930780D01*
X181092163Y-109041094D01*
X181171515Y-109137785D01*
X181268206Y-109217137D01*
X181378520Y-109276102D01*
X181498218Y-109312412D01*
X181622700Y-109324672D01*
X182613300Y-109324672D01*
X182737782Y-109312412D01*
X182857480Y-109276102D01*
X182967794Y-109217137D01*
X183064485Y-109137785D01*
X183143837Y-109041094D01*
X183202802Y-108930780D01*
X183239112Y-108811082D01*
X183251372Y-108686600D01*
X183251372Y-106908600D01*
X183524628Y-106908600D01*
X183524628Y-108686600D01*
X183536888Y-108811082D01*
X183573198Y-108930780D01*
X183632163Y-109041094D01*
X183711515Y-109137785D01*
X183808206Y-109217137D01*
X183918520Y-109276102D01*
X184038218Y-109312412D01*
X184162700Y-109324672D01*
X185153300Y-109324672D01*
X185277782Y-109312412D01*
X185397480Y-109276102D01*
X185507794Y-109217137D01*
X185604485Y-109137785D01*
X185683837Y-109041094D01*
X185742802Y-108930780D01*
X185779112Y-108811082D01*
X185791372Y-108686600D01*
X185791372Y-106908600D01*
X186064628Y-106908600D01*
X186064628Y-108686600D01*
X186076888Y-108811082D01*
X186113198Y-108930780D01*
X186172163Y-109041094D01*
X186251515Y-109137785D01*
X186348206Y-109217137D01*
X186458520Y-109276102D01*
X186578218Y-109312412D01*
X186702700Y-109324672D01*
X187693300Y-109324672D01*
X187817782Y-109312412D01*
X187937480Y-109276102D01*
X188047794Y-109217137D01*
X188144485Y-109137785D01*
X188223837Y-109041094D01*
X188282802Y-108930780D01*
X188319112Y-108811082D01*
X188331372Y-108686600D01*
X188331372Y-106908600D01*
X188604628Y-106908600D01*
X188604628Y-108686600D01*
X188616888Y-108811082D01*
X188653198Y-108930780D01*
X188712163Y-109041094D01*
X188791515Y-109137785D01*
X188888206Y-109217137D01*
X188998520Y-109276102D01*
X189118218Y-109312412D01*
X189242700Y-109324672D01*
X190233300Y-109324672D01*
X190357782Y-109312412D01*
X190477480Y-109276102D01*
X190587794Y-109217137D01*
X190684485Y-109137785D01*
X190763837Y-109041094D01*
X190822802Y-108930780D01*
X190859112Y-108811082D01*
X190871372Y-108686600D01*
X190871372Y-106908600D01*
X191144628Y-106908600D01*
X191144628Y-108686600D01*
X191156888Y-108811082D01*
X191193198Y-108930780D01*
X191252163Y-109041094D01*
X191331515Y-109137785D01*
X191428206Y-109217137D01*
X191538520Y-109276102D01*
X191658218Y-109312412D01*
X191782700Y-109324672D01*
X192773300Y-109324672D01*
X192897782Y-109312412D01*
X193017480Y-109276102D01*
X193127794Y-109217137D01*
X193224485Y-109137785D01*
X193303837Y-109041094D01*
X193362802Y-108930780D01*
X193399112Y-108811082D01*
X193411372Y-108686600D01*
X193411372Y-106908600D01*
X193684628Y-106908600D01*
X193684628Y-108686600D01*
X193696888Y-108811082D01*
X193733198Y-108930780D01*
X193792163Y-109041094D01*
X193871515Y-109137785D01*
X193968206Y-109217137D01*
X194078520Y-109276102D01*
X194198218Y-109312412D01*
X194322700Y-109324672D01*
X195313300Y-109324672D01*
X195437782Y-109312412D01*
X195557480Y-109276102D01*
X195667794Y-109217137D01*
X195764485Y-109137785D01*
X195843837Y-109041094D01*
X195902802Y-108930780D01*
X195939112Y-108811082D01*
X195951372Y-108686600D01*
X195951372Y-106908600D01*
X196224628Y-106908600D01*
X196224628Y-108686600D01*
X196236888Y-108811082D01*
X196273198Y-108930780D01*
X196332163Y-109041094D01*
X196411515Y-109137785D01*
X196508206Y-109217137D01*
X196618520Y-109276102D01*
X196738218Y-109312412D01*
X196862700Y-109324672D01*
X197853300Y-109324672D01*
X197977782Y-109312412D01*
X198097480Y-109276102D01*
X198207794Y-109217137D01*
X198304485Y-109137785D01*
X198383837Y-109041094D01*
X198442802Y-108930780D01*
X198479112Y-108811082D01*
X198491372Y-108686600D01*
X198491372Y-106908600D01*
X198764628Y-106908600D01*
X198764628Y-108686600D01*
X198776888Y-108811082D01*
X198813198Y-108930780D01*
X198872163Y-109041094D01*
X198951515Y-109137785D01*
X199048206Y-109217137D01*
X199158520Y-109276102D01*
X199278218Y-109312412D01*
X199402700Y-109324672D01*
X200393300Y-109324672D01*
X200517782Y-109312412D01*
X200637480Y-109276102D01*
X200747794Y-109217137D01*
X200844485Y-109137785D01*
X200923837Y-109041094D01*
X200982802Y-108930780D01*
X201019112Y-108811082D01*
X201031372Y-108686600D01*
X201031372Y-106908600D01*
X201019112Y-106784118D01*
X200982802Y-106664420D01*
X200923837Y-106554106D01*
X200844485Y-106457415D01*
X200747794Y-106378063D01*
X200637480Y-106319098D01*
X200517782Y-106282788D01*
X200393300Y-106270528D01*
X199402700Y-106270528D01*
X199278218Y-106282788D01*
X199158520Y-106319098D01*
X199048206Y-106378063D01*
X198951515Y-106457415D01*
X198872163Y-106554106D01*
X198813198Y-106664420D01*
X198776888Y-106784118D01*
X198764628Y-106908600D01*
X198491372Y-106908600D01*
X198479112Y-106784118D01*
X198442802Y-106664420D01*
X198383837Y-106554106D01*
X198304485Y-106457415D01*
X198207794Y-106378063D01*
X198097480Y-106319098D01*
X197977782Y-106282788D01*
X197853300Y-106270528D01*
X196862700Y-106270528D01*
X196738218Y-106282788D01*
X196618520Y-106319098D01*
X196508206Y-106378063D01*
X196411515Y-106457415D01*
X196332163Y-106554106D01*
X196273198Y-106664420D01*
X196236888Y-106784118D01*
X196224628Y-106908600D01*
X195951372Y-106908600D01*
X195939112Y-106784118D01*
X195902802Y-106664420D01*
X195843837Y-106554106D01*
X195764485Y-106457415D01*
X195667794Y-106378063D01*
X195557480Y-106319098D01*
X195437782Y-106282788D01*
X195313300Y-106270528D01*
X194322700Y-106270528D01*
X194198218Y-106282788D01*
X194078520Y-106319098D01*
X193968206Y-106378063D01*
X193871515Y-106457415D01*
X193792163Y-106554106D01*
X193733198Y-106664420D01*
X193696888Y-106784118D01*
X193684628Y-106908600D01*
X193411372Y-106908600D01*
X193399112Y-106784118D01*
X193362802Y-106664420D01*
X193303837Y-106554106D01*
X193224485Y-106457415D01*
X193127794Y-106378063D01*
X193017480Y-106319098D01*
X192897782Y-106282788D01*
X192773300Y-106270528D01*
X191782700Y-106270528D01*
X191658218Y-106282788D01*
X191538520Y-106319098D01*
X191428206Y-106378063D01*
X191331515Y-106457415D01*
X191252163Y-106554106D01*
X191193198Y-106664420D01*
X191156888Y-106784118D01*
X191144628Y-106908600D01*
X190871372Y-106908600D01*
X190859112Y-106784118D01*
X190822802Y-106664420D01*
X190763837Y-106554106D01*
X190684485Y-106457415D01*
X190587794Y-106378063D01*
X190477480Y-106319098D01*
X190357782Y-106282788D01*
X190233300Y-106270528D01*
X189242700Y-106270528D01*
X189118218Y-106282788D01*
X188998520Y-106319098D01*
X188888206Y-106378063D01*
X188791515Y-106457415D01*
X188712163Y-106554106D01*
X188653198Y-106664420D01*
X188616888Y-106784118D01*
X188604628Y-106908600D01*
X188331372Y-106908600D01*
X188319112Y-106784118D01*
X188282802Y-106664420D01*
X188223837Y-106554106D01*
X188144485Y-106457415D01*
X188047794Y-106378063D01*
X187937480Y-106319098D01*
X187817782Y-106282788D01*
X187693300Y-106270528D01*
X186702700Y-106270528D01*
X186578218Y-106282788D01*
X186458520Y-106319098D01*
X186348206Y-106378063D01*
X186251515Y-106457415D01*
X186172163Y-106554106D01*
X186113198Y-106664420D01*
X186076888Y-106784118D01*
X186064628Y-106908600D01*
X185791372Y-106908600D01*
X185779112Y-106784118D01*
X185742802Y-106664420D01*
X185683837Y-106554106D01*
X185604485Y-106457415D01*
X185507794Y-106378063D01*
X185397480Y-106319098D01*
X185277782Y-106282788D01*
X185153300Y-106270528D01*
X184162700Y-106270528D01*
X184038218Y-106282788D01*
X183918520Y-106319098D01*
X183808206Y-106378063D01*
X183711515Y-106457415D01*
X183632163Y-106554106D01*
X183573198Y-106664420D01*
X183536888Y-106784118D01*
X183524628Y-106908600D01*
X183251372Y-106908600D01*
X183239112Y-106784118D01*
X183202802Y-106664420D01*
X183143837Y-106554106D01*
X183064485Y-106457415D01*
X182967794Y-106378063D01*
X182857480Y-106319098D01*
X182737782Y-106282788D01*
X182613300Y-106270528D01*
X181622700Y-106270528D01*
X181498218Y-106282788D01*
X181378520Y-106319098D01*
X181268206Y-106378063D01*
X181171515Y-106457415D01*
X181092163Y-106554106D01*
X181033198Y-106664420D01*
X180996888Y-106784118D01*
X180984628Y-106908600D01*
X178171372Y-106908600D01*
X178159112Y-106784118D01*
X178122802Y-106664420D01*
X178063837Y-106554106D01*
X177984485Y-106457415D01*
X177887794Y-106378063D01*
X177777480Y-106319098D01*
X177657782Y-106282788D01*
X177533300Y-106270528D01*
X176542700Y-106270528D01*
X176418218Y-106282788D01*
X176298520Y-106319098D01*
X176188206Y-106378063D01*
X176091515Y-106457415D01*
X176012163Y-106554106D01*
X175953198Y-106664420D01*
X175916888Y-106784118D01*
X175904628Y-106908600D01*
X137531372Y-106908600D01*
X137519112Y-106784118D01*
X137482802Y-106664420D01*
X137423837Y-106554106D01*
X137344485Y-106457415D01*
X137247794Y-106378063D01*
X137137480Y-106319098D01*
X137017782Y-106282788D01*
X136893300Y-106270528D01*
X135902700Y-106270528D01*
X135778218Y-106282788D01*
X135658520Y-106319098D01*
X135548206Y-106378063D01*
X135451515Y-106457415D01*
X135372163Y-106554106D01*
X135313198Y-106664420D01*
X135276888Y-106784118D01*
X135264628Y-106908600D01*
X134991372Y-106908600D01*
X134979112Y-106784118D01*
X134942802Y-106664420D01*
X134883837Y-106554106D01*
X134804485Y-106457415D01*
X134707794Y-106378063D01*
X134597480Y-106319098D01*
X134477782Y-106282788D01*
X134353300Y-106270528D01*
X133362700Y-106270528D01*
X133238218Y-106282788D01*
X133118520Y-106319098D01*
X133008206Y-106378063D01*
X132911515Y-106457415D01*
X132832163Y-106554106D01*
X132773198Y-106664420D01*
X132736888Y-106784118D01*
X132724628Y-106908600D01*
X132451372Y-106908600D01*
X132439112Y-106784118D01*
X132402802Y-106664420D01*
X132343837Y-106554106D01*
X132264485Y-106457415D01*
X132167794Y-106378063D01*
X132057480Y-106319098D01*
X131937782Y-106282788D01*
X131813300Y-106270528D01*
X130822700Y-106270528D01*
X130698218Y-106282788D01*
X130578520Y-106319098D01*
X130468206Y-106378063D01*
X130371515Y-106457415D01*
X130292163Y-106554106D01*
X130233198Y-106664420D01*
X130196888Y-106784118D01*
X130184628Y-106908600D01*
X129911372Y-106908600D01*
X129899112Y-106784118D01*
X129862802Y-106664420D01*
X129803837Y-106554106D01*
X129724485Y-106457415D01*
X129627794Y-106378063D01*
X129517480Y-106319098D01*
X129397782Y-106282788D01*
X129273300Y-106270528D01*
X128282700Y-106270528D01*
X128158218Y-106282788D01*
X128038520Y-106319098D01*
X127928206Y-106378063D01*
X127831515Y-106457415D01*
X127752163Y-106554106D01*
X127693198Y-106664420D01*
X127656888Y-106784118D01*
X127644628Y-106908600D01*
X127371372Y-106908600D01*
X127359112Y-106784118D01*
X127322802Y-106664420D01*
X127263837Y-106554106D01*
X127184485Y-106457415D01*
X127087794Y-106378063D01*
X127049246Y-106357458D01*
X127106226Y-106219898D01*
X127146000Y-106019939D01*
X127146000Y-105816061D01*
X127106226Y-105616102D01*
X127028205Y-105427744D01*
X126914937Y-105258226D01*
X126770774Y-105114063D01*
X126601256Y-105000795D01*
X126412898Y-104922774D01*
X126212939Y-104883000D01*
X126009061Y-104883000D01*
X125809102Y-104922774D01*
X125620744Y-105000795D01*
X125451226Y-105114063D01*
X125307063Y-105258226D01*
X125193795Y-105427744D01*
X125115774Y-105616102D01*
X125076000Y-105816061D01*
X112928000Y-105816061D01*
X112928000Y-104477000D01*
X155654928Y-104477000D01*
X155654928Y-105835000D01*
X155667188Y-105959482D01*
X155703498Y-106079180D01*
X155762463Y-106189494D01*
X155841815Y-106286185D01*
X155938506Y-106365537D01*
X156048820Y-106424502D01*
X156168518Y-106460812D01*
X156293000Y-106473072D01*
X157651000Y-106473072D01*
X157775482Y-106460812D01*
X157895180Y-106424502D01*
X158005494Y-106365537D01*
X158102185Y-106286185D01*
X158181537Y-106189494D01*
X158240502Y-106079180D01*
X158276812Y-105959482D01*
X158289072Y-105835000D01*
X158289072Y-105026582D01*
X160738000Y-105026582D01*
X160738000Y-105285418D01*
X160788496Y-105539280D01*
X160887548Y-105778412D01*
X161031349Y-105993626D01*
X161214374Y-106176651D01*
X161429588Y-106320452D01*
X161668720Y-106419504D01*
X161922582Y-106470000D01*
X162181418Y-106470000D01*
X162435280Y-106419504D01*
X162674412Y-106320452D01*
X162889626Y-106176651D01*
X163072651Y-105993626D01*
X163216452Y-105778412D01*
X163315504Y-105539280D01*
X163366000Y-105285418D01*
X163366000Y-105026582D01*
X163315504Y-104772720D01*
X163216452Y-104533588D01*
X163072651Y-104318374D01*
X162889626Y-104135349D01*
X162674412Y-103991548D01*
X162435280Y-103892496D01*
X162181418Y-103842000D01*
X161922582Y-103842000D01*
X161668720Y-103892496D01*
X161429588Y-103991548D01*
X161214374Y-104135349D01*
X161031349Y-104318374D01*
X160887548Y-104533588D01*
X160788496Y-104772720D01*
X160738000Y-105026582D01*
X158289072Y-105026582D01*
X158289072Y-104477000D01*
X158276812Y-104352518D01*
X158240502Y-104232820D01*
X158181537Y-104122506D01*
X158102185Y-104025815D01*
X158005494Y-103946463D01*
X157895180Y-103887498D01*
X157775482Y-103851188D01*
X157651000Y-103838928D01*
X156293000Y-103838928D01*
X156168518Y-103851188D01*
X156048820Y-103887498D01*
X155938506Y-103946463D01*
X155841815Y-104025815D01*
X155762463Y-104122506D01*
X155703498Y-104232820D01*
X155667188Y-104352518D01*
X155654928Y-104477000D01*
X112928000Y-104477000D01*
X112928000Y-95293721D01*
X147471000Y-95293721D01*
X147471000Y-95714279D01*
X147553047Y-96126756D01*
X147713988Y-96515302D01*
X147947637Y-96864983D01*
X148245017Y-97162363D01*
X148594698Y-97396012D01*
X148983244Y-97556953D01*
X149395721Y-97639000D01*
X149816279Y-97639000D01*
X150228756Y-97556953D01*
X150617302Y-97396012D01*
X150966983Y-97162363D01*
X151264363Y-96864983D01*
X151498012Y-96515302D01*
X151658953Y-96126756D01*
X151741000Y-95714279D01*
X151741000Y-95357221D01*
X167029000Y-95357221D01*
X167029000Y-95777779D01*
X167111047Y-96190256D01*
X167271988Y-96578802D01*
X167505637Y-96928483D01*
X167803017Y-97225863D01*
X168152698Y-97459512D01*
X168541244Y-97620453D01*
X168953721Y-97702500D01*
X169374279Y-97702500D01*
X169786756Y-97620453D01*
X170175302Y-97459512D01*
X170524983Y-97225863D01*
X170822363Y-96928483D01*
X171056012Y-96578802D01*
X171216953Y-96190256D01*
X171299000Y-95777779D01*
X171299000Y-95357221D01*
X171216953Y-94944744D01*
X171056012Y-94556198D01*
X170822363Y-94206517D01*
X170524983Y-93909137D01*
X170175302Y-93675488D01*
X169786756Y-93514547D01*
X169374279Y-93432500D01*
X168953721Y-93432500D01*
X168541244Y-93514547D01*
X168152698Y-93675488D01*
X167803017Y-93909137D01*
X167505637Y-94206517D01*
X167271988Y-94556198D01*
X167111047Y-94944744D01*
X167029000Y-95357221D01*
X151741000Y-95357221D01*
X151741000Y-95293721D01*
X151658953Y-94881244D01*
X151498012Y-94492698D01*
X151264363Y-94143017D01*
X150966983Y-93845637D01*
X150617302Y-93611988D01*
X150228756Y-93451047D01*
X149816279Y-93369000D01*
X149395721Y-93369000D01*
X148983244Y-93451047D01*
X148594698Y-93611988D01*
X148245017Y-93845637D01*
X147947637Y-94143017D01*
X147713988Y-94492698D01*
X147553047Y-94881244D01*
X147471000Y-95293721D01*
X112928000Y-95293721D01*
X112928000Y-83464061D01*
X123425000Y-83464061D01*
X123425000Y-83667939D01*
X123464774Y-83867898D01*
X123542795Y-84056256D01*
X123656063Y-84225774D01*
X123698000Y-84267711D01*
X123698001Y-86801288D01*
X123656063Y-86843226D01*
X123542795Y-87012744D01*
X123464774Y-87201102D01*
X123425000Y-87401061D01*
X123425000Y-87604939D01*
X123464774Y-87804898D01*
X123542795Y-87993256D01*
X123656063Y-88162774D01*
X123800226Y-88306937D01*
X123969744Y-88420205D01*
X124158102Y-88498226D01*
X124358061Y-88538000D01*
X124561939Y-88538000D01*
X124761898Y-88498226D01*
X124950256Y-88420205D01*
X125119774Y-88306937D01*
X125263937Y-88162774D01*
X125377205Y-87993256D01*
X125455226Y-87804898D01*
X125495000Y-87604939D01*
X125495000Y-87401061D01*
X125455226Y-87201102D01*
X125377205Y-87012744D01*
X125263937Y-86843226D01*
X125222000Y-86801289D01*
X125222000Y-86475119D01*
X128167000Y-86475119D01*
X128167000Y-88784882D01*
X128197892Y-89098533D01*
X128319975Y-89500982D01*
X128518224Y-89871881D01*
X128785024Y-90196977D01*
X129110120Y-90463777D01*
X129481019Y-90662026D01*
X129883468Y-90784108D01*
X130302000Y-90825330D01*
X130720533Y-90784108D01*
X131122982Y-90662026D01*
X131493881Y-90463777D01*
X131818977Y-90196977D01*
X132085777Y-89871881D01*
X132284026Y-89500982D01*
X132406108Y-89098533D01*
X132437000Y-88784882D01*
X132437000Y-86475118D01*
X132406108Y-86161467D01*
X132284026Y-85759018D01*
X132085777Y-85388119D01*
X131818977Y-85063023D01*
X131493881Y-84796223D01*
X131122981Y-84597974D01*
X130720532Y-84475892D01*
X130302000Y-84434670D01*
X129883467Y-84475892D01*
X129481018Y-84597974D01*
X129110119Y-84796223D01*
X128785023Y-85063023D01*
X128518223Y-85388119D01*
X128319974Y-85759019D01*
X128197892Y-86161468D01*
X128167000Y-86475119D01*
X125222000Y-86475119D01*
X125222000Y-84267711D01*
X125263937Y-84225774D01*
X125377205Y-84056256D01*
X125455226Y-83867898D01*
X125495000Y-83667939D01*
X125495000Y-83464061D01*
X125455226Y-83264102D01*
X125377205Y-83075744D01*
X125263937Y-82906226D01*
X125119774Y-82762063D01*
X124950256Y-82648795D01*
X124761898Y-82570774D01*
X124561939Y-82531000D01*
X124358061Y-82531000D01*
X124158102Y-82570774D01*
X123969744Y-82648795D01*
X123800226Y-82762063D01*
X123656063Y-82906226D01*
X123542795Y-83075744D01*
X123464774Y-83264102D01*
X123425000Y-83464061D01*
X112928000Y-83464061D01*
X112928000Y-78589119D01*
X128167000Y-78589119D01*
X128167000Y-80898882D01*
X128197892Y-81212533D01*
X128319975Y-81614982D01*
X128518224Y-81985881D01*
X128785024Y-82310977D01*
X129110120Y-82577777D01*
X129481019Y-82776026D01*
X129883468Y-82898108D01*
X130302000Y-82939330D01*
X130720533Y-82898108D01*
X131122982Y-82776026D01*
X131493881Y-82577777D01*
X131818977Y-82310977D01*
X132085777Y-81985881D01*
X132284026Y-81614982D01*
X132406108Y-81212533D01*
X132437000Y-80898882D01*
X132437000Y-78589118D01*
X132406108Y-78275467D01*
X132284026Y-77873018D01*
X132085777Y-77502119D01*
X131818977Y-77177023D01*
X131493881Y-76910223D01*
X131122981Y-76711974D01*
X130720532Y-76589892D01*
X130302000Y-76548670D01*
X129883467Y-76589892D01*
X129481018Y-76711974D01*
X129110119Y-76910223D01*
X128785023Y-77177023D01*
X128518223Y-77502119D01*
X128319974Y-77873019D01*
X128197892Y-78275468D01*
X128167000Y-78589119D01*
X112928000Y-78589119D01*
X112928000Y-72026175D01*
X113042700Y-72037472D01*
X114033300Y-72037472D01*
X114157782Y-72025212D01*
X114277480Y-71988902D01*
X114387794Y-71929937D01*
X114484485Y-71850585D01*
X114563837Y-71753894D01*
X114622802Y-71643580D01*
X114659112Y-71523882D01*
X114671372Y-71399400D01*
X114671372Y-69621400D01*
X114944628Y-69621400D01*
X114944628Y-71399400D01*
X114956888Y-71523882D01*
X114993198Y-71643580D01*
X115052163Y-71753894D01*
X115131515Y-71850585D01*
X115228206Y-71929937D01*
X115338520Y-71988902D01*
X115458218Y-72025212D01*
X115582700Y-72037472D01*
X116573300Y-72037472D01*
X116697782Y-72025212D01*
X116817480Y-71988902D01*
X116927794Y-71929937D01*
X117024485Y-71850585D01*
X117103837Y-71753894D01*
X117162802Y-71643580D01*
X117199112Y-71523882D01*
X117211372Y-71399400D01*
X117211372Y-69621400D01*
X117484628Y-69621400D01*
X117484628Y-71399400D01*
X117496888Y-71523882D01*
X117533198Y-71643580D01*
X117592163Y-71753894D01*
X117671515Y-71850585D01*
X117768206Y-71929937D01*
X117878520Y-71988902D01*
X117998218Y-72025212D01*
X118122700Y-72037472D01*
X119113300Y-72037472D01*
X119237782Y-72025212D01*
X119357480Y-71988902D01*
X119467794Y-71929937D01*
X119564485Y-71850585D01*
X119643837Y-71753894D01*
X119702802Y-71643580D01*
X119739112Y-71523882D01*
X119751372Y-71399400D01*
X119751372Y-69621400D01*
X120024628Y-69621400D01*
X120024628Y-71399400D01*
X120036888Y-71523882D01*
X120073198Y-71643580D01*
X120132163Y-71753894D01*
X120211515Y-71850585D01*
X120308206Y-71929937D01*
X120418520Y-71988902D01*
X120538218Y-72025212D01*
X120662700Y-72037472D01*
X121653300Y-72037472D01*
X121777782Y-72025212D01*
X121897480Y-71988902D01*
X122007794Y-71929937D01*
X122104485Y-71850585D01*
X122183837Y-71753894D01*
X122242802Y-71643580D01*
X122279112Y-71523882D01*
X122291372Y-71399400D01*
X122291372Y-69621400D01*
X122564628Y-69621400D01*
X122564628Y-71399400D01*
X122576888Y-71523882D01*
X122613198Y-71643580D01*
X122672163Y-71753894D01*
X122751515Y-71850585D01*
X122848206Y-71929937D01*
X122958520Y-71988902D01*
X123078218Y-72025212D01*
X123202700Y-72037472D01*
X123884921Y-72037472D01*
X123800226Y-72094063D01*
X123656063Y-72238226D01*
X123542795Y-72407744D01*
X123464774Y-72596102D01*
X123425000Y-72796061D01*
X123425000Y-72999939D01*
X123464774Y-73199898D01*
X123542795Y-73388256D01*
X123656063Y-73557774D01*
X123800226Y-73701937D01*
X123969744Y-73815205D01*
X124158102Y-73893226D01*
X124358061Y-73933000D01*
X124561939Y-73933000D01*
X124761898Y-73893226D01*
X124950256Y-73815205D01*
X125119774Y-73701937D01*
X125161711Y-73660000D01*
X127089577Y-73660000D01*
X127127000Y-73663686D01*
X127164423Y-73660000D01*
X127164426Y-73660000D01*
X127276378Y-73648974D01*
X127420015Y-73605402D01*
X127552392Y-73534645D01*
X127668422Y-73439422D01*
X127692284Y-73410346D01*
X127893346Y-73209284D01*
X127922422Y-73185422D01*
X128017645Y-73069392D01*
X128088402Y-72937015D01*
X128131974Y-72793378D01*
X128143000Y-72681425D01*
X128143000Y-72681424D01*
X128146686Y-72644001D01*
X128143000Y-72606578D01*
X128143000Y-72020596D01*
X128158218Y-72025212D01*
X128282700Y-72037472D01*
X129273300Y-72037472D01*
X129397782Y-72025212D01*
X129517480Y-71988902D01*
X129627794Y-71929937D01*
X129724485Y-71850585D01*
X129803837Y-71753894D01*
X129862802Y-71643580D01*
X129899112Y-71523882D01*
X129911372Y-71399400D01*
X129911372Y-69621400D01*
X130184628Y-69621400D01*
X130184628Y-71399400D01*
X130196888Y-71523882D01*
X130233198Y-71643580D01*
X130292163Y-71753894D01*
X130371515Y-71850585D01*
X130468206Y-71929937D01*
X130578520Y-71988902D01*
X130698218Y-72025212D01*
X130822700Y-72037472D01*
X131813300Y-72037472D01*
X131937782Y-72025212D01*
X132057480Y-71988902D01*
X132167794Y-71929937D01*
X132264485Y-71850585D01*
X132343837Y-71753894D01*
X132402802Y-71643580D01*
X132439112Y-71523882D01*
X132451372Y-71399400D01*
X132451372Y-69621400D01*
X132724628Y-69621400D01*
X132724628Y-71399400D01*
X132736888Y-71523882D01*
X132773198Y-71643580D01*
X132832163Y-71753894D01*
X132911515Y-71850585D01*
X133008206Y-71929937D01*
X133118520Y-71988902D01*
X133238218Y-72025212D01*
X133362700Y-72037472D01*
X134353300Y-72037472D01*
X134477782Y-72025212D01*
X134597480Y-71988902D01*
X134707794Y-71929937D01*
X134804485Y-71850585D01*
X134883837Y-71753894D01*
X134942802Y-71643580D01*
X134979112Y-71523882D01*
X134991372Y-71399400D01*
X134991372Y-69621400D01*
X135264628Y-69621400D01*
X135264628Y-71399400D01*
X135276888Y-71523882D01*
X135313198Y-71643580D01*
X135372163Y-71753894D01*
X135451515Y-71850585D01*
X135548206Y-71929937D01*
X135658520Y-71988902D01*
X135778218Y-72025212D01*
X135902700Y-72037472D01*
X136893300Y-72037472D01*
X137017782Y-72025212D01*
X137137480Y-71988902D01*
X137247794Y-71929937D01*
X137344485Y-71850585D01*
X137423837Y-71753894D01*
X137482802Y-71643580D01*
X137519112Y-71523882D01*
X137531372Y-71399400D01*
X137531372Y-69621400D01*
X175904628Y-69621400D01*
X175904628Y-71399400D01*
X175916888Y-71523882D01*
X175953198Y-71643580D01*
X176012163Y-71753894D01*
X176091515Y-71850585D01*
X176188206Y-71929937D01*
X176298520Y-71988902D01*
X176418218Y-72025212D01*
X176542700Y-72037472D01*
X177533300Y-72037472D01*
X177657782Y-72025212D01*
X177777480Y-71988902D01*
X177887794Y-71929937D01*
X177984485Y-71850585D01*
X178063837Y-71753894D01*
X178122802Y-71643580D01*
X178159112Y-71523882D01*
X178171372Y-71399400D01*
X178171372Y-69621400D01*
X178444628Y-69621400D01*
X178444628Y-71399400D01*
X178456888Y-71523882D01*
X178493198Y-71643580D01*
X178552163Y-71753894D01*
X178631515Y-71850585D01*
X178728206Y-71929937D01*
X178838520Y-71988902D01*
X178958218Y-72025212D01*
X179082700Y-72037472D01*
X180073300Y-72037472D01*
X180197782Y-72025212D01*
X180317480Y-71988902D01*
X180427794Y-71929937D01*
X180524485Y-71850585D01*
X180603837Y-71753894D01*
X180662802Y-71643580D01*
X180699112Y-71523882D01*
X180711372Y-71399400D01*
X180711372Y-69621400D01*
X180984628Y-69621400D01*
X180984628Y-71399400D01*
X180996888Y-71523882D01*
X181033198Y-71643580D01*
X181092163Y-71753894D01*
X181171515Y-71850585D01*
X181268206Y-71929937D01*
X181378520Y-71988902D01*
X181498218Y-72025212D01*
X181622700Y-72037472D01*
X182613300Y-72037472D01*
X182737782Y-72025212D01*
X182857480Y-71988902D01*
X182967794Y-71929937D01*
X183064485Y-71850585D01*
X183143837Y-71753894D01*
X183202802Y-71643580D01*
X183239112Y-71523882D01*
X183251372Y-71399400D01*
X183251372Y-69621400D01*
X183524628Y-69621400D01*
X183524628Y-71399400D01*
X183536888Y-71523882D01*
X183573198Y-71643580D01*
X183632163Y-71753894D01*
X183711515Y-71850585D01*
X183808206Y-71929937D01*
X183918520Y-71988902D01*
X184038218Y-72025212D01*
X184162700Y-72037472D01*
X185153300Y-72037472D01*
X185277782Y-72025212D01*
X185397480Y-71988902D01*
X185507794Y-71929937D01*
X185604485Y-71850585D01*
X185683837Y-71753894D01*
X185742802Y-71643580D01*
X185779112Y-71523882D01*
X185791372Y-71399400D01*
X185791372Y-69621400D01*
X186064628Y-69621400D01*
X186064628Y-71399400D01*
X186076888Y-71523882D01*
X186113198Y-71643580D01*
X186172163Y-71753894D01*
X186251515Y-71850585D01*
X186348206Y-71929937D01*
X186458520Y-71988902D01*
X186578218Y-72025212D01*
X186702700Y-72037472D01*
X187693300Y-72037472D01*
X187817782Y-72025212D01*
X187937480Y-71988902D01*
X188047794Y-71929937D01*
X188144485Y-71850585D01*
X188223837Y-71753894D01*
X188282802Y-71643580D01*
X188319112Y-71523882D01*
X188331372Y-71399400D01*
X188331372Y-69621400D01*
X188604628Y-69621400D01*
X188604628Y-71399400D01*
X188616888Y-71523882D01*
X188653198Y-71643580D01*
X188712163Y-71753894D01*
X188791515Y-71850585D01*
X188888206Y-71929937D01*
X188998520Y-71988902D01*
X189118218Y-72025212D01*
X189242700Y-72037472D01*
X190233300Y-72037472D01*
X190357782Y-72025212D01*
X190477480Y-71988902D01*
X190587794Y-71929937D01*
X190684485Y-71850585D01*
X190763837Y-71753894D01*
X190822802Y-71643580D01*
X190859112Y-71523882D01*
X190871372Y-71399400D01*
X190871372Y-69621400D01*
X191144628Y-69621400D01*
X191144628Y-71399400D01*
X191156888Y-71523882D01*
X191193198Y-71643580D01*
X191252163Y-71753894D01*
X191331515Y-71850585D01*
X191428206Y-71929937D01*
X191538520Y-71988902D01*
X191658218Y-72025212D01*
X191782700Y-72037472D01*
X192773300Y-72037472D01*
X192897782Y-72025212D01*
X193017480Y-71988902D01*
X193127794Y-71929937D01*
X193224485Y-71850585D01*
X193303837Y-71753894D01*
X193362802Y-71643580D01*
X193399112Y-71523882D01*
X193411372Y-71399400D01*
X193411372Y-69621400D01*
X193684628Y-69621400D01*
X193684628Y-71399400D01*
X193696888Y-71523882D01*
X193733198Y-71643580D01*
X193792163Y-71753894D01*
X193871515Y-71850585D01*
X193968206Y-71929937D01*
X194078520Y-71988902D01*
X194198218Y-72025212D01*
X194322700Y-72037472D01*
X195313300Y-72037472D01*
X195437782Y-72025212D01*
X195557480Y-71988902D01*
X195667794Y-71929937D01*
X195764485Y-71850585D01*
X195843837Y-71753894D01*
X195902802Y-71643580D01*
X195939112Y-71523882D01*
X195951372Y-71399400D01*
X195951372Y-69621400D01*
X196224628Y-69621400D01*
X196224628Y-71399400D01*
X196236888Y-71523882D01*
X196273198Y-71643580D01*
X196332163Y-71753894D01*
X196411515Y-71850585D01*
X196508206Y-71929937D01*
X196618520Y-71988902D01*
X196738218Y-72025212D01*
X196862700Y-72037472D01*
X197853300Y-72037472D01*
X197977782Y-72025212D01*
X198097480Y-71988902D01*
X198207794Y-71929937D01*
X198304485Y-71850585D01*
X198383837Y-71753894D01*
X198442802Y-71643580D01*
X198479112Y-71523882D01*
X198491372Y-71399400D01*
X198491372Y-69621400D01*
X198764628Y-69621400D01*
X198764628Y-71399400D01*
X198776888Y-71523882D01*
X198813198Y-71643580D01*
X198872163Y-71753894D01*
X198951515Y-71850585D01*
X199048206Y-71929937D01*
X199158520Y-71988902D01*
X199278218Y-72025212D01*
X199402700Y-72037472D01*
X200393300Y-72037472D01*
X200517782Y-72025212D01*
X200637480Y-71988902D01*
X200747794Y-71929937D01*
X200844485Y-71850585D01*
X200923837Y-71753894D01*
X200982802Y-71643580D01*
X201019112Y-71523882D01*
X201031372Y-71399400D01*
X201031372Y-69621400D01*
X201019112Y-69496918D01*
X200982802Y-69377220D01*
X200923837Y-69266906D01*
X200844485Y-69170215D01*
X200747794Y-69090863D01*
X200637480Y-69031898D01*
X200517782Y-68995588D01*
X200393300Y-68983328D01*
X199402700Y-68983328D01*
X199278218Y-68995588D01*
X199158520Y-69031898D01*
X199048206Y-69090863D01*
X198951515Y-69170215D01*
X198872163Y-69266906D01*
X198813198Y-69377220D01*
X198776888Y-69496918D01*
X198764628Y-69621400D01*
X198491372Y-69621400D01*
X198479112Y-69496918D01*
X198442802Y-69377220D01*
X198383837Y-69266906D01*
X198304485Y-69170215D01*
X198207794Y-69090863D01*
X198097480Y-69031898D01*
X197977782Y-68995588D01*
X197853300Y-68983328D01*
X196862700Y-68983328D01*
X196738218Y-68995588D01*
X196618520Y-69031898D01*
X196508206Y-69090863D01*
X196411515Y-69170215D01*
X196332163Y-69266906D01*
X196273198Y-69377220D01*
X196236888Y-69496918D01*
X196224628Y-69621400D01*
X195951372Y-69621400D01*
X195939112Y-69496918D01*
X195902802Y-69377220D01*
X195843837Y-69266906D01*
X195764485Y-69170215D01*
X195667794Y-69090863D01*
X195557480Y-69031898D01*
X195437782Y-68995588D01*
X195313300Y-68983328D01*
X194322700Y-68983328D01*
X194198218Y-68995588D01*
X194078520Y-69031898D01*
X193968206Y-69090863D01*
X193871515Y-69170215D01*
X193792163Y-69266906D01*
X193733198Y-69377220D01*
X193696888Y-69496918D01*
X193684628Y-69621400D01*
X193411372Y-69621400D01*
X193399112Y-69496918D01*
X193362802Y-69377220D01*
X193303837Y-69266906D01*
X193224485Y-69170215D01*
X193127794Y-69090863D01*
X193017480Y-69031898D01*
X192897782Y-68995588D01*
X192773300Y-68983328D01*
X191782700Y-68983328D01*
X191658218Y-68995588D01*
X191538520Y-69031898D01*
X191428206Y-69090863D01*
X191331515Y-69170215D01*
X191252163Y-69266906D01*
X191193198Y-69377220D01*
X191156888Y-69496918D01*
X191144628Y-69621400D01*
X190871372Y-69621400D01*
X190859112Y-69496918D01*
X190822802Y-69377220D01*
X190763837Y-69266906D01*
X190684485Y-69170215D01*
X190587794Y-69090863D01*
X190477480Y-69031898D01*
X190357782Y-68995588D01*
X190233300Y-68983328D01*
X189242700Y-68983328D01*
X189118218Y-68995588D01*
X188998520Y-69031898D01*
X188888206Y-69090863D01*
X188791515Y-69170215D01*
X188712163Y-69266906D01*
X188653198Y-69377220D01*
X188616888Y-69496918D01*
X188604628Y-69621400D01*
X188331372Y-69621400D01*
X188319112Y-69496918D01*
X188282802Y-69377220D01*
X188223837Y-69266906D01*
X188144485Y-69170215D01*
X188047794Y-69090863D01*
X187937480Y-69031898D01*
X187817782Y-68995588D01*
X187693300Y-68983328D01*
X186702700Y-68983328D01*
X186578218Y-68995588D01*
X186458520Y-69031898D01*
X186348206Y-69090863D01*
X186251515Y-69170215D01*
X186172163Y-69266906D01*
X186113198Y-69377220D01*
X186076888Y-69496918D01*
X186064628Y-69621400D01*
X185791372Y-69621400D01*
X185779112Y-69496918D01*
X185742802Y-69377220D01*
X185683837Y-69266906D01*
X185604485Y-69170215D01*
X185507794Y-69090863D01*
X185397480Y-69031898D01*
X185277782Y-68995588D01*
X185153300Y-68983328D01*
X184162700Y-68983328D01*
X184038218Y-68995588D01*
X183918520Y-69031898D01*
X183808206Y-69090863D01*
X183711515Y-69170215D01*
X183632163Y-69266906D01*
X183573198Y-69377220D01*
X183536888Y-69496918D01*
X183524628Y-69621400D01*
X183251372Y-69621400D01*
X183239112Y-69496918D01*
X183202802Y-69377220D01*
X183143837Y-69266906D01*
X183064485Y-69170215D01*
X182967794Y-69090863D01*
X182857480Y-69031898D01*
X182737782Y-68995588D01*
X182613300Y-68983328D01*
X181622700Y-68983328D01*
X181498218Y-68995588D01*
X181378520Y-69031898D01*
X181268206Y-69090863D01*
X181171515Y-69170215D01*
X181092163Y-69266906D01*
X181033198Y-69377220D01*
X180996888Y-69496918D01*
X180984628Y-69621400D01*
X180711372Y-69621400D01*
X180699112Y-69496918D01*
X180662802Y-69377220D01*
X180603837Y-69266906D01*
X180524485Y-69170215D01*
X180427794Y-69090863D01*
X180317480Y-69031898D01*
X180197782Y-68995588D01*
X180073300Y-68983328D01*
X179082700Y-68983328D01*
X178958218Y-68995588D01*
X178838520Y-69031898D01*
X178728206Y-69090863D01*
X178631515Y-69170215D01*
X178552163Y-69266906D01*
X178493198Y-69377220D01*
X178456888Y-69496918D01*
X178444628Y-69621400D01*
X178171372Y-69621400D01*
X178159112Y-69496918D01*
X178122802Y-69377220D01*
X178063837Y-69266906D01*
X177984485Y-69170215D01*
X177887794Y-69090863D01*
X177777480Y-69031898D01*
X177657782Y-68995588D01*
X177533300Y-68983328D01*
X176542700Y-68983328D01*
X176418218Y-68995588D01*
X176298520Y-69031898D01*
X176188206Y-69090863D01*
X176091515Y-69170215D01*
X176012163Y-69266906D01*
X175953198Y-69377220D01*
X175916888Y-69496918D01*
X175904628Y-69621400D01*
X137531372Y-69621400D01*
X137519112Y-69496918D01*
X137482802Y-69377220D01*
X137423837Y-69266906D01*
X137344485Y-69170215D01*
X137247794Y-69090863D01*
X137137480Y-69031898D01*
X137017782Y-68995588D01*
X136893300Y-68983328D01*
X135902700Y-68983328D01*
X135778218Y-68995588D01*
X135658520Y-69031898D01*
X135548206Y-69090863D01*
X135451515Y-69170215D01*
X135372163Y-69266906D01*
X135313198Y-69377220D01*
X135276888Y-69496918D01*
X135264628Y-69621400D01*
X134991372Y-69621400D01*
X134979112Y-69496918D01*
X134942802Y-69377220D01*
X134883837Y-69266906D01*
X134804485Y-69170215D01*
X134707794Y-69090863D01*
X134597480Y-69031898D01*
X134477782Y-68995588D01*
X134353300Y-68983328D01*
X133362700Y-68983328D01*
X133238218Y-68995588D01*
X133118520Y-69031898D01*
X133008206Y-69090863D01*
X132911515Y-69170215D01*
X132832163Y-69266906D01*
X132773198Y-69377220D01*
X132736888Y-69496918D01*
X132724628Y-69621400D01*
X132451372Y-69621400D01*
X132439112Y-69496918D01*
X132402802Y-69377220D01*
X132343837Y-69266906D01*
X132264485Y-69170215D01*
X132167794Y-69090863D01*
X132057480Y-69031898D01*
X131937782Y-68995588D01*
X131813300Y-68983328D01*
X130822700Y-68983328D01*
X130698218Y-68995588D01*
X130578520Y-69031898D01*
X130468206Y-69090863D01*
X130371515Y-69170215D01*
X130292163Y-69266906D01*
X130233198Y-69377220D01*
X130196888Y-69496918D01*
X130184628Y-69621400D01*
X129911372Y-69621400D01*
X129899112Y-69496918D01*
X129862802Y-69377220D01*
X129803837Y-69266906D01*
X129724485Y-69170215D01*
X129627794Y-69090863D01*
X129517480Y-69031898D01*
X129397782Y-68995588D01*
X129273300Y-68983328D01*
X128282700Y-68983328D01*
X128158218Y-68995588D01*
X128143000Y-69000204D01*
X128143000Y-66127796D01*
X128158218Y-66132412D01*
X128282700Y-66144672D01*
X129273300Y-66144672D01*
X129397782Y-66132412D01*
X129517480Y-66096102D01*
X129627794Y-66037137D01*
X129724485Y-65957785D01*
X129803837Y-65861094D01*
X129862802Y-65750780D01*
X129899112Y-65631082D01*
X129911372Y-65506600D01*
X129911372Y-63728600D01*
X130184628Y-63728600D01*
X130184628Y-65506600D01*
X130196888Y-65631082D01*
X130233198Y-65750780D01*
X130292163Y-65861094D01*
X130371515Y-65957785D01*
X130468206Y-66037137D01*
X130578520Y-66096102D01*
X130698218Y-66132412D01*
X130822700Y-66144672D01*
X131813300Y-66144672D01*
X131937782Y-66132412D01*
X132057480Y-66096102D01*
X132167794Y-66037137D01*
X132264485Y-65957785D01*
X132343837Y-65861094D01*
X132402802Y-65750780D01*
X132439112Y-65631082D01*
X132451372Y-65506600D01*
X132451372Y-63728600D01*
X132724628Y-63728600D01*
X132724628Y-65506600D01*
X132736888Y-65631082D01*
X132773198Y-65750780D01*
X132832163Y-65861094D01*
X132911515Y-65957785D01*
X133008206Y-66037137D01*
X133118520Y-66096102D01*
X133238218Y-66132412D01*
X133362700Y-66144672D01*
X134353300Y-66144672D01*
X134477782Y-66132412D01*
X134597480Y-66096102D01*
X134707794Y-66037137D01*
X134804485Y-65957785D01*
X134883837Y-65861094D01*
X134942802Y-65750780D01*
X134979112Y-65631082D01*
X134991372Y-65506600D01*
X134991372Y-63728600D01*
X135264628Y-63728600D01*
X135264628Y-65506600D01*
X135276888Y-65631082D01*
X135313198Y-65750780D01*
X135372163Y-65861094D01*
X135451515Y-65957785D01*
X135548206Y-66037137D01*
X135658520Y-66096102D01*
X135778218Y-66132412D01*
X135902700Y-66144672D01*
X136893300Y-66144672D01*
X137017782Y-66132412D01*
X137137480Y-66096102D01*
X137247794Y-66037137D01*
X137344485Y-65957785D01*
X137423837Y-65861094D01*
X137482802Y-65750780D01*
X137519112Y-65631082D01*
X137531372Y-65506600D01*
X137531372Y-63728600D01*
X178444628Y-63728600D01*
X178444628Y-65506600D01*
X178456888Y-65631082D01*
X178493198Y-65750780D01*
X178552163Y-65861094D01*
X178631515Y-65957785D01*
X178728206Y-66037137D01*
X178838520Y-66096102D01*
X178958218Y-66132412D01*
X179082700Y-66144672D01*
X180073300Y-66144672D01*
X180197782Y-66132412D01*
X180317480Y-66096102D01*
X180427794Y-66037137D01*
X180524485Y-65957785D01*
X180603837Y-65861094D01*
X180662802Y-65750780D01*
X180699112Y-65631082D01*
X180711372Y-65506600D01*
X180711372Y-63728600D01*
X180984628Y-63728600D01*
X180984628Y-65506600D01*
X180996888Y-65631082D01*
X181033198Y-65750780D01*
X181092163Y-65861094D01*
X181171515Y-65957785D01*
X181268206Y-66037137D01*
X181378520Y-66096102D01*
X181498218Y-66132412D01*
X181622700Y-66144672D01*
X182613300Y-66144672D01*
X182737782Y-66132412D01*
X182857480Y-66096102D01*
X182967794Y-66037137D01*
X183064485Y-65957785D01*
X183143837Y-65861094D01*
X183202802Y-65750780D01*
X183239112Y-65631082D01*
X183251372Y-65506600D01*
X183251372Y-63728600D01*
X183524628Y-63728600D01*
X183524628Y-65506600D01*
X183536888Y-65631082D01*
X183573198Y-65750780D01*
X183632163Y-65861094D01*
X183711515Y-65957785D01*
X183808206Y-66037137D01*
X183918520Y-66096102D01*
X184038218Y-66132412D01*
X184162700Y-66144672D01*
X185153300Y-66144672D01*
X185277782Y-66132412D01*
X185397480Y-66096102D01*
X185507794Y-66037137D01*
X185604485Y-65957785D01*
X185683837Y-65861094D01*
X185742802Y-65750780D01*
X185779112Y-65631082D01*
X185791372Y-65506600D01*
X185791372Y-63728600D01*
X186064628Y-63728600D01*
X186064628Y-65506600D01*
X186076888Y-65631082D01*
X186113198Y-65750780D01*
X186172163Y-65861094D01*
X186251515Y-65957785D01*
X186348206Y-66037137D01*
X186458520Y-66096102D01*
X186578218Y-66132412D01*
X186702700Y-66144672D01*
X187693300Y-66144672D01*
X187817782Y-66132412D01*
X187937480Y-66096102D01*
X188047794Y-66037137D01*
X188144485Y-65957785D01*
X188223837Y-65861094D01*
X188282802Y-65750780D01*
X188319112Y-65631082D01*
X188331372Y-65506600D01*
X188331372Y-63728600D01*
X188604628Y-63728600D01*
X188604628Y-65506600D01*
X188616888Y-65631082D01*
X188653198Y-65750780D01*
X188712163Y-65861094D01*
X188791515Y-65957785D01*
X188888206Y-66037137D01*
X188998520Y-66096102D01*
X189118218Y-66132412D01*
X189242700Y-66144672D01*
X190233300Y-66144672D01*
X190357782Y-66132412D01*
X190477480Y-66096102D01*
X190587794Y-66037137D01*
X190684485Y-65957785D01*
X190763837Y-65861094D01*
X190822802Y-65750780D01*
X190859112Y-65631082D01*
X190871372Y-65506600D01*
X190871372Y-63728600D01*
X191144628Y-63728600D01*
X191144628Y-65506600D01*
X191156888Y-65631082D01*
X191193198Y-65750780D01*
X191252163Y-65861094D01*
X191331515Y-65957785D01*
X191428206Y-66037137D01*
X191538520Y-66096102D01*
X191658218Y-66132412D01*
X191782700Y-66144672D01*
X192773300Y-66144672D01*
X192897782Y-66132412D01*
X193017480Y-66096102D01*
X193127794Y-66037137D01*
X193224485Y-65957785D01*
X193303837Y-65861094D01*
X193362802Y-65750780D01*
X193399112Y-65631082D01*
X193411372Y-65506600D01*
X193411372Y-63728600D01*
X193684628Y-63728600D01*
X193684628Y-65506600D01*
X193696888Y-65631082D01*
X193733198Y-65750780D01*
X193792163Y-65861094D01*
X193871515Y-65957785D01*
X193968206Y-66037137D01*
X194078520Y-66096102D01*
X194198218Y-66132412D01*
X194322700Y-66144672D01*
X195313300Y-66144672D01*
X195437782Y-66132412D01*
X195557480Y-66096102D01*
X195667794Y-66037137D01*
X195764485Y-65957785D01*
X195843837Y-65861094D01*
X195902802Y-65750780D01*
X195939112Y-65631082D01*
X195951372Y-65506600D01*
X195951372Y-63728600D01*
X196224628Y-63728600D01*
X196224628Y-65506600D01*
X196236888Y-65631082D01*
X196273198Y-65750780D01*
X196332163Y-65861094D01*
X196411515Y-65957785D01*
X196508206Y-66037137D01*
X196618520Y-66096102D01*
X196738218Y-66132412D01*
X196862700Y-66144672D01*
X197853300Y-66144672D01*
X197977782Y-66132412D01*
X198097480Y-66096102D01*
X198207794Y-66037137D01*
X198304485Y-65957785D01*
X198383837Y-65861094D01*
X198442802Y-65750780D01*
X198479112Y-65631082D01*
X198491372Y-65506600D01*
X198491372Y-63728600D01*
X198764628Y-63728600D01*
X198764628Y-65506600D01*
X198776888Y-65631082D01*
X198813198Y-65750780D01*
X198872163Y-65861094D01*
X198951515Y-65957785D01*
X199048206Y-66037137D01*
X199158520Y-66096102D01*
X199278218Y-66132412D01*
X199402700Y-66144672D01*
X200393300Y-66144672D01*
X200517782Y-66132412D01*
X200637480Y-66096102D01*
X200747794Y-66037137D01*
X200844485Y-65957785D01*
X200923837Y-65861094D01*
X200982802Y-65750780D01*
X201019112Y-65631082D01*
X201031372Y-65506600D01*
X201031372Y-63728600D01*
X201019112Y-63604118D01*
X200982802Y-63484420D01*
X200923837Y-63374106D01*
X200844485Y-63277415D01*
X200747794Y-63198063D01*
X200637480Y-63139098D01*
X200517782Y-63102788D01*
X200393300Y-63090528D01*
X199402700Y-63090528D01*
X199278218Y-63102788D01*
X199158520Y-63139098D01*
X199048206Y-63198063D01*
X198951515Y-63277415D01*
X198872163Y-63374106D01*
X198813198Y-63484420D01*
X198776888Y-63604118D01*
X198764628Y-63728600D01*
X198491372Y-63728600D01*
X198479112Y-63604118D01*
X198442802Y-63484420D01*
X198383837Y-63374106D01*
X198304485Y-63277415D01*
X198207794Y-63198063D01*
X198097480Y-63139098D01*
X197977782Y-63102788D01*
X197853300Y-63090528D01*
X196862700Y-63090528D01*
X196738218Y-63102788D01*
X196618520Y-63139098D01*
X196508206Y-63198063D01*
X196411515Y-63277415D01*
X196332163Y-63374106D01*
X196273198Y-63484420D01*
X196236888Y-63604118D01*
X196224628Y-63728600D01*
X195951372Y-63728600D01*
X195939112Y-63604118D01*
X195902802Y-63484420D01*
X195843837Y-63374106D01*
X195764485Y-63277415D01*
X195667794Y-63198063D01*
X195557480Y-63139098D01*
X195437782Y-63102788D01*
X195313300Y-63090528D01*
X194322700Y-63090528D01*
X194198218Y-63102788D01*
X194078520Y-63139098D01*
X193968206Y-63198063D01*
X193871515Y-63277415D01*
X193792163Y-63374106D01*
X193733198Y-63484420D01*
X193696888Y-63604118D01*
X193684628Y-63728600D01*
X193411372Y-63728600D01*
X193399112Y-63604118D01*
X193362802Y-63484420D01*
X193303837Y-63374106D01*
X193224485Y-63277415D01*
X193127794Y-63198063D01*
X193017480Y-63139098D01*
X192897782Y-63102788D01*
X192773300Y-63090528D01*
X191782700Y-63090528D01*
X191658218Y-63102788D01*
X191538520Y-63139098D01*
X191428206Y-63198063D01*
X191331515Y-63277415D01*
X191252163Y-63374106D01*
X191193198Y-63484420D01*
X191156888Y-63604118D01*
X191144628Y-63728600D01*
X190871372Y-63728600D01*
X190859112Y-63604118D01*
X190822802Y-63484420D01*
X190763837Y-63374106D01*
X190684485Y-63277415D01*
X190587794Y-63198063D01*
X190477480Y-63139098D01*
X190357782Y-63102788D01*
X190233300Y-63090528D01*
X189242700Y-63090528D01*
X189118218Y-63102788D01*
X188998520Y-63139098D01*
X188888206Y-63198063D01*
X188791515Y-63277415D01*
X188712163Y-63374106D01*
X188653198Y-63484420D01*
X188616888Y-63604118D01*
X188604628Y-63728600D01*
X188331372Y-63728600D01*
X188319112Y-63604118D01*
X188282802Y-63484420D01*
X188223837Y-63374106D01*
X188144485Y-63277415D01*
X188047794Y-63198063D01*
X187937480Y-63139098D01*
X187817782Y-63102788D01*
X187693300Y-63090528D01*
X186702700Y-63090528D01*
X186578218Y-63102788D01*
X186458520Y-63139098D01*
X186348206Y-63198063D01*
X186251515Y-63277415D01*
X186172163Y-63374106D01*
X186113198Y-63484420D01*
X186076888Y-63604118D01*
X186064628Y-63728600D01*
X185791372Y-63728600D01*
X185779112Y-63604118D01*
X185742802Y-63484420D01*
X185683837Y-63374106D01*
X185604485Y-63277415D01*
X185507794Y-63198063D01*
X185397480Y-63139098D01*
X185277782Y-63102788D01*
X185153300Y-63090528D01*
X184162700Y-63090528D01*
X184038218Y-63102788D01*
X183918520Y-63139098D01*
X183808206Y-63198063D01*
X183711515Y-63277415D01*
X183632163Y-63374106D01*
X183573198Y-63484420D01*
X183536888Y-63604118D01*
X183524628Y-63728600D01*
X183251372Y-63728600D01*
X183239112Y-63604118D01*
X183202802Y-63484420D01*
X183143837Y-63374106D01*
X183064485Y-63277415D01*
X182967794Y-63198063D01*
X182857480Y-63139098D01*
X182737782Y-63102788D01*
X182613300Y-63090528D01*
X181622700Y-63090528D01*
X181498218Y-63102788D01*
X181378520Y-63139098D01*
X181268206Y-63198063D01*
X181171515Y-63277415D01*
X181092163Y-63374106D01*
X181033198Y-63484420D01*
X180996888Y-63604118D01*
X180984628Y-63728600D01*
X180711372Y-63728600D01*
X180699112Y-63604118D01*
X180662802Y-63484420D01*
X180603837Y-63374106D01*
X180524485Y-63277415D01*
X180427794Y-63198063D01*
X180317480Y-63139098D01*
X180197782Y-63102788D01*
X180073300Y-63090528D01*
X179082700Y-63090528D01*
X178958218Y-63102788D01*
X178838520Y-63139098D01*
X178728206Y-63198063D01*
X178631515Y-63277415D01*
X178552163Y-63374106D01*
X178493198Y-63484420D01*
X178456888Y-63604118D01*
X178444628Y-63728600D01*
X137531372Y-63728600D01*
X137519112Y-63604118D01*
X137482802Y-63484420D01*
X137423837Y-63374106D01*
X137344485Y-63277415D01*
X137247794Y-63198063D01*
X137137480Y-63139098D01*
X137017782Y-63102788D01*
X136893300Y-63090528D01*
X135902700Y-63090528D01*
X135778218Y-63102788D01*
X135658520Y-63139098D01*
X135548206Y-63198063D01*
X135451515Y-63277415D01*
X135372163Y-63374106D01*
X135313198Y-63484420D01*
X135276888Y-63604118D01*
X135264628Y-63728600D01*
X134991372Y-63728600D01*
X134979112Y-63604118D01*
X134942802Y-63484420D01*
X134883837Y-63374106D01*
X134804485Y-63277415D01*
X134707794Y-63198063D01*
X134597480Y-63139098D01*
X134477782Y-63102788D01*
X134353300Y-63090528D01*
X133362700Y-63090528D01*
X133238218Y-63102788D01*
X133118520Y-63139098D01*
X133008206Y-63198063D01*
X132911515Y-63277415D01*
X132832163Y-63374106D01*
X132773198Y-63484420D01*
X132736888Y-63604118D01*
X132724628Y-63728600D01*
X132451372Y-63728600D01*
X132439112Y-63604118D01*
X132402802Y-63484420D01*
X132343837Y-63374106D01*
X132264485Y-63277415D01*
X132167794Y-63198063D01*
X132057480Y-63139098D01*
X131937782Y-63102788D01*
X131813300Y-63090528D01*
X130822700Y-63090528D01*
X130698218Y-63102788D01*
X130578520Y-63139098D01*
X130468206Y-63198063D01*
X130371515Y-63277415D01*
X130292163Y-63374106D01*
X130233198Y-63484420D01*
X130196888Y-63604118D01*
X130184628Y-63728600D01*
X129911372Y-63728600D01*
X129899112Y-63604118D01*
X129862802Y-63484420D01*
X129803837Y-63374106D01*
X129724485Y-63277415D01*
X129627794Y-63198063D01*
X129517480Y-63139098D01*
X129397782Y-63102788D01*
X129273300Y-63090528D01*
X128282700Y-63090528D01*
X128158218Y-63102788D01*
X128143000Y-63107404D01*
X128143000Y-63006015D01*
X128317898Y-62971226D01*
X128506256Y-62893205D01*
X128675774Y-62779937D01*
X128819937Y-62635774D01*
X128933205Y-62466256D01*
X129011226Y-62277898D01*
X129051000Y-62077939D01*
X129051000Y-61874061D01*
X129011226Y-61674102D01*
X128933205Y-61485744D01*
X128819937Y-61316226D01*
X128675774Y-61172063D01*
X128506256Y-61058795D01*
X128317898Y-60980774D01*
X128117939Y-60941000D01*
X127914061Y-60941000D01*
X127714102Y-60980774D01*
X127525744Y-61058795D01*
X127356226Y-61172063D01*
X127212063Y-61316226D01*
X127098795Y-61485744D01*
X127020774Y-61674102D01*
X126981000Y-61874061D01*
X126981000Y-61933370D01*
X126868654Y-62045716D01*
X126839578Y-62069578D01*
X126813500Y-62101355D01*
X126744355Y-62185608D01*
X126709756Y-62250340D01*
X126673598Y-62317986D01*
X126630026Y-62461623D01*
X126627394Y-62488351D01*
X126615314Y-62611000D01*
X126619000Y-62648423D01*
X126619000Y-63090528D01*
X125742700Y-63090528D01*
X125618218Y-63102788D01*
X125498520Y-63139098D01*
X125388206Y-63198063D01*
X125291515Y-63277415D01*
X125212163Y-63374106D01*
X125153198Y-63484420D01*
X125116888Y-63604118D01*
X125104628Y-63728600D01*
X125104628Y-65506600D01*
X125116888Y-65631082D01*
X125153198Y-65750780D01*
X125212163Y-65861094D01*
X125291515Y-65957785D01*
X125388206Y-66037137D01*
X125498520Y-66096102D01*
X125618218Y-66132412D01*
X125742700Y-66144672D01*
X126619000Y-66144672D01*
X126619001Y-68983328D01*
X125742700Y-68983328D01*
X125618218Y-68995588D01*
X125498520Y-69031898D01*
X125388206Y-69090863D01*
X125291515Y-69170215D01*
X125212163Y-69266906D01*
X125153198Y-69377220D01*
X125116888Y-69496918D01*
X125104628Y-69621400D01*
X125104628Y-71399400D01*
X125116888Y-71523882D01*
X125153198Y-71643580D01*
X125212163Y-71753894D01*
X125291515Y-71850585D01*
X125388206Y-71929937D01*
X125498520Y-71988902D01*
X125618218Y-72025212D01*
X125742700Y-72037472D01*
X126619001Y-72037472D01*
X126619001Y-72136000D01*
X125161711Y-72136000D01*
X125119774Y-72094063D01*
X124950256Y-71980795D01*
X124761898Y-71902774D01*
X124616205Y-71873794D01*
X124644485Y-71850585D01*
X124723837Y-71753894D01*
X124782802Y-71643580D01*
X124819112Y-71523882D01*
X124831372Y-71399400D01*
X124831372Y-69621400D01*
X124819112Y-69496918D01*
X124782802Y-69377220D01*
X124723837Y-69266906D01*
X124644485Y-69170215D01*
X124547794Y-69090863D01*
X124437480Y-69031898D01*
X124317782Y-68995588D01*
X124193300Y-68983328D01*
X123202700Y-68983328D01*
X123078218Y-68995588D01*
X122958520Y-69031898D01*
X122848206Y-69090863D01*
X122751515Y-69170215D01*
X122672163Y-69266906D01*
X122613198Y-69377220D01*
X122576888Y-69496918D01*
X122564628Y-69621400D01*
X122291372Y-69621400D01*
X122279112Y-69496918D01*
X122242802Y-69377220D01*
X122183837Y-69266906D01*
X122104485Y-69170215D01*
X122007794Y-69090863D01*
X121897480Y-69031898D01*
X121777782Y-68995588D01*
X121653300Y-68983328D01*
X120662700Y-68983328D01*
X120538218Y-68995588D01*
X120418520Y-69031898D01*
X120308206Y-69090863D01*
X120211515Y-69170215D01*
X120132163Y-69266906D01*
X120073198Y-69377220D01*
X120036888Y-69496918D01*
X120024628Y-69621400D01*
X119751372Y-69621400D01*
X119739112Y-69496918D01*
X119702802Y-69377220D01*
X119643837Y-69266906D01*
X119564485Y-69170215D01*
X119467794Y-69090863D01*
X119357480Y-69031898D01*
X119237782Y-68995588D01*
X119113300Y-68983328D01*
X118122700Y-68983328D01*
X117998218Y-68995588D01*
X117878520Y-69031898D01*
X117768206Y-69090863D01*
X117671515Y-69170215D01*
X117592163Y-69266906D01*
X117533198Y-69377220D01*
X117496888Y-69496918D01*
X117484628Y-69621400D01*
X117211372Y-69621400D01*
X117199112Y-69496918D01*
X117162802Y-69377220D01*
X117103837Y-69266906D01*
X117024485Y-69170215D01*
X116927794Y-69090863D01*
X116817480Y-69031898D01*
X116697782Y-68995588D01*
X116573300Y-68983328D01*
X115582700Y-68983328D01*
X115458218Y-68995588D01*
X115338520Y-69031898D01*
X115228206Y-69090863D01*
X115131515Y-69170215D01*
X115052163Y-69266906D01*
X114993198Y-69377220D01*
X114956888Y-69496918D01*
X114944628Y-69621400D01*
X114671372Y-69621400D01*
X114659112Y-69496918D01*
X114622802Y-69377220D01*
X114563837Y-69266906D01*
X114484485Y-69170215D01*
X114387794Y-69090863D01*
X114300000Y-69043935D01*
X114300000Y-68641630D01*
X115320353Y-67621278D01*
X115349422Y-67597422D01*
X115444645Y-67481392D01*
X115515402Y-67349015D01*
X115558974Y-67205378D01*
X115570000Y-67093426D01*
X115570000Y-67093424D01*
X115573686Y-67056001D01*
X115570000Y-67018578D01*
X115570000Y-66143421D01*
X115582700Y-66144672D01*
X116573300Y-66144672D01*
X116697782Y-66132412D01*
X116817480Y-66096102D01*
X116927794Y-66037137D01*
X117024485Y-65957785D01*
X117103837Y-65861094D01*
X117162802Y-65750780D01*
X117199112Y-65631082D01*
X117211372Y-65506600D01*
X117211372Y-63728600D01*
X117484628Y-63728600D01*
X117484628Y-65506600D01*
X117496888Y-65631082D01*
X117533198Y-65750780D01*
X117592163Y-65861094D01*
X117671515Y-65957785D01*
X117768206Y-66037137D01*
X117878520Y-66096102D01*
X117998218Y-66132412D01*
X118122700Y-66144672D01*
X119113300Y-66144672D01*
X119237782Y-66132412D01*
X119357480Y-66096102D01*
X119467794Y-66037137D01*
X119564485Y-65957785D01*
X119643837Y-65861094D01*
X119702802Y-65750780D01*
X119739112Y-65631082D01*
X119751372Y-65506600D01*
X119751372Y-63728600D01*
X120024628Y-63728600D01*
X120024628Y-65506600D01*
X120036888Y-65631082D01*
X120073198Y-65750780D01*
X120132163Y-65861094D01*
X120211515Y-65957785D01*
X120308206Y-66037137D01*
X120418520Y-66096102D01*
X120538218Y-66132412D01*
X120662700Y-66144672D01*
X121653300Y-66144672D01*
X121777782Y-66132412D01*
X121897480Y-66096102D01*
X122007794Y-66037137D01*
X122104485Y-65957785D01*
X122183837Y-65861094D01*
X122242802Y-65750780D01*
X122279112Y-65631082D01*
X122291372Y-65506600D01*
X122291372Y-63728600D01*
X122564628Y-63728600D01*
X122564628Y-65506600D01*
X122576888Y-65631082D01*
X122613198Y-65750780D01*
X122672163Y-65861094D01*
X122751515Y-65957785D01*
X122848206Y-66037137D01*
X122958520Y-66096102D01*
X123078218Y-66132412D01*
X123202700Y-66144672D01*
X124193300Y-66144672D01*
X124317782Y-66132412D01*
X124437480Y-66096102D01*
X124547794Y-66037137D01*
X124644485Y-65957785D01*
X124723837Y-65861094D01*
X124782802Y-65750780D01*
X124819112Y-65631082D01*
X124831372Y-65506600D01*
X124831372Y-63728600D01*
X124819112Y-63604118D01*
X124782802Y-63484420D01*
X124723837Y-63374106D01*
X124644485Y-63277415D01*
X124547794Y-63198063D01*
X124437480Y-63139098D01*
X124317782Y-63102788D01*
X124193300Y-63090528D01*
X123202700Y-63090528D01*
X123078218Y-63102788D01*
X122958520Y-63139098D01*
X122848206Y-63198063D01*
X122751515Y-63277415D01*
X122672163Y-63374106D01*
X122613198Y-63484420D01*
X122576888Y-63604118D01*
X122564628Y-63728600D01*
X122291372Y-63728600D01*
X122279112Y-63604118D01*
X122242802Y-63484420D01*
X122183837Y-63374106D01*
X122104485Y-63277415D01*
X122007794Y-63198063D01*
X121897480Y-63139098D01*
X121777782Y-63102788D01*
X121653300Y-63090528D01*
X120662700Y-63090528D01*
X120538218Y-63102788D01*
X120418520Y-63139098D01*
X120308206Y-63198063D01*
X120211515Y-63277415D01*
X120132163Y-63374106D01*
X120073198Y-63484420D01*
X120036888Y-63604118D01*
X120024628Y-63728600D01*
X119751372Y-63728600D01*
X119739112Y-63604118D01*
X119702802Y-63484420D01*
X119643837Y-63374106D01*
X119564485Y-63277415D01*
X119467794Y-63198063D01*
X119357480Y-63139098D01*
X119237782Y-63102788D01*
X119113300Y-63090528D01*
X118122700Y-63090528D01*
X117998218Y-63102788D01*
X117878520Y-63139098D01*
X117768206Y-63198063D01*
X117671515Y-63277415D01*
X117592163Y-63374106D01*
X117533198Y-63484420D01*
X117496888Y-63604118D01*
X117484628Y-63728600D01*
X117211372Y-63728600D01*
X117199112Y-63604118D01*
X117162802Y-63484420D01*
X117103837Y-63374106D01*
X117024485Y-63277415D01*
X116927794Y-63198063D01*
X116817480Y-63139098D01*
X116697782Y-63102788D01*
X116573300Y-63090528D01*
X115582700Y-63090528D01*
X115570000Y-63091779D01*
X115570000Y-62775423D01*
X115573686Y-62738000D01*
X115565998Y-62659940D01*
X115558974Y-62588622D01*
X115515402Y-62444985D01*
X115472756Y-62365200D01*
X115444645Y-62312607D01*
X115373279Y-62225648D01*
X115349422Y-62196578D01*
X115320352Y-62172721D01*
X113938000Y-60790370D01*
X113938000Y-60731061D01*
X113898226Y-60531102D01*
X113820205Y-60342744D01*
X113706937Y-60173226D01*
X113562774Y-60029063D01*
X113393256Y-59915795D01*
X113204898Y-59837774D01*
X113004939Y-59798000D01*
X112928000Y-59798000D01*
X112928000Y-50927000D01*
X114152670Y-50927000D01*
X114193892Y-51345533D01*
X114315974Y-51747982D01*
X114514223Y-52118881D01*
X114781023Y-52443977D01*
X115106119Y-52710777D01*
X115477018Y-52909026D01*
X115879467Y-53031108D01*
X116193118Y-53062000D01*
X118502882Y-53062000D01*
X118816533Y-53031108D01*
X119218982Y-52909026D01*
X119589881Y-52710777D01*
X119914977Y-52443977D01*
X120181777Y-52118881D01*
X120380026Y-51747982D01*
X120502108Y-51345533D01*
X120543330Y-50927000D01*
X120530822Y-50800000D01*
X131890670Y-50800000D01*
X131931892Y-51218533D01*
X132053974Y-51620982D01*
X132252223Y-51991881D01*
X132519023Y-52316977D01*
X132844119Y-52583777D01*
X133215018Y-52782026D01*
X133617467Y-52904108D01*
X133931118Y-52935000D01*
X136240882Y-52935000D01*
X136554533Y-52904108D01*
X136956982Y-52782026D01*
X137327881Y-52583777D01*
X137652977Y-52316977D01*
X137919777Y-51991881D01*
X138118026Y-51620982D01*
X138240108Y-51218533D01*
X138281330Y-50800000D01*
X149458670Y-50800000D01*
X149499892Y-51218533D01*
X149621974Y-51620982D01*
X149820223Y-51991881D01*
X150087023Y-52316977D01*
X150412119Y-52583777D01*
X150783018Y-52782026D01*
X151185467Y-52904108D01*
X151499118Y-52935000D01*
X153808882Y-52935000D01*
X154122533Y-52904108D01*
X154524982Y-52782026D01*
X154895881Y-52583777D01*
X155220977Y-52316977D01*
X155487777Y-51991881D01*
X155686026Y-51620982D01*
X155808108Y-51218533D01*
X155849330Y-50800000D01*
X155808108Y-50381467D01*
X155686026Y-49979018D01*
X155487777Y-49608119D01*
X155220977Y-49283023D01*
X154895881Y-49016223D01*
X154524982Y-48817974D01*
X154122533Y-48695892D01*
X153808882Y-48665000D01*
X151499118Y-48665000D01*
X151185467Y-48695892D01*
X150783018Y-48817974D01*
X150412119Y-49016223D01*
X150087023Y-49283023D01*
X149820223Y-49608119D01*
X149621974Y-49979018D01*
X149499892Y-50381467D01*
X149458670Y-50800000D01*
X138281330Y-50800000D01*
X138240108Y-50381467D01*
X138118026Y-49979018D01*
X137919777Y-49608119D01*
X137652977Y-49283023D01*
X137327881Y-49016223D01*
X136956982Y-48817974D01*
X136554533Y-48695892D01*
X136240882Y-48665000D01*
X133931118Y-48665000D01*
X133617467Y-48695892D01*
X133215018Y-48817974D01*
X132844119Y-49016223D01*
X132519023Y-49283023D01*
X132252223Y-49608119D01*
X132053974Y-49979018D01*
X131931892Y-50381467D01*
X131890670Y-50800000D01*
X120530822Y-50800000D01*
X120502108Y-50508467D01*
X120380026Y-50106018D01*
X120181777Y-49735119D01*
X119914977Y-49410023D01*
X119589881Y-49143223D01*
X119218982Y-48944974D01*
X118816533Y-48822892D01*
X118502882Y-48792000D01*
X116193118Y-48792000D01*
X115879467Y-48822892D01*
X115477018Y-48944974D01*
X115106119Y-49143223D01*
X114781023Y-49410023D01*
X114514223Y-49735119D01*
X114315974Y-50106018D01*
X114193892Y-50508467D01*
X114152670Y-50927000D01*
X112928000Y-50927000D01*
X112928000Y-40375408D01*
X168529000Y-40375408D01*
X168529000Y-40650592D01*
X168582686Y-40920490D01*
X168687995Y-41174727D01*
X168840880Y-41403535D01*
X169035465Y-41598120D01*
X169264273Y-41751005D01*
X169518510Y-41856314D01*
X169788408Y-41910000D01*
X170063592Y-41910000D01*
X170333490Y-41856314D01*
X170587727Y-41751005D01*
X170816535Y-41598120D01*
X171011120Y-41403535D01*
X171164005Y-41174727D01*
X171269314Y-40920490D01*
X171323000Y-40650592D01*
X171323000Y-40375408D01*
X171269314Y-40105510D01*
X171164005Y-39851273D01*
X171011120Y-39622465D01*
X170816535Y-39427880D01*
X170587727Y-39274995D01*
X170333490Y-39169686D01*
X170063592Y-39116000D01*
X169788408Y-39116000D01*
X169518510Y-39169686D01*
X169264273Y-39274995D01*
X169035465Y-39427880D01*
X168840880Y-39622465D01*
X168687995Y-39851273D01*
X168582686Y-40105510D01*
X168529000Y-40375408D01*
X112928000Y-40375408D01*
X112928000Y-35981106D01*
X169278300Y-35981106D01*
X169278300Y-36408894D01*
X169361757Y-36828462D01*
X169525464Y-37223686D01*
X169763130Y-37579378D01*
X170065622Y-37881870D01*
X170421314Y-38119536D01*
X170816538Y-38283243D01*
X171236106Y-38366700D01*
X171663894Y-38366700D01*
X172083462Y-38283243D01*
X172478686Y-38119536D01*
X172834378Y-37881870D01*
X173136870Y-37579378D01*
X173374536Y-37223686D01*
X173538243Y-36828462D01*
X173621700Y-36408894D01*
X173621700Y-35981106D01*
X173538243Y-35561538D01*
X173374536Y-35166314D01*
X173136870Y-34810622D01*
X172834378Y-34508130D01*
X172478686Y-34270464D01*
X172083462Y-34106757D01*
X171663894Y-34023300D01*
X171236106Y-34023300D01*
X170816538Y-34106757D01*
X170421314Y-34270464D01*
X170065622Y-34508130D01*
X169763130Y-34810622D01*
X169525464Y-35166314D01*
X169361757Y-35561538D01*
X169278300Y-35981106D01*
X112928000Y-35981106D01*
X112928000Y-34068279D01*
X112942722Y-33918131D01*
X112976953Y-33804754D01*
X113032555Y-33700181D01*
X113107407Y-33608404D01*
X113198664Y-33532909D01*
X113302844Y-33476581D01*
X113415976Y-33441560D01*
X113564022Y-33426000D01*
X193538191Y-33426000D01*
X196069700Y-33501133D01*
G36*
X114046001Y-63053632D02*
G01*
X114046000Y-66740369D01*
X113025649Y-67760721D01*
X112996579Y-67784578D01*
X112972722Y-67813648D01*
X112972721Y-67813649D01*
X112928000Y-67868141D01*
X112928000Y-61935630D01*
X114046001Y-63053632D01*
G37*
X114046001Y-63053632D02*
X114046000Y-66740369D01*
X113025649Y-67760721D01*
X112996579Y-67784578D01*
X112972722Y-67813648D01*
X112972721Y-67813649D01*
X112928000Y-67868141D01*
X112928000Y-61935630D01*
X114046001Y-63053632D01*
%TD*%
M02*
