%TF.GenerationSoftware,KiCad,Pcbnew,(5.1.6)-1*%
%TF.CreationDate,2022-03-14T17:12:03-05:00*%
%TF.ProjectId,2022 Multimedia Rev1,32303232-204d-4756-9c74-696d65646961,rev?*%
%TF.SameCoordinates,Original*%
%TF.FileFunction,Soldermask,Bot*%
%TF.FilePolarity,Negative*%
%FSLAX46Y46*%
G04 Gerber Fmt 4.6, Leading zero omitted, Abs format (unit mm)*
G04 Created by KiCad (PCBNEW (5.1.6)-1) date 2022-03-14 17:12:03*
%MOMM*%
%LPD*%
G01*
G04 APERTURE LIST*
%ADD10O,5.200000X3.100000*%
%ADD11O,3.100000X5.200000*%
%ADD12C,1.624000*%
%ADD13C,3.173400*%
%ADD14R,1.090600X1.878000*%
%ADD15C,3.100000*%
%ADD16R,1.458000X1.458000*%
%ADD17C,1.458000*%
G04 APERTURE END LIST*
D10*
%TO.C,Conn4*%
X160528000Y-50800000D03*
X152654000Y-50800000D03*
%TD*%
D11*
%TO.C,Conn1*%
X130302000Y-79744000D03*
X130279000Y-95492000D03*
X130302000Y-87630000D03*
%TD*%
D12*
%TO.C,Data*%
X169926000Y-40513000D03*
X172974000Y-40513000D03*
D13*
X171450000Y-36195000D03*
%TD*%
D14*
%TO.C,U4*%
X136398000Y-64617600D03*
X133858000Y-64617600D03*
X131318000Y-64617600D03*
X128778000Y-64617600D03*
X126238000Y-64617600D03*
X123698000Y-64617600D03*
X121158000Y-64617600D03*
X118618000Y-64617600D03*
X116078000Y-64617600D03*
X113538000Y-64617600D03*
X136398000Y-70510400D03*
X133858000Y-70510400D03*
X131318000Y-70510400D03*
X128778000Y-70510400D03*
X126238000Y-70510400D03*
X123698000Y-70510400D03*
X121158000Y-70510400D03*
X118618000Y-70510400D03*
X116078000Y-70510400D03*
X113538000Y-70510400D03*
X136398000Y-113690400D03*
X133858000Y-113690400D03*
X131318000Y-113690400D03*
X128778000Y-113690400D03*
X126238000Y-113690400D03*
X123698000Y-113690400D03*
X121158000Y-113690400D03*
X118618000Y-113690400D03*
X116078000Y-113690400D03*
X113538000Y-113690400D03*
X136398000Y-107797600D03*
X133858000Y-107797600D03*
X131318000Y-107797600D03*
X128778000Y-107797600D03*
X126238000Y-107797600D03*
X123698000Y-107797600D03*
X121158000Y-107797600D03*
X118618000Y-107797600D03*
X116078000Y-107797600D03*
X113538000Y-107797600D03*
X182118000Y-64617600D03*
X179578000Y-64617600D03*
X177038000Y-64617600D03*
X199898000Y-70510400D03*
X197358000Y-70510400D03*
X194818000Y-70510400D03*
X192278000Y-70510400D03*
X189738000Y-70510400D03*
X187198000Y-70510400D03*
X184658000Y-70510400D03*
X182118000Y-70510400D03*
X179578000Y-70510400D03*
X177038000Y-70510400D03*
X199898000Y-113690400D03*
X194818000Y-113690400D03*
X189738000Y-113690400D03*
X187198000Y-113690400D03*
X184658000Y-113690400D03*
X182118000Y-113690400D03*
X179578000Y-113690400D03*
X199898000Y-107797600D03*
X194818000Y-107797600D03*
X184658000Y-107797600D03*
X182118000Y-107797600D03*
X179578000Y-107797600D03*
X177038000Y-107797600D03*
X189738000Y-107797600D03*
X192278000Y-107797600D03*
X197358000Y-113690400D03*
X184658000Y-64617600D03*
X187198000Y-64617600D03*
X197358000Y-107797600D03*
X192278000Y-113690400D03*
X194818000Y-64617600D03*
X192278000Y-64617600D03*
X187198000Y-107797600D03*
X189738000Y-64617600D03*
X197358000Y-64617600D03*
X199898000Y-64617600D03*
X177038000Y-113690400D03*
%TD*%
D15*
%TO.C,U2*%
X149606000Y-95504000D03*
X169164000Y-95567500D03*
X162941000Y-95504000D03*
X155829000Y-95504000D03*
%TD*%
D16*
%TO.C,U1*%
X156972000Y-105156000D03*
D17*
X159512000Y-105156000D03*
X162052000Y-105156000D03*
%TD*%
D10*
%TO.C,Conn3*%
X142960000Y-50800000D03*
X135086000Y-50800000D03*
%TD*%
%TO.C,Conn2*%
X125222000Y-50927000D03*
X117348000Y-50927000D03*
%TD*%
M02*
