%TF.GenerationSoftware,KiCad,Pcbnew,(5.1.6)-1*%
%TF.CreationDate,2022-03-14T17:12:03-05:00*%
%TF.ProjectId,2022 Multimedia Rev1,32303232-204d-4756-9c74-696d65646961,rev?*%
%TF.SameCoordinates,Original*%
%TF.FileFunction,Profile,NP*%
%FSLAX46Y46*%
G04 Gerber Fmt 4.6, Leading zero omitted, Abs format (unit mm)*
G04 Created by KiCad (PCBNEW (5.1.6)-1) date 2022-03-14 17:12:03*
%MOMM*%
%LPD*%
G01*
G04 APERTURE LIST*
%TA.AperFunction,Profile*%
%ADD10C,0.050000*%
%TD*%
G04 APERTURE END LIST*
D10*
X236728000Y-75946000D02*
X236728000Y-90932000D01*
X176530000Y-32766000D02*
X193548000Y-32766000D01*
X193548000Y-32766000D02*
G75*
G02*
X236728000Y-75946000I0J-43180000D01*
G01*
X112268000Y-34036000D02*
G75*
G02*
X113538000Y-32766000I1270000J0D01*
G01*
X112268000Y-52324000D02*
X112268000Y-34036000D01*
X176530000Y-32766000D02*
X113538000Y-32766000D01*
X112268000Y-52324000D02*
X112268000Y-54610000D01*
X112268000Y-123952000D02*
G75*
G02*
X112268000Y-128016000I0J-2032000D01*
G01*
X114300000Y-138684000D02*
G75*
G02*
X112268000Y-136652000I0J2032000D01*
G01*
X236728000Y-136652000D02*
G75*
G02*
X234696000Y-138684000I-2032000J0D01*
G01*
X236728000Y-128016000D02*
G75*
G02*
X236728000Y-123952000I0J2032000D01*
G01*
X234696000Y-113792000D02*
G75*
G02*
X236728000Y-115824000I0J-2032000D01*
G01*
X236728000Y-90932000D02*
G75*
G02*
X234696000Y-92964000I-2032000J0D01*
G01*
X218948000Y-92964000D02*
X234696000Y-92964000D01*
X218948000Y-113792000D02*
X218948000Y-92964000D01*
X234696000Y-113792000D02*
X218948000Y-113792000D01*
X236728000Y-123952000D02*
X236728000Y-115824000D01*
X236728000Y-136652000D02*
X236728000Y-128016000D01*
X112268000Y-123952000D02*
X112268000Y-54610000D01*
X112268000Y-136652000D02*
X112268000Y-128016000D01*
X234696000Y-138684000D02*
X114300000Y-138684000D01*
M02*
