M48
; DRILL file {KiCad (5.1.6)-1} date 03/14/22 17:05:43
; FORMAT={-:-/ absolute / inch / decimal}
; #@! TF.CreationDate,2022-03-14T17:05:43-05:00
; #@! TF.GenerationSoftware,Kicad,Pcbnew,(5.1.6)-1
; #@! TF.FileFunction,Plated,1,2,PTH
FMAT,2
INCH
T1C0.0157
T2C0.0335
T3C0.0400
T4C0.0787
T5C0.1210
%
G90
G05
T1
X4.445Y-2.395
X4.45Y-2.625
X4.55Y-3.0
X4.55Y-3.1
X4.55Y-3.2
X4.6Y-3.05
X4.6Y-3.15
X4.65Y-3.0
X4.65Y-3.1
X4.65Y-3.2
X4.7Y-3.05
X4.7Y-3.15
X4.75Y-3.0
X4.75Y-3.1
X4.75Y-3.2
X4.8Y-3.05
X4.8Y-3.15
X4.85Y-3.0
X4.85Y-3.1
X4.85Y-3.2
X4.9Y-2.87
X4.9Y-3.29
X4.9Y-3.445
X4.965Y-4.17
X5.04Y-2.44
X6.58Y-4.48
T2
X6.18Y-4.14
X6.28Y-4.14
X6.38Y-4.14
T3
X6.69Y-1.595
X6.81Y-1.595
T4
X5.89Y-3.76
X6.135Y-3.76
X6.415Y-3.76
X6.66Y-3.7625
T5
X6.75Y-1.425
T4
G00X5.1291Y-3.7182
M15
G01X5.1291Y-3.8009
M16
G05
G00X5.13Y-3.0982
M15
G01X5.13Y-3.1809
M16
G05
G00X5.13Y-3.4087
M15
G01X5.13Y-3.4913
M16
G05
G00X6.0513Y-2.0
M15
G01X5.9687Y-2.0
M16
G05
G00X6.3613Y-2.0
M15
G01X6.2787Y-2.0
M16
G05
G00X4.6613Y-2.005
M15
G01X4.5787Y-2.005
M16
G05
G00X4.9713Y-2.005
M15
G01X4.8887Y-2.005
M16
G05
G00X5.3597Y-2.0
M15
G01X5.277Y-2.0
M16
G05
G00X5.6697Y-2.0
M15
G01X5.587Y-2.0
M16
G05
T0
M30
