G04 #@! TF.GenerationSoftware,KiCad,Pcbnew,(5.1.6)-1*
G04 #@! TF.CreationDate,2020-11-29T23:09:34-06:00*
G04 #@! TF.ProjectId,MultimediaAndBlackBoxBoard,4d756c74-696d-4656-9469-61416e64426c,rev?*
G04 #@! TF.SameCoordinates,Original*
G04 #@! TF.FileFunction,Paste,Top*
G04 #@! TF.FilePolarity,Positive*
%FSLAX46Y46*%
G04 Gerber Fmt 4.6, Leading zero omitted, Abs format (unit mm)*
G04 Created by KiCad (PCBNEW (5.1.6)-1) date 2020-11-29 23:09:34*
%MOMM*%
%LPD*%
G01*
G04 APERTURE LIST*
%ADD10C,5.080000*%
%ADD11C,10.160000*%
%ADD12R,6.350000X2.540000*%
%ADD13R,1.000000X1.800000*%
%ADD14R,0.610000X1.970000*%
%ADD15R,1.350000X1.550000*%
%ADD16R,1.800000X1.170000*%
%ADD17R,1.350000X1.900000*%
%ADD18R,1.000000X1.200000*%
%ADD19R,1.100000X0.850000*%
%ADD20R,1.100000X0.750000*%
G04 APERTURE END LIST*
G36*
G01*
X126701000Y-74913500D02*
X126701000Y-74438500D01*
G75*
G02*
X126938500Y-74201000I237500J0D01*
G01*
X127513500Y-74201000D01*
G75*
G02*
X127751000Y-74438500I0J-237500D01*
G01*
X127751000Y-74913500D01*
G75*
G02*
X127513500Y-75151000I-237500J0D01*
G01*
X126938500Y-75151000D01*
G75*
G02*
X126701000Y-74913500I0J237500D01*
G01*
G37*
G36*
G01*
X124951000Y-74913500D02*
X124951000Y-74438500D01*
G75*
G02*
X125188500Y-74201000I237500J0D01*
G01*
X125763500Y-74201000D01*
G75*
G02*
X126001000Y-74438500I0J-237500D01*
G01*
X126001000Y-74913500D01*
G75*
G02*
X125763500Y-75151000I-237500J0D01*
G01*
X125188500Y-75151000D01*
G75*
G02*
X124951000Y-74913500I0J237500D01*
G01*
G37*
G36*
G01*
X121649500Y-64307000D02*
X121174500Y-64307000D01*
G75*
G02*
X120937000Y-64069500I0J237500D01*
G01*
X120937000Y-63494500D01*
G75*
G02*
X121174500Y-63257000I237500J0D01*
G01*
X121649500Y-63257000D01*
G75*
G02*
X121887000Y-63494500I0J-237500D01*
G01*
X121887000Y-64069500D01*
G75*
G02*
X121649500Y-64307000I-237500J0D01*
G01*
G37*
G36*
G01*
X121649500Y-66057000D02*
X121174500Y-66057000D01*
G75*
G02*
X120937000Y-65819500I0J237500D01*
G01*
X120937000Y-65244500D01*
G75*
G02*
X121174500Y-65007000I237500J0D01*
G01*
X121649500Y-65007000D01*
G75*
G02*
X121887000Y-65244500I0J-237500D01*
G01*
X121887000Y-65819500D01*
G75*
G02*
X121649500Y-66057000I-237500J0D01*
G01*
G37*
G36*
G01*
X126701000Y-76691500D02*
X126701000Y-76216500D01*
G75*
G02*
X126938500Y-75979000I237500J0D01*
G01*
X127513500Y-75979000D01*
G75*
G02*
X127751000Y-76216500I0J-237500D01*
G01*
X127751000Y-76691500D01*
G75*
G02*
X127513500Y-76929000I-237500J0D01*
G01*
X126938500Y-76929000D01*
G75*
G02*
X126701000Y-76691500I0J237500D01*
G01*
G37*
G36*
G01*
X124951000Y-76691500D02*
X124951000Y-76216500D01*
G75*
G02*
X125188500Y-75979000I237500J0D01*
G01*
X125763500Y-75979000D01*
G75*
G02*
X126001000Y-76216500I0J-237500D01*
G01*
X126001000Y-76691500D01*
G75*
G02*
X125763500Y-76929000I-237500J0D01*
G01*
X125188500Y-76929000D01*
G75*
G02*
X124951000Y-76691500I0J237500D01*
G01*
G37*
G36*
G01*
X131781000Y-77961500D02*
X131781000Y-77486500D01*
G75*
G02*
X132018500Y-77249000I237500J0D01*
G01*
X132593500Y-77249000D01*
G75*
G02*
X132831000Y-77486500I0J-237500D01*
G01*
X132831000Y-77961500D01*
G75*
G02*
X132593500Y-78199000I-237500J0D01*
G01*
X132018500Y-78199000D01*
G75*
G02*
X131781000Y-77961500I0J237500D01*
G01*
G37*
G36*
G01*
X130031000Y-77961500D02*
X130031000Y-77486500D01*
G75*
G02*
X130268500Y-77249000I237500J0D01*
G01*
X130843500Y-77249000D01*
G75*
G02*
X131081000Y-77486500I0J-237500D01*
G01*
X131081000Y-77961500D01*
G75*
G02*
X130843500Y-78199000I-237500J0D01*
G01*
X130268500Y-78199000D01*
G75*
G02*
X130031000Y-77961500I0J237500D01*
G01*
G37*
G36*
G01*
X145079000Y-54118500D02*
X145079000Y-54593500D01*
G75*
G02*
X144841500Y-54831000I-237500J0D01*
G01*
X144266500Y-54831000D01*
G75*
G02*
X144029000Y-54593500I0J237500D01*
G01*
X144029000Y-54118500D01*
G75*
G02*
X144266500Y-53881000I237500J0D01*
G01*
X144841500Y-53881000D01*
G75*
G02*
X145079000Y-54118500I0J-237500D01*
G01*
G37*
G36*
G01*
X146829000Y-54118500D02*
X146829000Y-54593500D01*
G75*
G02*
X146591500Y-54831000I-237500J0D01*
G01*
X146016500Y-54831000D01*
G75*
G02*
X145779000Y-54593500I0J237500D01*
G01*
X145779000Y-54118500D01*
G75*
G02*
X146016500Y-53881000I237500J0D01*
G01*
X146591500Y-53881000D01*
G75*
G02*
X146829000Y-54118500I0J-237500D01*
G01*
G37*
D10*
X114046000Y-73406000D03*
X114046000Y-81280000D03*
X114046000Y-89154000D03*
D11*
X105918000Y-55626000D03*
D12*
X105918000Y-48006000D03*
X105918000Y-63246000D03*
G36*
G01*
X163305500Y-74439000D02*
X162830500Y-74439000D01*
G75*
G02*
X162593000Y-74201500I0J237500D01*
G01*
X162593000Y-73626500D01*
G75*
G02*
X162830500Y-73389000I237500J0D01*
G01*
X163305500Y-73389000D01*
G75*
G02*
X163543000Y-73626500I0J-237500D01*
G01*
X163543000Y-74201500D01*
G75*
G02*
X163305500Y-74439000I-237500J0D01*
G01*
G37*
G36*
G01*
X163305500Y-76189000D02*
X162830500Y-76189000D01*
G75*
G02*
X162593000Y-75951500I0J237500D01*
G01*
X162593000Y-75376500D01*
G75*
G02*
X162830500Y-75139000I237500J0D01*
G01*
X163305500Y-75139000D01*
G75*
G02*
X163543000Y-75376500I0J-237500D01*
G01*
X163543000Y-75951500D01*
G75*
G02*
X163305500Y-76189000I-237500J0D01*
G01*
G37*
G36*
G01*
X148065500Y-74439000D02*
X147590500Y-74439000D01*
G75*
G02*
X147353000Y-74201500I0J237500D01*
G01*
X147353000Y-73626500D01*
G75*
G02*
X147590500Y-73389000I237500J0D01*
G01*
X148065500Y-73389000D01*
G75*
G02*
X148303000Y-73626500I0J-237500D01*
G01*
X148303000Y-74201500D01*
G75*
G02*
X148065500Y-74439000I-237500J0D01*
G01*
G37*
G36*
G01*
X148065500Y-76189000D02*
X147590500Y-76189000D01*
G75*
G02*
X147353000Y-75951500I0J237500D01*
G01*
X147353000Y-75376500D01*
G75*
G02*
X147590500Y-75139000I237500J0D01*
G01*
X148065500Y-75139000D01*
G75*
G02*
X148303000Y-75376500I0J-237500D01*
G01*
X148303000Y-75951500D01*
G75*
G02*
X148065500Y-76189000I-237500J0D01*
G01*
G37*
G36*
G01*
X144509500Y-74467000D02*
X144034500Y-74467000D01*
G75*
G02*
X143797000Y-74229500I0J237500D01*
G01*
X143797000Y-73654500D01*
G75*
G02*
X144034500Y-73417000I237500J0D01*
G01*
X144509500Y-73417000D01*
G75*
G02*
X144747000Y-73654500I0J-237500D01*
G01*
X144747000Y-74229500D01*
G75*
G02*
X144509500Y-74467000I-237500J0D01*
G01*
G37*
G36*
G01*
X144509500Y-76217000D02*
X144034500Y-76217000D01*
G75*
G02*
X143797000Y-75979500I0J237500D01*
G01*
X143797000Y-75404500D01*
G75*
G02*
X144034500Y-75167000I237500J0D01*
G01*
X144509500Y-75167000D01*
G75*
G02*
X144747000Y-75404500I0J-237500D01*
G01*
X144747000Y-75979500D01*
G75*
G02*
X144509500Y-76217000I-237500J0D01*
G01*
G37*
G36*
G01*
X159495500Y-74439000D02*
X159020500Y-74439000D01*
G75*
G02*
X158783000Y-74201500I0J237500D01*
G01*
X158783000Y-73626500D01*
G75*
G02*
X159020500Y-73389000I237500J0D01*
G01*
X159495500Y-73389000D01*
G75*
G02*
X159733000Y-73626500I0J-237500D01*
G01*
X159733000Y-74201500D01*
G75*
G02*
X159495500Y-74439000I-237500J0D01*
G01*
G37*
G36*
G01*
X159495500Y-76189000D02*
X159020500Y-76189000D01*
G75*
G02*
X158783000Y-75951500I0J237500D01*
G01*
X158783000Y-75376500D01*
G75*
G02*
X159020500Y-75139000I237500J0D01*
G01*
X159495500Y-75139000D01*
G75*
G02*
X159733000Y-75376500I0J-237500D01*
G01*
X159733000Y-75951500D01*
G75*
G02*
X159495500Y-76189000I-237500J0D01*
G01*
G37*
G36*
G01*
X155685500Y-74439000D02*
X155210500Y-74439000D01*
G75*
G02*
X154973000Y-74201500I0J237500D01*
G01*
X154973000Y-73626500D01*
G75*
G02*
X155210500Y-73389000I237500J0D01*
G01*
X155685500Y-73389000D01*
G75*
G02*
X155923000Y-73626500I0J-237500D01*
G01*
X155923000Y-74201500D01*
G75*
G02*
X155685500Y-74439000I-237500J0D01*
G01*
G37*
G36*
G01*
X155685500Y-76189000D02*
X155210500Y-76189000D01*
G75*
G02*
X154973000Y-75951500I0J237500D01*
G01*
X154973000Y-75376500D01*
G75*
G02*
X155210500Y-75139000I237500J0D01*
G01*
X155685500Y-75139000D01*
G75*
G02*
X155923000Y-75376500I0J-237500D01*
G01*
X155923000Y-75951500D01*
G75*
G02*
X155685500Y-76189000I-237500J0D01*
G01*
G37*
G36*
G01*
X151875500Y-74439000D02*
X151400500Y-74439000D01*
G75*
G02*
X151163000Y-74201500I0J237500D01*
G01*
X151163000Y-73626500D01*
G75*
G02*
X151400500Y-73389000I237500J0D01*
G01*
X151875500Y-73389000D01*
G75*
G02*
X152113000Y-73626500I0J-237500D01*
G01*
X152113000Y-74201500D01*
G75*
G02*
X151875500Y-74439000I-237500J0D01*
G01*
G37*
G36*
G01*
X151875500Y-76189000D02*
X151400500Y-76189000D01*
G75*
G02*
X151163000Y-75951500I0J237500D01*
G01*
X151163000Y-75376500D01*
G75*
G02*
X151400500Y-75139000I237500J0D01*
G01*
X151875500Y-75139000D01*
G75*
G02*
X152113000Y-75376500I0J-237500D01*
G01*
X152113000Y-75951500D01*
G75*
G02*
X151875500Y-76189000I-237500J0D01*
G01*
G37*
G36*
G01*
X167115500Y-74439000D02*
X166640500Y-74439000D01*
G75*
G02*
X166403000Y-74201500I0J237500D01*
G01*
X166403000Y-73626500D01*
G75*
G02*
X166640500Y-73389000I237500J0D01*
G01*
X167115500Y-73389000D01*
G75*
G02*
X167353000Y-73626500I0J-237500D01*
G01*
X167353000Y-74201500D01*
G75*
G02*
X167115500Y-74439000I-237500J0D01*
G01*
G37*
G36*
G01*
X167115500Y-76189000D02*
X166640500Y-76189000D01*
G75*
G02*
X166403000Y-75951500I0J237500D01*
G01*
X166403000Y-75376500D01*
G75*
G02*
X166640500Y-75139000I237500J0D01*
G01*
X167115500Y-75139000D01*
G75*
G02*
X167353000Y-75376500I0J-237500D01*
G01*
X167353000Y-75951500D01*
G75*
G02*
X167115500Y-76189000I-237500J0D01*
G01*
G37*
G36*
G01*
X175243000Y-72627500D02*
X175243000Y-72152500D01*
G75*
G02*
X175480500Y-71915000I237500J0D01*
G01*
X176055500Y-71915000D01*
G75*
G02*
X176293000Y-72152500I0J-237500D01*
G01*
X176293000Y-72627500D01*
G75*
G02*
X176055500Y-72865000I-237500J0D01*
G01*
X175480500Y-72865000D01*
G75*
G02*
X175243000Y-72627500I0J237500D01*
G01*
G37*
G36*
G01*
X173493000Y-72627500D02*
X173493000Y-72152500D01*
G75*
G02*
X173730500Y-71915000I237500J0D01*
G01*
X174305500Y-71915000D01*
G75*
G02*
X174543000Y-72152500I0J-237500D01*
G01*
X174543000Y-72627500D01*
G75*
G02*
X174305500Y-72865000I-237500J0D01*
G01*
X173730500Y-72865000D01*
G75*
G02*
X173493000Y-72627500I0J237500D01*
G01*
G37*
G36*
G01*
X149815000Y-52815500D02*
X149815000Y-52340500D01*
G75*
G02*
X150052500Y-52103000I237500J0D01*
G01*
X150627500Y-52103000D01*
G75*
G02*
X150865000Y-52340500I0J-237500D01*
G01*
X150865000Y-52815500D01*
G75*
G02*
X150627500Y-53053000I-237500J0D01*
G01*
X150052500Y-53053000D01*
G75*
G02*
X149815000Y-52815500I0J237500D01*
G01*
G37*
G36*
G01*
X148065000Y-52815500D02*
X148065000Y-52340500D01*
G75*
G02*
X148302500Y-52103000I237500J0D01*
G01*
X148877500Y-52103000D01*
G75*
G02*
X149115000Y-52340500I0J-237500D01*
G01*
X149115000Y-52815500D01*
G75*
G02*
X148877500Y-53053000I-237500J0D01*
G01*
X148302500Y-53053000D01*
G75*
G02*
X148065000Y-52815500I0J237500D01*
G01*
G37*
G36*
G01*
X149815000Y-54593500D02*
X149815000Y-54118500D01*
G75*
G02*
X150052500Y-53881000I237500J0D01*
G01*
X150627500Y-53881000D01*
G75*
G02*
X150865000Y-54118500I0J-237500D01*
G01*
X150865000Y-54593500D01*
G75*
G02*
X150627500Y-54831000I-237500J0D01*
G01*
X150052500Y-54831000D01*
G75*
G02*
X149815000Y-54593500I0J237500D01*
G01*
G37*
G36*
G01*
X148065000Y-54593500D02*
X148065000Y-54118500D01*
G75*
G02*
X148302500Y-53881000I237500J0D01*
G01*
X148877500Y-53881000D01*
G75*
G02*
X149115000Y-54118500I0J-237500D01*
G01*
X149115000Y-54593500D01*
G75*
G02*
X148877500Y-54831000I-237500J0D01*
G01*
X148302500Y-54831000D01*
G75*
G02*
X148065000Y-54593500I0J237500D01*
G01*
G37*
G36*
G01*
X163305500Y-70629000D02*
X162830500Y-70629000D01*
G75*
G02*
X162593000Y-70391500I0J237500D01*
G01*
X162593000Y-69816500D01*
G75*
G02*
X162830500Y-69579000I237500J0D01*
G01*
X163305500Y-69579000D01*
G75*
G02*
X163543000Y-69816500I0J-237500D01*
G01*
X163543000Y-70391500D01*
G75*
G02*
X163305500Y-70629000I-237500J0D01*
G01*
G37*
G36*
G01*
X163305500Y-72379000D02*
X162830500Y-72379000D01*
G75*
G02*
X162593000Y-72141500I0J237500D01*
G01*
X162593000Y-71566500D01*
G75*
G02*
X162830500Y-71329000I237500J0D01*
G01*
X163305500Y-71329000D01*
G75*
G02*
X163543000Y-71566500I0J-237500D01*
G01*
X163543000Y-72141500D01*
G75*
G02*
X163305500Y-72379000I-237500J0D01*
G01*
G37*
G36*
G01*
X148065500Y-70629000D02*
X147590500Y-70629000D01*
G75*
G02*
X147353000Y-70391500I0J237500D01*
G01*
X147353000Y-69816500D01*
G75*
G02*
X147590500Y-69579000I237500J0D01*
G01*
X148065500Y-69579000D01*
G75*
G02*
X148303000Y-69816500I0J-237500D01*
G01*
X148303000Y-70391500D01*
G75*
G02*
X148065500Y-70629000I-237500J0D01*
G01*
G37*
G36*
G01*
X148065500Y-72379000D02*
X147590500Y-72379000D01*
G75*
G02*
X147353000Y-72141500I0J237500D01*
G01*
X147353000Y-71566500D01*
G75*
G02*
X147590500Y-71329000I237500J0D01*
G01*
X148065500Y-71329000D01*
G75*
G02*
X148303000Y-71566500I0J-237500D01*
G01*
X148303000Y-72141500D01*
G75*
G02*
X148065500Y-72379000I-237500J0D01*
G01*
G37*
G36*
G01*
X144509500Y-70657000D02*
X144034500Y-70657000D01*
G75*
G02*
X143797000Y-70419500I0J237500D01*
G01*
X143797000Y-69844500D01*
G75*
G02*
X144034500Y-69607000I237500J0D01*
G01*
X144509500Y-69607000D01*
G75*
G02*
X144747000Y-69844500I0J-237500D01*
G01*
X144747000Y-70419500D01*
G75*
G02*
X144509500Y-70657000I-237500J0D01*
G01*
G37*
G36*
G01*
X144509500Y-72407000D02*
X144034500Y-72407000D01*
G75*
G02*
X143797000Y-72169500I0J237500D01*
G01*
X143797000Y-71594500D01*
G75*
G02*
X144034500Y-71357000I237500J0D01*
G01*
X144509500Y-71357000D01*
G75*
G02*
X144747000Y-71594500I0J-237500D01*
G01*
X144747000Y-72169500D01*
G75*
G02*
X144509500Y-72407000I-237500J0D01*
G01*
G37*
G36*
G01*
X167115500Y-70629000D02*
X166640500Y-70629000D01*
G75*
G02*
X166403000Y-70391500I0J237500D01*
G01*
X166403000Y-69816500D01*
G75*
G02*
X166640500Y-69579000I237500J0D01*
G01*
X167115500Y-69579000D01*
G75*
G02*
X167353000Y-69816500I0J-237500D01*
G01*
X167353000Y-70391500D01*
G75*
G02*
X167115500Y-70629000I-237500J0D01*
G01*
G37*
G36*
G01*
X167115500Y-72379000D02*
X166640500Y-72379000D01*
G75*
G02*
X166403000Y-72141500I0J237500D01*
G01*
X166403000Y-71566500D01*
G75*
G02*
X166640500Y-71329000I237500J0D01*
G01*
X167115500Y-71329000D01*
G75*
G02*
X167353000Y-71566500I0J-237500D01*
G01*
X167353000Y-72141500D01*
G75*
G02*
X167115500Y-72379000I-237500J0D01*
G01*
G37*
G36*
G01*
X151875500Y-70629000D02*
X151400500Y-70629000D01*
G75*
G02*
X151163000Y-70391500I0J237500D01*
G01*
X151163000Y-69816500D01*
G75*
G02*
X151400500Y-69579000I237500J0D01*
G01*
X151875500Y-69579000D01*
G75*
G02*
X152113000Y-69816500I0J-237500D01*
G01*
X152113000Y-70391500D01*
G75*
G02*
X151875500Y-70629000I-237500J0D01*
G01*
G37*
G36*
G01*
X151875500Y-72379000D02*
X151400500Y-72379000D01*
G75*
G02*
X151163000Y-72141500I0J237500D01*
G01*
X151163000Y-71566500D01*
G75*
G02*
X151400500Y-71329000I237500J0D01*
G01*
X151875500Y-71329000D01*
G75*
G02*
X152113000Y-71566500I0J-237500D01*
G01*
X152113000Y-72141500D01*
G75*
G02*
X151875500Y-72379000I-237500J0D01*
G01*
G37*
G36*
G01*
X155685500Y-70629000D02*
X155210500Y-70629000D01*
G75*
G02*
X154973000Y-70391500I0J237500D01*
G01*
X154973000Y-69816500D01*
G75*
G02*
X155210500Y-69579000I237500J0D01*
G01*
X155685500Y-69579000D01*
G75*
G02*
X155923000Y-69816500I0J-237500D01*
G01*
X155923000Y-70391500D01*
G75*
G02*
X155685500Y-70629000I-237500J0D01*
G01*
G37*
G36*
G01*
X155685500Y-72379000D02*
X155210500Y-72379000D01*
G75*
G02*
X154973000Y-72141500I0J237500D01*
G01*
X154973000Y-71566500D01*
G75*
G02*
X155210500Y-71329000I237500J0D01*
G01*
X155685500Y-71329000D01*
G75*
G02*
X155923000Y-71566500I0J-237500D01*
G01*
X155923000Y-72141500D01*
G75*
G02*
X155685500Y-72379000I-237500J0D01*
G01*
G37*
G36*
G01*
X159495500Y-70629000D02*
X159020500Y-70629000D01*
G75*
G02*
X158783000Y-70391500I0J237500D01*
G01*
X158783000Y-69816500D01*
G75*
G02*
X159020500Y-69579000I237500J0D01*
G01*
X159495500Y-69579000D01*
G75*
G02*
X159733000Y-69816500I0J-237500D01*
G01*
X159733000Y-70391500D01*
G75*
G02*
X159495500Y-70629000I-237500J0D01*
G01*
G37*
G36*
G01*
X159495500Y-72379000D02*
X159020500Y-72379000D01*
G75*
G02*
X158783000Y-72141500I0J237500D01*
G01*
X158783000Y-71566500D01*
G75*
G02*
X159020500Y-71329000I237500J0D01*
G01*
X159495500Y-71329000D01*
G75*
G02*
X159733000Y-71566500I0J-237500D01*
G01*
X159733000Y-72141500D01*
G75*
G02*
X159495500Y-72379000I-237500J0D01*
G01*
G37*
G36*
G01*
X180623000Y-71822500D02*
X180623000Y-72627500D01*
G75*
G02*
X180380500Y-72870000I-242500J0D01*
G01*
X179895500Y-72870000D01*
G75*
G02*
X179653000Y-72627500I0J242500D01*
G01*
X179653000Y-71822500D01*
G75*
G02*
X179895500Y-71580000I242500J0D01*
G01*
X180380500Y-71580000D01*
G75*
G02*
X180623000Y-71822500I0J-242500D01*
G01*
G37*
G36*
G01*
X180623000Y-73422500D02*
X180623000Y-74227500D01*
G75*
G02*
X180380500Y-74470000I-242500J0D01*
G01*
X179895500Y-74470000D01*
G75*
G02*
X179653000Y-74227500I0J242500D01*
G01*
X179653000Y-73422500D01*
G75*
G02*
X179895500Y-73180000I242500J0D01*
G01*
X180380500Y-73180000D01*
G75*
G02*
X180623000Y-73422500I0J-242500D01*
G01*
G37*
G36*
G01*
X181823000Y-71822500D02*
X181823000Y-72627500D01*
G75*
G02*
X181580500Y-72870000I-242500J0D01*
G01*
X181095500Y-72870000D01*
G75*
G02*
X180853000Y-72627500I0J242500D01*
G01*
X180853000Y-71822500D01*
G75*
G02*
X181095500Y-71580000I242500J0D01*
G01*
X181580500Y-71580000D01*
G75*
G02*
X181823000Y-71822500I0J-242500D01*
G01*
G37*
G36*
G01*
X181823000Y-73422500D02*
X181823000Y-74227500D01*
G75*
G02*
X181580500Y-74470000I-242500J0D01*
G01*
X181095500Y-74470000D01*
G75*
G02*
X180853000Y-74227500I0J242500D01*
G01*
X180853000Y-73422500D01*
G75*
G02*
X181095500Y-73180000I242500J0D01*
G01*
X181580500Y-73180000D01*
G75*
G02*
X181823000Y-73422500I0J-242500D01*
G01*
G37*
G36*
G01*
X178888000Y-74780000D02*
X178888000Y-75080000D01*
G75*
G02*
X178738000Y-75230000I-150000J0D01*
G01*
X177438000Y-75230000D01*
G75*
G02*
X177288000Y-75080000I0J150000D01*
G01*
X177288000Y-74780000D01*
G75*
G02*
X177438000Y-74630000I150000J0D01*
G01*
X178738000Y-74630000D01*
G75*
G02*
X178888000Y-74780000I0J-150000D01*
G01*
G37*
G36*
G01*
X178888000Y-73510000D02*
X178888000Y-73810000D01*
G75*
G02*
X178738000Y-73960000I-150000J0D01*
G01*
X177438000Y-73960000D01*
G75*
G02*
X177288000Y-73810000I0J150000D01*
G01*
X177288000Y-73510000D01*
G75*
G02*
X177438000Y-73360000I150000J0D01*
G01*
X178738000Y-73360000D01*
G75*
G02*
X178888000Y-73510000I0J-150000D01*
G01*
G37*
G36*
G01*
X178888000Y-72240000D02*
X178888000Y-72540000D01*
G75*
G02*
X178738000Y-72690000I-150000J0D01*
G01*
X177438000Y-72690000D01*
G75*
G02*
X177288000Y-72540000I0J150000D01*
G01*
X177288000Y-72240000D01*
G75*
G02*
X177438000Y-72090000I150000J0D01*
G01*
X178738000Y-72090000D01*
G75*
G02*
X178888000Y-72240000I0J-150000D01*
G01*
G37*
G36*
G01*
X178888000Y-70970000D02*
X178888000Y-71270000D01*
G75*
G02*
X178738000Y-71420000I-150000J0D01*
G01*
X177438000Y-71420000D01*
G75*
G02*
X177288000Y-71270000I0J150000D01*
G01*
X177288000Y-70970000D01*
G75*
G02*
X177438000Y-70820000I150000J0D01*
G01*
X178738000Y-70820000D01*
G75*
G02*
X178888000Y-70970000I0J-150000D01*
G01*
G37*
G36*
G01*
X184188000Y-70970000D02*
X184188000Y-71270000D01*
G75*
G02*
X184038000Y-71420000I-150000J0D01*
G01*
X182738000Y-71420000D01*
G75*
G02*
X182588000Y-71270000I0J150000D01*
G01*
X182588000Y-70970000D01*
G75*
G02*
X182738000Y-70820000I150000J0D01*
G01*
X184038000Y-70820000D01*
G75*
G02*
X184188000Y-70970000I0J-150000D01*
G01*
G37*
G36*
G01*
X184188000Y-72240000D02*
X184188000Y-72540000D01*
G75*
G02*
X184038000Y-72690000I-150000J0D01*
G01*
X182738000Y-72690000D01*
G75*
G02*
X182588000Y-72540000I0J150000D01*
G01*
X182588000Y-72240000D01*
G75*
G02*
X182738000Y-72090000I150000J0D01*
G01*
X184038000Y-72090000D01*
G75*
G02*
X184188000Y-72240000I0J-150000D01*
G01*
G37*
G36*
G01*
X184188000Y-73510000D02*
X184188000Y-73810000D01*
G75*
G02*
X184038000Y-73960000I-150000J0D01*
G01*
X182738000Y-73960000D01*
G75*
G02*
X182588000Y-73810000I0J150000D01*
G01*
X182588000Y-73510000D01*
G75*
G02*
X182738000Y-73360000I150000J0D01*
G01*
X184038000Y-73360000D01*
G75*
G02*
X184188000Y-73510000I0J-150000D01*
G01*
G37*
G36*
G01*
X184188000Y-74780000D02*
X184188000Y-75080000D01*
G75*
G02*
X184038000Y-75230000I-150000J0D01*
G01*
X182738000Y-75230000D01*
G75*
G02*
X182588000Y-75080000I0J150000D01*
G01*
X182588000Y-74780000D01*
G75*
G02*
X182738000Y-74630000I150000J0D01*
G01*
X184038000Y-74630000D01*
G75*
G02*
X184188000Y-74780000I0J-150000D01*
G01*
G37*
G36*
G01*
X148740000Y-57682000D02*
X148440000Y-57682000D01*
G75*
G02*
X148290000Y-57532000I0J150000D01*
G01*
X148290000Y-55882000D01*
G75*
G02*
X148440000Y-55732000I150000J0D01*
G01*
X148740000Y-55732000D01*
G75*
G02*
X148890000Y-55882000I0J-150000D01*
G01*
X148890000Y-57532000D01*
G75*
G02*
X148740000Y-57682000I-150000J0D01*
G01*
G37*
G36*
G01*
X150010000Y-57682000D02*
X149710000Y-57682000D01*
G75*
G02*
X149560000Y-57532000I0J150000D01*
G01*
X149560000Y-55882000D01*
G75*
G02*
X149710000Y-55732000I150000J0D01*
G01*
X150010000Y-55732000D01*
G75*
G02*
X150160000Y-55882000I0J-150000D01*
G01*
X150160000Y-57532000D01*
G75*
G02*
X150010000Y-57682000I-150000J0D01*
G01*
G37*
G36*
G01*
X151280000Y-57682000D02*
X150980000Y-57682000D01*
G75*
G02*
X150830000Y-57532000I0J150000D01*
G01*
X150830000Y-55882000D01*
G75*
G02*
X150980000Y-55732000I150000J0D01*
G01*
X151280000Y-55732000D01*
G75*
G02*
X151430000Y-55882000I0J-150000D01*
G01*
X151430000Y-57532000D01*
G75*
G02*
X151280000Y-57682000I-150000J0D01*
G01*
G37*
G36*
G01*
X152550000Y-57682000D02*
X152250000Y-57682000D01*
G75*
G02*
X152100000Y-57532000I0J150000D01*
G01*
X152100000Y-55882000D01*
G75*
G02*
X152250000Y-55732000I150000J0D01*
G01*
X152550000Y-55732000D01*
G75*
G02*
X152700000Y-55882000I0J-150000D01*
G01*
X152700000Y-57532000D01*
G75*
G02*
X152550000Y-57682000I-150000J0D01*
G01*
G37*
G36*
G01*
X152550000Y-62632000D02*
X152250000Y-62632000D01*
G75*
G02*
X152100000Y-62482000I0J150000D01*
G01*
X152100000Y-60832000D01*
G75*
G02*
X152250000Y-60682000I150000J0D01*
G01*
X152550000Y-60682000D01*
G75*
G02*
X152700000Y-60832000I0J-150000D01*
G01*
X152700000Y-62482000D01*
G75*
G02*
X152550000Y-62632000I-150000J0D01*
G01*
G37*
G36*
G01*
X151280000Y-62632000D02*
X150980000Y-62632000D01*
G75*
G02*
X150830000Y-62482000I0J150000D01*
G01*
X150830000Y-60832000D01*
G75*
G02*
X150980000Y-60682000I150000J0D01*
G01*
X151280000Y-60682000D01*
G75*
G02*
X151430000Y-60832000I0J-150000D01*
G01*
X151430000Y-62482000D01*
G75*
G02*
X151280000Y-62632000I-150000J0D01*
G01*
G37*
G36*
G01*
X150010000Y-62632000D02*
X149710000Y-62632000D01*
G75*
G02*
X149560000Y-62482000I0J150000D01*
G01*
X149560000Y-60832000D01*
G75*
G02*
X149710000Y-60682000I150000J0D01*
G01*
X150010000Y-60682000D01*
G75*
G02*
X150160000Y-60832000I0J-150000D01*
G01*
X150160000Y-62482000D01*
G75*
G02*
X150010000Y-62632000I-150000J0D01*
G01*
G37*
G36*
G01*
X148740000Y-62632000D02*
X148440000Y-62632000D01*
G75*
G02*
X148290000Y-62482000I0J150000D01*
G01*
X148290000Y-60832000D01*
G75*
G02*
X148440000Y-60682000I150000J0D01*
G01*
X148740000Y-60682000D01*
G75*
G02*
X148890000Y-60832000I0J-150000D01*
G01*
X148890000Y-62482000D01*
G75*
G02*
X148740000Y-62632000I-150000J0D01*
G01*
G37*
D13*
X147360000Y-64516000D03*
X149860000Y-64516000D03*
D14*
X185801000Y-82133000D03*
X184531000Y-82133000D03*
X183261000Y-82133000D03*
X181991000Y-82133000D03*
X180721000Y-82133000D03*
X179451000Y-82133000D03*
X178181000Y-82133000D03*
X176911000Y-82133000D03*
X176911000Y-89063000D03*
X178181000Y-89063000D03*
X179451000Y-89063000D03*
X180721000Y-89063000D03*
X181991000Y-89063000D03*
X183261000Y-89063000D03*
X184531000Y-89063000D03*
X185801000Y-89063000D03*
D15*
X190763000Y-91925000D03*
D16*
X190988000Y-80605000D03*
D17*
X201463000Y-88600000D03*
X201463000Y-82630000D03*
D18*
X200488000Y-92100000D03*
X196788000Y-92100000D03*
D19*
X190638000Y-89465000D03*
X190638000Y-88365000D03*
X190638000Y-87265000D03*
X190638000Y-86165000D03*
X190638000Y-85065000D03*
X190638000Y-83965000D03*
X190638000Y-82865000D03*
D20*
X190638000Y-81815000D03*
M02*
