M48
; DRILL file {KiCad (5.1.8)-1} date 12/14/20 14:55:11
; FORMAT={-:-/ absolute / inch / decimal}
; #@! TF.CreationDate,2020-12-14T14:55:11-06:00
; #@! TF.GenerationSoftware,Kicad,Pcbnew,(5.1.8)-1
; #@! TF.FileFunction,Plated,1,2,PTH
FMAT,2
INCH
T1C0.0157
T2C0.0300
T3C0.0350
T4C0.0354
T5C0.1598
%
G90
G05
T1
X4.43Y-2.29
X5.04Y-2.09
X5.14Y-3.0
X5.45Y-1.7
X5.45Y-2.08
X5.49Y-3.51
X5.5Y-3.06
X5.68Y-2.6
X5.69Y-2.33
X5.85Y-2.33
X5.88Y-3.0
X5.9Y-2.3
X5.96Y-1.96
X5.97Y-2.07
X5.99Y-2.54
X6.0125Y-2.675
X6.04Y-2.07
X6.115Y-2.675
X6.31Y-2.08
X6.31Y-2.42
X6.34Y-2.7325
X6.37Y-3.58
X6.42Y-3.16
X6.47Y-3.1289
X6.57Y-2.08
X6.57Y-2.42
X6.64Y-2.9689
X6.67Y-2.7
X6.87Y-2.75
X6.94Y-2.9689
X6.97Y-3.36
X7.0Y-3.06
X7.01Y-3.1289
X7.01Y-3.58
X7.06Y-3.16
X7.07Y-3.4
X7.15Y-3.08
X7.17Y-3.43
X7.22Y-3.36
X7.28Y-2.9
X7.28Y-2.96
X7.31Y-3.0
X7.33Y-3.34
X7.36Y-2.71
X7.36Y-3.25
X7.41Y-3.3989
X7.42Y-3.25
X7.45Y-2.71
X7.45Y-2.8
X7.45Y-3.34
X7.45Y-3.43
T2
X5.14Y-2.2
T3
X4.94Y-3.2
X5.04Y-3.2
X5.14Y-3.2
X4.94Y-2.58
X4.94Y-2.68
X4.94Y-2.78
T4
X7.45Y-2.9
X7.45Y-3.0
X5.771Y-1.751
X5.771Y-1.851
X5.871Y-1.751
X5.871Y-1.851
X5.971Y-1.751
X5.971Y-1.851
X6.071Y-1.751
X6.071Y-1.851
X6.171Y-1.751
X6.171Y-1.851
X6.271Y-1.751
X6.271Y-1.851
X6.371Y-1.751
X6.371Y-1.851
X6.471Y-1.751
X6.471Y-1.851
X6.571Y-1.751
X6.571Y-1.851
X6.671Y-1.751
X6.671Y-1.851
X6.771Y-1.751
X6.771Y-1.851
X6.871Y-1.751
X6.871Y-1.851
X6.971Y-1.751
X6.971Y-1.851
X7.071Y-1.751
X7.071Y-1.851
X7.171Y-1.751
X7.171Y-1.851
X7.271Y-1.751
X7.271Y-1.851
X7.371Y-1.751
X7.371Y-1.851
X7.471Y-1.751
X7.471Y-1.851
X7.571Y-1.751
X7.571Y-1.851
X7.671Y-1.751
X7.671Y-1.851
X4.94Y-2.2
X5.04Y-2.2
X7.45Y-2.5251
X7.45Y-2.6251
T5
X4.49Y-2.89
X4.49Y-3.2
X4.49Y-3.51
T0
M30
