G04 #@! TF.GenerationSoftware,KiCad,Pcbnew,(5.1.6)-1*
G04 #@! TF.CreationDate,2020-11-29T22:22:19-06:00*
G04 #@! TF.ProjectId,MultimediaAndBlackBoxBoard,4d756c74-696d-4656-9469-61416e64426c,rev?*
G04 #@! TF.SameCoordinates,Original*
G04 #@! TF.FileFunction,Soldermask,Top*
G04 #@! TF.FilePolarity,Negative*
%FSLAX46Y46*%
G04 Gerber Fmt 4.6, Leading zero omitted, Abs format (unit mm)*
G04 Created by KiCad (PCBNEW (5.1.6)-1) date 2020-11-29 22:22:19*
%MOMM*%
%LPD*%
G01*
G04 APERTURE LIST*
%ADD10C,0.100000*%
G04 APERTURE END LIST*
D10*
G36*
X200015586Y-93223803D02*
G01*
X200165411Y-93253605D01*
X200447675Y-93370522D01*
X200701706Y-93540260D01*
X200917742Y-93756296D01*
X201087480Y-94010327D01*
X201204397Y-94292591D01*
X201264001Y-94592241D01*
X201264001Y-94897761D01*
X201204397Y-95197411D01*
X201087480Y-95479675D01*
X200917742Y-95733706D01*
X200701706Y-95949742D01*
X200447675Y-96119480D01*
X200165411Y-96236397D01*
X200015586Y-96266199D01*
X199865762Y-96296001D01*
X199560240Y-96296001D01*
X199410416Y-96266199D01*
X199260591Y-96236397D01*
X198978327Y-96119480D01*
X198724296Y-95949742D01*
X198508260Y-95733706D01*
X198338522Y-95479675D01*
X198221605Y-95197411D01*
X198162001Y-94897761D01*
X198162001Y-94592241D01*
X198221605Y-94292591D01*
X198338522Y-94010327D01*
X198508260Y-93756296D01*
X198724296Y-93540260D01*
X198978327Y-93370522D01*
X199260591Y-93253605D01*
X199410416Y-93223803D01*
X199560240Y-93194001D01*
X199865762Y-93194001D01*
X200015586Y-93223803D01*
G37*
G36*
X142015586Y-93223803D02*
G01*
X142165411Y-93253605D01*
X142447675Y-93370522D01*
X142701706Y-93540260D01*
X142917742Y-93756296D01*
X143087480Y-94010327D01*
X143204397Y-94292591D01*
X143264001Y-94592241D01*
X143264001Y-94897761D01*
X143204397Y-95197411D01*
X143087480Y-95479675D01*
X142917742Y-95733706D01*
X142701706Y-95949742D01*
X142447675Y-96119480D01*
X142165411Y-96236397D01*
X142015586Y-96266199D01*
X141865762Y-96296001D01*
X141560240Y-96296001D01*
X141410416Y-96266199D01*
X141260591Y-96236397D01*
X140978327Y-96119480D01*
X140724296Y-95949742D01*
X140508260Y-95733706D01*
X140338522Y-95479675D01*
X140221605Y-95197411D01*
X140162001Y-94897761D01*
X140162001Y-94592241D01*
X140221605Y-94292591D01*
X140338522Y-94010327D01*
X140508260Y-93756296D01*
X140724296Y-93540260D01*
X140978327Y-93370522D01*
X141260591Y-93253605D01*
X141410416Y-93223803D01*
X141560240Y-93194001D01*
X141865762Y-93194001D01*
X142015586Y-93223803D01*
G37*
G36*
X201039000Y-92751000D02*
G01*
X199937000Y-92751000D01*
X199937000Y-91449000D01*
X201039000Y-91449000D01*
X201039000Y-92751000D01*
G37*
G36*
X197339000Y-92751000D02*
G01*
X196237000Y-92751000D01*
X196237000Y-91449000D01*
X197339000Y-91449000D01*
X197339000Y-92751000D01*
G37*
G36*
X191489000Y-92751000D02*
G01*
X190037000Y-92751000D01*
X190037000Y-91099000D01*
X191489000Y-91099000D01*
X191489000Y-92751000D01*
G37*
G36*
X114634908Y-86629380D02*
G01*
X114801767Y-86662570D01*
X115273299Y-86857885D01*
X115516029Y-87020073D01*
X115697666Y-87141438D01*
X116058562Y-87502334D01*
X116179927Y-87683971D01*
X116342115Y-87926701D01*
X116537430Y-88398233D01*
X116637000Y-88898809D01*
X116637000Y-89409191D01*
X116537430Y-89909767D01*
X116342115Y-90381299D01*
X116179927Y-90624029D01*
X116058562Y-90805666D01*
X115697666Y-91166562D01*
X115516029Y-91287927D01*
X115273299Y-91450115D01*
X114801767Y-91645430D01*
X114634908Y-91678620D01*
X114301193Y-91745000D01*
X113790807Y-91745000D01*
X113457092Y-91678620D01*
X113290233Y-91645430D01*
X112818701Y-91450115D01*
X112575971Y-91287927D01*
X112394334Y-91166562D01*
X112033438Y-90805666D01*
X111912073Y-90624029D01*
X111749885Y-90381299D01*
X111554570Y-89909767D01*
X111455000Y-89409191D01*
X111455000Y-88898809D01*
X111554570Y-88398233D01*
X111749885Y-87926701D01*
X111912073Y-87683971D01*
X112033438Y-87502334D01*
X112394334Y-87141438D01*
X112575971Y-87020073D01*
X112818701Y-86857885D01*
X113290233Y-86662570D01*
X113457092Y-86629380D01*
X113790807Y-86563000D01*
X114301193Y-86563000D01*
X114634908Y-86629380D01*
G37*
G36*
X184887000Y-90099000D02*
G01*
X184175000Y-90099000D01*
X184175000Y-88027000D01*
X184887000Y-88027000D01*
X184887000Y-90099000D01*
G37*
G36*
X177267000Y-90099000D02*
G01*
X176555000Y-90099000D01*
X176555000Y-88027000D01*
X177267000Y-88027000D01*
X177267000Y-90099000D01*
G37*
G36*
X178537000Y-90099000D02*
G01*
X177825000Y-90099000D01*
X177825000Y-88027000D01*
X178537000Y-88027000D01*
X178537000Y-90099000D01*
G37*
G36*
X179807000Y-90099000D02*
G01*
X179095000Y-90099000D01*
X179095000Y-88027000D01*
X179807000Y-88027000D01*
X179807000Y-90099000D01*
G37*
G36*
X181077000Y-90099000D02*
G01*
X180365000Y-90099000D01*
X180365000Y-88027000D01*
X181077000Y-88027000D01*
X181077000Y-90099000D01*
G37*
G36*
X182347000Y-90099000D02*
G01*
X181635000Y-90099000D01*
X181635000Y-88027000D01*
X182347000Y-88027000D01*
X182347000Y-90099000D01*
G37*
G36*
X183617000Y-90099000D02*
G01*
X182905000Y-90099000D01*
X182905000Y-88027000D01*
X183617000Y-88027000D01*
X183617000Y-90099000D01*
G37*
G36*
X186157000Y-90099000D02*
G01*
X185445000Y-90099000D01*
X185445000Y-88027000D01*
X186157000Y-88027000D01*
X186157000Y-90099000D01*
G37*
G36*
X191939000Y-81241000D02*
G01*
X191363999Y-81241000D01*
X191339613Y-81243402D01*
X191316164Y-81250515D01*
X191294553Y-81262066D01*
X191275611Y-81277611D01*
X191260066Y-81296553D01*
X191248515Y-81318164D01*
X191241402Y-81341613D01*
X191239000Y-81365999D01*
X191239000Y-89941000D01*
X190037000Y-89941000D01*
X190037000Y-79969000D01*
X191939000Y-79969000D01*
X191939000Y-81241000D01*
G37*
G36*
X202189000Y-89601000D02*
G01*
X200737000Y-89601000D01*
X200737000Y-87599000D01*
X202189000Y-87599000D01*
X202189000Y-89601000D01*
G37*
G36*
X114634908Y-78755380D02*
G01*
X114801767Y-78788570D01*
X115273299Y-78983885D01*
X115475512Y-79119000D01*
X115697666Y-79267438D01*
X116058562Y-79628334D01*
X116179927Y-79809971D01*
X116342115Y-80052701D01*
X116537430Y-80524233D01*
X116537430Y-80524234D01*
X116637000Y-81024807D01*
X116637000Y-81535193D01*
X116584674Y-81798255D01*
X116537430Y-82035767D01*
X116342115Y-82507299D01*
X116179927Y-82750029D01*
X116058562Y-82931666D01*
X115697666Y-83292562D01*
X115516029Y-83413927D01*
X115273299Y-83576115D01*
X114801767Y-83771430D01*
X114634908Y-83804620D01*
X114301193Y-83871000D01*
X113790807Y-83871000D01*
X113457092Y-83804620D01*
X113290233Y-83771430D01*
X112818701Y-83576115D01*
X112575971Y-83413927D01*
X112394334Y-83292562D01*
X112033438Y-82931666D01*
X111912073Y-82750029D01*
X111749885Y-82507299D01*
X111554570Y-82035767D01*
X111507326Y-81798255D01*
X111455000Y-81535193D01*
X111455000Y-81024807D01*
X111554570Y-80524234D01*
X111554570Y-80524233D01*
X111749885Y-80052701D01*
X111912073Y-79809971D01*
X112033438Y-79628334D01*
X112394334Y-79267438D01*
X112616488Y-79119000D01*
X112818701Y-78983885D01*
X113290233Y-78788570D01*
X113457092Y-78755380D01*
X113790807Y-78689000D01*
X114301193Y-78689000D01*
X114634908Y-78755380D01*
G37*
G36*
X202189000Y-83631000D02*
G01*
X200737000Y-83631000D01*
X200737000Y-81629000D01*
X202189000Y-81629000D01*
X202189000Y-83631000D01*
G37*
G36*
X186157000Y-83169000D02*
G01*
X185445000Y-83169000D01*
X185445000Y-81097000D01*
X186157000Y-81097000D01*
X186157000Y-83169000D01*
G37*
G36*
X184887000Y-83169000D02*
G01*
X184175000Y-83169000D01*
X184175000Y-81097000D01*
X184887000Y-81097000D01*
X184887000Y-83169000D01*
G37*
G36*
X183617000Y-83169000D02*
G01*
X182905000Y-83169000D01*
X182905000Y-81097000D01*
X183617000Y-81097000D01*
X183617000Y-83169000D01*
G37*
G36*
X181077000Y-83169000D02*
G01*
X180365000Y-83169000D01*
X180365000Y-81097000D01*
X181077000Y-81097000D01*
X181077000Y-83169000D01*
G37*
G36*
X178537000Y-83169000D02*
G01*
X177825000Y-83169000D01*
X177825000Y-81097000D01*
X178537000Y-81097000D01*
X178537000Y-83169000D01*
G37*
G36*
X177267000Y-83169000D02*
G01*
X176555000Y-83169000D01*
X176555000Y-81097000D01*
X177267000Y-81097000D01*
X177267000Y-83169000D01*
G37*
G36*
X179807000Y-83169000D02*
G01*
X179095000Y-83169000D01*
X179095000Y-81097000D01*
X179807000Y-81097000D01*
X179807000Y-83169000D01*
G37*
G36*
X182347000Y-83169000D02*
G01*
X181635000Y-83169000D01*
X181635000Y-81097000D01*
X182347000Y-81097000D01*
X182347000Y-83169000D01*
G37*
G36*
X130793142Y-80498242D02*
G01*
X130941101Y-80559529D01*
X131074255Y-80648499D01*
X131187501Y-80761745D01*
X131276471Y-80894899D01*
X131337758Y-81042858D01*
X131369000Y-81199925D01*
X131369000Y-81360075D01*
X131337758Y-81517142D01*
X131276471Y-81665101D01*
X131187501Y-81798255D01*
X131074255Y-81911501D01*
X130941101Y-82000471D01*
X130793142Y-82061758D01*
X130636075Y-82093000D01*
X130475925Y-82093000D01*
X130318858Y-82061758D01*
X130170899Y-82000471D01*
X130037745Y-81911501D01*
X129924499Y-81798255D01*
X129835529Y-81665101D01*
X129774242Y-81517142D01*
X129743000Y-81360075D01*
X129743000Y-81199925D01*
X129774242Y-81042858D01*
X129835529Y-80894899D01*
X129924499Y-80761745D01*
X130037745Y-80648499D01*
X130170899Y-80559529D01*
X130318858Y-80498242D01*
X130475925Y-80467000D01*
X130636075Y-80467000D01*
X130793142Y-80498242D01*
G37*
G36*
X128253142Y-80498242D02*
G01*
X128401101Y-80559529D01*
X128534255Y-80648499D01*
X128647501Y-80761745D01*
X128736471Y-80894899D01*
X128797758Y-81042858D01*
X128829000Y-81199925D01*
X128829000Y-81360075D01*
X128797758Y-81517142D01*
X128736471Y-81665101D01*
X128647501Y-81798255D01*
X128534255Y-81911501D01*
X128401101Y-82000471D01*
X128253142Y-82061758D01*
X128096075Y-82093000D01*
X127935925Y-82093000D01*
X127778858Y-82061758D01*
X127630899Y-82000471D01*
X127497745Y-81911501D01*
X127384499Y-81798255D01*
X127295529Y-81665101D01*
X127234242Y-81517142D01*
X127203000Y-81360075D01*
X127203000Y-81199925D01*
X127234242Y-81042858D01*
X127295529Y-80894899D01*
X127384499Y-80761745D01*
X127497745Y-80648499D01*
X127630899Y-80559529D01*
X127778858Y-80498242D01*
X127935925Y-80467000D01*
X128096075Y-80467000D01*
X128253142Y-80498242D01*
G37*
G36*
X125713142Y-80498242D02*
G01*
X125861101Y-80559529D01*
X125994255Y-80648499D01*
X126107501Y-80761745D01*
X126196471Y-80894899D01*
X126257758Y-81042858D01*
X126289000Y-81199925D01*
X126289000Y-81360075D01*
X126257758Y-81517142D01*
X126196471Y-81665101D01*
X126107501Y-81798255D01*
X125994255Y-81911501D01*
X125861101Y-82000471D01*
X125713142Y-82061758D01*
X125556075Y-82093000D01*
X125395925Y-82093000D01*
X125238858Y-82061758D01*
X125090899Y-82000471D01*
X124957745Y-81911501D01*
X124844499Y-81798255D01*
X124755529Y-81665101D01*
X124694242Y-81517142D01*
X124663000Y-81360075D01*
X124663000Y-81199925D01*
X124694242Y-81042858D01*
X124755529Y-80894899D01*
X124844499Y-80761745D01*
X124957745Y-80648499D01*
X125090899Y-80559529D01*
X125238858Y-80498242D01*
X125395925Y-80467000D01*
X125556075Y-80467000D01*
X125713142Y-80498242D01*
G37*
G36*
X198384039Y-75635250D02*
G01*
X198573372Y-75713675D01*
X198707251Y-75769129D01*
X198998134Y-75963491D01*
X199245509Y-76210866D01*
X199439871Y-76501749D01*
X199439871Y-76501750D01*
X199573750Y-76824961D01*
X199642000Y-77168078D01*
X199642000Y-77517922D01*
X199573750Y-77861039D01*
X199521575Y-77987000D01*
X199439871Y-78184251D01*
X199245509Y-78475134D01*
X198998134Y-78722509D01*
X198707251Y-78916871D01*
X198573372Y-78972325D01*
X198384039Y-79050750D01*
X198040922Y-79119000D01*
X197691078Y-79119000D01*
X197347961Y-79050750D01*
X197158628Y-78972325D01*
X197024749Y-78916871D01*
X196733866Y-78722509D01*
X196486491Y-78475134D01*
X196292129Y-78184251D01*
X196210425Y-77987000D01*
X196158250Y-77861039D01*
X196090000Y-77517922D01*
X196090000Y-77168078D01*
X196158250Y-76824961D01*
X196292129Y-76501750D01*
X196292129Y-76501749D01*
X196486491Y-76210866D01*
X196733866Y-75963491D01*
X197024749Y-75769129D01*
X197158628Y-75713675D01*
X197347961Y-75635250D01*
X197691078Y-75567000D01*
X198040922Y-75567000D01*
X198384039Y-75635250D01*
G37*
G36*
X132720499Y-77202445D02*
G01*
X132757995Y-77213820D01*
X132792554Y-77232292D01*
X132822847Y-77257153D01*
X132847708Y-77287446D01*
X132866180Y-77322005D01*
X132877555Y-77359501D01*
X132882000Y-77404638D01*
X132882000Y-78043362D01*
X132877555Y-78088499D01*
X132866180Y-78125995D01*
X132847708Y-78160554D01*
X132822847Y-78190847D01*
X132792554Y-78215708D01*
X132757995Y-78234180D01*
X132720499Y-78245555D01*
X132675362Y-78250000D01*
X131936638Y-78250000D01*
X131891501Y-78245555D01*
X131854005Y-78234180D01*
X131819446Y-78215708D01*
X131789153Y-78190847D01*
X131764292Y-78160554D01*
X131745820Y-78125995D01*
X131734445Y-78088499D01*
X131730000Y-78043362D01*
X131730000Y-77404638D01*
X131734445Y-77359501D01*
X131745820Y-77322005D01*
X131764292Y-77287446D01*
X131789153Y-77257153D01*
X131819446Y-77232292D01*
X131854005Y-77213820D01*
X131891501Y-77202445D01*
X131936638Y-77198000D01*
X132675362Y-77198000D01*
X132720499Y-77202445D01*
G37*
G36*
X130970499Y-77202445D02*
G01*
X131007995Y-77213820D01*
X131042554Y-77232292D01*
X131072847Y-77257153D01*
X131097708Y-77287446D01*
X131116180Y-77322005D01*
X131127555Y-77359501D01*
X131132000Y-77404638D01*
X131132000Y-78043362D01*
X131127555Y-78088499D01*
X131116180Y-78125995D01*
X131097708Y-78160554D01*
X131072847Y-78190847D01*
X131042554Y-78215708D01*
X131007995Y-78234180D01*
X130970499Y-78245555D01*
X130925362Y-78250000D01*
X130186638Y-78250000D01*
X130141501Y-78245555D01*
X130104005Y-78234180D01*
X130069446Y-78215708D01*
X130039153Y-78190847D01*
X130014292Y-78160554D01*
X129995820Y-78125995D01*
X129984445Y-78088499D01*
X129980000Y-78043362D01*
X129980000Y-77404638D01*
X129984445Y-77359501D01*
X129995820Y-77322005D01*
X130014292Y-77287446D01*
X130039153Y-77257153D01*
X130069446Y-77232292D01*
X130104005Y-77213820D01*
X130141501Y-77202445D01*
X130186638Y-77198000D01*
X130925362Y-77198000D01*
X130970499Y-77202445D01*
G37*
G36*
X189467142Y-75418242D02*
G01*
X189615101Y-75479529D01*
X189748255Y-75568499D01*
X189861501Y-75681745D01*
X189950471Y-75814899D01*
X190011758Y-75962858D01*
X190043000Y-76119925D01*
X190043000Y-76280075D01*
X190011758Y-76437142D01*
X189950471Y-76585101D01*
X189861501Y-76718255D01*
X189748255Y-76831501D01*
X189615101Y-76920471D01*
X189467142Y-76981758D01*
X189310075Y-77013000D01*
X189149925Y-77013000D01*
X188992858Y-76981758D01*
X188844899Y-76920471D01*
X188711745Y-76831501D01*
X188598499Y-76718255D01*
X188509529Y-76585101D01*
X188448242Y-76437142D01*
X188417000Y-76280075D01*
X188417000Y-76119925D01*
X188448242Y-75962858D01*
X188509529Y-75814899D01*
X188598499Y-75681745D01*
X188711745Y-75568499D01*
X188844899Y-75479529D01*
X188992858Y-75418242D01*
X189149925Y-75387000D01*
X189310075Y-75387000D01*
X189467142Y-75418242D01*
G37*
G36*
X127640499Y-75932445D02*
G01*
X127677995Y-75943820D01*
X127712554Y-75962292D01*
X127742847Y-75987153D01*
X127767708Y-76017446D01*
X127786180Y-76052005D01*
X127797555Y-76089501D01*
X127802000Y-76134638D01*
X127802000Y-76773362D01*
X127797555Y-76818499D01*
X127786180Y-76855995D01*
X127767708Y-76890554D01*
X127742847Y-76920847D01*
X127712554Y-76945708D01*
X127677995Y-76964180D01*
X127640499Y-76975555D01*
X127595362Y-76980000D01*
X126856638Y-76980000D01*
X126811501Y-76975555D01*
X126774005Y-76964180D01*
X126739446Y-76945708D01*
X126709153Y-76920847D01*
X126684292Y-76890554D01*
X126665820Y-76855995D01*
X126654445Y-76818499D01*
X126650000Y-76773362D01*
X126650000Y-76134638D01*
X126654445Y-76089501D01*
X126665820Y-76052005D01*
X126684292Y-76017446D01*
X126709153Y-75987153D01*
X126739446Y-75962292D01*
X126774005Y-75943820D01*
X126811501Y-75932445D01*
X126856638Y-75928000D01*
X127595362Y-75928000D01*
X127640499Y-75932445D01*
G37*
G36*
X125890499Y-75932445D02*
G01*
X125927995Y-75943820D01*
X125962554Y-75962292D01*
X125992847Y-75987153D01*
X126017708Y-76017446D01*
X126036180Y-76052005D01*
X126047555Y-76089501D01*
X126052000Y-76134638D01*
X126052000Y-76773362D01*
X126047555Y-76818499D01*
X126036180Y-76855995D01*
X126017708Y-76890554D01*
X125992847Y-76920847D01*
X125962554Y-76945708D01*
X125927995Y-76964180D01*
X125890499Y-76975555D01*
X125845362Y-76980000D01*
X125106638Y-76980000D01*
X125061501Y-76975555D01*
X125024005Y-76964180D01*
X124989446Y-76945708D01*
X124959153Y-76920847D01*
X124934292Y-76890554D01*
X124915820Y-76855995D01*
X124904445Y-76818499D01*
X124900000Y-76773362D01*
X124900000Y-76134638D01*
X124904445Y-76089501D01*
X124915820Y-76052005D01*
X124934292Y-76017446D01*
X124959153Y-75987153D01*
X124989446Y-75962292D01*
X125024005Y-75943820D01*
X125061501Y-75932445D01*
X125106638Y-75928000D01*
X125845362Y-75928000D01*
X125890499Y-75932445D01*
G37*
G36*
X144636499Y-75120445D02*
G01*
X144673995Y-75131820D01*
X144708554Y-75150292D01*
X144738847Y-75175153D01*
X144763708Y-75205446D01*
X144782180Y-75240005D01*
X144793555Y-75277501D01*
X144798000Y-75322638D01*
X144798000Y-76061362D01*
X144793555Y-76106499D01*
X144782180Y-76143995D01*
X144763708Y-76178554D01*
X144738847Y-76208847D01*
X144708554Y-76233708D01*
X144673995Y-76252180D01*
X144636499Y-76263555D01*
X144591362Y-76268000D01*
X143952638Y-76268000D01*
X143907501Y-76263555D01*
X143870005Y-76252180D01*
X143835446Y-76233708D01*
X143805153Y-76208847D01*
X143780292Y-76178554D01*
X143761820Y-76143995D01*
X143750445Y-76106499D01*
X143746000Y-76061362D01*
X143746000Y-75322638D01*
X143750445Y-75277501D01*
X143761820Y-75240005D01*
X143780292Y-75205446D01*
X143805153Y-75175153D01*
X143835446Y-75150292D01*
X143870005Y-75131820D01*
X143907501Y-75120445D01*
X143952638Y-75116000D01*
X144591362Y-75116000D01*
X144636499Y-75120445D01*
G37*
G36*
X163432499Y-75092445D02*
G01*
X163469995Y-75103820D01*
X163504554Y-75122292D01*
X163534847Y-75147153D01*
X163559708Y-75177446D01*
X163578180Y-75212005D01*
X163589555Y-75249501D01*
X163594000Y-75294638D01*
X163594000Y-76033362D01*
X163589555Y-76078499D01*
X163578180Y-76115995D01*
X163559708Y-76150554D01*
X163534847Y-76180847D01*
X163504554Y-76205708D01*
X163469995Y-76224180D01*
X163432499Y-76235555D01*
X163387362Y-76240000D01*
X162748638Y-76240000D01*
X162703501Y-76235555D01*
X162666005Y-76224180D01*
X162631446Y-76205708D01*
X162601153Y-76180847D01*
X162576292Y-76150554D01*
X162557820Y-76115995D01*
X162546445Y-76078499D01*
X162542000Y-76033362D01*
X162542000Y-75294638D01*
X162546445Y-75249501D01*
X162557820Y-75212005D01*
X162576292Y-75177446D01*
X162601153Y-75147153D01*
X162631446Y-75122292D01*
X162666005Y-75103820D01*
X162703501Y-75092445D01*
X162748638Y-75088000D01*
X163387362Y-75088000D01*
X163432499Y-75092445D01*
G37*
G36*
X167242499Y-75092445D02*
G01*
X167279995Y-75103820D01*
X167314554Y-75122292D01*
X167344847Y-75147153D01*
X167369708Y-75177446D01*
X167388180Y-75212005D01*
X167399555Y-75249501D01*
X167404000Y-75294638D01*
X167404000Y-76033362D01*
X167399555Y-76078499D01*
X167388180Y-76115995D01*
X167369708Y-76150554D01*
X167344847Y-76180847D01*
X167314554Y-76205708D01*
X167279995Y-76224180D01*
X167242499Y-76235555D01*
X167197362Y-76240000D01*
X166558638Y-76240000D01*
X166513501Y-76235555D01*
X166476005Y-76224180D01*
X166441446Y-76205708D01*
X166411153Y-76180847D01*
X166386292Y-76150554D01*
X166367820Y-76115995D01*
X166356445Y-76078499D01*
X166352000Y-76033362D01*
X166352000Y-75294638D01*
X166356445Y-75249501D01*
X166367820Y-75212005D01*
X166386292Y-75177446D01*
X166411153Y-75147153D01*
X166441446Y-75122292D01*
X166476005Y-75103820D01*
X166513501Y-75092445D01*
X166558638Y-75088000D01*
X167197362Y-75088000D01*
X167242499Y-75092445D01*
G37*
G36*
X152002499Y-75092445D02*
G01*
X152039995Y-75103820D01*
X152074554Y-75122292D01*
X152104847Y-75147153D01*
X152129708Y-75177446D01*
X152148180Y-75212005D01*
X152159555Y-75249501D01*
X152164000Y-75294638D01*
X152164000Y-76033362D01*
X152159555Y-76078499D01*
X152148180Y-76115995D01*
X152129708Y-76150554D01*
X152104847Y-76180847D01*
X152074554Y-76205708D01*
X152039995Y-76224180D01*
X152002499Y-76235555D01*
X151957362Y-76240000D01*
X151318638Y-76240000D01*
X151273501Y-76235555D01*
X151236005Y-76224180D01*
X151201446Y-76205708D01*
X151171153Y-76180847D01*
X151146292Y-76150554D01*
X151127820Y-76115995D01*
X151116445Y-76078499D01*
X151112000Y-76033362D01*
X151112000Y-75294638D01*
X151116445Y-75249501D01*
X151127820Y-75212005D01*
X151146292Y-75177446D01*
X151171153Y-75147153D01*
X151201446Y-75122292D01*
X151236005Y-75103820D01*
X151273501Y-75092445D01*
X151318638Y-75088000D01*
X151957362Y-75088000D01*
X152002499Y-75092445D01*
G37*
G36*
X159622499Y-75092445D02*
G01*
X159659995Y-75103820D01*
X159694554Y-75122292D01*
X159724847Y-75147153D01*
X159749708Y-75177446D01*
X159768180Y-75212005D01*
X159779555Y-75249501D01*
X159784000Y-75294638D01*
X159784000Y-76033362D01*
X159779555Y-76078499D01*
X159768180Y-76115995D01*
X159749708Y-76150554D01*
X159724847Y-76180847D01*
X159694554Y-76205708D01*
X159659995Y-76224180D01*
X159622499Y-76235555D01*
X159577362Y-76240000D01*
X158938638Y-76240000D01*
X158893501Y-76235555D01*
X158856005Y-76224180D01*
X158821446Y-76205708D01*
X158791153Y-76180847D01*
X158766292Y-76150554D01*
X158747820Y-76115995D01*
X158736445Y-76078499D01*
X158732000Y-76033362D01*
X158732000Y-75294638D01*
X158736445Y-75249501D01*
X158747820Y-75212005D01*
X158766292Y-75177446D01*
X158791153Y-75147153D01*
X158821446Y-75122292D01*
X158856005Y-75103820D01*
X158893501Y-75092445D01*
X158938638Y-75088000D01*
X159577362Y-75088000D01*
X159622499Y-75092445D01*
G37*
G36*
X155812499Y-75092445D02*
G01*
X155849995Y-75103820D01*
X155884554Y-75122292D01*
X155914847Y-75147153D01*
X155939708Y-75177446D01*
X155958180Y-75212005D01*
X155969555Y-75249501D01*
X155974000Y-75294638D01*
X155974000Y-76033362D01*
X155969555Y-76078499D01*
X155958180Y-76115995D01*
X155939708Y-76150554D01*
X155914847Y-76180847D01*
X155884554Y-76205708D01*
X155849995Y-76224180D01*
X155812499Y-76235555D01*
X155767362Y-76240000D01*
X155128638Y-76240000D01*
X155083501Y-76235555D01*
X155046005Y-76224180D01*
X155011446Y-76205708D01*
X154981153Y-76180847D01*
X154956292Y-76150554D01*
X154937820Y-76115995D01*
X154926445Y-76078499D01*
X154922000Y-76033362D01*
X154922000Y-75294638D01*
X154926445Y-75249501D01*
X154937820Y-75212005D01*
X154956292Y-75177446D01*
X154981153Y-75147153D01*
X155011446Y-75122292D01*
X155046005Y-75103820D01*
X155083501Y-75092445D01*
X155128638Y-75088000D01*
X155767362Y-75088000D01*
X155812499Y-75092445D01*
G37*
G36*
X148192499Y-75092445D02*
G01*
X148229995Y-75103820D01*
X148264554Y-75122292D01*
X148294847Y-75147153D01*
X148319708Y-75177446D01*
X148338180Y-75212005D01*
X148349555Y-75249501D01*
X148354000Y-75294638D01*
X148354000Y-76033362D01*
X148349555Y-76078499D01*
X148338180Y-76115995D01*
X148319708Y-76150554D01*
X148294847Y-76180847D01*
X148264554Y-76205708D01*
X148229995Y-76224180D01*
X148192499Y-76235555D01*
X148147362Y-76240000D01*
X147508638Y-76240000D01*
X147463501Y-76235555D01*
X147426005Y-76224180D01*
X147391446Y-76205708D01*
X147361153Y-76180847D01*
X147336292Y-76150554D01*
X147317820Y-76115995D01*
X147306445Y-76078499D01*
X147302000Y-76033362D01*
X147302000Y-75294638D01*
X147306445Y-75249501D01*
X147317820Y-75212005D01*
X147336292Y-75177446D01*
X147361153Y-75147153D01*
X147391446Y-75122292D01*
X147426005Y-75103820D01*
X147463501Y-75092445D01*
X147508638Y-75088000D01*
X148147362Y-75088000D01*
X148192499Y-75092445D01*
G37*
G36*
X114614593Y-70877339D02*
G01*
X114801767Y-70914570D01*
X115273299Y-71109885D01*
X115516029Y-71272073D01*
X115697666Y-71393438D01*
X116058562Y-71754334D01*
X116145215Y-71884020D01*
X116342115Y-72178701D01*
X116537430Y-72650233D01*
X116558000Y-72753646D01*
X116637000Y-73150807D01*
X116637000Y-73661193D01*
X116573302Y-73981423D01*
X116537430Y-74161767D01*
X116342115Y-74633299D01*
X116179927Y-74876029D01*
X116058562Y-75057666D01*
X115697666Y-75418562D01*
X115516029Y-75539927D01*
X115273299Y-75702115D01*
X114801767Y-75897430D01*
X114648080Y-75928000D01*
X114301193Y-75997000D01*
X113790807Y-75997000D01*
X113443920Y-75928000D01*
X113290233Y-75897430D01*
X112818701Y-75702115D01*
X112575971Y-75539927D01*
X112394334Y-75418562D01*
X112033438Y-75057666D01*
X111912073Y-74876029D01*
X111749885Y-74633299D01*
X111554570Y-74161767D01*
X111518698Y-73981423D01*
X111455000Y-73661193D01*
X111455000Y-73150807D01*
X111534000Y-72753646D01*
X111554570Y-72650233D01*
X111749885Y-72178701D01*
X111946785Y-71884020D01*
X112033438Y-71754334D01*
X112394334Y-71393438D01*
X112575971Y-71272073D01*
X112818701Y-71109885D01*
X113290233Y-70914570D01*
X113477407Y-70877339D01*
X113790807Y-70815000D01*
X114301193Y-70815000D01*
X114614593Y-70877339D01*
G37*
G36*
X178847928Y-74581764D02*
G01*
X178869009Y-74588160D01*
X178888445Y-74598548D01*
X178905476Y-74612524D01*
X178919452Y-74629555D01*
X178929840Y-74648991D01*
X178936236Y-74670072D01*
X178939000Y-74698140D01*
X178939000Y-75161860D01*
X178936236Y-75189928D01*
X178929840Y-75211009D01*
X178919452Y-75230445D01*
X178905476Y-75247476D01*
X178888445Y-75261452D01*
X178869009Y-75271840D01*
X178847928Y-75278236D01*
X178819860Y-75281000D01*
X177356140Y-75281000D01*
X177328072Y-75278236D01*
X177306991Y-75271840D01*
X177287555Y-75261452D01*
X177270524Y-75247476D01*
X177256548Y-75230445D01*
X177246160Y-75211009D01*
X177239764Y-75189928D01*
X177237000Y-75161860D01*
X177237000Y-74698140D01*
X177239764Y-74670072D01*
X177246160Y-74648991D01*
X177256548Y-74629555D01*
X177270524Y-74612524D01*
X177287555Y-74598548D01*
X177306991Y-74588160D01*
X177328072Y-74581764D01*
X177356140Y-74579000D01*
X178819860Y-74579000D01*
X178847928Y-74581764D01*
G37*
G36*
X184147928Y-74581764D02*
G01*
X184169009Y-74588160D01*
X184188445Y-74598548D01*
X184205476Y-74612524D01*
X184219452Y-74629555D01*
X184229840Y-74648991D01*
X184236236Y-74670072D01*
X184239000Y-74698140D01*
X184239000Y-75161860D01*
X184236236Y-75189928D01*
X184229840Y-75211009D01*
X184219452Y-75230445D01*
X184205476Y-75247476D01*
X184188445Y-75261452D01*
X184169009Y-75271840D01*
X184147928Y-75278236D01*
X184119860Y-75281000D01*
X182656140Y-75281000D01*
X182628072Y-75278236D01*
X182606991Y-75271840D01*
X182587555Y-75261452D01*
X182570524Y-75247476D01*
X182556548Y-75230445D01*
X182546160Y-75211009D01*
X182539764Y-75189928D01*
X182537000Y-75161860D01*
X182537000Y-74698140D01*
X182539764Y-74670072D01*
X182546160Y-74648991D01*
X182556548Y-74629555D01*
X182570524Y-74612524D01*
X182587555Y-74598548D01*
X182606991Y-74588160D01*
X182628072Y-74581764D01*
X182656140Y-74579000D01*
X184119860Y-74579000D01*
X184147928Y-74581764D01*
G37*
G36*
X127640499Y-74154445D02*
G01*
X127677995Y-74165820D01*
X127712554Y-74184292D01*
X127742847Y-74209153D01*
X127767708Y-74239446D01*
X127786180Y-74274005D01*
X127797555Y-74311501D01*
X127802000Y-74356638D01*
X127802000Y-74995362D01*
X127797555Y-75040499D01*
X127786180Y-75077995D01*
X127767708Y-75112554D01*
X127742847Y-75142847D01*
X127712554Y-75167708D01*
X127677995Y-75186180D01*
X127640499Y-75197555D01*
X127595362Y-75202000D01*
X126856638Y-75202000D01*
X126811501Y-75197555D01*
X126774005Y-75186180D01*
X126739446Y-75167708D01*
X126709153Y-75142847D01*
X126684292Y-75112554D01*
X126665820Y-75077995D01*
X126654445Y-75040499D01*
X126650000Y-74995362D01*
X126650000Y-74356638D01*
X126654445Y-74311501D01*
X126665820Y-74274005D01*
X126684292Y-74239446D01*
X126709153Y-74209153D01*
X126739446Y-74184292D01*
X126774005Y-74165820D01*
X126811501Y-74154445D01*
X126856638Y-74150000D01*
X127595362Y-74150000D01*
X127640499Y-74154445D01*
G37*
G36*
X125890499Y-74154445D02*
G01*
X125927995Y-74165820D01*
X125962554Y-74184292D01*
X125992847Y-74209153D01*
X126017708Y-74239446D01*
X126036180Y-74274005D01*
X126047555Y-74311501D01*
X126052000Y-74356638D01*
X126052000Y-74995362D01*
X126047555Y-75040499D01*
X126036180Y-75077995D01*
X126017708Y-75112554D01*
X125992847Y-75142847D01*
X125962554Y-75167708D01*
X125927995Y-75186180D01*
X125890499Y-75197555D01*
X125845362Y-75202000D01*
X125106638Y-75202000D01*
X125061501Y-75197555D01*
X125024005Y-75186180D01*
X124989446Y-75167708D01*
X124959153Y-75142847D01*
X124934292Y-75112554D01*
X124915820Y-75077995D01*
X124904445Y-75040499D01*
X124900000Y-74995362D01*
X124900000Y-74356638D01*
X124904445Y-74311501D01*
X124915820Y-74274005D01*
X124934292Y-74239446D01*
X124959153Y-74209153D01*
X124989446Y-74184292D01*
X125024005Y-74165820D01*
X125061501Y-74154445D01*
X125106638Y-74150000D01*
X125845362Y-74150000D01*
X125890499Y-74154445D01*
G37*
G36*
X181858752Y-71377699D02*
G01*
X181888971Y-71386866D01*
X181916813Y-71401748D01*
X181941221Y-71421779D01*
X181961252Y-71446187D01*
X181976134Y-71474029D01*
X181985301Y-71504248D01*
X181989000Y-71541808D01*
X181989000Y-74508192D01*
X181985301Y-74545752D01*
X181976134Y-74575971D01*
X181961252Y-74603813D01*
X181941221Y-74628221D01*
X181916813Y-74648252D01*
X181888971Y-74663134D01*
X181858752Y-74672301D01*
X181821192Y-74676000D01*
X179654808Y-74676000D01*
X179617248Y-74672301D01*
X179587029Y-74663134D01*
X179559187Y-74648252D01*
X179534779Y-74628221D01*
X179514748Y-74603813D01*
X179499866Y-74575971D01*
X179490699Y-74545752D01*
X179487000Y-74508192D01*
X179487000Y-71541808D01*
X179490699Y-71504248D01*
X179499866Y-71474029D01*
X179514748Y-71446187D01*
X179534779Y-71421779D01*
X179559187Y-71401748D01*
X179587029Y-71386866D01*
X179617248Y-71377699D01*
X179654808Y-71374000D01*
X181821192Y-71374000D01*
X181858752Y-71377699D01*
G37*
G36*
X144636499Y-73370445D02*
G01*
X144673995Y-73381820D01*
X144708554Y-73400292D01*
X144738847Y-73425153D01*
X144763708Y-73455446D01*
X144782180Y-73490005D01*
X144793555Y-73527501D01*
X144798000Y-73572638D01*
X144798000Y-74311362D01*
X144793555Y-74356499D01*
X144782180Y-74393995D01*
X144763708Y-74428554D01*
X144738847Y-74458847D01*
X144708554Y-74483708D01*
X144673995Y-74502180D01*
X144636499Y-74513555D01*
X144591362Y-74518000D01*
X143952638Y-74518000D01*
X143907501Y-74513555D01*
X143870005Y-74502180D01*
X143835446Y-74483708D01*
X143805153Y-74458847D01*
X143780292Y-74428554D01*
X143761820Y-74393995D01*
X143750445Y-74356499D01*
X143746000Y-74311362D01*
X143746000Y-73572638D01*
X143750445Y-73527501D01*
X143761820Y-73490005D01*
X143780292Y-73455446D01*
X143805153Y-73425153D01*
X143835446Y-73400292D01*
X143870005Y-73381820D01*
X143907501Y-73370445D01*
X143952638Y-73366000D01*
X144591362Y-73366000D01*
X144636499Y-73370445D01*
G37*
G36*
X163432499Y-73342445D02*
G01*
X163469995Y-73353820D01*
X163504554Y-73372292D01*
X163534847Y-73397153D01*
X163559708Y-73427446D01*
X163578180Y-73462005D01*
X163589555Y-73499501D01*
X163594000Y-73544638D01*
X163594000Y-74283362D01*
X163589555Y-74328499D01*
X163578180Y-74365995D01*
X163559708Y-74400554D01*
X163534847Y-74430847D01*
X163504554Y-74455708D01*
X163469995Y-74474180D01*
X163432499Y-74485555D01*
X163387362Y-74490000D01*
X162748638Y-74490000D01*
X162703501Y-74485555D01*
X162666005Y-74474180D01*
X162631446Y-74455708D01*
X162601153Y-74430847D01*
X162576292Y-74400554D01*
X162557820Y-74365995D01*
X162546445Y-74328499D01*
X162542000Y-74283362D01*
X162542000Y-73544638D01*
X162546445Y-73499501D01*
X162557820Y-73462005D01*
X162576292Y-73427446D01*
X162601153Y-73397153D01*
X162631446Y-73372292D01*
X162666005Y-73353820D01*
X162703501Y-73342445D01*
X162748638Y-73338000D01*
X163387362Y-73338000D01*
X163432499Y-73342445D01*
G37*
G36*
X167242499Y-73342445D02*
G01*
X167279995Y-73353820D01*
X167314554Y-73372292D01*
X167344847Y-73397153D01*
X167369708Y-73427446D01*
X167388180Y-73462005D01*
X167399555Y-73499501D01*
X167404000Y-73544638D01*
X167404000Y-74283362D01*
X167399555Y-74328499D01*
X167388180Y-74365995D01*
X167369708Y-74400554D01*
X167344847Y-74430847D01*
X167314554Y-74455708D01*
X167279995Y-74474180D01*
X167242499Y-74485555D01*
X167197362Y-74490000D01*
X166558638Y-74490000D01*
X166513501Y-74485555D01*
X166476005Y-74474180D01*
X166441446Y-74455708D01*
X166411153Y-74430847D01*
X166386292Y-74400554D01*
X166367820Y-74365995D01*
X166356445Y-74328499D01*
X166352000Y-74283362D01*
X166352000Y-73544638D01*
X166356445Y-73499501D01*
X166367820Y-73462005D01*
X166386292Y-73427446D01*
X166411153Y-73397153D01*
X166441446Y-73372292D01*
X166476005Y-73353820D01*
X166513501Y-73342445D01*
X166558638Y-73338000D01*
X167197362Y-73338000D01*
X167242499Y-73342445D01*
G37*
G36*
X159622499Y-73342445D02*
G01*
X159659995Y-73353820D01*
X159694554Y-73372292D01*
X159724847Y-73397153D01*
X159749708Y-73427446D01*
X159768180Y-73462005D01*
X159779555Y-73499501D01*
X159784000Y-73544638D01*
X159784000Y-74283362D01*
X159779555Y-74328499D01*
X159768180Y-74365995D01*
X159749708Y-74400554D01*
X159724847Y-74430847D01*
X159694554Y-74455708D01*
X159659995Y-74474180D01*
X159622499Y-74485555D01*
X159577362Y-74490000D01*
X158938638Y-74490000D01*
X158893501Y-74485555D01*
X158856005Y-74474180D01*
X158821446Y-74455708D01*
X158791153Y-74430847D01*
X158766292Y-74400554D01*
X158747820Y-74365995D01*
X158736445Y-74328499D01*
X158732000Y-74283362D01*
X158732000Y-73544638D01*
X158736445Y-73499501D01*
X158747820Y-73462005D01*
X158766292Y-73427446D01*
X158791153Y-73397153D01*
X158821446Y-73372292D01*
X158856005Y-73353820D01*
X158893501Y-73342445D01*
X158938638Y-73338000D01*
X159577362Y-73338000D01*
X159622499Y-73342445D01*
G37*
G36*
X152002499Y-73342445D02*
G01*
X152039995Y-73353820D01*
X152074554Y-73372292D01*
X152104847Y-73397153D01*
X152129708Y-73427446D01*
X152148180Y-73462005D01*
X152159555Y-73499501D01*
X152164000Y-73544638D01*
X152164000Y-74283362D01*
X152159555Y-74328499D01*
X152148180Y-74365995D01*
X152129708Y-74400554D01*
X152104847Y-74430847D01*
X152074554Y-74455708D01*
X152039995Y-74474180D01*
X152002499Y-74485555D01*
X151957362Y-74490000D01*
X151318638Y-74490000D01*
X151273501Y-74485555D01*
X151236005Y-74474180D01*
X151201446Y-74455708D01*
X151171153Y-74430847D01*
X151146292Y-74400554D01*
X151127820Y-74365995D01*
X151116445Y-74328499D01*
X151112000Y-74283362D01*
X151112000Y-73544638D01*
X151116445Y-73499501D01*
X151127820Y-73462005D01*
X151146292Y-73427446D01*
X151171153Y-73397153D01*
X151201446Y-73372292D01*
X151236005Y-73353820D01*
X151273501Y-73342445D01*
X151318638Y-73338000D01*
X151957362Y-73338000D01*
X152002499Y-73342445D01*
G37*
G36*
X155812499Y-73342445D02*
G01*
X155849995Y-73353820D01*
X155884554Y-73372292D01*
X155914847Y-73397153D01*
X155939708Y-73427446D01*
X155958180Y-73462005D01*
X155969555Y-73499501D01*
X155974000Y-73544638D01*
X155974000Y-74283362D01*
X155969555Y-74328499D01*
X155958180Y-74365995D01*
X155939708Y-74400554D01*
X155914847Y-74430847D01*
X155884554Y-74455708D01*
X155849995Y-74474180D01*
X155812499Y-74485555D01*
X155767362Y-74490000D01*
X155128638Y-74490000D01*
X155083501Y-74485555D01*
X155046005Y-74474180D01*
X155011446Y-74455708D01*
X154981153Y-74430847D01*
X154956292Y-74400554D01*
X154937820Y-74365995D01*
X154926445Y-74328499D01*
X154922000Y-74283362D01*
X154922000Y-73544638D01*
X154926445Y-73499501D01*
X154937820Y-73462005D01*
X154956292Y-73427446D01*
X154981153Y-73397153D01*
X155011446Y-73372292D01*
X155046005Y-73353820D01*
X155083501Y-73342445D01*
X155128638Y-73338000D01*
X155767362Y-73338000D01*
X155812499Y-73342445D01*
G37*
G36*
X148192499Y-73342445D02*
G01*
X148229995Y-73353820D01*
X148264554Y-73372292D01*
X148294847Y-73397153D01*
X148319708Y-73427446D01*
X148338180Y-73462005D01*
X148349555Y-73499501D01*
X148354000Y-73544638D01*
X148354000Y-74283362D01*
X148349555Y-74328499D01*
X148338180Y-74365995D01*
X148319708Y-74400554D01*
X148294847Y-74430847D01*
X148264554Y-74455708D01*
X148229995Y-74474180D01*
X148192499Y-74485555D01*
X148147362Y-74490000D01*
X147508638Y-74490000D01*
X147463501Y-74485555D01*
X147426005Y-74474180D01*
X147391446Y-74455708D01*
X147361153Y-74430847D01*
X147336292Y-74400554D01*
X147317820Y-74365995D01*
X147306445Y-74328499D01*
X147302000Y-74283362D01*
X147302000Y-73544638D01*
X147306445Y-73499501D01*
X147317820Y-73462005D01*
X147336292Y-73427446D01*
X147361153Y-73397153D01*
X147391446Y-73372292D01*
X147426005Y-73353820D01*
X147463501Y-73342445D01*
X147508638Y-73338000D01*
X148147362Y-73338000D01*
X148192499Y-73342445D01*
G37*
G36*
X189467142Y-72878242D02*
G01*
X189615101Y-72939529D01*
X189748255Y-73028499D01*
X189861501Y-73141745D01*
X189950471Y-73274899D01*
X190011758Y-73422858D01*
X190043000Y-73579925D01*
X190043000Y-73740075D01*
X190011758Y-73897142D01*
X189950471Y-74045101D01*
X189861501Y-74178255D01*
X189748255Y-74291501D01*
X189615101Y-74380471D01*
X189467142Y-74441758D01*
X189310075Y-74473000D01*
X189149925Y-74473000D01*
X188992858Y-74441758D01*
X188844899Y-74380471D01*
X188711745Y-74291501D01*
X188598499Y-74178255D01*
X188509529Y-74045101D01*
X188448242Y-73897142D01*
X188417000Y-73740075D01*
X188417000Y-73579925D01*
X188448242Y-73422858D01*
X188509529Y-73274899D01*
X188598499Y-73141745D01*
X188711745Y-73028499D01*
X188844899Y-72939529D01*
X188992858Y-72878242D01*
X189149925Y-72847000D01*
X189310075Y-72847000D01*
X189467142Y-72878242D01*
G37*
G36*
X198388039Y-70807250D02*
G01*
X198489177Y-70849143D01*
X198711251Y-70941129D01*
X199002134Y-71135491D01*
X199249509Y-71382866D01*
X199443871Y-71673749D01*
X199443871Y-71673750D01*
X199577750Y-71996961D01*
X199646000Y-72340078D01*
X199646000Y-72689922D01*
X199577750Y-73033039D01*
X199528968Y-73150809D01*
X199443871Y-73356251D01*
X199249509Y-73647134D01*
X199002134Y-73894509D01*
X198711251Y-74088871D01*
X198577372Y-74144325D01*
X198388039Y-74222750D01*
X198044922Y-74291000D01*
X197695078Y-74291000D01*
X197351961Y-74222750D01*
X197162628Y-74144325D01*
X197028749Y-74088871D01*
X196737866Y-73894509D01*
X196490491Y-73647134D01*
X196296129Y-73356251D01*
X196211032Y-73150809D01*
X196162250Y-73033039D01*
X196094000Y-72689922D01*
X196094000Y-72340078D01*
X196162250Y-71996961D01*
X196296129Y-71673750D01*
X196296129Y-71673749D01*
X196490491Y-71382866D01*
X196737866Y-71135491D01*
X197028749Y-70941129D01*
X197250823Y-70849143D01*
X197351961Y-70807250D01*
X197695078Y-70739000D01*
X198044922Y-70739000D01*
X198388039Y-70807250D01*
G37*
G36*
X178847928Y-73311764D02*
G01*
X178869009Y-73318160D01*
X178888445Y-73328548D01*
X178905476Y-73342524D01*
X178919452Y-73359555D01*
X178929840Y-73378991D01*
X178936236Y-73400072D01*
X178939000Y-73428140D01*
X178939000Y-73891860D01*
X178936236Y-73919928D01*
X178929840Y-73941009D01*
X178919452Y-73960445D01*
X178905476Y-73977476D01*
X178888445Y-73991452D01*
X178869009Y-74001840D01*
X178847928Y-74008236D01*
X178819860Y-74011000D01*
X177356140Y-74011000D01*
X177328072Y-74008236D01*
X177306991Y-74001840D01*
X177287555Y-73991452D01*
X177270524Y-73977476D01*
X177256548Y-73960445D01*
X177246160Y-73941009D01*
X177239764Y-73919928D01*
X177237000Y-73891860D01*
X177237000Y-73428140D01*
X177239764Y-73400072D01*
X177246160Y-73378991D01*
X177256548Y-73359555D01*
X177270524Y-73342524D01*
X177287555Y-73328548D01*
X177306991Y-73318160D01*
X177328072Y-73311764D01*
X177356140Y-73309000D01*
X178819860Y-73309000D01*
X178847928Y-73311764D01*
G37*
G36*
X184147928Y-73311764D02*
G01*
X184169009Y-73318160D01*
X184188445Y-73328548D01*
X184205476Y-73342524D01*
X184219452Y-73359555D01*
X184229840Y-73378991D01*
X184236236Y-73400072D01*
X184239000Y-73428140D01*
X184239000Y-73891860D01*
X184236236Y-73919928D01*
X184229840Y-73941009D01*
X184219452Y-73960445D01*
X184205476Y-73977476D01*
X184188445Y-73991452D01*
X184169009Y-74001840D01*
X184147928Y-74008236D01*
X184119860Y-74011000D01*
X182656140Y-74011000D01*
X182628072Y-74008236D01*
X182606991Y-74001840D01*
X182587555Y-73991452D01*
X182570524Y-73977476D01*
X182556548Y-73960445D01*
X182546160Y-73941009D01*
X182539764Y-73919928D01*
X182537000Y-73891860D01*
X182537000Y-73428140D01*
X182539764Y-73400072D01*
X182546160Y-73378991D01*
X182556548Y-73359555D01*
X182570524Y-73342524D01*
X182587555Y-73328548D01*
X182606991Y-73318160D01*
X182628072Y-73311764D01*
X182656140Y-73309000D01*
X184119860Y-73309000D01*
X184147928Y-73311764D01*
G37*
G36*
X176182499Y-71868445D02*
G01*
X176219995Y-71879820D01*
X176254554Y-71898292D01*
X176284847Y-71923153D01*
X176309708Y-71953446D01*
X176328180Y-71988005D01*
X176339555Y-72025501D01*
X176344000Y-72070638D01*
X176344000Y-72709362D01*
X176339555Y-72754499D01*
X176328180Y-72791995D01*
X176309708Y-72826554D01*
X176284847Y-72856847D01*
X176254554Y-72881708D01*
X176219995Y-72900180D01*
X176182499Y-72911555D01*
X176137362Y-72916000D01*
X175398638Y-72916000D01*
X175353501Y-72911555D01*
X175316005Y-72900180D01*
X175281446Y-72881708D01*
X175251153Y-72856847D01*
X175226292Y-72826554D01*
X175207820Y-72791995D01*
X175196445Y-72754499D01*
X175192000Y-72709362D01*
X175192000Y-72070638D01*
X175196445Y-72025501D01*
X175207820Y-71988005D01*
X175226292Y-71953446D01*
X175251153Y-71923153D01*
X175281446Y-71898292D01*
X175316005Y-71879820D01*
X175353501Y-71868445D01*
X175398638Y-71864000D01*
X176137362Y-71864000D01*
X176182499Y-71868445D01*
G37*
G36*
X174432499Y-71868445D02*
G01*
X174469995Y-71879820D01*
X174504554Y-71898292D01*
X174534847Y-71923153D01*
X174559708Y-71953446D01*
X174578180Y-71988005D01*
X174589555Y-72025501D01*
X174594000Y-72070638D01*
X174594000Y-72709362D01*
X174589555Y-72754499D01*
X174578180Y-72791995D01*
X174559708Y-72826554D01*
X174534847Y-72856847D01*
X174504554Y-72881708D01*
X174469995Y-72900180D01*
X174432499Y-72911555D01*
X174387362Y-72916000D01*
X173648638Y-72916000D01*
X173603501Y-72911555D01*
X173566005Y-72900180D01*
X173531446Y-72881708D01*
X173501153Y-72856847D01*
X173476292Y-72826554D01*
X173457820Y-72791995D01*
X173446445Y-72754499D01*
X173442000Y-72709362D01*
X173442000Y-72070638D01*
X173446445Y-72025501D01*
X173457820Y-71988005D01*
X173476292Y-71953446D01*
X173501153Y-71923153D01*
X173531446Y-71898292D01*
X173566005Y-71879820D01*
X173603501Y-71868445D01*
X173648638Y-71864000D01*
X174387362Y-71864000D01*
X174432499Y-71868445D01*
G37*
G36*
X184147928Y-72041764D02*
G01*
X184169009Y-72048160D01*
X184188445Y-72058548D01*
X184205476Y-72072524D01*
X184219452Y-72089555D01*
X184229840Y-72108991D01*
X184236236Y-72130072D01*
X184239000Y-72158140D01*
X184239000Y-72621860D01*
X184236236Y-72649928D01*
X184229840Y-72671009D01*
X184219452Y-72690445D01*
X184205476Y-72707476D01*
X184188445Y-72721452D01*
X184169009Y-72731840D01*
X184147928Y-72738236D01*
X184119860Y-72741000D01*
X182656140Y-72741000D01*
X182628072Y-72738236D01*
X182606991Y-72731840D01*
X182587555Y-72721452D01*
X182570524Y-72707476D01*
X182556548Y-72690445D01*
X182546160Y-72671009D01*
X182539764Y-72649928D01*
X182537000Y-72621860D01*
X182537000Y-72158140D01*
X182539764Y-72130072D01*
X182546160Y-72108991D01*
X182556548Y-72089555D01*
X182570524Y-72072524D01*
X182587555Y-72058548D01*
X182606991Y-72048160D01*
X182628072Y-72041764D01*
X182656140Y-72039000D01*
X184119860Y-72039000D01*
X184147928Y-72041764D01*
G37*
G36*
X178847928Y-72041764D02*
G01*
X178869009Y-72048160D01*
X178888445Y-72058548D01*
X178905476Y-72072524D01*
X178919452Y-72089555D01*
X178929840Y-72108991D01*
X178936236Y-72130072D01*
X178939000Y-72158140D01*
X178939000Y-72621860D01*
X178936236Y-72649928D01*
X178929840Y-72671009D01*
X178919452Y-72690445D01*
X178905476Y-72707476D01*
X178888445Y-72721452D01*
X178869009Y-72731840D01*
X178847928Y-72738236D01*
X178819860Y-72741000D01*
X177356140Y-72741000D01*
X177328072Y-72738236D01*
X177306991Y-72731840D01*
X177287555Y-72721452D01*
X177270524Y-72707476D01*
X177256548Y-72690445D01*
X177246160Y-72671009D01*
X177239764Y-72649928D01*
X177237000Y-72621860D01*
X177237000Y-72158140D01*
X177239764Y-72130072D01*
X177246160Y-72108991D01*
X177256548Y-72089555D01*
X177270524Y-72072524D01*
X177287555Y-72058548D01*
X177306991Y-72048160D01*
X177328072Y-72041764D01*
X177356140Y-72039000D01*
X178819860Y-72039000D01*
X178847928Y-72041764D01*
G37*
G36*
X144636499Y-71310445D02*
G01*
X144673995Y-71321820D01*
X144708554Y-71340292D01*
X144738847Y-71365153D01*
X144763708Y-71395446D01*
X144782180Y-71430005D01*
X144793555Y-71467501D01*
X144798000Y-71512638D01*
X144798000Y-72251362D01*
X144793555Y-72296499D01*
X144782180Y-72333995D01*
X144763708Y-72368554D01*
X144738847Y-72398847D01*
X144708554Y-72423708D01*
X144673995Y-72442180D01*
X144636499Y-72453555D01*
X144591362Y-72458000D01*
X143952638Y-72458000D01*
X143907501Y-72453555D01*
X143870005Y-72442180D01*
X143835446Y-72423708D01*
X143805153Y-72398847D01*
X143780292Y-72368554D01*
X143761820Y-72333995D01*
X143750445Y-72296499D01*
X143746000Y-72251362D01*
X143746000Y-71512638D01*
X143750445Y-71467501D01*
X143761820Y-71430005D01*
X143780292Y-71395446D01*
X143805153Y-71365153D01*
X143835446Y-71340292D01*
X143870005Y-71321820D01*
X143907501Y-71310445D01*
X143952638Y-71306000D01*
X144591362Y-71306000D01*
X144636499Y-71310445D01*
G37*
G36*
X148192499Y-71282445D02*
G01*
X148229995Y-71293820D01*
X148264554Y-71312292D01*
X148294847Y-71337153D01*
X148319708Y-71367446D01*
X148338180Y-71402005D01*
X148349555Y-71439501D01*
X148354000Y-71484638D01*
X148354000Y-72223362D01*
X148349555Y-72268499D01*
X148338180Y-72305995D01*
X148319708Y-72340554D01*
X148294847Y-72370847D01*
X148264554Y-72395708D01*
X148229995Y-72414180D01*
X148192499Y-72425555D01*
X148147362Y-72430000D01*
X147508638Y-72430000D01*
X147463501Y-72425555D01*
X147426005Y-72414180D01*
X147391446Y-72395708D01*
X147361153Y-72370847D01*
X147336292Y-72340554D01*
X147317820Y-72305995D01*
X147306445Y-72268499D01*
X147302000Y-72223362D01*
X147302000Y-71484638D01*
X147306445Y-71439501D01*
X147317820Y-71402005D01*
X147336292Y-71367446D01*
X147361153Y-71337153D01*
X147391446Y-71312292D01*
X147426005Y-71293820D01*
X147463501Y-71282445D01*
X147508638Y-71278000D01*
X148147362Y-71278000D01*
X148192499Y-71282445D01*
G37*
G36*
X152002499Y-71282445D02*
G01*
X152039995Y-71293820D01*
X152074554Y-71312292D01*
X152104847Y-71337153D01*
X152129708Y-71367446D01*
X152148180Y-71402005D01*
X152159555Y-71439501D01*
X152164000Y-71484638D01*
X152164000Y-72223362D01*
X152159555Y-72268499D01*
X152148180Y-72305995D01*
X152129708Y-72340554D01*
X152104847Y-72370847D01*
X152074554Y-72395708D01*
X152039995Y-72414180D01*
X152002499Y-72425555D01*
X151957362Y-72430000D01*
X151318638Y-72430000D01*
X151273501Y-72425555D01*
X151236005Y-72414180D01*
X151201446Y-72395708D01*
X151171153Y-72370847D01*
X151146292Y-72340554D01*
X151127820Y-72305995D01*
X151116445Y-72268499D01*
X151112000Y-72223362D01*
X151112000Y-71484638D01*
X151116445Y-71439501D01*
X151127820Y-71402005D01*
X151146292Y-71367446D01*
X151171153Y-71337153D01*
X151201446Y-71312292D01*
X151236005Y-71293820D01*
X151273501Y-71282445D01*
X151318638Y-71278000D01*
X151957362Y-71278000D01*
X152002499Y-71282445D01*
G37*
G36*
X155812499Y-71282445D02*
G01*
X155849995Y-71293820D01*
X155884554Y-71312292D01*
X155914847Y-71337153D01*
X155939708Y-71367446D01*
X155958180Y-71402005D01*
X155969555Y-71439501D01*
X155974000Y-71484638D01*
X155974000Y-72223362D01*
X155969555Y-72268499D01*
X155958180Y-72305995D01*
X155939708Y-72340554D01*
X155914847Y-72370847D01*
X155884554Y-72395708D01*
X155849995Y-72414180D01*
X155812499Y-72425555D01*
X155767362Y-72430000D01*
X155128638Y-72430000D01*
X155083501Y-72425555D01*
X155046005Y-72414180D01*
X155011446Y-72395708D01*
X154981153Y-72370847D01*
X154956292Y-72340554D01*
X154937820Y-72305995D01*
X154926445Y-72268499D01*
X154922000Y-72223362D01*
X154922000Y-71484638D01*
X154926445Y-71439501D01*
X154937820Y-71402005D01*
X154956292Y-71367446D01*
X154981153Y-71337153D01*
X155011446Y-71312292D01*
X155046005Y-71293820D01*
X155083501Y-71282445D01*
X155128638Y-71278000D01*
X155767362Y-71278000D01*
X155812499Y-71282445D01*
G37*
G36*
X159622499Y-71282445D02*
G01*
X159659995Y-71293820D01*
X159694554Y-71312292D01*
X159724847Y-71337153D01*
X159749708Y-71367446D01*
X159768180Y-71402005D01*
X159779555Y-71439501D01*
X159784000Y-71484638D01*
X159784000Y-72223362D01*
X159779555Y-72268499D01*
X159768180Y-72305995D01*
X159749708Y-72340554D01*
X159724847Y-72370847D01*
X159694554Y-72395708D01*
X159659995Y-72414180D01*
X159622499Y-72425555D01*
X159577362Y-72430000D01*
X158938638Y-72430000D01*
X158893501Y-72425555D01*
X158856005Y-72414180D01*
X158821446Y-72395708D01*
X158791153Y-72370847D01*
X158766292Y-72340554D01*
X158747820Y-72305995D01*
X158736445Y-72268499D01*
X158732000Y-72223362D01*
X158732000Y-71484638D01*
X158736445Y-71439501D01*
X158747820Y-71402005D01*
X158766292Y-71367446D01*
X158791153Y-71337153D01*
X158821446Y-71312292D01*
X158856005Y-71293820D01*
X158893501Y-71282445D01*
X158938638Y-71278000D01*
X159577362Y-71278000D01*
X159622499Y-71282445D01*
G37*
G36*
X167242499Y-71282445D02*
G01*
X167279995Y-71293820D01*
X167314554Y-71312292D01*
X167344847Y-71337153D01*
X167369708Y-71367446D01*
X167388180Y-71402005D01*
X167399555Y-71439501D01*
X167404000Y-71484638D01*
X167404000Y-72223362D01*
X167399555Y-72268499D01*
X167388180Y-72305995D01*
X167369708Y-72340554D01*
X167344847Y-72370847D01*
X167314554Y-72395708D01*
X167279995Y-72414180D01*
X167242499Y-72425555D01*
X167197362Y-72430000D01*
X166558638Y-72430000D01*
X166513501Y-72425555D01*
X166476005Y-72414180D01*
X166441446Y-72395708D01*
X166411153Y-72370847D01*
X166386292Y-72340554D01*
X166367820Y-72305995D01*
X166356445Y-72268499D01*
X166352000Y-72223362D01*
X166352000Y-71484638D01*
X166356445Y-71439501D01*
X166367820Y-71402005D01*
X166386292Y-71367446D01*
X166411153Y-71337153D01*
X166441446Y-71312292D01*
X166476005Y-71293820D01*
X166513501Y-71282445D01*
X166558638Y-71278000D01*
X167197362Y-71278000D01*
X167242499Y-71282445D01*
G37*
G36*
X163432499Y-71282445D02*
G01*
X163469995Y-71293820D01*
X163504554Y-71312292D01*
X163534847Y-71337153D01*
X163559708Y-71367446D01*
X163578180Y-71402005D01*
X163589555Y-71439501D01*
X163594000Y-71484638D01*
X163594000Y-72223362D01*
X163589555Y-72268499D01*
X163578180Y-72305995D01*
X163559708Y-72340554D01*
X163534847Y-72370847D01*
X163504554Y-72395708D01*
X163469995Y-72414180D01*
X163432499Y-72425555D01*
X163387362Y-72430000D01*
X162748638Y-72430000D01*
X162703501Y-72425555D01*
X162666005Y-72414180D01*
X162631446Y-72395708D01*
X162601153Y-72370847D01*
X162576292Y-72340554D01*
X162557820Y-72305995D01*
X162546445Y-72268499D01*
X162542000Y-72223362D01*
X162542000Y-71484638D01*
X162546445Y-71439501D01*
X162557820Y-71402005D01*
X162576292Y-71367446D01*
X162601153Y-71337153D01*
X162631446Y-71312292D01*
X162666005Y-71293820D01*
X162703501Y-71282445D01*
X162748638Y-71278000D01*
X163387362Y-71278000D01*
X163432499Y-71282445D01*
G37*
G36*
X184147928Y-70771764D02*
G01*
X184169009Y-70778160D01*
X184188445Y-70788548D01*
X184205476Y-70802524D01*
X184219452Y-70819555D01*
X184229840Y-70838991D01*
X184236236Y-70860072D01*
X184239000Y-70888140D01*
X184239000Y-71351860D01*
X184236236Y-71379928D01*
X184229840Y-71401009D01*
X184219452Y-71420445D01*
X184205476Y-71437476D01*
X184188445Y-71451452D01*
X184169009Y-71461840D01*
X184147928Y-71468236D01*
X184119860Y-71471000D01*
X182656140Y-71471000D01*
X182628072Y-71468236D01*
X182606991Y-71461840D01*
X182587555Y-71451452D01*
X182570524Y-71437476D01*
X182556548Y-71420445D01*
X182546160Y-71401009D01*
X182539764Y-71379928D01*
X182537000Y-71351860D01*
X182537000Y-70888140D01*
X182539764Y-70860072D01*
X182546160Y-70838991D01*
X182556548Y-70819555D01*
X182570524Y-70802524D01*
X182587555Y-70788548D01*
X182606991Y-70778160D01*
X182628072Y-70771764D01*
X182656140Y-70769000D01*
X184119860Y-70769000D01*
X184147928Y-70771764D01*
G37*
G36*
X178847928Y-70771764D02*
G01*
X178869009Y-70778160D01*
X178888445Y-70788548D01*
X178905476Y-70802524D01*
X178919452Y-70819555D01*
X178929840Y-70838991D01*
X178936236Y-70860072D01*
X178939000Y-70888140D01*
X178939000Y-71351860D01*
X178936236Y-71379928D01*
X178929840Y-71401009D01*
X178919452Y-71420445D01*
X178905476Y-71437476D01*
X178888445Y-71451452D01*
X178869009Y-71461840D01*
X178847928Y-71468236D01*
X178819860Y-71471000D01*
X177356140Y-71471000D01*
X177328072Y-71468236D01*
X177306991Y-71461840D01*
X177287555Y-71451452D01*
X177270524Y-71437476D01*
X177256548Y-71420445D01*
X177246160Y-71401009D01*
X177239764Y-71379928D01*
X177237000Y-71351860D01*
X177237000Y-70888140D01*
X177239764Y-70860072D01*
X177246160Y-70838991D01*
X177256548Y-70819555D01*
X177270524Y-70802524D01*
X177287555Y-70788548D01*
X177306991Y-70778160D01*
X177328072Y-70771764D01*
X177356140Y-70769000D01*
X178819860Y-70769000D01*
X178847928Y-70771764D01*
G37*
G36*
X125713142Y-69830242D02*
G01*
X125861101Y-69891529D01*
X125994255Y-69980499D01*
X126107501Y-70093745D01*
X126196471Y-70226899D01*
X126257758Y-70374858D01*
X126289000Y-70531925D01*
X126289000Y-70692075D01*
X126257758Y-70849142D01*
X126196471Y-70997101D01*
X126107501Y-71130255D01*
X125994255Y-71243501D01*
X125861101Y-71332471D01*
X125713142Y-71393758D01*
X125556075Y-71425000D01*
X125395925Y-71425000D01*
X125238858Y-71393758D01*
X125090899Y-71332471D01*
X124957745Y-71243501D01*
X124844499Y-71130255D01*
X124755529Y-70997101D01*
X124694242Y-70849142D01*
X124663000Y-70692075D01*
X124663000Y-70531925D01*
X124694242Y-70374858D01*
X124755529Y-70226899D01*
X124844499Y-70093745D01*
X124957745Y-69980499D01*
X125090899Y-69891529D01*
X125238858Y-69830242D01*
X125395925Y-69799000D01*
X125556075Y-69799000D01*
X125713142Y-69830242D01*
G37*
G36*
X144636499Y-69560445D02*
G01*
X144673995Y-69571820D01*
X144708554Y-69590292D01*
X144738847Y-69615153D01*
X144763708Y-69645446D01*
X144782180Y-69680005D01*
X144793555Y-69717501D01*
X144798000Y-69762638D01*
X144798000Y-70501362D01*
X144793555Y-70546499D01*
X144782180Y-70583995D01*
X144763708Y-70618554D01*
X144738847Y-70648847D01*
X144708554Y-70673708D01*
X144673995Y-70692180D01*
X144636499Y-70703555D01*
X144591362Y-70708000D01*
X143952638Y-70708000D01*
X143907501Y-70703555D01*
X143870005Y-70692180D01*
X143835446Y-70673708D01*
X143805153Y-70648847D01*
X143780292Y-70618554D01*
X143761820Y-70583995D01*
X143750445Y-70546499D01*
X143746000Y-70501362D01*
X143746000Y-69762638D01*
X143750445Y-69717501D01*
X143761820Y-69680005D01*
X143780292Y-69645446D01*
X143805153Y-69615153D01*
X143835446Y-69590292D01*
X143870005Y-69571820D01*
X143907501Y-69560445D01*
X143952638Y-69556000D01*
X144591362Y-69556000D01*
X144636499Y-69560445D01*
G37*
G36*
X148192499Y-69532445D02*
G01*
X148229995Y-69543820D01*
X148264554Y-69562292D01*
X148294847Y-69587153D01*
X148319708Y-69617446D01*
X148338180Y-69652005D01*
X148349555Y-69689501D01*
X148354000Y-69734638D01*
X148354000Y-70473362D01*
X148349555Y-70518499D01*
X148338180Y-70555995D01*
X148319708Y-70590554D01*
X148294847Y-70620847D01*
X148264554Y-70645708D01*
X148229995Y-70664180D01*
X148192499Y-70675555D01*
X148147362Y-70680000D01*
X147508638Y-70680000D01*
X147463501Y-70675555D01*
X147426005Y-70664180D01*
X147391446Y-70645708D01*
X147361153Y-70620847D01*
X147336292Y-70590554D01*
X147317820Y-70555995D01*
X147306445Y-70518499D01*
X147302000Y-70473362D01*
X147302000Y-69734638D01*
X147306445Y-69689501D01*
X147317820Y-69652005D01*
X147336292Y-69617446D01*
X147361153Y-69587153D01*
X147391446Y-69562292D01*
X147426005Y-69543820D01*
X147463501Y-69532445D01*
X147508638Y-69528000D01*
X148147362Y-69528000D01*
X148192499Y-69532445D01*
G37*
G36*
X152002499Y-69532445D02*
G01*
X152039995Y-69543820D01*
X152074554Y-69562292D01*
X152104847Y-69587153D01*
X152129708Y-69617446D01*
X152148180Y-69652005D01*
X152159555Y-69689501D01*
X152164000Y-69734638D01*
X152164000Y-70473362D01*
X152159555Y-70518499D01*
X152148180Y-70555995D01*
X152129708Y-70590554D01*
X152104847Y-70620847D01*
X152074554Y-70645708D01*
X152039995Y-70664180D01*
X152002499Y-70675555D01*
X151957362Y-70680000D01*
X151318638Y-70680000D01*
X151273501Y-70675555D01*
X151236005Y-70664180D01*
X151201446Y-70645708D01*
X151171153Y-70620847D01*
X151146292Y-70590554D01*
X151127820Y-70555995D01*
X151116445Y-70518499D01*
X151112000Y-70473362D01*
X151112000Y-69734638D01*
X151116445Y-69689501D01*
X151127820Y-69652005D01*
X151146292Y-69617446D01*
X151171153Y-69587153D01*
X151201446Y-69562292D01*
X151236005Y-69543820D01*
X151273501Y-69532445D01*
X151318638Y-69528000D01*
X151957362Y-69528000D01*
X152002499Y-69532445D01*
G37*
G36*
X155812499Y-69532445D02*
G01*
X155849995Y-69543820D01*
X155884554Y-69562292D01*
X155914847Y-69587153D01*
X155939708Y-69617446D01*
X155958180Y-69652005D01*
X155969555Y-69689501D01*
X155974000Y-69734638D01*
X155974000Y-70473362D01*
X155969555Y-70518499D01*
X155958180Y-70555995D01*
X155939708Y-70590554D01*
X155914847Y-70620847D01*
X155884554Y-70645708D01*
X155849995Y-70664180D01*
X155812499Y-70675555D01*
X155767362Y-70680000D01*
X155128638Y-70680000D01*
X155083501Y-70675555D01*
X155046005Y-70664180D01*
X155011446Y-70645708D01*
X154981153Y-70620847D01*
X154956292Y-70590554D01*
X154937820Y-70555995D01*
X154926445Y-70518499D01*
X154922000Y-70473362D01*
X154922000Y-69734638D01*
X154926445Y-69689501D01*
X154937820Y-69652005D01*
X154956292Y-69617446D01*
X154981153Y-69587153D01*
X155011446Y-69562292D01*
X155046005Y-69543820D01*
X155083501Y-69532445D01*
X155128638Y-69528000D01*
X155767362Y-69528000D01*
X155812499Y-69532445D01*
G37*
G36*
X167242499Y-69532445D02*
G01*
X167279995Y-69543820D01*
X167314554Y-69562292D01*
X167344847Y-69587153D01*
X167369708Y-69617446D01*
X167388180Y-69652005D01*
X167399555Y-69689501D01*
X167404000Y-69734638D01*
X167404000Y-70473362D01*
X167399555Y-70518499D01*
X167388180Y-70555995D01*
X167369708Y-70590554D01*
X167344847Y-70620847D01*
X167314554Y-70645708D01*
X167279995Y-70664180D01*
X167242499Y-70675555D01*
X167197362Y-70680000D01*
X166558638Y-70680000D01*
X166513501Y-70675555D01*
X166476005Y-70664180D01*
X166441446Y-70645708D01*
X166411153Y-70620847D01*
X166386292Y-70590554D01*
X166367820Y-70555995D01*
X166356445Y-70518499D01*
X166352000Y-70473362D01*
X166352000Y-69734638D01*
X166356445Y-69689501D01*
X166367820Y-69652005D01*
X166386292Y-69617446D01*
X166411153Y-69587153D01*
X166441446Y-69562292D01*
X166476005Y-69543820D01*
X166513501Y-69532445D01*
X166558638Y-69528000D01*
X167197362Y-69528000D01*
X167242499Y-69532445D01*
G37*
G36*
X163432499Y-69532445D02*
G01*
X163469995Y-69543820D01*
X163504554Y-69562292D01*
X163534847Y-69587153D01*
X163559708Y-69617446D01*
X163578180Y-69652005D01*
X163589555Y-69689501D01*
X163594000Y-69734638D01*
X163594000Y-70473362D01*
X163589555Y-70518499D01*
X163578180Y-70555995D01*
X163559708Y-70590554D01*
X163534847Y-70620847D01*
X163504554Y-70645708D01*
X163469995Y-70664180D01*
X163432499Y-70675555D01*
X163387362Y-70680000D01*
X162748638Y-70680000D01*
X162703501Y-70675555D01*
X162666005Y-70664180D01*
X162631446Y-70645708D01*
X162601153Y-70620847D01*
X162576292Y-70590554D01*
X162557820Y-70555995D01*
X162546445Y-70518499D01*
X162542000Y-70473362D01*
X162542000Y-69734638D01*
X162546445Y-69689501D01*
X162557820Y-69652005D01*
X162576292Y-69617446D01*
X162601153Y-69587153D01*
X162631446Y-69562292D01*
X162666005Y-69543820D01*
X162703501Y-69532445D01*
X162748638Y-69528000D01*
X163387362Y-69528000D01*
X163432499Y-69532445D01*
G37*
G36*
X159622499Y-69532445D02*
G01*
X159659995Y-69543820D01*
X159694554Y-69562292D01*
X159724847Y-69587153D01*
X159749708Y-69617446D01*
X159768180Y-69652005D01*
X159779555Y-69689501D01*
X159784000Y-69734638D01*
X159784000Y-70473362D01*
X159779555Y-70518499D01*
X159768180Y-70555995D01*
X159749708Y-70590554D01*
X159724847Y-70620847D01*
X159694554Y-70645708D01*
X159659995Y-70664180D01*
X159622499Y-70675555D01*
X159577362Y-70680000D01*
X158938638Y-70680000D01*
X158893501Y-70675555D01*
X158856005Y-70664180D01*
X158821446Y-70645708D01*
X158791153Y-70620847D01*
X158766292Y-70590554D01*
X158747820Y-70555995D01*
X158736445Y-70518499D01*
X158732000Y-70473362D01*
X158732000Y-69734638D01*
X158736445Y-69689501D01*
X158747820Y-69652005D01*
X158766292Y-69617446D01*
X158791153Y-69587153D01*
X158821446Y-69562292D01*
X158856005Y-69543820D01*
X158893501Y-69532445D01*
X158938638Y-69528000D01*
X159577362Y-69528000D01*
X159622499Y-69532445D01*
G37*
G36*
X198384039Y-66112250D02*
G01*
X198496287Y-66158745D01*
X198707251Y-66246129D01*
X198998134Y-66440491D01*
X199245509Y-66687866D01*
X199439871Y-66978749D01*
X199439871Y-66978750D01*
X199573750Y-67301961D01*
X199642000Y-67645078D01*
X199642000Y-67994922D01*
X199573750Y-68338039D01*
X199495325Y-68527372D01*
X199439871Y-68661251D01*
X199245509Y-68952134D01*
X198998134Y-69199509D01*
X198707251Y-69393871D01*
X198573372Y-69449325D01*
X198384039Y-69527750D01*
X198040922Y-69596000D01*
X197691078Y-69596000D01*
X197347961Y-69527750D01*
X197158628Y-69449325D01*
X197024749Y-69393871D01*
X196733866Y-69199509D01*
X196486491Y-68952134D01*
X196292129Y-68661251D01*
X196236675Y-68527372D01*
X196158250Y-68338039D01*
X196090000Y-67994922D01*
X196090000Y-67645078D01*
X196158250Y-67301961D01*
X196292129Y-66978750D01*
X196292129Y-66978749D01*
X196486491Y-66687866D01*
X196733866Y-66440491D01*
X197024749Y-66246129D01*
X197235713Y-66158745D01*
X197347961Y-66112250D01*
X197691078Y-66044000D01*
X198040922Y-66044000D01*
X198384039Y-66112250D01*
G37*
G36*
X125713142Y-67290242D02*
G01*
X125861101Y-67351529D01*
X125994255Y-67440499D01*
X126107501Y-67553745D01*
X126196471Y-67686899D01*
X126257758Y-67834858D01*
X126289000Y-67991925D01*
X126289000Y-68152075D01*
X126257758Y-68309142D01*
X126196471Y-68457101D01*
X126107501Y-68590255D01*
X125994255Y-68703501D01*
X125861101Y-68792471D01*
X125713142Y-68853758D01*
X125556075Y-68885000D01*
X125395925Y-68885000D01*
X125238858Y-68853758D01*
X125090899Y-68792471D01*
X124957745Y-68703501D01*
X124844499Y-68590255D01*
X124755529Y-68457101D01*
X124694242Y-68309142D01*
X124663000Y-68152075D01*
X124663000Y-67991925D01*
X124694242Y-67834858D01*
X124755529Y-67686899D01*
X124844499Y-67553745D01*
X124957745Y-67440499D01*
X125090899Y-67351529D01*
X125238858Y-67290242D01*
X125395925Y-67259000D01*
X125556075Y-67259000D01*
X125713142Y-67290242D01*
G37*
G36*
X189467142Y-65895242D02*
G01*
X189615101Y-65956529D01*
X189748255Y-66045499D01*
X189861501Y-66158745D01*
X189950471Y-66291899D01*
X190011758Y-66439858D01*
X190043000Y-66596925D01*
X190043000Y-66757075D01*
X190011758Y-66914142D01*
X189950471Y-67062101D01*
X189861501Y-67195255D01*
X189748255Y-67308501D01*
X189615101Y-67397471D01*
X189467142Y-67458758D01*
X189310075Y-67490000D01*
X189149925Y-67490000D01*
X188992858Y-67458758D01*
X188844899Y-67397471D01*
X188711745Y-67308501D01*
X188598499Y-67195255D01*
X188509529Y-67062101D01*
X188448242Y-66914142D01*
X188417000Y-66757075D01*
X188417000Y-66596925D01*
X188448242Y-66439858D01*
X188509529Y-66291899D01*
X188598499Y-66158745D01*
X188711745Y-66045499D01*
X188844899Y-65956529D01*
X188992858Y-65895242D01*
X189149925Y-65864000D01*
X189310075Y-65864000D01*
X189467142Y-65895242D01*
G37*
G36*
X125713142Y-64750242D02*
G01*
X125861101Y-64811529D01*
X125994255Y-64900499D01*
X126107501Y-65013745D01*
X126196471Y-65146899D01*
X126257758Y-65294858D01*
X126289000Y-65451925D01*
X126289000Y-65612075D01*
X126257758Y-65769142D01*
X126196471Y-65917101D01*
X126107501Y-66050255D01*
X125994255Y-66163501D01*
X125861101Y-66252471D01*
X125713142Y-66313758D01*
X125556075Y-66345000D01*
X125395925Y-66345000D01*
X125238858Y-66313758D01*
X125090899Y-66252471D01*
X124957745Y-66163501D01*
X124844499Y-66050255D01*
X124755529Y-65917101D01*
X124694242Y-65769142D01*
X124663000Y-65612075D01*
X124663000Y-65451925D01*
X124694242Y-65294858D01*
X124755529Y-65146899D01*
X124844499Y-65013745D01*
X124957745Y-64900499D01*
X125090899Y-64811529D01*
X125238858Y-64750242D01*
X125395925Y-64719000D01*
X125556075Y-64719000D01*
X125713142Y-64750242D01*
G37*
G36*
X121776499Y-64960445D02*
G01*
X121813995Y-64971820D01*
X121848554Y-64990292D01*
X121878847Y-65015153D01*
X121903708Y-65045446D01*
X121922180Y-65080005D01*
X121933555Y-65117501D01*
X121938000Y-65162638D01*
X121938000Y-65901362D01*
X121933555Y-65946499D01*
X121922180Y-65983995D01*
X121903708Y-66018554D01*
X121878847Y-66048847D01*
X121848554Y-66073708D01*
X121813995Y-66092180D01*
X121776499Y-66103555D01*
X121731362Y-66108000D01*
X121092638Y-66108000D01*
X121047501Y-66103555D01*
X121010005Y-66092180D01*
X120975446Y-66073708D01*
X120945153Y-66048847D01*
X120920292Y-66018554D01*
X120901820Y-65983995D01*
X120890445Y-65946499D01*
X120886000Y-65901362D01*
X120886000Y-65162638D01*
X120890445Y-65117501D01*
X120901820Y-65080005D01*
X120920292Y-65045446D01*
X120945153Y-65015153D01*
X120975446Y-64990292D01*
X121010005Y-64971820D01*
X121047501Y-64960445D01*
X121092638Y-64956000D01*
X121731362Y-64956000D01*
X121776499Y-64960445D01*
G37*
G36*
X150411000Y-65467000D02*
G01*
X149309000Y-65467000D01*
X149309000Y-63565000D01*
X150411000Y-63565000D01*
X150411000Y-65467000D01*
G37*
G36*
X147911000Y-65467000D02*
G01*
X146809000Y-65467000D01*
X146809000Y-63565000D01*
X147911000Y-63565000D01*
X147911000Y-65467000D01*
G37*
G36*
X189467142Y-63355242D02*
G01*
X189615101Y-63416529D01*
X189748255Y-63505499D01*
X189861501Y-63618745D01*
X189950471Y-63751899D01*
X190011758Y-63899858D01*
X190043000Y-64056925D01*
X190043000Y-64217075D01*
X190011758Y-64374142D01*
X189950471Y-64522101D01*
X189861501Y-64655255D01*
X189748255Y-64768501D01*
X189615101Y-64857471D01*
X189467142Y-64918758D01*
X189310075Y-64950000D01*
X189149925Y-64950000D01*
X188992858Y-64918758D01*
X188844899Y-64857471D01*
X188711745Y-64768501D01*
X188598499Y-64655255D01*
X188509529Y-64522101D01*
X188448242Y-64374142D01*
X188417000Y-64217075D01*
X188417000Y-64056925D01*
X188448242Y-63899858D01*
X188509529Y-63751899D01*
X188598499Y-63618745D01*
X188711745Y-63505499D01*
X188844899Y-63416529D01*
X188992858Y-63355242D01*
X189149925Y-63324000D01*
X189310075Y-63324000D01*
X189467142Y-63355242D01*
G37*
G36*
X198388039Y-61284250D02*
G01*
X198577372Y-61362675D01*
X198711251Y-61418129D01*
X199002134Y-61612491D01*
X199249509Y-61859866D01*
X199443871Y-62150749D01*
X199443871Y-62150750D01*
X199577750Y-62473961D01*
X199646000Y-62817078D01*
X199646000Y-63166922D01*
X199577750Y-63510039D01*
X199554984Y-63565000D01*
X199443871Y-63833251D01*
X199249509Y-64124134D01*
X199002134Y-64371509D01*
X198711251Y-64565871D01*
X198577372Y-64621325D01*
X198388039Y-64699750D01*
X198044922Y-64768000D01*
X197695078Y-64768000D01*
X197351961Y-64699750D01*
X197162628Y-64621325D01*
X197028749Y-64565871D01*
X196737866Y-64371509D01*
X196490491Y-64124134D01*
X196296129Y-63833251D01*
X196185016Y-63565000D01*
X196162250Y-63510039D01*
X196094000Y-63166922D01*
X196094000Y-62817078D01*
X196162250Y-62473961D01*
X196296129Y-62150750D01*
X196296129Y-62150749D01*
X196490491Y-61859866D01*
X196737866Y-61612491D01*
X197028749Y-61418129D01*
X197162628Y-61362675D01*
X197351961Y-61284250D01*
X197695078Y-61216000D01*
X198044922Y-61216000D01*
X198388039Y-61284250D01*
G37*
G36*
X109144000Y-64567000D02*
G01*
X102692000Y-64567000D01*
X102692000Y-61925000D01*
X109144000Y-61925000D01*
X109144000Y-64567000D01*
G37*
G36*
X121776499Y-63210445D02*
G01*
X121813995Y-63221820D01*
X121848554Y-63240292D01*
X121878847Y-63265153D01*
X121903708Y-63295446D01*
X121922180Y-63330005D01*
X121933555Y-63367501D01*
X121938000Y-63412638D01*
X121938000Y-64151362D01*
X121933555Y-64196499D01*
X121922180Y-64233995D01*
X121903708Y-64268554D01*
X121878847Y-64298847D01*
X121848554Y-64323708D01*
X121813995Y-64342180D01*
X121776499Y-64353555D01*
X121731362Y-64358000D01*
X121092638Y-64358000D01*
X121047501Y-64353555D01*
X121010005Y-64342180D01*
X120975446Y-64323708D01*
X120945153Y-64298847D01*
X120920292Y-64268554D01*
X120901820Y-64233995D01*
X120890445Y-64196499D01*
X120886000Y-64151362D01*
X120886000Y-63412638D01*
X120890445Y-63367501D01*
X120901820Y-63330005D01*
X120920292Y-63295446D01*
X120945153Y-63265153D01*
X120975446Y-63240292D01*
X121010005Y-63221820D01*
X121047501Y-63210445D01*
X121092638Y-63206000D01*
X121731362Y-63206000D01*
X121776499Y-63210445D01*
G37*
G36*
X150119928Y-60633764D02*
G01*
X150141009Y-60640160D01*
X150160445Y-60650548D01*
X150177476Y-60664524D01*
X150191452Y-60681555D01*
X150201840Y-60700991D01*
X150208236Y-60722072D01*
X150211000Y-60750140D01*
X150211000Y-62563860D01*
X150208236Y-62591928D01*
X150201840Y-62613009D01*
X150191452Y-62632445D01*
X150177476Y-62649476D01*
X150160445Y-62663452D01*
X150141009Y-62673840D01*
X150119928Y-62680236D01*
X150091860Y-62683000D01*
X149628140Y-62683000D01*
X149600072Y-62680236D01*
X149578991Y-62673840D01*
X149559555Y-62663452D01*
X149542524Y-62649476D01*
X149528548Y-62632445D01*
X149518160Y-62613009D01*
X149511764Y-62591928D01*
X149509000Y-62563860D01*
X149509000Y-60750140D01*
X149511764Y-60722072D01*
X149518160Y-60700991D01*
X149528548Y-60681555D01*
X149542524Y-60664524D01*
X149559555Y-60650548D01*
X149578991Y-60640160D01*
X149600072Y-60633764D01*
X149628140Y-60631000D01*
X150091860Y-60631000D01*
X150119928Y-60633764D01*
G37*
G36*
X152659928Y-60633764D02*
G01*
X152681009Y-60640160D01*
X152700445Y-60650548D01*
X152717476Y-60664524D01*
X152731452Y-60681555D01*
X152741840Y-60700991D01*
X152748236Y-60722072D01*
X152751000Y-60750140D01*
X152751000Y-62563860D01*
X152748236Y-62591928D01*
X152741840Y-62613009D01*
X152731452Y-62632445D01*
X152717476Y-62649476D01*
X152700445Y-62663452D01*
X152681009Y-62673840D01*
X152659928Y-62680236D01*
X152631860Y-62683000D01*
X152168140Y-62683000D01*
X152140072Y-62680236D01*
X152118991Y-62673840D01*
X152099555Y-62663452D01*
X152082524Y-62649476D01*
X152068548Y-62632445D01*
X152058160Y-62613009D01*
X152051764Y-62591928D01*
X152049000Y-62563860D01*
X152049000Y-60750140D01*
X152051764Y-60722072D01*
X152058160Y-60700991D01*
X152068548Y-60681555D01*
X152082524Y-60664524D01*
X152099555Y-60650548D01*
X152118991Y-60640160D01*
X152140072Y-60633764D01*
X152168140Y-60631000D01*
X152631860Y-60631000D01*
X152659928Y-60633764D01*
G37*
G36*
X151389928Y-60633764D02*
G01*
X151411009Y-60640160D01*
X151430445Y-60650548D01*
X151447476Y-60664524D01*
X151461452Y-60681555D01*
X151471840Y-60700991D01*
X151478236Y-60722072D01*
X151481000Y-60750140D01*
X151481000Y-62563860D01*
X151478236Y-62591928D01*
X151471840Y-62613009D01*
X151461452Y-62632445D01*
X151447476Y-62649476D01*
X151430445Y-62663452D01*
X151411009Y-62673840D01*
X151389928Y-62680236D01*
X151361860Y-62683000D01*
X150898140Y-62683000D01*
X150870072Y-62680236D01*
X150848991Y-62673840D01*
X150829555Y-62663452D01*
X150812524Y-62649476D01*
X150798548Y-62632445D01*
X150788160Y-62613009D01*
X150781764Y-62591928D01*
X150779000Y-62563860D01*
X150779000Y-60750140D01*
X150781764Y-60722072D01*
X150788160Y-60700991D01*
X150798548Y-60681555D01*
X150812524Y-60664524D01*
X150829555Y-60650548D01*
X150848991Y-60640160D01*
X150870072Y-60633764D01*
X150898140Y-60631000D01*
X151361860Y-60631000D01*
X151389928Y-60633764D01*
G37*
G36*
X148849928Y-60633764D02*
G01*
X148871009Y-60640160D01*
X148890445Y-60650548D01*
X148907476Y-60664524D01*
X148921452Y-60681555D01*
X148931840Y-60700991D01*
X148938236Y-60722072D01*
X148941000Y-60750140D01*
X148941000Y-62563860D01*
X148938236Y-62591928D01*
X148931840Y-62613009D01*
X148921452Y-62632445D01*
X148907476Y-62649476D01*
X148890445Y-62663452D01*
X148871009Y-62673840D01*
X148849928Y-62680236D01*
X148821860Y-62683000D01*
X148358140Y-62683000D01*
X148330072Y-62680236D01*
X148308991Y-62673840D01*
X148289555Y-62663452D01*
X148272524Y-62649476D01*
X148258548Y-62632445D01*
X148248160Y-62613009D01*
X148241764Y-62591928D01*
X148239000Y-62563860D01*
X148239000Y-60750140D01*
X148241764Y-60722072D01*
X148248160Y-60700991D01*
X148258548Y-60681555D01*
X148272524Y-60664524D01*
X148289555Y-60650548D01*
X148308991Y-60640160D01*
X148330072Y-60633764D01*
X148358140Y-60631000D01*
X148821860Y-60631000D01*
X148849928Y-60633764D01*
G37*
G36*
X106919008Y-50593590D02*
G01*
X107414658Y-50692181D01*
X108348440Y-51078967D01*
X109188822Y-51640492D01*
X109903508Y-52355178D01*
X110465033Y-53195560D01*
X110851819Y-54129342D01*
X110851819Y-54129344D01*
X111049000Y-55120639D01*
X111049000Y-56131361D01*
X111022397Y-56265101D01*
X110851819Y-57122658D01*
X110465033Y-58056440D01*
X109903508Y-58896822D01*
X109188822Y-59611508D01*
X108348440Y-60173033D01*
X107414658Y-60559819D01*
X107010755Y-60640160D01*
X106423361Y-60757000D01*
X105412639Y-60757000D01*
X104825245Y-60640160D01*
X104421342Y-60559819D01*
X103487560Y-60173033D01*
X102647178Y-59611508D01*
X101932492Y-58896822D01*
X101370967Y-58056440D01*
X100984181Y-57122658D01*
X100813603Y-56265101D01*
X100787000Y-56131361D01*
X100787000Y-55120639D01*
X100984181Y-54129344D01*
X100984181Y-54129342D01*
X101370967Y-53195560D01*
X101932492Y-52355178D01*
X102647178Y-51640492D01*
X103487560Y-51078967D01*
X104421342Y-50692181D01*
X104916992Y-50593590D01*
X105412639Y-50495000D01*
X106423361Y-50495000D01*
X106919008Y-50593590D01*
G37*
G36*
X150119928Y-55683764D02*
G01*
X150141009Y-55690160D01*
X150160445Y-55700548D01*
X150177476Y-55714524D01*
X150191452Y-55731555D01*
X150201840Y-55750991D01*
X150208236Y-55772072D01*
X150211000Y-55800140D01*
X150211000Y-57613860D01*
X150208236Y-57641928D01*
X150201840Y-57663009D01*
X150191452Y-57682445D01*
X150177476Y-57699476D01*
X150160445Y-57713452D01*
X150141009Y-57723840D01*
X150119928Y-57730236D01*
X150091860Y-57733000D01*
X149628140Y-57733000D01*
X149600072Y-57730236D01*
X149578991Y-57723840D01*
X149559555Y-57713452D01*
X149542524Y-57699476D01*
X149528548Y-57682445D01*
X149518160Y-57663009D01*
X149511764Y-57641928D01*
X149509000Y-57613860D01*
X149509000Y-55800140D01*
X149511764Y-55772072D01*
X149518160Y-55750991D01*
X149528548Y-55731555D01*
X149542524Y-55714524D01*
X149559555Y-55700548D01*
X149578991Y-55690160D01*
X149600072Y-55683764D01*
X149628140Y-55681000D01*
X150091860Y-55681000D01*
X150119928Y-55683764D01*
G37*
G36*
X151389928Y-55683764D02*
G01*
X151411009Y-55690160D01*
X151430445Y-55700548D01*
X151447476Y-55714524D01*
X151461452Y-55731555D01*
X151471840Y-55750991D01*
X151478236Y-55772072D01*
X151481000Y-55800140D01*
X151481000Y-57613860D01*
X151478236Y-57641928D01*
X151471840Y-57663009D01*
X151461452Y-57682445D01*
X151447476Y-57699476D01*
X151430445Y-57713452D01*
X151411009Y-57723840D01*
X151389928Y-57730236D01*
X151361860Y-57733000D01*
X150898140Y-57733000D01*
X150870072Y-57730236D01*
X150848991Y-57723840D01*
X150829555Y-57713452D01*
X150812524Y-57699476D01*
X150798548Y-57682445D01*
X150788160Y-57663009D01*
X150781764Y-57641928D01*
X150779000Y-57613860D01*
X150779000Y-55800140D01*
X150781764Y-55772072D01*
X150788160Y-55750991D01*
X150798548Y-55731555D01*
X150812524Y-55714524D01*
X150829555Y-55700548D01*
X150848991Y-55690160D01*
X150870072Y-55683764D01*
X150898140Y-55681000D01*
X151361860Y-55681000D01*
X151389928Y-55683764D01*
G37*
G36*
X152659928Y-55683764D02*
G01*
X152681009Y-55690160D01*
X152700445Y-55700548D01*
X152717476Y-55714524D01*
X152731452Y-55731555D01*
X152741840Y-55750991D01*
X152748236Y-55772072D01*
X152751000Y-55800140D01*
X152751000Y-57613860D01*
X152748236Y-57641928D01*
X152741840Y-57663009D01*
X152731452Y-57682445D01*
X152717476Y-57699476D01*
X152700445Y-57713452D01*
X152681009Y-57723840D01*
X152659928Y-57730236D01*
X152631860Y-57733000D01*
X152168140Y-57733000D01*
X152140072Y-57730236D01*
X152118991Y-57723840D01*
X152099555Y-57713452D01*
X152082524Y-57699476D01*
X152068548Y-57682445D01*
X152058160Y-57663009D01*
X152051764Y-57641928D01*
X152049000Y-57613860D01*
X152049000Y-55800140D01*
X152051764Y-55772072D01*
X152058160Y-55750991D01*
X152068548Y-55731555D01*
X152082524Y-55714524D01*
X152099555Y-55700548D01*
X152118991Y-55690160D01*
X152140072Y-55683764D01*
X152168140Y-55681000D01*
X152631860Y-55681000D01*
X152659928Y-55683764D01*
G37*
G36*
X148849928Y-55683764D02*
G01*
X148871009Y-55690160D01*
X148890445Y-55700548D01*
X148907476Y-55714524D01*
X148921452Y-55731555D01*
X148931840Y-55750991D01*
X148938236Y-55772072D01*
X148941000Y-55800140D01*
X148941000Y-57613860D01*
X148938236Y-57641928D01*
X148931840Y-57663009D01*
X148921452Y-57682445D01*
X148907476Y-57699476D01*
X148890445Y-57713452D01*
X148871009Y-57723840D01*
X148849928Y-57730236D01*
X148821860Y-57733000D01*
X148358140Y-57733000D01*
X148330072Y-57730236D01*
X148308991Y-57723840D01*
X148289555Y-57713452D01*
X148272524Y-57699476D01*
X148258548Y-57682445D01*
X148248160Y-57663009D01*
X148241764Y-57641928D01*
X148239000Y-57613860D01*
X148239000Y-55800140D01*
X148241764Y-55772072D01*
X148248160Y-55750991D01*
X148258548Y-55731555D01*
X148272524Y-55714524D01*
X148289555Y-55700548D01*
X148308991Y-55690160D01*
X148330072Y-55683764D01*
X148358140Y-55681000D01*
X148821860Y-55681000D01*
X148849928Y-55683764D01*
G37*
G36*
X130793142Y-55098242D02*
G01*
X130941101Y-55159529D01*
X131074255Y-55248499D01*
X131187501Y-55361745D01*
X131276471Y-55494899D01*
X131337758Y-55642858D01*
X131369000Y-55799925D01*
X131369000Y-55960075D01*
X131337758Y-56117142D01*
X131276471Y-56265101D01*
X131187501Y-56398255D01*
X131074255Y-56511501D01*
X130941101Y-56600471D01*
X130793142Y-56661758D01*
X130636075Y-56693000D01*
X130475925Y-56693000D01*
X130318858Y-56661758D01*
X130170899Y-56600471D01*
X130037745Y-56511501D01*
X129924499Y-56398255D01*
X129835529Y-56265101D01*
X129774242Y-56117142D01*
X129743000Y-55960075D01*
X129743000Y-55799925D01*
X129774242Y-55642858D01*
X129835529Y-55494899D01*
X129924499Y-55361745D01*
X130037745Y-55248499D01*
X130170899Y-55159529D01*
X130318858Y-55098242D01*
X130475925Y-55067000D01*
X130636075Y-55067000D01*
X130793142Y-55098242D01*
G37*
G36*
X128253142Y-55098242D02*
G01*
X128401101Y-55159529D01*
X128534255Y-55248499D01*
X128647501Y-55361745D01*
X128736471Y-55494899D01*
X128797758Y-55642858D01*
X128829000Y-55799925D01*
X128829000Y-55960075D01*
X128797758Y-56117142D01*
X128736471Y-56265101D01*
X128647501Y-56398255D01*
X128534255Y-56511501D01*
X128401101Y-56600471D01*
X128253142Y-56661758D01*
X128096075Y-56693000D01*
X127935925Y-56693000D01*
X127778858Y-56661758D01*
X127630899Y-56600471D01*
X127497745Y-56511501D01*
X127384499Y-56398255D01*
X127295529Y-56265101D01*
X127234242Y-56117142D01*
X127203000Y-55960075D01*
X127203000Y-55799925D01*
X127234242Y-55642858D01*
X127295529Y-55494899D01*
X127384499Y-55361745D01*
X127497745Y-55248499D01*
X127630899Y-55159529D01*
X127778858Y-55098242D01*
X127935925Y-55067000D01*
X128096075Y-55067000D01*
X128253142Y-55098242D01*
G37*
G36*
X125713142Y-55098242D02*
G01*
X125861101Y-55159529D01*
X125994255Y-55248499D01*
X126107501Y-55361745D01*
X126196471Y-55494899D01*
X126257758Y-55642858D01*
X126289000Y-55799925D01*
X126289000Y-55960075D01*
X126257758Y-56117142D01*
X126196471Y-56265101D01*
X126107501Y-56398255D01*
X125994255Y-56511501D01*
X125861101Y-56600471D01*
X125713142Y-56661758D01*
X125556075Y-56693000D01*
X125395925Y-56693000D01*
X125238858Y-56661758D01*
X125090899Y-56600471D01*
X124957745Y-56511501D01*
X124844499Y-56398255D01*
X124755529Y-56265101D01*
X124694242Y-56117142D01*
X124663000Y-55960075D01*
X124663000Y-55799925D01*
X124694242Y-55642858D01*
X124755529Y-55494899D01*
X124844499Y-55361745D01*
X124957745Y-55248499D01*
X125090899Y-55159529D01*
X125238858Y-55098242D01*
X125395925Y-55067000D01*
X125556075Y-55067000D01*
X125713142Y-55098242D01*
G37*
G36*
X149004499Y-53834445D02*
G01*
X149041995Y-53845820D01*
X149076554Y-53864292D01*
X149106847Y-53889153D01*
X149131708Y-53919446D01*
X149150180Y-53954005D01*
X149161555Y-53991501D01*
X149166000Y-54036638D01*
X149166000Y-54675362D01*
X149161555Y-54720499D01*
X149150180Y-54757995D01*
X149131708Y-54792554D01*
X149106847Y-54822847D01*
X149076554Y-54847708D01*
X149041995Y-54866180D01*
X149004499Y-54877555D01*
X148959362Y-54882000D01*
X148220638Y-54882000D01*
X148175501Y-54877555D01*
X148138005Y-54866180D01*
X148103446Y-54847708D01*
X148073153Y-54822847D01*
X148048292Y-54792554D01*
X148029820Y-54757995D01*
X148018445Y-54720499D01*
X148014000Y-54675362D01*
X148014000Y-54036638D01*
X148018445Y-53991501D01*
X148029820Y-53954005D01*
X148048292Y-53919446D01*
X148073153Y-53889153D01*
X148103446Y-53864292D01*
X148138005Y-53845820D01*
X148175501Y-53834445D01*
X148220638Y-53830000D01*
X148959362Y-53830000D01*
X149004499Y-53834445D01*
G37*
G36*
X144968499Y-53834445D02*
G01*
X145005995Y-53845820D01*
X145040554Y-53864292D01*
X145070847Y-53889153D01*
X145095708Y-53919446D01*
X145114180Y-53954005D01*
X145125555Y-53991501D01*
X145130000Y-54036638D01*
X145130000Y-54675362D01*
X145125555Y-54720499D01*
X145114180Y-54757995D01*
X145095708Y-54792554D01*
X145070847Y-54822847D01*
X145040554Y-54847708D01*
X145005995Y-54866180D01*
X144968499Y-54877555D01*
X144923362Y-54882000D01*
X144184638Y-54882000D01*
X144139501Y-54877555D01*
X144102005Y-54866180D01*
X144067446Y-54847708D01*
X144037153Y-54822847D01*
X144012292Y-54792554D01*
X143993820Y-54757995D01*
X143982445Y-54720499D01*
X143978000Y-54675362D01*
X143978000Y-54036638D01*
X143982445Y-53991501D01*
X143993820Y-53954005D01*
X144012292Y-53919446D01*
X144037153Y-53889153D01*
X144067446Y-53864292D01*
X144102005Y-53845820D01*
X144139501Y-53834445D01*
X144184638Y-53830000D01*
X144923362Y-53830000D01*
X144968499Y-53834445D01*
G37*
G36*
X146718499Y-53834445D02*
G01*
X146755995Y-53845820D01*
X146790554Y-53864292D01*
X146820847Y-53889153D01*
X146845708Y-53919446D01*
X146864180Y-53954005D01*
X146875555Y-53991501D01*
X146880000Y-54036638D01*
X146880000Y-54675362D01*
X146875555Y-54720499D01*
X146864180Y-54757995D01*
X146845708Y-54792554D01*
X146820847Y-54822847D01*
X146790554Y-54847708D01*
X146755995Y-54866180D01*
X146718499Y-54877555D01*
X146673362Y-54882000D01*
X145934638Y-54882000D01*
X145889501Y-54877555D01*
X145852005Y-54866180D01*
X145817446Y-54847708D01*
X145787153Y-54822847D01*
X145762292Y-54792554D01*
X145743820Y-54757995D01*
X145732445Y-54720499D01*
X145728000Y-54675362D01*
X145728000Y-54036638D01*
X145732445Y-53991501D01*
X145743820Y-53954005D01*
X145762292Y-53919446D01*
X145787153Y-53889153D01*
X145817446Y-53864292D01*
X145852005Y-53845820D01*
X145889501Y-53834445D01*
X145934638Y-53830000D01*
X146673362Y-53830000D01*
X146718499Y-53834445D01*
G37*
G36*
X150754499Y-53834445D02*
G01*
X150791995Y-53845820D01*
X150826554Y-53864292D01*
X150856847Y-53889153D01*
X150881708Y-53919446D01*
X150900180Y-53954005D01*
X150911555Y-53991501D01*
X150916000Y-54036638D01*
X150916000Y-54675362D01*
X150911555Y-54720499D01*
X150900180Y-54757995D01*
X150881708Y-54792554D01*
X150856847Y-54822847D01*
X150826554Y-54847708D01*
X150791995Y-54866180D01*
X150754499Y-54877555D01*
X150709362Y-54882000D01*
X149970638Y-54882000D01*
X149925501Y-54877555D01*
X149888005Y-54866180D01*
X149853446Y-54847708D01*
X149823153Y-54822847D01*
X149798292Y-54792554D01*
X149779820Y-54757995D01*
X149768445Y-54720499D01*
X149764000Y-54675362D01*
X149764000Y-54036638D01*
X149768445Y-53991501D01*
X149779820Y-53954005D01*
X149798292Y-53919446D01*
X149823153Y-53889153D01*
X149853446Y-53864292D01*
X149888005Y-53845820D01*
X149925501Y-53834445D01*
X149970638Y-53830000D01*
X150709362Y-53830000D01*
X150754499Y-53834445D01*
G37*
G36*
X149004499Y-52056445D02*
G01*
X149041995Y-52067820D01*
X149076554Y-52086292D01*
X149106847Y-52111153D01*
X149131708Y-52141446D01*
X149150180Y-52176005D01*
X149161555Y-52213501D01*
X149166000Y-52258638D01*
X149166000Y-52897362D01*
X149161555Y-52942499D01*
X149150180Y-52979995D01*
X149131708Y-53014554D01*
X149106847Y-53044847D01*
X149076554Y-53069708D01*
X149041995Y-53088180D01*
X149004499Y-53099555D01*
X148959362Y-53104000D01*
X148220638Y-53104000D01*
X148175501Y-53099555D01*
X148138005Y-53088180D01*
X148103446Y-53069708D01*
X148073153Y-53044847D01*
X148048292Y-53014554D01*
X148029820Y-52979995D01*
X148018445Y-52942499D01*
X148014000Y-52897362D01*
X148014000Y-52258638D01*
X148018445Y-52213501D01*
X148029820Y-52176005D01*
X148048292Y-52141446D01*
X148073153Y-52111153D01*
X148103446Y-52086292D01*
X148138005Y-52067820D01*
X148175501Y-52056445D01*
X148220638Y-52052000D01*
X148959362Y-52052000D01*
X149004499Y-52056445D01*
G37*
G36*
X150754499Y-52056445D02*
G01*
X150791995Y-52067820D01*
X150826554Y-52086292D01*
X150856847Y-52111153D01*
X150881708Y-52141446D01*
X150900180Y-52176005D01*
X150911555Y-52213501D01*
X150916000Y-52258638D01*
X150916000Y-52897362D01*
X150911555Y-52942499D01*
X150900180Y-52979995D01*
X150881708Y-53014554D01*
X150856847Y-53044847D01*
X150826554Y-53069708D01*
X150791995Y-53088180D01*
X150754499Y-53099555D01*
X150709362Y-53104000D01*
X149970638Y-53104000D01*
X149925501Y-53099555D01*
X149888005Y-53088180D01*
X149853446Y-53069708D01*
X149823153Y-53044847D01*
X149798292Y-53014554D01*
X149779820Y-52979995D01*
X149768445Y-52942499D01*
X149764000Y-52897362D01*
X149764000Y-52258638D01*
X149768445Y-52213501D01*
X149779820Y-52176005D01*
X149798292Y-52141446D01*
X149823153Y-52111153D01*
X149853446Y-52086292D01*
X149888005Y-52067820D01*
X149925501Y-52056445D01*
X149970638Y-52052000D01*
X150709362Y-52052000D01*
X150754499Y-52056445D01*
G37*
G36*
X109144000Y-49327000D02*
G01*
X102692000Y-49327000D01*
X102692000Y-46685000D01*
X109144000Y-46685000D01*
X109144000Y-49327000D01*
G37*
G36*
X124724039Y-45536250D02*
G01*
X124913372Y-45614675D01*
X125047251Y-45670129D01*
X125338134Y-45864491D01*
X125585509Y-46111866D01*
X125779871Y-46402749D01*
X125779871Y-46402750D01*
X125913750Y-46725961D01*
X125982000Y-47069078D01*
X125982000Y-47418922D01*
X125913750Y-47762039D01*
X125835325Y-47951372D01*
X125779871Y-48085251D01*
X125585509Y-48376134D01*
X125338134Y-48623509D01*
X125047251Y-48817871D01*
X124913372Y-48873325D01*
X124724039Y-48951750D01*
X124380922Y-49020000D01*
X124031078Y-49020000D01*
X123687961Y-48951750D01*
X123498628Y-48873325D01*
X123364749Y-48817871D01*
X123073866Y-48623509D01*
X122826491Y-48376134D01*
X122632129Y-48085251D01*
X122576675Y-47951372D01*
X122498250Y-47762039D01*
X122430000Y-47418922D01*
X122430000Y-47069078D01*
X122498250Y-46725961D01*
X122632129Y-46402750D01*
X122632129Y-46402749D01*
X122826491Y-46111866D01*
X123073866Y-45864491D01*
X123364749Y-45670129D01*
X123498628Y-45614675D01*
X123687961Y-45536250D01*
X124031078Y-45468000D01*
X124380922Y-45468000D01*
X124724039Y-45536250D01*
G37*
G36*
X132344039Y-45536250D02*
G01*
X132533372Y-45614675D01*
X132667251Y-45670129D01*
X132958134Y-45864491D01*
X133205509Y-46111866D01*
X133399871Y-46402749D01*
X133399871Y-46402750D01*
X133533750Y-46725961D01*
X133602000Y-47069078D01*
X133602000Y-47418922D01*
X133533750Y-47762039D01*
X133455325Y-47951372D01*
X133399871Y-48085251D01*
X133205509Y-48376134D01*
X132958134Y-48623509D01*
X132667251Y-48817871D01*
X132533372Y-48873325D01*
X132344039Y-48951750D01*
X132000922Y-49020000D01*
X131651078Y-49020000D01*
X131307961Y-48951750D01*
X131118628Y-48873325D01*
X130984749Y-48817871D01*
X130693866Y-48623509D01*
X130446491Y-48376134D01*
X130252129Y-48085251D01*
X130196675Y-47951372D01*
X130118250Y-47762039D01*
X130050000Y-47418922D01*
X130050000Y-47069078D01*
X130118250Y-46725961D01*
X130252129Y-46402750D01*
X130252129Y-46402749D01*
X130446491Y-46111866D01*
X130693866Y-45864491D01*
X130984749Y-45670129D01*
X131118628Y-45614675D01*
X131307961Y-45536250D01*
X131651078Y-45468000D01*
X132000922Y-45468000D01*
X132344039Y-45536250D01*
G37*
G36*
X172096513Y-46118928D02*
G01*
X172245813Y-46148625D01*
X172409785Y-46216545D01*
X172557355Y-46315148D01*
X172682854Y-46440647D01*
X172781457Y-46588217D01*
X172849377Y-46752189D01*
X172884001Y-46926260D01*
X172884001Y-47103742D01*
X172849377Y-47277813D01*
X172781457Y-47441785D01*
X172682854Y-47589355D01*
X172557355Y-47714854D01*
X172409785Y-47813457D01*
X172245813Y-47881377D01*
X172096513Y-47911074D01*
X172071743Y-47916001D01*
X171894259Y-47916001D01*
X171869489Y-47911074D01*
X171720189Y-47881377D01*
X171556217Y-47813457D01*
X171408647Y-47714854D01*
X171283148Y-47589355D01*
X171184545Y-47441785D01*
X171116625Y-47277813D01*
X171082001Y-47103742D01*
X171082001Y-46926260D01*
X171116625Y-46752189D01*
X171184545Y-46588217D01*
X171283148Y-46440647D01*
X171408647Y-46315148D01*
X171556217Y-46216545D01*
X171720189Y-46148625D01*
X171869489Y-46118928D01*
X171894259Y-46114001D01*
X172071743Y-46114001D01*
X172096513Y-46118928D01*
G37*
G36*
X174636513Y-46118928D02*
G01*
X174785813Y-46148625D01*
X174949785Y-46216545D01*
X175097355Y-46315148D01*
X175222854Y-46440647D01*
X175321457Y-46588217D01*
X175389377Y-46752189D01*
X175424001Y-46926260D01*
X175424001Y-47103742D01*
X175389377Y-47277813D01*
X175321457Y-47441785D01*
X175222854Y-47589355D01*
X175097355Y-47714854D01*
X174949785Y-47813457D01*
X174785813Y-47881377D01*
X174636513Y-47911074D01*
X174611743Y-47916001D01*
X174434259Y-47916001D01*
X174409489Y-47911074D01*
X174260189Y-47881377D01*
X174096217Y-47813457D01*
X173948647Y-47714854D01*
X173823148Y-47589355D01*
X173724545Y-47441785D01*
X173656625Y-47277813D01*
X173622001Y-47103742D01*
X173622001Y-46926260D01*
X173656625Y-46752189D01*
X173724545Y-46588217D01*
X173823148Y-46440647D01*
X173948647Y-46315148D01*
X174096217Y-46216545D01*
X174260189Y-46148625D01*
X174409489Y-46118928D01*
X174434259Y-46114001D01*
X174611743Y-46114001D01*
X174636513Y-46118928D01*
G37*
G36*
X177176513Y-46118928D02*
G01*
X177325813Y-46148625D01*
X177489785Y-46216545D01*
X177637355Y-46315148D01*
X177762854Y-46440647D01*
X177861457Y-46588217D01*
X177929377Y-46752189D01*
X177964001Y-46926260D01*
X177964001Y-47103742D01*
X177929377Y-47277813D01*
X177861457Y-47441785D01*
X177762854Y-47589355D01*
X177637355Y-47714854D01*
X177489785Y-47813457D01*
X177325813Y-47881377D01*
X177176513Y-47911074D01*
X177151743Y-47916001D01*
X176974259Y-47916001D01*
X176949489Y-47911074D01*
X176800189Y-47881377D01*
X176636217Y-47813457D01*
X176488647Y-47714854D01*
X176363148Y-47589355D01*
X176264545Y-47441785D01*
X176196625Y-47277813D01*
X176162001Y-47103742D01*
X176162001Y-46926260D01*
X176196625Y-46752189D01*
X176264545Y-46588217D01*
X176363148Y-46440647D01*
X176488647Y-46315148D01*
X176636217Y-46216545D01*
X176800189Y-46148625D01*
X176949489Y-46118928D01*
X176974259Y-46114001D01*
X177151743Y-46114001D01*
X177176513Y-46118928D01*
G37*
G36*
X169556513Y-46118928D02*
G01*
X169705813Y-46148625D01*
X169869785Y-46216545D01*
X170017355Y-46315148D01*
X170142854Y-46440647D01*
X170241457Y-46588217D01*
X170309377Y-46752189D01*
X170344001Y-46926260D01*
X170344001Y-47103742D01*
X170309377Y-47277813D01*
X170241457Y-47441785D01*
X170142854Y-47589355D01*
X170017355Y-47714854D01*
X169869785Y-47813457D01*
X169705813Y-47881377D01*
X169556513Y-47911074D01*
X169531743Y-47916001D01*
X169354259Y-47916001D01*
X169329489Y-47911074D01*
X169180189Y-47881377D01*
X169016217Y-47813457D01*
X168868647Y-47714854D01*
X168743148Y-47589355D01*
X168644545Y-47441785D01*
X168576625Y-47277813D01*
X168542001Y-47103742D01*
X168542001Y-46926260D01*
X168576625Y-46752189D01*
X168644545Y-46588217D01*
X168743148Y-46440647D01*
X168868647Y-46315148D01*
X169016217Y-46216545D01*
X169180189Y-46148625D01*
X169329489Y-46118928D01*
X169354259Y-46114001D01*
X169531743Y-46114001D01*
X169556513Y-46118928D01*
G37*
G36*
X179716513Y-46118928D02*
G01*
X179865813Y-46148625D01*
X180029785Y-46216545D01*
X180177355Y-46315148D01*
X180302854Y-46440647D01*
X180401457Y-46588217D01*
X180469377Y-46752189D01*
X180504001Y-46926260D01*
X180504001Y-47103742D01*
X180469377Y-47277813D01*
X180401457Y-47441785D01*
X180302854Y-47589355D01*
X180177355Y-47714854D01*
X180029785Y-47813457D01*
X179865813Y-47881377D01*
X179716513Y-47911074D01*
X179691743Y-47916001D01*
X179514259Y-47916001D01*
X179489489Y-47911074D01*
X179340189Y-47881377D01*
X179176217Y-47813457D01*
X179028647Y-47714854D01*
X178903148Y-47589355D01*
X178804545Y-47441785D01*
X178736625Y-47277813D01*
X178702001Y-47103742D01*
X178702001Y-46926260D01*
X178736625Y-46752189D01*
X178804545Y-46588217D01*
X178903148Y-46440647D01*
X179028647Y-46315148D01*
X179176217Y-46216545D01*
X179340189Y-46148625D01*
X179489489Y-46118928D01*
X179514259Y-46114001D01*
X179691743Y-46114001D01*
X179716513Y-46118928D01*
G37*
G36*
X194956513Y-46118928D02*
G01*
X195105813Y-46148625D01*
X195269785Y-46216545D01*
X195417355Y-46315148D01*
X195542854Y-46440647D01*
X195641457Y-46588217D01*
X195709377Y-46752189D01*
X195744001Y-46926260D01*
X195744001Y-47103742D01*
X195709377Y-47277813D01*
X195641457Y-47441785D01*
X195542854Y-47589355D01*
X195417355Y-47714854D01*
X195269785Y-47813457D01*
X195105813Y-47881377D01*
X194956513Y-47911074D01*
X194931743Y-47916001D01*
X194754259Y-47916001D01*
X194729489Y-47911074D01*
X194580189Y-47881377D01*
X194416217Y-47813457D01*
X194268647Y-47714854D01*
X194143148Y-47589355D01*
X194044545Y-47441785D01*
X193976625Y-47277813D01*
X193942001Y-47103742D01*
X193942001Y-46926260D01*
X193976625Y-46752189D01*
X194044545Y-46588217D01*
X194143148Y-46440647D01*
X194268647Y-46315148D01*
X194416217Y-46216545D01*
X194580189Y-46148625D01*
X194729489Y-46118928D01*
X194754259Y-46114001D01*
X194931743Y-46114001D01*
X194956513Y-46118928D01*
G37*
G36*
X187336513Y-46118928D02*
G01*
X187485813Y-46148625D01*
X187649785Y-46216545D01*
X187797355Y-46315148D01*
X187922854Y-46440647D01*
X188021457Y-46588217D01*
X188089377Y-46752189D01*
X188124001Y-46926260D01*
X188124001Y-47103742D01*
X188089377Y-47277813D01*
X188021457Y-47441785D01*
X187922854Y-47589355D01*
X187797355Y-47714854D01*
X187649785Y-47813457D01*
X187485813Y-47881377D01*
X187336513Y-47911074D01*
X187311743Y-47916001D01*
X187134259Y-47916001D01*
X187109489Y-47911074D01*
X186960189Y-47881377D01*
X186796217Y-47813457D01*
X186648647Y-47714854D01*
X186523148Y-47589355D01*
X186424545Y-47441785D01*
X186356625Y-47277813D01*
X186322001Y-47103742D01*
X186322001Y-46926260D01*
X186356625Y-46752189D01*
X186424545Y-46588217D01*
X186523148Y-46440647D01*
X186648647Y-46315148D01*
X186796217Y-46216545D01*
X186960189Y-46148625D01*
X187109489Y-46118928D01*
X187134259Y-46114001D01*
X187311743Y-46114001D01*
X187336513Y-46118928D01*
G37*
G36*
X192416513Y-46118928D02*
G01*
X192565813Y-46148625D01*
X192729785Y-46216545D01*
X192877355Y-46315148D01*
X193002854Y-46440647D01*
X193101457Y-46588217D01*
X193169377Y-46752189D01*
X193204001Y-46926260D01*
X193204001Y-47103742D01*
X193169377Y-47277813D01*
X193101457Y-47441785D01*
X193002854Y-47589355D01*
X192877355Y-47714854D01*
X192729785Y-47813457D01*
X192565813Y-47881377D01*
X192416513Y-47911074D01*
X192391743Y-47916001D01*
X192214259Y-47916001D01*
X192189489Y-47911074D01*
X192040189Y-47881377D01*
X191876217Y-47813457D01*
X191728647Y-47714854D01*
X191603148Y-47589355D01*
X191504545Y-47441785D01*
X191436625Y-47277813D01*
X191402001Y-47103742D01*
X191402001Y-46926260D01*
X191436625Y-46752189D01*
X191504545Y-46588217D01*
X191603148Y-46440647D01*
X191728647Y-46315148D01*
X191876217Y-46216545D01*
X192040189Y-46148625D01*
X192189489Y-46118928D01*
X192214259Y-46114001D01*
X192391743Y-46114001D01*
X192416513Y-46118928D01*
G37*
G36*
X189876513Y-46118928D02*
G01*
X190025813Y-46148625D01*
X190189785Y-46216545D01*
X190337355Y-46315148D01*
X190462854Y-46440647D01*
X190561457Y-46588217D01*
X190629377Y-46752189D01*
X190664001Y-46926260D01*
X190664001Y-47103742D01*
X190629377Y-47277813D01*
X190561457Y-47441785D01*
X190462854Y-47589355D01*
X190337355Y-47714854D01*
X190189785Y-47813457D01*
X190025813Y-47881377D01*
X189876513Y-47911074D01*
X189851743Y-47916001D01*
X189674259Y-47916001D01*
X189649489Y-47911074D01*
X189500189Y-47881377D01*
X189336217Y-47813457D01*
X189188647Y-47714854D01*
X189063148Y-47589355D01*
X188964545Y-47441785D01*
X188896625Y-47277813D01*
X188862001Y-47103742D01*
X188862001Y-46926260D01*
X188896625Y-46752189D01*
X188964545Y-46588217D01*
X189063148Y-46440647D01*
X189188647Y-46315148D01*
X189336217Y-46216545D01*
X189500189Y-46148625D01*
X189649489Y-46118928D01*
X189674259Y-46114001D01*
X189851743Y-46114001D01*
X189876513Y-46118928D01*
G37*
G36*
X149236513Y-46118928D02*
G01*
X149385813Y-46148625D01*
X149549785Y-46216545D01*
X149697355Y-46315148D01*
X149822854Y-46440647D01*
X149921457Y-46588217D01*
X149989377Y-46752189D01*
X150024001Y-46926260D01*
X150024001Y-47103742D01*
X149989377Y-47277813D01*
X149921457Y-47441785D01*
X149822854Y-47589355D01*
X149697355Y-47714854D01*
X149549785Y-47813457D01*
X149385813Y-47881377D01*
X149236513Y-47911074D01*
X149211743Y-47916001D01*
X149034259Y-47916001D01*
X149009489Y-47911074D01*
X148860189Y-47881377D01*
X148696217Y-47813457D01*
X148548647Y-47714854D01*
X148423148Y-47589355D01*
X148324545Y-47441785D01*
X148256625Y-47277813D01*
X148222001Y-47103742D01*
X148222001Y-46926260D01*
X148256625Y-46752189D01*
X148324545Y-46588217D01*
X148423148Y-46440647D01*
X148548647Y-46315148D01*
X148696217Y-46216545D01*
X148860189Y-46148625D01*
X149009489Y-46118928D01*
X149034259Y-46114001D01*
X149211743Y-46114001D01*
X149236513Y-46118928D01*
G37*
G36*
X161936513Y-46118928D02*
G01*
X162085813Y-46148625D01*
X162249785Y-46216545D01*
X162397355Y-46315148D01*
X162522854Y-46440647D01*
X162621457Y-46588217D01*
X162689377Y-46752189D01*
X162724001Y-46926260D01*
X162724001Y-47103742D01*
X162689377Y-47277813D01*
X162621457Y-47441785D01*
X162522854Y-47589355D01*
X162397355Y-47714854D01*
X162249785Y-47813457D01*
X162085813Y-47881377D01*
X161936513Y-47911074D01*
X161911743Y-47916001D01*
X161734259Y-47916001D01*
X161709489Y-47911074D01*
X161560189Y-47881377D01*
X161396217Y-47813457D01*
X161248647Y-47714854D01*
X161123148Y-47589355D01*
X161024545Y-47441785D01*
X160956625Y-47277813D01*
X160922001Y-47103742D01*
X160922001Y-46926260D01*
X160956625Y-46752189D01*
X161024545Y-46588217D01*
X161123148Y-46440647D01*
X161248647Y-46315148D01*
X161396217Y-46216545D01*
X161560189Y-46148625D01*
X161709489Y-46118928D01*
X161734259Y-46114001D01*
X161911743Y-46114001D01*
X161936513Y-46118928D01*
G37*
G36*
X159396513Y-46118928D02*
G01*
X159545813Y-46148625D01*
X159709785Y-46216545D01*
X159857355Y-46315148D01*
X159982854Y-46440647D01*
X160081457Y-46588217D01*
X160149377Y-46752189D01*
X160184001Y-46926260D01*
X160184001Y-47103742D01*
X160149377Y-47277813D01*
X160081457Y-47441785D01*
X159982854Y-47589355D01*
X159857355Y-47714854D01*
X159709785Y-47813457D01*
X159545813Y-47881377D01*
X159396513Y-47911074D01*
X159371743Y-47916001D01*
X159194259Y-47916001D01*
X159169489Y-47911074D01*
X159020189Y-47881377D01*
X158856217Y-47813457D01*
X158708647Y-47714854D01*
X158583148Y-47589355D01*
X158484545Y-47441785D01*
X158416625Y-47277813D01*
X158382001Y-47103742D01*
X158382001Y-46926260D01*
X158416625Y-46752189D01*
X158484545Y-46588217D01*
X158583148Y-46440647D01*
X158708647Y-46315148D01*
X158856217Y-46216545D01*
X159020189Y-46148625D01*
X159169489Y-46118928D01*
X159194259Y-46114001D01*
X159371743Y-46114001D01*
X159396513Y-46118928D01*
G37*
G36*
X156856513Y-46118928D02*
G01*
X157005813Y-46148625D01*
X157169785Y-46216545D01*
X157317355Y-46315148D01*
X157442854Y-46440647D01*
X157541457Y-46588217D01*
X157609377Y-46752189D01*
X157644001Y-46926260D01*
X157644001Y-47103742D01*
X157609377Y-47277813D01*
X157541457Y-47441785D01*
X157442854Y-47589355D01*
X157317355Y-47714854D01*
X157169785Y-47813457D01*
X157005813Y-47881377D01*
X156856513Y-47911074D01*
X156831743Y-47916001D01*
X156654259Y-47916001D01*
X156629489Y-47911074D01*
X156480189Y-47881377D01*
X156316217Y-47813457D01*
X156168647Y-47714854D01*
X156043148Y-47589355D01*
X155944545Y-47441785D01*
X155876625Y-47277813D01*
X155842001Y-47103742D01*
X155842001Y-46926260D01*
X155876625Y-46752189D01*
X155944545Y-46588217D01*
X156043148Y-46440647D01*
X156168647Y-46315148D01*
X156316217Y-46216545D01*
X156480189Y-46148625D01*
X156629489Y-46118928D01*
X156654259Y-46114001D01*
X156831743Y-46114001D01*
X156856513Y-46118928D01*
G37*
G36*
X184796513Y-46118928D02*
G01*
X184945813Y-46148625D01*
X185109785Y-46216545D01*
X185257355Y-46315148D01*
X185382854Y-46440647D01*
X185481457Y-46588217D01*
X185549377Y-46752189D01*
X185584001Y-46926260D01*
X185584001Y-47103742D01*
X185549377Y-47277813D01*
X185481457Y-47441785D01*
X185382854Y-47589355D01*
X185257355Y-47714854D01*
X185109785Y-47813457D01*
X184945813Y-47881377D01*
X184796513Y-47911074D01*
X184771743Y-47916001D01*
X184594259Y-47916001D01*
X184569489Y-47911074D01*
X184420189Y-47881377D01*
X184256217Y-47813457D01*
X184108647Y-47714854D01*
X183983148Y-47589355D01*
X183884545Y-47441785D01*
X183816625Y-47277813D01*
X183782001Y-47103742D01*
X183782001Y-46926260D01*
X183816625Y-46752189D01*
X183884545Y-46588217D01*
X183983148Y-46440647D01*
X184108647Y-46315148D01*
X184256217Y-46216545D01*
X184420189Y-46148625D01*
X184569489Y-46118928D01*
X184594259Y-46114001D01*
X184771743Y-46114001D01*
X184796513Y-46118928D01*
G37*
G36*
X182256513Y-46118928D02*
G01*
X182405813Y-46148625D01*
X182569785Y-46216545D01*
X182717355Y-46315148D01*
X182842854Y-46440647D01*
X182941457Y-46588217D01*
X183009377Y-46752189D01*
X183044001Y-46926260D01*
X183044001Y-47103742D01*
X183009377Y-47277813D01*
X182941457Y-47441785D01*
X182842854Y-47589355D01*
X182717355Y-47714854D01*
X182569785Y-47813457D01*
X182405813Y-47881377D01*
X182256513Y-47911074D01*
X182231743Y-47916001D01*
X182054259Y-47916001D01*
X182029489Y-47911074D01*
X181880189Y-47881377D01*
X181716217Y-47813457D01*
X181568647Y-47714854D01*
X181443148Y-47589355D01*
X181344545Y-47441785D01*
X181276625Y-47277813D01*
X181242001Y-47103742D01*
X181242001Y-46926260D01*
X181276625Y-46752189D01*
X181344545Y-46588217D01*
X181443148Y-46440647D01*
X181568647Y-46315148D01*
X181716217Y-46216545D01*
X181880189Y-46148625D01*
X182029489Y-46118928D01*
X182054259Y-46114001D01*
X182231743Y-46114001D01*
X182256513Y-46118928D01*
G37*
G36*
X146696513Y-46118928D02*
G01*
X146845813Y-46148625D01*
X147009785Y-46216545D01*
X147157355Y-46315148D01*
X147282854Y-46440647D01*
X147381457Y-46588217D01*
X147449377Y-46752189D01*
X147484001Y-46926260D01*
X147484001Y-47103742D01*
X147449377Y-47277813D01*
X147381457Y-47441785D01*
X147282854Y-47589355D01*
X147157355Y-47714854D01*
X147009785Y-47813457D01*
X146845813Y-47881377D01*
X146696513Y-47911074D01*
X146671743Y-47916001D01*
X146494259Y-47916001D01*
X146469489Y-47911074D01*
X146320189Y-47881377D01*
X146156217Y-47813457D01*
X146008647Y-47714854D01*
X145883148Y-47589355D01*
X145784545Y-47441785D01*
X145716625Y-47277813D01*
X145682001Y-47103742D01*
X145682001Y-46926260D01*
X145716625Y-46752189D01*
X145784545Y-46588217D01*
X145883148Y-46440647D01*
X146008647Y-46315148D01*
X146156217Y-46216545D01*
X146320189Y-46148625D01*
X146469489Y-46118928D01*
X146494259Y-46114001D01*
X146671743Y-46114001D01*
X146696513Y-46118928D01*
G37*
G36*
X151776513Y-46118928D02*
G01*
X151925813Y-46148625D01*
X152089785Y-46216545D01*
X152237355Y-46315148D01*
X152362854Y-46440647D01*
X152461457Y-46588217D01*
X152529377Y-46752189D01*
X152564001Y-46926260D01*
X152564001Y-47103742D01*
X152529377Y-47277813D01*
X152461457Y-47441785D01*
X152362854Y-47589355D01*
X152237355Y-47714854D01*
X152089785Y-47813457D01*
X151925813Y-47881377D01*
X151776513Y-47911074D01*
X151751743Y-47916001D01*
X151574259Y-47916001D01*
X151549489Y-47911074D01*
X151400189Y-47881377D01*
X151236217Y-47813457D01*
X151088647Y-47714854D01*
X150963148Y-47589355D01*
X150864545Y-47441785D01*
X150796625Y-47277813D01*
X150762001Y-47103742D01*
X150762001Y-46926260D01*
X150796625Y-46752189D01*
X150864545Y-46588217D01*
X150963148Y-46440647D01*
X151088647Y-46315148D01*
X151236217Y-46216545D01*
X151400189Y-46148625D01*
X151549489Y-46118928D01*
X151574259Y-46114001D01*
X151751743Y-46114001D01*
X151776513Y-46118928D01*
G37*
G36*
X164476513Y-46118928D02*
G01*
X164625813Y-46148625D01*
X164789785Y-46216545D01*
X164937355Y-46315148D01*
X165062854Y-46440647D01*
X165161457Y-46588217D01*
X165229377Y-46752189D01*
X165264001Y-46926260D01*
X165264001Y-47103742D01*
X165229377Y-47277813D01*
X165161457Y-47441785D01*
X165062854Y-47589355D01*
X164937355Y-47714854D01*
X164789785Y-47813457D01*
X164625813Y-47881377D01*
X164476513Y-47911074D01*
X164451743Y-47916001D01*
X164274259Y-47916001D01*
X164249489Y-47911074D01*
X164100189Y-47881377D01*
X163936217Y-47813457D01*
X163788647Y-47714854D01*
X163663148Y-47589355D01*
X163564545Y-47441785D01*
X163496625Y-47277813D01*
X163462001Y-47103742D01*
X163462001Y-46926260D01*
X163496625Y-46752189D01*
X163564545Y-46588217D01*
X163663148Y-46440647D01*
X163788647Y-46315148D01*
X163936217Y-46216545D01*
X164100189Y-46148625D01*
X164249489Y-46118928D01*
X164274259Y-46114001D01*
X164451743Y-46114001D01*
X164476513Y-46118928D01*
G37*
G36*
X154316513Y-46118928D02*
G01*
X154465813Y-46148625D01*
X154629785Y-46216545D01*
X154777355Y-46315148D01*
X154902854Y-46440647D01*
X155001457Y-46588217D01*
X155069377Y-46752189D01*
X155104001Y-46926260D01*
X155104001Y-47103742D01*
X155069377Y-47277813D01*
X155001457Y-47441785D01*
X154902854Y-47589355D01*
X154777355Y-47714854D01*
X154629785Y-47813457D01*
X154465813Y-47881377D01*
X154316513Y-47911074D01*
X154291743Y-47916001D01*
X154114259Y-47916001D01*
X154089489Y-47911074D01*
X153940189Y-47881377D01*
X153776217Y-47813457D01*
X153628647Y-47714854D01*
X153503148Y-47589355D01*
X153404545Y-47441785D01*
X153336625Y-47277813D01*
X153302001Y-47103742D01*
X153302001Y-46926260D01*
X153336625Y-46752189D01*
X153404545Y-46588217D01*
X153503148Y-46440647D01*
X153628647Y-46315148D01*
X153776217Y-46216545D01*
X153940189Y-46148625D01*
X154089489Y-46118928D01*
X154114259Y-46114001D01*
X154291743Y-46114001D01*
X154316513Y-46118928D01*
G37*
G36*
X167016513Y-46118928D02*
G01*
X167165813Y-46148625D01*
X167329785Y-46216545D01*
X167477355Y-46315148D01*
X167602854Y-46440647D01*
X167701457Y-46588217D01*
X167769377Y-46752189D01*
X167804001Y-46926260D01*
X167804001Y-47103742D01*
X167769377Y-47277813D01*
X167701457Y-47441785D01*
X167602854Y-47589355D01*
X167477355Y-47714854D01*
X167329785Y-47813457D01*
X167165813Y-47881377D01*
X167016513Y-47911074D01*
X166991743Y-47916001D01*
X166814259Y-47916001D01*
X166789489Y-47911074D01*
X166640189Y-47881377D01*
X166476217Y-47813457D01*
X166328647Y-47714854D01*
X166203148Y-47589355D01*
X166104545Y-47441785D01*
X166036625Y-47277813D01*
X166002001Y-47103742D01*
X166002001Y-46926260D01*
X166036625Y-46752189D01*
X166104545Y-46588217D01*
X166203148Y-46440647D01*
X166328647Y-46315148D01*
X166476217Y-46216545D01*
X166640189Y-46148625D01*
X166789489Y-46118928D01*
X166814259Y-46114001D01*
X166991743Y-46114001D01*
X167016513Y-46118928D01*
G37*
G36*
X142015586Y-44223803D02*
G01*
X142165411Y-44253605D01*
X142447675Y-44370522D01*
X142701706Y-44540260D01*
X142917742Y-44756296D01*
X143087480Y-45010327D01*
X143204397Y-45292591D01*
X143264001Y-45592241D01*
X143264001Y-45897761D01*
X143204397Y-46197411D01*
X143087480Y-46479675D01*
X142917742Y-46733706D01*
X142701706Y-46949742D01*
X142447675Y-47119480D01*
X142165411Y-47236397D01*
X142015586Y-47266199D01*
X141865762Y-47296001D01*
X141560240Y-47296001D01*
X141410416Y-47266199D01*
X141260591Y-47236397D01*
X140978327Y-47119480D01*
X140724296Y-46949742D01*
X140508260Y-46733706D01*
X140338522Y-46479675D01*
X140221605Y-46197411D01*
X140162001Y-45897761D01*
X140162001Y-45592241D01*
X140221605Y-45292591D01*
X140338522Y-45010327D01*
X140508260Y-44756296D01*
X140724296Y-44540260D01*
X140978327Y-44370522D01*
X141260591Y-44253605D01*
X141410416Y-44223803D01*
X141560240Y-44194001D01*
X141865762Y-44194001D01*
X142015586Y-44223803D01*
G37*
G36*
X200015586Y-44223803D02*
G01*
X200165411Y-44253605D01*
X200447675Y-44370522D01*
X200701706Y-44540260D01*
X200917742Y-44756296D01*
X201087480Y-45010327D01*
X201204397Y-45292591D01*
X201264001Y-45592241D01*
X201264001Y-45897761D01*
X201204397Y-46197411D01*
X201087480Y-46479675D01*
X200917742Y-46733706D01*
X200701706Y-46949742D01*
X200447675Y-47119480D01*
X200165411Y-47236397D01*
X200015586Y-47266199D01*
X199865762Y-47296001D01*
X199560240Y-47296001D01*
X199410416Y-47266199D01*
X199260591Y-47236397D01*
X198978327Y-47119480D01*
X198724296Y-46949742D01*
X198508260Y-46733706D01*
X198338522Y-46479675D01*
X198221605Y-46197411D01*
X198162001Y-45897761D01*
X198162001Y-45592241D01*
X198221605Y-45292591D01*
X198338522Y-45010327D01*
X198508260Y-44756296D01*
X198724296Y-44540260D01*
X198978327Y-44370522D01*
X199260591Y-44253605D01*
X199410416Y-44223803D01*
X199560240Y-44194001D01*
X199865762Y-44194001D01*
X200015586Y-44223803D01*
G37*
G36*
X149236513Y-43578928D02*
G01*
X149385813Y-43608625D01*
X149549785Y-43676545D01*
X149697355Y-43775148D01*
X149822854Y-43900647D01*
X149921457Y-44048217D01*
X149989377Y-44212189D01*
X150024001Y-44386260D01*
X150024001Y-44563742D01*
X149989377Y-44737813D01*
X149921457Y-44901785D01*
X149822854Y-45049355D01*
X149697355Y-45174854D01*
X149549785Y-45273457D01*
X149385813Y-45341377D01*
X149236513Y-45371074D01*
X149211743Y-45376001D01*
X149034259Y-45376001D01*
X149009489Y-45371074D01*
X148860189Y-45341377D01*
X148696217Y-45273457D01*
X148548647Y-45174854D01*
X148423148Y-45049355D01*
X148324545Y-44901785D01*
X148256625Y-44737813D01*
X148222001Y-44563742D01*
X148222001Y-44386260D01*
X148256625Y-44212189D01*
X148324545Y-44048217D01*
X148423148Y-43900647D01*
X148548647Y-43775148D01*
X148696217Y-43676545D01*
X148860189Y-43608625D01*
X149009489Y-43578928D01*
X149034259Y-43574001D01*
X149211743Y-43574001D01*
X149236513Y-43578928D01*
G37*
G36*
X179716513Y-43578928D02*
G01*
X179865813Y-43608625D01*
X180029785Y-43676545D01*
X180177355Y-43775148D01*
X180302854Y-43900647D01*
X180401457Y-44048217D01*
X180469377Y-44212189D01*
X180504001Y-44386260D01*
X180504001Y-44563742D01*
X180469377Y-44737813D01*
X180401457Y-44901785D01*
X180302854Y-45049355D01*
X180177355Y-45174854D01*
X180029785Y-45273457D01*
X179865813Y-45341377D01*
X179716513Y-45371074D01*
X179691743Y-45376001D01*
X179514259Y-45376001D01*
X179489489Y-45371074D01*
X179340189Y-45341377D01*
X179176217Y-45273457D01*
X179028647Y-45174854D01*
X178903148Y-45049355D01*
X178804545Y-44901785D01*
X178736625Y-44737813D01*
X178702001Y-44563742D01*
X178702001Y-44386260D01*
X178736625Y-44212189D01*
X178804545Y-44048217D01*
X178903148Y-43900647D01*
X179028647Y-43775148D01*
X179176217Y-43676545D01*
X179340189Y-43608625D01*
X179489489Y-43578928D01*
X179514259Y-43574001D01*
X179691743Y-43574001D01*
X179716513Y-43578928D01*
G37*
G36*
X182256513Y-43578928D02*
G01*
X182405813Y-43608625D01*
X182569785Y-43676545D01*
X182717355Y-43775148D01*
X182842854Y-43900647D01*
X182941457Y-44048217D01*
X183009377Y-44212189D01*
X183044001Y-44386260D01*
X183044001Y-44563742D01*
X183009377Y-44737813D01*
X182941457Y-44901785D01*
X182842854Y-45049355D01*
X182717355Y-45174854D01*
X182569785Y-45273457D01*
X182405813Y-45341377D01*
X182256513Y-45371074D01*
X182231743Y-45376001D01*
X182054259Y-45376001D01*
X182029489Y-45371074D01*
X181880189Y-45341377D01*
X181716217Y-45273457D01*
X181568647Y-45174854D01*
X181443148Y-45049355D01*
X181344545Y-44901785D01*
X181276625Y-44737813D01*
X181242001Y-44563742D01*
X181242001Y-44386260D01*
X181276625Y-44212189D01*
X181344545Y-44048217D01*
X181443148Y-43900647D01*
X181568647Y-43775148D01*
X181716217Y-43676545D01*
X181880189Y-43608625D01*
X182029489Y-43578928D01*
X182054259Y-43574001D01*
X182231743Y-43574001D01*
X182256513Y-43578928D01*
G37*
G36*
X184796513Y-43578928D02*
G01*
X184945813Y-43608625D01*
X185109785Y-43676545D01*
X185257355Y-43775148D01*
X185382854Y-43900647D01*
X185481457Y-44048217D01*
X185549377Y-44212189D01*
X185584001Y-44386260D01*
X185584001Y-44563742D01*
X185549377Y-44737813D01*
X185481457Y-44901785D01*
X185382854Y-45049355D01*
X185257355Y-45174854D01*
X185109785Y-45273457D01*
X184945813Y-45341377D01*
X184796513Y-45371074D01*
X184771743Y-45376001D01*
X184594259Y-45376001D01*
X184569489Y-45371074D01*
X184420189Y-45341377D01*
X184256217Y-45273457D01*
X184108647Y-45174854D01*
X183983148Y-45049355D01*
X183884545Y-44901785D01*
X183816625Y-44737813D01*
X183782001Y-44563742D01*
X183782001Y-44386260D01*
X183816625Y-44212189D01*
X183884545Y-44048217D01*
X183983148Y-43900647D01*
X184108647Y-43775148D01*
X184256217Y-43676545D01*
X184420189Y-43608625D01*
X184569489Y-43578928D01*
X184594259Y-43574001D01*
X184771743Y-43574001D01*
X184796513Y-43578928D01*
G37*
G36*
X187336513Y-43578928D02*
G01*
X187485813Y-43608625D01*
X187649785Y-43676545D01*
X187797355Y-43775148D01*
X187922854Y-43900647D01*
X188021457Y-44048217D01*
X188089377Y-44212189D01*
X188124001Y-44386260D01*
X188124001Y-44563742D01*
X188089377Y-44737813D01*
X188021457Y-44901785D01*
X187922854Y-45049355D01*
X187797355Y-45174854D01*
X187649785Y-45273457D01*
X187485813Y-45341377D01*
X187336513Y-45371074D01*
X187311743Y-45376001D01*
X187134259Y-45376001D01*
X187109489Y-45371074D01*
X186960189Y-45341377D01*
X186796217Y-45273457D01*
X186648647Y-45174854D01*
X186523148Y-45049355D01*
X186424545Y-44901785D01*
X186356625Y-44737813D01*
X186322001Y-44563742D01*
X186322001Y-44386260D01*
X186356625Y-44212189D01*
X186424545Y-44048217D01*
X186523148Y-43900647D01*
X186648647Y-43775148D01*
X186796217Y-43676545D01*
X186960189Y-43608625D01*
X187109489Y-43578928D01*
X187134259Y-43574001D01*
X187311743Y-43574001D01*
X187336513Y-43578928D01*
G37*
G36*
X189876513Y-43578928D02*
G01*
X190025813Y-43608625D01*
X190189785Y-43676545D01*
X190337355Y-43775148D01*
X190462854Y-43900647D01*
X190561457Y-44048217D01*
X190629377Y-44212189D01*
X190664001Y-44386260D01*
X190664001Y-44563742D01*
X190629377Y-44737813D01*
X190561457Y-44901785D01*
X190462854Y-45049355D01*
X190337355Y-45174854D01*
X190189785Y-45273457D01*
X190025813Y-45341377D01*
X189876513Y-45371074D01*
X189851743Y-45376001D01*
X189674259Y-45376001D01*
X189649489Y-45371074D01*
X189500189Y-45341377D01*
X189336217Y-45273457D01*
X189188647Y-45174854D01*
X189063148Y-45049355D01*
X188964545Y-44901785D01*
X188896625Y-44737813D01*
X188862001Y-44563742D01*
X188862001Y-44386260D01*
X188896625Y-44212189D01*
X188964545Y-44048217D01*
X189063148Y-43900647D01*
X189188647Y-43775148D01*
X189336217Y-43676545D01*
X189500189Y-43608625D01*
X189649489Y-43578928D01*
X189674259Y-43574001D01*
X189851743Y-43574001D01*
X189876513Y-43578928D01*
G37*
G36*
X192416513Y-43578928D02*
G01*
X192565813Y-43608625D01*
X192729785Y-43676545D01*
X192877355Y-43775148D01*
X193002854Y-43900647D01*
X193101457Y-44048217D01*
X193169377Y-44212189D01*
X193204001Y-44386260D01*
X193204001Y-44563742D01*
X193169377Y-44737813D01*
X193101457Y-44901785D01*
X193002854Y-45049355D01*
X192877355Y-45174854D01*
X192729785Y-45273457D01*
X192565813Y-45341377D01*
X192416513Y-45371074D01*
X192391743Y-45376001D01*
X192214259Y-45376001D01*
X192189489Y-45371074D01*
X192040189Y-45341377D01*
X191876217Y-45273457D01*
X191728647Y-45174854D01*
X191603148Y-45049355D01*
X191504545Y-44901785D01*
X191436625Y-44737813D01*
X191402001Y-44563742D01*
X191402001Y-44386260D01*
X191436625Y-44212189D01*
X191504545Y-44048217D01*
X191603148Y-43900647D01*
X191728647Y-43775148D01*
X191876217Y-43676545D01*
X192040189Y-43608625D01*
X192189489Y-43578928D01*
X192214259Y-43574001D01*
X192391743Y-43574001D01*
X192416513Y-43578928D01*
G37*
G36*
X194956513Y-43578928D02*
G01*
X195105813Y-43608625D01*
X195269785Y-43676545D01*
X195417355Y-43775148D01*
X195542854Y-43900647D01*
X195641457Y-44048217D01*
X195709377Y-44212189D01*
X195744001Y-44386260D01*
X195744001Y-44563742D01*
X195709377Y-44737813D01*
X195641457Y-44901785D01*
X195542854Y-45049355D01*
X195417355Y-45174854D01*
X195269785Y-45273457D01*
X195105813Y-45341377D01*
X194956513Y-45371074D01*
X194931743Y-45376001D01*
X194754259Y-45376001D01*
X194729489Y-45371074D01*
X194580189Y-45341377D01*
X194416217Y-45273457D01*
X194268647Y-45174854D01*
X194143148Y-45049355D01*
X194044545Y-44901785D01*
X193976625Y-44737813D01*
X193942001Y-44563742D01*
X193942001Y-44386260D01*
X193976625Y-44212189D01*
X194044545Y-44048217D01*
X194143148Y-43900647D01*
X194268647Y-43775148D01*
X194416217Y-43676545D01*
X194580189Y-43608625D01*
X194729489Y-43578928D01*
X194754259Y-43574001D01*
X194931743Y-43574001D01*
X194956513Y-43578928D01*
G37*
G36*
X177176513Y-43578928D02*
G01*
X177325813Y-43608625D01*
X177489785Y-43676545D01*
X177637355Y-43775148D01*
X177762854Y-43900647D01*
X177861457Y-44048217D01*
X177929377Y-44212189D01*
X177964001Y-44386260D01*
X177964001Y-44563742D01*
X177929377Y-44737813D01*
X177861457Y-44901785D01*
X177762854Y-45049355D01*
X177637355Y-45174854D01*
X177489785Y-45273457D01*
X177325813Y-45341377D01*
X177176513Y-45371074D01*
X177151743Y-45376001D01*
X176974259Y-45376001D01*
X176949489Y-45371074D01*
X176800189Y-45341377D01*
X176636217Y-45273457D01*
X176488647Y-45174854D01*
X176363148Y-45049355D01*
X176264545Y-44901785D01*
X176196625Y-44737813D01*
X176162001Y-44563742D01*
X176162001Y-44386260D01*
X176196625Y-44212189D01*
X176264545Y-44048217D01*
X176363148Y-43900647D01*
X176488647Y-43775148D01*
X176636217Y-43676545D01*
X176800189Y-43608625D01*
X176949489Y-43578928D01*
X176974259Y-43574001D01*
X177151743Y-43574001D01*
X177176513Y-43578928D01*
G37*
G36*
X146696513Y-43578928D02*
G01*
X146845813Y-43608625D01*
X147009785Y-43676545D01*
X147157355Y-43775148D01*
X147282854Y-43900647D01*
X147381457Y-44048217D01*
X147449377Y-44212189D01*
X147484001Y-44386260D01*
X147484001Y-44563742D01*
X147449377Y-44737813D01*
X147381457Y-44901785D01*
X147282854Y-45049355D01*
X147157355Y-45174854D01*
X147009785Y-45273457D01*
X146845813Y-45341377D01*
X146696513Y-45371074D01*
X146671743Y-45376001D01*
X146494259Y-45376001D01*
X146469489Y-45371074D01*
X146320189Y-45341377D01*
X146156217Y-45273457D01*
X146008647Y-45174854D01*
X145883148Y-45049355D01*
X145784545Y-44901785D01*
X145716625Y-44737813D01*
X145682001Y-44563742D01*
X145682001Y-44386260D01*
X145716625Y-44212189D01*
X145784545Y-44048217D01*
X145883148Y-43900647D01*
X146008647Y-43775148D01*
X146156217Y-43676545D01*
X146320189Y-43608625D01*
X146469489Y-43578928D01*
X146494259Y-43574001D01*
X146671743Y-43574001D01*
X146696513Y-43578928D01*
G37*
G36*
X172096513Y-43578928D02*
G01*
X172245813Y-43608625D01*
X172409785Y-43676545D01*
X172557355Y-43775148D01*
X172682854Y-43900647D01*
X172781457Y-44048217D01*
X172849377Y-44212189D01*
X172884001Y-44386260D01*
X172884001Y-44563742D01*
X172849377Y-44737813D01*
X172781457Y-44901785D01*
X172682854Y-45049355D01*
X172557355Y-45174854D01*
X172409785Y-45273457D01*
X172245813Y-45341377D01*
X172096513Y-45371074D01*
X172071743Y-45376001D01*
X171894259Y-45376001D01*
X171869489Y-45371074D01*
X171720189Y-45341377D01*
X171556217Y-45273457D01*
X171408647Y-45174854D01*
X171283148Y-45049355D01*
X171184545Y-44901785D01*
X171116625Y-44737813D01*
X171082001Y-44563742D01*
X171082001Y-44386260D01*
X171116625Y-44212189D01*
X171184545Y-44048217D01*
X171283148Y-43900647D01*
X171408647Y-43775148D01*
X171556217Y-43676545D01*
X171720189Y-43608625D01*
X171869489Y-43578928D01*
X171894259Y-43574001D01*
X172071743Y-43574001D01*
X172096513Y-43578928D01*
G37*
G36*
X169556513Y-43578928D02*
G01*
X169705813Y-43608625D01*
X169869785Y-43676545D01*
X170017355Y-43775148D01*
X170142854Y-43900647D01*
X170241457Y-44048217D01*
X170309377Y-44212189D01*
X170344001Y-44386260D01*
X170344001Y-44563742D01*
X170309377Y-44737813D01*
X170241457Y-44901785D01*
X170142854Y-45049355D01*
X170017355Y-45174854D01*
X169869785Y-45273457D01*
X169705813Y-45341377D01*
X169556513Y-45371074D01*
X169531743Y-45376001D01*
X169354259Y-45376001D01*
X169329489Y-45371074D01*
X169180189Y-45341377D01*
X169016217Y-45273457D01*
X168868647Y-45174854D01*
X168743148Y-45049355D01*
X168644545Y-44901785D01*
X168576625Y-44737813D01*
X168542001Y-44563742D01*
X168542001Y-44386260D01*
X168576625Y-44212189D01*
X168644545Y-44048217D01*
X168743148Y-43900647D01*
X168868647Y-43775148D01*
X169016217Y-43676545D01*
X169180189Y-43608625D01*
X169329489Y-43578928D01*
X169354259Y-43574001D01*
X169531743Y-43574001D01*
X169556513Y-43578928D01*
G37*
G36*
X167016513Y-43578928D02*
G01*
X167165813Y-43608625D01*
X167329785Y-43676545D01*
X167477355Y-43775148D01*
X167602854Y-43900647D01*
X167701457Y-44048217D01*
X167769377Y-44212189D01*
X167804001Y-44386260D01*
X167804001Y-44563742D01*
X167769377Y-44737813D01*
X167701457Y-44901785D01*
X167602854Y-45049355D01*
X167477355Y-45174854D01*
X167329785Y-45273457D01*
X167165813Y-45341377D01*
X167016513Y-45371074D01*
X166991743Y-45376001D01*
X166814259Y-45376001D01*
X166789489Y-45371074D01*
X166640189Y-45341377D01*
X166476217Y-45273457D01*
X166328647Y-45174854D01*
X166203148Y-45049355D01*
X166104545Y-44901785D01*
X166036625Y-44737813D01*
X166002001Y-44563742D01*
X166002001Y-44386260D01*
X166036625Y-44212189D01*
X166104545Y-44048217D01*
X166203148Y-43900647D01*
X166328647Y-43775148D01*
X166476217Y-43676545D01*
X166640189Y-43608625D01*
X166789489Y-43578928D01*
X166814259Y-43574001D01*
X166991743Y-43574001D01*
X167016513Y-43578928D01*
G37*
G36*
X164476513Y-43578928D02*
G01*
X164625813Y-43608625D01*
X164789785Y-43676545D01*
X164937355Y-43775148D01*
X165062854Y-43900647D01*
X165161457Y-44048217D01*
X165229377Y-44212189D01*
X165264001Y-44386260D01*
X165264001Y-44563742D01*
X165229377Y-44737813D01*
X165161457Y-44901785D01*
X165062854Y-45049355D01*
X164937355Y-45174854D01*
X164789785Y-45273457D01*
X164625813Y-45341377D01*
X164476513Y-45371074D01*
X164451743Y-45376001D01*
X164274259Y-45376001D01*
X164249489Y-45371074D01*
X164100189Y-45341377D01*
X163936217Y-45273457D01*
X163788647Y-45174854D01*
X163663148Y-45049355D01*
X163564545Y-44901785D01*
X163496625Y-44737813D01*
X163462001Y-44563742D01*
X163462001Y-44386260D01*
X163496625Y-44212189D01*
X163564545Y-44048217D01*
X163663148Y-43900647D01*
X163788647Y-43775148D01*
X163936217Y-43676545D01*
X164100189Y-43608625D01*
X164249489Y-43578928D01*
X164274259Y-43574001D01*
X164451743Y-43574001D01*
X164476513Y-43578928D01*
G37*
G36*
X161936513Y-43578928D02*
G01*
X162085813Y-43608625D01*
X162249785Y-43676545D01*
X162397355Y-43775148D01*
X162522854Y-43900647D01*
X162621457Y-44048217D01*
X162689377Y-44212189D01*
X162724001Y-44386260D01*
X162724001Y-44563742D01*
X162689377Y-44737813D01*
X162621457Y-44901785D01*
X162522854Y-45049355D01*
X162397355Y-45174854D01*
X162249785Y-45273457D01*
X162085813Y-45341377D01*
X161936513Y-45371074D01*
X161911743Y-45376001D01*
X161734259Y-45376001D01*
X161709489Y-45371074D01*
X161560189Y-45341377D01*
X161396217Y-45273457D01*
X161248647Y-45174854D01*
X161123148Y-45049355D01*
X161024545Y-44901785D01*
X160956625Y-44737813D01*
X160922001Y-44563742D01*
X160922001Y-44386260D01*
X160956625Y-44212189D01*
X161024545Y-44048217D01*
X161123148Y-43900647D01*
X161248647Y-43775148D01*
X161396217Y-43676545D01*
X161560189Y-43608625D01*
X161709489Y-43578928D01*
X161734259Y-43574001D01*
X161911743Y-43574001D01*
X161936513Y-43578928D01*
G37*
G36*
X159396513Y-43578928D02*
G01*
X159545813Y-43608625D01*
X159709785Y-43676545D01*
X159857355Y-43775148D01*
X159982854Y-43900647D01*
X160081457Y-44048217D01*
X160149377Y-44212189D01*
X160184001Y-44386260D01*
X160184001Y-44563742D01*
X160149377Y-44737813D01*
X160081457Y-44901785D01*
X159982854Y-45049355D01*
X159857355Y-45174854D01*
X159709785Y-45273457D01*
X159545813Y-45341377D01*
X159396513Y-45371074D01*
X159371743Y-45376001D01*
X159194259Y-45376001D01*
X159169489Y-45371074D01*
X159020189Y-45341377D01*
X158856217Y-45273457D01*
X158708647Y-45174854D01*
X158583148Y-45049355D01*
X158484545Y-44901785D01*
X158416625Y-44737813D01*
X158382001Y-44563742D01*
X158382001Y-44386260D01*
X158416625Y-44212189D01*
X158484545Y-44048217D01*
X158583148Y-43900647D01*
X158708647Y-43775148D01*
X158856217Y-43676545D01*
X159020189Y-43608625D01*
X159169489Y-43578928D01*
X159194259Y-43574001D01*
X159371743Y-43574001D01*
X159396513Y-43578928D01*
G37*
G36*
X156856513Y-43578928D02*
G01*
X157005813Y-43608625D01*
X157169785Y-43676545D01*
X157317355Y-43775148D01*
X157442854Y-43900647D01*
X157541457Y-44048217D01*
X157609377Y-44212189D01*
X157644001Y-44386260D01*
X157644001Y-44563742D01*
X157609377Y-44737813D01*
X157541457Y-44901785D01*
X157442854Y-45049355D01*
X157317355Y-45174854D01*
X157169785Y-45273457D01*
X157005813Y-45341377D01*
X156856513Y-45371074D01*
X156831743Y-45376001D01*
X156654259Y-45376001D01*
X156629489Y-45371074D01*
X156480189Y-45341377D01*
X156316217Y-45273457D01*
X156168647Y-45174854D01*
X156043148Y-45049355D01*
X155944545Y-44901785D01*
X155876625Y-44737813D01*
X155842001Y-44563742D01*
X155842001Y-44386260D01*
X155876625Y-44212189D01*
X155944545Y-44048217D01*
X156043148Y-43900647D01*
X156168647Y-43775148D01*
X156316217Y-43676545D01*
X156480189Y-43608625D01*
X156629489Y-43578928D01*
X156654259Y-43574001D01*
X156831743Y-43574001D01*
X156856513Y-43578928D01*
G37*
G36*
X154316513Y-43578928D02*
G01*
X154465813Y-43608625D01*
X154629785Y-43676545D01*
X154777355Y-43775148D01*
X154902854Y-43900647D01*
X155001457Y-44048217D01*
X155069377Y-44212189D01*
X155104001Y-44386260D01*
X155104001Y-44563742D01*
X155069377Y-44737813D01*
X155001457Y-44901785D01*
X154902854Y-45049355D01*
X154777355Y-45174854D01*
X154629785Y-45273457D01*
X154465813Y-45341377D01*
X154316513Y-45371074D01*
X154291743Y-45376001D01*
X154114259Y-45376001D01*
X154089489Y-45371074D01*
X153940189Y-45341377D01*
X153776217Y-45273457D01*
X153628647Y-45174854D01*
X153503148Y-45049355D01*
X153404545Y-44901785D01*
X153336625Y-44737813D01*
X153302001Y-44563742D01*
X153302001Y-44386260D01*
X153336625Y-44212189D01*
X153404545Y-44048217D01*
X153503148Y-43900647D01*
X153628647Y-43775148D01*
X153776217Y-43676545D01*
X153940189Y-43608625D01*
X154089489Y-43578928D01*
X154114259Y-43574001D01*
X154291743Y-43574001D01*
X154316513Y-43578928D01*
G37*
G36*
X151776513Y-43578928D02*
G01*
X151925813Y-43608625D01*
X152089785Y-43676545D01*
X152237355Y-43775148D01*
X152362854Y-43900647D01*
X152461457Y-44048217D01*
X152529377Y-44212189D01*
X152564001Y-44386260D01*
X152564001Y-44563742D01*
X152529377Y-44737813D01*
X152461457Y-44901785D01*
X152362854Y-45049355D01*
X152237355Y-45174854D01*
X152089785Y-45273457D01*
X151925813Y-45341377D01*
X151776513Y-45371074D01*
X151751743Y-45376001D01*
X151574259Y-45376001D01*
X151549489Y-45371074D01*
X151400189Y-45341377D01*
X151236217Y-45273457D01*
X151088647Y-45174854D01*
X150963148Y-45049355D01*
X150864545Y-44901785D01*
X150796625Y-44737813D01*
X150762001Y-44563742D01*
X150762001Y-44386260D01*
X150796625Y-44212189D01*
X150864545Y-44048217D01*
X150963148Y-43900647D01*
X151088647Y-43775148D01*
X151236217Y-43676545D01*
X151400189Y-43608625D01*
X151549489Y-43578928D01*
X151574259Y-43574001D01*
X151751743Y-43574001D01*
X151776513Y-43578928D01*
G37*
G36*
X174636513Y-43578928D02*
G01*
X174785813Y-43608625D01*
X174949785Y-43676545D01*
X175097355Y-43775148D01*
X175222854Y-43900647D01*
X175321457Y-44048217D01*
X175389377Y-44212189D01*
X175424001Y-44386260D01*
X175424001Y-44563742D01*
X175389377Y-44737813D01*
X175321457Y-44901785D01*
X175222854Y-45049355D01*
X175097355Y-45174854D01*
X174949785Y-45273457D01*
X174785813Y-45341377D01*
X174636513Y-45371074D01*
X174611743Y-45376001D01*
X174434259Y-45376001D01*
X174409489Y-45371074D01*
X174260189Y-45341377D01*
X174096217Y-45273457D01*
X173948647Y-45174854D01*
X173823148Y-45049355D01*
X173724545Y-44901785D01*
X173656625Y-44737813D01*
X173622001Y-44563742D01*
X173622001Y-44386260D01*
X173656625Y-44212189D01*
X173724545Y-44048217D01*
X173823148Y-43900647D01*
X173948647Y-43775148D01*
X174096217Y-43676545D01*
X174260189Y-43608625D01*
X174409489Y-43578928D01*
X174434259Y-43574001D01*
X174611743Y-43574001D01*
X174636513Y-43578928D01*
G37*
M02*
