G04 #@! TF.GenerationSoftware,KiCad,Pcbnew,(5.1.8)-1*
G04 #@! TF.CreationDate,2020-12-14T14:55:13-06:00*
G04 #@! TF.ProjectId,MultimediaAndBlackBoxBoard,4d756c74-696d-4656-9469-61416e64426c,rev?*
G04 #@! TF.SameCoordinates,Original*
G04 #@! TF.FileFunction,Soldermask,Top*
G04 #@! TF.FilePolarity,Negative*
%FSLAX46Y46*%
G04 Gerber Fmt 4.6, Leading zero omitted, Abs format (unit mm)*
G04 Created by KiCad (PCBNEW (5.1.8)-1) date 2020-12-14 14:55:13*
%MOMM*%
%LPD*%
G01*
G04 APERTURE LIST*
%ADD10C,3.102000*%
%ADD11C,1.802000*%
%ADD12C,5.182000*%
%ADD13C,3.552000*%
%ADD14C,1.626000*%
%ADD15C,10.262000*%
%ADD16C,0.100000*%
G04 APERTURE END LIST*
D10*
X199713001Y-94745001D03*
X199713001Y-45745001D03*
X141713001Y-94745001D03*
X141713001Y-45745001D03*
D11*
X194843001Y-44475001D03*
X194843001Y-47015001D03*
X192303001Y-44475001D03*
X192303001Y-47015001D03*
X189763001Y-44475001D03*
X189763001Y-47015001D03*
X187223001Y-44475001D03*
X187223001Y-47015001D03*
X184683001Y-44475001D03*
X184683001Y-47015001D03*
X182143001Y-44475001D03*
X182143001Y-47015001D03*
X179603001Y-44475001D03*
X179603001Y-47015001D03*
X177063001Y-44475001D03*
X177063001Y-47015001D03*
X174523001Y-44475001D03*
X174523001Y-47015001D03*
X171983001Y-44475001D03*
X171983001Y-47015001D03*
X169443001Y-44475001D03*
X169443001Y-47015001D03*
X166903001Y-44475001D03*
X166903001Y-47015001D03*
X164363001Y-44475001D03*
X164363001Y-47015001D03*
X161823001Y-44475001D03*
X161823001Y-47015001D03*
X159283001Y-44475001D03*
X159283001Y-47015001D03*
X156743001Y-44475001D03*
X156743001Y-47015001D03*
X154203001Y-44475001D03*
X154203001Y-47015001D03*
X151663001Y-44475001D03*
X151663001Y-47015001D03*
X149123001Y-44475001D03*
X149123001Y-47015001D03*
X146583001Y-44475001D03*
X146583001Y-47015001D03*
D12*
X114046000Y-73406000D03*
X114046000Y-81280000D03*
X114046000Y-89154000D03*
D13*
X197866000Y-67820000D03*
D14*
X189230000Y-66677000D03*
X189230000Y-64137000D03*
D13*
X197870000Y-62992000D03*
X197866000Y-77343000D03*
D14*
X189230000Y-76200000D03*
X189230000Y-73660000D03*
D13*
X197870000Y-72515000D03*
X131826000Y-47244000D03*
X124206000Y-47244000D03*
D14*
X130556000Y-55880000D03*
X128016000Y-55880000D03*
X125476000Y-55880000D03*
D15*
X105918000Y-55626000D03*
G36*
G01*
X109093000Y-49327000D02*
X102743000Y-49327000D01*
G75*
G02*
X102692000Y-49276000I0J51000D01*
G01*
X102692000Y-46736000D01*
G75*
G02*
X102743000Y-46685000I51000J0D01*
G01*
X109093000Y-46685000D01*
G75*
G02*
X109144000Y-46736000I0J-51000D01*
G01*
X109144000Y-49276000D01*
G75*
G02*
X109093000Y-49327000I-51000J0D01*
G01*
G37*
G36*
G01*
X109093000Y-64567000D02*
X102743000Y-64567000D01*
G75*
G02*
X102692000Y-64516000I0J51000D01*
G01*
X102692000Y-61976000D01*
G75*
G02*
X102743000Y-61925000I51000J0D01*
G01*
X109093000Y-61925000D01*
G75*
G02*
X109144000Y-61976000I0J-51000D01*
G01*
X109144000Y-64516000D01*
G75*
G02*
X109093000Y-64567000I-51000J0D01*
G01*
G37*
G36*
G01*
X163331000Y-74490000D02*
X162805000Y-74490000D01*
G75*
G02*
X162542000Y-74227000I0J263000D01*
G01*
X162542000Y-73601000D01*
G75*
G02*
X162805000Y-73338000I263000J0D01*
G01*
X163331000Y-73338000D01*
G75*
G02*
X163594000Y-73601000I0J-263000D01*
G01*
X163594000Y-74227000D01*
G75*
G02*
X163331000Y-74490000I-263000J0D01*
G01*
G37*
G36*
G01*
X163331000Y-76240000D02*
X162805000Y-76240000D01*
G75*
G02*
X162542000Y-75977000I0J263000D01*
G01*
X162542000Y-75351000D01*
G75*
G02*
X162805000Y-75088000I263000J0D01*
G01*
X163331000Y-75088000D01*
G75*
G02*
X163594000Y-75351000I0J-263000D01*
G01*
X163594000Y-75977000D01*
G75*
G02*
X163331000Y-76240000I-263000J0D01*
G01*
G37*
G36*
G01*
X148091000Y-74490000D02*
X147565000Y-74490000D01*
G75*
G02*
X147302000Y-74227000I0J263000D01*
G01*
X147302000Y-73601000D01*
G75*
G02*
X147565000Y-73338000I263000J0D01*
G01*
X148091000Y-73338000D01*
G75*
G02*
X148354000Y-73601000I0J-263000D01*
G01*
X148354000Y-74227000D01*
G75*
G02*
X148091000Y-74490000I-263000J0D01*
G01*
G37*
G36*
G01*
X148091000Y-76240000D02*
X147565000Y-76240000D01*
G75*
G02*
X147302000Y-75977000I0J263000D01*
G01*
X147302000Y-75351000D01*
G75*
G02*
X147565000Y-75088000I263000J0D01*
G01*
X148091000Y-75088000D01*
G75*
G02*
X148354000Y-75351000I0J-263000D01*
G01*
X148354000Y-75977000D01*
G75*
G02*
X148091000Y-76240000I-263000J0D01*
G01*
G37*
G36*
G01*
X144535000Y-74518000D02*
X144009000Y-74518000D01*
G75*
G02*
X143746000Y-74255000I0J263000D01*
G01*
X143746000Y-73629000D01*
G75*
G02*
X144009000Y-73366000I263000J0D01*
G01*
X144535000Y-73366000D01*
G75*
G02*
X144798000Y-73629000I0J-263000D01*
G01*
X144798000Y-74255000D01*
G75*
G02*
X144535000Y-74518000I-263000J0D01*
G01*
G37*
G36*
G01*
X144535000Y-76268000D02*
X144009000Y-76268000D01*
G75*
G02*
X143746000Y-76005000I0J263000D01*
G01*
X143746000Y-75379000D01*
G75*
G02*
X144009000Y-75116000I263000J0D01*
G01*
X144535000Y-75116000D01*
G75*
G02*
X144798000Y-75379000I0J-263000D01*
G01*
X144798000Y-76005000D01*
G75*
G02*
X144535000Y-76268000I-263000J0D01*
G01*
G37*
G36*
G01*
X156092000Y-74553500D02*
X155566000Y-74553500D01*
G75*
G02*
X155303000Y-74290500I0J263000D01*
G01*
X155303000Y-73664500D01*
G75*
G02*
X155566000Y-73401500I263000J0D01*
G01*
X156092000Y-73401500D01*
G75*
G02*
X156355000Y-73664500I0J-263000D01*
G01*
X156355000Y-74290500D01*
G75*
G02*
X156092000Y-74553500I-263000J0D01*
G01*
G37*
G36*
G01*
X156092000Y-76303500D02*
X155566000Y-76303500D01*
G75*
G02*
X155303000Y-76040500I0J263000D01*
G01*
X155303000Y-75414500D01*
G75*
G02*
X155566000Y-75151500I263000J0D01*
G01*
X156092000Y-75151500D01*
G75*
G02*
X156355000Y-75414500I0J-263000D01*
G01*
X156355000Y-76040500D01*
G75*
G02*
X156092000Y-76303500I-263000J0D01*
G01*
G37*
G36*
G01*
X152282000Y-74553500D02*
X151756000Y-74553500D01*
G75*
G02*
X151493000Y-74290500I0J263000D01*
G01*
X151493000Y-73664500D01*
G75*
G02*
X151756000Y-73401500I263000J0D01*
G01*
X152282000Y-73401500D01*
G75*
G02*
X152545000Y-73664500I0J-263000D01*
G01*
X152545000Y-74290500D01*
G75*
G02*
X152282000Y-74553500I-263000J0D01*
G01*
G37*
G36*
G01*
X152282000Y-76303500D02*
X151756000Y-76303500D01*
G75*
G02*
X151493000Y-76040500I0J263000D01*
G01*
X151493000Y-75414500D01*
G75*
G02*
X151756000Y-75151500I263000J0D01*
G01*
X152282000Y-75151500D01*
G75*
G02*
X152545000Y-75414500I0J-263000D01*
G01*
X152545000Y-76040500D01*
G75*
G02*
X152282000Y-76303500I-263000J0D01*
G01*
G37*
G36*
G01*
X167141000Y-74490000D02*
X166615000Y-74490000D01*
G75*
G02*
X166352000Y-74227000I0J263000D01*
G01*
X166352000Y-73601000D01*
G75*
G02*
X166615000Y-73338000I263000J0D01*
G01*
X167141000Y-73338000D01*
G75*
G02*
X167404000Y-73601000I0J-263000D01*
G01*
X167404000Y-74227000D01*
G75*
G02*
X167141000Y-74490000I-263000J0D01*
G01*
G37*
G36*
G01*
X167141000Y-76240000D02*
X166615000Y-76240000D01*
G75*
G02*
X166352000Y-75977000I0J263000D01*
G01*
X166352000Y-75351000D01*
G75*
G02*
X166615000Y-75088000I263000J0D01*
G01*
X167141000Y-75088000D01*
G75*
G02*
X167404000Y-75351000I0J-263000D01*
G01*
X167404000Y-75977000D01*
G75*
G02*
X167141000Y-76240000I-263000J0D01*
G01*
G37*
G36*
G01*
X170506500Y-74490000D02*
X169980500Y-74490000D01*
G75*
G02*
X169717500Y-74227000I0J263000D01*
G01*
X169717500Y-73601000D01*
G75*
G02*
X169980500Y-73338000I263000J0D01*
G01*
X170506500Y-73338000D01*
G75*
G02*
X170769500Y-73601000I0J-263000D01*
G01*
X170769500Y-74227000D01*
G75*
G02*
X170506500Y-74490000I-263000J0D01*
G01*
G37*
G36*
G01*
X170506500Y-76240000D02*
X169980500Y-76240000D01*
G75*
G02*
X169717500Y-75977000I0J263000D01*
G01*
X169717500Y-75351000D01*
G75*
G02*
X169980500Y-75088000I263000J0D01*
G01*
X170506500Y-75088000D01*
G75*
G02*
X170769500Y-75351000I0J-263000D01*
G01*
X170769500Y-75977000D01*
G75*
G02*
X170506500Y-76240000I-263000J0D01*
G01*
G37*
D14*
X125476000Y-65532000D03*
X125476000Y-68072000D03*
X125476000Y-70612000D03*
X130556000Y-81280000D03*
X128016000Y-81280000D03*
X125476000Y-81280000D03*
G36*
G01*
X181989000Y-71425000D02*
X181989000Y-74625000D01*
G75*
G02*
X181938000Y-74676000I-51000J0D01*
G01*
X179538000Y-74676000D01*
G75*
G02*
X179487000Y-74625000I0J51000D01*
G01*
X179487000Y-71425000D01*
G75*
G02*
X179538000Y-71374000I51000J0D01*
G01*
X181938000Y-71374000D01*
G75*
G02*
X181989000Y-71425000I0J-51000D01*
G01*
G37*
G36*
G01*
X178939000Y-74754500D02*
X178939000Y-75105500D01*
G75*
G02*
X178763500Y-75281000I-175500J0D01*
G01*
X177412500Y-75281000D01*
G75*
G02*
X177237000Y-75105500I0J175500D01*
G01*
X177237000Y-74754500D01*
G75*
G02*
X177412500Y-74579000I175500J0D01*
G01*
X178763500Y-74579000D01*
G75*
G02*
X178939000Y-74754500I0J-175500D01*
G01*
G37*
G36*
G01*
X178939000Y-73484500D02*
X178939000Y-73835500D01*
G75*
G02*
X178763500Y-74011000I-175500J0D01*
G01*
X177412500Y-74011000D01*
G75*
G02*
X177237000Y-73835500I0J175500D01*
G01*
X177237000Y-73484500D01*
G75*
G02*
X177412500Y-73309000I175500J0D01*
G01*
X178763500Y-73309000D01*
G75*
G02*
X178939000Y-73484500I0J-175500D01*
G01*
G37*
G36*
G01*
X178939000Y-72214500D02*
X178939000Y-72565500D01*
G75*
G02*
X178763500Y-72741000I-175500J0D01*
G01*
X177412500Y-72741000D01*
G75*
G02*
X177237000Y-72565500I0J175500D01*
G01*
X177237000Y-72214500D01*
G75*
G02*
X177412500Y-72039000I175500J0D01*
G01*
X178763500Y-72039000D01*
G75*
G02*
X178939000Y-72214500I0J-175500D01*
G01*
G37*
G36*
G01*
X178939000Y-70944500D02*
X178939000Y-71295500D01*
G75*
G02*
X178763500Y-71471000I-175500J0D01*
G01*
X177412500Y-71471000D01*
G75*
G02*
X177237000Y-71295500I0J175500D01*
G01*
X177237000Y-70944500D01*
G75*
G02*
X177412500Y-70769000I175500J0D01*
G01*
X178763500Y-70769000D01*
G75*
G02*
X178939000Y-70944500I0J-175500D01*
G01*
G37*
G36*
G01*
X184239000Y-70944500D02*
X184239000Y-71295500D01*
G75*
G02*
X184063500Y-71471000I-175500J0D01*
G01*
X182712500Y-71471000D01*
G75*
G02*
X182537000Y-71295500I0J175500D01*
G01*
X182537000Y-70944500D01*
G75*
G02*
X182712500Y-70769000I175500J0D01*
G01*
X184063500Y-70769000D01*
G75*
G02*
X184239000Y-70944500I0J-175500D01*
G01*
G37*
G36*
G01*
X184239000Y-72214500D02*
X184239000Y-72565500D01*
G75*
G02*
X184063500Y-72741000I-175500J0D01*
G01*
X182712500Y-72741000D01*
G75*
G02*
X182537000Y-72565500I0J175500D01*
G01*
X182537000Y-72214500D01*
G75*
G02*
X182712500Y-72039000I175500J0D01*
G01*
X184063500Y-72039000D01*
G75*
G02*
X184239000Y-72214500I0J-175500D01*
G01*
G37*
G36*
G01*
X184239000Y-73484500D02*
X184239000Y-73835500D01*
G75*
G02*
X184063500Y-74011000I-175500J0D01*
G01*
X182712500Y-74011000D01*
G75*
G02*
X182537000Y-73835500I0J175500D01*
G01*
X182537000Y-73484500D01*
G75*
G02*
X182712500Y-73309000I175500J0D01*
G01*
X184063500Y-73309000D01*
G75*
G02*
X184239000Y-73484500I0J-175500D01*
G01*
G37*
G36*
G01*
X184239000Y-74754500D02*
X184239000Y-75105500D01*
G75*
G02*
X184063500Y-75281000I-175500J0D01*
G01*
X182712500Y-75281000D01*
G75*
G02*
X182537000Y-75105500I0J175500D01*
G01*
X182537000Y-74754500D01*
G75*
G02*
X182712500Y-74579000I175500J0D01*
G01*
X184063500Y-74579000D01*
G75*
G02*
X184239000Y-74754500I0J-175500D01*
G01*
G37*
G36*
G01*
X148765500Y-57733000D02*
X148414500Y-57733000D01*
G75*
G02*
X148239000Y-57557500I0J175500D01*
G01*
X148239000Y-55856500D01*
G75*
G02*
X148414500Y-55681000I175500J0D01*
G01*
X148765500Y-55681000D01*
G75*
G02*
X148941000Y-55856500I0J-175500D01*
G01*
X148941000Y-57557500D01*
G75*
G02*
X148765500Y-57733000I-175500J0D01*
G01*
G37*
G36*
G01*
X150035500Y-57733000D02*
X149684500Y-57733000D01*
G75*
G02*
X149509000Y-57557500I0J175500D01*
G01*
X149509000Y-55856500D01*
G75*
G02*
X149684500Y-55681000I175500J0D01*
G01*
X150035500Y-55681000D01*
G75*
G02*
X150211000Y-55856500I0J-175500D01*
G01*
X150211000Y-57557500D01*
G75*
G02*
X150035500Y-57733000I-175500J0D01*
G01*
G37*
G36*
G01*
X151305500Y-57733000D02*
X150954500Y-57733000D01*
G75*
G02*
X150779000Y-57557500I0J175500D01*
G01*
X150779000Y-55856500D01*
G75*
G02*
X150954500Y-55681000I175500J0D01*
G01*
X151305500Y-55681000D01*
G75*
G02*
X151481000Y-55856500I0J-175500D01*
G01*
X151481000Y-57557500D01*
G75*
G02*
X151305500Y-57733000I-175500J0D01*
G01*
G37*
G36*
G01*
X152575500Y-57733000D02*
X152224500Y-57733000D01*
G75*
G02*
X152049000Y-57557500I0J175500D01*
G01*
X152049000Y-55856500D01*
G75*
G02*
X152224500Y-55681000I175500J0D01*
G01*
X152575500Y-55681000D01*
G75*
G02*
X152751000Y-55856500I0J-175500D01*
G01*
X152751000Y-57557500D01*
G75*
G02*
X152575500Y-57733000I-175500J0D01*
G01*
G37*
G36*
G01*
X152575500Y-62683000D02*
X152224500Y-62683000D01*
G75*
G02*
X152049000Y-62507500I0J175500D01*
G01*
X152049000Y-60806500D01*
G75*
G02*
X152224500Y-60631000I175500J0D01*
G01*
X152575500Y-60631000D01*
G75*
G02*
X152751000Y-60806500I0J-175500D01*
G01*
X152751000Y-62507500D01*
G75*
G02*
X152575500Y-62683000I-175500J0D01*
G01*
G37*
G36*
G01*
X151305500Y-62683000D02*
X150954500Y-62683000D01*
G75*
G02*
X150779000Y-62507500I0J175500D01*
G01*
X150779000Y-60806500D01*
G75*
G02*
X150954500Y-60631000I175500J0D01*
G01*
X151305500Y-60631000D01*
G75*
G02*
X151481000Y-60806500I0J-175500D01*
G01*
X151481000Y-62507500D01*
G75*
G02*
X151305500Y-62683000I-175500J0D01*
G01*
G37*
G36*
G01*
X150035500Y-62683000D02*
X149684500Y-62683000D01*
G75*
G02*
X149509000Y-62507500I0J175500D01*
G01*
X149509000Y-60806500D01*
G75*
G02*
X149684500Y-60631000I175500J0D01*
G01*
X150035500Y-60631000D01*
G75*
G02*
X150211000Y-60806500I0J-175500D01*
G01*
X150211000Y-62507500D01*
G75*
G02*
X150035500Y-62683000I-175500J0D01*
G01*
G37*
G36*
G01*
X148765500Y-62683000D02*
X148414500Y-62683000D01*
G75*
G02*
X148239000Y-62507500I0J175500D01*
G01*
X148239000Y-60806500D01*
G75*
G02*
X148414500Y-60631000I175500J0D01*
G01*
X148765500Y-60631000D01*
G75*
G02*
X148941000Y-60806500I0J-175500D01*
G01*
X148941000Y-62507500D01*
G75*
G02*
X148765500Y-62683000I-175500J0D01*
G01*
G37*
G36*
G01*
X146809000Y-65416000D02*
X146809000Y-63616000D01*
G75*
G02*
X146860000Y-63565000I51000J0D01*
G01*
X147860000Y-63565000D01*
G75*
G02*
X147911000Y-63616000I0J-51000D01*
G01*
X147911000Y-65416000D01*
G75*
G02*
X147860000Y-65467000I-51000J0D01*
G01*
X146860000Y-65467000D01*
G75*
G02*
X146809000Y-65416000I0J51000D01*
G01*
G37*
G36*
G01*
X149309000Y-65416000D02*
X149309000Y-63616000D01*
G75*
G02*
X149360000Y-63565000I51000J0D01*
G01*
X150360000Y-63565000D01*
G75*
G02*
X150411000Y-63616000I0J-51000D01*
G01*
X150411000Y-65416000D01*
G75*
G02*
X150360000Y-65467000I-51000J0D01*
G01*
X149360000Y-65467000D01*
G75*
G02*
X149309000Y-65416000I0J51000D01*
G01*
G37*
G36*
G01*
X159775000Y-74553500D02*
X159249000Y-74553500D01*
G75*
G02*
X158986000Y-74290500I0J263000D01*
G01*
X158986000Y-73664500D01*
G75*
G02*
X159249000Y-73401500I263000J0D01*
G01*
X159775000Y-73401500D01*
G75*
G02*
X160038000Y-73664500I0J-263000D01*
G01*
X160038000Y-74290500D01*
G75*
G02*
X159775000Y-74553500I-263000J0D01*
G01*
G37*
G36*
G01*
X159775000Y-76303500D02*
X159249000Y-76303500D01*
G75*
G02*
X158986000Y-76040500I0J263000D01*
G01*
X158986000Y-75414500D01*
G75*
G02*
X159249000Y-75151500I263000J0D01*
G01*
X159775000Y-75151500D01*
G75*
G02*
X160038000Y-75414500I0J-263000D01*
G01*
X160038000Y-76040500D01*
G75*
G02*
X159775000Y-76303500I-263000J0D01*
G01*
G37*
G36*
G01*
X126625000Y-74939000D02*
X126625000Y-74413000D01*
G75*
G02*
X126888000Y-74150000I263000J0D01*
G01*
X127539000Y-74150000D01*
G75*
G02*
X127802000Y-74413000I0J-263000D01*
G01*
X127802000Y-74939000D01*
G75*
G02*
X127539000Y-75202000I-263000J0D01*
G01*
X126888000Y-75202000D01*
G75*
G02*
X126625000Y-74939000I0J263000D01*
G01*
G37*
G36*
G01*
X124900000Y-74939000D02*
X124900000Y-74413000D01*
G75*
G02*
X125163000Y-74150000I263000J0D01*
G01*
X125814000Y-74150000D01*
G75*
G02*
X126077000Y-74413000I0J-263000D01*
G01*
X126077000Y-74939000D01*
G75*
G02*
X125814000Y-75202000I-263000J0D01*
G01*
X125163000Y-75202000D01*
G75*
G02*
X124900000Y-74939000I0J263000D01*
G01*
G37*
G36*
G01*
X121675000Y-64383000D02*
X121149000Y-64383000D01*
G75*
G02*
X120886000Y-64120000I0J263000D01*
G01*
X120886000Y-63469000D01*
G75*
G02*
X121149000Y-63206000I263000J0D01*
G01*
X121675000Y-63206000D01*
G75*
G02*
X121938000Y-63469000I0J-263000D01*
G01*
X121938000Y-64120000D01*
G75*
G02*
X121675000Y-64383000I-263000J0D01*
G01*
G37*
G36*
G01*
X121675000Y-66108000D02*
X121149000Y-66108000D01*
G75*
G02*
X120886000Y-65845000I0J263000D01*
G01*
X120886000Y-65194000D01*
G75*
G02*
X121149000Y-64931000I263000J0D01*
G01*
X121675000Y-64931000D01*
G75*
G02*
X121938000Y-65194000I0J-263000D01*
G01*
X121938000Y-65845000D01*
G75*
G02*
X121675000Y-66108000I-263000J0D01*
G01*
G37*
G36*
G01*
X126625000Y-76717000D02*
X126625000Y-76191000D01*
G75*
G02*
X126888000Y-75928000I263000J0D01*
G01*
X127539000Y-75928000D01*
G75*
G02*
X127802000Y-76191000I0J-263000D01*
G01*
X127802000Y-76717000D01*
G75*
G02*
X127539000Y-76980000I-263000J0D01*
G01*
X126888000Y-76980000D01*
G75*
G02*
X126625000Y-76717000I0J263000D01*
G01*
G37*
G36*
G01*
X124900000Y-76717000D02*
X124900000Y-76191000D01*
G75*
G02*
X125163000Y-75928000I263000J0D01*
G01*
X125814000Y-75928000D01*
G75*
G02*
X126077000Y-76191000I0J-263000D01*
G01*
X126077000Y-76717000D01*
G75*
G02*
X125814000Y-76980000I-263000J0D01*
G01*
X125163000Y-76980000D01*
G75*
G02*
X124900000Y-76717000I0J263000D01*
G01*
G37*
G36*
G01*
X131705000Y-77987000D02*
X131705000Y-77461000D01*
G75*
G02*
X131968000Y-77198000I263000J0D01*
G01*
X132619000Y-77198000D01*
G75*
G02*
X132882000Y-77461000I0J-263000D01*
G01*
X132882000Y-77987000D01*
G75*
G02*
X132619000Y-78250000I-263000J0D01*
G01*
X131968000Y-78250000D01*
G75*
G02*
X131705000Y-77987000I0J263000D01*
G01*
G37*
G36*
G01*
X129980000Y-77987000D02*
X129980000Y-77461000D01*
G75*
G02*
X130243000Y-77198000I263000J0D01*
G01*
X130894000Y-77198000D01*
G75*
G02*
X131157000Y-77461000I0J-263000D01*
G01*
X131157000Y-77987000D01*
G75*
G02*
X130894000Y-78250000I-263000J0D01*
G01*
X130243000Y-78250000D01*
G75*
G02*
X129980000Y-77987000I0J263000D01*
G01*
G37*
G36*
G01*
X145155000Y-54093000D02*
X145155000Y-54619000D01*
G75*
G02*
X144892000Y-54882000I-263000J0D01*
G01*
X144241000Y-54882000D01*
G75*
G02*
X143978000Y-54619000I0J263000D01*
G01*
X143978000Y-54093000D01*
G75*
G02*
X144241000Y-53830000I263000J0D01*
G01*
X144892000Y-53830000D01*
G75*
G02*
X145155000Y-54093000I0J-263000D01*
G01*
G37*
G36*
G01*
X146880000Y-54093000D02*
X146880000Y-54619000D01*
G75*
G02*
X146617000Y-54882000I-263000J0D01*
G01*
X145966000Y-54882000D01*
G75*
G02*
X145703000Y-54619000I0J263000D01*
G01*
X145703000Y-54093000D01*
G75*
G02*
X145966000Y-53830000I263000J0D01*
G01*
X146617000Y-53830000D01*
G75*
G02*
X146880000Y-54093000I0J-263000D01*
G01*
G37*
G36*
G01*
X175267000Y-72653000D02*
X175267000Y-72127000D01*
G75*
G02*
X175530000Y-71864000I263000J0D01*
G01*
X176081000Y-71864000D01*
G75*
G02*
X176344000Y-72127000I0J-263000D01*
G01*
X176344000Y-72653000D01*
G75*
G02*
X176081000Y-72916000I-263000J0D01*
G01*
X175530000Y-72916000D01*
G75*
G02*
X175267000Y-72653000I0J263000D01*
G01*
G37*
G36*
G01*
X173442000Y-72653000D02*
X173442000Y-72127000D01*
G75*
G02*
X173705000Y-71864000I263000J0D01*
G01*
X174256000Y-71864000D01*
G75*
G02*
X174519000Y-72127000I0J-263000D01*
G01*
X174519000Y-72653000D01*
G75*
G02*
X174256000Y-72916000I-263000J0D01*
G01*
X173705000Y-72916000D01*
G75*
G02*
X173442000Y-72653000I0J263000D01*
G01*
G37*
G36*
G01*
X149839000Y-52841000D02*
X149839000Y-52315000D01*
G75*
G02*
X150102000Y-52052000I263000J0D01*
G01*
X150653000Y-52052000D01*
G75*
G02*
X150916000Y-52315000I0J-263000D01*
G01*
X150916000Y-52841000D01*
G75*
G02*
X150653000Y-53104000I-263000J0D01*
G01*
X150102000Y-53104000D01*
G75*
G02*
X149839000Y-52841000I0J263000D01*
G01*
G37*
G36*
G01*
X148014000Y-52841000D02*
X148014000Y-52315000D01*
G75*
G02*
X148277000Y-52052000I263000J0D01*
G01*
X148828000Y-52052000D01*
G75*
G02*
X149091000Y-52315000I0J-263000D01*
G01*
X149091000Y-52841000D01*
G75*
G02*
X148828000Y-53104000I-263000J0D01*
G01*
X148277000Y-53104000D01*
G75*
G02*
X148014000Y-52841000I0J263000D01*
G01*
G37*
G36*
G01*
X149839000Y-54619000D02*
X149839000Y-54093000D01*
G75*
G02*
X150102000Y-53830000I263000J0D01*
G01*
X150653000Y-53830000D01*
G75*
G02*
X150916000Y-54093000I0J-263000D01*
G01*
X150916000Y-54619000D01*
G75*
G02*
X150653000Y-54882000I-263000J0D01*
G01*
X150102000Y-54882000D01*
G75*
G02*
X149839000Y-54619000I0J263000D01*
G01*
G37*
G36*
G01*
X148014000Y-54619000D02*
X148014000Y-54093000D01*
G75*
G02*
X148277000Y-53830000I263000J0D01*
G01*
X148828000Y-53830000D01*
G75*
G02*
X149091000Y-54093000I0J-263000D01*
G01*
X149091000Y-54619000D01*
G75*
G02*
X148828000Y-54882000I-263000J0D01*
G01*
X148277000Y-54882000D01*
G75*
G02*
X148014000Y-54619000I0J263000D01*
G01*
G37*
G36*
G01*
X163331000Y-70605000D02*
X162805000Y-70605000D01*
G75*
G02*
X162542000Y-70342000I0J263000D01*
G01*
X162542000Y-69791000D01*
G75*
G02*
X162805000Y-69528000I263000J0D01*
G01*
X163331000Y-69528000D01*
G75*
G02*
X163594000Y-69791000I0J-263000D01*
G01*
X163594000Y-70342000D01*
G75*
G02*
X163331000Y-70605000I-263000J0D01*
G01*
G37*
G36*
G01*
X163331000Y-72430000D02*
X162805000Y-72430000D01*
G75*
G02*
X162542000Y-72167000I0J263000D01*
G01*
X162542000Y-71616000D01*
G75*
G02*
X162805000Y-71353000I263000J0D01*
G01*
X163331000Y-71353000D01*
G75*
G02*
X163594000Y-71616000I0J-263000D01*
G01*
X163594000Y-72167000D01*
G75*
G02*
X163331000Y-72430000I-263000J0D01*
G01*
G37*
G36*
G01*
X148091000Y-70605000D02*
X147565000Y-70605000D01*
G75*
G02*
X147302000Y-70342000I0J263000D01*
G01*
X147302000Y-69791000D01*
G75*
G02*
X147565000Y-69528000I263000J0D01*
G01*
X148091000Y-69528000D01*
G75*
G02*
X148354000Y-69791000I0J-263000D01*
G01*
X148354000Y-70342000D01*
G75*
G02*
X148091000Y-70605000I-263000J0D01*
G01*
G37*
G36*
G01*
X148091000Y-72430000D02*
X147565000Y-72430000D01*
G75*
G02*
X147302000Y-72167000I0J263000D01*
G01*
X147302000Y-71616000D01*
G75*
G02*
X147565000Y-71353000I263000J0D01*
G01*
X148091000Y-71353000D01*
G75*
G02*
X148354000Y-71616000I0J-263000D01*
G01*
X148354000Y-72167000D01*
G75*
G02*
X148091000Y-72430000I-263000J0D01*
G01*
G37*
G36*
G01*
X144535000Y-70633000D02*
X144009000Y-70633000D01*
G75*
G02*
X143746000Y-70370000I0J263000D01*
G01*
X143746000Y-69819000D01*
G75*
G02*
X144009000Y-69556000I263000J0D01*
G01*
X144535000Y-69556000D01*
G75*
G02*
X144798000Y-69819000I0J-263000D01*
G01*
X144798000Y-70370000D01*
G75*
G02*
X144535000Y-70633000I-263000J0D01*
G01*
G37*
G36*
G01*
X144535000Y-72458000D02*
X144009000Y-72458000D01*
G75*
G02*
X143746000Y-72195000I0J263000D01*
G01*
X143746000Y-71644000D01*
G75*
G02*
X144009000Y-71381000I263000J0D01*
G01*
X144535000Y-71381000D01*
G75*
G02*
X144798000Y-71644000I0J-263000D01*
G01*
X144798000Y-72195000D01*
G75*
G02*
X144535000Y-72458000I-263000J0D01*
G01*
G37*
G36*
G01*
X170506500Y-70605000D02*
X169980500Y-70605000D01*
G75*
G02*
X169717500Y-70342000I0J263000D01*
G01*
X169717500Y-69791000D01*
G75*
G02*
X169980500Y-69528000I263000J0D01*
G01*
X170506500Y-69528000D01*
G75*
G02*
X170769500Y-69791000I0J-263000D01*
G01*
X170769500Y-70342000D01*
G75*
G02*
X170506500Y-70605000I-263000J0D01*
G01*
G37*
G36*
G01*
X170506500Y-72430000D02*
X169980500Y-72430000D01*
G75*
G02*
X169717500Y-72167000I0J263000D01*
G01*
X169717500Y-71616000D01*
G75*
G02*
X169980500Y-71353000I263000J0D01*
G01*
X170506500Y-71353000D01*
G75*
G02*
X170769500Y-71616000I0J-263000D01*
G01*
X170769500Y-72167000D01*
G75*
G02*
X170506500Y-72430000I-263000J0D01*
G01*
G37*
G36*
G01*
X167141000Y-70605000D02*
X166615000Y-70605000D01*
G75*
G02*
X166352000Y-70342000I0J263000D01*
G01*
X166352000Y-69791000D01*
G75*
G02*
X166615000Y-69528000I263000J0D01*
G01*
X167141000Y-69528000D01*
G75*
G02*
X167404000Y-69791000I0J-263000D01*
G01*
X167404000Y-70342000D01*
G75*
G02*
X167141000Y-70605000I-263000J0D01*
G01*
G37*
G36*
G01*
X167141000Y-72430000D02*
X166615000Y-72430000D01*
G75*
G02*
X166352000Y-72167000I0J263000D01*
G01*
X166352000Y-71616000D01*
G75*
G02*
X166615000Y-71353000I263000J0D01*
G01*
X167141000Y-71353000D01*
G75*
G02*
X167404000Y-71616000I0J-263000D01*
G01*
X167404000Y-72167000D01*
G75*
G02*
X167141000Y-72430000I-263000J0D01*
G01*
G37*
G36*
G01*
X159775000Y-70642500D02*
X159249000Y-70642500D01*
G75*
G02*
X158986000Y-70379500I0J263000D01*
G01*
X158986000Y-69828500D01*
G75*
G02*
X159249000Y-69565500I263000J0D01*
G01*
X159775000Y-69565500D01*
G75*
G02*
X160038000Y-69828500I0J-263000D01*
G01*
X160038000Y-70379500D01*
G75*
G02*
X159775000Y-70642500I-263000J0D01*
G01*
G37*
G36*
G01*
X159775000Y-72467500D02*
X159249000Y-72467500D01*
G75*
G02*
X158986000Y-72204500I0J263000D01*
G01*
X158986000Y-71653500D01*
G75*
G02*
X159249000Y-71390500I263000J0D01*
G01*
X159775000Y-71390500D01*
G75*
G02*
X160038000Y-71653500I0J-263000D01*
G01*
X160038000Y-72204500D01*
G75*
G02*
X159775000Y-72467500I-263000J0D01*
G01*
G37*
G36*
G01*
X152282000Y-70668500D02*
X151756000Y-70668500D01*
G75*
G02*
X151493000Y-70405500I0J263000D01*
G01*
X151493000Y-69854500D01*
G75*
G02*
X151756000Y-69591500I263000J0D01*
G01*
X152282000Y-69591500D01*
G75*
G02*
X152545000Y-69854500I0J-263000D01*
G01*
X152545000Y-70405500D01*
G75*
G02*
X152282000Y-70668500I-263000J0D01*
G01*
G37*
G36*
G01*
X152282000Y-72493500D02*
X151756000Y-72493500D01*
G75*
G02*
X151493000Y-72230500I0J263000D01*
G01*
X151493000Y-71679500D01*
G75*
G02*
X151756000Y-71416500I263000J0D01*
G01*
X152282000Y-71416500D01*
G75*
G02*
X152545000Y-71679500I0J-263000D01*
G01*
X152545000Y-72230500D01*
G75*
G02*
X152282000Y-72493500I-263000J0D01*
G01*
G37*
G36*
G01*
X156092000Y-70668500D02*
X155566000Y-70668500D01*
G75*
G02*
X155303000Y-70405500I0J263000D01*
G01*
X155303000Y-69854500D01*
G75*
G02*
X155566000Y-69591500I263000J0D01*
G01*
X156092000Y-69591500D01*
G75*
G02*
X156355000Y-69854500I0J-263000D01*
G01*
X156355000Y-70405500D01*
G75*
G02*
X156092000Y-70668500I-263000J0D01*
G01*
G37*
G36*
G01*
X156092000Y-72493500D02*
X155566000Y-72493500D01*
G75*
G02*
X155303000Y-72230500I0J263000D01*
G01*
X155303000Y-71679500D01*
G75*
G02*
X155566000Y-71416500I263000J0D01*
G01*
X156092000Y-71416500D01*
G75*
G02*
X156355000Y-71679500I0J-263000D01*
G01*
X156355000Y-72230500D01*
G75*
G02*
X156092000Y-72493500I-263000J0D01*
G01*
G37*
G36*
G01*
X185495999Y-81097000D02*
X186106001Y-81097000D01*
G75*
G02*
X186157000Y-81147999I0J-50999D01*
G01*
X186157000Y-83118001D01*
G75*
G02*
X186106001Y-83169000I-50999J0D01*
G01*
X185495999Y-83169000D01*
G75*
G02*
X185445000Y-83118001I0J50999D01*
G01*
X185445000Y-81147999D01*
G75*
G02*
X185495999Y-81097000I50999J0D01*
G01*
G37*
G36*
G01*
X184225999Y-81097000D02*
X184836001Y-81097000D01*
G75*
G02*
X184887000Y-81147999I0J-50999D01*
G01*
X184887000Y-83118001D01*
G75*
G02*
X184836001Y-83169000I-50999J0D01*
G01*
X184225999Y-83169000D01*
G75*
G02*
X184175000Y-83118001I0J50999D01*
G01*
X184175000Y-81147999D01*
G75*
G02*
X184225999Y-81097000I50999J0D01*
G01*
G37*
G36*
G01*
X182955999Y-81097000D02*
X183566001Y-81097000D01*
G75*
G02*
X183617000Y-81147999I0J-50999D01*
G01*
X183617000Y-83118001D01*
G75*
G02*
X183566001Y-83169000I-50999J0D01*
G01*
X182955999Y-83169000D01*
G75*
G02*
X182905000Y-83118001I0J50999D01*
G01*
X182905000Y-81147999D01*
G75*
G02*
X182955999Y-81097000I50999J0D01*
G01*
G37*
G36*
G01*
X181685999Y-81097000D02*
X182296001Y-81097000D01*
G75*
G02*
X182347000Y-81147999I0J-50999D01*
G01*
X182347000Y-83118001D01*
G75*
G02*
X182296001Y-83169000I-50999J0D01*
G01*
X181685999Y-83169000D01*
G75*
G02*
X181635000Y-83118001I0J50999D01*
G01*
X181635000Y-81147999D01*
G75*
G02*
X181685999Y-81097000I50999J0D01*
G01*
G37*
G36*
G01*
X180415999Y-81097000D02*
X181026001Y-81097000D01*
G75*
G02*
X181077000Y-81147999I0J-50999D01*
G01*
X181077000Y-83118001D01*
G75*
G02*
X181026001Y-83169000I-50999J0D01*
G01*
X180415999Y-83169000D01*
G75*
G02*
X180365000Y-83118001I0J50999D01*
G01*
X180365000Y-81147999D01*
G75*
G02*
X180415999Y-81097000I50999J0D01*
G01*
G37*
G36*
G01*
X179145999Y-81097000D02*
X179756001Y-81097000D01*
G75*
G02*
X179807000Y-81147999I0J-50999D01*
G01*
X179807000Y-83118001D01*
G75*
G02*
X179756001Y-83169000I-50999J0D01*
G01*
X179145999Y-83169000D01*
G75*
G02*
X179095000Y-83118001I0J50999D01*
G01*
X179095000Y-81147999D01*
G75*
G02*
X179145999Y-81097000I50999J0D01*
G01*
G37*
G36*
G01*
X177875999Y-81097000D02*
X178486001Y-81097000D01*
G75*
G02*
X178537000Y-81147999I0J-50999D01*
G01*
X178537000Y-83118001D01*
G75*
G02*
X178486001Y-83169000I-50999J0D01*
G01*
X177875999Y-83169000D01*
G75*
G02*
X177825000Y-83118001I0J50999D01*
G01*
X177825000Y-81147999D01*
G75*
G02*
X177875999Y-81097000I50999J0D01*
G01*
G37*
G36*
G01*
X176605999Y-81097000D02*
X177216001Y-81097000D01*
G75*
G02*
X177267000Y-81147999I0J-50999D01*
G01*
X177267000Y-83118001D01*
G75*
G02*
X177216001Y-83169000I-50999J0D01*
G01*
X176605999Y-83169000D01*
G75*
G02*
X176555000Y-83118001I0J50999D01*
G01*
X176555000Y-81147999D01*
G75*
G02*
X176605999Y-81097000I50999J0D01*
G01*
G37*
G36*
G01*
X176605999Y-88027000D02*
X177216001Y-88027000D01*
G75*
G02*
X177267000Y-88077999I0J-50999D01*
G01*
X177267000Y-90048001D01*
G75*
G02*
X177216001Y-90099000I-50999J0D01*
G01*
X176605999Y-90099000D01*
G75*
G02*
X176555000Y-90048001I0J50999D01*
G01*
X176555000Y-88077999D01*
G75*
G02*
X176605999Y-88027000I50999J0D01*
G01*
G37*
G36*
G01*
X177875999Y-88027000D02*
X178486001Y-88027000D01*
G75*
G02*
X178537000Y-88077999I0J-50999D01*
G01*
X178537000Y-90048001D01*
G75*
G02*
X178486001Y-90099000I-50999J0D01*
G01*
X177875999Y-90099000D01*
G75*
G02*
X177825000Y-90048001I0J50999D01*
G01*
X177825000Y-88077999D01*
G75*
G02*
X177875999Y-88027000I50999J0D01*
G01*
G37*
G36*
G01*
X179145999Y-88027000D02*
X179756001Y-88027000D01*
G75*
G02*
X179807000Y-88077999I0J-50999D01*
G01*
X179807000Y-90048001D01*
G75*
G02*
X179756001Y-90099000I-50999J0D01*
G01*
X179145999Y-90099000D01*
G75*
G02*
X179095000Y-90048001I0J50999D01*
G01*
X179095000Y-88077999D01*
G75*
G02*
X179145999Y-88027000I50999J0D01*
G01*
G37*
G36*
G01*
X180415999Y-88027000D02*
X181026001Y-88027000D01*
G75*
G02*
X181077000Y-88077999I0J-50999D01*
G01*
X181077000Y-90048001D01*
G75*
G02*
X181026001Y-90099000I-50999J0D01*
G01*
X180415999Y-90099000D01*
G75*
G02*
X180365000Y-90048001I0J50999D01*
G01*
X180365000Y-88077999D01*
G75*
G02*
X180415999Y-88027000I50999J0D01*
G01*
G37*
G36*
G01*
X181685999Y-88027000D02*
X182296001Y-88027000D01*
G75*
G02*
X182347000Y-88077999I0J-50999D01*
G01*
X182347000Y-90048001D01*
G75*
G02*
X182296001Y-90099000I-50999J0D01*
G01*
X181685999Y-90099000D01*
G75*
G02*
X181635000Y-90048001I0J50999D01*
G01*
X181635000Y-88077999D01*
G75*
G02*
X181685999Y-88027000I50999J0D01*
G01*
G37*
G36*
G01*
X182955999Y-88027000D02*
X183566001Y-88027000D01*
G75*
G02*
X183617000Y-88077999I0J-50999D01*
G01*
X183617000Y-90048001D01*
G75*
G02*
X183566001Y-90099000I-50999J0D01*
G01*
X182955999Y-90099000D01*
G75*
G02*
X182905000Y-90048001I0J50999D01*
G01*
X182905000Y-88077999D01*
G75*
G02*
X182955999Y-88027000I50999J0D01*
G01*
G37*
G36*
G01*
X184225999Y-88027000D02*
X184836001Y-88027000D01*
G75*
G02*
X184887000Y-88077999I0J-50999D01*
G01*
X184887000Y-90048001D01*
G75*
G02*
X184836001Y-90099000I-50999J0D01*
G01*
X184225999Y-90099000D01*
G75*
G02*
X184175000Y-90048001I0J50999D01*
G01*
X184175000Y-88077999D01*
G75*
G02*
X184225999Y-88027000I50999J0D01*
G01*
G37*
G36*
G01*
X185495999Y-88027000D02*
X186106001Y-88027000D01*
G75*
G02*
X186157000Y-88077999I0J-50999D01*
G01*
X186157000Y-90048001D01*
G75*
G02*
X186106001Y-90099000I-50999J0D01*
G01*
X185495999Y-90099000D01*
G75*
G02*
X185445000Y-90048001I0J50999D01*
G01*
X185445000Y-88077999D01*
G75*
G02*
X185495999Y-88027000I50999J0D01*
G01*
G37*
G36*
G01*
X190088000Y-91099000D02*
X191438000Y-91099000D01*
G75*
G02*
X191489000Y-91150000I0J-51000D01*
G01*
X191489000Y-92700000D01*
G75*
G02*
X191438000Y-92751000I-51000J0D01*
G01*
X190088000Y-92751000D01*
G75*
G02*
X190037000Y-92700000I0J51000D01*
G01*
X190037000Y-91150000D01*
G75*
G02*
X190088000Y-91099000I51000J0D01*
G01*
G37*
G36*
G01*
X190088000Y-79969000D02*
X191888000Y-79969000D01*
G75*
G02*
X191939000Y-80020000I0J-51000D01*
G01*
X191939000Y-81190000D01*
G75*
G02*
X191888000Y-81241000I-51000J0D01*
G01*
X190088000Y-81241000D01*
G75*
G02*
X190037000Y-81190000I0J51000D01*
G01*
X190037000Y-80020000D01*
G75*
G02*
X190088000Y-79969000I51000J0D01*
G01*
G37*
G36*
G01*
X200788000Y-87599000D02*
X202138000Y-87599000D01*
G75*
G02*
X202189000Y-87650000I0J-51000D01*
G01*
X202189000Y-89550000D01*
G75*
G02*
X202138000Y-89601000I-51000J0D01*
G01*
X200788000Y-89601000D01*
G75*
G02*
X200737000Y-89550000I0J51000D01*
G01*
X200737000Y-87650000D01*
G75*
G02*
X200788000Y-87599000I51000J0D01*
G01*
G37*
G36*
G01*
X200788000Y-81629000D02*
X202138000Y-81629000D01*
G75*
G02*
X202189000Y-81680000I0J-51000D01*
G01*
X202189000Y-83580000D01*
G75*
G02*
X202138000Y-83631000I-51000J0D01*
G01*
X200788000Y-83631000D01*
G75*
G02*
X200737000Y-83580000I0J51000D01*
G01*
X200737000Y-81680000D01*
G75*
G02*
X200788000Y-81629000I51000J0D01*
G01*
G37*
G36*
G01*
X199988000Y-91449000D02*
X200988000Y-91449000D01*
G75*
G02*
X201039000Y-91500000I0J-51000D01*
G01*
X201039000Y-92700000D01*
G75*
G02*
X200988000Y-92751000I-51000J0D01*
G01*
X199988000Y-92751000D01*
G75*
G02*
X199937000Y-92700000I0J51000D01*
G01*
X199937000Y-91500000D01*
G75*
G02*
X199988000Y-91449000I51000J0D01*
G01*
G37*
G36*
G01*
X196288000Y-91449000D02*
X197288000Y-91449000D01*
G75*
G02*
X197339000Y-91500000I0J-51000D01*
G01*
X197339000Y-92700000D01*
G75*
G02*
X197288000Y-92751000I-51000J0D01*
G01*
X196288000Y-92751000D01*
G75*
G02*
X196237000Y-92700000I0J51000D01*
G01*
X196237000Y-91500000D01*
G75*
G02*
X196288000Y-91449000I51000J0D01*
G01*
G37*
G36*
G01*
X190088000Y-88989000D02*
X191188000Y-88989000D01*
G75*
G02*
X191239000Y-89040000I0J-51000D01*
G01*
X191239000Y-89890000D01*
G75*
G02*
X191188000Y-89941000I-51000J0D01*
G01*
X190088000Y-89941000D01*
G75*
G02*
X190037000Y-89890000I0J51000D01*
G01*
X190037000Y-89040000D01*
G75*
G02*
X190088000Y-88989000I51000J0D01*
G01*
G37*
G36*
G01*
X190088000Y-87889000D02*
X191188000Y-87889000D01*
G75*
G02*
X191239000Y-87940000I0J-51000D01*
G01*
X191239000Y-88790000D01*
G75*
G02*
X191188000Y-88841000I-51000J0D01*
G01*
X190088000Y-88841000D01*
G75*
G02*
X190037000Y-88790000I0J51000D01*
G01*
X190037000Y-87940000D01*
G75*
G02*
X190088000Y-87889000I51000J0D01*
G01*
G37*
G36*
G01*
X190088000Y-86789000D02*
X191188000Y-86789000D01*
G75*
G02*
X191239000Y-86840000I0J-51000D01*
G01*
X191239000Y-87690000D01*
G75*
G02*
X191188000Y-87741000I-51000J0D01*
G01*
X190088000Y-87741000D01*
G75*
G02*
X190037000Y-87690000I0J51000D01*
G01*
X190037000Y-86840000D01*
G75*
G02*
X190088000Y-86789000I51000J0D01*
G01*
G37*
G36*
G01*
X190088000Y-85689000D02*
X191188000Y-85689000D01*
G75*
G02*
X191239000Y-85740000I0J-51000D01*
G01*
X191239000Y-86590000D01*
G75*
G02*
X191188000Y-86641000I-51000J0D01*
G01*
X190088000Y-86641000D01*
G75*
G02*
X190037000Y-86590000I0J51000D01*
G01*
X190037000Y-85740000D01*
G75*
G02*
X190088000Y-85689000I51000J0D01*
G01*
G37*
G36*
G01*
X190088000Y-84589000D02*
X191188000Y-84589000D01*
G75*
G02*
X191239000Y-84640000I0J-51000D01*
G01*
X191239000Y-85490000D01*
G75*
G02*
X191188000Y-85541000I-51000J0D01*
G01*
X190088000Y-85541000D01*
G75*
G02*
X190037000Y-85490000I0J51000D01*
G01*
X190037000Y-84640000D01*
G75*
G02*
X190088000Y-84589000I51000J0D01*
G01*
G37*
G36*
G01*
X190088000Y-83489000D02*
X191188000Y-83489000D01*
G75*
G02*
X191239000Y-83540000I0J-51000D01*
G01*
X191239000Y-84390000D01*
G75*
G02*
X191188000Y-84441000I-51000J0D01*
G01*
X190088000Y-84441000D01*
G75*
G02*
X190037000Y-84390000I0J51000D01*
G01*
X190037000Y-83540000D01*
G75*
G02*
X190088000Y-83489000I51000J0D01*
G01*
G37*
G36*
G01*
X190088000Y-82389000D02*
X191188000Y-82389000D01*
G75*
G02*
X191239000Y-82440000I0J-51000D01*
G01*
X191239000Y-83290000D01*
G75*
G02*
X191188000Y-83341000I-51000J0D01*
G01*
X190088000Y-83341000D01*
G75*
G02*
X190037000Y-83290000I0J51000D01*
G01*
X190037000Y-82440000D01*
G75*
G02*
X190088000Y-82389000I51000J0D01*
G01*
G37*
G36*
G01*
X190088000Y-81389000D02*
X191188000Y-81389000D01*
G75*
G02*
X191239000Y-81440000I0J-51000D01*
G01*
X191239000Y-82190000D01*
G75*
G02*
X191188000Y-82241000I-51000J0D01*
G01*
X190088000Y-82241000D01*
G75*
G02*
X190037000Y-82190000I0J51000D01*
G01*
X190037000Y-81440000D01*
G75*
G02*
X190088000Y-81389000I51000J0D01*
G01*
G37*
D16*
G36*
X191240732Y-88840000D02*
G01*
X191241000Y-88841000D01*
X191241000Y-88989000D01*
X191240000Y-88990732D01*
X191239000Y-88991000D01*
X190037000Y-88991000D01*
X190035268Y-88990000D01*
X190035000Y-88989000D01*
X190035000Y-88841000D01*
X190036000Y-88839268D01*
X190037000Y-88839000D01*
X191239000Y-88839000D01*
X191240732Y-88840000D01*
G37*
G36*
X191240732Y-87740000D02*
G01*
X191241000Y-87741000D01*
X191241000Y-87889000D01*
X191240000Y-87890732D01*
X191239000Y-87891000D01*
X190037000Y-87891000D01*
X190035268Y-87890000D01*
X190035000Y-87889000D01*
X190035000Y-87741000D01*
X190036000Y-87739268D01*
X190037000Y-87739000D01*
X191239000Y-87739000D01*
X191240732Y-87740000D01*
G37*
G36*
X191240732Y-86640000D02*
G01*
X191241000Y-86641000D01*
X191241000Y-86789000D01*
X191240000Y-86790732D01*
X191239000Y-86791000D01*
X190037000Y-86791000D01*
X190035268Y-86790000D01*
X190035000Y-86789000D01*
X190035000Y-86641000D01*
X190036000Y-86639268D01*
X190037000Y-86639000D01*
X191239000Y-86639000D01*
X191240732Y-86640000D01*
G37*
G36*
X191240732Y-85540000D02*
G01*
X191241000Y-85541000D01*
X191241000Y-85689000D01*
X191240000Y-85690732D01*
X191239000Y-85691000D01*
X190037000Y-85691000D01*
X190035268Y-85690000D01*
X190035000Y-85689000D01*
X190035000Y-85541000D01*
X190036000Y-85539268D01*
X190037000Y-85539000D01*
X191239000Y-85539000D01*
X191240732Y-85540000D01*
G37*
G36*
X191240732Y-84440000D02*
G01*
X191241000Y-84441000D01*
X191241000Y-84589000D01*
X191240000Y-84590732D01*
X191239000Y-84591000D01*
X190037000Y-84591000D01*
X190035268Y-84590000D01*
X190035000Y-84589000D01*
X190035000Y-84441000D01*
X190036000Y-84439268D01*
X190037000Y-84439000D01*
X191239000Y-84439000D01*
X191240732Y-84440000D01*
G37*
G36*
X191240732Y-83340000D02*
G01*
X191241000Y-83341000D01*
X191241000Y-83489000D01*
X191240000Y-83490732D01*
X191239000Y-83491000D01*
X190037000Y-83491000D01*
X190035268Y-83490000D01*
X190035000Y-83489000D01*
X190035000Y-83341000D01*
X190036000Y-83339268D01*
X190037000Y-83339000D01*
X191239000Y-83339000D01*
X191240732Y-83340000D01*
G37*
G36*
X191240732Y-82240000D02*
G01*
X191241000Y-82241000D01*
X191241000Y-82389000D01*
X191240000Y-82390732D01*
X191239000Y-82391000D01*
X190037000Y-82391000D01*
X190035268Y-82390000D01*
X190035000Y-82389000D01*
X190035000Y-82241000D01*
X190036000Y-82239268D01*
X190037000Y-82239000D01*
X191239000Y-82239000D01*
X191240732Y-82240000D01*
G37*
G36*
X191365731Y-81240000D02*
G01*
X191365731Y-81242000D01*
X191364195Y-81242990D01*
X191340008Y-81245372D01*
X191316933Y-81252372D01*
X191295669Y-81263737D01*
X191277032Y-81279032D01*
X191261737Y-81297669D01*
X191250372Y-81318933D01*
X191243372Y-81342008D01*
X191241000Y-81366093D01*
X191241000Y-81389000D01*
X191240000Y-81390732D01*
X191239000Y-81391000D01*
X190037000Y-81391000D01*
X190035268Y-81390000D01*
X190035000Y-81389000D01*
X190035000Y-81241000D01*
X190036000Y-81239268D01*
X190037000Y-81239000D01*
X191363999Y-81239000D01*
X191365731Y-81240000D01*
G37*
M02*
