M48
; DRILL file {KiCad (5.1.10)-1} date 12/04/21 20:19:17
; FORMAT={-:-/ absolute / inch / decimal}
; #@! TF.CreationDate,2021-12-04T20:19:17-06:00
; #@! TF.GenerationSoftware,Kicad,Pcbnew,(5.1.10)-1
; #@! TF.FileFunction,Plated,1,2,PTH
FMAT,2
INCH
T1C0.0157
T2C0.0350
T3C0.0400
T4C0.1210
T5C0.1598
%
G90
G05
T1
X4.475Y-4.575
X4.525Y-2.425
X4.525Y-2.875
X4.525Y-4.1
X4.975Y-4.15
X5.075Y-4.1
X5.175Y-4.1
X5.275Y-4.05
X5.375Y-4.0
X5.44Y-2.55
X5.49Y-2.51
X5.49Y-2.59
X5.54Y-2.55
X5.66Y-3.63
X5.665Y-4.575
X5.725Y-2.45
X5.725Y-4.0
X5.825Y-4.1
X5.915Y-2.675
X6.375Y-4.05
X6.975Y-4.575
X7.25Y-2.34
X7.31Y-2.34
X7.66Y-2.45
X7.72Y-2.45
X7.97Y-2.15
X7.97Y-4.15
X8.03Y-2.08
X8.03Y-3.48
T2
X6.085Y-3.005
X6.085Y-3.105
X6.085Y-3.205
X6.085Y-3.48
X6.085Y-3.58
X6.085Y-3.68
T3
X4.605Y-2.335
X4.725Y-2.335
X4.845Y-2.335
X5.155Y-2.335
X5.275Y-2.335
X5.395Y-2.335
X5.705Y-2.335
X5.825Y-2.335
X5.945Y-2.335
X6.255Y-2.335
X6.375Y-2.335
X6.495Y-2.335
X6.74Y-2.335
X6.86Y-2.335
X7.04Y-2.335
X7.16Y-2.335
T4
X4.725Y-2.165
X5.275Y-2.165
X5.825Y-2.165
X6.375Y-2.165
X6.8Y-2.165
X7.1Y-2.165
T5
X5.13Y-3.07
X5.13Y-3.38
X5.13Y-3.69
T0
M30
