%TF.GenerationSoftware,KiCad,Pcbnew,(5.1.6)-1*%
%TF.CreationDate,2022-03-14T17:05:35-05:00*%
%TF.ProjectId,2022 Multimedia Rev1,32303232-204d-4756-9c74-696d65646961,rev?*%
%TF.SameCoordinates,Original*%
%TF.FileFunction,Copper,L1,Top*%
%TF.FilePolarity,Positive*%
%FSLAX46Y46*%
G04 Gerber Fmt 4.6, Leading zero omitted, Abs format (unit mm)*
G04 Created by KiCad (PCBNEW (5.1.6)-1) date 2022-03-14 17:05:35*
%MOMM*%
%LPD*%
G01*
G04 APERTURE LIST*
%TA.AperFunction,NonConductor*%
%ADD10C,0.190500*%
%TD*%
%TA.AperFunction,ComponentPad*%
%ADD11O,5.100000X3.000000*%
%TD*%
%TA.AperFunction,ComponentPad*%
%ADD12O,3.000000X5.100000*%
%TD*%
%TA.AperFunction,ComponentPad*%
%ADD13C,1.524000*%
%TD*%
%TA.AperFunction,ComponentPad*%
%ADD14C,3.073400*%
%TD*%
%TA.AperFunction,ComponentPad*%
%ADD15C,3.000000*%
%TD*%
%TA.AperFunction,ComponentPad*%
%ADD16R,1.358000X1.358000*%
%TD*%
%TA.AperFunction,ComponentPad*%
%ADD17C,1.358000*%
%TD*%
%TA.AperFunction,SMDPad,CuDef*%
%ADD18R,3.000000X2.290000*%
%TD*%
%TA.AperFunction,ViaPad*%
%ADD19C,0.800000*%
%TD*%
%TA.AperFunction,Conductor*%
%ADD20C,0.254000*%
%TD*%
%TA.AperFunction,Conductor*%
%ADD21C,1.016000*%
%TD*%
%TA.AperFunction,Conductor*%
%ADD22C,1.524000*%
%TD*%
G04 APERTURE END LIST*
D10*
X117801571Y-95848714D02*
X117547571Y-95485857D01*
X117366142Y-95848714D02*
X117366142Y-95086714D01*
X117656428Y-95086714D01*
X117729000Y-95123000D01*
X117765285Y-95159285D01*
X117801571Y-95231857D01*
X117801571Y-95340714D01*
X117765285Y-95413285D01*
X117729000Y-95449571D01*
X117656428Y-95485857D01*
X117366142Y-95485857D01*
X118237000Y-95848714D02*
X118164428Y-95812428D01*
X118128142Y-95776142D01*
X118091857Y-95703571D01*
X118091857Y-95485857D01*
X118128142Y-95413285D01*
X118164428Y-95377000D01*
X118237000Y-95340714D01*
X118345857Y-95340714D01*
X118418428Y-95377000D01*
X118454714Y-95413285D01*
X118491000Y-95485857D01*
X118491000Y-95703571D01*
X118454714Y-95776142D01*
X118418428Y-95812428D01*
X118345857Y-95848714D01*
X118237000Y-95848714D01*
X118817571Y-95848714D02*
X118817571Y-95086714D01*
X118817571Y-95377000D02*
X118890142Y-95340714D01*
X119035285Y-95340714D01*
X119107857Y-95377000D01*
X119144142Y-95413285D01*
X119180428Y-95485857D01*
X119180428Y-95703571D01*
X119144142Y-95776142D01*
X119107857Y-95812428D01*
X119035285Y-95848714D01*
X118890142Y-95848714D01*
X118817571Y-95812428D01*
X119797285Y-95812428D02*
X119724714Y-95848714D01*
X119579571Y-95848714D01*
X119507000Y-95812428D01*
X119470714Y-95739857D01*
X119470714Y-95449571D01*
X119507000Y-95377000D01*
X119579571Y-95340714D01*
X119724714Y-95340714D01*
X119797285Y-95377000D01*
X119833571Y-95449571D01*
X119833571Y-95522142D01*
X119470714Y-95594714D01*
X120160142Y-95848714D02*
X120160142Y-95340714D01*
X120160142Y-95485857D02*
X120196428Y-95413285D01*
X120232714Y-95377000D01*
X120305285Y-95340714D01*
X120377857Y-95340714D01*
X120523000Y-95340714D02*
X120813285Y-95340714D01*
X120631857Y-95086714D02*
X120631857Y-95739857D01*
X120668142Y-95812428D01*
X120740714Y-95848714D01*
X120813285Y-95848714D01*
X121176142Y-95848714D02*
X121103571Y-95812428D01*
X121067285Y-95776142D01*
X121031000Y-95703571D01*
X121031000Y-95485857D01*
X121067285Y-95413285D01*
X121103571Y-95377000D01*
X121176142Y-95340714D01*
X121285000Y-95340714D01*
X121357571Y-95377000D01*
X121393857Y-95413285D01*
X121430142Y-95485857D01*
X121430142Y-95703571D01*
X121393857Y-95776142D01*
X121357571Y-95812428D01*
X121285000Y-95848714D01*
X121176142Y-95848714D01*
D11*
%TO.P,Conn4,1*%
%TO.N,GND*%
X160528000Y-50800000D03*
%TO.P,Conn4,2*%
%TO.N,+5V*%
X152654000Y-50800000D03*
%TD*%
D12*
%TO.P,Conn1,3*%
%TO.N,+12VA*%
X130302000Y-79744000D03*
%TO.P,Conn1,1*%
%TO.N,GND*%
X130279000Y-95492000D03*
%TO.P,Conn1,2*%
%TO.N,+12L*%
X130302000Y-87630000D03*
%TD*%
D13*
%TO.P,Data,1*%
%TO.N,AutopanelNeoPixel*%
X169926000Y-40513000D03*
%TO.P,Data,2*%
%TO.N,GND*%
X172974000Y-40513000D03*
D14*
%TO.P,Data,*%
%TO.N,*%
X171450000Y-36195000D03*
%TD*%
D15*
%TO.P,U2,1*%
%TO.N,+12VA*%
X149606000Y-95504000D03*
%TO.P,U2,4*%
%TO.N,+5V*%
X169164000Y-95567500D03*
%TO.P,U2,3*%
%TO.N,GND*%
X162941000Y-95504000D03*
%TO.P,U2,2*%
X155829000Y-95504000D03*
%TD*%
D16*
%TO.P,U1,1*%
%TO.N,+12L*%
X156972000Y-105156000D03*
D17*
%TO.P,U1,2*%
%TO.N,GND*%
X159512000Y-105156000D03*
%TO.P,U1,3*%
%TO.N,+3V3*%
X162052000Y-105156000D03*
%TD*%
D11*
%TO.P,Conn3,1*%
%TO.N,GND*%
X142960000Y-50800000D03*
%TO.P,Conn3,2*%
%TO.N,Net-(C10-Pad1)*%
X135086000Y-50800000D03*
%TD*%
%TO.P,Conn2,1*%
%TO.N,GND*%
X125222000Y-50927000D03*
%TO.P,Conn2,2*%
%TO.N,+12VA*%
X117348000Y-50927000D03*
%TD*%
%TO.P,C10,2*%
%TO.N,GND*%
%TA.AperFunction,SMDPad,CuDef*%
G36*
G01*
X133874500Y-56089000D02*
X134349500Y-56089000D01*
G75*
G02*
X134587000Y-56326500I0J-237500D01*
G01*
X134587000Y-56901500D01*
G75*
G02*
X134349500Y-57139000I-237500J0D01*
G01*
X133874500Y-57139000D01*
G75*
G02*
X133637000Y-56901500I0J237500D01*
G01*
X133637000Y-56326500D01*
G75*
G02*
X133874500Y-56089000I237500J0D01*
G01*
G37*
%TD.AperFunction*%
%TO.P,C10,1*%
%TO.N,Net-(C10-Pad1)*%
%TA.AperFunction,SMDPad,CuDef*%
G36*
G01*
X133874500Y-54339000D02*
X134349500Y-54339000D01*
G75*
G02*
X134587000Y-54576500I0J-237500D01*
G01*
X134587000Y-55151500D01*
G75*
G02*
X134349500Y-55389000I-237500J0D01*
G01*
X133874500Y-55389000D01*
G75*
G02*
X133637000Y-55151500I0J237500D01*
G01*
X133637000Y-54576500D01*
G75*
G02*
X133874500Y-54339000I237500J0D01*
G01*
G37*
%TD.AperFunction*%
%TD*%
%TO.P,C9,2*%
%TO.N,GND*%
%TA.AperFunction,SMDPad,CuDef*%
G36*
G01*
X133051000Y-62721500D02*
X133051000Y-62246500D01*
G75*
G02*
X133288500Y-62009000I237500J0D01*
G01*
X133863500Y-62009000D01*
G75*
G02*
X134101000Y-62246500I0J-237500D01*
G01*
X134101000Y-62721500D01*
G75*
G02*
X133863500Y-62959000I-237500J0D01*
G01*
X133288500Y-62959000D01*
G75*
G02*
X133051000Y-62721500I0J237500D01*
G01*
G37*
%TD.AperFunction*%
%TO.P,C9,1*%
%TO.N,+12VA*%
%TA.AperFunction,SMDPad,CuDef*%
G36*
G01*
X131301000Y-62721500D02*
X131301000Y-62246500D01*
G75*
G02*
X131538500Y-62009000I237500J0D01*
G01*
X132113500Y-62009000D01*
G75*
G02*
X132351000Y-62246500I0J-237500D01*
G01*
X132351000Y-62721500D01*
G75*
G02*
X132113500Y-62959000I-237500J0D01*
G01*
X131538500Y-62959000D01*
G75*
G02*
X131301000Y-62721500I0J237500D01*
G01*
G37*
%TD.AperFunction*%
%TD*%
D18*
%TO.P,U3,9*%
%TO.N,N/C*%
X129921000Y-57339000D03*
%TO.P,U3,8*%
%TO.N,+12VA*%
%TA.AperFunction,SMDPad,CuDef*%
G36*
G01*
X131676000Y-58839000D02*
X131976000Y-58839000D01*
G75*
G02*
X132126000Y-58989000I0J-150000D01*
G01*
X132126000Y-60639000D01*
G75*
G02*
X131976000Y-60789000I-150000J0D01*
G01*
X131676000Y-60789000D01*
G75*
G02*
X131526000Y-60639000I0J150000D01*
G01*
X131526000Y-58989000D01*
G75*
G02*
X131676000Y-58839000I150000J0D01*
G01*
G37*
%TD.AperFunction*%
%TO.P,U3,7*%
%TO.N,N/C*%
%TA.AperFunction,SMDPad,CuDef*%
G36*
G01*
X130406000Y-58839000D02*
X130706000Y-58839000D01*
G75*
G02*
X130856000Y-58989000I0J-150000D01*
G01*
X130856000Y-60639000D01*
G75*
G02*
X130706000Y-60789000I-150000J0D01*
G01*
X130406000Y-60789000D01*
G75*
G02*
X130256000Y-60639000I0J150000D01*
G01*
X130256000Y-58989000D01*
G75*
G02*
X130406000Y-58839000I150000J0D01*
G01*
G37*
%TD.AperFunction*%
%TO.P,U3,6*%
%TA.AperFunction,SMDPad,CuDef*%
G36*
G01*
X129136000Y-58839000D02*
X129436000Y-58839000D01*
G75*
G02*
X129586000Y-58989000I0J-150000D01*
G01*
X129586000Y-60639000D01*
G75*
G02*
X129436000Y-60789000I-150000J0D01*
G01*
X129136000Y-60789000D01*
G75*
G02*
X128986000Y-60639000I0J150000D01*
G01*
X128986000Y-58989000D01*
G75*
G02*
X129136000Y-58839000I150000J0D01*
G01*
G37*
%TD.AperFunction*%
%TO.P,U3,5*%
%TO.N,HeadlightToggle*%
%TA.AperFunction,SMDPad,CuDef*%
G36*
G01*
X127866000Y-58839000D02*
X128166000Y-58839000D01*
G75*
G02*
X128316000Y-58989000I0J-150000D01*
G01*
X128316000Y-60639000D01*
G75*
G02*
X128166000Y-60789000I-150000J0D01*
G01*
X127866000Y-60789000D01*
G75*
G02*
X127716000Y-60639000I0J150000D01*
G01*
X127716000Y-58989000D01*
G75*
G02*
X127866000Y-58839000I150000J0D01*
G01*
G37*
%TD.AperFunction*%
%TO.P,U3,4*%
%TO.N,N/C*%
%TA.AperFunction,SMDPad,CuDef*%
G36*
G01*
X127866000Y-53889000D02*
X128166000Y-53889000D01*
G75*
G02*
X128316000Y-54039000I0J-150000D01*
G01*
X128316000Y-55689000D01*
G75*
G02*
X128166000Y-55839000I-150000J0D01*
G01*
X127866000Y-55839000D01*
G75*
G02*
X127716000Y-55689000I0J150000D01*
G01*
X127716000Y-54039000D01*
G75*
G02*
X127866000Y-53889000I150000J0D01*
G01*
G37*
%TD.AperFunction*%
%TO.P,U3,3*%
%TO.N,GND*%
%TA.AperFunction,SMDPad,CuDef*%
G36*
G01*
X129136000Y-53889000D02*
X129436000Y-53889000D01*
G75*
G02*
X129586000Y-54039000I0J-150000D01*
G01*
X129586000Y-55689000D01*
G75*
G02*
X129436000Y-55839000I-150000J0D01*
G01*
X129136000Y-55839000D01*
G75*
G02*
X128986000Y-55689000I0J150000D01*
G01*
X128986000Y-54039000D01*
G75*
G02*
X129136000Y-53889000I150000J0D01*
G01*
G37*
%TD.AperFunction*%
%TO.P,U3,2*%
%TO.N,Net-(C10-Pad1)*%
%TA.AperFunction,SMDPad,CuDef*%
G36*
G01*
X130406000Y-53889000D02*
X130706000Y-53889000D01*
G75*
G02*
X130856000Y-54039000I0J-150000D01*
G01*
X130856000Y-55689000D01*
G75*
G02*
X130706000Y-55839000I-150000J0D01*
G01*
X130406000Y-55839000D01*
G75*
G02*
X130256000Y-55689000I0J150000D01*
G01*
X130256000Y-54039000D01*
G75*
G02*
X130406000Y-53889000I150000J0D01*
G01*
G37*
%TD.AperFunction*%
%TO.P,U3,1*%
%TA.AperFunction,SMDPad,CuDef*%
G36*
G01*
X131676000Y-53889000D02*
X131976000Y-53889000D01*
G75*
G02*
X132126000Y-54039000I0J-150000D01*
G01*
X132126000Y-55689000D01*
G75*
G02*
X131976000Y-55839000I-150000J0D01*
G01*
X131676000Y-55839000D01*
G75*
G02*
X131526000Y-55689000I0J150000D01*
G01*
X131526000Y-54039000D01*
G75*
G02*
X131676000Y-53889000I150000J0D01*
G01*
G37*
%TD.AperFunction*%
%TD*%
%TO.P,R2,2*%
%TO.N,+5V*%
%TA.AperFunction,SMDPad,CuDef*%
G36*
G01*
X177323000Y-95266500D02*
X177323000Y-95741500D01*
G75*
G02*
X177085500Y-95979000I-237500J0D01*
G01*
X176510500Y-95979000D01*
G75*
G02*
X176273000Y-95741500I0J237500D01*
G01*
X176273000Y-95266500D01*
G75*
G02*
X176510500Y-95029000I237500J0D01*
G01*
X177085500Y-95029000D01*
G75*
G02*
X177323000Y-95266500I0J-237500D01*
G01*
G37*
%TD.AperFunction*%
%TO.P,R2,1*%
%TO.N,Net-(D2-Pad2)*%
%TA.AperFunction,SMDPad,CuDef*%
G36*
G01*
X179073000Y-95266500D02*
X179073000Y-95741500D01*
G75*
G02*
X178835500Y-95979000I-237500J0D01*
G01*
X178260500Y-95979000D01*
G75*
G02*
X178023000Y-95741500I0J237500D01*
G01*
X178023000Y-95266500D01*
G75*
G02*
X178260500Y-95029000I237500J0D01*
G01*
X178835500Y-95029000D01*
G75*
G02*
X179073000Y-95266500I0J-237500D01*
G01*
G37*
%TD.AperFunction*%
%TD*%
%TO.P,R1,2*%
%TO.N,+3V3*%
%TA.AperFunction,SMDPad,CuDef*%
G36*
G01*
X177196000Y-100727500D02*
X177196000Y-101202500D01*
G75*
G02*
X176958500Y-101440000I-237500J0D01*
G01*
X176383500Y-101440000D01*
G75*
G02*
X176146000Y-101202500I0J237500D01*
G01*
X176146000Y-100727500D01*
G75*
G02*
X176383500Y-100490000I237500J0D01*
G01*
X176958500Y-100490000D01*
G75*
G02*
X177196000Y-100727500I0J-237500D01*
G01*
G37*
%TD.AperFunction*%
%TO.P,R1,1*%
%TO.N,Net-(D1-Pad2)*%
%TA.AperFunction,SMDPad,CuDef*%
G36*
G01*
X178946000Y-100727500D02*
X178946000Y-101202500D01*
G75*
G02*
X178708500Y-101440000I-237500J0D01*
G01*
X178133500Y-101440000D01*
G75*
G02*
X177896000Y-101202500I0J237500D01*
G01*
X177896000Y-100727500D01*
G75*
G02*
X178133500Y-100490000I237500J0D01*
G01*
X178708500Y-100490000D01*
G75*
G02*
X178946000Y-100727500I0J-237500D01*
G01*
G37*
%TD.AperFunction*%
%TD*%
%TO.P,D2,2*%
%TO.N,Net-(D2-Pad2)*%
%TA.AperFunction,SMDPad,CuDef*%
G36*
G01*
X181768000Y-95266500D02*
X181768000Y-95741500D01*
G75*
G02*
X181530500Y-95979000I-237500J0D01*
G01*
X180955500Y-95979000D01*
G75*
G02*
X180718000Y-95741500I0J237500D01*
G01*
X180718000Y-95266500D01*
G75*
G02*
X180955500Y-95029000I237500J0D01*
G01*
X181530500Y-95029000D01*
G75*
G02*
X181768000Y-95266500I0J-237500D01*
G01*
G37*
%TD.AperFunction*%
%TO.P,D2,1*%
%TO.N,GND*%
%TA.AperFunction,SMDPad,CuDef*%
G36*
G01*
X183518000Y-95266500D02*
X183518000Y-95741500D01*
G75*
G02*
X183280500Y-95979000I-237500J0D01*
G01*
X182705500Y-95979000D01*
G75*
G02*
X182468000Y-95741500I0J237500D01*
G01*
X182468000Y-95266500D01*
G75*
G02*
X182705500Y-95029000I237500J0D01*
G01*
X183280500Y-95029000D01*
G75*
G02*
X183518000Y-95266500I0J-237500D01*
G01*
G37*
%TD.AperFunction*%
%TD*%
%TO.P,D1,2*%
%TO.N,Net-(D1-Pad2)*%
%TA.AperFunction,SMDPad,CuDef*%
G36*
G01*
X181641000Y-100727500D02*
X181641000Y-101202500D01*
G75*
G02*
X181403500Y-101440000I-237500J0D01*
G01*
X180828500Y-101440000D01*
G75*
G02*
X180591000Y-101202500I0J237500D01*
G01*
X180591000Y-100727500D01*
G75*
G02*
X180828500Y-100490000I237500J0D01*
G01*
X181403500Y-100490000D01*
G75*
G02*
X181641000Y-100727500I0J-237500D01*
G01*
G37*
%TD.AperFunction*%
%TO.P,D1,1*%
%TO.N,GND*%
%TA.AperFunction,SMDPad,CuDef*%
G36*
G01*
X183391000Y-100727500D02*
X183391000Y-101202500D01*
G75*
G02*
X183153500Y-101440000I-237500J0D01*
G01*
X182578500Y-101440000D01*
G75*
G02*
X182341000Y-101202500I0J237500D01*
G01*
X182341000Y-100727500D01*
G75*
G02*
X182578500Y-100490000I237500J0D01*
G01*
X183153500Y-100490000D01*
G75*
G02*
X183391000Y-100727500I0J-237500D01*
G01*
G37*
%TD.AperFunction*%
%TD*%
%TO.P,C7,2*%
%TO.N,GND*%
%TA.AperFunction,SMDPad,CuDef*%
G36*
G01*
X156560000Y-54593500D02*
X156560000Y-54118500D01*
G75*
G02*
X156797500Y-53881000I237500J0D01*
G01*
X157372500Y-53881000D01*
G75*
G02*
X157610000Y-54118500I0J-237500D01*
G01*
X157610000Y-54593500D01*
G75*
G02*
X157372500Y-54831000I-237500J0D01*
G01*
X156797500Y-54831000D01*
G75*
G02*
X156560000Y-54593500I0J237500D01*
G01*
G37*
%TD.AperFunction*%
%TO.P,C7,1*%
%TO.N,+5V*%
%TA.AperFunction,SMDPad,CuDef*%
G36*
G01*
X154810000Y-54593500D02*
X154810000Y-54118500D01*
G75*
G02*
X155047500Y-53881000I237500J0D01*
G01*
X155622500Y-53881000D01*
G75*
G02*
X155860000Y-54118500I0J-237500D01*
G01*
X155860000Y-54593500D01*
G75*
G02*
X155622500Y-54831000I-237500J0D01*
G01*
X155047500Y-54831000D01*
G75*
G02*
X154810000Y-54593500I0J237500D01*
G01*
G37*
%TD.AperFunction*%
%TD*%
%TO.P,C4,2*%
%TO.N,GND*%
%TA.AperFunction,SMDPad,CuDef*%
G36*
G01*
X168357000Y-105393500D02*
X168357000Y-104918500D01*
G75*
G02*
X168594500Y-104681000I237500J0D01*
G01*
X169169500Y-104681000D01*
G75*
G02*
X169407000Y-104918500I0J-237500D01*
G01*
X169407000Y-105393500D01*
G75*
G02*
X169169500Y-105631000I-237500J0D01*
G01*
X168594500Y-105631000D01*
G75*
G02*
X168357000Y-105393500I0J237500D01*
G01*
G37*
%TD.AperFunction*%
%TO.P,C4,1*%
%TO.N,+3V3*%
%TA.AperFunction,SMDPad,CuDef*%
G36*
G01*
X166607000Y-105393500D02*
X166607000Y-104918500D01*
G75*
G02*
X166844500Y-104681000I237500J0D01*
G01*
X167419500Y-104681000D01*
G75*
G02*
X167657000Y-104918500I0J-237500D01*
G01*
X167657000Y-105393500D01*
G75*
G02*
X167419500Y-105631000I-237500J0D01*
G01*
X166844500Y-105631000D01*
G75*
G02*
X166607000Y-105393500I0J237500D01*
G01*
G37*
%TD.AperFunction*%
%TD*%
%TO.P,C1,2*%
%TO.N,GND*%
%TA.AperFunction,SMDPad,CuDef*%
G36*
G01*
X150351500Y-103931000D02*
X149876500Y-103931000D01*
G75*
G02*
X149639000Y-103693500I0J237500D01*
G01*
X149639000Y-103118500D01*
G75*
G02*
X149876500Y-102881000I237500J0D01*
G01*
X150351500Y-102881000D01*
G75*
G02*
X150589000Y-103118500I0J-237500D01*
G01*
X150589000Y-103693500D01*
G75*
G02*
X150351500Y-103931000I-237500J0D01*
G01*
G37*
%TD.AperFunction*%
%TO.P,C1,1*%
%TO.N,+12L*%
%TA.AperFunction,SMDPad,CuDef*%
G36*
G01*
X150351500Y-105681000D02*
X149876500Y-105681000D01*
G75*
G02*
X149639000Y-105443500I0J237500D01*
G01*
X149639000Y-104868500D01*
G75*
G02*
X149876500Y-104631000I237500J0D01*
G01*
X150351500Y-104631000D01*
G75*
G02*
X150589000Y-104868500I0J-237500D01*
G01*
X150589000Y-105443500D01*
G75*
G02*
X150351500Y-105681000I-237500J0D01*
G01*
G37*
%TD.AperFunction*%
%TD*%
D19*
%TO.N,GND*%
X115570000Y-81280000D03*
X118110000Y-81280000D03*
X120650000Y-81280000D03*
X123190000Y-81280000D03*
X121920000Y-80010000D03*
X119380000Y-80010000D03*
X116840000Y-80010000D03*
X115570000Y-78740000D03*
X118110000Y-78740000D03*
X120650000Y-78740000D03*
X123190000Y-78740000D03*
X116840000Y-77470000D03*
X119380000Y-77470000D03*
X121920000Y-77470000D03*
X123190000Y-76200000D03*
X120650000Y-76200000D03*
X118110000Y-76200000D03*
X115570000Y-76200000D03*
X113030000Y-66675000D03*
%TO.N,+3V3*%
X167132000Y-113792000D03*
%TO.N,AutopanelNeoPixel*%
X112903000Y-60833000D03*
%TO.N,HeadlightToggle*%
X128016000Y-61976000D03*
X124460000Y-72898000D03*
X124460000Y-83566000D03*
X124460000Y-87503000D03*
X126111000Y-105918000D03*
%TD*%
D20*
%TO.N,*%
X123190000Y-93726000D02*
X123190000Y-92710000D01*
X115570000Y-93726000D02*
X123190000Y-93726000D01*
X117856000Y-87376000D02*
X117856000Y-88900000D01*
X123444000Y-85852000D02*
X123444000Y-86614000D01*
X117602000Y-92710000D02*
X117602000Y-90678000D01*
X117602000Y-90678000D02*
X114554000Y-90678000D01*
X122682000Y-93980000D02*
X122682000Y-97282000D01*
X121412000Y-89154000D02*
X121412000Y-92456000D01*
X115062000Y-87122000D02*
X115062000Y-85344000D01*
X115570000Y-92710000D02*
X115570000Y-93726000D01*
X116840000Y-85344000D02*
X116840000Y-87376000D01*
X116840000Y-87376000D02*
X117856000Y-87376000D01*
X123444000Y-89408000D02*
X121666000Y-89408000D01*
X125222000Y-84328000D02*
X123190000Y-84328000D01*
X117602000Y-92710000D02*
X115570000Y-92710000D01*
X123190000Y-84328000D02*
X123190000Y-85598000D01*
X121158000Y-85852000D02*
X121158000Y-83566000D01*
X120396000Y-89154000D02*
X120396000Y-85852000D01*
X117602000Y-89154000D02*
X120396000Y-89154000D01*
X117602000Y-90678000D02*
X117602000Y-89154000D01*
X114554000Y-87376000D02*
X116840000Y-87376000D01*
X123444000Y-86614000D02*
X123444000Y-89408000D01*
X121158000Y-85852000D02*
X123444000Y-85852000D01*
X120396000Y-85852000D02*
X121158000Y-85852000D01*
X121158000Y-83566000D02*
X119126000Y-83566000D01*
X119126000Y-83566000D02*
X119126000Y-85852000D01*
X120396000Y-89154000D02*
X121412000Y-89154000D01*
X125222000Y-86614000D02*
X125222000Y-84328000D01*
X119126000Y-85852000D02*
X120142000Y-85852000D01*
X122682000Y-97282000D02*
X116078000Y-97282000D01*
X123444000Y-86614000D02*
X125222000Y-86614000D01*
X123190000Y-92710000D02*
X117602000Y-92710000D01*
X116078000Y-93980000D02*
X116078000Y-97282000D01*
X115062000Y-85344000D02*
X116840000Y-85344000D01*
X119888000Y-90678000D02*
X120142000Y-90424000D01*
X120650000Y-92202000D02*
X120904000Y-91948000D01*
X120904000Y-87630000D02*
X121158000Y-87376000D01*
X120904000Y-86614000D02*
X121158000Y-86360000D01*
X123952000Y-85852000D02*
X124206000Y-85598000D01*
X123698000Y-85090000D02*
X123952000Y-84836000D01*
X119888000Y-85344000D02*
X120142000Y-85090000D01*
X119380000Y-92202000D02*
X119634000Y-91948000D01*
X114554000Y-89408000D02*
X114554000Y-87376000D01*
X120396000Y-85598000D02*
X120650000Y-85344000D01*
X116840000Y-89154000D02*
X117094000Y-88900000D01*
X116332000Y-87884000D02*
X116078000Y-88138000D01*
X112776000Y-91694000D02*
X114554000Y-91694000D01*
X114554000Y-89408000D02*
X112776000Y-89408000D01*
X121920000Y-87630000D02*
X122174000Y-87376000D01*
X118110000Y-91440000D02*
X118364000Y-91186000D01*
X121666000Y-86868000D02*
X121920000Y-86614000D01*
X122428000Y-88646000D02*
X122682000Y-88392000D01*
X120650000Y-84328000D02*
X120396000Y-84582000D01*
X115316000Y-87884000D02*
X115062000Y-88138000D01*
X114554000Y-90678000D02*
X114554000Y-89408000D01*
X120650000Y-89916000D02*
X120904000Y-89662000D01*
X115824000Y-89662000D02*
X115570000Y-89916000D01*
X114046000Y-89916000D02*
X113792000Y-90170000D01*
X114300000Y-90932000D02*
X114046000Y-91186000D01*
X120396000Y-91440000D02*
X120650000Y-91186000D01*
X116078000Y-88646000D02*
X115824000Y-88900000D01*
X115570000Y-85852000D02*
X115316000Y-86106000D01*
X112776000Y-89408000D02*
X112776000Y-91694000D01*
X122682000Y-86868000D02*
X122936000Y-86614000D01*
X119888000Y-83820000D02*
X119634000Y-84074000D01*
X119634000Y-84836000D02*
X119888000Y-84582000D01*
X120904000Y-88646000D02*
X121158000Y-88392000D01*
X118364000Y-90170000D02*
X118618000Y-89916000D01*
X119126000Y-91440000D02*
X119380000Y-91186000D01*
X114554000Y-91694000D02*
X114554000Y-90932000D01*
X116586000Y-90170000D02*
X116840000Y-89916000D01*
X116332000Y-86360000D02*
X116078000Y-86614000D01*
X124714000Y-85598000D02*
X124968000Y-85344000D01*
X119126000Y-90424000D02*
X119380000Y-90170000D01*
X116078000Y-85852000D02*
X116332000Y-85598000D01*
X115570000Y-86868000D02*
X115316000Y-87122000D01*
X121666000Y-88646000D02*
X121920000Y-88392000D01*
X116840000Y-88392000D02*
X117094000Y-88138000D01*
X115316000Y-89154000D02*
X115062000Y-89408000D01*
X113538000Y-90678000D02*
X113284000Y-90932000D01*
X122682000Y-87884000D02*
X122936000Y-87630000D01*
D21*
%TO.N,+12L*%
X151638000Y-105156000D02*
X156972000Y-105156000D01*
X151638000Y-105156000D02*
X150114000Y-105156000D01*
X127762000Y-87630000D02*
X130302000Y-87630000D01*
X125476000Y-89916000D02*
X127762000Y-87630000D01*
X125476000Y-99568000D02*
X125476000Y-89916000D01*
X150114000Y-105156000D02*
X131064000Y-105156000D01*
X131064000Y-105156000D02*
X125476000Y-99568000D01*
D20*
%TO.N,+5V*%
X169227500Y-95504000D02*
X169164000Y-95567500D01*
X176798000Y-95504000D02*
X169227500Y-95504000D01*
D21*
%TO.N,+3V3*%
X162052000Y-105156000D02*
X167132000Y-105156000D01*
D20*
X176671000Y-100965000D02*
X169545000Y-100965000D01*
X167132000Y-103378000D02*
X167132000Y-105156000D01*
X169545000Y-100965000D02*
X167132000Y-103378000D01*
D21*
X167132000Y-105156000D02*
X167132000Y-113792000D01*
X167132000Y-113792000D02*
X167132000Y-113792000D01*
D20*
%TO.N,AutopanelNeoPixel*%
X113411000Y-40513000D02*
X169926000Y-40513000D01*
X112903000Y-60833000D02*
X112903000Y-41021000D01*
X112903000Y-41021000D02*
X113411000Y-40513000D01*
%TO.N,Net-(D1-Pad2)*%
X178421000Y-100965000D02*
X181116000Y-100965000D01*
%TO.N,Net-(D2-Pad2)*%
X178548000Y-95504000D02*
X181243000Y-95504000D01*
%TO.N,HeadlightToggle*%
X128016000Y-59814000D02*
X128016000Y-61976000D01*
X124460000Y-72898000D02*
X124460000Y-83566000D01*
X124460000Y-87503000D02*
X124460000Y-104267000D01*
X124460000Y-104267000D02*
X126111000Y-105918000D01*
D22*
%TO.N,Net-(C10-Pad1)*%
X131826000Y-54864000D02*
X134112000Y-54864000D01*
X134112000Y-51399400D02*
X134578000Y-50933400D01*
X131826000Y-54864000D02*
X130810000Y-54864000D01*
X134112000Y-51774000D02*
X135086000Y-50800000D01*
X134112000Y-54864000D02*
X134112000Y-51774000D01*
%TD*%
D20*
%TO.N,GND*%
G36*
X196069700Y-33501133D02*
G01*
X198582508Y-33725395D01*
X201077584Y-34098288D01*
X203546175Y-34618501D01*
X205979555Y-35284199D01*
X208369186Y-36093044D01*
X210706636Y-37042184D01*
X212983662Y-38128270D01*
X215192289Y-39347497D01*
X217324722Y-40695564D01*
X219373438Y-42167717D01*
X221331245Y-43758781D01*
X223191259Y-45463171D01*
X224946897Y-47274848D01*
X226592030Y-49187492D01*
X228120810Y-51194302D01*
X229527891Y-53288261D01*
X230808308Y-55461979D01*
X231957556Y-57707807D01*
X232971587Y-60017833D01*
X233846838Y-62383946D01*
X234580222Y-64797797D01*
X235169157Y-67250886D01*
X235611570Y-69734581D01*
X235905909Y-72240164D01*
X236051430Y-74763960D01*
X236068000Y-75950632D01*
X236068001Y-90899711D01*
X236038766Y-91197876D01*
X235961551Y-91453624D01*
X235836131Y-91689504D01*
X235667289Y-91896525D01*
X235461446Y-92066813D01*
X235226444Y-92193879D01*
X234971240Y-92272877D01*
X234675118Y-92304000D01*
X218980419Y-92304000D01*
X218948000Y-92300807D01*
X218915581Y-92304000D01*
X218818617Y-92313550D01*
X218694207Y-92351290D01*
X218579550Y-92412575D01*
X218479052Y-92495052D01*
X218396575Y-92595550D01*
X218335290Y-92710207D01*
X218297550Y-92834617D01*
X218284807Y-92964000D01*
X218288001Y-92996429D01*
X218288000Y-113759581D01*
X218284807Y-113792000D01*
X218297550Y-113921383D01*
X218335290Y-114045793D01*
X218396575Y-114160450D01*
X218477645Y-114259233D01*
X218479052Y-114260948D01*
X218579550Y-114343425D01*
X218694207Y-114404710D01*
X218818617Y-114442450D01*
X218948000Y-114455193D01*
X218980419Y-114452000D01*
X234663721Y-114452000D01*
X234961875Y-114481234D01*
X235217622Y-114558448D01*
X235453504Y-114683869D01*
X235660530Y-114852716D01*
X235830813Y-115058554D01*
X235957879Y-115293556D01*
X236036876Y-115548756D01*
X236068001Y-115844891D01*
X236068000Y-123379339D01*
X235727946Y-123487211D01*
X235672974Y-123510772D01*
X235617659Y-123533571D01*
X235609553Y-123537954D01*
X235262030Y-123729006D01*
X235212674Y-123762801D01*
X235162847Y-123795906D01*
X235155747Y-123801780D01*
X234851951Y-124056695D01*
X234810105Y-124099428D01*
X234767653Y-124141584D01*
X234761829Y-124148725D01*
X234513332Y-124457794D01*
X234480606Y-124507805D01*
X234447127Y-124557439D01*
X234442801Y-124565576D01*
X234259068Y-124917022D01*
X234236656Y-124972494D01*
X234213478Y-125027632D01*
X234210815Y-125036454D01*
X234098845Y-125416896D01*
X234087645Y-125475612D01*
X234075607Y-125534254D01*
X234074708Y-125543425D01*
X234038766Y-125938370D01*
X234039184Y-125998186D01*
X234038766Y-126058003D01*
X234039665Y-126067174D01*
X234081118Y-126461577D01*
X234093148Y-126520183D01*
X234104355Y-126578935D01*
X234107019Y-126587757D01*
X234224290Y-126966599D01*
X234247474Y-127021750D01*
X234269880Y-127077208D01*
X234274206Y-127085345D01*
X234462828Y-127434193D01*
X234496283Y-127483792D01*
X234529032Y-127533838D01*
X234534855Y-127540977D01*
X234534858Y-127540981D01*
X234534862Y-127540985D01*
X234787644Y-127846547D01*
X234830061Y-127888669D01*
X234871943Y-127931438D01*
X234879044Y-127937311D01*
X235186369Y-128187960D01*
X235236178Y-128221052D01*
X235285550Y-128254859D01*
X235293656Y-128259241D01*
X235643813Y-128445423D01*
X235699105Y-128468212D01*
X235754101Y-128491784D01*
X235762905Y-128494509D01*
X236068001Y-128586623D01*
X236068000Y-136619721D01*
X236038766Y-136917876D01*
X235961551Y-137173624D01*
X235836131Y-137409504D01*
X235667289Y-137616525D01*
X235461446Y-137786813D01*
X235226444Y-137913879D01*
X234971240Y-137992877D01*
X234675118Y-138024000D01*
X114332279Y-138024000D01*
X114034124Y-137994766D01*
X113778376Y-137917551D01*
X113542496Y-137792131D01*
X113335475Y-137623289D01*
X113165187Y-137417446D01*
X113038121Y-137182444D01*
X112959123Y-136927240D01*
X112928000Y-136631118D01*
X112928000Y-128588661D01*
X113268055Y-128480789D01*
X113323040Y-128457222D01*
X113378341Y-128434429D01*
X113386447Y-128430046D01*
X113733970Y-128238994D01*
X113783327Y-128205199D01*
X113833153Y-128172094D01*
X113840254Y-128166220D01*
X114144049Y-127911305D01*
X114185912Y-127868555D01*
X114228347Y-127826416D01*
X114234171Y-127819274D01*
X114482668Y-127510206D01*
X114515415Y-127460164D01*
X114548873Y-127410561D01*
X114553199Y-127402425D01*
X114736932Y-127050978D01*
X114759337Y-126995523D01*
X114782522Y-126940368D01*
X114785185Y-126931546D01*
X114897155Y-126551104D01*
X114908355Y-126492388D01*
X114920393Y-126433746D01*
X114921292Y-126424575D01*
X114957234Y-126029630D01*
X114956816Y-125969814D01*
X114957234Y-125909997D01*
X114956334Y-125900826D01*
X114914882Y-125506422D01*
X114902855Y-125447829D01*
X114891645Y-125389065D01*
X114888981Y-125380243D01*
X114771710Y-125001401D01*
X114748526Y-124946250D01*
X114726120Y-124890792D01*
X114721794Y-124882655D01*
X114533172Y-124533807D01*
X114499717Y-124484208D01*
X114466968Y-124434162D01*
X114461144Y-124427021D01*
X114208356Y-124121453D01*
X114165923Y-124079315D01*
X114124057Y-124036562D01*
X114116962Y-124030694D01*
X114116957Y-124030689D01*
X114116952Y-124030685D01*
X113809631Y-123780041D01*
X113759838Y-123746959D01*
X113710449Y-123713141D01*
X113702343Y-123708759D01*
X113352187Y-123522577D01*
X113296867Y-123499776D01*
X113241899Y-123476216D01*
X113233099Y-123473492D01*
X113233093Y-123473490D01*
X112928000Y-123381378D01*
X112928000Y-92456000D01*
X114516574Y-92456000D01*
X114554000Y-92459686D01*
X114591425Y-92456000D01*
X114591426Y-92456000D01*
X114703378Y-92444974D01*
X114847015Y-92401402D01*
X114880492Y-92383508D01*
X114862598Y-92416985D01*
X114819026Y-92560622D01*
X114804314Y-92710000D01*
X114808000Y-92747425D01*
X114808001Y-93688565D01*
X114804314Y-93726000D01*
X114819026Y-93875378D01*
X114862598Y-94019015D01*
X114933355Y-94151392D01*
X115028578Y-94267422D01*
X115144608Y-94362645D01*
X115276985Y-94433402D01*
X115316000Y-94445237D01*
X115316001Y-97244564D01*
X115312314Y-97282000D01*
X115327026Y-97431378D01*
X115370598Y-97575015D01*
X115441355Y-97707392D01*
X115536578Y-97823422D01*
X115652608Y-97918645D01*
X115784985Y-97989402D01*
X115928622Y-98032974D01*
X116040574Y-98044000D01*
X116040575Y-98044000D01*
X116078000Y-98047686D01*
X116115426Y-98044000D01*
X122644575Y-98044000D01*
X122682000Y-98047686D01*
X122831378Y-98032974D01*
X122975015Y-97989402D01*
X123107392Y-97918645D01*
X123223422Y-97823422D01*
X123318645Y-97707392D01*
X123389402Y-97575015D01*
X123432974Y-97431378D01*
X123444000Y-97319426D01*
X123447686Y-97282000D01*
X123444000Y-97244574D01*
X123444000Y-94445237D01*
X123483015Y-94433402D01*
X123615392Y-94362645D01*
X123698000Y-94294850D01*
X123698001Y-104229567D01*
X123694314Y-104267000D01*
X123709027Y-104416378D01*
X123752599Y-104560015D01*
X123823355Y-104692392D01*
X123889279Y-104772720D01*
X123918579Y-104808422D01*
X123947649Y-104832279D01*
X125076000Y-105960630D01*
X125076000Y-106019939D01*
X125115774Y-106219898D01*
X125193795Y-106408256D01*
X125307063Y-106577774D01*
X125451226Y-106721937D01*
X125620744Y-106835205D01*
X125809102Y-106913226D01*
X126009061Y-106953000D01*
X126212939Y-106953000D01*
X126412898Y-106913226D01*
X126601256Y-106835205D01*
X126770774Y-106721937D01*
X126914937Y-106577774D01*
X127028205Y-106408256D01*
X127106226Y-106219898D01*
X127146000Y-106019939D01*
X127146000Y-105816061D01*
X127106226Y-105616102D01*
X127028205Y-105427744D01*
X126914937Y-105258226D01*
X126770774Y-105114063D01*
X126601256Y-105000795D01*
X126412898Y-104922774D01*
X126212939Y-104883000D01*
X126153630Y-104883000D01*
X125222000Y-103951370D01*
X125222000Y-100930445D01*
X130216077Y-105924523D01*
X130251867Y-105968133D01*
X130425911Y-106110968D01*
X130624477Y-106217103D01*
X130774574Y-106262635D01*
X130839932Y-106282461D01*
X130862600Y-106284694D01*
X131007854Y-106299000D01*
X131007860Y-106299000D01*
X131063999Y-106304529D01*
X131120138Y-106299000D01*
X149694977Y-106299000D01*
X149705684Y-106302248D01*
X149876500Y-106319072D01*
X150351500Y-106319072D01*
X150522316Y-106302248D01*
X150533023Y-106299000D01*
X155857430Y-106299000D01*
X155938506Y-106365537D01*
X156048820Y-106424502D01*
X156168518Y-106460812D01*
X156293000Y-106473072D01*
X157651000Y-106473072D01*
X157775482Y-106460812D01*
X157895180Y-106424502D01*
X158005494Y-106365537D01*
X158102185Y-106286185D01*
X158181537Y-106189494D01*
X158240502Y-106079180D01*
X158276812Y-105959482D01*
X158289072Y-105835000D01*
X158289072Y-105026582D01*
X160738000Y-105026582D01*
X160738000Y-105285418D01*
X160788496Y-105539280D01*
X160887548Y-105778412D01*
X161031349Y-105993626D01*
X161214374Y-106176651D01*
X161429588Y-106320452D01*
X161668720Y-106419504D01*
X161922582Y-106470000D01*
X162181418Y-106470000D01*
X162435280Y-106419504D01*
X162674412Y-106320452D01*
X162706517Y-106299000D01*
X165989000Y-106299000D01*
X165989001Y-113735844D01*
X165983470Y-113792000D01*
X166005539Y-114016067D01*
X166070897Y-114231523D01*
X166177032Y-114430089D01*
X166319867Y-114604133D01*
X166493911Y-114746968D01*
X166692477Y-114853103D01*
X166907933Y-114918461D01*
X167075854Y-114935000D01*
X167132000Y-114940530D01*
X167188146Y-114935000D01*
X167356067Y-114918461D01*
X167571523Y-114853103D01*
X167770089Y-114746968D01*
X167944133Y-114604133D01*
X168086968Y-114430089D01*
X168193103Y-114231523D01*
X168258461Y-114016067D01*
X168280530Y-113792000D01*
X168275000Y-113735854D01*
X168275000Y-105575023D01*
X168278248Y-105564316D01*
X168295072Y-105393500D01*
X168295072Y-104918500D01*
X168278248Y-104747684D01*
X168228423Y-104583433D01*
X168147512Y-104432058D01*
X168038623Y-104299377D01*
X167905942Y-104190488D01*
X167894000Y-104184105D01*
X167894000Y-103693630D01*
X169860631Y-101727000D01*
X175686722Y-101727000D01*
X175764377Y-101821623D01*
X175897058Y-101930512D01*
X176048433Y-102011423D01*
X176212684Y-102061248D01*
X176383500Y-102078072D01*
X176958500Y-102078072D01*
X177129316Y-102061248D01*
X177293567Y-102011423D01*
X177444942Y-101930512D01*
X177546000Y-101847575D01*
X177647058Y-101930512D01*
X177798433Y-102011423D01*
X177962684Y-102061248D01*
X178133500Y-102078072D01*
X178708500Y-102078072D01*
X178879316Y-102061248D01*
X179043567Y-102011423D01*
X179194942Y-101930512D01*
X179327623Y-101821623D01*
X179405278Y-101727000D01*
X180131722Y-101727000D01*
X180209377Y-101821623D01*
X180342058Y-101930512D01*
X180493433Y-102011423D01*
X180657684Y-102061248D01*
X180828500Y-102078072D01*
X181403500Y-102078072D01*
X181574316Y-102061248D01*
X181738567Y-102011423D01*
X181889942Y-101930512D01*
X182022623Y-101821623D01*
X182131512Y-101688942D01*
X182212423Y-101537567D01*
X182262248Y-101373316D01*
X182279072Y-101202500D01*
X182279072Y-100727500D01*
X182262248Y-100556684D01*
X182212423Y-100392433D01*
X182131512Y-100241058D01*
X182022623Y-100108377D01*
X181889942Y-99999488D01*
X181738567Y-99918577D01*
X181574316Y-99868752D01*
X181403500Y-99851928D01*
X180828500Y-99851928D01*
X180657684Y-99868752D01*
X180493433Y-99918577D01*
X180342058Y-99999488D01*
X180209377Y-100108377D01*
X180131722Y-100203000D01*
X179405278Y-100203000D01*
X179327623Y-100108377D01*
X179194942Y-99999488D01*
X179043567Y-99918577D01*
X178879316Y-99868752D01*
X178708500Y-99851928D01*
X178133500Y-99851928D01*
X177962684Y-99868752D01*
X177798433Y-99918577D01*
X177647058Y-99999488D01*
X177546000Y-100082425D01*
X177444942Y-99999488D01*
X177293567Y-99918577D01*
X177129316Y-99868752D01*
X176958500Y-99851928D01*
X176383500Y-99851928D01*
X176212684Y-99868752D01*
X176048433Y-99918577D01*
X175897058Y-99999488D01*
X175764377Y-100108377D01*
X175686722Y-100203000D01*
X169582422Y-100203000D01*
X169544999Y-100199314D01*
X169507576Y-100203000D01*
X169507574Y-100203000D01*
X169395622Y-100214026D01*
X169251985Y-100257598D01*
X169119608Y-100328355D01*
X169003578Y-100423578D01*
X168979721Y-100452648D01*
X166619654Y-102812716D01*
X166590578Y-102836578D01*
X166534983Y-102904322D01*
X166495355Y-102952608D01*
X166457535Y-103023365D01*
X166424598Y-103084986D01*
X166381026Y-103228623D01*
X166370000Y-103340574D01*
X166366314Y-103378000D01*
X166370000Y-103415424D01*
X166370000Y-104013000D01*
X162706517Y-104013000D01*
X162674412Y-103991548D01*
X162435280Y-103892496D01*
X162181418Y-103842000D01*
X161922582Y-103842000D01*
X161668720Y-103892496D01*
X161429588Y-103991548D01*
X161214374Y-104135349D01*
X161031349Y-104318374D01*
X160887548Y-104533588D01*
X160788496Y-104772720D01*
X160738000Y-105026582D01*
X158289072Y-105026582D01*
X158289072Y-104477000D01*
X158276812Y-104352518D01*
X158240502Y-104232820D01*
X158181537Y-104122506D01*
X158102185Y-104025815D01*
X158005494Y-103946463D01*
X157895180Y-103887498D01*
X157775482Y-103851188D01*
X157651000Y-103838928D01*
X156293000Y-103838928D01*
X156168518Y-103851188D01*
X156048820Y-103887498D01*
X155938506Y-103946463D01*
X155857430Y-104013000D01*
X150533023Y-104013000D01*
X150522316Y-104009752D01*
X150351500Y-103992928D01*
X149876500Y-103992928D01*
X149705684Y-104009752D01*
X149694977Y-104013000D01*
X131537446Y-104013000D01*
X126619000Y-99094555D01*
X126619000Y-90389445D01*
X128172072Y-88836374D01*
X128197892Y-89098533D01*
X128319975Y-89500982D01*
X128518224Y-89871881D01*
X128785024Y-90196977D01*
X129110120Y-90463777D01*
X129481019Y-90662026D01*
X129883468Y-90784108D01*
X130302000Y-90825330D01*
X130720533Y-90784108D01*
X131122982Y-90662026D01*
X131493881Y-90463777D01*
X131818977Y-90196977D01*
X132085777Y-89871881D01*
X132284026Y-89500982D01*
X132406108Y-89098533D01*
X132437000Y-88784882D01*
X132437000Y-86475118D01*
X132406108Y-86161467D01*
X132284026Y-85759018D01*
X132085777Y-85388119D01*
X131818977Y-85063023D01*
X131493881Y-84796223D01*
X131122981Y-84597974D01*
X130720532Y-84475892D01*
X130302000Y-84434670D01*
X129883467Y-84475892D01*
X129481018Y-84597974D01*
X129110119Y-84796223D01*
X128785023Y-85063023D01*
X128518223Y-85388119D01*
X128319974Y-85759019D01*
X128197892Y-86161468D01*
X128167000Y-86475119D01*
X128167000Y-86487000D01*
X127818138Y-86487000D01*
X127761999Y-86481471D01*
X127705860Y-86487000D01*
X127705854Y-86487000D01*
X127560600Y-86501306D01*
X127537932Y-86503539D01*
X127472574Y-86523365D01*
X127322477Y-86568897D01*
X127123911Y-86675032D01*
X126949867Y-86817867D01*
X126914077Y-86861477D01*
X125222000Y-88553555D01*
X125222000Y-88204711D01*
X125263937Y-88162774D01*
X125377205Y-87993256D01*
X125455226Y-87804898D01*
X125495000Y-87604939D01*
X125495000Y-87401061D01*
X125481196Y-87331661D01*
X125515015Y-87321402D01*
X125647392Y-87250645D01*
X125763422Y-87155422D01*
X125858645Y-87039392D01*
X125929402Y-86907015D01*
X125972974Y-86763378D01*
X125987686Y-86614000D01*
X125984000Y-86576574D01*
X125984000Y-84365426D01*
X125987686Y-84328000D01*
X125983844Y-84288985D01*
X125975178Y-84201000D01*
X136896974Y-84201000D01*
X144399000Y-91703026D01*
X144399000Y-98044000D01*
X144411201Y-98167882D01*
X144447336Y-98287004D01*
X144506017Y-98396787D01*
X144584987Y-98493013D01*
X144681213Y-98571983D01*
X144790996Y-98630664D01*
X144910118Y-98666799D01*
X145034000Y-98679000D01*
X152400000Y-98679000D01*
X152523882Y-98666799D01*
X152643004Y-98630664D01*
X152752787Y-98571983D01*
X152849013Y-98493013D01*
X152927983Y-98396787D01*
X152986664Y-98287004D01*
X153022799Y-98167882D01*
X153035000Y-98044000D01*
X153035000Y-89916000D01*
X153022799Y-89792118D01*
X152986664Y-89672996D01*
X152927983Y-89563213D01*
X152849013Y-89466987D01*
X138879013Y-75496987D01*
X138782787Y-75418017D01*
X138673004Y-75359336D01*
X138553882Y-75323201D01*
X138430000Y-75311000D01*
X133223000Y-75311000D01*
X133223000Y-58674000D01*
X133210799Y-58550118D01*
X133174664Y-58430996D01*
X133115983Y-58321213D01*
X133037013Y-58224987D01*
X132940787Y-58146017D01*
X132831004Y-58087336D01*
X132711882Y-58051201D01*
X132588000Y-58039000D01*
X132059072Y-58039000D01*
X132059072Y-56468890D01*
X132129745Y-56461929D01*
X132277582Y-56417084D01*
X132413829Y-56344258D01*
X132515279Y-56261000D01*
X134043375Y-56261000D01*
X134112000Y-56267759D01*
X134180625Y-56261000D01*
X134385860Y-56240786D01*
X134649195Y-56160904D01*
X134891887Y-56031183D01*
X135104608Y-55856608D01*
X135279183Y-55643887D01*
X135408904Y-55401195D01*
X135488786Y-55137860D01*
X135515759Y-54864000D01*
X135509000Y-54795375D01*
X135509000Y-52935000D01*
X136240882Y-52935000D01*
X136554533Y-52904108D01*
X136956982Y-52782026D01*
X137327881Y-52583777D01*
X137652977Y-52316977D01*
X137919777Y-51991881D01*
X138118026Y-51620982D01*
X138240108Y-51218533D01*
X138281330Y-50800000D01*
X138240108Y-50381467D01*
X138118026Y-49979018D01*
X137919777Y-49608119D01*
X137652977Y-49283023D01*
X137327881Y-49016223D01*
X136956982Y-48817974D01*
X136554533Y-48695892D01*
X136240882Y-48665000D01*
X133931118Y-48665000D01*
X133617467Y-48695892D01*
X133215018Y-48817974D01*
X132844119Y-49016223D01*
X132519023Y-49283023D01*
X132252223Y-49608119D01*
X132053974Y-49979018D01*
X131931892Y-50381467D01*
X131890670Y-50800000D01*
X131931892Y-51218533D01*
X132053974Y-51620982D01*
X132252223Y-51991881D01*
X132519023Y-52316977D01*
X132715001Y-52477812D01*
X132715000Y-53467000D01*
X132515279Y-53467000D01*
X132413829Y-53383742D01*
X132277582Y-53310916D01*
X132129745Y-53266071D01*
X131976000Y-53250928D01*
X131676000Y-53250928D01*
X131522255Y-53266071D01*
X131374418Y-53310916D01*
X131238171Y-53383742D01*
X131191000Y-53422454D01*
X131143829Y-53383742D01*
X131007582Y-53310916D01*
X130859745Y-53266071D01*
X130706000Y-53250928D01*
X130406000Y-53250928D01*
X130252255Y-53266071D01*
X130104418Y-53310916D01*
X129968171Y-53383742D01*
X129848749Y-53481749D01*
X129750742Y-53601171D01*
X129677916Y-53737418D01*
X129633071Y-53885255D01*
X129617928Y-54039000D01*
X129617928Y-54130677D01*
X129513096Y-54326805D01*
X129433214Y-54590140D01*
X129406241Y-54864000D01*
X129433214Y-55137860D01*
X129513096Y-55401195D01*
X129595802Y-55555928D01*
X128954072Y-55555928D01*
X128954072Y-54039000D01*
X128938929Y-53885255D01*
X128894084Y-53737418D01*
X128821258Y-53601171D01*
X128723251Y-53481749D01*
X128603829Y-53383742D01*
X128467582Y-53310916D01*
X128319745Y-53266071D01*
X128166000Y-53250928D01*
X127866000Y-53250928D01*
X127712255Y-53266071D01*
X127564418Y-53310916D01*
X127428171Y-53383742D01*
X127308749Y-53481749D01*
X127210742Y-53601171D01*
X127137916Y-53737418D01*
X127093071Y-53885255D01*
X127077928Y-54039000D01*
X127077928Y-55689000D01*
X127093071Y-55842745D01*
X127137916Y-55990582D01*
X127210742Y-56126829D01*
X127308749Y-56246251D01*
X127428171Y-56344258D01*
X127564418Y-56417084D01*
X127712255Y-56461929D01*
X127782928Y-56468890D01*
X127782928Y-58209110D01*
X127712255Y-58216071D01*
X127564418Y-58260916D01*
X127428171Y-58333742D01*
X127308749Y-58431749D01*
X127210742Y-58551171D01*
X127137916Y-58687418D01*
X127093071Y-58835255D01*
X127077928Y-58989000D01*
X127077928Y-60639000D01*
X127093071Y-60792745D01*
X127137916Y-60940582D01*
X127210742Y-61076829D01*
X127254001Y-61129540D01*
X127254001Y-61274288D01*
X127212063Y-61316226D01*
X127098795Y-61485744D01*
X127020774Y-61674102D01*
X126981000Y-61874061D01*
X126981000Y-62077939D01*
X127020774Y-62277898D01*
X127053539Y-62357000D01*
X121920000Y-62357000D01*
X121920000Y-48768000D01*
X121907799Y-48644118D01*
X121871664Y-48524996D01*
X121812983Y-48415213D01*
X121734013Y-48318987D01*
X121662137Y-48260000D01*
X147955000Y-48260000D01*
X147955000Y-74168000D01*
X147967201Y-74291882D01*
X148003336Y-74411004D01*
X148062017Y-74520787D01*
X148140987Y-74617013D01*
X165227000Y-91703026D01*
X165227000Y-98044000D01*
X165239201Y-98167882D01*
X165275336Y-98287004D01*
X165334017Y-98396787D01*
X165412987Y-98493013D01*
X165509213Y-98571983D01*
X165618996Y-98630664D01*
X165738118Y-98666799D01*
X165862000Y-98679000D01*
X173482000Y-98679000D01*
X173605882Y-98666799D01*
X173725004Y-98630664D01*
X173834787Y-98571983D01*
X173931013Y-98493013D01*
X174009983Y-98396787D01*
X174068664Y-98287004D01*
X174104799Y-98167882D01*
X174117000Y-98044000D01*
X174117000Y-96266000D01*
X175813722Y-96266000D01*
X175891377Y-96360623D01*
X176024058Y-96469512D01*
X176175433Y-96550423D01*
X176339684Y-96600248D01*
X176510500Y-96617072D01*
X177085500Y-96617072D01*
X177256316Y-96600248D01*
X177420567Y-96550423D01*
X177571942Y-96469512D01*
X177673000Y-96386575D01*
X177774058Y-96469512D01*
X177925433Y-96550423D01*
X178089684Y-96600248D01*
X178260500Y-96617072D01*
X178835500Y-96617072D01*
X179006316Y-96600248D01*
X179170567Y-96550423D01*
X179321942Y-96469512D01*
X179454623Y-96360623D01*
X179532278Y-96266000D01*
X180258722Y-96266000D01*
X180336377Y-96360623D01*
X180469058Y-96469512D01*
X180620433Y-96550423D01*
X180784684Y-96600248D01*
X180955500Y-96617072D01*
X181530500Y-96617072D01*
X181701316Y-96600248D01*
X181865567Y-96550423D01*
X182016942Y-96469512D01*
X182149623Y-96360623D01*
X182258512Y-96227942D01*
X182339423Y-96076567D01*
X182389248Y-95912316D01*
X182406072Y-95741500D01*
X182406072Y-95266500D01*
X182389248Y-95095684D01*
X182339423Y-94931433D01*
X182258512Y-94780058D01*
X182149623Y-94647377D01*
X182016942Y-94538488D01*
X181865567Y-94457577D01*
X181701316Y-94407752D01*
X181530500Y-94390928D01*
X180955500Y-94390928D01*
X180784684Y-94407752D01*
X180620433Y-94457577D01*
X180469058Y-94538488D01*
X180336377Y-94647377D01*
X180258722Y-94742000D01*
X179532278Y-94742000D01*
X179454623Y-94647377D01*
X179321942Y-94538488D01*
X179170567Y-94457577D01*
X179006316Y-94407752D01*
X178835500Y-94390928D01*
X178260500Y-94390928D01*
X178089684Y-94407752D01*
X177925433Y-94457577D01*
X177774058Y-94538488D01*
X177673000Y-94621425D01*
X177571942Y-94538488D01*
X177420567Y-94457577D01*
X177256316Y-94407752D01*
X177085500Y-94390928D01*
X176510500Y-94390928D01*
X176339684Y-94407752D01*
X176175433Y-94457577D01*
X176024058Y-94538488D01*
X175891377Y-94647377D01*
X175813722Y-94742000D01*
X174117000Y-94742000D01*
X174117000Y-87884000D01*
X174104799Y-87760118D01*
X174068664Y-87640996D01*
X174009983Y-87531213D01*
X173931013Y-87434987D01*
X156845000Y-70348974D01*
X156845000Y-48260000D01*
X156832799Y-48136118D01*
X156796664Y-48016996D01*
X156737983Y-47907213D01*
X156659013Y-47810987D01*
X156562787Y-47732017D01*
X156453004Y-47673336D01*
X156333882Y-47637201D01*
X156210000Y-47625000D01*
X148590000Y-47625000D01*
X148466118Y-47637201D01*
X148346996Y-47673336D01*
X148237213Y-47732017D01*
X148140987Y-47810987D01*
X148062017Y-47907213D01*
X148003336Y-48016996D01*
X147967201Y-48136118D01*
X147955000Y-48260000D01*
X121662137Y-48260000D01*
X121637787Y-48240017D01*
X121528004Y-48181336D01*
X121408882Y-48145201D01*
X121285000Y-48133000D01*
X113665000Y-48133000D01*
X113665000Y-41336630D01*
X113726630Y-41275000D01*
X168754995Y-41275000D01*
X168840880Y-41403535D01*
X169035465Y-41598120D01*
X169264273Y-41751005D01*
X169518510Y-41856314D01*
X169788408Y-41910000D01*
X170063592Y-41910000D01*
X170333490Y-41856314D01*
X170587727Y-41751005D01*
X170816535Y-41598120D01*
X171011120Y-41403535D01*
X171164005Y-41174727D01*
X171269314Y-40920490D01*
X171323000Y-40650592D01*
X171323000Y-40375408D01*
X171269314Y-40105510D01*
X171164005Y-39851273D01*
X171011120Y-39622465D01*
X170816535Y-39427880D01*
X170587727Y-39274995D01*
X170333490Y-39169686D01*
X170063592Y-39116000D01*
X169788408Y-39116000D01*
X169518510Y-39169686D01*
X169264273Y-39274995D01*
X169035465Y-39427880D01*
X168840880Y-39622465D01*
X168754995Y-39751000D01*
X113448415Y-39751000D01*
X113410999Y-39747315D01*
X113373583Y-39751000D01*
X113373574Y-39751000D01*
X113261622Y-39762026D01*
X113117985Y-39805598D01*
X112985608Y-39876355D01*
X112928000Y-39923632D01*
X112928000Y-35981106D01*
X169278300Y-35981106D01*
X169278300Y-36408894D01*
X169361757Y-36828462D01*
X169525464Y-37223686D01*
X169763130Y-37579378D01*
X170065622Y-37881870D01*
X170421314Y-38119536D01*
X170816538Y-38283243D01*
X171236106Y-38366700D01*
X171663894Y-38366700D01*
X172083462Y-38283243D01*
X172478686Y-38119536D01*
X172834378Y-37881870D01*
X173136870Y-37579378D01*
X173374536Y-37223686D01*
X173538243Y-36828462D01*
X173621700Y-36408894D01*
X173621700Y-35981106D01*
X173538243Y-35561538D01*
X173374536Y-35166314D01*
X173136870Y-34810622D01*
X172834378Y-34508130D01*
X172478686Y-34270464D01*
X172083462Y-34106757D01*
X171663894Y-34023300D01*
X171236106Y-34023300D01*
X170816538Y-34106757D01*
X170421314Y-34270464D01*
X170065622Y-34508130D01*
X169763130Y-34810622D01*
X169525464Y-35166314D01*
X169361757Y-35561538D01*
X169278300Y-35981106D01*
X112928000Y-35981106D01*
X112928000Y-34068279D01*
X112942722Y-33918131D01*
X112976953Y-33804754D01*
X113032555Y-33700181D01*
X113107407Y-33608404D01*
X113198664Y-33532909D01*
X113302844Y-33476581D01*
X113415976Y-33441560D01*
X113564022Y-33426000D01*
X193538191Y-33426000D01*
X196069700Y-33501133D01*
G37*
X196069700Y-33501133D02*
X198582508Y-33725395D01*
X201077584Y-34098288D01*
X203546175Y-34618501D01*
X205979555Y-35284199D01*
X208369186Y-36093044D01*
X210706636Y-37042184D01*
X212983662Y-38128270D01*
X215192289Y-39347497D01*
X217324722Y-40695564D01*
X219373438Y-42167717D01*
X221331245Y-43758781D01*
X223191259Y-45463171D01*
X224946897Y-47274848D01*
X226592030Y-49187492D01*
X228120810Y-51194302D01*
X229527891Y-53288261D01*
X230808308Y-55461979D01*
X231957556Y-57707807D01*
X232971587Y-60017833D01*
X233846838Y-62383946D01*
X234580222Y-64797797D01*
X235169157Y-67250886D01*
X235611570Y-69734581D01*
X235905909Y-72240164D01*
X236051430Y-74763960D01*
X236068000Y-75950632D01*
X236068001Y-90899711D01*
X236038766Y-91197876D01*
X235961551Y-91453624D01*
X235836131Y-91689504D01*
X235667289Y-91896525D01*
X235461446Y-92066813D01*
X235226444Y-92193879D01*
X234971240Y-92272877D01*
X234675118Y-92304000D01*
X218980419Y-92304000D01*
X218948000Y-92300807D01*
X218915581Y-92304000D01*
X218818617Y-92313550D01*
X218694207Y-92351290D01*
X218579550Y-92412575D01*
X218479052Y-92495052D01*
X218396575Y-92595550D01*
X218335290Y-92710207D01*
X218297550Y-92834617D01*
X218284807Y-92964000D01*
X218288001Y-92996429D01*
X218288000Y-113759581D01*
X218284807Y-113792000D01*
X218297550Y-113921383D01*
X218335290Y-114045793D01*
X218396575Y-114160450D01*
X218477645Y-114259233D01*
X218479052Y-114260948D01*
X218579550Y-114343425D01*
X218694207Y-114404710D01*
X218818617Y-114442450D01*
X218948000Y-114455193D01*
X218980419Y-114452000D01*
X234663721Y-114452000D01*
X234961875Y-114481234D01*
X235217622Y-114558448D01*
X235453504Y-114683869D01*
X235660530Y-114852716D01*
X235830813Y-115058554D01*
X235957879Y-115293556D01*
X236036876Y-115548756D01*
X236068001Y-115844891D01*
X236068000Y-123379339D01*
X235727946Y-123487211D01*
X235672974Y-123510772D01*
X235617659Y-123533571D01*
X235609553Y-123537954D01*
X235262030Y-123729006D01*
X235212674Y-123762801D01*
X235162847Y-123795906D01*
X235155747Y-123801780D01*
X234851951Y-124056695D01*
X234810105Y-124099428D01*
X234767653Y-124141584D01*
X234761829Y-124148725D01*
X234513332Y-124457794D01*
X234480606Y-124507805D01*
X234447127Y-124557439D01*
X234442801Y-124565576D01*
X234259068Y-124917022D01*
X234236656Y-124972494D01*
X234213478Y-125027632D01*
X234210815Y-125036454D01*
X234098845Y-125416896D01*
X234087645Y-125475612D01*
X234075607Y-125534254D01*
X234074708Y-125543425D01*
X234038766Y-125938370D01*
X234039184Y-125998186D01*
X234038766Y-126058003D01*
X234039665Y-126067174D01*
X234081118Y-126461577D01*
X234093148Y-126520183D01*
X234104355Y-126578935D01*
X234107019Y-126587757D01*
X234224290Y-126966599D01*
X234247474Y-127021750D01*
X234269880Y-127077208D01*
X234274206Y-127085345D01*
X234462828Y-127434193D01*
X234496283Y-127483792D01*
X234529032Y-127533838D01*
X234534855Y-127540977D01*
X234534858Y-127540981D01*
X234534862Y-127540985D01*
X234787644Y-127846547D01*
X234830061Y-127888669D01*
X234871943Y-127931438D01*
X234879044Y-127937311D01*
X235186369Y-128187960D01*
X235236178Y-128221052D01*
X235285550Y-128254859D01*
X235293656Y-128259241D01*
X235643813Y-128445423D01*
X235699105Y-128468212D01*
X235754101Y-128491784D01*
X235762905Y-128494509D01*
X236068001Y-128586623D01*
X236068000Y-136619721D01*
X236038766Y-136917876D01*
X235961551Y-137173624D01*
X235836131Y-137409504D01*
X235667289Y-137616525D01*
X235461446Y-137786813D01*
X235226444Y-137913879D01*
X234971240Y-137992877D01*
X234675118Y-138024000D01*
X114332279Y-138024000D01*
X114034124Y-137994766D01*
X113778376Y-137917551D01*
X113542496Y-137792131D01*
X113335475Y-137623289D01*
X113165187Y-137417446D01*
X113038121Y-137182444D01*
X112959123Y-136927240D01*
X112928000Y-136631118D01*
X112928000Y-128588661D01*
X113268055Y-128480789D01*
X113323040Y-128457222D01*
X113378341Y-128434429D01*
X113386447Y-128430046D01*
X113733970Y-128238994D01*
X113783327Y-128205199D01*
X113833153Y-128172094D01*
X113840254Y-128166220D01*
X114144049Y-127911305D01*
X114185912Y-127868555D01*
X114228347Y-127826416D01*
X114234171Y-127819274D01*
X114482668Y-127510206D01*
X114515415Y-127460164D01*
X114548873Y-127410561D01*
X114553199Y-127402425D01*
X114736932Y-127050978D01*
X114759337Y-126995523D01*
X114782522Y-126940368D01*
X114785185Y-126931546D01*
X114897155Y-126551104D01*
X114908355Y-126492388D01*
X114920393Y-126433746D01*
X114921292Y-126424575D01*
X114957234Y-126029630D01*
X114956816Y-125969814D01*
X114957234Y-125909997D01*
X114956334Y-125900826D01*
X114914882Y-125506422D01*
X114902855Y-125447829D01*
X114891645Y-125389065D01*
X114888981Y-125380243D01*
X114771710Y-125001401D01*
X114748526Y-124946250D01*
X114726120Y-124890792D01*
X114721794Y-124882655D01*
X114533172Y-124533807D01*
X114499717Y-124484208D01*
X114466968Y-124434162D01*
X114461144Y-124427021D01*
X114208356Y-124121453D01*
X114165923Y-124079315D01*
X114124057Y-124036562D01*
X114116962Y-124030694D01*
X114116957Y-124030689D01*
X114116952Y-124030685D01*
X113809631Y-123780041D01*
X113759838Y-123746959D01*
X113710449Y-123713141D01*
X113702343Y-123708759D01*
X113352187Y-123522577D01*
X113296867Y-123499776D01*
X113241899Y-123476216D01*
X113233099Y-123473492D01*
X113233093Y-123473490D01*
X112928000Y-123381378D01*
X112928000Y-92456000D01*
X114516574Y-92456000D01*
X114554000Y-92459686D01*
X114591425Y-92456000D01*
X114591426Y-92456000D01*
X114703378Y-92444974D01*
X114847015Y-92401402D01*
X114880492Y-92383508D01*
X114862598Y-92416985D01*
X114819026Y-92560622D01*
X114804314Y-92710000D01*
X114808000Y-92747425D01*
X114808001Y-93688565D01*
X114804314Y-93726000D01*
X114819026Y-93875378D01*
X114862598Y-94019015D01*
X114933355Y-94151392D01*
X115028578Y-94267422D01*
X115144608Y-94362645D01*
X115276985Y-94433402D01*
X115316000Y-94445237D01*
X115316001Y-97244564D01*
X115312314Y-97282000D01*
X115327026Y-97431378D01*
X115370598Y-97575015D01*
X115441355Y-97707392D01*
X115536578Y-97823422D01*
X115652608Y-97918645D01*
X115784985Y-97989402D01*
X115928622Y-98032974D01*
X116040574Y-98044000D01*
X116040575Y-98044000D01*
X116078000Y-98047686D01*
X116115426Y-98044000D01*
X122644575Y-98044000D01*
X122682000Y-98047686D01*
X122831378Y-98032974D01*
X122975015Y-97989402D01*
X123107392Y-97918645D01*
X123223422Y-97823422D01*
X123318645Y-97707392D01*
X123389402Y-97575015D01*
X123432974Y-97431378D01*
X123444000Y-97319426D01*
X123447686Y-97282000D01*
X123444000Y-97244574D01*
X123444000Y-94445237D01*
X123483015Y-94433402D01*
X123615392Y-94362645D01*
X123698000Y-94294850D01*
X123698001Y-104229567D01*
X123694314Y-104267000D01*
X123709027Y-104416378D01*
X123752599Y-104560015D01*
X123823355Y-104692392D01*
X123889279Y-104772720D01*
X123918579Y-104808422D01*
X123947649Y-104832279D01*
X125076000Y-105960630D01*
X125076000Y-106019939D01*
X125115774Y-106219898D01*
X125193795Y-106408256D01*
X125307063Y-106577774D01*
X125451226Y-106721937D01*
X125620744Y-106835205D01*
X125809102Y-106913226D01*
X126009061Y-106953000D01*
X126212939Y-106953000D01*
X126412898Y-106913226D01*
X126601256Y-106835205D01*
X126770774Y-106721937D01*
X126914937Y-106577774D01*
X127028205Y-106408256D01*
X127106226Y-106219898D01*
X127146000Y-106019939D01*
X127146000Y-105816061D01*
X127106226Y-105616102D01*
X127028205Y-105427744D01*
X126914937Y-105258226D01*
X126770774Y-105114063D01*
X126601256Y-105000795D01*
X126412898Y-104922774D01*
X126212939Y-104883000D01*
X126153630Y-104883000D01*
X125222000Y-103951370D01*
X125222000Y-100930445D01*
X130216077Y-105924523D01*
X130251867Y-105968133D01*
X130425911Y-106110968D01*
X130624477Y-106217103D01*
X130774574Y-106262635D01*
X130839932Y-106282461D01*
X130862600Y-106284694D01*
X131007854Y-106299000D01*
X131007860Y-106299000D01*
X131063999Y-106304529D01*
X131120138Y-106299000D01*
X149694977Y-106299000D01*
X149705684Y-106302248D01*
X149876500Y-106319072D01*
X150351500Y-106319072D01*
X150522316Y-106302248D01*
X150533023Y-106299000D01*
X155857430Y-106299000D01*
X155938506Y-106365537D01*
X156048820Y-106424502D01*
X156168518Y-106460812D01*
X156293000Y-106473072D01*
X157651000Y-106473072D01*
X157775482Y-106460812D01*
X157895180Y-106424502D01*
X158005494Y-106365537D01*
X158102185Y-106286185D01*
X158181537Y-106189494D01*
X158240502Y-106079180D01*
X158276812Y-105959482D01*
X158289072Y-105835000D01*
X158289072Y-105026582D01*
X160738000Y-105026582D01*
X160738000Y-105285418D01*
X160788496Y-105539280D01*
X160887548Y-105778412D01*
X161031349Y-105993626D01*
X161214374Y-106176651D01*
X161429588Y-106320452D01*
X161668720Y-106419504D01*
X161922582Y-106470000D01*
X162181418Y-106470000D01*
X162435280Y-106419504D01*
X162674412Y-106320452D01*
X162706517Y-106299000D01*
X165989000Y-106299000D01*
X165989001Y-113735844D01*
X165983470Y-113792000D01*
X166005539Y-114016067D01*
X166070897Y-114231523D01*
X166177032Y-114430089D01*
X166319867Y-114604133D01*
X166493911Y-114746968D01*
X166692477Y-114853103D01*
X166907933Y-114918461D01*
X167075854Y-114935000D01*
X167132000Y-114940530D01*
X167188146Y-114935000D01*
X167356067Y-114918461D01*
X167571523Y-114853103D01*
X167770089Y-114746968D01*
X167944133Y-114604133D01*
X168086968Y-114430089D01*
X168193103Y-114231523D01*
X168258461Y-114016067D01*
X168280530Y-113792000D01*
X168275000Y-113735854D01*
X168275000Y-105575023D01*
X168278248Y-105564316D01*
X168295072Y-105393500D01*
X168295072Y-104918500D01*
X168278248Y-104747684D01*
X168228423Y-104583433D01*
X168147512Y-104432058D01*
X168038623Y-104299377D01*
X167905942Y-104190488D01*
X167894000Y-104184105D01*
X167894000Y-103693630D01*
X169860631Y-101727000D01*
X175686722Y-101727000D01*
X175764377Y-101821623D01*
X175897058Y-101930512D01*
X176048433Y-102011423D01*
X176212684Y-102061248D01*
X176383500Y-102078072D01*
X176958500Y-102078072D01*
X177129316Y-102061248D01*
X177293567Y-102011423D01*
X177444942Y-101930512D01*
X177546000Y-101847575D01*
X177647058Y-101930512D01*
X177798433Y-102011423D01*
X177962684Y-102061248D01*
X178133500Y-102078072D01*
X178708500Y-102078072D01*
X178879316Y-102061248D01*
X179043567Y-102011423D01*
X179194942Y-101930512D01*
X179327623Y-101821623D01*
X179405278Y-101727000D01*
X180131722Y-101727000D01*
X180209377Y-101821623D01*
X180342058Y-101930512D01*
X180493433Y-102011423D01*
X180657684Y-102061248D01*
X180828500Y-102078072D01*
X181403500Y-102078072D01*
X181574316Y-102061248D01*
X181738567Y-102011423D01*
X181889942Y-101930512D01*
X182022623Y-101821623D01*
X182131512Y-101688942D01*
X182212423Y-101537567D01*
X182262248Y-101373316D01*
X182279072Y-101202500D01*
X182279072Y-100727500D01*
X182262248Y-100556684D01*
X182212423Y-100392433D01*
X182131512Y-100241058D01*
X182022623Y-100108377D01*
X181889942Y-99999488D01*
X181738567Y-99918577D01*
X181574316Y-99868752D01*
X181403500Y-99851928D01*
X180828500Y-99851928D01*
X180657684Y-99868752D01*
X180493433Y-99918577D01*
X180342058Y-99999488D01*
X180209377Y-100108377D01*
X180131722Y-100203000D01*
X179405278Y-100203000D01*
X179327623Y-100108377D01*
X179194942Y-99999488D01*
X179043567Y-99918577D01*
X178879316Y-99868752D01*
X178708500Y-99851928D01*
X178133500Y-99851928D01*
X177962684Y-99868752D01*
X177798433Y-99918577D01*
X177647058Y-99999488D01*
X177546000Y-100082425D01*
X177444942Y-99999488D01*
X177293567Y-99918577D01*
X177129316Y-99868752D01*
X176958500Y-99851928D01*
X176383500Y-99851928D01*
X176212684Y-99868752D01*
X176048433Y-99918577D01*
X175897058Y-99999488D01*
X175764377Y-100108377D01*
X175686722Y-100203000D01*
X169582422Y-100203000D01*
X169544999Y-100199314D01*
X169507576Y-100203000D01*
X169507574Y-100203000D01*
X169395622Y-100214026D01*
X169251985Y-100257598D01*
X169119608Y-100328355D01*
X169003578Y-100423578D01*
X168979721Y-100452648D01*
X166619654Y-102812716D01*
X166590578Y-102836578D01*
X166534983Y-102904322D01*
X166495355Y-102952608D01*
X166457535Y-103023365D01*
X166424598Y-103084986D01*
X166381026Y-103228623D01*
X166370000Y-103340574D01*
X166366314Y-103378000D01*
X166370000Y-103415424D01*
X166370000Y-104013000D01*
X162706517Y-104013000D01*
X162674412Y-103991548D01*
X162435280Y-103892496D01*
X162181418Y-103842000D01*
X161922582Y-103842000D01*
X161668720Y-103892496D01*
X161429588Y-103991548D01*
X161214374Y-104135349D01*
X161031349Y-104318374D01*
X160887548Y-104533588D01*
X160788496Y-104772720D01*
X160738000Y-105026582D01*
X158289072Y-105026582D01*
X158289072Y-104477000D01*
X158276812Y-104352518D01*
X158240502Y-104232820D01*
X158181537Y-104122506D01*
X158102185Y-104025815D01*
X158005494Y-103946463D01*
X157895180Y-103887498D01*
X157775482Y-103851188D01*
X157651000Y-103838928D01*
X156293000Y-103838928D01*
X156168518Y-103851188D01*
X156048820Y-103887498D01*
X155938506Y-103946463D01*
X155857430Y-104013000D01*
X150533023Y-104013000D01*
X150522316Y-104009752D01*
X150351500Y-103992928D01*
X149876500Y-103992928D01*
X149705684Y-104009752D01*
X149694977Y-104013000D01*
X131537446Y-104013000D01*
X126619000Y-99094555D01*
X126619000Y-90389445D01*
X128172072Y-88836374D01*
X128197892Y-89098533D01*
X128319975Y-89500982D01*
X128518224Y-89871881D01*
X128785024Y-90196977D01*
X129110120Y-90463777D01*
X129481019Y-90662026D01*
X129883468Y-90784108D01*
X130302000Y-90825330D01*
X130720533Y-90784108D01*
X131122982Y-90662026D01*
X131493881Y-90463777D01*
X131818977Y-90196977D01*
X132085777Y-89871881D01*
X132284026Y-89500982D01*
X132406108Y-89098533D01*
X132437000Y-88784882D01*
X132437000Y-86475118D01*
X132406108Y-86161467D01*
X132284026Y-85759018D01*
X132085777Y-85388119D01*
X131818977Y-85063023D01*
X131493881Y-84796223D01*
X131122981Y-84597974D01*
X130720532Y-84475892D01*
X130302000Y-84434670D01*
X129883467Y-84475892D01*
X129481018Y-84597974D01*
X129110119Y-84796223D01*
X128785023Y-85063023D01*
X128518223Y-85388119D01*
X128319974Y-85759019D01*
X128197892Y-86161468D01*
X128167000Y-86475119D01*
X128167000Y-86487000D01*
X127818138Y-86487000D01*
X127761999Y-86481471D01*
X127705860Y-86487000D01*
X127705854Y-86487000D01*
X127560600Y-86501306D01*
X127537932Y-86503539D01*
X127472574Y-86523365D01*
X127322477Y-86568897D01*
X127123911Y-86675032D01*
X126949867Y-86817867D01*
X126914077Y-86861477D01*
X125222000Y-88553555D01*
X125222000Y-88204711D01*
X125263937Y-88162774D01*
X125377205Y-87993256D01*
X125455226Y-87804898D01*
X125495000Y-87604939D01*
X125495000Y-87401061D01*
X125481196Y-87331661D01*
X125515015Y-87321402D01*
X125647392Y-87250645D01*
X125763422Y-87155422D01*
X125858645Y-87039392D01*
X125929402Y-86907015D01*
X125972974Y-86763378D01*
X125987686Y-86614000D01*
X125984000Y-86576574D01*
X125984000Y-84365426D01*
X125987686Y-84328000D01*
X125983844Y-84288985D01*
X125975178Y-84201000D01*
X136896974Y-84201000D01*
X144399000Y-91703026D01*
X144399000Y-98044000D01*
X144411201Y-98167882D01*
X144447336Y-98287004D01*
X144506017Y-98396787D01*
X144584987Y-98493013D01*
X144681213Y-98571983D01*
X144790996Y-98630664D01*
X144910118Y-98666799D01*
X145034000Y-98679000D01*
X152400000Y-98679000D01*
X152523882Y-98666799D01*
X152643004Y-98630664D01*
X152752787Y-98571983D01*
X152849013Y-98493013D01*
X152927983Y-98396787D01*
X152986664Y-98287004D01*
X153022799Y-98167882D01*
X153035000Y-98044000D01*
X153035000Y-89916000D01*
X153022799Y-89792118D01*
X152986664Y-89672996D01*
X152927983Y-89563213D01*
X152849013Y-89466987D01*
X138879013Y-75496987D01*
X138782787Y-75418017D01*
X138673004Y-75359336D01*
X138553882Y-75323201D01*
X138430000Y-75311000D01*
X133223000Y-75311000D01*
X133223000Y-58674000D01*
X133210799Y-58550118D01*
X133174664Y-58430996D01*
X133115983Y-58321213D01*
X133037013Y-58224987D01*
X132940787Y-58146017D01*
X132831004Y-58087336D01*
X132711882Y-58051201D01*
X132588000Y-58039000D01*
X132059072Y-58039000D01*
X132059072Y-56468890D01*
X132129745Y-56461929D01*
X132277582Y-56417084D01*
X132413829Y-56344258D01*
X132515279Y-56261000D01*
X134043375Y-56261000D01*
X134112000Y-56267759D01*
X134180625Y-56261000D01*
X134385860Y-56240786D01*
X134649195Y-56160904D01*
X134891887Y-56031183D01*
X135104608Y-55856608D01*
X135279183Y-55643887D01*
X135408904Y-55401195D01*
X135488786Y-55137860D01*
X135515759Y-54864000D01*
X135509000Y-54795375D01*
X135509000Y-52935000D01*
X136240882Y-52935000D01*
X136554533Y-52904108D01*
X136956982Y-52782026D01*
X137327881Y-52583777D01*
X137652977Y-52316977D01*
X137919777Y-51991881D01*
X138118026Y-51620982D01*
X138240108Y-51218533D01*
X138281330Y-50800000D01*
X138240108Y-50381467D01*
X138118026Y-49979018D01*
X137919777Y-49608119D01*
X137652977Y-49283023D01*
X137327881Y-49016223D01*
X136956982Y-48817974D01*
X136554533Y-48695892D01*
X136240882Y-48665000D01*
X133931118Y-48665000D01*
X133617467Y-48695892D01*
X133215018Y-48817974D01*
X132844119Y-49016223D01*
X132519023Y-49283023D01*
X132252223Y-49608119D01*
X132053974Y-49979018D01*
X131931892Y-50381467D01*
X131890670Y-50800000D01*
X131931892Y-51218533D01*
X132053974Y-51620982D01*
X132252223Y-51991881D01*
X132519023Y-52316977D01*
X132715001Y-52477812D01*
X132715000Y-53467000D01*
X132515279Y-53467000D01*
X132413829Y-53383742D01*
X132277582Y-53310916D01*
X132129745Y-53266071D01*
X131976000Y-53250928D01*
X131676000Y-53250928D01*
X131522255Y-53266071D01*
X131374418Y-53310916D01*
X131238171Y-53383742D01*
X131191000Y-53422454D01*
X131143829Y-53383742D01*
X131007582Y-53310916D01*
X130859745Y-53266071D01*
X130706000Y-53250928D01*
X130406000Y-53250928D01*
X130252255Y-53266071D01*
X130104418Y-53310916D01*
X129968171Y-53383742D01*
X129848749Y-53481749D01*
X129750742Y-53601171D01*
X129677916Y-53737418D01*
X129633071Y-53885255D01*
X129617928Y-54039000D01*
X129617928Y-54130677D01*
X129513096Y-54326805D01*
X129433214Y-54590140D01*
X129406241Y-54864000D01*
X129433214Y-55137860D01*
X129513096Y-55401195D01*
X129595802Y-55555928D01*
X128954072Y-55555928D01*
X128954072Y-54039000D01*
X128938929Y-53885255D01*
X128894084Y-53737418D01*
X128821258Y-53601171D01*
X128723251Y-53481749D01*
X128603829Y-53383742D01*
X128467582Y-53310916D01*
X128319745Y-53266071D01*
X128166000Y-53250928D01*
X127866000Y-53250928D01*
X127712255Y-53266071D01*
X127564418Y-53310916D01*
X127428171Y-53383742D01*
X127308749Y-53481749D01*
X127210742Y-53601171D01*
X127137916Y-53737418D01*
X127093071Y-53885255D01*
X127077928Y-54039000D01*
X127077928Y-55689000D01*
X127093071Y-55842745D01*
X127137916Y-55990582D01*
X127210742Y-56126829D01*
X127308749Y-56246251D01*
X127428171Y-56344258D01*
X127564418Y-56417084D01*
X127712255Y-56461929D01*
X127782928Y-56468890D01*
X127782928Y-58209110D01*
X127712255Y-58216071D01*
X127564418Y-58260916D01*
X127428171Y-58333742D01*
X127308749Y-58431749D01*
X127210742Y-58551171D01*
X127137916Y-58687418D01*
X127093071Y-58835255D01*
X127077928Y-58989000D01*
X127077928Y-60639000D01*
X127093071Y-60792745D01*
X127137916Y-60940582D01*
X127210742Y-61076829D01*
X127254001Y-61129540D01*
X127254001Y-61274288D01*
X127212063Y-61316226D01*
X127098795Y-61485744D01*
X127020774Y-61674102D01*
X126981000Y-61874061D01*
X126981000Y-62077939D01*
X127020774Y-62277898D01*
X127053539Y-62357000D01*
X121920000Y-62357000D01*
X121920000Y-48768000D01*
X121907799Y-48644118D01*
X121871664Y-48524996D01*
X121812983Y-48415213D01*
X121734013Y-48318987D01*
X121662137Y-48260000D01*
X147955000Y-48260000D01*
X147955000Y-74168000D01*
X147967201Y-74291882D01*
X148003336Y-74411004D01*
X148062017Y-74520787D01*
X148140987Y-74617013D01*
X165227000Y-91703026D01*
X165227000Y-98044000D01*
X165239201Y-98167882D01*
X165275336Y-98287004D01*
X165334017Y-98396787D01*
X165412987Y-98493013D01*
X165509213Y-98571983D01*
X165618996Y-98630664D01*
X165738118Y-98666799D01*
X165862000Y-98679000D01*
X173482000Y-98679000D01*
X173605882Y-98666799D01*
X173725004Y-98630664D01*
X173834787Y-98571983D01*
X173931013Y-98493013D01*
X174009983Y-98396787D01*
X174068664Y-98287004D01*
X174104799Y-98167882D01*
X174117000Y-98044000D01*
X174117000Y-96266000D01*
X175813722Y-96266000D01*
X175891377Y-96360623D01*
X176024058Y-96469512D01*
X176175433Y-96550423D01*
X176339684Y-96600248D01*
X176510500Y-96617072D01*
X177085500Y-96617072D01*
X177256316Y-96600248D01*
X177420567Y-96550423D01*
X177571942Y-96469512D01*
X177673000Y-96386575D01*
X177774058Y-96469512D01*
X177925433Y-96550423D01*
X178089684Y-96600248D01*
X178260500Y-96617072D01*
X178835500Y-96617072D01*
X179006316Y-96600248D01*
X179170567Y-96550423D01*
X179321942Y-96469512D01*
X179454623Y-96360623D01*
X179532278Y-96266000D01*
X180258722Y-96266000D01*
X180336377Y-96360623D01*
X180469058Y-96469512D01*
X180620433Y-96550423D01*
X180784684Y-96600248D01*
X180955500Y-96617072D01*
X181530500Y-96617072D01*
X181701316Y-96600248D01*
X181865567Y-96550423D01*
X182016942Y-96469512D01*
X182149623Y-96360623D01*
X182258512Y-96227942D01*
X182339423Y-96076567D01*
X182389248Y-95912316D01*
X182406072Y-95741500D01*
X182406072Y-95266500D01*
X182389248Y-95095684D01*
X182339423Y-94931433D01*
X182258512Y-94780058D01*
X182149623Y-94647377D01*
X182016942Y-94538488D01*
X181865567Y-94457577D01*
X181701316Y-94407752D01*
X181530500Y-94390928D01*
X180955500Y-94390928D01*
X180784684Y-94407752D01*
X180620433Y-94457577D01*
X180469058Y-94538488D01*
X180336377Y-94647377D01*
X180258722Y-94742000D01*
X179532278Y-94742000D01*
X179454623Y-94647377D01*
X179321942Y-94538488D01*
X179170567Y-94457577D01*
X179006316Y-94407752D01*
X178835500Y-94390928D01*
X178260500Y-94390928D01*
X178089684Y-94407752D01*
X177925433Y-94457577D01*
X177774058Y-94538488D01*
X177673000Y-94621425D01*
X177571942Y-94538488D01*
X177420567Y-94457577D01*
X177256316Y-94407752D01*
X177085500Y-94390928D01*
X176510500Y-94390928D01*
X176339684Y-94407752D01*
X176175433Y-94457577D01*
X176024058Y-94538488D01*
X175891377Y-94647377D01*
X175813722Y-94742000D01*
X174117000Y-94742000D01*
X174117000Y-87884000D01*
X174104799Y-87760118D01*
X174068664Y-87640996D01*
X174009983Y-87531213D01*
X173931013Y-87434987D01*
X156845000Y-70348974D01*
X156845000Y-48260000D01*
X156832799Y-48136118D01*
X156796664Y-48016996D01*
X156737983Y-47907213D01*
X156659013Y-47810987D01*
X156562787Y-47732017D01*
X156453004Y-47673336D01*
X156333882Y-47637201D01*
X156210000Y-47625000D01*
X148590000Y-47625000D01*
X148466118Y-47637201D01*
X148346996Y-47673336D01*
X148237213Y-47732017D01*
X148140987Y-47810987D01*
X148062017Y-47907213D01*
X148003336Y-48016996D01*
X147967201Y-48136118D01*
X147955000Y-48260000D01*
X121662137Y-48260000D01*
X121637787Y-48240017D01*
X121528004Y-48181336D01*
X121408882Y-48145201D01*
X121285000Y-48133000D01*
X113665000Y-48133000D01*
X113665000Y-41336630D01*
X113726630Y-41275000D01*
X168754995Y-41275000D01*
X168840880Y-41403535D01*
X169035465Y-41598120D01*
X169264273Y-41751005D01*
X169518510Y-41856314D01*
X169788408Y-41910000D01*
X170063592Y-41910000D01*
X170333490Y-41856314D01*
X170587727Y-41751005D01*
X170816535Y-41598120D01*
X171011120Y-41403535D01*
X171164005Y-41174727D01*
X171269314Y-40920490D01*
X171323000Y-40650592D01*
X171323000Y-40375408D01*
X171269314Y-40105510D01*
X171164005Y-39851273D01*
X171011120Y-39622465D01*
X170816535Y-39427880D01*
X170587727Y-39274995D01*
X170333490Y-39169686D01*
X170063592Y-39116000D01*
X169788408Y-39116000D01*
X169518510Y-39169686D01*
X169264273Y-39274995D01*
X169035465Y-39427880D01*
X168840880Y-39622465D01*
X168754995Y-39751000D01*
X113448415Y-39751000D01*
X113410999Y-39747315D01*
X113373583Y-39751000D01*
X113373574Y-39751000D01*
X113261622Y-39762026D01*
X113117985Y-39805598D01*
X112985608Y-39876355D01*
X112928000Y-39923632D01*
X112928000Y-35981106D01*
X169278300Y-35981106D01*
X169278300Y-36408894D01*
X169361757Y-36828462D01*
X169525464Y-37223686D01*
X169763130Y-37579378D01*
X170065622Y-37881870D01*
X170421314Y-38119536D01*
X170816538Y-38283243D01*
X171236106Y-38366700D01*
X171663894Y-38366700D01*
X172083462Y-38283243D01*
X172478686Y-38119536D01*
X172834378Y-37881870D01*
X173136870Y-37579378D01*
X173374536Y-37223686D01*
X173538243Y-36828462D01*
X173621700Y-36408894D01*
X173621700Y-35981106D01*
X173538243Y-35561538D01*
X173374536Y-35166314D01*
X173136870Y-34810622D01*
X172834378Y-34508130D01*
X172478686Y-34270464D01*
X172083462Y-34106757D01*
X171663894Y-34023300D01*
X171236106Y-34023300D01*
X170816538Y-34106757D01*
X170421314Y-34270464D01*
X170065622Y-34508130D01*
X169763130Y-34810622D01*
X169525464Y-35166314D01*
X169361757Y-35561538D01*
X169278300Y-35981106D01*
X112928000Y-35981106D01*
X112928000Y-34068279D01*
X112942722Y-33918131D01*
X112976953Y-33804754D01*
X113032555Y-33700181D01*
X113107407Y-33608404D01*
X113198664Y-33532909D01*
X113302844Y-33476581D01*
X113415976Y-33441560D01*
X113564022Y-33426000D01*
X193538191Y-33426000D01*
X196069700Y-33501133D01*
G36*
X113030000Y-70612000D02*
G01*
X113042201Y-70735882D01*
X113078336Y-70855004D01*
X113137017Y-70964787D01*
X113215987Y-71061013D01*
X113312213Y-71139983D01*
X113421996Y-71198664D01*
X113541118Y-71234799D01*
X113665000Y-71247000D01*
X124333000Y-71247000D01*
X124333000Y-71867985D01*
X124158102Y-71902774D01*
X123969744Y-71980795D01*
X123800226Y-72094063D01*
X123656063Y-72238226D01*
X123542795Y-72407744D01*
X123464774Y-72596102D01*
X123425000Y-72796061D01*
X123425000Y-72999939D01*
X123464774Y-73199898D01*
X123542795Y-73388256D01*
X123656063Y-73557774D01*
X123698000Y-73599711D01*
X123698001Y-82864288D01*
X123656063Y-82906226D01*
X123542795Y-83075744D01*
X123464774Y-83264102D01*
X123425000Y-83464061D01*
X123425000Y-83566000D01*
X123227425Y-83566000D01*
X123190000Y-83562314D01*
X123152574Y-83566000D01*
X123040622Y-83577026D01*
X122896985Y-83620598D01*
X122764608Y-83691355D01*
X122648578Y-83786578D01*
X122553355Y-83902608D01*
X122482598Y-84034985D01*
X122439026Y-84178622D01*
X122424314Y-84328000D01*
X122428000Y-84365426D01*
X122428001Y-85090000D01*
X121920000Y-85090000D01*
X121920000Y-83603426D01*
X121923686Y-83566000D01*
X121919844Y-83526985D01*
X121908974Y-83416622D01*
X121865402Y-83272985D01*
X121794645Y-83140608D01*
X121699422Y-83024578D01*
X121583392Y-82929355D01*
X121451015Y-82858598D01*
X121307378Y-82815026D01*
X121158000Y-82800314D01*
X121120575Y-82804000D01*
X119163425Y-82804000D01*
X119126000Y-82800314D01*
X119088574Y-82804000D01*
X118976622Y-82815026D01*
X118832985Y-82858598D01*
X118700608Y-82929355D01*
X118584578Y-83024578D01*
X118489355Y-83140608D01*
X118418598Y-83272985D01*
X118375026Y-83416622D01*
X118360314Y-83566000D01*
X118364000Y-83603426D01*
X118364001Y-85814564D01*
X118360314Y-85852000D01*
X118375026Y-86001378D01*
X118418598Y-86145015D01*
X118489355Y-86277392D01*
X118584578Y-86393422D01*
X118700608Y-86488645D01*
X118832985Y-86559402D01*
X118976622Y-86602974D01*
X119088574Y-86614000D01*
X119088575Y-86614000D01*
X119126000Y-86617686D01*
X119163426Y-86614000D01*
X119634001Y-86614000D01*
X119634000Y-88392000D01*
X118618000Y-88392000D01*
X118618000Y-87413426D01*
X118621686Y-87376000D01*
X118617844Y-87336985D01*
X118606974Y-87226622D01*
X118563402Y-87082985D01*
X118492645Y-86950608D01*
X118397422Y-86834578D01*
X118390607Y-86828985D01*
X118281392Y-86739355D01*
X118149015Y-86668598D01*
X118005378Y-86625026D01*
X117893426Y-86614000D01*
X117893425Y-86614000D01*
X117856000Y-86610314D01*
X117818574Y-86614000D01*
X117602000Y-86614000D01*
X117602000Y-85381426D01*
X117605686Y-85344000D01*
X117601844Y-85304985D01*
X117590974Y-85194622D01*
X117547402Y-85050985D01*
X117476645Y-84918608D01*
X117381422Y-84802578D01*
X117373678Y-84796223D01*
X117265392Y-84707355D01*
X117133015Y-84636598D01*
X116989378Y-84593026D01*
X116877426Y-84582000D01*
X116877425Y-84582000D01*
X116840000Y-84578314D01*
X116802574Y-84582000D01*
X115099426Y-84582000D01*
X115062000Y-84578314D01*
X115024575Y-84582000D01*
X115024574Y-84582000D01*
X114912622Y-84593026D01*
X114768985Y-84636598D01*
X114636608Y-84707355D01*
X114520578Y-84802578D01*
X114425355Y-84918608D01*
X114354598Y-85050985D01*
X114311026Y-85194622D01*
X114296314Y-85344000D01*
X114300001Y-85381435D01*
X114300000Y-86656763D01*
X114260985Y-86668598D01*
X114128608Y-86739355D01*
X114012578Y-86834578D01*
X113917355Y-86950608D01*
X113846598Y-87082985D01*
X113803026Y-87226622D01*
X113788314Y-87376000D01*
X113792001Y-87413436D01*
X113792000Y-88646000D01*
X112928000Y-88646000D01*
X112928000Y-61868000D01*
X113004939Y-61868000D01*
X113030000Y-61863015D01*
X113030000Y-70612000D01*
G37*
X113030000Y-70612000D02*
X113042201Y-70735882D01*
X113078336Y-70855004D01*
X113137017Y-70964787D01*
X113215987Y-71061013D01*
X113312213Y-71139983D01*
X113421996Y-71198664D01*
X113541118Y-71234799D01*
X113665000Y-71247000D01*
X124333000Y-71247000D01*
X124333000Y-71867985D01*
X124158102Y-71902774D01*
X123969744Y-71980795D01*
X123800226Y-72094063D01*
X123656063Y-72238226D01*
X123542795Y-72407744D01*
X123464774Y-72596102D01*
X123425000Y-72796061D01*
X123425000Y-72999939D01*
X123464774Y-73199898D01*
X123542795Y-73388256D01*
X123656063Y-73557774D01*
X123698000Y-73599711D01*
X123698001Y-82864288D01*
X123656063Y-82906226D01*
X123542795Y-83075744D01*
X123464774Y-83264102D01*
X123425000Y-83464061D01*
X123425000Y-83566000D01*
X123227425Y-83566000D01*
X123190000Y-83562314D01*
X123152574Y-83566000D01*
X123040622Y-83577026D01*
X122896985Y-83620598D01*
X122764608Y-83691355D01*
X122648578Y-83786578D01*
X122553355Y-83902608D01*
X122482598Y-84034985D01*
X122439026Y-84178622D01*
X122424314Y-84328000D01*
X122428000Y-84365426D01*
X122428001Y-85090000D01*
X121920000Y-85090000D01*
X121920000Y-83603426D01*
X121923686Y-83566000D01*
X121919844Y-83526985D01*
X121908974Y-83416622D01*
X121865402Y-83272985D01*
X121794645Y-83140608D01*
X121699422Y-83024578D01*
X121583392Y-82929355D01*
X121451015Y-82858598D01*
X121307378Y-82815026D01*
X121158000Y-82800314D01*
X121120575Y-82804000D01*
X119163425Y-82804000D01*
X119126000Y-82800314D01*
X119088574Y-82804000D01*
X118976622Y-82815026D01*
X118832985Y-82858598D01*
X118700608Y-82929355D01*
X118584578Y-83024578D01*
X118489355Y-83140608D01*
X118418598Y-83272985D01*
X118375026Y-83416622D01*
X118360314Y-83566000D01*
X118364000Y-83603426D01*
X118364001Y-85814564D01*
X118360314Y-85852000D01*
X118375026Y-86001378D01*
X118418598Y-86145015D01*
X118489355Y-86277392D01*
X118584578Y-86393422D01*
X118700608Y-86488645D01*
X118832985Y-86559402D01*
X118976622Y-86602974D01*
X119088574Y-86614000D01*
X119088575Y-86614000D01*
X119126000Y-86617686D01*
X119163426Y-86614000D01*
X119634001Y-86614000D01*
X119634000Y-88392000D01*
X118618000Y-88392000D01*
X118618000Y-87413426D01*
X118621686Y-87376000D01*
X118617844Y-87336985D01*
X118606974Y-87226622D01*
X118563402Y-87082985D01*
X118492645Y-86950608D01*
X118397422Y-86834578D01*
X118390607Y-86828985D01*
X118281392Y-86739355D01*
X118149015Y-86668598D01*
X118005378Y-86625026D01*
X117893426Y-86614000D01*
X117893425Y-86614000D01*
X117856000Y-86610314D01*
X117818574Y-86614000D01*
X117602000Y-86614000D01*
X117602000Y-85381426D01*
X117605686Y-85344000D01*
X117601844Y-85304985D01*
X117590974Y-85194622D01*
X117547402Y-85050985D01*
X117476645Y-84918608D01*
X117381422Y-84802578D01*
X117373678Y-84796223D01*
X117265392Y-84707355D01*
X117133015Y-84636598D01*
X116989378Y-84593026D01*
X116877426Y-84582000D01*
X116877425Y-84582000D01*
X116840000Y-84578314D01*
X116802574Y-84582000D01*
X115099426Y-84582000D01*
X115062000Y-84578314D01*
X115024575Y-84582000D01*
X115024574Y-84582000D01*
X114912622Y-84593026D01*
X114768985Y-84636598D01*
X114636608Y-84707355D01*
X114520578Y-84802578D01*
X114425355Y-84918608D01*
X114354598Y-85050985D01*
X114311026Y-85194622D01*
X114296314Y-85344000D01*
X114300001Y-85381435D01*
X114300000Y-86656763D01*
X114260985Y-86668598D01*
X114128608Y-86739355D01*
X114012578Y-86834578D01*
X113917355Y-86950608D01*
X113846598Y-87082985D01*
X113803026Y-87226622D01*
X113788314Y-87376000D01*
X113792001Y-87413436D01*
X113792000Y-88646000D01*
X112928000Y-88646000D01*
X112928000Y-61868000D01*
X113004939Y-61868000D01*
X113030000Y-61863015D01*
X113030000Y-70612000D01*
%TO.N,+12VA*%
G36*
X121158000Y-62992000D02*
G01*
X121160440Y-63016776D01*
X121167667Y-63040601D01*
X121179403Y-63062557D01*
X121195197Y-63081803D01*
X121214443Y-63097597D01*
X121236399Y-63109333D01*
X121260224Y-63116560D01*
X121285000Y-63119000D01*
X128778000Y-63119000D01*
X128802776Y-63116560D01*
X128826601Y-63109333D01*
X128848557Y-63097597D01*
X128867803Y-63081803D01*
X128883597Y-63062557D01*
X128895333Y-63040601D01*
X128902560Y-63016776D01*
X128905000Y-62992000D01*
X128905000Y-62508468D01*
X128933205Y-62466256D01*
X129011226Y-62277898D01*
X129051000Y-62077939D01*
X129051000Y-61874061D01*
X129011226Y-61674102D01*
X128978461Y-61595000D01*
X131064000Y-61595000D01*
X131088776Y-61592560D01*
X131112601Y-61585333D01*
X131134557Y-61573597D01*
X131153803Y-61557803D01*
X131169597Y-61538557D01*
X131181333Y-61516601D01*
X131188560Y-61492776D01*
X131191000Y-61468000D01*
X131191000Y-61255546D01*
X131263251Y-61196251D01*
X131361258Y-61076829D01*
X131434084Y-60940582D01*
X131478929Y-60792745D01*
X131494072Y-60639000D01*
X131494072Y-59114875D01*
X131545482Y-59109812D01*
X131665180Y-59073502D01*
X131775494Y-59014537D01*
X131872185Y-58935185D01*
X131951537Y-58838494D01*
X131971578Y-58801000D01*
X132461000Y-58801000D01*
X132461000Y-61972673D01*
X132429752Y-62075684D01*
X132412928Y-62246500D01*
X132412928Y-62721500D01*
X132429752Y-62892316D01*
X132461000Y-62995327D01*
X132461000Y-75946000D01*
X132463440Y-75970776D01*
X132470667Y-75994601D01*
X132482403Y-76016557D01*
X132498197Y-76035803D01*
X132517443Y-76051597D01*
X132539399Y-76063333D01*
X132563224Y-76070560D01*
X132588000Y-76073000D01*
X138377394Y-76073000D01*
X152273000Y-89968606D01*
X152273000Y-97917000D01*
X145161000Y-97917000D01*
X145161000Y-91440000D01*
X145158560Y-91415224D01*
X145151333Y-91391399D01*
X145139597Y-91369443D01*
X145123803Y-91350197D01*
X137249803Y-83476197D01*
X137230557Y-83460403D01*
X137208601Y-83448667D01*
X137184776Y-83441440D01*
X137160000Y-83439000D01*
X125490015Y-83439000D01*
X125455226Y-83264102D01*
X125377205Y-83075744D01*
X125263937Y-82906226D01*
X125222000Y-82864289D01*
X125222000Y-73599711D01*
X125263937Y-73557774D01*
X125377205Y-73388256D01*
X125455226Y-73199898D01*
X125495000Y-72999939D01*
X125495000Y-72796061D01*
X125455226Y-72596102D01*
X125377205Y-72407744D01*
X125263937Y-72238226D01*
X125119774Y-72094063D01*
X125095000Y-72077510D01*
X125095000Y-70612000D01*
X125092560Y-70587224D01*
X125085333Y-70563399D01*
X125073597Y-70541443D01*
X125057803Y-70522197D01*
X125038557Y-70506403D01*
X125016601Y-70494667D01*
X124992776Y-70487440D01*
X124968000Y-70485000D01*
X113792000Y-70485000D01*
X113792000Y-67376711D01*
X113833937Y-67334774D01*
X113947205Y-67165256D01*
X114025226Y-66976898D01*
X114065000Y-66776939D01*
X114065000Y-66573061D01*
X114025226Y-66373102D01*
X113947205Y-66184744D01*
X113833937Y-66015226D01*
X113792000Y-65973289D01*
X113792000Y-61365468D01*
X113820205Y-61323256D01*
X113898226Y-61134898D01*
X113938000Y-60934939D01*
X113938000Y-60731061D01*
X113898226Y-60531102D01*
X113820205Y-60342744D01*
X113792000Y-60300532D01*
X113792000Y-48895000D01*
X121158000Y-48895000D01*
X121158000Y-62992000D01*
G37*
X121158000Y-62992000D02*
X121160440Y-63016776D01*
X121167667Y-63040601D01*
X121179403Y-63062557D01*
X121195197Y-63081803D01*
X121214443Y-63097597D01*
X121236399Y-63109333D01*
X121260224Y-63116560D01*
X121285000Y-63119000D01*
X128778000Y-63119000D01*
X128802776Y-63116560D01*
X128826601Y-63109333D01*
X128848557Y-63097597D01*
X128867803Y-63081803D01*
X128883597Y-63062557D01*
X128895333Y-63040601D01*
X128902560Y-63016776D01*
X128905000Y-62992000D01*
X128905000Y-62508468D01*
X128933205Y-62466256D01*
X129011226Y-62277898D01*
X129051000Y-62077939D01*
X129051000Y-61874061D01*
X129011226Y-61674102D01*
X128978461Y-61595000D01*
X131064000Y-61595000D01*
X131088776Y-61592560D01*
X131112601Y-61585333D01*
X131134557Y-61573597D01*
X131153803Y-61557803D01*
X131169597Y-61538557D01*
X131181333Y-61516601D01*
X131188560Y-61492776D01*
X131191000Y-61468000D01*
X131191000Y-61255546D01*
X131263251Y-61196251D01*
X131361258Y-61076829D01*
X131434084Y-60940582D01*
X131478929Y-60792745D01*
X131494072Y-60639000D01*
X131494072Y-59114875D01*
X131545482Y-59109812D01*
X131665180Y-59073502D01*
X131775494Y-59014537D01*
X131872185Y-58935185D01*
X131951537Y-58838494D01*
X131971578Y-58801000D01*
X132461000Y-58801000D01*
X132461000Y-61972673D01*
X132429752Y-62075684D01*
X132412928Y-62246500D01*
X132412928Y-62721500D01*
X132429752Y-62892316D01*
X132461000Y-62995327D01*
X132461000Y-75946000D01*
X132463440Y-75970776D01*
X132470667Y-75994601D01*
X132482403Y-76016557D01*
X132498197Y-76035803D01*
X132517443Y-76051597D01*
X132539399Y-76063333D01*
X132563224Y-76070560D01*
X132588000Y-76073000D01*
X138377394Y-76073000D01*
X152273000Y-89968606D01*
X152273000Y-97917000D01*
X145161000Y-97917000D01*
X145161000Y-91440000D01*
X145158560Y-91415224D01*
X145151333Y-91391399D01*
X145139597Y-91369443D01*
X145123803Y-91350197D01*
X137249803Y-83476197D01*
X137230557Y-83460403D01*
X137208601Y-83448667D01*
X137184776Y-83441440D01*
X137160000Y-83439000D01*
X125490015Y-83439000D01*
X125455226Y-83264102D01*
X125377205Y-83075744D01*
X125263937Y-82906226D01*
X125222000Y-82864289D01*
X125222000Y-73599711D01*
X125263937Y-73557774D01*
X125377205Y-73388256D01*
X125455226Y-73199898D01*
X125495000Y-72999939D01*
X125495000Y-72796061D01*
X125455226Y-72596102D01*
X125377205Y-72407744D01*
X125263937Y-72238226D01*
X125119774Y-72094063D01*
X125095000Y-72077510D01*
X125095000Y-70612000D01*
X125092560Y-70587224D01*
X125085333Y-70563399D01*
X125073597Y-70541443D01*
X125057803Y-70522197D01*
X125038557Y-70506403D01*
X125016601Y-70494667D01*
X124992776Y-70487440D01*
X124968000Y-70485000D01*
X113792000Y-70485000D01*
X113792000Y-67376711D01*
X113833937Y-67334774D01*
X113947205Y-67165256D01*
X114025226Y-66976898D01*
X114065000Y-66776939D01*
X114065000Y-66573061D01*
X114025226Y-66373102D01*
X113947205Y-66184744D01*
X113833937Y-66015226D01*
X113792000Y-65973289D01*
X113792000Y-61365468D01*
X113820205Y-61323256D01*
X113898226Y-61134898D01*
X113938000Y-60934939D01*
X113938000Y-60731061D01*
X113898226Y-60531102D01*
X113820205Y-60342744D01*
X113792000Y-60300532D01*
X113792000Y-48895000D01*
X121158000Y-48895000D01*
X121158000Y-62992000D01*
%TO.N,+5V*%
G36*
X156083000Y-53615594D02*
G01*
X156069488Y-53632058D01*
X155988577Y-53783433D01*
X155938752Y-53947684D01*
X155921928Y-54118500D01*
X155921928Y-54593500D01*
X155938752Y-54764316D01*
X155988577Y-54928567D01*
X156069488Y-55079942D01*
X156083000Y-55096406D01*
X156083000Y-70612000D01*
X156085440Y-70636776D01*
X156092667Y-70660601D01*
X156104403Y-70682557D01*
X156120197Y-70701803D01*
X173355000Y-87936606D01*
X173355000Y-97917000D01*
X165989000Y-97917000D01*
X165989000Y-91440000D01*
X165986560Y-91415224D01*
X165979333Y-91391399D01*
X165967597Y-91369443D01*
X165951803Y-91350197D01*
X148717000Y-74115394D01*
X148717000Y-48387000D01*
X156083000Y-48387000D01*
X156083000Y-53615594D01*
G37*
X156083000Y-53615594D02*
X156069488Y-53632058D01*
X155988577Y-53783433D01*
X155938752Y-53947684D01*
X155921928Y-54118500D01*
X155921928Y-54593500D01*
X155938752Y-54764316D01*
X155988577Y-54928567D01*
X156069488Y-55079942D01*
X156083000Y-55096406D01*
X156083000Y-70612000D01*
X156085440Y-70636776D01*
X156092667Y-70660601D01*
X156104403Y-70682557D01*
X156120197Y-70701803D01*
X173355000Y-87936606D01*
X173355000Y-97917000D01*
X165989000Y-97917000D01*
X165989000Y-91440000D01*
X165986560Y-91415224D01*
X165979333Y-91391399D01*
X165967597Y-91369443D01*
X165951803Y-91350197D01*
X148717000Y-74115394D01*
X148717000Y-48387000D01*
X156083000Y-48387000D01*
X156083000Y-53615594D01*
%TD*%
M02*
