%TF.GenerationSoftware,KiCad,Pcbnew,(5.1.10)-1*%
%TF.CreationDate,2021-12-04T20:19:19-06:00*%
%TF.ProjectId,2022 Multimedia Rev1,32303232-204d-4756-9c74-696d65646961,rev?*%
%TF.SameCoordinates,Original*%
%TF.FileFunction,Soldermask,Top*%
%TF.FilePolarity,Negative*%
%FSLAX46Y46*%
G04 Gerber Fmt 4.6, Leading zero omitted, Abs format (unit mm)*
G04 Created by KiCad (PCBNEW (5.1.10)-1) date 2021-12-04 20:19:19*
%MOMM*%
%LPD*%
G01*
G04 APERTURE LIST*
%ADD10C,1.624000*%
%ADD11C,3.173400*%
%ADD12C,5.180000*%
G04 APERTURE END LIST*
%TO.C,U3*%
G36*
G01*
X192254000Y-60885000D02*
X189254000Y-60885000D01*
G75*
G02*
X189204000Y-60835000I0J50000D01*
G01*
X189204000Y-58545000D01*
G75*
G02*
X189254000Y-58495000I50000J0D01*
G01*
X192254000Y-58495000D01*
G75*
G02*
X192304000Y-58545000I0J-50000D01*
G01*
X192304000Y-60835000D01*
G75*
G02*
X192254000Y-60885000I-50000J0D01*
G01*
G37*
G36*
G01*
X189024000Y-58240000D02*
X188674000Y-58240000D01*
G75*
G02*
X188499000Y-58065000I0J175000D01*
G01*
X188499000Y-56365000D01*
G75*
G02*
X188674000Y-56190000I175000J0D01*
G01*
X189024000Y-56190000D01*
G75*
G02*
X189199000Y-56365000I0J-175000D01*
G01*
X189199000Y-58065000D01*
G75*
G02*
X189024000Y-58240000I-175000J0D01*
G01*
G37*
G36*
G01*
X190294000Y-58240000D02*
X189944000Y-58240000D01*
G75*
G02*
X189769000Y-58065000I0J175000D01*
G01*
X189769000Y-56365000D01*
G75*
G02*
X189944000Y-56190000I175000J0D01*
G01*
X190294000Y-56190000D01*
G75*
G02*
X190469000Y-56365000I0J-175000D01*
G01*
X190469000Y-58065000D01*
G75*
G02*
X190294000Y-58240000I-175000J0D01*
G01*
G37*
G36*
G01*
X191564000Y-58240000D02*
X191214000Y-58240000D01*
G75*
G02*
X191039000Y-58065000I0J175000D01*
G01*
X191039000Y-56365000D01*
G75*
G02*
X191214000Y-56190000I175000J0D01*
G01*
X191564000Y-56190000D01*
G75*
G02*
X191739000Y-56365000I0J-175000D01*
G01*
X191739000Y-58065000D01*
G75*
G02*
X191564000Y-58240000I-175000J0D01*
G01*
G37*
G36*
G01*
X192834000Y-58240000D02*
X192484000Y-58240000D01*
G75*
G02*
X192309000Y-58065000I0J175000D01*
G01*
X192309000Y-56365000D01*
G75*
G02*
X192484000Y-56190000I175000J0D01*
G01*
X192834000Y-56190000D01*
G75*
G02*
X193009000Y-56365000I0J-175000D01*
G01*
X193009000Y-58065000D01*
G75*
G02*
X192834000Y-58240000I-175000J0D01*
G01*
G37*
G36*
G01*
X192834000Y-63190000D02*
X192484000Y-63190000D01*
G75*
G02*
X192309000Y-63015000I0J175000D01*
G01*
X192309000Y-61315000D01*
G75*
G02*
X192484000Y-61140000I175000J0D01*
G01*
X192834000Y-61140000D01*
G75*
G02*
X193009000Y-61315000I0J-175000D01*
G01*
X193009000Y-63015000D01*
G75*
G02*
X192834000Y-63190000I-175000J0D01*
G01*
G37*
G36*
G01*
X191564000Y-63190000D02*
X191214000Y-63190000D01*
G75*
G02*
X191039000Y-63015000I0J175000D01*
G01*
X191039000Y-61315000D01*
G75*
G02*
X191214000Y-61140000I175000J0D01*
G01*
X191564000Y-61140000D01*
G75*
G02*
X191739000Y-61315000I0J-175000D01*
G01*
X191739000Y-63015000D01*
G75*
G02*
X191564000Y-63190000I-175000J0D01*
G01*
G37*
G36*
G01*
X190294000Y-63190000D02*
X189944000Y-63190000D01*
G75*
G02*
X189769000Y-63015000I0J175000D01*
G01*
X189769000Y-61315000D01*
G75*
G02*
X189944000Y-61140000I175000J0D01*
G01*
X190294000Y-61140000D01*
G75*
G02*
X190469000Y-61315000I0J-175000D01*
G01*
X190469000Y-63015000D01*
G75*
G02*
X190294000Y-63190000I-175000J0D01*
G01*
G37*
G36*
G01*
X189024000Y-63190000D02*
X188674000Y-63190000D01*
G75*
G02*
X188499000Y-63015000I0J175000D01*
G01*
X188499000Y-61315000D01*
G75*
G02*
X188674000Y-61140000I175000J0D01*
G01*
X189024000Y-61140000D01*
G75*
G02*
X189199000Y-61315000I0J-175000D01*
G01*
X189199000Y-63015000D01*
G75*
G02*
X189024000Y-63190000I-175000J0D01*
G01*
G37*
%TD*%
D10*
%TO.C,U2*%
X154559000Y-93472000D03*
X154559000Y-90932000D03*
X154559000Y-88392000D03*
%TD*%
%TO.C,U1*%
X154559000Y-81407000D03*
X154559000Y-78867000D03*
X154559000Y-76327000D03*
%TD*%
%TO.C,R3*%
G36*
G01*
X194610000Y-54618500D02*
X194610000Y-54093500D01*
G75*
G02*
X194872500Y-53831000I262500J0D01*
G01*
X195497500Y-53831000D01*
G75*
G02*
X195760000Y-54093500I0J-262500D01*
G01*
X195760000Y-54618500D01*
G75*
G02*
X195497500Y-54881000I-262500J0D01*
G01*
X194872500Y-54881000D01*
G75*
G02*
X194610000Y-54618500I0J262500D01*
G01*
G37*
G36*
G01*
X192860000Y-54618500D02*
X192860000Y-54093500D01*
G75*
G02*
X193122500Y-53831000I262500J0D01*
G01*
X193747500Y-53831000D01*
G75*
G02*
X194010000Y-54093500I0J-262500D01*
G01*
X194010000Y-54618500D01*
G75*
G02*
X193747500Y-54881000I-262500J0D01*
G01*
X193122500Y-54881000D01*
G75*
G02*
X192860000Y-54618500I0J262500D01*
G01*
G37*
%TD*%
%TO.C,R2*%
G36*
G01*
X164419000Y-93209500D02*
X164419000Y-93734500D01*
G75*
G02*
X164156500Y-93997000I-262500J0D01*
G01*
X163531500Y-93997000D01*
G75*
G02*
X163269000Y-93734500I0J262500D01*
G01*
X163269000Y-93209500D01*
G75*
G02*
X163531500Y-92947000I262500J0D01*
G01*
X164156500Y-92947000D01*
G75*
G02*
X164419000Y-93209500I0J-262500D01*
G01*
G37*
G36*
G01*
X166169000Y-93209500D02*
X166169000Y-93734500D01*
G75*
G02*
X165906500Y-93997000I-262500J0D01*
G01*
X165281500Y-93997000D01*
G75*
G02*
X165019000Y-93734500I0J262500D01*
G01*
X165019000Y-93209500D01*
G75*
G02*
X165281500Y-92947000I262500J0D01*
G01*
X165906500Y-92947000D01*
G75*
G02*
X166169000Y-93209500I0J-262500D01*
G01*
G37*
%TD*%
%TO.C,R1*%
G36*
G01*
X163784000Y-81144500D02*
X163784000Y-81669500D01*
G75*
G02*
X163521500Y-81932000I-262500J0D01*
G01*
X162896500Y-81932000D01*
G75*
G02*
X162634000Y-81669500I0J262500D01*
G01*
X162634000Y-81144500D01*
G75*
G02*
X162896500Y-80882000I262500J0D01*
G01*
X163521500Y-80882000D01*
G75*
G02*
X163784000Y-81144500I0J-262500D01*
G01*
G37*
G36*
G01*
X165534000Y-81144500D02*
X165534000Y-81669500D01*
G75*
G02*
X165271500Y-81932000I-262500J0D01*
G01*
X164646500Y-81932000D01*
G75*
G02*
X164384000Y-81669500I0J262500D01*
G01*
X164384000Y-81144500D01*
G75*
G02*
X164646500Y-80882000I262500J0D01*
G01*
X165271500Y-80882000D01*
G75*
G02*
X165534000Y-81144500I0J-262500D01*
G01*
G37*
%TD*%
%TO.C,D2*%
G36*
G01*
X168864000Y-93209500D02*
X168864000Y-93734500D01*
G75*
G02*
X168601500Y-93997000I-262500J0D01*
G01*
X167976500Y-93997000D01*
G75*
G02*
X167714000Y-93734500I0J262500D01*
G01*
X167714000Y-93209500D01*
G75*
G02*
X167976500Y-92947000I262500J0D01*
G01*
X168601500Y-92947000D01*
G75*
G02*
X168864000Y-93209500I0J-262500D01*
G01*
G37*
G36*
G01*
X170614000Y-93209500D02*
X170614000Y-93734500D01*
G75*
G02*
X170351500Y-93997000I-262500J0D01*
G01*
X169726500Y-93997000D01*
G75*
G02*
X169464000Y-93734500I0J262500D01*
G01*
X169464000Y-93209500D01*
G75*
G02*
X169726500Y-92947000I262500J0D01*
G01*
X170351500Y-92947000D01*
G75*
G02*
X170614000Y-93209500I0J-262500D01*
G01*
G37*
%TD*%
%TO.C,D1*%
G36*
G01*
X168229000Y-81144500D02*
X168229000Y-81669500D01*
G75*
G02*
X167966500Y-81932000I-262500J0D01*
G01*
X167341500Y-81932000D01*
G75*
G02*
X167079000Y-81669500I0J262500D01*
G01*
X167079000Y-81144500D01*
G75*
G02*
X167341500Y-80882000I262500J0D01*
G01*
X167966500Y-80882000D01*
G75*
G02*
X168229000Y-81144500I0J-262500D01*
G01*
G37*
G36*
G01*
X169979000Y-81144500D02*
X169979000Y-81669500D01*
G75*
G02*
X169716500Y-81932000I-262500J0D01*
G01*
X169091500Y-81932000D01*
G75*
G02*
X168829000Y-81669500I0J262500D01*
G01*
X168829000Y-81144500D01*
G75*
G02*
X169091500Y-80882000I262500J0D01*
G01*
X169716500Y-80882000D01*
G75*
G02*
X169979000Y-81144500I0J-262500D01*
G01*
G37*
%TD*%
%TO.C,Speaker Panel*%
X164973000Y-59309000D03*
D11*
X161925000Y-54991000D03*
D10*
X161925000Y-59309000D03*
X158877000Y-59309000D03*
%TD*%
%TO.C,Underglow*%
X151003000Y-59309000D03*
D11*
X147955000Y-54991000D03*
D10*
X147955000Y-59309000D03*
X144907000Y-59309000D03*
%TD*%
%TO.C,Autonomy Panel*%
X123063000Y-59309000D03*
D11*
X120015000Y-54991000D03*
D10*
X120015000Y-59309000D03*
X116967000Y-59309000D03*
%TD*%
%TO.C,Headlight*%
X171196000Y-59309000D03*
X174244000Y-59309000D03*
D11*
X172720000Y-54991000D03*
%TD*%
D10*
%TO.C,Headlight*%
X178816000Y-59309000D03*
X181864000Y-59309000D03*
D11*
X180340000Y-54991000D03*
%TD*%
D10*
%TO.C,Interior strip*%
X137033000Y-59309000D03*
D11*
X133985000Y-54991000D03*
D10*
X133985000Y-59309000D03*
X130937000Y-59309000D03*
%TD*%
D12*
%TO.C,Conn1*%
X130302000Y-77978000D03*
X130302000Y-85852000D03*
X130302000Y-93726000D03*
%TD*%
%TO.C,C8*%
G36*
G01*
X160536500Y-92297000D02*
X160011500Y-92297000D01*
G75*
G02*
X159749000Y-92034500I0J262500D01*
G01*
X159749000Y-91409500D01*
G75*
G02*
X160011500Y-91147000I262500J0D01*
G01*
X160536500Y-91147000D01*
G75*
G02*
X160799000Y-91409500I0J-262500D01*
G01*
X160799000Y-92034500D01*
G75*
G02*
X160536500Y-92297000I-262500J0D01*
G01*
G37*
G36*
G01*
X160536500Y-94047000D02*
X160011500Y-94047000D01*
G75*
G02*
X159749000Y-93784500I0J262500D01*
G01*
X159749000Y-93159500D01*
G75*
G02*
X160011500Y-92897000I262500J0D01*
G01*
X160536500Y-92897000D01*
G75*
G02*
X160799000Y-93159500I0J-262500D01*
G01*
X160799000Y-93784500D01*
G75*
G02*
X160536500Y-94047000I-262500J0D01*
G01*
G37*
%TD*%
%TO.C,C7*%
G36*
G01*
X120315000Y-65667500D02*
X120315000Y-65142500D01*
G75*
G02*
X120577500Y-64880000I262500J0D01*
G01*
X121202500Y-64880000D01*
G75*
G02*
X121465000Y-65142500I0J-262500D01*
G01*
X121465000Y-65667500D01*
G75*
G02*
X121202500Y-65930000I-262500J0D01*
G01*
X120577500Y-65930000D01*
G75*
G02*
X120315000Y-65667500I0J262500D01*
G01*
G37*
G36*
G01*
X118565000Y-65667500D02*
X118565000Y-65142500D01*
G75*
G02*
X118827500Y-64880000I262500J0D01*
G01*
X119452500Y-64880000D01*
G75*
G02*
X119715000Y-65142500I0J-262500D01*
G01*
X119715000Y-65667500D01*
G75*
G02*
X119452500Y-65930000I-262500J0D01*
G01*
X118827500Y-65930000D01*
G75*
G02*
X118565000Y-65667500I0J262500D01*
G01*
G37*
%TD*%
%TO.C,C6*%
G36*
G01*
X134285000Y-65667500D02*
X134285000Y-65142500D01*
G75*
G02*
X134547500Y-64880000I262500J0D01*
G01*
X135172500Y-64880000D01*
G75*
G02*
X135435000Y-65142500I0J-262500D01*
G01*
X135435000Y-65667500D01*
G75*
G02*
X135172500Y-65930000I-262500J0D01*
G01*
X134547500Y-65930000D01*
G75*
G02*
X134285000Y-65667500I0J262500D01*
G01*
G37*
G36*
G01*
X132535000Y-65667500D02*
X132535000Y-65142500D01*
G75*
G02*
X132797500Y-64880000I262500J0D01*
G01*
X133422500Y-64880000D01*
G75*
G02*
X133685000Y-65142500I0J-262500D01*
G01*
X133685000Y-65667500D01*
G75*
G02*
X133422500Y-65930000I-262500J0D01*
G01*
X132797500Y-65930000D01*
G75*
G02*
X132535000Y-65667500I0J262500D01*
G01*
G37*
%TD*%
%TO.C,C5*%
G36*
G01*
X148255000Y-65667500D02*
X148255000Y-65142500D01*
G75*
G02*
X148517500Y-64880000I262500J0D01*
G01*
X149142500Y-64880000D01*
G75*
G02*
X149405000Y-65142500I0J-262500D01*
G01*
X149405000Y-65667500D01*
G75*
G02*
X149142500Y-65930000I-262500J0D01*
G01*
X148517500Y-65930000D01*
G75*
G02*
X148255000Y-65667500I0J262500D01*
G01*
G37*
G36*
G01*
X146505000Y-65667500D02*
X146505000Y-65142500D01*
G75*
G02*
X146767500Y-64880000I262500J0D01*
G01*
X147392500Y-64880000D01*
G75*
G02*
X147655000Y-65142500I0J-262500D01*
G01*
X147655000Y-65667500D01*
G75*
G02*
X147392500Y-65930000I-262500J0D01*
G01*
X146767500Y-65930000D01*
G75*
G02*
X146505000Y-65667500I0J262500D01*
G01*
G37*
%TD*%
%TO.C,C4*%
G36*
G01*
X160536500Y-80232000D02*
X160011500Y-80232000D01*
G75*
G02*
X159749000Y-79969500I0J262500D01*
G01*
X159749000Y-79344500D01*
G75*
G02*
X160011500Y-79082000I262500J0D01*
G01*
X160536500Y-79082000D01*
G75*
G02*
X160799000Y-79344500I0J-262500D01*
G01*
X160799000Y-79969500D01*
G75*
G02*
X160536500Y-80232000I-262500J0D01*
G01*
G37*
G36*
G01*
X160536500Y-81982000D02*
X160011500Y-81982000D01*
G75*
G02*
X159749000Y-81719500I0J262500D01*
G01*
X159749000Y-81094500D01*
G75*
G02*
X160011500Y-80832000I262500J0D01*
G01*
X160536500Y-80832000D01*
G75*
G02*
X160799000Y-81094500I0J-262500D01*
G01*
X160799000Y-81719500D01*
G75*
G02*
X160536500Y-81982000I-262500J0D01*
G01*
G37*
%TD*%
%TO.C,C3*%
G36*
G01*
X162225000Y-65667500D02*
X162225000Y-65142500D01*
G75*
G02*
X162487500Y-64880000I262500J0D01*
G01*
X163112500Y-64880000D01*
G75*
G02*
X163375000Y-65142500I0J-262500D01*
G01*
X163375000Y-65667500D01*
G75*
G02*
X163112500Y-65930000I-262500J0D01*
G01*
X162487500Y-65930000D01*
G75*
G02*
X162225000Y-65667500I0J262500D01*
G01*
G37*
G36*
G01*
X160475000Y-65667500D02*
X160475000Y-65142500D01*
G75*
G02*
X160737500Y-64880000I262500J0D01*
G01*
X161362500Y-64880000D01*
G75*
G02*
X161625000Y-65142500I0J-262500D01*
G01*
X161625000Y-65667500D01*
G75*
G02*
X161362500Y-65930000I-262500J0D01*
G01*
X160737500Y-65930000D01*
G75*
G02*
X160475000Y-65667500I0J262500D01*
G01*
G37*
%TD*%
%TO.C,C2*%
G36*
G01*
X158631500Y-87217000D02*
X158106500Y-87217000D01*
G75*
G02*
X157844000Y-86954500I0J262500D01*
G01*
X157844000Y-86329500D01*
G75*
G02*
X158106500Y-86067000I262500J0D01*
G01*
X158631500Y-86067000D01*
G75*
G02*
X158894000Y-86329500I0J-262500D01*
G01*
X158894000Y-86954500D01*
G75*
G02*
X158631500Y-87217000I-262500J0D01*
G01*
G37*
G36*
G01*
X158631500Y-88967000D02*
X158106500Y-88967000D01*
G75*
G02*
X157844000Y-88704500I0J262500D01*
G01*
X157844000Y-88079500D01*
G75*
G02*
X158106500Y-87817000I262500J0D01*
G01*
X158631500Y-87817000D01*
G75*
G02*
X158894000Y-88079500I0J-262500D01*
G01*
X158894000Y-88704500D01*
G75*
G02*
X158631500Y-88967000I-262500J0D01*
G01*
G37*
%TD*%
%TO.C,C1*%
G36*
G01*
X158631500Y-75152000D02*
X158106500Y-75152000D01*
G75*
G02*
X157844000Y-74889500I0J262500D01*
G01*
X157844000Y-74264500D01*
G75*
G02*
X158106500Y-74002000I262500J0D01*
G01*
X158631500Y-74002000D01*
G75*
G02*
X158894000Y-74264500I0J-262500D01*
G01*
X158894000Y-74889500D01*
G75*
G02*
X158631500Y-75152000I-262500J0D01*
G01*
G37*
G36*
G01*
X158631500Y-76902000D02*
X158106500Y-76902000D01*
G75*
G02*
X157844000Y-76639500I0J262500D01*
G01*
X157844000Y-76014500D01*
G75*
G02*
X158106500Y-75752000I262500J0D01*
G01*
X158631500Y-75752000D01*
G75*
G02*
X158894000Y-76014500I0J-262500D01*
G01*
X158894000Y-76639500D01*
G75*
G02*
X158631500Y-76902000I-262500J0D01*
G01*
G37*
%TD*%
M02*
