%TF.GenerationSoftware,KiCad,Pcbnew,(5.1.6)-1*%
%TF.CreationDate,2022-03-14T17:05:35-05:00*%
%TF.ProjectId,2022 Multimedia Rev1,32303232-204d-4756-9c74-696d65646961,rev?*%
%TF.SameCoordinates,Original*%
%TF.FileFunction,Paste,Bot*%
%TF.FilePolarity,Positive*%
%FSLAX46Y46*%
G04 Gerber Fmt 4.6, Leading zero omitted, Abs format (unit mm)*
G04 Created by KiCad (PCBNEW (5.1.6)-1) date 2022-03-14 17:05:35*
%MOMM*%
%LPD*%
G01*
G04 APERTURE LIST*
%ADD10R,0.990600X1.778000*%
G04 APERTURE END LIST*
D10*
%TO.C,U4*%
X136398000Y-64617600D03*
X133858000Y-64617600D03*
X131318000Y-64617600D03*
X128778000Y-64617600D03*
X126238000Y-64617600D03*
X123698000Y-64617600D03*
X121158000Y-64617600D03*
X118618000Y-64617600D03*
X116078000Y-64617600D03*
X113538000Y-64617600D03*
X136398000Y-70510400D03*
X133858000Y-70510400D03*
X131318000Y-70510400D03*
X128778000Y-70510400D03*
X126238000Y-70510400D03*
X123698000Y-70510400D03*
X121158000Y-70510400D03*
X118618000Y-70510400D03*
X116078000Y-70510400D03*
X113538000Y-70510400D03*
X136398000Y-113690400D03*
X133858000Y-113690400D03*
X131318000Y-113690400D03*
X128778000Y-113690400D03*
X126238000Y-113690400D03*
X123698000Y-113690400D03*
X121158000Y-113690400D03*
X118618000Y-113690400D03*
X116078000Y-113690400D03*
X113538000Y-113690400D03*
X136398000Y-107797600D03*
X133858000Y-107797600D03*
X131318000Y-107797600D03*
X128778000Y-107797600D03*
X126238000Y-107797600D03*
X123698000Y-107797600D03*
X121158000Y-107797600D03*
X118618000Y-107797600D03*
X116078000Y-107797600D03*
X113538000Y-107797600D03*
X182118000Y-64617600D03*
X179578000Y-64617600D03*
X177038000Y-64617600D03*
X199898000Y-70510400D03*
X197358000Y-70510400D03*
X194818000Y-70510400D03*
X192278000Y-70510400D03*
X189738000Y-70510400D03*
X187198000Y-70510400D03*
X184658000Y-70510400D03*
X182118000Y-70510400D03*
X179578000Y-70510400D03*
X177038000Y-70510400D03*
X199898000Y-113690400D03*
X194818000Y-113690400D03*
X189738000Y-113690400D03*
X187198000Y-113690400D03*
X184658000Y-113690400D03*
X182118000Y-113690400D03*
X179578000Y-113690400D03*
X199898000Y-107797600D03*
X194818000Y-107797600D03*
X184658000Y-107797600D03*
X182118000Y-107797600D03*
X179578000Y-107797600D03*
X177038000Y-107797600D03*
X189738000Y-107797600D03*
X192278000Y-107797600D03*
X197358000Y-113690400D03*
X184658000Y-64617600D03*
X187198000Y-64617600D03*
X197358000Y-107797600D03*
X192278000Y-113690400D03*
X194818000Y-64617600D03*
X192278000Y-64617600D03*
X187198000Y-107797600D03*
X189738000Y-64617600D03*
X197358000Y-64617600D03*
X199898000Y-64617600D03*
X177038000Y-113690400D03*
%TD*%
M02*
