%TF.GenerationSoftware,KiCad,Pcbnew,(5.1.10)-1*%
%TF.CreationDate,2021-12-04T20:19:19-06:00*%
%TF.ProjectId,2022 Multimedia Rev1,32303232-204d-4756-9c74-696d65646961,rev?*%
%TF.SameCoordinates,Original*%
%TF.FileFunction,Legend,Bot*%
%TF.FilePolarity,Positive*%
%FSLAX46Y46*%
G04 Gerber Fmt 4.6, Leading zero omitted, Abs format (unit mm)*
G04 Created by KiCad (PCBNEW (5.1.10)-1) date 2021-12-04 20:19:19*
%MOMM*%
%LPD*%
G01*
G04 APERTURE LIST*
%ADD10C,0.150000*%
G04 APERTURE END LIST*
D10*
%TO.C,U4*%
X175768000Y-65024000D02*
X175768000Y-70104000D01*
X201168000Y-65024000D02*
X175768000Y-65024000D01*
X201168000Y-70104000D02*
X201168000Y-65024000D01*
X175768000Y-113284000D02*
X201168000Y-113284000D01*
X175768000Y-108204000D02*
X175768000Y-113284000D01*
X201168000Y-113284000D02*
X201168000Y-108204000D01*
X175768000Y-70104000D02*
X201168000Y-70104000D01*
X201168000Y-108204000D02*
X175768000Y-108204000D01*
X112268000Y-70104000D02*
X137668000Y-70104000D01*
X112268000Y-65024000D02*
X112268000Y-70104000D01*
X137668000Y-65024000D02*
X112268000Y-65024000D01*
X137668000Y-70104000D02*
X137668000Y-65024000D01*
X112268000Y-113284000D02*
X137668000Y-113284000D01*
X112268000Y-108204000D02*
X112268000Y-113284000D01*
X137668000Y-108204000D02*
X112268000Y-108204000D01*
X137668000Y-113284000D02*
X137668000Y-108204000D01*
X113252285Y-106624380D02*
X113823714Y-106624380D01*
X113538000Y-106624380D02*
X113538000Y-105624380D01*
X113633238Y-105767238D01*
X113728476Y-105862476D01*
X113823714Y-105910095D01*
X113252285Y-72588380D02*
X113823714Y-72588380D01*
X113538000Y-72588380D02*
X113538000Y-71588380D01*
X113633238Y-71731238D01*
X113728476Y-71826476D01*
X113823714Y-71874095D01*
X176752285Y-72588380D02*
X177323714Y-72588380D01*
X177038000Y-72588380D02*
X177038000Y-71588380D01*
X177133238Y-71731238D01*
X177228476Y-71826476D01*
X177323714Y-71874095D01*
X202898285Y-112180666D02*
X202422095Y-112180666D01*
X202993523Y-112466380D02*
X202660190Y-111466380D01*
X202326857Y-112466380D01*
X202041142Y-111561619D02*
X201993523Y-111514000D01*
X201898285Y-111466380D01*
X201660190Y-111466380D01*
X201564952Y-111514000D01*
X201517333Y-111561619D01*
X201469714Y-111656857D01*
X201469714Y-111752095D01*
X201517333Y-111894952D01*
X202088761Y-112466380D01*
X201469714Y-112466380D01*
X202588761Y-109148571D02*
X202445904Y-109196190D01*
X202398285Y-109243809D01*
X202350666Y-109339047D01*
X202350666Y-109481904D01*
X202398285Y-109577142D01*
X202445904Y-109624761D01*
X202541142Y-109672380D01*
X202922095Y-109672380D01*
X202922095Y-108672380D01*
X202588761Y-108672380D01*
X202493523Y-108720000D01*
X202445904Y-108767619D01*
X202398285Y-108862857D01*
X202398285Y-108958095D01*
X202445904Y-109053333D01*
X202493523Y-109100952D01*
X202588761Y-109148571D01*
X202922095Y-109148571D01*
X201969714Y-108767619D02*
X201922095Y-108720000D01*
X201826857Y-108672380D01*
X201588761Y-108672380D01*
X201493523Y-108720000D01*
X201445904Y-108767619D01*
X201398285Y-108862857D01*
X201398285Y-108958095D01*
X201445904Y-109100952D01*
X202017333Y-109672380D01*
X201398285Y-109672380D01*
X139398285Y-112180666D02*
X138922095Y-112180666D01*
X139493523Y-112466380D02*
X139160190Y-111466380D01*
X138826857Y-112466380D01*
X137969714Y-112466380D02*
X138541142Y-112466380D01*
X138255428Y-112466380D02*
X138255428Y-111466380D01*
X138350666Y-111609238D01*
X138445904Y-111704476D01*
X138541142Y-111752095D01*
X139088761Y-109402571D02*
X138945904Y-109450190D01*
X138898285Y-109497809D01*
X138850666Y-109593047D01*
X138850666Y-109735904D01*
X138898285Y-109831142D01*
X138945904Y-109878761D01*
X139041142Y-109926380D01*
X139422095Y-109926380D01*
X139422095Y-108926380D01*
X139088761Y-108926380D01*
X138993523Y-108974000D01*
X138945904Y-109021619D01*
X138898285Y-109116857D01*
X138898285Y-109212095D01*
X138945904Y-109307333D01*
X138993523Y-109354952D01*
X139088761Y-109402571D01*
X139422095Y-109402571D01*
X137898285Y-109926380D02*
X138469714Y-109926380D01*
X138184000Y-109926380D02*
X138184000Y-108926380D01*
X138279238Y-109069238D01*
X138374476Y-109164476D01*
X138469714Y-109212095D01*
X202922095Y-66492380D02*
X202922095Y-65492380D01*
X202684000Y-65492380D01*
X202541142Y-65540000D01*
X202445904Y-65635238D01*
X202398285Y-65730476D01*
X202350666Y-65920952D01*
X202350666Y-66063809D01*
X202398285Y-66254285D01*
X202445904Y-66349523D01*
X202541142Y-66444761D01*
X202684000Y-66492380D01*
X202922095Y-66492380D01*
X201969714Y-65587619D02*
X201922095Y-65540000D01*
X201826857Y-65492380D01*
X201588761Y-65492380D01*
X201493523Y-65540000D01*
X201445904Y-65587619D01*
X201398285Y-65682857D01*
X201398285Y-65778095D01*
X201445904Y-65920952D01*
X202017333Y-66492380D01*
X201398285Y-66492380D01*
X202350666Y-69191142D02*
X202398285Y-69238761D01*
X202541142Y-69286380D01*
X202636380Y-69286380D01*
X202779238Y-69238761D01*
X202874476Y-69143523D01*
X202922095Y-69048285D01*
X202969714Y-68857809D01*
X202969714Y-68714952D01*
X202922095Y-68524476D01*
X202874476Y-68429238D01*
X202779238Y-68334000D01*
X202636380Y-68286380D01*
X202541142Y-68286380D01*
X202398285Y-68334000D01*
X202350666Y-68381619D01*
X201969714Y-68381619D02*
X201922095Y-68334000D01*
X201826857Y-68286380D01*
X201588761Y-68286380D01*
X201493523Y-68334000D01*
X201445904Y-68381619D01*
X201398285Y-68476857D01*
X201398285Y-68572095D01*
X201445904Y-68714952D01*
X202017333Y-69286380D01*
X201398285Y-69286380D01*
X139422095Y-67000380D02*
X139422095Y-66000380D01*
X139184000Y-66000380D01*
X139041142Y-66048000D01*
X138945904Y-66143238D01*
X138898285Y-66238476D01*
X138850666Y-66428952D01*
X138850666Y-66571809D01*
X138898285Y-66762285D01*
X138945904Y-66857523D01*
X139041142Y-66952761D01*
X139184000Y-67000380D01*
X139422095Y-67000380D01*
X137898285Y-67000380D02*
X138469714Y-67000380D01*
X138184000Y-67000380D02*
X138184000Y-66000380D01*
X138279238Y-66143238D01*
X138374476Y-66238476D01*
X138469714Y-66286095D01*
X138850666Y-69191142D02*
X138898285Y-69238761D01*
X139041142Y-69286380D01*
X139136380Y-69286380D01*
X139279238Y-69238761D01*
X139374476Y-69143523D01*
X139422095Y-69048285D01*
X139469714Y-68857809D01*
X139469714Y-68714952D01*
X139422095Y-68524476D01*
X139374476Y-68429238D01*
X139279238Y-68334000D01*
X139136380Y-68286380D01*
X139041142Y-68286380D01*
X138898285Y-68334000D01*
X138850666Y-68381619D01*
X137898285Y-69286380D02*
X138469714Y-69286380D01*
X138184000Y-69286380D02*
X138184000Y-68286380D01*
X138279238Y-68429238D01*
X138374476Y-68524476D01*
X138469714Y-68572095D01*
X200707523Y-104354380D02*
X200040857Y-105354380D01*
X200040857Y-104354380D02*
X200707523Y-105354380D01*
X199231333Y-104354380D02*
X199421809Y-104354380D01*
X199517047Y-104402000D01*
X199564666Y-104449619D01*
X199659904Y-104592476D01*
X199707523Y-104782952D01*
X199707523Y-105163904D01*
X199659904Y-105259142D01*
X199612285Y-105306761D01*
X199517047Y-105354380D01*
X199326571Y-105354380D01*
X199231333Y-105306761D01*
X199183714Y-105259142D01*
X199136095Y-105163904D01*
X199136095Y-104925809D01*
X199183714Y-104830571D01*
X199231333Y-104782952D01*
X199326571Y-104735333D01*
X199517047Y-104735333D01*
X199612285Y-104782952D01*
X199659904Y-104830571D01*
X199707523Y-104925809D01*
X200707523Y-72858380D02*
X200040857Y-73858380D01*
X200040857Y-72858380D02*
X200707523Y-73858380D01*
X199755142Y-72858380D02*
X199088476Y-72858380D01*
X199517047Y-73858380D01*
X137207523Y-104354380D02*
X136540857Y-105354380D01*
X136540857Y-104354380D02*
X137207523Y-105354380D01*
X136017047Y-104782952D02*
X136112285Y-104735333D01*
X136159904Y-104687714D01*
X136207523Y-104592476D01*
X136207523Y-104544857D01*
X136159904Y-104449619D01*
X136112285Y-104402000D01*
X136017047Y-104354380D01*
X135826571Y-104354380D01*
X135731333Y-104402000D01*
X135683714Y-104449619D01*
X135636095Y-104544857D01*
X135636095Y-104592476D01*
X135683714Y-104687714D01*
X135731333Y-104735333D01*
X135826571Y-104782952D01*
X136017047Y-104782952D01*
X136112285Y-104830571D01*
X136159904Y-104878190D01*
X136207523Y-104973428D01*
X136207523Y-105163904D01*
X136159904Y-105259142D01*
X136112285Y-105306761D01*
X136017047Y-105354380D01*
X135826571Y-105354380D01*
X135731333Y-105306761D01*
X135683714Y-105259142D01*
X135636095Y-105163904D01*
X135636095Y-104973428D01*
X135683714Y-104878190D01*
X135731333Y-104830571D01*
X135826571Y-104782952D01*
X137207523Y-72858380D02*
X136540857Y-73858380D01*
X136540857Y-72858380D02*
X137207523Y-73858380D01*
X136112285Y-73858380D02*
X135921809Y-73858380D01*
X135826571Y-73810761D01*
X135778952Y-73763142D01*
X135683714Y-73620285D01*
X135636095Y-73429809D01*
X135636095Y-73048857D01*
X135683714Y-72953619D01*
X135731333Y-72906000D01*
X135826571Y-72858380D01*
X136017047Y-72858380D01*
X136112285Y-72906000D01*
X136159904Y-72953619D01*
X136207523Y-73048857D01*
X136207523Y-73286952D01*
X136159904Y-73382190D01*
X136112285Y-73429809D01*
X136017047Y-73477428D01*
X135826571Y-73477428D01*
X135731333Y-73429809D01*
X135683714Y-73382190D01*
X135636095Y-73286952D01*
X176752285Y-106624380D02*
X177323714Y-106624380D01*
X177038000Y-106624380D02*
X177038000Y-105624380D01*
X177133238Y-105767238D01*
X177228476Y-105862476D01*
X177323714Y-105910095D01*
X200088476Y-106624380D02*
X200659904Y-106624380D01*
X200374190Y-106624380D02*
X200374190Y-105624380D01*
X200469428Y-105767238D01*
X200564666Y-105862476D01*
X200659904Y-105910095D01*
X199469428Y-105624380D02*
X199374190Y-105624380D01*
X199278952Y-105672000D01*
X199231333Y-105719619D01*
X199183714Y-105814857D01*
X199136095Y-106005333D01*
X199136095Y-106243428D01*
X199183714Y-106433904D01*
X199231333Y-106529142D01*
X199278952Y-106576761D01*
X199374190Y-106624380D01*
X199469428Y-106624380D01*
X199564666Y-106576761D01*
X199612285Y-106529142D01*
X199659904Y-106433904D01*
X199707523Y-106243428D01*
X199707523Y-106005333D01*
X199659904Y-105814857D01*
X199612285Y-105719619D01*
X199564666Y-105672000D01*
X199469428Y-105624380D01*
X200088476Y-72588380D02*
X200659904Y-72588380D01*
X200374190Y-72588380D02*
X200374190Y-71588380D01*
X200469428Y-71731238D01*
X200564666Y-71826476D01*
X200659904Y-71874095D01*
X199469428Y-71588380D02*
X199374190Y-71588380D01*
X199278952Y-71636000D01*
X199231333Y-71683619D01*
X199183714Y-71778857D01*
X199136095Y-71969333D01*
X199136095Y-72207428D01*
X199183714Y-72397904D01*
X199231333Y-72493142D01*
X199278952Y-72540761D01*
X199374190Y-72588380D01*
X199469428Y-72588380D01*
X199564666Y-72540761D01*
X199612285Y-72493142D01*
X199659904Y-72397904D01*
X199707523Y-72207428D01*
X199707523Y-71969333D01*
X199659904Y-71778857D01*
X199612285Y-71683619D01*
X199564666Y-71636000D01*
X199469428Y-71588380D01*
X136588476Y-106624380D02*
X137159904Y-106624380D01*
X136874190Y-106624380D02*
X136874190Y-105624380D01*
X136969428Y-105767238D01*
X137064666Y-105862476D01*
X137159904Y-105910095D01*
X135969428Y-105624380D02*
X135874190Y-105624380D01*
X135778952Y-105672000D01*
X135731333Y-105719619D01*
X135683714Y-105814857D01*
X135636095Y-106005333D01*
X135636095Y-106243428D01*
X135683714Y-106433904D01*
X135731333Y-106529142D01*
X135778952Y-106576761D01*
X135874190Y-106624380D01*
X135969428Y-106624380D01*
X136064666Y-106576761D01*
X136112285Y-106529142D01*
X136159904Y-106433904D01*
X136207523Y-106243428D01*
X136207523Y-106005333D01*
X136159904Y-105814857D01*
X136112285Y-105719619D01*
X136064666Y-105672000D01*
X135969428Y-105624380D01*
X136588476Y-72588380D02*
X137159904Y-72588380D01*
X136874190Y-72588380D02*
X136874190Y-71588380D01*
X136969428Y-71731238D01*
X137064666Y-71826476D01*
X137159904Y-71874095D01*
X135969428Y-71588380D02*
X135874190Y-71588380D01*
X135778952Y-71636000D01*
X135731333Y-71683619D01*
X135683714Y-71778857D01*
X135636095Y-71969333D01*
X135636095Y-72207428D01*
X135683714Y-72397904D01*
X135731333Y-72493142D01*
X135778952Y-72540761D01*
X135874190Y-72588380D01*
X135969428Y-72588380D01*
X136064666Y-72540761D01*
X136112285Y-72493142D01*
X136159904Y-72397904D01*
X136207523Y-72207428D01*
X136207523Y-71969333D01*
X136159904Y-71778857D01*
X136112285Y-71683619D01*
X136064666Y-71636000D01*
X135969428Y-71588380D01*
%TD*%
M02*
