%TF.GenerationSoftware,KiCad,Pcbnew,(5.1.10)-1*%
%TF.CreationDate,2021-12-04T20:19:19-06:00*%
%TF.ProjectId,2022 Multimedia Rev1,32303232-204d-4756-9c74-696d65646961,rev?*%
%TF.SameCoordinates,Original*%
%TF.FileFunction,Paste,Top*%
%TF.FilePolarity,Positive*%
%FSLAX46Y46*%
G04 Gerber Fmt 4.6, Leading zero omitted, Abs format (unit mm)*
G04 Created by KiCad (PCBNEW (5.1.10)-1) date 2021-12-04 20:19:19*
%MOMM*%
%LPD*%
G01*
G04 APERTURE LIST*
G04 APERTURE END LIST*
%TO.C,U3*%
G36*
G01*
X191879000Y-59580000D02*
X191129000Y-59580000D01*
G75*
G02*
X190899000Y-59350000I0J230000D01*
G01*
X190899000Y-58890000D01*
G75*
G02*
X191129000Y-58660000I230000J0D01*
G01*
X191879000Y-58660000D01*
G75*
G02*
X192109000Y-58890000I0J-230000D01*
G01*
X192109000Y-59350000D01*
G75*
G02*
X191879000Y-59580000I-230000J0D01*
G01*
G37*
G36*
G01*
X190379000Y-59580000D02*
X189629000Y-59580000D01*
G75*
G02*
X189399000Y-59350000I0J230000D01*
G01*
X189399000Y-58890000D01*
G75*
G02*
X189629000Y-58660000I230000J0D01*
G01*
X190379000Y-58660000D01*
G75*
G02*
X190609000Y-58890000I0J-230000D01*
G01*
X190609000Y-59350000D01*
G75*
G02*
X190379000Y-59580000I-230000J0D01*
G01*
G37*
G36*
G01*
X191879000Y-60720000D02*
X191129000Y-60720000D01*
G75*
G02*
X190899000Y-60490000I0J230000D01*
G01*
X190899000Y-60030000D01*
G75*
G02*
X191129000Y-59800000I230000J0D01*
G01*
X191879000Y-59800000D01*
G75*
G02*
X192109000Y-60030000I0J-230000D01*
G01*
X192109000Y-60490000D01*
G75*
G02*
X191879000Y-60720000I-230000J0D01*
G01*
G37*
G36*
G01*
X190379000Y-60720000D02*
X189629000Y-60720000D01*
G75*
G02*
X189399000Y-60490000I0J230000D01*
G01*
X189399000Y-60030000D01*
G75*
G02*
X189629000Y-59800000I230000J0D01*
G01*
X190379000Y-59800000D01*
G75*
G02*
X190609000Y-60030000I0J-230000D01*
G01*
X190609000Y-60490000D01*
G75*
G02*
X190379000Y-60720000I-230000J0D01*
G01*
G37*
G36*
G01*
X188999000Y-58190000D02*
X188699000Y-58190000D01*
G75*
G02*
X188549000Y-58040000I0J150000D01*
G01*
X188549000Y-56390000D01*
G75*
G02*
X188699000Y-56240000I150000J0D01*
G01*
X188999000Y-56240000D01*
G75*
G02*
X189149000Y-56390000I0J-150000D01*
G01*
X189149000Y-58040000D01*
G75*
G02*
X188999000Y-58190000I-150000J0D01*
G01*
G37*
G36*
G01*
X190269000Y-58190000D02*
X189969000Y-58190000D01*
G75*
G02*
X189819000Y-58040000I0J150000D01*
G01*
X189819000Y-56390000D01*
G75*
G02*
X189969000Y-56240000I150000J0D01*
G01*
X190269000Y-56240000D01*
G75*
G02*
X190419000Y-56390000I0J-150000D01*
G01*
X190419000Y-58040000D01*
G75*
G02*
X190269000Y-58190000I-150000J0D01*
G01*
G37*
G36*
G01*
X191539000Y-58190000D02*
X191239000Y-58190000D01*
G75*
G02*
X191089000Y-58040000I0J150000D01*
G01*
X191089000Y-56390000D01*
G75*
G02*
X191239000Y-56240000I150000J0D01*
G01*
X191539000Y-56240000D01*
G75*
G02*
X191689000Y-56390000I0J-150000D01*
G01*
X191689000Y-58040000D01*
G75*
G02*
X191539000Y-58190000I-150000J0D01*
G01*
G37*
G36*
G01*
X192809000Y-58190000D02*
X192509000Y-58190000D01*
G75*
G02*
X192359000Y-58040000I0J150000D01*
G01*
X192359000Y-56390000D01*
G75*
G02*
X192509000Y-56240000I150000J0D01*
G01*
X192809000Y-56240000D01*
G75*
G02*
X192959000Y-56390000I0J-150000D01*
G01*
X192959000Y-58040000D01*
G75*
G02*
X192809000Y-58190000I-150000J0D01*
G01*
G37*
G36*
G01*
X192809000Y-63140000D02*
X192509000Y-63140000D01*
G75*
G02*
X192359000Y-62990000I0J150000D01*
G01*
X192359000Y-61340000D01*
G75*
G02*
X192509000Y-61190000I150000J0D01*
G01*
X192809000Y-61190000D01*
G75*
G02*
X192959000Y-61340000I0J-150000D01*
G01*
X192959000Y-62990000D01*
G75*
G02*
X192809000Y-63140000I-150000J0D01*
G01*
G37*
G36*
G01*
X191539000Y-63140000D02*
X191239000Y-63140000D01*
G75*
G02*
X191089000Y-62990000I0J150000D01*
G01*
X191089000Y-61340000D01*
G75*
G02*
X191239000Y-61190000I150000J0D01*
G01*
X191539000Y-61190000D01*
G75*
G02*
X191689000Y-61340000I0J-150000D01*
G01*
X191689000Y-62990000D01*
G75*
G02*
X191539000Y-63140000I-150000J0D01*
G01*
G37*
G36*
G01*
X190269000Y-63140000D02*
X189969000Y-63140000D01*
G75*
G02*
X189819000Y-62990000I0J150000D01*
G01*
X189819000Y-61340000D01*
G75*
G02*
X189969000Y-61190000I150000J0D01*
G01*
X190269000Y-61190000D01*
G75*
G02*
X190419000Y-61340000I0J-150000D01*
G01*
X190419000Y-62990000D01*
G75*
G02*
X190269000Y-63140000I-150000J0D01*
G01*
G37*
G36*
G01*
X188999000Y-63140000D02*
X188699000Y-63140000D01*
G75*
G02*
X188549000Y-62990000I0J150000D01*
G01*
X188549000Y-61340000D01*
G75*
G02*
X188699000Y-61190000I150000J0D01*
G01*
X188999000Y-61190000D01*
G75*
G02*
X189149000Y-61340000I0J-150000D01*
G01*
X189149000Y-62990000D01*
G75*
G02*
X188999000Y-63140000I-150000J0D01*
G01*
G37*
%TD*%
%TO.C,R3*%
G36*
G01*
X194660000Y-54593500D02*
X194660000Y-54118500D01*
G75*
G02*
X194897500Y-53881000I237500J0D01*
G01*
X195472500Y-53881000D01*
G75*
G02*
X195710000Y-54118500I0J-237500D01*
G01*
X195710000Y-54593500D01*
G75*
G02*
X195472500Y-54831000I-237500J0D01*
G01*
X194897500Y-54831000D01*
G75*
G02*
X194660000Y-54593500I0J237500D01*
G01*
G37*
G36*
G01*
X192910000Y-54593500D02*
X192910000Y-54118500D01*
G75*
G02*
X193147500Y-53881000I237500J0D01*
G01*
X193722500Y-53881000D01*
G75*
G02*
X193960000Y-54118500I0J-237500D01*
G01*
X193960000Y-54593500D01*
G75*
G02*
X193722500Y-54831000I-237500J0D01*
G01*
X193147500Y-54831000D01*
G75*
G02*
X192910000Y-54593500I0J237500D01*
G01*
G37*
%TD*%
%TO.C,R2*%
G36*
G01*
X164369000Y-93234500D02*
X164369000Y-93709500D01*
G75*
G02*
X164131500Y-93947000I-237500J0D01*
G01*
X163556500Y-93947000D01*
G75*
G02*
X163319000Y-93709500I0J237500D01*
G01*
X163319000Y-93234500D01*
G75*
G02*
X163556500Y-92997000I237500J0D01*
G01*
X164131500Y-92997000D01*
G75*
G02*
X164369000Y-93234500I0J-237500D01*
G01*
G37*
G36*
G01*
X166119000Y-93234500D02*
X166119000Y-93709500D01*
G75*
G02*
X165881500Y-93947000I-237500J0D01*
G01*
X165306500Y-93947000D01*
G75*
G02*
X165069000Y-93709500I0J237500D01*
G01*
X165069000Y-93234500D01*
G75*
G02*
X165306500Y-92997000I237500J0D01*
G01*
X165881500Y-92997000D01*
G75*
G02*
X166119000Y-93234500I0J-237500D01*
G01*
G37*
%TD*%
%TO.C,R1*%
G36*
G01*
X163734000Y-81169500D02*
X163734000Y-81644500D01*
G75*
G02*
X163496500Y-81882000I-237500J0D01*
G01*
X162921500Y-81882000D01*
G75*
G02*
X162684000Y-81644500I0J237500D01*
G01*
X162684000Y-81169500D01*
G75*
G02*
X162921500Y-80932000I237500J0D01*
G01*
X163496500Y-80932000D01*
G75*
G02*
X163734000Y-81169500I0J-237500D01*
G01*
G37*
G36*
G01*
X165484000Y-81169500D02*
X165484000Y-81644500D01*
G75*
G02*
X165246500Y-81882000I-237500J0D01*
G01*
X164671500Y-81882000D01*
G75*
G02*
X164434000Y-81644500I0J237500D01*
G01*
X164434000Y-81169500D01*
G75*
G02*
X164671500Y-80932000I237500J0D01*
G01*
X165246500Y-80932000D01*
G75*
G02*
X165484000Y-81169500I0J-237500D01*
G01*
G37*
%TD*%
%TO.C,D2*%
G36*
G01*
X168814000Y-93234500D02*
X168814000Y-93709500D01*
G75*
G02*
X168576500Y-93947000I-237500J0D01*
G01*
X168001500Y-93947000D01*
G75*
G02*
X167764000Y-93709500I0J237500D01*
G01*
X167764000Y-93234500D01*
G75*
G02*
X168001500Y-92997000I237500J0D01*
G01*
X168576500Y-92997000D01*
G75*
G02*
X168814000Y-93234500I0J-237500D01*
G01*
G37*
G36*
G01*
X170564000Y-93234500D02*
X170564000Y-93709500D01*
G75*
G02*
X170326500Y-93947000I-237500J0D01*
G01*
X169751500Y-93947000D01*
G75*
G02*
X169514000Y-93709500I0J237500D01*
G01*
X169514000Y-93234500D01*
G75*
G02*
X169751500Y-92997000I237500J0D01*
G01*
X170326500Y-92997000D01*
G75*
G02*
X170564000Y-93234500I0J-237500D01*
G01*
G37*
%TD*%
%TO.C,D1*%
G36*
G01*
X168179000Y-81169500D02*
X168179000Y-81644500D01*
G75*
G02*
X167941500Y-81882000I-237500J0D01*
G01*
X167366500Y-81882000D01*
G75*
G02*
X167129000Y-81644500I0J237500D01*
G01*
X167129000Y-81169500D01*
G75*
G02*
X167366500Y-80932000I237500J0D01*
G01*
X167941500Y-80932000D01*
G75*
G02*
X168179000Y-81169500I0J-237500D01*
G01*
G37*
G36*
G01*
X169929000Y-81169500D02*
X169929000Y-81644500D01*
G75*
G02*
X169691500Y-81882000I-237500J0D01*
G01*
X169116500Y-81882000D01*
G75*
G02*
X168879000Y-81644500I0J237500D01*
G01*
X168879000Y-81169500D01*
G75*
G02*
X169116500Y-80932000I237500J0D01*
G01*
X169691500Y-80932000D01*
G75*
G02*
X169929000Y-81169500I0J-237500D01*
G01*
G37*
%TD*%
%TO.C,C8*%
G36*
G01*
X160511500Y-92247000D02*
X160036500Y-92247000D01*
G75*
G02*
X159799000Y-92009500I0J237500D01*
G01*
X159799000Y-91434500D01*
G75*
G02*
X160036500Y-91197000I237500J0D01*
G01*
X160511500Y-91197000D01*
G75*
G02*
X160749000Y-91434500I0J-237500D01*
G01*
X160749000Y-92009500D01*
G75*
G02*
X160511500Y-92247000I-237500J0D01*
G01*
G37*
G36*
G01*
X160511500Y-93997000D02*
X160036500Y-93997000D01*
G75*
G02*
X159799000Y-93759500I0J237500D01*
G01*
X159799000Y-93184500D01*
G75*
G02*
X160036500Y-92947000I237500J0D01*
G01*
X160511500Y-92947000D01*
G75*
G02*
X160749000Y-93184500I0J-237500D01*
G01*
X160749000Y-93759500D01*
G75*
G02*
X160511500Y-93997000I-237500J0D01*
G01*
G37*
%TD*%
%TO.C,C7*%
G36*
G01*
X120365000Y-65642500D02*
X120365000Y-65167500D01*
G75*
G02*
X120602500Y-64930000I237500J0D01*
G01*
X121177500Y-64930000D01*
G75*
G02*
X121415000Y-65167500I0J-237500D01*
G01*
X121415000Y-65642500D01*
G75*
G02*
X121177500Y-65880000I-237500J0D01*
G01*
X120602500Y-65880000D01*
G75*
G02*
X120365000Y-65642500I0J237500D01*
G01*
G37*
G36*
G01*
X118615000Y-65642500D02*
X118615000Y-65167500D01*
G75*
G02*
X118852500Y-64930000I237500J0D01*
G01*
X119427500Y-64930000D01*
G75*
G02*
X119665000Y-65167500I0J-237500D01*
G01*
X119665000Y-65642500D01*
G75*
G02*
X119427500Y-65880000I-237500J0D01*
G01*
X118852500Y-65880000D01*
G75*
G02*
X118615000Y-65642500I0J237500D01*
G01*
G37*
%TD*%
%TO.C,C6*%
G36*
G01*
X134335000Y-65642500D02*
X134335000Y-65167500D01*
G75*
G02*
X134572500Y-64930000I237500J0D01*
G01*
X135147500Y-64930000D01*
G75*
G02*
X135385000Y-65167500I0J-237500D01*
G01*
X135385000Y-65642500D01*
G75*
G02*
X135147500Y-65880000I-237500J0D01*
G01*
X134572500Y-65880000D01*
G75*
G02*
X134335000Y-65642500I0J237500D01*
G01*
G37*
G36*
G01*
X132585000Y-65642500D02*
X132585000Y-65167500D01*
G75*
G02*
X132822500Y-64930000I237500J0D01*
G01*
X133397500Y-64930000D01*
G75*
G02*
X133635000Y-65167500I0J-237500D01*
G01*
X133635000Y-65642500D01*
G75*
G02*
X133397500Y-65880000I-237500J0D01*
G01*
X132822500Y-65880000D01*
G75*
G02*
X132585000Y-65642500I0J237500D01*
G01*
G37*
%TD*%
%TO.C,C5*%
G36*
G01*
X148305000Y-65642500D02*
X148305000Y-65167500D01*
G75*
G02*
X148542500Y-64930000I237500J0D01*
G01*
X149117500Y-64930000D01*
G75*
G02*
X149355000Y-65167500I0J-237500D01*
G01*
X149355000Y-65642500D01*
G75*
G02*
X149117500Y-65880000I-237500J0D01*
G01*
X148542500Y-65880000D01*
G75*
G02*
X148305000Y-65642500I0J237500D01*
G01*
G37*
G36*
G01*
X146555000Y-65642500D02*
X146555000Y-65167500D01*
G75*
G02*
X146792500Y-64930000I237500J0D01*
G01*
X147367500Y-64930000D01*
G75*
G02*
X147605000Y-65167500I0J-237500D01*
G01*
X147605000Y-65642500D01*
G75*
G02*
X147367500Y-65880000I-237500J0D01*
G01*
X146792500Y-65880000D01*
G75*
G02*
X146555000Y-65642500I0J237500D01*
G01*
G37*
%TD*%
%TO.C,C4*%
G36*
G01*
X160511500Y-80182000D02*
X160036500Y-80182000D01*
G75*
G02*
X159799000Y-79944500I0J237500D01*
G01*
X159799000Y-79369500D01*
G75*
G02*
X160036500Y-79132000I237500J0D01*
G01*
X160511500Y-79132000D01*
G75*
G02*
X160749000Y-79369500I0J-237500D01*
G01*
X160749000Y-79944500D01*
G75*
G02*
X160511500Y-80182000I-237500J0D01*
G01*
G37*
G36*
G01*
X160511500Y-81932000D02*
X160036500Y-81932000D01*
G75*
G02*
X159799000Y-81694500I0J237500D01*
G01*
X159799000Y-81119500D01*
G75*
G02*
X160036500Y-80882000I237500J0D01*
G01*
X160511500Y-80882000D01*
G75*
G02*
X160749000Y-81119500I0J-237500D01*
G01*
X160749000Y-81694500D01*
G75*
G02*
X160511500Y-81932000I-237500J0D01*
G01*
G37*
%TD*%
%TO.C,C3*%
G36*
G01*
X162275000Y-65642500D02*
X162275000Y-65167500D01*
G75*
G02*
X162512500Y-64930000I237500J0D01*
G01*
X163087500Y-64930000D01*
G75*
G02*
X163325000Y-65167500I0J-237500D01*
G01*
X163325000Y-65642500D01*
G75*
G02*
X163087500Y-65880000I-237500J0D01*
G01*
X162512500Y-65880000D01*
G75*
G02*
X162275000Y-65642500I0J237500D01*
G01*
G37*
G36*
G01*
X160525000Y-65642500D02*
X160525000Y-65167500D01*
G75*
G02*
X160762500Y-64930000I237500J0D01*
G01*
X161337500Y-64930000D01*
G75*
G02*
X161575000Y-65167500I0J-237500D01*
G01*
X161575000Y-65642500D01*
G75*
G02*
X161337500Y-65880000I-237500J0D01*
G01*
X160762500Y-65880000D01*
G75*
G02*
X160525000Y-65642500I0J237500D01*
G01*
G37*
%TD*%
%TO.C,C2*%
G36*
G01*
X158606500Y-87167000D02*
X158131500Y-87167000D01*
G75*
G02*
X157894000Y-86929500I0J237500D01*
G01*
X157894000Y-86354500D01*
G75*
G02*
X158131500Y-86117000I237500J0D01*
G01*
X158606500Y-86117000D01*
G75*
G02*
X158844000Y-86354500I0J-237500D01*
G01*
X158844000Y-86929500D01*
G75*
G02*
X158606500Y-87167000I-237500J0D01*
G01*
G37*
G36*
G01*
X158606500Y-88917000D02*
X158131500Y-88917000D01*
G75*
G02*
X157894000Y-88679500I0J237500D01*
G01*
X157894000Y-88104500D01*
G75*
G02*
X158131500Y-87867000I237500J0D01*
G01*
X158606500Y-87867000D01*
G75*
G02*
X158844000Y-88104500I0J-237500D01*
G01*
X158844000Y-88679500D01*
G75*
G02*
X158606500Y-88917000I-237500J0D01*
G01*
G37*
%TD*%
%TO.C,C1*%
G36*
G01*
X158606500Y-75102000D02*
X158131500Y-75102000D01*
G75*
G02*
X157894000Y-74864500I0J237500D01*
G01*
X157894000Y-74289500D01*
G75*
G02*
X158131500Y-74052000I237500J0D01*
G01*
X158606500Y-74052000D01*
G75*
G02*
X158844000Y-74289500I0J-237500D01*
G01*
X158844000Y-74864500D01*
G75*
G02*
X158606500Y-75102000I-237500J0D01*
G01*
G37*
G36*
G01*
X158606500Y-76852000D02*
X158131500Y-76852000D01*
G75*
G02*
X157894000Y-76614500I0J237500D01*
G01*
X157894000Y-76039500D01*
G75*
G02*
X158131500Y-75802000I237500J0D01*
G01*
X158606500Y-75802000D01*
G75*
G02*
X158844000Y-76039500I0J-237500D01*
G01*
X158844000Y-76614500D01*
G75*
G02*
X158606500Y-76852000I-237500J0D01*
G01*
G37*
%TD*%
M02*
